<?xml version="1.0" encoding="utf-8" standalone="no"?>
<!DOCTYPE svg PUBLIC "-//W3C//DTD SVG 1.1//EN"
  "http://www.w3.org/Graphics/SVG/1.1/DTD/svg11.dtd">
<svg xmlns:xlink="http://www.w3.org/1999/xlink" width="648pt" height="432pt" viewBox="0 0 648 432" xmlns="http://www.w3.org/2000/svg" version="1.1">
 <metadata>
  <rdf:RDF xmlns:dc="http://purl.org/dc/elements/1.1/" xmlns:cc="http://creativecommons.org/ns#" xmlns:rdf="http://www.w3.org/1999/02/22-rdf-syntax-ns#">
   <cc:Work>
    <dc:type rdf:resource="http://purl.org/dc/dcmitype/StillImage"/>
    <dc:date>2026-03-19T20:42:12.748935</dc:date>
    <dc:format>image/svg+xml</dc:format>
    <dc:creator>
     <cc:Agent>
      <dc:title>Matplotlib v3.10.6, https://matplotlib.org/</dc:title>
     </cc:Agent>
    </dc:creator>
   </cc:Work>
  </rdf:RDF>
 </metadata>
 <defs>
  <style type="text/css">*{stroke-linejoin: round; stroke-linecap: butt}</style>
 </defs>
 <g id="figure_1">
  <g id="patch_1">
   <path d="M 0 432 
L 648 432 
L 648 0 
L 0 0 
z
" style="fill: #ffffff"/>
  </g>
  <g id="axes_1">
   <g id="patch_2">
    <path d="M 81 384.48 
L 583.2 384.48 
L 583.2 51.84 
L 81 51.84 
z
" style="fill: #ffffff"/>
   </g>
   <g id="FillBetweenPolyCollection_1">
    <path d="M 152.985908 384.445747 
L 92.714092 384.445747 
L 91.205601 381.845246 
L 90.123969 379.244745 
L 89.506918 376.644244 
L 89.37 374.043743 
L 89.705888 371.443242 
L 90.485537 368.842741 
L 91.661034 366.24224 
L 93.169789 363.641739 
L 94.939592 361.041238 
L 96.89399 358.440737 
L 98.957444 355.840237 
L 101.059831 353.239736 
L 103.139933 350.639235 
L 105.147739 348.038734 
L 107.045524 345.438233 
L 108.807786 342.837732 
L 110.420256 340.237231 
L 111.878233 337.63673 
L 113.184525 335.036229 
L 114.347277 332.435728 
L 115.377904 329.835227 
L 116.289314 327.234726 
L 117.09452 324.634226 
L 117.805669 322.033725 
L 118.433504 319.433224 
L 118.987164 316.832723 
L 119.474261 314.232222 
L 119.901132 311.631721 
L 120.273179 309.03122 
L 120.595215 306.430719 
L 120.871761 303.830218 
L 121.107269 301.229717 
L 121.306249 298.629216 
L 121.473298 296.028715 
L 121.613067 293.428215 
L 121.730164 290.827714 
L 121.829025 288.227213 
L 121.913779 285.626712 
L 121.988124 283.026211 
L 122.055217 280.42571 
L 122.117601 277.825209 
L 122.177177 275.224708 
L 122.235207 272.624207 
L 122.292355 270.023706 
L 122.348772 267.423205 
L 122.40419 264.822704 
L 122.458037 262.222204 
L 122.509556 259.621703 
L 122.557909 257.021202 
L 122.602264 254.420701 
L 122.641863 251.8202 
L 122.676057 249.219699 
L 122.704316 246.619198 
L 122.726218 244.018697 
L 122.741422 241.418196 
L 122.749639 238.817695 
L 122.750598 236.217194 
L 122.744033 233.616693 
L 122.729683 231.016193 
L 122.70731 228.415692 
L 122.676749 225.815191 
L 122.637969 223.21469 
L 122.591151 220.614189 
L 122.536765 218.013688 
L 122.475644 215.413187 
L 122.409033 212.812686 
L 122.338608 210.212185 
L 122.266448 207.611684 
L 122.194972 205.011183 
L 122.12681 202.410682 
L 122.064656 199.810182 
L 122.011071 197.209681 
L 121.968289 194.60918 
L 121.938019 192.008679 
L 121.921283 189.408178 
L 121.918295 186.807677 
L 121.928403 184.207176 
L 121.950101 181.606675 
L 121.981114 179.006174 
L 122.018546 176.405673 
L 122.059083 173.805172 
L 122.099242 171.204671 
L 122.135624 168.604171 
L 122.165174 166.00367 
L 122.185415 163.403169 
L 122.194635 160.802668 
L 122.192023 158.202167 
L 122.177732 155.601666 
L 122.152877 153.001165 
L 122.119448 150.400664 
L 122.080168 147.800163 
L 122.038283 145.199662 
L 121.99732 142.599161 
L 121.960816 139.99866 
L 121.932051 137.39816 
L 121.913804 134.797659 
L 121.908154 132.197158 
L 121.916341 129.596657 
L 121.938706 126.996156 
L 123.761294 126.996156 
L 123.761294 126.996156 
L 123.783659 129.596657 
L 123.791846 132.197158 
L 123.786196 134.797659 
L 123.767949 137.39816 
L 123.739184 139.99866 
L 123.70268 142.599161 
L 123.661717 145.199662 
L 123.619832 147.800163 
L 123.580552 150.400664 
L 123.547123 153.001165 
L 123.522268 155.601666 
L 123.507977 158.202167 
L 123.505365 160.802668 
L 123.514585 163.403169 
L 123.534826 166.00367 
L 123.564376 168.604171 
L 123.600758 171.204671 
L 123.640917 173.805172 
L 123.681454 176.405673 
L 123.718886 179.006174 
L 123.749899 181.606675 
L 123.771597 184.207176 
L 123.781705 186.807677 
L 123.778717 189.408178 
L 123.761981 192.008679 
L 123.731711 194.60918 
L 123.688929 197.209681 
L 123.635344 199.810182 
L 123.57319 202.410682 
L 123.505028 205.011183 
L 123.433552 207.611684 
L 123.361392 210.212185 
L 123.290967 212.812686 
L 123.224356 215.413187 
L 123.163235 218.013688 
L 123.108849 220.614189 
L 123.062031 223.21469 
L 123.023251 225.815191 
L 122.99269 228.415692 
L 122.970317 231.016193 
L 122.955967 233.616693 
L 122.949402 236.217194 
L 122.950361 238.817695 
L 122.958578 241.418196 
L 122.973782 244.018697 
L 122.995684 246.619198 
L 123.023943 249.219699 
L 123.058137 251.8202 
L 123.097736 254.420701 
L 123.142091 257.021202 
L 123.190444 259.621703 
L 123.241963 262.222204 
L 123.29581 264.822704 
L 123.351228 267.423205 
L 123.407645 270.023706 
L 123.464793 272.624207 
L 123.522823 275.224708 
L 123.582399 277.825209 
L 123.644783 280.42571 
L 123.711876 283.026211 
L 123.786221 285.626712 
L 123.870975 288.227213 
L 123.969836 290.827714 
L 124.086933 293.428215 
L 124.226702 296.028715 
L 124.393751 298.629216 
L 124.592731 301.229717 
L 124.828239 303.830218 
L 125.104785 306.430719 
L 125.426821 309.03122 
L 125.798868 311.631721 
L 126.225739 314.232222 
L 126.712836 316.832723 
L 127.266496 319.433224 
L 127.894331 322.033725 
L 128.60548 324.634226 
L 129.410686 327.234726 
L 130.322096 329.835227 
L 131.352723 332.435728 
L 132.515475 335.036229 
L 133.821767 337.63673 
L 135.279744 340.237231 
L 136.892214 342.837732 
L 138.654476 345.438233 
L 140.552261 348.038734 
L 142.560067 350.639235 
L 144.640169 353.239736 
L 146.742556 355.840237 
L 148.80601 358.440737 
L 150.760408 361.041238 
L 152.530211 363.641739 
L 154.038966 366.24224 
L 155.214463 368.842741 
L 155.994112 371.443242 
L 156.33 374.043743 
L 156.193082 376.644244 
L 155.576031 379.244745 
L 154.494399 381.845246 
L 152.985908 384.445747 
z
" clip-path="url(#p6d3b43be8b)" style="fill: #1f77b4; fill-opacity: 0.3"/>
   </g>
   <g id="FillBetweenPolyCollection_2">
    <path d="M 237.649269 384.177564 
L 175.450731 384.177564 
L 174.457907 381.047644 
L 173.720345 377.917724 
L 173.254586 374.787805 
L 173.07 371.657885 
L 173.168425 368.527965 
L 173.544133 365.398046 
L 174.184141 362.268126 
L 175.068834 359.138206 
L 176.17286 356.008286 
L 177.466253 352.878367 
L 178.915702 349.748447 
L 180.4859 346.618527 
L 182.1409 343.488608 
L 183.845407 340.358688 
L 185.565942 337.228768 
L 187.271833 334.098849 
L 188.935996 330.968929 
L 190.535492 327.839009 
L 192.051841 324.709089 
L 193.471122 321.57917 
L 194.783869 318.44925 
L 195.984789 315.31933 
L 197.072351 312.189411 
L 198.048273 309.059491 
L 198.916947 305.929571 
L 199.684847 302.799652 
L 200.359939 299.669732 
L 200.951128 296.539812 
L 201.467757 293.409893 
L 201.919178 290.279973 
L 202.314398 287.150053 
L 202.661795 284.020133 
L 202.968926 280.890214 
L 203.242389 277.760294 
L 203.487764 274.630374 
L 203.709594 271.500455 
L 203.911423 268.370535 
L 204.095862 265.240615 
L 204.264685 262.110696 
L 204.418939 258.980776 
L 204.559071 255.850856 
L 204.685054 252.720936 
L 204.796519 249.591017 
L 204.892878 246.461097 
L 204.973444 243.331177 
L 205.037538 240.201258 
L 205.084588 237.071338 
L 205.114211 233.941418 
L 205.126285 230.811499 
L 205.120999 227.681579 
L 205.098894 224.551659 
L 205.060884 221.42174 
L 205.00826 218.29182 
L 204.94268 215.1619 
L 204.866138 212.03198 
L 204.780926 208.902061 
L 204.689577 205.772141 
L 204.594798 202.642221 
L 204.49939 199.512302 
L 204.406166 196.382382 
L 204.317864 193.252462 
L 204.237051 190.122543 
L 204.166041 186.992623 
L 204.106808 183.862703 
L 204.060912 180.732783 
L 204.029444 177.602864 
L 204.012973 174.472944 
L 204.011522 171.343024 
L 204.024563 168.213105 
L 204.051032 165.083185 
L 204.089364 161.953265 
L 204.137555 158.823346 
L 204.193243 155.693426 
L 204.253801 152.563506 
L 204.316451 149.433586 
L 204.378383 146.303667 
L 204.436879 143.173747 
L 204.489435 140.043827 
L 204.533873 136.913908 
L 204.568445 133.783988 
L 204.591914 130.654068 
L 204.603614 127.524149 
L 204.603484 124.394229 
L 204.592072 121.264309 
L 204.570513 118.13439 
L 204.540479 115.00447 
L 204.504103 111.87455 
L 204.463879 108.74463 
L 204.422549 105.614711 
L 204.382977 102.484791 
L 204.34802 99.354871 
L 204.320395 96.224952 
L 204.302567 93.095032 
L 204.296637 89.965112 
L 204.304258 86.835193 
L 204.326573 83.705273 
L 204.364179 80.575353 
L 204.417114 77.445433 
L 204.484878 74.315514 
L 208.615122 74.315514 
L 208.615122 74.315514 
L 208.682886 77.445433 
L 208.735821 80.575353 
L 208.773427 83.705273 
L 208.795742 86.835193 
L 208.803363 89.965112 
L 208.797433 93.095032 
L 208.779605 96.224952 
L 208.75198 99.354871 
L 208.717023 102.484791 
L 208.677451 105.614711 
L 208.636121 108.74463 
L 208.595897 111.87455 
L 208.559521 115.00447 
L 208.529487 118.13439 
L 208.507928 121.264309 
L 208.496516 124.394229 
L 208.496386 127.524149 
L 208.508086 130.654068 
L 208.531555 133.783988 
L 208.566127 136.913908 
L 208.610565 140.043827 
L 208.663121 143.173747 
L 208.721617 146.303667 
L 208.783549 149.433586 
L 208.846199 152.563506 
L 208.906757 155.693426 
L 208.962445 158.823346 
L 209.010636 161.953265 
L 209.048968 165.083185 
L 209.075437 168.213105 
L 209.088478 171.343024 
L 209.087027 174.472944 
L 209.070556 177.602864 
L 209.039088 180.732783 
L 208.993192 183.862703 
L 208.933959 186.992623 
L 208.862949 190.122543 
L 208.782136 193.252462 
L 208.693834 196.382382 
L 208.60061 199.512302 
L 208.505202 202.642221 
L 208.410423 205.772141 
L 208.319074 208.902061 
L 208.233862 212.03198 
L 208.15732 215.1619 
L 208.09174 218.29182 
L 208.039116 221.42174 
L 208.001106 224.551659 
L 207.979001 227.681579 
L 207.973715 230.811499 
L 207.985789 233.941418 
L 208.015412 237.071338 
L 208.062462 240.201258 
L 208.126556 243.331177 
L 208.207122 246.461097 
L 208.303481 249.591017 
L 208.414946 252.720936 
L 208.540929 255.850856 
L 208.681061 258.980776 
L 208.835315 262.110696 
L 209.004138 265.240615 
L 209.188577 268.370535 
L 209.390406 271.500455 
L 209.612236 274.630374 
L 209.857611 277.760294 
L 210.131074 280.890214 
L 210.438205 284.020133 
L 210.785602 287.150053 
L 211.180822 290.279973 
L 211.632243 293.409893 
L 212.148872 296.539812 
L 212.740061 299.669732 
L 213.415153 302.799652 
L 214.183053 305.929571 
L 215.051727 309.059491 
L 216.027649 312.189411 
L 217.115211 315.31933 
L 218.316131 318.44925 
L 219.628878 321.57917 
L 221.048159 324.709089 
L 222.564508 327.839009 
L 224.164004 330.968929 
L 225.828167 334.098849 
L 227.534058 337.228768 
L 229.254593 340.358688 
L 230.9591 343.488608 
L 232.6141 346.618527 
L 234.184298 349.748447 
L 235.633747 352.878367 
L 236.92714 356.008286 
L 238.031166 359.138206 
L 238.915859 362.268126 
L 239.555867 365.398046 
L 239.931575 368.527965 
L 240.03 371.657885 
L 239.845414 374.787805 
L 239.379655 377.917724 
L 238.642093 381.047644 
L 237.649269 384.177564 
z
" clip-path="url(#p6d3b43be8b)" style="fill: #1f77b4; fill-opacity: 0.3"/>
   </g>
   <g id="FillBetweenPolyCollection_3">
    <path d="M 305.829784 384.086863 
L 274.670216 384.086863 
L 273.181342 383.327996 
L 271.707018 382.569128 
L 270.265356 381.81026 
L 268.872603 381.051392 
L 267.542506 380.292524 
L 266.285887 379.533657 
L 265.110437 378.774789 
L 264.020751 378.015921 
L 263.018592 377.257053 
L 262.103335 376.498185 
L 261.272549 375.739318 
L 260.522636 374.98045 
L 259.849471 374.221582 
L 259.248963 373.462714 
L 258.717498 372.703846 
L 258.252224 371.944979 
L 257.851181 371.186111 
L 257.51327 370.427243 
L 257.238119 369.668375 
L 257.025855 368.909507 
L 256.87686 368.15064 
L 256.791517 367.391772 
L 256.77 366.632904 
L 256.812111 365.874036 
L 256.917162 365.115168 
L 257.083898 364.356301 
L 257.31044 363.597433 
L 257.594245 362.838565 
L 257.932051 362.079697 
L 258.319829 361.320829 
L 258.752745 360.561962 
L 259.225143 359.803094 
L 259.730587 359.044226 
L 260.261968 358.285358 
L 260.811697 357.52649 
L 261.371986 356.767623 
L 261.935192 356.008755 
L 262.494207 355.249887 
L 263.042856 354.491019 
L 263.576244 353.732151 
L 264.091036 352.973284 
L 264.585623 352.214416 
L 265.060162 351.455548 
L 265.516494 350.69668 
L 265.957944 349.937812 
L 266.389052 349.178945 
L 266.81524 348.420077 
L 267.242474 347.661209 
L 267.676938 346.902341 
L 268.124739 346.143473 
L 268.591668 345.384606 
L 269.082992 344.625738 
L 269.603302 343.86687 
L 270.156381 343.108002 
L 270.745102 342.349134 
L 271.371341 341.590267 
L 272.035909 340.831399 
L 272.738512 340.072531 
L 273.477728 339.313663 
L 274.251036 338.554795 
L 275.054874 337.795928 
L 275.884742 337.03706 
L 276.735339 336.278192 
L 277.60073 335.519324 
L 278.474516 334.760456 
L 279.350017 334.001589 
L 280.220434 333.242721 
L 281.079001 332.483853 
L 281.919113 331.724985 
L 282.734441 330.966117 
L 283.519026 330.20725 
L 284.267377 329.448382 
L 284.974555 328.689514 
L 285.636259 327.930646 
L 286.248908 327.171778 
L 286.809719 326.412911 
L 287.316755 325.654043 
L 287.768971 324.895175 
L 288.166209 324.136307 
L 288.509182 323.377439 
L 288.799411 322.618572 
L 289.039147 321.859704 
L 289.23127 321.100836 
L 289.379184 320.341968 
L 289.486709 319.5831 
L 289.557986 318.824233 
L 289.597392 318.065365 
L 289.609471 317.306497 
L 289.598876 316.547629 
L 289.570315 315.788761 
L 289.528495 315.029894 
L 289.478061 314.271026 
L 289.423513 313.512158 
L 289.369116 312.75329 
L 289.318788 311.994422 
L 289.275988 311.235555 
L 289.243596 310.476687 
L 289.223821 309.717819 
L 289.218119 308.958951 
L 291.281881 308.958951 
L 291.281881 308.958951 
L 291.276179 309.717819 
L 291.256404 310.476687 
L 291.224012 311.235555 
L 291.181212 311.994422 
L 291.130884 312.75329 
L 291.076487 313.512158 
L 291.021939 314.271026 
L 290.971505 315.029894 
L 290.929685 315.788761 
L 290.901124 316.547629 
L 290.890529 317.306497 
L 290.902608 318.065365 
L 290.942014 318.824233 
L 291.013291 319.5831 
L 291.120816 320.341968 
L 291.26873 321.100836 
L 291.460853 321.859704 
L 291.700589 322.618572 
L 291.990818 323.377439 
L 292.333791 324.136307 
L 292.731029 324.895175 
L 293.183245 325.654043 
L 293.690281 326.412911 
L 294.251092 327.171778 
L 294.863741 327.930646 
L 295.525445 328.689514 
L 296.232623 329.448382 
L 296.980974 330.20725 
L 297.765559 330.966117 
L 298.580887 331.724985 
L 299.420999 332.483853 
L 300.279566 333.242721 
L 301.149983 334.001589 
L 302.025484 334.760456 
L 302.89927 335.519324 
L 303.764661 336.278192 
L 304.615258 337.03706 
L 305.445126 337.795928 
L 306.248964 338.554795 
L 307.022272 339.313663 
L 307.761488 340.072531 
L 308.464091 340.831399 
L 309.128659 341.590267 
L 309.754898 342.349134 
L 310.343619 343.108002 
L 310.896698 343.86687 
L 311.417008 344.625738 
L 311.908332 345.384606 
L 312.375261 346.143473 
L 312.823062 346.902341 
L 313.257526 347.661209 
L 313.68476 348.420077 
L 314.110948 349.178945 
L 314.542056 349.937812 
L 314.983506 350.69668 
L 315.439838 351.455548 
L 315.914377 352.214416 
L 316.408964 352.973284 
L 316.923756 353.732151 
L 317.457144 354.491019 
L 318.005793 355.249887 
L 318.564808 356.008755 
L 319.128014 356.767623 
L 319.688303 357.52649 
L 320.238032 358.285358 
L 320.769413 359.044226 
L 321.274857 359.803094 
L 321.747255 360.561962 
L 322.180171 361.320829 
L 322.567949 362.079697 
L 322.905755 362.838565 
L 323.18956 363.597433 
L 323.416102 364.356301 
L 323.582838 365.115168 
L 323.687889 365.874036 
L 323.73 366.632904 
L 323.708483 367.391772 
L 323.62314 368.15064 
L 323.474145 368.909507 
L 323.261881 369.668375 
L 322.98673 370.427243 
L 322.648819 371.186111 
L 322.247776 371.944979 
L 321.782502 372.703846 
L 321.251037 373.462714 
L 320.650529 374.221582 
L 319.977364 374.98045 
L 319.227451 375.739318 
L 318.396665 376.498185 
L 317.481408 377.257053 
L 316.479249 378.015921 
L 315.389563 378.774789 
L 314.214113 379.533657 
L 312.957494 380.292524 
L 311.627397 381.051392 
L 310.234644 381.81026 
L 308.792982 382.569128 
L 307.318658 383.327996 
L 305.829784 384.086863 
z
" clip-path="url(#p6d3b43be8b)" style="fill: #1f77b4; fill-opacity: 0.3"/>
   </g>
   <g id="FillBetweenPolyCollection_4">
    <path d="M 405.474467 384.27935 
L 342.425533 384.27935 
L 341.449563 381.511138 
L 340.791822 378.742927 
L 340.47 375.974716 
L 340.491203 373.206504 
L 340.85168 370.438293 
L 341.537141 367.670081 
L 342.523617 364.90187 
L 343.778799 362.133658 
L 345.263761 359.365447 
L 346.934923 356.597236 
L 348.746137 353.829024 
L 350.650736 351.060813 
L 352.603449 348.292601 
L 354.562051 345.52439 
L 356.488697 342.756179 
L 358.350879 339.987967 
L 360.122003 337.219756 
L 361.781598 334.451544 
L 363.315202 331.683333 
L 364.713964 328.915122 
L 365.974056 326.14691 
L 367.095934 323.378699 
L 368.083539 320.610487 
L 368.943482 317.842276 
L 369.684267 315.074064 
L 370.315592 312.305853 
L 370.847742 309.537642 
L 371.291104 306.76943 
L 371.65578 304.001219 
L 371.951329 301.233007 
L 372.186589 298.464796 
L 372.369592 295.696585 
L 372.507545 292.928373 
L 372.606864 290.160162 
L 372.673232 287.39195 
L 372.711698 284.623739 
L 372.726765 281.855528 
L 372.72249 279.087316 
L 372.702576 276.319105 
L 372.670442 273.550893 
L 372.629281 270.782682 
L 372.582101 268.014471 
L 372.531738 265.246259 
L 372.480858 262.478048 
L 372.431931 259.709836 
L 372.387198 256.941625 
L 372.348625 254.173413 
L 372.317852 251.405202 
L 372.296143 248.636991 
L 372.284338 245.868779 
L 372.282825 243.100568 
L 372.291522 240.332356 
L 372.309886 237.564145 
L 372.33694 234.795934 
L 372.37133 232.027722 
L 372.4114 229.259511 
L 372.455287 226.491299 
L 372.501029 223.723088 
L 372.546677 220.954877 
L 372.590408 218.186665 
L 372.63062 215.418454 
L 372.666023 212.650242 
L 372.695686 209.882031 
L 372.719077 207.113819 
L 372.736055 204.345608 
L 372.746841 201.577397 
L 372.751965 198.809185 
L 372.752187 196.040974 
L 372.748403 193.272762 
L 372.741556 190.504551 
L 372.73254 187.73634 
L 372.72212 184.968128 
L 372.710871 182.199917 
L 372.699138 179.431705 
L 372.687025 176.663494 
L 372.674409 173.895283 
L 372.660974 171.127071 
L 372.646274 168.35886 
L 372.629797 165.590648 
L 372.611052 162.822437 
L 372.589641 160.054226 
L 372.565332 157.286014 
L 372.538119 154.517803 
L 372.508264 151.749591 
L 372.476311 148.98138 
L 372.443093 146.213168 
L 372.409703 143.444957 
L 372.377453 140.676746 
L 372.347815 137.908534 
L 372.32235 135.140323 
L 372.302628 132.372111 
L 372.290144 129.6039 
L 372.286243 126.835689 
L 372.292046 124.067477 
L 372.308388 121.299266 
L 372.335771 118.531054 
L 372.374339 115.762843 
L 372.423862 112.994632 
L 372.483748 110.22642 
L 375.416252 110.22642 
L 375.416252 110.22642 
L 375.476138 112.994632 
L 375.525661 115.762843 
L 375.564229 118.531054 
L 375.591612 121.299266 
L 375.607954 124.067477 
L 375.613757 126.835689 
L 375.609856 129.6039 
L 375.597372 132.372111 
L 375.57765 135.140323 
L 375.552185 137.908534 
L 375.522547 140.676746 
L 375.490297 143.444957 
L 375.456907 146.213168 
L 375.423689 148.98138 
L 375.391736 151.749591 
L 375.361881 154.517803 
L 375.334668 157.286014 
L 375.310359 160.054226 
L 375.288948 162.822437 
L 375.270203 165.590648 
L 375.253726 168.35886 
L 375.239026 171.127071 
L 375.225591 173.895283 
L 375.212975 176.663494 
L 375.200862 179.431705 
L 375.189129 182.199917 
L 375.17788 184.968128 
L 375.16746 187.73634 
L 375.158444 190.504551 
L 375.151597 193.272762 
L 375.147813 196.040974 
L 375.148035 198.809185 
L 375.153159 201.577397 
L 375.163945 204.345608 
L 375.180923 207.113819 
L 375.204314 209.882031 
L 375.233977 212.650242 
L 375.26938 215.418454 
L 375.309592 218.186665 
L 375.353323 220.954877 
L 375.398971 223.723088 
L 375.444713 226.491299 
L 375.4886 229.259511 
L 375.52867 232.027722 
L 375.56306 234.795934 
L 375.590114 237.564145 
L 375.608478 240.332356 
L 375.617175 243.100568 
L 375.615662 245.868779 
L 375.603857 248.636991 
L 375.582148 251.405202 
L 375.551375 254.173413 
L 375.512802 256.941625 
L 375.468069 259.709836 
L 375.419142 262.478048 
L 375.368262 265.246259 
L 375.317899 268.014471 
L 375.270719 270.782682 
L 375.229558 273.550893 
L 375.197424 276.319105 
L 375.17751 279.087316 
L 375.173235 281.855528 
L 375.188302 284.623739 
L 375.226768 287.39195 
L 375.293136 290.160162 
L 375.392455 292.928373 
L 375.530408 295.696585 
L 375.713411 298.464796 
L 375.948671 301.233007 
L 376.24422 304.001219 
L 376.608896 306.76943 
L 377.052258 309.537642 
L 377.584408 312.305853 
L 378.215733 315.074064 
L 378.956518 317.842276 
L 379.816461 320.610487 
L 380.804066 323.378699 
L 381.925944 326.14691 
L 383.186036 328.915122 
L 384.584798 331.683333 
L 386.118402 334.451544 
L 387.777997 337.219756 
L 389.549121 339.987967 
L 391.411303 342.756179 
L 393.337949 345.52439 
L 395.296551 348.292601 
L 397.249264 351.060813 
L 399.153863 353.829024 
L 400.965077 356.597236 
L 402.636239 359.365447 
L 404.121201 362.133658 
L 405.376383 364.90187 
L 406.362859 367.670081 
L 407.04832 370.438293 
L 407.408797 373.206504 
L 407.43 375.974716 
L 407.108178 378.742927 
L 406.450437 381.511138 
L 405.474467 384.27935 
z
" clip-path="url(#p6d3b43be8b)" style="fill: #1f77b4; fill-opacity: 0.3"/>
   </g>
   <g id="FillBetweenPolyCollection_5">
    <path d="M 489.580746 384.359166 
L 425.719254 384.359166 
L 424.929242 381.16037 
L 424.409215 377.961574 
L 424.17 374.762778 
L 424.214917 371.563982 
L 424.539699 368.365186 
L 425.132771 365.166391 
L 425.975836 361.967595 
L 427.044761 358.768799 
L 428.310678 355.570003 
L 429.741244 352.371207 
L 431.301986 349.172411 
L 432.957644 345.973615 
L 434.673454 342.774819 
L 436.416291 339.576023 
L 438.155644 336.377227 
L 439.864372 333.178431 
L 441.51923 329.979635 
L 443.10117 326.780839 
L 444.595416 323.582043 
L 445.991356 320.383248 
L 447.28227 317.184452 
L 448.464934 313.985656 
L 449.539148 310.78686 
L 450.507216 307.588064 
L 451.373418 304.389268 
L 452.1435 301.190472 
L 452.824203 297.991676 
L 453.422849 294.79288 
L 453.946993 291.594084 
L 454.404135 288.395288 
L 454.801505 285.196492 
L 455.145901 281.997696 
L 455.443586 278.7989 
L 455.700224 275.600104 
L 455.920857 272.401309 
L 456.109905 269.202513 
L 456.271193 266.003717 
L 456.407987 262.804921 
L 456.523045 259.606125 
L 456.618671 256.407329 
L 456.696779 253.208533 
L 456.758947 250.009737 
L 456.806483 246.810941 
L 456.840482 243.612145 
L 456.861878 240.413349 
L 456.871497 237.214553 
L 456.870101 234.015757 
L 456.858425 230.816961 
L 456.837206 227.618165 
L 456.807205 224.41937 
L 456.76922 221.220574 
L 456.72409 218.021778 
L 456.672692 214.822982 
L 456.615929 211.624186 
L 456.554717 208.42539 
L 456.489959 205.226594 
L 456.422526 202.027798 
L 456.353233 198.829002 
L 456.282817 195.630206 
L 456.211916 192.43141 
L 456.141058 189.232614 
L 456.070653 186.033818 
L 456.000993 182.835022 
L 455.932263 179.636227 
L 455.86455 176.437431 
L 455.797872 173.238635 
L 455.732204 170.039839 
L 455.667507 166.841043 
L 455.603763 163.642247 
L 455.541004 160.443451 
L 455.47934 157.244655 
L 455.418979 154.045859 
L 455.36024 150.847063 
L 455.303558 147.648267 
L 455.249475 144.449471 
L 455.198626 141.250675 
L 455.151714 138.051879 
L 455.109485 134.853083 
L 455.072686 131.654288 
L 455.042038 128.455492 
L 455.018202 125.256696 
L 455.001748 122.0579 
L 454.99314 118.859104 
L 454.992717 115.660308 
L 455.00069 112.461512 
L 455.017147 109.262716 
L 455.042059 106.06392 
L 455.075298 102.865124 
L 455.116653 99.666328 
L 455.165848 96.467532 
L 455.222556 93.268736 
L 455.286415 90.06994 
L 455.357033 86.871144 
L 455.433988 83.672349 
L 455.516832 80.473553 
L 455.605077 77.274757 
L 455.698193 74.075961 
L 455.795594 70.877165 
L 455.89663 67.678369 
L 459.40337 67.678369 
L 459.40337 67.678369 
L 459.504406 70.877165 
L 459.601807 74.075961 
L 459.694923 77.274757 
L 459.783168 80.473553 
L 459.866012 83.672349 
L 459.942967 86.871144 
L 460.013585 90.06994 
L 460.077444 93.268736 
L 460.134152 96.467532 
L 460.183347 99.666328 
L 460.224702 102.865124 
L 460.257941 106.06392 
L 460.282853 109.262716 
L 460.29931 112.461512 
L 460.307283 115.660308 
L 460.30686 118.859104 
L 460.298252 122.0579 
L 460.281798 125.256696 
L 460.257962 128.455492 
L 460.227314 131.654288 
L 460.190515 134.853083 
L 460.148286 138.051879 
L 460.101374 141.250675 
L 460.050525 144.449471 
L 459.996442 147.648267 
L 459.93976 150.847063 
L 459.881021 154.045859 
L 459.82066 157.244655 
L 459.758996 160.443451 
L 459.696237 163.642247 
L 459.632493 166.841043 
L 459.567796 170.039839 
L 459.502128 173.238635 
L 459.43545 176.437431 
L 459.367737 179.636227 
L 459.299007 182.835022 
L 459.229347 186.033818 
L 459.158942 189.232614 
L 459.088084 192.43141 
L 459.017183 195.630206 
L 458.946767 198.829002 
L 458.877474 202.027798 
L 458.810041 205.226594 
L 458.745283 208.42539 
L 458.684071 211.624186 
L 458.627308 214.822982 
L 458.57591 218.021778 
L 458.53078 221.220574 
L 458.492795 224.41937 
L 458.462794 227.618165 
L 458.441575 230.816961 
L 458.429899 234.015757 
L 458.428503 237.214553 
L 458.438122 240.413349 
L 458.459518 243.612145 
L 458.493517 246.810941 
L 458.541053 250.009737 
L 458.603221 253.208533 
L 458.681329 256.407329 
L 458.776955 259.606125 
L 458.892013 262.804921 
L 459.028807 266.003717 
L 459.190095 269.202513 
L 459.379143 272.401309 
L 459.599776 275.600104 
L 459.856414 278.7989 
L 460.154099 281.997696 
L 460.498495 285.196492 
L 460.895865 288.395288 
L 461.353007 291.594084 
L 461.877151 294.79288 
L 462.475797 297.991676 
L 463.1565 301.190472 
L 463.926582 304.389268 
L 464.792784 307.588064 
L 465.760852 310.78686 
L 466.835066 313.985656 
L 468.01773 317.184452 
L 469.308644 320.383248 
L 470.704584 323.582043 
L 472.19883 326.780839 
L 473.78077 329.979635 
L 475.435628 333.178431 
L 477.144356 336.377227 
L 478.883709 339.576023 
L 480.626546 342.774819 
L 482.342356 345.973615 
L 483.998014 349.172411 
L 485.558756 352.371207 
L 486.989322 355.570003 
L 488.255239 358.768799 
L 489.324164 361.967595 
L 490.167229 365.166391 
L 490.760301 368.365186 
L 491.085083 371.563982 
L 491.13 374.762778 
L 490.890785 377.961574 
L 490.370758 381.16037 
L 489.580746 384.359166 
z
" clip-path="url(#p6d3b43be8b)" style="fill: #1f77b4; fill-opacity: 0.3"/>
   </g>
   <g id="FillBetweenPolyCollection_6">
    <path d="M 572.137463 383.716626 
L 510.562537 383.716626 
L 509.417198 380.558252 
L 508.572405 377.399879 
L 508.052032 374.241505 
L 507.87 371.083131 
L 508.029601 367.924758 
L 508.523378 364.766384 
L 509.33356 361.608011 
L 510.433028 358.449637 
L 511.786721 355.291263 
L 513.353404 352.13289 
L 515.087654 348.974516 
L 516.941939 345.816142 
L 518.868665 342.657769 
L 520.822062 339.499395 
L 522.759814 336.341021 
L 524.644368 333.182648 
L 526.443868 330.024274 
L 528.13271 326.8659 
L 529.69173 323.707527 
L 531.108065 320.549153 
L 532.374742 317.39078 
L 533.490058 314.232406 
L 534.456816 311.074032 
L 535.281496 307.915659 
L 535.973401 304.757285 
L 536.543848 301.598911 
L 537.00542 298.440538 
L 537.371316 295.282164 
L 537.654815 292.12379 
L 537.868835 288.965417 
L 538.025616 285.807043 
L 538.136479 282.64867 
L 538.211684 279.490296 
L 538.260343 276.331922 
L 538.290392 273.173549 
L 538.308603 270.015175 
L 538.320623 266.856801 
L 538.33104 263.698428 
L 538.343457 260.540054 
L 538.36058 257.38168 
L 538.384312 254.223307 
L 538.415846 251.064933 
L 538.455766 247.906559 
L 538.504139 244.748186 
L 538.560616 241.589812 
L 538.624517 238.431439 
L 538.694925 235.273065 
L 538.77076 232.114691 
L 538.850861 228.956318 
L 538.934042 225.797944 
L 539.019155 222.63957 
L 539.105126 219.481197 
L 539.190992 216.322823 
L 539.275917 213.164449 
L 539.359198 210.006076 
L 539.440264 206.847702 
L 539.518657 203.689328 
L 539.594013 200.530955 
L 539.666039 197.372581 
L 539.734478 194.214208 
L 539.799093 191.055834 
L 539.859641 187.89746 
L 539.91586 184.739087 
L 539.967466 181.580713 
L 540.014151 178.422339 
L 540.055601 175.263966 
L 540.091507 172.105592 
L 540.12159 168.947218 
L 540.145617 165.788845 
L 540.163427 162.630471 
L 540.174944 159.472097 
L 540.180183 156.313724 
L 540.179257 153.15535 
L 540.172372 149.996977 
L 540.159816 146.838603 
L 540.141946 143.680229 
L 540.119179 140.521856 
L 540.091971 137.363482 
L 540.060818 134.205108 
L 540.026249 131.046735 
L 539.98883 127.888361 
L 539.94918 124.729987 
L 539.907979 121.571614 
L 539.86599 118.41324 
L 539.824074 115.254867 
L 539.783202 112.096493 
L 539.744456 108.938119 
L 539.709022 105.779746 
L 539.678167 102.621372 
L 539.653202 99.462998 
L 539.635436 96.304625 
L 539.626116 93.146251 
L 539.62636 89.987877 
L 539.637092 86.829504 
L 539.658979 83.67113 
L 539.69238 80.512756 
L 539.737304 77.354383 
L 539.793395 74.196009 
L 539.859934 71.037636 
L 542.840066 71.037636 
L 542.840066 71.037636 
L 542.906605 74.196009 
L 542.962696 77.354383 
L 543.00762 80.512756 
L 543.041021 83.67113 
L 543.062908 86.829504 
L 543.07364 89.987877 
L 543.073884 93.146251 
L 543.064564 96.304625 
L 543.046798 99.462998 
L 543.021833 102.621372 
L 542.990978 105.779746 
L 542.955544 108.938119 
L 542.916798 112.096493 
L 542.875926 115.254867 
L 542.83401 118.41324 
L 542.792021 121.571614 
L 542.75082 124.729987 
L 542.71117 127.888361 
L 542.673751 131.046735 
L 542.639182 134.205108 
L 542.608029 137.363482 
L 542.580821 140.521856 
L 542.558054 143.680229 
L 542.540184 146.838603 
L 542.527628 149.996977 
L 542.520743 153.15535 
L 542.519817 156.313724 
L 542.525056 159.472097 
L 542.536573 162.630471 
L 542.554383 165.788845 
L 542.57841 168.947218 
L 542.608493 172.105592 
L 542.644399 175.263966 
L 542.685849 178.422339 
L 542.732534 181.580713 
L 542.78414 184.739087 
L 542.840359 187.89746 
L 542.900907 191.055834 
L 542.965522 194.214208 
L 543.033961 197.372581 
L 543.105987 200.530955 
L 543.181343 203.689328 
L 543.259736 206.847702 
L 543.340802 210.006076 
L 543.424083 213.164449 
L 543.509008 216.322823 
L 543.594874 219.481197 
L 543.680845 222.63957 
L 543.765958 225.797944 
L 543.849139 228.956318 
L 543.92924 232.114691 
L 544.005075 235.273065 
L 544.075483 238.431439 
L 544.139384 241.589812 
L 544.195861 244.748186 
L 544.244234 247.906559 
L 544.284154 251.064933 
L 544.315688 254.223307 
L 544.33942 257.38168 
L 544.356543 260.540054 
L 544.36896 263.698428 
L 544.379377 266.856801 
L 544.391397 270.015175 
L 544.409608 273.173549 
L 544.439657 276.331922 
L 544.488316 279.490296 
L 544.563521 282.64867 
L 544.674384 285.807043 
L 544.831165 288.965417 
L 545.045185 292.12379 
L 545.328684 295.282164 
L 545.69458 298.440538 
L 546.156152 301.598911 
L 546.726599 304.757285 
L 547.418504 307.915659 
L 548.243184 311.074032 
L 549.209942 314.232406 
L 550.325258 317.39078 
L 551.591935 320.549153 
L 553.00827 323.707527 
L 554.56729 326.8659 
L 556.256132 330.024274 
L 558.055632 333.182648 
L 559.940186 336.341021 
L 561.877938 339.499395 
L 563.831335 342.657769 
L 565.758061 345.816142 
L 567.612346 348.974516 
L 569.346596 352.13289 
L 570.913279 355.291263 
L 572.266972 358.449637 
L 573.36644 361.608011 
L 574.176622 364.766384 
L 574.670399 367.924758 
L 574.83 371.083131 
L 574.647968 374.241505 
L 574.127595 377.399879 
L 573.282802 380.558252 
L 572.137463 383.716626 
z
" clip-path="url(#p6d3b43be8b)" style="fill: #1f77b4; fill-opacity: 0.3"/>
   </g>
   <g id="matplotlib.axis_1">
    <g id="xtick_1">
     <g id="line2d_1">
      <defs>
       <path id="mcec973d81a" d="M 0 0 
L 0 3.5 
" style="stroke: #000000; stroke-width: 0.8"/>
      </defs>
      <g>
       <use xlink:href="#mcec973d81a" x="122.85" y="384.48" style="stroke: #000000; stroke-width: 0.8"/>
      </g>
     </g>
     <g id="text_1">
      <!-- Arrow -->
      <g transform="translate(111.26625 397.55875) scale(0.08 -0.08)">
       <defs>
        <path id="DejaVuSans-41" d="M 2188 4044 
L 1331 1722 
L 3047 1722 
L 2188 4044 
z
M 1831 4666 
L 2547 4666 
L 4325 0 
L 3669 0 
L 3244 1197 
L 1141 1197 
L 716 0 
L 50 0 
L 1831 4666 
z
" transform="scale(0.015625)"/>
        <path id="DejaVuSans-72" d="M 2631 2963 
Q 2534 3019 2420 3045 
Q 2306 3072 2169 3072 
Q 1681 3072 1420 2755 
Q 1159 2438 1159 1844 
L 1159 0 
L 581 0 
L 581 3500 
L 1159 3500 
L 1159 2956 
Q 1341 3275 1631 3429 
Q 1922 3584 2338 3584 
Q 2397 3584 2469 3576 
Q 2541 3569 2628 3553 
L 2631 2963 
z
" transform="scale(0.015625)"/>
        <path id="DejaVuSans-6f" d="M 1959 3097 
Q 1497 3097 1228 2736 
Q 959 2375 959 1747 
Q 959 1119 1226 758 
Q 1494 397 1959 397 
Q 2419 397 2687 759 
Q 2956 1122 2956 1747 
Q 2956 2369 2687 2733 
Q 2419 3097 1959 3097 
z
M 1959 3584 
Q 2709 3584 3137 3096 
Q 3566 2609 3566 1747 
Q 3566 888 3137 398 
Q 2709 -91 1959 -91 
Q 1206 -91 779 398 
Q 353 888 353 1747 
Q 353 2609 779 3096 
Q 1206 3584 1959 3584 
z
" transform="scale(0.015625)"/>
        <path id="DejaVuSans-77" d="M 269 3500 
L 844 3500 
L 1563 769 
L 2278 3500 
L 2956 3500 
L 3675 769 
L 4391 3500 
L 4966 3500 
L 4050 0 
L 3372 0 
L 2619 2869 
L 1863 0 
L 1184 0 
L 269 3500 
z
" transform="scale(0.015625)"/>
       </defs>
       <use xlink:href="#DejaVuSans-41"/>
       <use xlink:href="#DejaVuSans-72" transform="translate(68.408203 0)"/>
       <use xlink:href="#DejaVuSans-72" transform="translate(107.771484 0)"/>
       <use xlink:href="#DejaVuSans-6f" transform="translate(146.634766 0)"/>
       <use xlink:href="#DejaVuSans-77" transform="translate(207.816406 0)"/>
      </g>
     </g>
    </g>
    <g id="xtick_2">
     <g id="line2d_2">
      <g>
       <use xlink:href="#mcec973d81a" x="206.55" y="384.48" style="stroke: #000000; stroke-width: 0.8"/>
      </g>
     </g>
     <g id="text_2">
      <!-- Radar -->
      <g transform="translate(194.774375 397.55875) scale(0.08 -0.08)">
       <defs>
        <path id="DejaVuSans-52" d="M 2841 2188 
Q 3044 2119 3236 1894 
Q 3428 1669 3622 1275 
L 4263 0 
L 3584 0 
L 2988 1197 
Q 2756 1666 2539 1819 
Q 2322 1972 1947 1972 
L 1259 1972 
L 1259 0 
L 628 0 
L 628 4666 
L 2053 4666 
Q 2853 4666 3247 4331 
Q 3641 3997 3641 3322 
Q 3641 2881 3436 2590 
Q 3231 2300 2841 2188 
z
M 1259 4147 
L 1259 2491 
L 2053 2491 
Q 2509 2491 2742 2702 
Q 2975 2913 2975 3322 
Q 2975 3731 2742 3939 
Q 2509 4147 2053 4147 
L 1259 4147 
z
" transform="scale(0.015625)"/>
        <path id="DejaVuSans-61" d="M 2194 1759 
Q 1497 1759 1228 1600 
Q 959 1441 959 1056 
Q 959 750 1161 570 
Q 1363 391 1709 391 
Q 2188 391 2477 730 
Q 2766 1069 2766 1631 
L 2766 1759 
L 2194 1759 
z
M 3341 1997 
L 3341 0 
L 2766 0 
L 2766 531 
Q 2569 213 2275 61 
Q 1981 -91 1556 -91 
Q 1019 -91 701 211 
Q 384 513 384 1019 
Q 384 1609 779 1909 
Q 1175 2209 1959 2209 
L 2766 2209 
L 2766 2266 
Q 2766 2663 2505 2880 
Q 2244 3097 1772 3097 
Q 1472 3097 1187 3025 
Q 903 2953 641 2809 
L 641 3341 
Q 956 3463 1253 3523 
Q 1550 3584 1831 3584 
Q 2591 3584 2966 3190 
Q 3341 2797 3341 1997 
z
" transform="scale(0.015625)"/>
        <path id="DejaVuSans-64" d="M 2906 2969 
L 2906 4863 
L 3481 4863 
L 3481 0 
L 2906 0 
L 2906 525 
Q 2725 213 2448 61 
Q 2172 -91 1784 -91 
Q 1150 -91 751 415 
Q 353 922 353 1747 
Q 353 2572 751 3078 
Q 1150 3584 1784 3584 
Q 2172 3584 2448 3432 
Q 2725 3281 2906 2969 
z
M 947 1747 
Q 947 1113 1208 752 
Q 1469 391 1925 391 
Q 2381 391 2643 752 
Q 2906 1113 2906 1747 
Q 2906 2381 2643 2742 
Q 2381 3103 1925 3103 
Q 1469 3103 1208 2742 
Q 947 2381 947 1747 
z
" transform="scale(0.015625)"/>
       </defs>
       <use xlink:href="#DejaVuSans-52"/>
       <use xlink:href="#DejaVuSans-61" transform="translate(67.232422 0)"/>
       <use xlink:href="#DejaVuSans-64" transform="translate(128.511719 0)"/>
       <use xlink:href="#DejaVuSans-61" transform="translate(191.988281 0)"/>
       <use xlink:href="#DejaVuSans-72" transform="translate(253.267578 0)"/>
      </g>
     </g>
    </g>
    <g id="xtick_3">
     <g id="line2d_3">
      <g>
       <use xlink:href="#mcec973d81a" x="290.25" y="384.48" style="stroke: #000000; stroke-width: 0.8"/>
      </g>
     </g>
     <g id="text_3">
      <!-- Lights -->
      <g transform="translate(278.18375 397.55875) scale(0.08 -0.08)">
       <defs>
        <path id="DejaVuSans-4c" d="M 628 4666 
L 1259 4666 
L 1259 531 
L 3531 531 
L 3531 0 
L 628 0 
L 628 4666 
z
" transform="scale(0.015625)"/>
        <path id="DejaVuSans-69" d="M 603 3500 
L 1178 3500 
L 1178 0 
L 603 0 
L 603 3500 
z
M 603 4863 
L 1178 4863 
L 1178 4134 
L 603 4134 
L 603 4863 
z
" transform="scale(0.015625)"/>
        <path id="DejaVuSans-67" d="M 2906 1791 
Q 2906 2416 2648 2759 
Q 2391 3103 1925 3103 
Q 1463 3103 1205 2759 
Q 947 2416 947 1791 
Q 947 1169 1205 825 
Q 1463 481 1925 481 
Q 2391 481 2648 825 
Q 2906 1169 2906 1791 
z
M 3481 434 
Q 3481 -459 3084 -895 
Q 2688 -1331 1869 -1331 
Q 1566 -1331 1297 -1286 
Q 1028 -1241 775 -1147 
L 775 -588 
Q 1028 -725 1275 -790 
Q 1522 -856 1778 -856 
Q 2344 -856 2625 -561 
Q 2906 -266 2906 331 
L 2906 616 
Q 2728 306 2450 153 
Q 2172 0 1784 0 
Q 1141 0 747 490 
Q 353 981 353 1791 
Q 353 2603 747 3093 
Q 1141 3584 1784 3584 
Q 2172 3584 2450 3431 
Q 2728 3278 2906 2969 
L 2906 3500 
L 3481 3500 
L 3481 434 
z
" transform="scale(0.015625)"/>
        <path id="DejaVuSans-68" d="M 3513 2113 
L 3513 0 
L 2938 0 
L 2938 2094 
Q 2938 2591 2744 2837 
Q 2550 3084 2163 3084 
Q 1697 3084 1428 2787 
Q 1159 2491 1159 1978 
L 1159 0 
L 581 0 
L 581 4863 
L 1159 4863 
L 1159 2956 
Q 1366 3272 1645 3428 
Q 1925 3584 2291 3584 
Q 2894 3584 3203 3211 
Q 3513 2838 3513 2113 
z
" transform="scale(0.015625)"/>
        <path id="DejaVuSans-74" d="M 1172 4494 
L 1172 3500 
L 2356 3500 
L 2356 3053 
L 1172 3053 
L 1172 1153 
Q 1172 725 1289 603 
Q 1406 481 1766 481 
L 2356 481 
L 2356 0 
L 1766 0 
Q 1100 0 847 248 
Q 594 497 594 1153 
L 594 3053 
L 172 3053 
L 172 3500 
L 594 3500 
L 594 4494 
L 1172 4494 
z
" transform="scale(0.015625)"/>
        <path id="DejaVuSans-73" d="M 2834 3397 
L 2834 2853 
Q 2591 2978 2328 3040 
Q 2066 3103 1784 3103 
Q 1356 3103 1142 2972 
Q 928 2841 928 2578 
Q 928 2378 1081 2264 
Q 1234 2150 1697 2047 
L 1894 2003 
Q 2506 1872 2764 1633 
Q 3022 1394 3022 966 
Q 3022 478 2636 193 
Q 2250 -91 1575 -91 
Q 1294 -91 989 -36 
Q 684 19 347 128 
L 347 722 
Q 666 556 975 473 
Q 1284 391 1588 391 
Q 1994 391 2212 530 
Q 2431 669 2431 922 
Q 2431 1156 2273 1281 
Q 2116 1406 1581 1522 
L 1381 1569 
Q 847 1681 609 1914 
Q 372 2147 372 2553 
Q 372 3047 722 3315 
Q 1072 3584 1716 3584 
Q 2034 3584 2315 3537 
Q 2597 3491 2834 3397 
z
" transform="scale(0.015625)"/>
       </defs>
       <use xlink:href="#DejaVuSans-4c"/>
       <use xlink:href="#DejaVuSans-69" transform="translate(55.712891 0)"/>
       <use xlink:href="#DejaVuSans-67" transform="translate(83.496094 0)"/>
       <use xlink:href="#DejaVuSans-68" transform="translate(146.972656 0)"/>
       <use xlink:href="#DejaVuSans-74" transform="translate(210.351562 0)"/>
       <use xlink:href="#DejaVuSans-73" transform="translate(249.560547 0)"/>
      </g>
     </g>
    </g>
    <g id="xtick_4">
     <g id="line2d_4">
      <g>
       <use xlink:href="#mcec973d81a" x="373.95" y="384.48" style="stroke: #000000; stroke-width: 0.8"/>
      </g>
     </g>
     <g id="text_4">
      <!-- Arrow &amp; Radar -->
      <g transform="translate(344.92875 397.55875) scale(0.08 -0.08)">
       <defs>
        <path id="DejaVuSans-20" transform="scale(0.015625)"/>
        <path id="DejaVuSans-26" d="M 1556 2509 
Q 1272 2256 1139 2004 
Q 1006 1753 1006 1478 
Q 1006 1022 1337 719 
Q 1669 416 2169 416 
Q 2466 416 2725 514 
Q 2984 613 3213 813 
L 1556 2509 
z
M 1997 2859 
L 3584 1234 
Q 3769 1513 3872 1830 
Q 3975 2147 3994 2503 
L 4575 2503 
Q 4538 2091 4375 1687 
Q 4213 1284 3922 891 
L 4794 0 
L 4006 0 
L 3559 459 
Q 3234 181 2878 45 
Q 2522 -91 2113 -91 
Q 1359 -91 881 339 
Q 403 769 403 1441 
Q 403 1841 612 2192 
Q 822 2544 1241 2853 
Q 1091 3050 1012 3245 
Q 934 3441 934 3628 
Q 934 4134 1281 4442 
Q 1628 4750 2203 4750 
Q 2463 4750 2720 4694 
Q 2978 4638 3244 4525 
L 3244 3956 
Q 2972 4103 2725 4179 
Q 2478 4256 2266 4256 
Q 1938 4256 1733 4082 
Q 1528 3909 1528 3634 
Q 1528 3475 1620 3314 
Q 1713 3153 1997 2859 
z
" transform="scale(0.015625)"/>
       </defs>
       <use xlink:href="#DejaVuSans-41"/>
       <use xlink:href="#DejaVuSans-72" transform="translate(68.408203 0)"/>
       <use xlink:href="#DejaVuSans-72" transform="translate(107.771484 0)"/>
       <use xlink:href="#DejaVuSans-6f" transform="translate(146.634766 0)"/>
       <use xlink:href="#DejaVuSans-77" transform="translate(207.816406 0)"/>
       <use xlink:href="#DejaVuSans-20" transform="translate(289.603516 0)"/>
       <use xlink:href="#DejaVuSans-26" transform="translate(321.390625 0)"/>
       <use xlink:href="#DejaVuSans-20" transform="translate(399.369141 0)"/>
       <use xlink:href="#DejaVuSans-52" transform="translate(431.15625 0)"/>
       <use xlink:href="#DejaVuSans-61" transform="translate(498.388672 0)"/>
       <use xlink:href="#DejaVuSans-64" transform="translate(559.667969 0)"/>
       <use xlink:href="#DejaVuSans-61" transform="translate(623.144531 0)"/>
       <use xlink:href="#DejaVuSans-72" transform="translate(684.423828 0)"/>
      </g>
     </g>
    </g>
    <g id="xtick_5">
     <g id="line2d_5">
      <g>
       <use xlink:href="#mcec973d81a" x="457.65" y="384.48" style="stroke: #000000; stroke-width: 0.8"/>
      </g>
     </g>
     <g id="text_5">
      <!-- Arrow &amp; Lights -->
      <g transform="translate(428.338125 397.55875) scale(0.08 -0.08)">
       <use xlink:href="#DejaVuSans-41"/>
       <use xlink:href="#DejaVuSans-72" transform="translate(68.408203 0)"/>
       <use xlink:href="#DejaVuSans-72" transform="translate(107.771484 0)"/>
       <use xlink:href="#DejaVuSans-6f" transform="translate(146.634766 0)"/>
       <use xlink:href="#DejaVuSans-77" transform="translate(207.816406 0)"/>
       <use xlink:href="#DejaVuSans-20" transform="translate(289.603516 0)"/>
       <use xlink:href="#DejaVuSans-26" transform="translate(321.390625 0)"/>
       <use xlink:href="#DejaVuSans-20" transform="translate(399.369141 0)"/>
       <use xlink:href="#DejaVuSans-4c" transform="translate(431.15625 0)"/>
       <use xlink:href="#DejaVuSans-69" transform="translate(486.869141 0)"/>
       <use xlink:href="#DejaVuSans-67" transform="translate(514.652344 0)"/>
       <use xlink:href="#DejaVuSans-68" transform="translate(578.128906 0)"/>
       <use xlink:href="#DejaVuSans-74" transform="translate(641.507812 0)"/>
       <use xlink:href="#DejaVuSans-73" transform="translate(680.716797 0)"/>
      </g>
     </g>
    </g>
    <g id="xtick_6">
     <g id="line2d_6">
      <g>
       <use xlink:href="#mcec973d81a" x="541.35" y="384.48" style="stroke: #000000; stroke-width: 0.8"/>
      </g>
     </g>
     <g id="text_6">
      <!-- Lights &amp; Radar -->
      <g transform="translate(511.84625 397.55875) scale(0.08 -0.08)">
       <use xlink:href="#DejaVuSans-4c"/>
       <use xlink:href="#DejaVuSans-69" transform="translate(55.712891 0)"/>
       <use xlink:href="#DejaVuSans-67" transform="translate(83.496094 0)"/>
       <use xlink:href="#DejaVuSans-68" transform="translate(146.972656 0)"/>
       <use xlink:href="#DejaVuSans-74" transform="translate(210.351562 0)"/>
       <use xlink:href="#DejaVuSans-73" transform="translate(249.560547 0)"/>
       <use xlink:href="#DejaVuSans-20" transform="translate(301.660156 0)"/>
       <use xlink:href="#DejaVuSans-26" transform="translate(333.447266 0)"/>
       <use xlink:href="#DejaVuSans-20" transform="translate(411.425781 0)"/>
       <use xlink:href="#DejaVuSans-52" transform="translate(443.212891 0)"/>
       <use xlink:href="#DejaVuSans-61" transform="translate(510.445312 0)"/>
       <use xlink:href="#DejaVuSans-64" transform="translate(571.724609 0)"/>
       <use xlink:href="#DejaVuSans-61" transform="translate(635.201172 0)"/>
       <use xlink:href="#DejaVuSans-72" transform="translate(696.480469 0)"/>
      </g>
     </g>
    </g>
    <g id="text_7">
     <!-- Visualization -->
     <g transform="translate(300.521875 416.820938) scale(0.1 -0.1)">
      <defs>
       <path id="DejaVuSans-56" d="M 1831 0 
L 50 4666 
L 709 4666 
L 2188 738 
L 3669 4666 
L 4325 4666 
L 2547 0 
L 1831 0 
z
" transform="scale(0.015625)"/>
       <path id="DejaVuSans-75" d="M 544 1381 
L 544 3500 
L 1119 3500 
L 1119 1403 
Q 1119 906 1312 657 
Q 1506 409 1894 409 
Q 2359 409 2629 706 
Q 2900 1003 2900 1516 
L 2900 3500 
L 3475 3500 
L 3475 0 
L 2900 0 
L 2900 538 
Q 2691 219 2414 64 
Q 2138 -91 1772 -91 
Q 1169 -91 856 284 
Q 544 659 544 1381 
z
M 1991 3584 
L 1991 3584 
z
" transform="scale(0.015625)"/>
       <path id="DejaVuSans-6c" d="M 603 4863 
L 1178 4863 
L 1178 0 
L 603 0 
L 603 4863 
z
" transform="scale(0.015625)"/>
       <path id="DejaVuSans-7a" d="M 353 3500 
L 3084 3500 
L 3084 2975 
L 922 459 
L 3084 459 
L 3084 0 
L 275 0 
L 275 525 
L 2438 3041 
L 353 3041 
L 353 3500 
z
" transform="scale(0.015625)"/>
       <path id="DejaVuSans-6e" d="M 3513 2113 
L 3513 0 
L 2938 0 
L 2938 2094 
Q 2938 2591 2744 2837 
Q 2550 3084 2163 3084 
Q 1697 3084 1428 2787 
Q 1159 2491 1159 1978 
L 1159 0 
L 581 0 
L 581 3500 
L 1159 3500 
L 1159 2956 
Q 1366 3272 1645 3428 
Q 1925 3584 2291 3584 
Q 2894 3584 3203 3211 
Q 3513 2838 3513 2113 
z
" transform="scale(0.015625)"/>
      </defs>
      <use xlink:href="#DejaVuSans-56"/>
      <use xlink:href="#DejaVuSans-69" transform="translate(66.158203 0)"/>
      <use xlink:href="#DejaVuSans-73" transform="translate(93.941406 0)"/>
      <use xlink:href="#DejaVuSans-75" transform="translate(146.041016 0)"/>
      <use xlink:href="#DejaVuSans-61" transform="translate(209.419922 0)"/>
      <use xlink:href="#DejaVuSans-6c" transform="translate(270.699219 0)"/>
      <use xlink:href="#DejaVuSans-69" transform="translate(298.482422 0)"/>
      <use xlink:href="#DejaVuSans-7a" transform="translate(326.265625 0)"/>
      <use xlink:href="#DejaVuSans-61" transform="translate(378.755859 0)"/>
      <use xlink:href="#DejaVuSans-74" transform="translate(440.035156 0)"/>
      <use xlink:href="#DejaVuSans-69" transform="translate(479.244141 0)"/>
      <use xlink:href="#DejaVuSans-6f" transform="translate(507.027344 0)"/>
      <use xlink:href="#DejaVuSans-6e" transform="translate(568.208984 0)"/>
     </g>
    </g>
   </g>
   <g id="matplotlib.axis_2">
    <g id="ytick_1">
     <g id="line2d_7">
      <defs>
       <path id="mbd24cbec6e" d="M 0 0 
L -3.5 0 
" style="stroke: #000000; stroke-width: 0.8"/>
      </defs>
      <g>
       <use xlink:href="#mbd24cbec6e" x="81" y="384.48" style="stroke: #000000; stroke-width: 0.8"/>
      </g>
     </g>
     <g id="text_8">
      <!-- 0 -->
      <g transform="translate(67.6375 388.279219) scale(0.1 -0.1)">
       <defs>
        <path id="DejaVuSans-30" d="M 2034 4250 
Q 1547 4250 1301 3770 
Q 1056 3291 1056 2328 
Q 1056 1369 1301 889 
Q 1547 409 2034 409 
Q 2525 409 2770 889 
Q 3016 1369 3016 2328 
Q 3016 3291 2770 3770 
Q 2525 4250 2034 4250 
z
M 2034 4750 
Q 2819 4750 3233 4129 
Q 3647 3509 3647 2328 
Q 3647 1150 3233 529 
Q 2819 -91 2034 -91 
Q 1250 -91 836 529 
Q 422 1150 422 2328 
Q 422 3509 836 4129 
Q 1250 4750 2034 4750 
z
" transform="scale(0.015625)"/>
       </defs>
       <use xlink:href="#DejaVuSans-30"/>
      </g>
     </g>
    </g>
    <g id="ytick_2">
     <g id="line2d_8">
      <g>
       <use xlink:href="#mbd24cbec6e" x="81" y="340.150802" style="stroke: #000000; stroke-width: 0.8"/>
      </g>
     </g>
     <g id="text_9">
      <!-- 25 -->
      <g transform="translate(61.275 343.95002) scale(0.1 -0.1)">
       <defs>
        <path id="DejaVuSans-32" d="M 1228 531 
L 3431 531 
L 3431 0 
L 469 0 
L 469 531 
Q 828 903 1448 1529 
Q 2069 2156 2228 2338 
Q 2531 2678 2651 2914 
Q 2772 3150 2772 3378 
Q 2772 3750 2511 3984 
Q 2250 4219 1831 4219 
Q 1534 4219 1204 4116 
Q 875 4013 500 3803 
L 500 4441 
Q 881 4594 1212 4672 
Q 1544 4750 1819 4750 
Q 2544 4750 2975 4387 
Q 3406 4025 3406 3419 
Q 3406 3131 3298 2873 
Q 3191 2616 2906 2266 
Q 2828 2175 2409 1742 
Q 1991 1309 1228 531 
z
" transform="scale(0.015625)"/>
        <path id="DejaVuSans-35" d="M 691 4666 
L 3169 4666 
L 3169 4134 
L 1269 4134 
L 1269 2991 
Q 1406 3038 1543 3061 
Q 1681 3084 1819 3084 
Q 2600 3084 3056 2656 
Q 3513 2228 3513 1497 
Q 3513 744 3044 326 
Q 2575 -91 1722 -91 
Q 1428 -91 1123 -41 
Q 819 9 494 109 
L 494 744 
Q 775 591 1075 516 
Q 1375 441 1709 441 
Q 2250 441 2565 725 
Q 2881 1009 2881 1497 
Q 2881 1984 2565 2268 
Q 2250 2553 1709 2553 
Q 1456 2553 1204 2497 
Q 953 2441 691 2322 
L 691 4666 
z
" transform="scale(0.015625)"/>
       </defs>
       <use xlink:href="#DejaVuSans-32"/>
       <use xlink:href="#DejaVuSans-35" transform="translate(63.623047 0)"/>
      </g>
     </g>
    </g>
    <g id="ytick_3">
     <g id="line2d_9">
      <g>
       <use xlink:href="#mbd24cbec6e" x="81" y="295.821603" style="stroke: #000000; stroke-width: 0.8"/>
      </g>
     </g>
     <g id="text_10">
      <!-- 50 -->
      <g transform="translate(61.275 299.620822) scale(0.1 -0.1)">
       <use xlink:href="#DejaVuSans-35"/>
       <use xlink:href="#DejaVuSans-30" transform="translate(63.623047 0)"/>
      </g>
     </g>
    </g>
    <g id="ytick_4">
     <g id="line2d_10">
      <g>
       <use xlink:href="#mbd24cbec6e" x="81" y="251.492405" style="stroke: #000000; stroke-width: 0.8"/>
      </g>
     </g>
     <g id="text_11">
      <!-- 75 -->
      <g transform="translate(61.275 255.291623) scale(0.1 -0.1)">
       <defs>
        <path id="DejaVuSans-37" d="M 525 4666 
L 3525 4666 
L 3525 4397 
L 1831 0 
L 1172 0 
L 2766 4134 
L 525 4134 
L 525 4666 
z
" transform="scale(0.015625)"/>
       </defs>
       <use xlink:href="#DejaVuSans-37"/>
       <use xlink:href="#DejaVuSans-35" transform="translate(63.623047 0)"/>
      </g>
     </g>
    </g>
    <g id="ytick_5">
     <g id="line2d_11">
      <g>
       <use xlink:href="#mbd24cbec6e" x="81" y="207.163206" style="stroke: #000000; stroke-width: 0.8"/>
      </g>
     </g>
     <g id="text_12">
      <!-- 100 -->
      <g transform="translate(54.9125 210.962425) scale(0.1 -0.1)">
       <defs>
        <path id="DejaVuSans-31" d="M 794 531 
L 1825 531 
L 1825 4091 
L 703 3866 
L 703 4441 
L 1819 4666 
L 2450 4666 
L 2450 531 
L 3481 531 
L 3481 0 
L 794 0 
L 794 531 
z
" transform="scale(0.015625)"/>
       </defs>
       <use xlink:href="#DejaVuSans-31"/>
       <use xlink:href="#DejaVuSans-30" transform="translate(63.623047 0)"/>
       <use xlink:href="#DejaVuSans-30" transform="translate(127.246094 0)"/>
      </g>
     </g>
    </g>
    <g id="ytick_6">
     <g id="line2d_12">
      <g>
       <use xlink:href="#mbd24cbec6e" x="81" y="162.834008" style="stroke: #000000; stroke-width: 0.8"/>
      </g>
     </g>
     <g id="text_13">
      <!-- 125 -->
      <g transform="translate(54.9125 166.633226) scale(0.1 -0.1)">
       <use xlink:href="#DejaVuSans-31"/>
       <use xlink:href="#DejaVuSans-32" transform="translate(63.623047 0)"/>
       <use xlink:href="#DejaVuSans-35" transform="translate(127.246094 0)"/>
      </g>
     </g>
    </g>
    <g id="ytick_7">
     <g id="line2d_13">
      <g>
       <use xlink:href="#mbd24cbec6e" x="81" y="118.504809" style="stroke: #000000; stroke-width: 0.8"/>
      </g>
     </g>
     <g id="text_14">
      <!-- 150 -->
      <g transform="translate(54.9125 122.304028) scale(0.1 -0.1)">
       <use xlink:href="#DejaVuSans-31"/>
       <use xlink:href="#DejaVuSans-35" transform="translate(63.623047 0)"/>
       <use xlink:href="#DejaVuSans-30" transform="translate(127.246094 0)"/>
      </g>
     </g>
    </g>
    <g id="ytick_8">
     <g id="line2d_14">
      <g>
       <use xlink:href="#mbd24cbec6e" x="81" y="74.175611" style="stroke: #000000; stroke-width: 0.8"/>
      </g>
     </g>
     <g id="text_15">
      <!-- 175 -->
      <g transform="translate(54.9125 77.97483) scale(0.1 -0.1)">
       <use xlink:href="#DejaVuSans-31"/>
       <use xlink:href="#DejaVuSans-37" transform="translate(63.623047 0)"/>
       <use xlink:href="#DejaVuSans-35" transform="translate(127.246094 0)"/>
      </g>
     </g>
    </g>
    <g id="text_16">
     <!-- Angular Error (°) -->
     <g transform="translate(42.832812 259.365469) rotate(-90) scale(0.1 -0.1)">
      <defs>
       <path id="DejaVuSans-45" d="M 628 4666 
L 3578 4666 
L 3578 4134 
L 1259 4134 
L 1259 2753 
L 3481 2753 
L 3481 2222 
L 1259 2222 
L 1259 531 
L 3634 531 
L 3634 0 
L 628 0 
L 628 4666 
z
" transform="scale(0.015625)"/>
       <path id="DejaVuSans-28" d="M 1984 4856 
Q 1566 4138 1362 3434 
Q 1159 2731 1159 2009 
Q 1159 1288 1364 580 
Q 1569 -128 1984 -844 
L 1484 -844 
Q 1016 -109 783 600 
Q 550 1309 550 2009 
Q 550 2706 781 3412 
Q 1013 4119 1484 4856 
L 1984 4856 
z
" transform="scale(0.015625)"/>
       <path id="DejaVuSans-b0" d="M 1600 4347 
Q 1350 4347 1178 4173 
Q 1006 4000 1006 3750 
Q 1006 3503 1178 3333 
Q 1350 3163 1600 3163 
Q 1850 3163 2022 3333 
Q 2194 3503 2194 3750 
Q 2194 3997 2020 4172 
Q 1847 4347 1600 4347 
z
M 1600 4750 
Q 1800 4750 1984 4673 
Q 2169 4597 2303 4453 
Q 2447 4313 2519 4134 
Q 2591 3956 2591 3750 
Q 2591 3338 2302 3052 
Q 2013 2766 1594 2766 
Q 1172 2766 890 3047 
Q 609 3328 609 3750 
Q 609 4169 896 4459 
Q 1184 4750 1600 4750 
z
" transform="scale(0.015625)"/>
       <path id="DejaVuSans-29" d="M 513 4856 
L 1013 4856 
Q 1481 4119 1714 3412 
Q 1947 2706 1947 2009 
Q 1947 1309 1714 600 
Q 1481 -109 1013 -844 
L 513 -844 
Q 928 -128 1133 580 
Q 1338 1288 1338 2009 
Q 1338 2731 1133 3434 
Q 928 4138 513 4856 
z
" transform="scale(0.015625)"/>
      </defs>
      <use xlink:href="#DejaVuSans-41"/>
      <use xlink:href="#DejaVuSans-6e" transform="translate(68.408203 0)"/>
      <use xlink:href="#DejaVuSans-67" transform="translate(131.787109 0)"/>
      <use xlink:href="#DejaVuSans-75" transform="translate(195.263672 0)"/>
      <use xlink:href="#DejaVuSans-6c" transform="translate(258.642578 0)"/>
      <use xlink:href="#DejaVuSans-61" transform="translate(286.425781 0)"/>
      <use xlink:href="#DejaVuSans-72" transform="translate(347.705078 0)"/>
      <use xlink:href="#DejaVuSans-20" transform="translate(388.818359 0)"/>
      <use xlink:href="#DejaVuSans-45" transform="translate(420.605469 0)"/>
      <use xlink:href="#DejaVuSans-72" transform="translate(483.789062 0)"/>
      <use xlink:href="#DejaVuSans-72" transform="translate(523.152344 0)"/>
      <use xlink:href="#DejaVuSans-6f" transform="translate(562.015625 0)"/>
      <use xlink:href="#DejaVuSans-72" transform="translate(623.197266 0)"/>
      <use xlink:href="#DejaVuSans-20" transform="translate(664.310547 0)"/>
      <use xlink:href="#DejaVuSans-28" transform="translate(696.097656 0)"/>
      <use xlink:href="#DejaVuSans-b0" transform="translate(735.111328 0)"/>
      <use xlink:href="#DejaVuSans-29" transform="translate(785.111328 0)"/>
     </g>
    </g>
   </g>
   <g id="LineCollection_1">
    <path d="M 106.11 126.996156 
L 139.59 126.996156 
" clip-path="url(#p6d3b43be8b)" style="fill: none; stroke: #1f77b4; stroke-width: 1.5"/>
    <path d="M 189.81 74.315514 
L 223.29 74.315514 
" clip-path="url(#p6d3b43be8b)" style="fill: none; stroke: #1f77b4; stroke-width: 1.5"/>
    <path d="M 273.51 308.958951 
L 306.99 308.958951 
" clip-path="url(#p6d3b43be8b)" style="fill: none; stroke: #1f77b4; stroke-width: 1.5"/>
    <path d="M 357.21 110.22642 
L 390.69 110.22642 
" clip-path="url(#p6d3b43be8b)" style="fill: none; stroke: #1f77b4; stroke-width: 1.5"/>
    <path d="M 440.91 67.678369 
L 474.39 67.678369 
" clip-path="url(#p6d3b43be8b)" style="fill: none; stroke: #1f77b4; stroke-width: 1.5"/>
    <path d="M 524.61 71.037636 
L 558.09 71.037636 
" clip-path="url(#p6d3b43be8b)" style="fill: none; stroke: #1f77b4; stroke-width: 1.5"/>
   </g>
   <g id="LineCollection_2">
    <path d="M 106.11 384.445747 
L 139.59 384.445747 
" clip-path="url(#p6d3b43be8b)" style="fill: none; stroke: #1f77b4; stroke-width: 1.5"/>
    <path d="M 189.81 384.177564 
L 223.29 384.177564 
" clip-path="url(#p6d3b43be8b)" style="fill: none; stroke: #1f77b4; stroke-width: 1.5"/>
    <path d="M 273.51 384.086863 
L 306.99 384.086863 
" clip-path="url(#p6d3b43be8b)" style="fill: none; stroke: #1f77b4; stroke-width: 1.5"/>
    <path d="M 357.21 384.27935 
L 390.69 384.27935 
" clip-path="url(#p6d3b43be8b)" style="fill: none; stroke: #1f77b4; stroke-width: 1.5"/>
    <path d="M 440.91 384.359166 
L 474.39 384.359166 
" clip-path="url(#p6d3b43be8b)" style="fill: none; stroke: #1f77b4; stroke-width: 1.5"/>
    <path d="M 524.61 383.716626 
L 558.09 383.716626 
" clip-path="url(#p6d3b43be8b)" style="fill: none; stroke: #1f77b4; stroke-width: 1.5"/>
   </g>
   <g id="LineCollection_3">
    <path d="M 122.85 384.445747 
L 122.85 126.996156 
" clip-path="url(#p6d3b43be8b)" style="fill: none; stroke: #1f77b4; stroke-width: 1.5"/>
    <path d="M 206.55 384.177564 
L 206.55 74.315514 
" clip-path="url(#p6d3b43be8b)" style="fill: none; stroke: #1f77b4; stroke-width: 1.5"/>
    <path d="M 290.25 384.086863 
L 290.25 308.958951 
" clip-path="url(#p6d3b43be8b)" style="fill: none; stroke: #1f77b4; stroke-width: 1.5"/>
    <path d="M 373.95 384.27935 
L 373.95 110.22642 
" clip-path="url(#p6d3b43be8b)" style="fill: none; stroke: #1f77b4; stroke-width: 1.5"/>
    <path d="M 457.65 384.359166 
L 457.65 67.678369 
" clip-path="url(#p6d3b43be8b)" style="fill: none; stroke: #1f77b4; stroke-width: 1.5"/>
    <path d="M 541.35 383.716626 
L 541.35 71.037636 
" clip-path="url(#p6d3b43be8b)" style="fill: none; stroke: #1f77b4; stroke-width: 1.5"/>
   </g>
   <g id="patch_3">
    <path d="M 110.295 379.630992 
L 135.405 379.630992 
L 135.405 360.008775 
L 110.295 360.008775 
L 110.295 379.630992 
z
" clip-path="url(#p6d3b43be8b)" style="fill: #add8e6; stroke: #000000; stroke-linejoin: miter"/>
   </g>
   <g id="line2d_15">
    <path d="M 122.85 379.630992 
L 122.85 384.445747 
" clip-path="url(#p6d3b43be8b)" style="fill: none; stroke: #000000; stroke-linecap: square"/>
   </g>
   <g id="line2d_16">
    <path d="M 122.85 360.008775 
L 122.85 331.089878 
" clip-path="url(#p6d3b43be8b)" style="fill: none; stroke: #000000; stroke-linecap: square"/>
   </g>
   <g id="line2d_17">
    <path d="M 116.5725 384.445747 
L 129.1275 384.445747 
" clip-path="url(#p6d3b43be8b)" style="fill: none; stroke: #000000; stroke-linecap: square"/>
   </g>
   <g id="line2d_18">
    <path d="M 116.5725 331.089878 
L 129.1275 331.089878 
" clip-path="url(#p6d3b43be8b)" style="fill: none; stroke: #000000; stroke-linecap: square"/>
   </g>
   <g id="line2d_19">
    <defs>
     <path id="mafe97850f1" d="M 0 2 
C 0.530406 2 1.03916 1.789267 1.414214 1.414214 
C 1.789267 1.03916 2 0.530406 2 0 
C 2 -0.530406 1.789267 -1.03916 1.414214 -1.414214 
C 1.03916 -1.789267 0.530406 -2 0 -2 
C -0.530406 -2 -1.03916 -1.789267 -1.414214 -1.414214 
C -1.789267 -1.03916 -2 -0.530406 -2 0 
C -2 0.530406 -1.789267 1.03916 -1.414214 1.414214 
C -1.03916 1.789267 -0.530406 2 0 2 
z
" style="stroke: #000000"/>
    </defs>
    <g clip-path="url(#p6d3b43be8b)">
     <use xlink:href="#mafe97850f1" x="122.85" y="328.046643" style="fill-opacity: 0; stroke: #000000"/>
     <use xlink:href="#mafe97850f1" x="122.85" y="277.971405" style="fill-opacity: 0; stroke: #000000"/>
     <use xlink:href="#mafe97850f1" x="122.85" y="126.996156" style="fill-opacity: 0; stroke: #000000"/>
     <use xlink:href="#mafe97850f1" x="122.85" y="183.453114" style="fill-opacity: 0; stroke: #000000"/>
     <use xlink:href="#mafe97850f1" x="122.85" y="135.735569" style="fill-opacity: 0; stroke: #000000"/>
     <use xlink:href="#mafe97850f1" x="122.85" y="328.92906" style="fill-opacity: 0; stroke: #000000"/>
     <use xlink:href="#mafe97850f1" x="122.85" y="193.674718" style="fill-opacity: 0; stroke: #000000"/>
     <use xlink:href="#mafe97850f1" x="122.85" y="303.974452" style="fill-opacity: 0; stroke: #000000"/>
    </g>
   </g>
   <g id="patch_4">
    <path d="M 193.995 378.238066 
L 219.105 378.238066 
L 219.105 351.77538 
L 193.995 351.77538 
L 193.995 378.238066 
z
" clip-path="url(#p6d3b43be8b)" style="fill: #add8e6; stroke: #000000; stroke-linejoin: miter"/>
   </g>
   <g id="line2d_20">
    <path d="M 206.55 378.238066 
L 206.55 384.177564 
" clip-path="url(#p6d3b43be8b)" style="fill: none; stroke: #000000; stroke-linecap: square"/>
   </g>
   <g id="line2d_21">
    <path d="M 206.55 351.77538 
L 206.55 316.155513 
" clip-path="url(#p6d3b43be8b)" style="fill: none; stroke: #000000; stroke-linecap: square"/>
   </g>
   <g id="line2d_22">
    <path d="M 200.2725 384.177564 
L 212.8275 384.177564 
" clip-path="url(#p6d3b43be8b)" style="fill: none; stroke: #000000; stroke-linecap: square"/>
   </g>
   <g id="line2d_23">
    <path d="M 200.2725 316.155513 
L 212.8275 316.155513 
" clip-path="url(#p6d3b43be8b)" style="fill: none; stroke: #000000; stroke-linecap: square"/>
   </g>
   <g id="line2d_24">
    <g clip-path="url(#p6d3b43be8b)">
     <use xlink:href="#mafe97850f1" x="206.55" y="290.682395" style="fill-opacity: 0; stroke: #000000"/>
     <use xlink:href="#mafe97850f1" x="206.55" y="162.513951" style="fill-opacity: 0; stroke: #000000"/>
     <use xlink:href="#mafe97850f1" x="206.55" y="74.315514" style="fill-opacity: 0; stroke: #000000"/>
     <use xlink:href="#mafe97850f1" x="206.55" y="307.727291" style="fill-opacity: 0; stroke: #000000"/>
     <use xlink:href="#mafe97850f1" x="206.55" y="194.571586" style="fill-opacity: 0; stroke: #000000"/>
     <use xlink:href="#mafe97850f1" x="206.55" y="193.049321" style="fill-opacity: 0; stroke: #000000"/>
     <use xlink:href="#mafe97850f1" x="206.55" y="287.010678" style="fill-opacity: 0; stroke: #000000"/>
     <use xlink:href="#mafe97850f1" x="206.55" y="95.208752" style="fill-opacity: 0; stroke: #000000"/>
     <use xlink:href="#mafe97850f1" x="206.55" y="98.91219" style="fill-opacity: 0; stroke: #000000"/>
     <use xlink:href="#mafe97850f1" x="206.55" y="173.007027" style="fill-opacity: 0; stroke: #000000"/>
     <use xlink:href="#mafe97850f1" x="206.55" y="271.084474" style="fill-opacity: 0; stroke: #000000"/>
     <use xlink:href="#mafe97850f1" x="206.55" y="79.350424" style="fill-opacity: 0; stroke: #000000"/>
     <use xlink:href="#mafe97850f1" x="206.55" y="81.374141" style="fill-opacity: 0; stroke: #000000"/>
     <use xlink:href="#mafe97850f1" x="206.55" y="157.926411" style="fill-opacity: 0; stroke: #000000"/>
     <use xlink:href="#mafe97850f1" x="206.55" y="260.818807" style="fill-opacity: 0; stroke: #000000"/>
     <use xlink:href="#mafe97850f1" x="206.55" y="303.263146" style="fill-opacity: 0; stroke: #000000"/>
     <use xlink:href="#mafe97850f1" x="206.55" y="170.436997" style="fill-opacity: 0; stroke: #000000"/>
    </g>
   </g>
   <g id="patch_5">
    <path d="M 277.695 371.468442 
L 302.805 371.468442 
L 302.805 349.413064 
L 277.695 349.413064 
L 277.695 371.468442 
z
" clip-path="url(#p6d3b43be8b)" style="fill: #add8e6; stroke: #000000; stroke-linejoin: miter"/>
   </g>
   <g id="line2d_25">
    <path d="M 290.25 371.468442 
L 290.25 384.086863 
" clip-path="url(#p6d3b43be8b)" style="fill: none; stroke: #000000; stroke-linecap: square"/>
   </g>
   <g id="line2d_26">
    <path d="M 290.25 349.413064 
L 290.25 331.518133 
" clip-path="url(#p6d3b43be8b)" style="fill: none; stroke: #000000; stroke-linecap: square"/>
   </g>
   <g id="line2d_27">
    <path d="M 283.9725 384.086863 
L 296.5275 384.086863 
" clip-path="url(#p6d3b43be8b)" style="fill: none; stroke: #000000; stroke-linecap: square"/>
   </g>
   <g id="line2d_28">
    <path d="M 283.9725 331.518133 
L 296.5275 331.518133 
" clip-path="url(#p6d3b43be8b)" style="fill: none; stroke: #000000; stroke-linecap: square"/>
   </g>
   <g id="line2d_29">
    <g clip-path="url(#p6d3b43be8b)">
     <use xlink:href="#mafe97850f1" x="290.25" y="308.958951" style="fill-opacity: 0; stroke: #000000"/>
    </g>
   </g>
   <g id="patch_6">
    <path d="M 361.395 379.981983 
L 386.505 379.981983 
L 386.505 363.949526 
L 361.395 363.949526 
L 361.395 379.981983 
z
" clip-path="url(#p6d3b43be8b)" style="fill: #add8e6; stroke: #000000; stroke-linejoin: miter"/>
   </g>
   <g id="line2d_30">
    <path d="M 373.95 379.981983 
L 373.95 384.27935 
" clip-path="url(#p6d3b43be8b)" style="fill: none; stroke: #000000; stroke-linecap: square"/>
   </g>
   <g id="line2d_31">
    <path d="M 373.95 363.949526 
L 373.95 341.630776 
" clip-path="url(#p6d3b43be8b)" style="fill: none; stroke: #000000; stroke-linecap: square"/>
   </g>
   <g id="line2d_32">
    <path d="M 367.6725 384.27935 
L 380.2275 384.27935 
" clip-path="url(#p6d3b43be8b)" style="fill: none; stroke: #000000; stroke-linecap: square"/>
   </g>
   <g id="line2d_33">
    <path d="M 367.6725 341.630776 
L 380.2275 341.630776 
" clip-path="url(#p6d3b43be8b)" style="fill: none; stroke: #000000; stroke-linecap: square"/>
   </g>
   <g id="line2d_34">
    <g clip-path="url(#p6d3b43be8b)">
     <use xlink:href="#mafe97850f1" x="373.95" y="312.024493" style="fill-opacity: 0; stroke: #000000"/>
     <use xlink:href="#mafe97850f1" x="373.95" y="270.030414" style="fill-opacity: 0; stroke: #000000"/>
     <use xlink:href="#mafe97850f1" x="373.95" y="182.626818" style="fill-opacity: 0; stroke: #000000"/>
     <use xlink:href="#mafe97850f1" x="373.95" y="143.424557" style="fill-opacity: 0; stroke: #000000"/>
     <use xlink:href="#mafe97850f1" x="373.95" y="110.22642" style="fill-opacity: 0; stroke: #000000"/>
     <use xlink:href="#mafe97850f1" x="373.95" y="243.936847" style="fill-opacity: 0; stroke: #000000"/>
     <use xlink:href="#mafe97850f1" x="373.95" y="234.190382" style="fill-opacity: 0; stroke: #000000"/>
     <use xlink:href="#mafe97850f1" x="373.95" y="242.673855" style="fill-opacity: 0; stroke: #000000"/>
     <use xlink:href="#mafe97850f1" x="373.95" y="183.317112" style="fill-opacity: 0; stroke: #000000"/>
     <use xlink:href="#mafe97850f1" x="373.95" y="113.083526" style="fill-opacity: 0; stroke: #000000"/>
     <use xlink:href="#mafe97850f1" x="373.95" y="337.210765" style="fill-opacity: 0; stroke: #000000"/>
     <use xlink:href="#mafe97850f1" x="373.95" y="128.725172" style="fill-opacity: 0; stroke: #000000"/>
    </g>
   </g>
   <g id="patch_7">
    <path d="M 445.095 380.080335 
L 470.205 380.080335 
L 470.205 360.955651 
L 445.095 360.955651 
L 445.095 380.080335 
z
" clip-path="url(#p6d3b43be8b)" style="fill: #add8e6; stroke: #000000; stroke-linejoin: miter"/>
   </g>
   <g id="line2d_35">
    <path d="M 457.65 380.080335 
L 457.65 384.359166 
" clip-path="url(#p6d3b43be8b)" style="fill: none; stroke: #000000; stroke-linecap: square"/>
   </g>
   <g id="line2d_36">
    <path d="M 457.65 360.955651 
L 457.65 341.158706 
" clip-path="url(#p6d3b43be8b)" style="fill: none; stroke: #000000; stroke-linecap: square"/>
   </g>
   <g id="line2d_37">
    <path d="M 451.3725 384.359166 
L 463.9275 384.359166 
" clip-path="url(#p6d3b43be8b)" style="fill: none; stroke: #000000; stroke-linecap: square"/>
   </g>
   <g id="line2d_38">
    <path d="M 451.3725 341.158706 
L 463.9275 341.158706 
" clip-path="url(#p6d3b43be8b)" style="fill: none; stroke: #000000; stroke-linecap: square"/>
   </g>
   <g id="line2d_39">
    <g clip-path="url(#p6d3b43be8b)">
     <use xlink:href="#mafe97850f1" x="457.65" y="311.452433" style="fill-opacity: 0; stroke: #000000"/>
     <use xlink:href="#mafe97850f1" x="457.65" y="269.544318" style="fill-opacity: 0; stroke: #000000"/>
     <use xlink:href="#mafe97850f1" x="457.65" y="311.279868" style="fill-opacity: 0; stroke: #000000"/>
     <use xlink:href="#mafe97850f1" x="457.65" y="329.306089" style="fill-opacity: 0; stroke: #000000"/>
     <use xlink:href="#mafe97850f1" x="457.65" y="89.158171" style="fill-opacity: 0; stroke: #000000"/>
     <use xlink:href="#mafe97850f1" x="457.65" y="116.02131" style="fill-opacity: 0; stroke: #000000"/>
     <use xlink:href="#mafe97850f1" x="457.65" y="168.064676" style="fill-opacity: 0; stroke: #000000"/>
     <use xlink:href="#mafe97850f1" x="457.65" y="326.716962" style="fill-opacity: 0; stroke: #000000"/>
     <use xlink:href="#mafe97850f1" x="457.65" y="67.678369" style="fill-opacity: 0; stroke: #000000"/>
     <use xlink:href="#mafe97850f1" x="457.65" y="174.711219" style="fill-opacity: 0; stroke: #000000"/>
     <use xlink:href="#mafe97850f1" x="457.65" y="135.042083" style="fill-opacity: 0; stroke: #000000"/>
     <use xlink:href="#mafe97850f1" x="457.65" y="70.670412" style="fill-opacity: 0; stroke: #000000"/>
     <use xlink:href="#mafe97850f1" x="457.65" y="201.045954" style="fill-opacity: 0; stroke: #000000"/>
     <use xlink:href="#mafe97850f1" x="457.65" y="119.304331" style="fill-opacity: 0; stroke: #000000"/>
     <use xlink:href="#mafe97850f1" x="457.65" y="122.289282" style="fill-opacity: 0; stroke: #000000"/>
     <use xlink:href="#mafe97850f1" x="457.65" y="322.037714" style="fill-opacity: 0; stroke: #000000"/>
    </g>
   </g>
   <g id="patch_8">
    <path d="M 528.795 377.355496 
L 553.905 377.355496 
L 553.905 356.312669 
L 528.795 356.312669 
L 528.795 377.355496 
z
" clip-path="url(#p6d3b43be8b)" style="fill: #add8e6; stroke: #000000; stroke-linejoin: miter"/>
   </g>
   <g id="line2d_40">
    <path d="M 541.35 377.355496 
L 541.35 383.716626 
" clip-path="url(#p6d3b43be8b)" style="fill: none; stroke: #000000; stroke-linecap: square"/>
   </g>
   <g id="line2d_41">
    <path d="M 541.35 356.312669 
L 541.35 347.906195 
" clip-path="url(#p6d3b43be8b)" style="fill: none; stroke: #000000; stroke-linecap: square"/>
   </g>
   <g id="line2d_42">
    <path d="M 535.0725 383.716626 
L 547.6275 383.716626 
" clip-path="url(#p6d3b43be8b)" style="fill: none; stroke: #000000; stroke-linecap: square"/>
   </g>
   <g id="line2d_43">
    <path d="M 535.0725 347.906195 
L 547.6275 347.906195 
" clip-path="url(#p6d3b43be8b)" style="fill: none; stroke: #000000; stroke-linecap: square"/>
   </g>
   <g id="line2d_44">
    <g clip-path="url(#p6d3b43be8b)">
     <use xlink:href="#mafe97850f1" x="541.35" y="141.242142" style="fill-opacity: 0; stroke: #000000"/>
     <use xlink:href="#mafe97850f1" x="541.35" y="245.07109" style="fill-opacity: 0; stroke: #000000"/>
     <use xlink:href="#mafe97850f1" x="541.35" y="267.230618" style="fill-opacity: 0; stroke: #000000"/>
     <use xlink:href="#mafe97850f1" x="541.35" y="85.303836" style="fill-opacity: 0; stroke: #000000"/>
     <use xlink:href="#mafe97850f1" x="541.35" y="317.002591" style="fill-opacity: 0; stroke: #000000"/>
     <use xlink:href="#mafe97850f1" x="541.35" y="266.562435" style="fill-opacity: 0; stroke: #000000"/>
     <use xlink:href="#mafe97850f1" x="541.35" y="117.435412" style="fill-opacity: 0; stroke: #000000"/>
     <use xlink:href="#mafe97850f1" x="541.35" y="314.042517" style="fill-opacity: 0; stroke: #000000"/>
     <use xlink:href="#mafe97850f1" x="541.35" y="230.502547" style="fill-opacity: 0; stroke: #000000"/>
     <use xlink:href="#mafe97850f1" x="541.35" y="286.128598" style="fill-opacity: 0; stroke: #000000"/>
     <use xlink:href="#mafe97850f1" x="541.35" y="183.836118" style="fill-opacity: 0; stroke: #000000"/>
     <use xlink:href="#mafe97850f1" x="541.35" y="266.116004" style="fill-opacity: 0; stroke: #000000"/>
     <use xlink:href="#mafe97850f1" x="541.35" y="71.037636" style="fill-opacity: 0; stroke: #000000"/>
     <use xlink:href="#mafe97850f1" x="541.35" y="83.261855" style="fill-opacity: 0; stroke: #000000"/>
     <use xlink:href="#mafe97850f1" x="541.35" y="232.925652" style="fill-opacity: 0; stroke: #000000"/>
     <use xlink:href="#mafe97850f1" x="541.35" y="200.017339" style="fill-opacity: 0; stroke: #000000"/>
    </g>
   </g>
   <g id="line2d_45">
    <path d="M 110.295 374.55101 
L 135.405 374.55101 
" clip-path="url(#p6d3b43be8b)" style="fill: none; stroke: #000000"/>
   </g>
   <g id="line2d_46">
    <path d="M 193.995 371.13933 
L 219.105 371.13933 
" clip-path="url(#p6d3b43be8b)" style="fill: none; stroke: #000000"/>
   </g>
   <g id="line2d_47">
    <path d="M 277.695 361.476152 
L 302.805 361.476152 
" clip-path="url(#p6d3b43be8b)" style="fill: none; stroke: #000000"/>
   </g>
   <g id="line2d_48">
    <path d="M 361.395 376.060617 
L 386.505 376.060617 
" clip-path="url(#p6d3b43be8b)" style="fill: none; stroke: #000000"/>
   </g>
   <g id="line2d_49">
    <path d="M 445.095 374.312925 
L 470.205 374.312925 
" clip-path="url(#p6d3b43be8b)" style="fill: none; stroke: #000000"/>
   </g>
   <g id="line2d_50">
    <path d="M 528.795 370.174093 
L 553.905 370.174093 
" clip-path="url(#p6d3b43be8b)" style="fill: none; stroke: #000000"/>
   </g>
   <g id="patch_9">
    <path d="M 81 384.48 
L 81 51.84 
" style="fill: none; stroke: #000000; stroke-width: 0.8; stroke-linejoin: miter; stroke-linecap: square"/>
   </g>
   <g id="patch_10">
    <path d="M 583.2 384.48 
L 583.2 51.84 
" style="fill: none; stroke: #000000; stroke-width: 0.8; stroke-linejoin: miter; stroke-linecap: square"/>
   </g>
   <g id="patch_11">
    <path d="M 81 384.48 
L 583.2 384.48 
" style="fill: none; stroke: #000000; stroke-width: 0.8; stroke-linejoin: miter; stroke-linecap: square"/>
   </g>
   <g id="patch_12">
    <path d="M 81 51.84 
L 583.2 51.84 
" style="fill: none; stroke: #000000; stroke-width: 0.8; stroke-linejoin: miter; stroke-linecap: square"/>
   </g>
   <g id="text_17">
    <!-- Angle Error Distribution by Visualization -->
    <g transform="translate(212.519063 31.84) scale(0.12 -0.12)">
     <defs>
      <path id="DejaVuSans-65" d="M 3597 1894 
L 3597 1613 
L 953 1613 
Q 991 1019 1311 708 
Q 1631 397 2203 397 
Q 2534 397 2845 478 
Q 3156 559 3463 722 
L 3463 178 
Q 3153 47 2828 -22 
Q 2503 -91 2169 -91 
Q 1331 -91 842 396 
Q 353 884 353 1716 
Q 353 2575 817 3079 
Q 1281 3584 2069 3584 
Q 2775 3584 3186 3129 
Q 3597 2675 3597 1894 
z
M 3022 2063 
Q 3016 2534 2758 2815 
Q 2500 3097 2075 3097 
Q 1594 3097 1305 2825 
Q 1016 2553 972 2059 
L 3022 2063 
z
" transform="scale(0.015625)"/>
      <path id="DejaVuSans-44" d="M 1259 4147 
L 1259 519 
L 2022 519 
Q 2988 519 3436 956 
Q 3884 1394 3884 2338 
Q 3884 3275 3436 3711 
Q 2988 4147 2022 4147 
L 1259 4147 
z
M 628 4666 
L 1925 4666 
Q 3281 4666 3915 4102 
Q 4550 3538 4550 2338 
Q 4550 1131 3912 565 
Q 3275 0 1925 0 
L 628 0 
L 628 4666 
z
" transform="scale(0.015625)"/>
      <path id="DejaVuSans-62" d="M 3116 1747 
Q 3116 2381 2855 2742 
Q 2594 3103 2138 3103 
Q 1681 3103 1420 2742 
Q 1159 2381 1159 1747 
Q 1159 1113 1420 752 
Q 1681 391 2138 391 
Q 2594 391 2855 752 
Q 3116 1113 3116 1747 
z
M 1159 2969 
Q 1341 3281 1617 3432 
Q 1894 3584 2278 3584 
Q 2916 3584 3314 3078 
Q 3713 2572 3713 1747 
Q 3713 922 3314 415 
Q 2916 -91 2278 -91 
Q 1894 -91 1617 61 
Q 1341 213 1159 525 
L 1159 0 
L 581 0 
L 581 4863 
L 1159 4863 
L 1159 2969 
z
" transform="scale(0.015625)"/>
      <path id="DejaVuSans-79" d="M 2059 -325 
Q 1816 -950 1584 -1140 
Q 1353 -1331 966 -1331 
L 506 -1331 
L 506 -850 
L 844 -850 
Q 1081 -850 1212 -737 
Q 1344 -625 1503 -206 
L 1606 56 
L 191 3500 
L 800 3500 
L 1894 763 
L 2988 3500 
L 3597 3500 
L 2059 -325 
z
" transform="scale(0.015625)"/>
     </defs>
     <use xlink:href="#DejaVuSans-41"/>
     <use xlink:href="#DejaVuSans-6e" transform="translate(68.408203 0)"/>
     <use xlink:href="#DejaVuSans-67" transform="translate(131.787109 0)"/>
     <use xlink:href="#DejaVuSans-6c" transform="translate(195.263672 0)"/>
     <use xlink:href="#DejaVuSans-65" transform="translate(223.046875 0)"/>
     <use xlink:href="#DejaVuSans-20" transform="translate(284.570312 0)"/>
     <use xlink:href="#DejaVuSans-45" transform="translate(316.357422 0)"/>
     <use xlink:href="#DejaVuSans-72" transform="translate(379.541016 0)"/>
     <use xlink:href="#DejaVuSans-72" transform="translate(418.904297 0)"/>
     <use xlink:href="#DejaVuSans-6f" transform="translate(457.767578 0)"/>
     <use xlink:href="#DejaVuSans-72" transform="translate(518.949219 0)"/>
     <use xlink:href="#DejaVuSans-20" transform="translate(560.0625 0)"/>
     <use xlink:href="#DejaVuSans-44" transform="translate(591.849609 0)"/>
     <use xlink:href="#DejaVuSans-69" transform="translate(668.851562 0)"/>
     <use xlink:href="#DejaVuSans-73" transform="translate(696.634766 0)"/>
     <use xlink:href="#DejaVuSans-74" transform="translate(748.734375 0)"/>
     <use xlink:href="#DejaVuSans-72" transform="translate(787.943359 0)"/>
     <use xlink:href="#DejaVuSans-69" transform="translate(829.056641 0)"/>
     <use xlink:href="#DejaVuSans-62" transform="translate(856.839844 0)"/>
     <use xlink:href="#DejaVuSans-75" transform="translate(920.316406 0)"/>
     <use xlink:href="#DejaVuSans-74" transform="translate(983.695312 0)"/>
     <use xlink:href="#DejaVuSans-69" transform="translate(1022.904297 0)"/>
     <use xlink:href="#DejaVuSans-6f" transform="translate(1050.6875 0)"/>
     <use xlink:href="#DejaVuSans-6e" transform="translate(1111.869141 0)"/>
     <use xlink:href="#DejaVuSans-20" transform="translate(1175.248047 0)"/>
     <use xlink:href="#DejaVuSans-62" transform="translate(1207.035156 0)"/>
     <use xlink:href="#DejaVuSans-79" transform="translate(1270.511719 0)"/>
     <use xlink:href="#DejaVuSans-20" transform="translate(1329.691406 0)"/>
     <use xlink:href="#DejaVuSans-56" transform="translate(1361.478516 0)"/>
     <use xlink:href="#DejaVuSans-69" transform="translate(1427.636719 0)"/>
     <use xlink:href="#DejaVuSans-73" transform="translate(1455.419922 0)"/>
     <use xlink:href="#DejaVuSans-75" transform="translate(1507.519531 0)"/>
     <use xlink:href="#DejaVuSans-61" transform="translate(1570.898438 0)"/>
     <use xlink:href="#DejaVuSans-6c" transform="translate(1632.177734 0)"/>
     <use xlink:href="#DejaVuSans-69" transform="translate(1659.960938 0)"/>
     <use xlink:href="#DejaVuSans-7a" transform="translate(1687.744141 0)"/>
     <use xlink:href="#DejaVuSans-61" transform="translate(1740.234375 0)"/>
     <use xlink:href="#DejaVuSans-74" transform="translate(1801.513672 0)"/>
     <use xlink:href="#DejaVuSans-69" transform="translate(1840.722656 0)"/>
     <use xlink:href="#DejaVuSans-6f" transform="translate(1868.505859 0)"/>
     <use xlink:href="#DejaVuSans-6e" transform="translate(1929.6875 0)"/>
    </g>
   </g>
  </g>
 </g>
 <defs>
  <clipPath id="p6d3b43be8b">
   <rect x="81" y="51.84" width="502.2" height="332.64"/>
  </clipPath>
 </defs>
</svg>
