<?xml version="1.0" encoding="utf-8" standalone="no"?>
<!DOCTYPE svg PUBLIC "-//W3C//DTD SVG 1.1//EN"
  "http://www.w3.org/Graphics/SVG/1.1/DTD/svg11.dtd">
<svg xmlns:xlink="http://www.w3.org/1999/xlink" width="648pt" height="432pt" viewBox="0 0 648 432" xmlns="http://www.w3.org/2000/svg" version="1.1">
 <metadata>
  <rdf:RDF xmlns:dc="http://purl.org/dc/elements/1.1/" xmlns:cc="http://creativecommons.org/ns#" xmlns:rdf="http://www.w3.org/1999/02/22-rdf-syntax-ns#">
   <cc:Work>
    <dc:type rdf:resource="http://purl.org/dc/dcmitype/StillImage"/>
    <dc:date>2026-03-19T20:19:02.630002</dc:date>
    <dc:format>image/svg+xml</dc:format>
    <dc:creator>
     <cc:Agent>
      <dc:title>Matplotlib v3.10.6, https://matplotlib.org/</dc:title>
     </cc:Agent>
    </dc:creator>
   </cc:Work>
  </rdf:RDF>
 </metadata>
 <defs>
  <style type="text/css">*{stroke-linejoin: round; stroke-linecap: butt}</style>
 </defs>
 <g id="figure_1">
  <g id="patch_1">
   <path d="M 0 432 
L 648 432 
L 648 0 
L 0 0 
z
" style="fill: #ffffff"/>
  </g>
  <g id="axes_1">
   <g id="patch_2">
    <path d="M 81 384.48 
L 583.2 384.48 
L 583.2 51.84 
L 81 51.84 
z
" style="fill: #ffffff"/>
   </g>
   <g id="FillBetweenPolyCollection_1">
    <path d="M 153.281812 384.445747 
L 92.418188 384.445747 
L 91.036981 381.845246 
L 90.05097 379.244745 
L 89.491169 376.644244 
L 89.37 374.043743 
L 89.680815 371.443242 
L 90.398847 368.842741 
L 91.48346 366.24224 
L 92.881459 363.641739 
L 94.531097 361.041238 
L 96.366376 358.440737 
L 98.321264 355.840237 
L 100.333439 353.239736 
L 102.347307 350.639235 
L 104.316114 348.038734 
L 106.203091 345.438233 
L 107.981665 342.837732 
L 109.634891 340.237231 
L 111.154256 337.63673 
L 112.538112 335.036229 
L 113.789925 332.435728 
L 114.91656 329.835227 
L 115.926747 327.234726 
L 116.829839 324.634226 
L 117.634914 322.033725 
L 118.350225 319.433224 
L 118.982974 316.832723 
L 119.539328 314.232222 
L 120.024621 311.631721 
L 120.443646 309.03122 
L 120.80098 306.430719 
L 121.101262 303.830218 
L 121.349404 301.229717 
L 121.550704 298.629216 
L 121.71085 296.028715 
L 121.835835 293.428215 
L 121.931802 290.827714 
L 122.004837 288.227213 
L 122.060746 285.626712 
L 122.104842 283.026211 
L 122.141755 280.42571 
L 122.175303 277.825209 
L 122.208408 275.224708 
L 122.243082 272.624207 
L 122.280469 270.023706 
L 122.320934 267.423205 
L 122.364198 264.822704 
L 122.409481 262.222204 
L 122.455672 259.621703 
L 122.50147 257.021202 
L 122.545524 254.420701 
L 122.586539 251.8202 
L 122.623348 249.219699 
L 122.654963 246.619198 
L 122.68059 244.018697 
L 122.699633 241.418196 
L 122.711677 238.817695 
L 122.716478 236.217194 
L 122.713946 233.616693 
L 122.70414 231.016193 
L 122.687277 228.415692 
L 122.663743 225.815191 
L 122.634117 223.21469 
L 122.599192 220.614189 
L 122.559987 218.013688 
L 122.517751 215.413187 
L 122.47394 212.812686 
L 122.430172 210.212185 
L 122.38816 207.611684 
L 122.349615 205.011183 
L 122.316134 202.410682 
L 122.289084 199.810182 
L 122.269487 197.209681 
L 122.257912 194.60918 
L 122.25441 192.008679 
L 122.258466 189.408178 
L 122.269006 186.807677 
L 122.284437 184.207176 
L 122.302734 181.606675 
L 122.321563 179.006174 
L 122.338425 176.405673 
L 122.350823 173.805172 
L 122.356435 171.204671 
L 122.353273 168.604171 
L 122.33984 166.00367 
L 122.31525 163.403169 
L 122.279321 160.802668 
L 122.232623 158.202167 
L 122.176483 155.601666 
L 122.112942 153.001165 
L 122.044657 150.400664 
L 121.974767 147.800163 
L 121.906707 145.199662 
L 121.844003 142.599161 
L 121.790049 139.99866 
L 121.747883 137.39816 
L 121.719991 134.797659 
L 121.708138 132.197158 
L 121.713259 129.596657 
L 121.735413 126.996156 
L 123.964587 126.996156 
L 123.964587 126.996156 
L 123.986741 129.596657 
L 123.991862 132.197158 
L 123.980009 134.797659 
L 123.952117 137.39816 
L 123.909951 139.99866 
L 123.855997 142.599161 
L 123.793293 145.199662 
L 123.725233 147.800163 
L 123.655343 150.400664 
L 123.587058 153.001165 
L 123.523517 155.601666 
L 123.467377 158.202167 
L 123.420679 160.802668 
L 123.38475 163.403169 
L 123.36016 166.00367 
L 123.346727 168.604171 
L 123.343565 171.204671 
L 123.349177 173.805172 
L 123.361575 176.405673 
L 123.378437 179.006174 
L 123.397266 181.606675 
L 123.415563 184.207176 
L 123.430994 186.807677 
L 123.441534 189.408178 
L 123.44559 192.008679 
L 123.442088 194.60918 
L 123.430513 197.209681 
L 123.410916 199.810182 
L 123.383866 202.410682 
L 123.350385 205.011183 
L 123.31184 207.611684 
L 123.269828 210.212185 
L 123.22606 212.812686 
L 123.182249 215.413187 
L 123.140013 218.013688 
L 123.100808 220.614189 
L 123.065883 223.21469 
L 123.036257 225.815191 
L 123.012723 228.415692 
L 122.99586 231.016193 
L 122.986054 233.616693 
L 122.983522 236.217194 
L 122.988323 238.817695 
L 123.000367 241.418196 
L 123.01941 244.018697 
L 123.045037 246.619198 
L 123.076652 249.219699 
L 123.113461 251.8202 
L 123.154476 254.420701 
L 123.19853 257.021202 
L 123.244328 259.621703 
L 123.290519 262.222204 
L 123.335802 264.822704 
L 123.379066 267.423205 
L 123.419531 270.023706 
L 123.456918 272.624207 
L 123.491592 275.224708 
L 123.524697 277.825209 
L 123.558245 280.42571 
L 123.595158 283.026211 
L 123.639254 285.626712 
L 123.695163 288.227213 
L 123.768198 290.827714 
L 123.864165 293.428215 
L 123.98915 296.028715 
L 124.149296 298.629216 
L 124.350596 301.229717 
L 124.598738 303.830218 
L 124.89902 306.430719 
L 125.256354 309.03122 
L 125.675379 311.631721 
L 126.160672 314.232222 
L 126.717026 316.832723 
L 127.349775 319.433224 
L 128.065086 322.033725 
L 128.870161 324.634226 
L 129.773253 327.234726 
L 130.78344 329.835227 
L 131.910075 332.435728 
L 133.161888 335.036229 
L 134.545744 337.63673 
L 136.065109 340.237231 
L 137.718335 342.837732 
L 139.496909 345.438233 
L 141.383886 348.038734 
L 143.352693 350.639235 
L 145.366561 353.239736 
L 147.378736 355.840237 
L 149.333624 358.440737 
L 151.168903 361.041238 
L 152.818541 363.641739 
L 154.21654 366.24224 
L 155.301153 368.842741 
L 156.019185 371.443242 
L 156.33 374.043743 
L 156.208831 376.644244 
L 155.64903 379.244745 
L 154.663019 381.845246 
L 153.281812 384.445747 
z
" clip-path="url(#pe67b69d48b)" style="fill: #1f77b4; fill-opacity: 0.3"/>
   </g>
   <g id="FillBetweenPolyCollection_2">
    <path d="M 237.959321 384.177564 
L 175.140679 384.177564 
L 174.248448 381.098502 
L 173.597911 378.01944 
L 173.202647 374.940378 
L 173.07 371.861316 
L 173.200816 368.782254 
L 173.589452 365.703192 
L 174.224044 362.62413 
L 175.087025 359.545068 
L 176.155866 356.466006 
L 177.40398 353.386944 
L 178.801765 350.307882 
L 180.317705 347.22882 
L 181.919489 344.149757 
L 183.575097 341.070695 
L 185.253785 337.991633 
L 186.926959 334.912571 
L 188.568878 331.833509 
L 190.15719 328.754447 
L 191.673288 325.675385 
L 193.102476 322.596323 
L 194.433978 319.517261 
L 195.660787 316.438199 
L 196.779399 313.359137 
L 197.789443 310.280075 
L 198.693245 307.201013 
L 199.49535 304.121951 
L 200.202034 301.042889 
L 200.820821 297.963827 
L 201.360028 294.884765 
L 201.828353 291.805703 
L 202.234514 288.726641 
L 202.58695 285.647579 
L 202.893577 282.568517 
L 203.161611 279.489455 
L 203.397439 276.410393 
L 203.606556 273.331331 
L 203.79353 270.252269 
L 203.962026 267.173207 
L 204.114849 264.094145 
L 204.25402 261.015083 
L 204.380869 257.936021 
L 204.496143 254.856959 
L 204.600123 251.777897 
L 204.692744 248.698835 
L 204.773709 245.619773 
L 204.842608 242.540711 
L 204.899016 239.461649 
L 204.942592 236.382587 
L 204.973151 233.303525 
L 204.990732 230.224463 
L 204.995639 227.145401 
L 204.988466 224.066339 
L 204.970112 220.987277 
L 204.941767 217.908215 
L 204.904887 214.829153 
L 204.861159 211.750091 
L 204.812442 208.671029 
L 204.760713 205.591967 
L 204.707995 202.512905 
L 204.65629 199.433843 
L 204.607503 196.354781 
L 204.563382 193.275719 
L 204.525446 190.196657 
L 204.494939 187.117595 
L 204.472783 184.038533 
L 204.459543 180.959471 
L 204.45541 177.880409 
L 204.460197 174.801347 
L 204.473341 171.722285 
L 204.493932 168.643223 
L 204.520744 165.564161 
L 204.552284 162.485099 
L 204.586848 159.406037 
L 204.622592 156.326975 
L 204.657608 153.247913 
L 204.689997 150.168851 
L 204.717957 147.089788 
L 204.739861 144.010726 
L 204.754328 140.931664 
L 204.760299 137.852602 
L 204.757086 134.77354 
L 204.744419 131.694478 
L 204.722468 128.615416 
L 204.691858 125.536354 
L 204.653647 122.457292 
L 204.609304 119.37823 
L 204.56065 116.299168 
L 204.509799 113.220106 
L 204.459066 110.141044 
L 204.410882 107.061982 
L 204.367689 103.98292 
L 204.331844 100.903858 
L 204.305515 97.824796 
L 204.290596 94.745734 
L 204.288631 91.666672 
L 204.300747 88.58761 
L 204.327619 85.508548 
L 204.369449 82.429486 
L 204.425965 79.350424 
L 208.674035 79.350424 
L 208.674035 79.350424 
L 208.730551 82.429486 
L 208.772381 85.508548 
L 208.799253 88.58761 
L 208.811369 91.666672 
L 208.809404 94.745734 
L 208.794485 97.824796 
L 208.768156 100.903858 
L 208.732311 103.98292 
L 208.689118 107.061982 
L 208.640934 110.141044 
L 208.590201 113.220106 
L 208.53935 116.299168 
L 208.490696 119.37823 
L 208.446353 122.457292 
L 208.408142 125.536354 
L 208.377532 128.615416 
L 208.355581 131.694478 
L 208.342914 134.77354 
L 208.339701 137.852602 
L 208.345672 140.931664 
L 208.360139 144.010726 
L 208.382043 147.089788 
L 208.410003 150.168851 
L 208.442392 153.247913 
L 208.477408 156.326975 
L 208.513152 159.406037 
L 208.547716 162.485099 
L 208.579256 165.564161 
L 208.606068 168.643223 
L 208.626659 171.722285 
L 208.639803 174.801347 
L 208.64459 177.880409 
L 208.640457 180.959471 
L 208.627217 184.038533 
L 208.605061 187.117595 
L 208.574554 190.196657 
L 208.536618 193.275719 
L 208.492497 196.354781 
L 208.44371 199.433843 
L 208.392005 202.512905 
L 208.339287 205.591967 
L 208.287558 208.671029 
L 208.238841 211.750091 
L 208.195113 214.829153 
L 208.158233 217.908215 
L 208.129888 220.987277 
L 208.111534 224.066339 
L 208.104361 227.145401 
L 208.109268 230.224463 
L 208.126849 233.303525 
L 208.157408 236.382587 
L 208.200984 239.461649 
L 208.257392 242.540711 
L 208.326291 245.619773 
L 208.407256 248.698835 
L 208.499877 251.777897 
L 208.603857 254.856959 
L 208.719131 257.936021 
L 208.84598 261.015083 
L 208.985151 264.094145 
L 209.137974 267.173207 
L 209.30647 270.252269 
L 209.493444 273.331331 
L 209.702561 276.410393 
L 209.938389 279.489455 
L 210.206423 282.568517 
L 210.51305 285.647579 
L 210.865486 288.726641 
L 211.271647 291.805703 
L 211.739972 294.884765 
L 212.279179 297.963827 
L 212.897966 301.042889 
L 213.60465 304.121951 
L 214.406755 307.201013 
L 215.310557 310.280075 
L 216.320601 313.359137 
L 217.439213 316.438199 
L 218.666022 319.517261 
L 219.997524 322.596323 
L 221.426712 325.675385 
L 222.94281 328.754447 
L 224.531122 331.833509 
L 226.173041 334.912571 
L 227.846215 337.991633 
L 229.524903 341.070695 
L 231.180511 344.149757 
L 232.782295 347.22882 
L 234.298235 350.307882 
L 235.69602 353.386944 
L 236.944134 356.466006 
L 238.012975 359.545068 
L 238.875956 362.62413 
L 239.510548 365.703192 
L 239.899184 368.782254 
L 240.03 371.861316 
L 239.897353 374.940378 
L 239.502089 378.01944 
L 238.851552 381.098502 
L 237.959321 384.177564 
z
" clip-path="url(#pe67b69d48b)" style="fill: #1f77b4; fill-opacity: 0.3"/>
   </g>
   <g id="FillBetweenPolyCollection_3">
    <path d="M 304.505899 384.086863 
L 275.994101 384.086863 
L 274.745602 383.327996 
L 273.507662 382.569128 
L 272.291483 381.81026 
L 271.106773 381.051392 
L 269.9615 380.292524 
L 268.861772 379.533657 
L 267.811842 378.774789 
L 266.814237 378.015921 
L 265.869967 377.257053 
L 264.978804 376.498185 
L 264.139593 375.739318 
L 263.350562 374.98045 
L 262.609608 374.221582 
L 261.914549 373.462714 
L 261.263331 372.703846 
L 260.654186 371.944979 
L 260.085767 371.186111 
L 259.557242 370.427243 
L 259.068388 369.668375 
L 258.619663 368.909507 
L 258.212268 368.15064 
L 257.848191 367.391772 
L 257.530202 366.632904 
L 257.261806 365.874036 
L 257.047103 365.115168 
L 256.890578 364.356301 
L 256.79679 363.597433 
L 256.77 362.838565 
L 256.813739 362.079697 
L 256.930373 361.320829 
L 257.120709 360.561962 
L 257.383688 359.803094 
L 257.716207 359.044226 
L 258.11312 358.285358 
L 258.567403 357.52649 
L 259.070516 356.767623 
L 259.61289 356.008755 
L 260.184539 355.249887 
L 260.775698 354.491019 
L 261.377452 353.732151 
L 261.982279 352.973284 
L 262.584462 352.214416 
L 263.180324 351.455548 
L 263.768297 350.69668 
L 264.348796 349.937812 
L 264.923949 349.178945 
L 265.497213 348.420077 
L 266.072914 347.661209 
L 266.655777 346.902341 
L 267.25047 346.143473 
L 267.86122 345.384606 
L 268.491508 344.625738 
L 269.143868 343.86687 
L 269.819782 343.108002 
L 270.519672 342.349134 
L 271.242972 341.590267 
L 271.988248 340.831399 
L 272.753361 340.072531 
L 273.535646 339.313663 
L 274.332081 338.554795 
L 275.139442 337.795928 
L 275.954423 337.03706 
L 276.773721 336.278192 
L 277.594076 335.519324 
L 278.412276 334.760456 
L 279.225131 334.001589 
L 280.029421 333.242721 
L 280.82184 332.483853 
L 281.598945 331.724985 
L 282.357116 330.966117 
L 283.092556 330.20725 
L 283.80132 329.448382 
L 284.479382 328.689514 
L 285.122745 327.930646 
L 285.727567 327.171778 
L 286.290312 326.412911 
L 286.807902 325.654043 
L 287.277851 324.895175 
L 287.698388 324.136307 
L 288.068534 323.377439 
L 288.388152 322.618572 
L 288.657956 321.859704 
L 288.879482 321.100836 
L 289.055041 320.341968 
L 289.187637 319.5831 
L 289.280882 318.824233 
L 289.338896 318.065365 
L 289.366211 317.306497 
L 289.367662 316.547629 
L 289.348285 315.788761 
L 289.31321 315.029894 
L 289.267542 314.271026 
L 289.216245 313.512158 
L 289.164016 312.75329 
L 289.115159 311.994422 
L 289.073463 311.235555 
L 289.042087 310.476687 
L 289.023474 309.717819 
L 289.019283 308.958951 
L 291.480717 308.958951 
L 291.480717 308.958951 
L 291.476526 309.717819 
L 291.457913 310.476687 
L 291.426537 311.235555 
L 291.384841 311.994422 
L 291.335984 312.75329 
L 291.283755 313.512158 
L 291.232458 314.271026 
L 291.18679 315.029894 
L 291.151715 315.788761 
L 291.132338 316.547629 
L 291.133789 317.306497 
L 291.161104 318.065365 
L 291.219118 318.824233 
L 291.312363 319.5831 
L 291.444959 320.341968 
L 291.620518 321.100836 
L 291.842044 321.859704 
L 292.111848 322.618572 
L 292.431466 323.377439 
L 292.801612 324.136307 
L 293.222149 324.895175 
L 293.692098 325.654043 
L 294.209688 326.412911 
L 294.772433 327.171778 
L 295.377255 327.930646 
L 296.020618 328.689514 
L 296.69868 329.448382 
L 297.407444 330.20725 
L 298.142884 330.966117 
L 298.901055 331.724985 
L 299.67816 332.483853 
L 300.470579 333.242721 
L 301.274869 334.001589 
L 302.087724 334.760456 
L 302.905924 335.519324 
L 303.726279 336.278192 
L 304.545577 337.03706 
L 305.360558 337.795928 
L 306.167919 338.554795 
L 306.964354 339.313663 
L 307.746639 340.072531 
L 308.511752 340.831399 
L 309.257028 341.590267 
L 309.980328 342.349134 
L 310.680218 343.108002 
L 311.356132 343.86687 
L 312.008492 344.625738 
L 312.63878 345.384606 
L 313.24953 346.143473 
L 313.844223 346.902341 
L 314.427086 347.661209 
L 315.002787 348.420077 
L 315.576051 349.178945 
L 316.151204 349.937812 
L 316.731703 350.69668 
L 317.319676 351.455548 
L 317.915538 352.214416 
L 318.517721 352.973284 
L 319.122548 353.732151 
L 319.724302 354.491019 
L 320.315461 355.249887 
L 320.88711 356.008755 
L 321.429484 356.767623 
L 321.932597 357.52649 
L 322.38688 358.285358 
L 322.783793 359.044226 
L 323.116312 359.803094 
L 323.379291 360.561962 
L 323.569627 361.320829 
L 323.686261 362.079697 
L 323.73 362.838565 
L 323.70321 363.597433 
L 323.609422 364.356301 
L 323.452897 365.115168 
L 323.238194 365.874036 
L 322.969798 366.632904 
L 322.651809 367.391772 
L 322.287732 368.15064 
L 321.880337 368.909507 
L 321.431612 369.668375 
L 320.942758 370.427243 
L 320.414233 371.186111 
L 319.845814 371.944979 
L 319.236669 372.703846 
L 318.585451 373.462714 
L 317.890392 374.221582 
L 317.149438 374.98045 
L 316.360407 375.739318 
L 315.521196 376.498185 
L 314.630033 377.257053 
L 313.685763 378.015921 
L 312.688158 378.774789 
L 311.638228 379.533657 
L 310.5385 380.292524 
L 309.393227 381.051392 
L 308.208517 381.81026 
L 306.992338 382.569128 
L 305.754398 383.327996 
L 304.505899 384.086863 
z
" clip-path="url(#pe67b69d48b)" style="fill: #1f77b4; fill-opacity: 0.3"/>
   </g>
   <g id="FillBetweenPolyCollection_4">
    <path d="M 405.754518 384.27935 
L 342.145482 384.27935 
L 341.329574 381.511138 
L 340.771344 378.742927 
L 340.483001 375.974716 
L 340.47 373.206504 
L 340.730879 370.438293 
L 341.257387 367.670081 
L 342.034894 364.90187 
L 343.043059 362.133658 
L 344.256708 359.365447 
L 345.646875 356.597236 
L 347.181942 353.829024 
L 348.828818 351.060813 
L 350.554089 348.292601 
L 352.325105 345.52439 
L 354.110927 342.756179 
L 355.883129 339.987967 
L 357.616413 337.219756 
L 359.289038 334.451544 
L 360.883059 331.683333 
L 362.384388 328.915122 
L 363.782708 326.14691 
L 365.071247 323.378699 
L 366.246461 320.610487 
L 367.30764 317.842276 
L 368.25648 315.074064 
L 369.096633 312.305853 
L 369.833273 309.537642 
L 370.472685 306.76943 
L 371.021893 304.001219 
L 371.488336 301.233007 
L 371.879601 298.464796 
L 372.203206 295.696585 
L 372.466439 292.928373 
L 372.676237 290.160162 
L 372.839117 287.39195 
L 372.961133 284.623739 
L 373.047862 281.855528 
L 373.104419 279.087316 
L 373.135471 276.319105 
L 373.14527 273.550893 
L 373.137686 270.782682 
L 373.116232 268.014471 
L 373.084094 265.246259 
L 373.044148 262.478048 
L 372.998971 259.709836 
L 372.950845 256.941625 
L 372.901757 254.173413 
L 372.853395 251.405202 
L 372.807141 248.636991 
L 372.764065 245.868779 
L 372.724928 243.100568 
L 372.690184 240.332356 
L 372.659998 237.564145 
L 372.634266 234.795934 
L 372.61265 232.027722 
L 372.594618 229.259511 
L 372.579492 226.491299 
L 372.566503 223.723088 
L 372.554846 220.954877 
L 372.543728 218.186665 
L 372.532424 215.418454 
L 372.52031 212.650242 
L 372.506895 209.882031 
L 372.491841 207.113819 
L 372.474961 204.345608 
L 372.456217 201.577397 
L 372.435695 198.809185 
L 372.413577 196.040974 
L 372.390109 193.272762 
L 372.365559 190.504551 
L 372.340185 187.73634 
L 372.3142 184.968128 
L 372.287749 182.199917 
L 372.260899 179.431705 
L 372.233632 176.663494 
L 372.205856 173.895283 
L 372.177427 171.127071 
L 372.148179 168.35886 
L 372.117958 165.590648 
L 372.086662 162.822437 
L 372.054284 160.054226 
L 372.020944 157.286014 
L 371.986923 154.517803 
L 371.952674 151.749591 
L 371.918841 148.98138 
L 371.886244 146.213168 
L 371.855864 143.444957 
L 371.828815 140.676746 
L 371.806298 137.908534 
L 371.789554 135.140323 
L 371.779807 132.372111 
L 371.778207 129.6039 
L 371.785772 126.835689 
L 371.803337 124.067477 
L 371.831508 121.299266 
L 371.870629 118.531054 
L 371.920754 115.762843 
L 371.981643 112.994632 
L 372.052764 110.22642 
L 375.847236 110.22642 
L 375.847236 110.22642 
L 375.918357 112.994632 
L 375.979246 115.762843 
L 376.029371 118.531054 
L 376.068492 121.299266 
L 376.096663 124.067477 
L 376.114228 126.835689 
L 376.121793 129.6039 
L 376.120193 132.372111 
L 376.110446 135.140323 
L 376.093702 137.908534 
L 376.071185 140.676746 
L 376.044136 143.444957 
L 376.013756 146.213168 
L 375.981159 148.98138 
L 375.947326 151.749591 
L 375.913077 154.517803 
L 375.879056 157.286014 
L 375.845716 160.054226 
L 375.813338 162.822437 
L 375.782042 165.590648 
L 375.751821 168.35886 
L 375.722573 171.127071 
L 375.694144 173.895283 
L 375.666368 176.663494 
L 375.639101 179.431705 
L 375.612251 182.199917 
L 375.5858 184.968128 
L 375.559815 187.73634 
L 375.534441 190.504551 
L 375.509891 193.272762 
L 375.486423 196.040974 
L 375.464305 198.809185 
L 375.443783 201.577397 
L 375.425039 204.345608 
L 375.408159 207.113819 
L 375.393105 209.882031 
L 375.37969 212.650242 
L 375.367576 215.418454 
L 375.356272 218.186665 
L 375.345154 220.954877 
L 375.333497 223.723088 
L 375.320508 226.491299 
L 375.305382 229.259511 
L 375.28735 232.027722 
L 375.265734 234.795934 
L 375.240002 237.564145 
L 375.209816 240.332356 
L 375.175072 243.100568 
L 375.135935 245.868779 
L 375.092859 248.636991 
L 375.046605 251.405202 
L 374.998243 254.173413 
L 374.949155 256.941625 
L 374.901029 259.709836 
L 374.855852 262.478048 
L 374.815906 265.246259 
L 374.783768 268.014471 
L 374.762314 270.782682 
L 374.75473 273.550893 
L 374.764529 276.319105 
L 374.795581 279.087316 
L 374.852138 281.855528 
L 374.938867 284.623739 
L 375.060883 287.39195 
L 375.223763 290.160162 
L 375.433561 292.928373 
L 375.696794 295.696585 
L 376.020399 298.464796 
L 376.411664 301.233007 
L 376.878107 304.001219 
L 377.427315 306.76943 
L 378.066727 309.537642 
L 378.803367 312.305853 
L 379.64352 315.074064 
L 380.59236 317.842276 
L 381.653539 320.610487 
L 382.828753 323.378699 
L 384.117292 326.14691 
L 385.515612 328.915122 
L 387.016941 331.683333 
L 388.610962 334.451544 
L 390.283587 337.219756 
L 392.016871 339.987967 
L 393.789073 342.756179 
L 395.574895 345.52439 
L 397.345911 348.292601 
L 399.071182 351.060813 
L 400.718058 353.829024 
L 402.253125 356.597236 
L 403.643292 359.365447 
L 404.856941 362.133658 
L 405.865106 364.90187 
L 406.642613 367.670081 
L 407.169121 370.438293 
L 407.43 373.206504 
L 407.416999 375.974716 
L 407.128656 378.742927 
L 406.570426 381.511138 
L 405.754518 384.27935 
z
" clip-path="url(#pe67b69d48b)" style="fill: #1f77b4; fill-opacity: 0.3"/>
   </g>
   <g id="FillBetweenPolyCollection_5">
    <path d="M 489.838165 384.359166 
L 425.461835 384.359166 
L 424.810694 381.16037 
L 424.377757 377.961574 
L 424.17 374.762778 
L 424.18958 371.563982 
L 424.433807 368.365186 
L 424.895297 365.166391 
L 425.562293 361.967595 
L 426.419135 358.768799 
L 427.446855 355.570003 
L 428.623863 352.371207 
L 429.926692 349.172411 
L 431.330771 345.973615 
L 432.811182 342.774819 
L 434.343369 339.576023 
L 435.90379 336.377227 
L 437.470459 333.178431 
L 439.02339 329.979635 
L 440.544925 326.780839 
L 442.019939 323.582043 
L 443.435934 320.383248 
L 444.783033 317.184452 
L 446.053881 313.985656 
L 447.243472 310.78686 
L 448.348926 307.588064 
L 449.369224 304.389268 
L 450.304927 301.190472 
L 451.157891 297.991676 
L 451.930987 294.79288 
L 452.627844 291.594084 
L 453.252616 288.395288 
L 453.809783 285.196492 
L 454.30398 281.997696 
L 454.739865 278.7989 
L 455.122012 275.600104 
L 455.454841 272.401309 
L 455.742562 269.202513 
L 455.989146 266.003717 
L 456.198312 262.804921 
L 456.373522 259.606125 
L 456.517991 256.407329 
L 456.634695 253.208533 
L 456.726388 250.009737 
L 456.795616 246.810941 
L 456.844732 243.612145 
L 456.875911 240.413349 
L 456.89116 237.214553 
L 456.892328 234.015757 
L 456.881111 230.816961 
L 456.859058 227.618165 
L 456.827572 224.41937 
L 456.787914 221.220574 
L 456.741199 218.021778 
L 456.688404 214.822982 
L 456.630362 211.624186 
L 456.56777 208.42539 
L 456.501191 205.226594 
L 456.431066 202.027798 
L 456.357716 198.829002 
L 456.281365 195.630206 
L 456.20215 192.43141 
L 456.120147 189.232614 
L 456.035386 186.033818 
L 455.947882 182.835022 
L 455.85766 179.636227 
L 455.764778 176.437431 
L 455.669351 173.238635 
L 455.571579 170.039839 
L 455.471761 166.841043 
L 455.370308 163.642247 
L 455.267759 160.443451 
L 455.164776 157.244655 
L 455.062143 154.045859 
L 454.960757 150.847063 
L 454.861609 147.648267 
L 454.765765 144.449471 
L 454.674338 141.250675 
L 454.588458 138.051879 
L 454.509246 134.853083 
L 454.437778 131.654288 
L 454.375061 128.455492 
L 454.322004 125.256696 
L 454.2794 122.0579 
L 454.247904 118.859104 
L 454.228027 115.660308 
L 454.220127 112.461512 
L 454.224407 109.262716 
L 454.240923 106.06392 
L 454.269587 102.865124 
L 454.310178 99.666328 
L 454.362353 96.467532 
L 454.425662 93.268736 
L 454.499555 90.06994 
L 454.583397 86.871144 
L 454.676476 83.672349 
L 454.778011 80.473553 
L 454.887161 77.274757 
L 455.003031 74.075961 
L 455.124675 70.877165 
L 455.251108 67.678369 
L 460.048892 67.678369 
L 460.048892 67.678369 
L 460.175325 70.877165 
L 460.296969 74.075961 
L 460.412839 77.274757 
L 460.521989 80.473553 
L 460.623524 83.672349 
L 460.716603 86.871144 
L 460.800445 90.06994 
L 460.874338 93.268736 
L 460.937647 96.467532 
L 460.989822 99.666328 
L 461.030413 102.865124 
L 461.059077 106.06392 
L 461.075593 109.262716 
L 461.079873 112.461512 
L 461.071973 115.660308 
L 461.052096 118.859104 
L 461.0206 122.0579 
L 460.977996 125.256696 
L 460.924939 128.455492 
L 460.862222 131.654288 
L 460.790754 134.853083 
L 460.711542 138.051879 
L 460.625662 141.250675 
L 460.534235 144.449471 
L 460.438391 147.648267 
L 460.339243 150.847063 
L 460.237857 154.045859 
L 460.135224 157.244655 
L 460.032241 160.443451 
L 459.929692 163.642247 
L 459.828239 166.841043 
L 459.728421 170.039839 
L 459.630649 173.238635 
L 459.535222 176.437431 
L 459.44234 179.636227 
L 459.352118 182.835022 
L 459.264614 186.033818 
L 459.179853 189.232614 
L 459.09785 192.43141 
L 459.018635 195.630206 
L 458.942284 198.829002 
L 458.868934 202.027798 
L 458.798809 205.226594 
L 458.73223 208.42539 
L 458.669638 211.624186 
L 458.611596 214.822982 
L 458.558801 218.021778 
L 458.512086 221.220574 
L 458.472428 224.41937 
L 458.440942 227.618165 
L 458.418889 230.816961 
L 458.407672 234.015757 
L 458.40884 237.214553 
L 458.424089 240.413349 
L 458.455268 243.612145 
L 458.504384 246.810941 
L 458.573612 250.009737 
L 458.665305 253.208533 
L 458.782009 256.407329 
L 458.926478 259.606125 
L 459.101688 262.804921 
L 459.310854 266.003717 
L 459.557438 269.202513 
L 459.845159 272.401309 
L 460.177988 275.600104 
L 460.560135 278.7989 
L 460.99602 281.997696 
L 461.490217 285.196492 
L 462.047384 288.395288 
L 462.672156 291.594084 
L 463.369013 294.79288 
L 464.142109 297.991676 
L 464.995073 301.190472 
L 465.930776 304.389268 
L 466.951074 307.588064 
L 468.056528 310.78686 
L 469.246119 313.985656 
L 470.516967 317.184452 
L 471.864066 320.383248 
L 473.280061 323.582043 
L 474.755075 326.780839 
L 476.27661 329.979635 
L 477.829541 333.178431 
L 479.39621 336.377227 
L 480.956631 339.576023 
L 482.488818 342.774819 
L 483.969229 345.973615 
L 485.373308 349.172411 
L 486.676137 352.371207 
L 487.853145 355.570003 
L 488.880865 358.768799 
L 489.737707 361.967595 
L 490.404703 365.166391 
L 490.866193 368.365186 
L 491.11042 371.563982 
L 491.13 374.762778 
L 490.922243 377.961574 
L 490.489306 381.16037 
L 489.838165 384.359166 
z
" clip-path="url(#pe67b69d48b)" style="fill: #1f77b4; fill-opacity: 0.3"/>
   </g>
   <g id="FillBetweenPolyCollection_6">
    <path d="M 572.522605 383.716626 
L 510.177395 383.716626 
L 509.193198 380.558252 
L 508.470401 377.399879 
L 508.026102 374.241505 
L 507.87 371.083131 
L 508.003984 367.924758 
L 508.422083 364.766384 
L 509.110753 361.608011 
L 510.049512 358.449637 
L 511.211856 355.291263 
L 512.566412 352.13289 
L 514.078257 348.974516 
L 515.710325 345.816142 
L 517.424824 342.657769 
L 519.184591 339.499395 
L 520.95432 336.341021 
L 522.701609 333.182648 
L 524.397785 330.024274 
L 526.018507 326.8659 
L 527.54411 323.707527 
L 528.959727 320.549153 
L 530.255202 317.39078 
L 531.424819 314.232406 
L 532.466894 311.074032 
L 533.383264 307.915659 
L 534.178711 304.757285 
L 534.860364 301.598911 
L 535.437105 298.440538 
L 535.918998 295.282164 
L 536.316778 292.12379 
L 536.641403 288.965417 
L 536.903665 285.807043 
L 537.11389 282.64867 
L 537.281698 279.490296 
L 537.415836 276.331922 
L 537.524072 273.173549 
L 537.613143 270.015175 
L 537.688745 266.856801 
L 537.755567 263.698428 
L 537.817346 260.540054 
L 537.876958 257.38168 
L 537.936506 254.223307 
L 537.997434 251.064933 
L 538.060639 247.906559 
L 538.126574 244.748186 
L 538.195362 241.589812 
L 538.266887 238.431439 
L 538.340882 235.273065 
L 538.417002 232.114691 
L 538.494884 228.956318 
L 538.574189 225.797944 
L 538.654635 222.63957 
L 538.736009 219.481197 
L 538.818173 216.322823 
L 538.901055 213.164449 
L 538.984629 210.006076 
L 539.068894 206.847702 
L 539.153843 203.689328 
L 539.23943 200.530955 
L 539.325542 197.372581 
L 539.411966 194.214208 
L 539.498373 191.055834 
L 539.584293 187.89746 
L 539.669114 184.739087 
L 539.752083 181.580713 
L 539.832311 178.422339 
L 539.9088 175.263966 
L 539.98047 172.105592 
L 540.04619 168.947218 
L 540.104825 165.788845 
L 540.155277 162.630471 
L 540.196526 159.472097 
L 540.227678 156.313724 
L 540.248004 153.15535 
L 540.256969 149.996977 
L 540.254267 146.838603 
L 540.239838 143.680229 
L 540.213882 140.521856 
L 540.176866 137.363482 
L 540.129525 134.205108 
L 540.072849 131.046735 
L 540.008076 127.888361 
L 539.936664 124.729987 
L 539.860274 121.571614 
L 539.780733 118.41324 
L 539.700002 115.254867 
L 539.620132 112.096493 
L 539.543221 108.938119 
L 539.471363 105.779746 
L 539.406596 102.621372 
L 539.350841 99.462998 
L 539.305854 96.304625 
L 539.273163 93.146251 
L 539.25402 89.987877 
L 539.249355 86.829504 
L 539.259744 83.67113 
L 539.285378 80.512756 
L 539.326059 77.354383 
L 539.381201 74.196009 
L 539.449849 71.037636 
L 543.250151 71.037636 
L 543.250151 71.037636 
L 543.318799 74.196009 
L 543.373941 77.354383 
L 543.414622 80.512756 
L 543.440256 83.67113 
L 543.450645 86.829504 
L 543.44598 89.987877 
L 543.426837 93.146251 
L 543.394146 96.304625 
L 543.349159 99.462998 
L 543.293404 102.621372 
L 543.228637 105.779746 
L 543.156779 108.938119 
L 543.079868 112.096493 
L 542.999998 115.254867 
L 542.919267 118.41324 
L 542.839726 121.571614 
L 542.763336 124.729987 
L 542.691924 127.888361 
L 542.627151 131.046735 
L 542.570475 134.205108 
L 542.523134 137.363482 
L 542.486118 140.521856 
L 542.460162 143.680229 
L 542.445733 146.838603 
L 542.443031 149.996977 
L 542.451996 153.15535 
L 542.472322 156.313724 
L 542.503474 159.472097 
L 542.544723 162.630471 
L 542.595175 165.788845 
L 542.65381 168.947218 
L 542.71953 172.105592 
L 542.7912 175.263966 
L 542.867689 178.422339 
L 542.947917 181.580713 
L 543.030886 184.739087 
L 543.115707 187.89746 
L 543.201627 191.055834 
L 543.288034 194.214208 
L 543.374458 197.372581 
L 543.46057 200.530955 
L 543.546157 203.689328 
L 543.631106 206.847702 
L 543.715371 210.006076 
L 543.798945 213.164449 
L 543.881827 216.322823 
L 543.963991 219.481197 
L 544.045365 222.63957 
L 544.125811 225.797944 
L 544.205116 228.956318 
L 544.282998 232.114691 
L 544.359118 235.273065 
L 544.433113 238.431439 
L 544.504638 241.589812 
L 544.573426 244.748186 
L 544.639361 247.906559 
L 544.702566 251.064933 
L 544.763494 254.223307 
L 544.823042 257.38168 
L 544.882654 260.540054 
L 544.944433 263.698428 
L 545.011255 266.856801 
L 545.086857 270.015175 
L 545.175928 273.173549 
L 545.284164 276.331922 
L 545.418302 279.490296 
L 545.58611 282.64867 
L 545.796335 285.807043 
L 546.058597 288.965417 
L 546.383222 292.12379 
L 546.781002 295.282164 
L 547.262895 298.440538 
L 547.839636 301.598911 
L 548.521289 304.757285 
L 549.316736 307.915659 
L 550.233106 311.074032 
L 551.275181 314.232406 
L 552.444798 317.39078 
L 553.740273 320.549153 
L 555.15589 323.707527 
L 556.681493 326.8659 
L 558.302215 330.024274 
L 559.998391 333.182648 
L 561.74568 336.341021 
L 563.515409 339.499395 
L 565.275176 342.657769 
L 566.989675 345.816142 
L 568.621743 348.974516 
L 570.133588 352.13289 
L 571.488144 355.291263 
L 572.650488 358.449637 
L 573.589247 361.608011 
L 574.277917 364.766384 
L 574.696016 367.924758 
L 574.83 371.083131 
L 574.673898 374.241505 
L 574.229599 377.399879 
L 573.506802 380.558252 
L 572.522605 383.716626 
z
" clip-path="url(#pe67b69d48b)" style="fill: #1f77b4; fill-opacity: 0.3"/>
   </g>
   <g id="matplotlib.axis_1">
    <g id="xtick_1">
     <g id="line2d_1">
      <defs>
       <path id="mfdb01d554f" d="M 0 0 
L 0 3.5 
" style="stroke: #000000; stroke-width: 0.8"/>
      </defs>
      <g>
       <use xlink:href="#mfdb01d554f" x="122.85" y="384.48" style="stroke: #000000; stroke-width: 0.8"/>
      </g>
     </g>
     <g id="text_1">
      <!-- Arrow -->
      <g transform="translate(111.26625 397.55875) scale(0.08 -0.08)">
       <defs>
        <path id="DejaVuSans-41" d="M 2188 4044 
L 1331 1722 
L 3047 1722 
L 2188 4044 
z
M 1831 4666 
L 2547 4666 
L 4325 0 
L 3669 0 
L 3244 1197 
L 1141 1197 
L 716 0 
L 50 0 
L 1831 4666 
z
" transform="scale(0.015625)"/>
        <path id="DejaVuSans-72" d="M 2631 2963 
Q 2534 3019 2420 3045 
Q 2306 3072 2169 3072 
Q 1681 3072 1420 2755 
Q 1159 2438 1159 1844 
L 1159 0 
L 581 0 
L 581 3500 
L 1159 3500 
L 1159 2956 
Q 1341 3275 1631 3429 
Q 1922 3584 2338 3584 
Q 2397 3584 2469 3576 
Q 2541 3569 2628 3553 
L 2631 2963 
z
" transform="scale(0.015625)"/>
        <path id="DejaVuSans-6f" d="M 1959 3097 
Q 1497 3097 1228 2736 
Q 959 2375 959 1747 
Q 959 1119 1226 758 
Q 1494 397 1959 397 
Q 2419 397 2687 759 
Q 2956 1122 2956 1747 
Q 2956 2369 2687 2733 
Q 2419 3097 1959 3097 
z
M 1959 3584 
Q 2709 3584 3137 3096 
Q 3566 2609 3566 1747 
Q 3566 888 3137 398 
Q 2709 -91 1959 -91 
Q 1206 -91 779 398 
Q 353 888 353 1747 
Q 353 2609 779 3096 
Q 1206 3584 1959 3584 
z
" transform="scale(0.015625)"/>
        <path id="DejaVuSans-77" d="M 269 3500 
L 844 3500 
L 1563 769 
L 2278 3500 
L 2956 3500 
L 3675 769 
L 4391 3500 
L 4966 3500 
L 4050 0 
L 3372 0 
L 2619 2869 
L 1863 0 
L 1184 0 
L 269 3500 
z
" transform="scale(0.015625)"/>
       </defs>
       <use xlink:href="#DejaVuSans-41"/>
       <use xlink:href="#DejaVuSans-72" transform="translate(68.408203 0)"/>
       <use xlink:href="#DejaVuSans-72" transform="translate(107.771484 0)"/>
       <use xlink:href="#DejaVuSans-6f" transform="translate(146.634766 0)"/>
       <use xlink:href="#DejaVuSans-77" transform="translate(207.816406 0)"/>
      </g>
     </g>
    </g>
    <g id="xtick_2">
     <g id="line2d_2">
      <g>
       <use xlink:href="#mfdb01d554f" x="206.55" y="384.48" style="stroke: #000000; stroke-width: 0.8"/>
      </g>
     </g>
     <g id="text_2">
      <!-- Radar -->
      <g transform="translate(194.774375 397.55875) scale(0.08 -0.08)">
       <defs>
        <path id="DejaVuSans-52" d="M 2841 2188 
Q 3044 2119 3236 1894 
Q 3428 1669 3622 1275 
L 4263 0 
L 3584 0 
L 2988 1197 
Q 2756 1666 2539 1819 
Q 2322 1972 1947 1972 
L 1259 1972 
L 1259 0 
L 628 0 
L 628 4666 
L 2053 4666 
Q 2853 4666 3247 4331 
Q 3641 3997 3641 3322 
Q 3641 2881 3436 2590 
Q 3231 2300 2841 2188 
z
M 1259 4147 
L 1259 2491 
L 2053 2491 
Q 2509 2491 2742 2702 
Q 2975 2913 2975 3322 
Q 2975 3731 2742 3939 
Q 2509 4147 2053 4147 
L 1259 4147 
z
" transform="scale(0.015625)"/>
        <path id="DejaVuSans-61" d="M 2194 1759 
Q 1497 1759 1228 1600 
Q 959 1441 959 1056 
Q 959 750 1161 570 
Q 1363 391 1709 391 
Q 2188 391 2477 730 
Q 2766 1069 2766 1631 
L 2766 1759 
L 2194 1759 
z
M 3341 1997 
L 3341 0 
L 2766 0 
L 2766 531 
Q 2569 213 2275 61 
Q 1981 -91 1556 -91 
Q 1019 -91 701 211 
Q 384 513 384 1019 
Q 384 1609 779 1909 
Q 1175 2209 1959 2209 
L 2766 2209 
L 2766 2266 
Q 2766 2663 2505 2880 
Q 2244 3097 1772 3097 
Q 1472 3097 1187 3025 
Q 903 2953 641 2809 
L 641 3341 
Q 956 3463 1253 3523 
Q 1550 3584 1831 3584 
Q 2591 3584 2966 3190 
Q 3341 2797 3341 1997 
z
" transform="scale(0.015625)"/>
        <path id="DejaVuSans-64" d="M 2906 2969 
L 2906 4863 
L 3481 4863 
L 3481 0 
L 2906 0 
L 2906 525 
Q 2725 213 2448 61 
Q 2172 -91 1784 -91 
Q 1150 -91 751 415 
Q 353 922 353 1747 
Q 353 2572 751 3078 
Q 1150 3584 1784 3584 
Q 2172 3584 2448 3432 
Q 2725 3281 2906 2969 
z
M 947 1747 
Q 947 1113 1208 752 
Q 1469 391 1925 391 
Q 2381 391 2643 752 
Q 2906 1113 2906 1747 
Q 2906 2381 2643 2742 
Q 2381 3103 1925 3103 
Q 1469 3103 1208 2742 
Q 947 2381 947 1747 
z
" transform="scale(0.015625)"/>
       </defs>
       <use xlink:href="#DejaVuSans-52"/>
       <use xlink:href="#DejaVuSans-61" transform="translate(67.232422 0)"/>
       <use xlink:href="#DejaVuSans-64" transform="translate(128.511719 0)"/>
       <use xlink:href="#DejaVuSans-61" transform="translate(191.988281 0)"/>
       <use xlink:href="#DejaVuSans-72" transform="translate(253.267578 0)"/>
      </g>
     </g>
    </g>
    <g id="xtick_3">
     <g id="line2d_3">
      <g>
       <use xlink:href="#mfdb01d554f" x="290.25" y="384.48" style="stroke: #000000; stroke-width: 0.8"/>
      </g>
     </g>
     <g id="text_3">
      <!-- Lights -->
      <g transform="translate(278.18375 397.55875) scale(0.08 -0.08)">
       <defs>
        <path id="DejaVuSans-4c" d="M 628 4666 
L 1259 4666 
L 1259 531 
L 3531 531 
L 3531 0 
L 628 0 
L 628 4666 
z
" transform="scale(0.015625)"/>
        <path id="DejaVuSans-69" d="M 603 3500 
L 1178 3500 
L 1178 0 
L 603 0 
L 603 3500 
z
M 603 4863 
L 1178 4863 
L 1178 4134 
L 603 4134 
L 603 4863 
z
" transform="scale(0.015625)"/>
        <path id="DejaVuSans-67" d="M 2906 1791 
Q 2906 2416 2648 2759 
Q 2391 3103 1925 3103 
Q 1463 3103 1205 2759 
Q 947 2416 947 1791 
Q 947 1169 1205 825 
Q 1463 481 1925 481 
Q 2391 481 2648 825 
Q 2906 1169 2906 1791 
z
M 3481 434 
Q 3481 -459 3084 -895 
Q 2688 -1331 1869 -1331 
Q 1566 -1331 1297 -1286 
Q 1028 -1241 775 -1147 
L 775 -588 
Q 1028 -725 1275 -790 
Q 1522 -856 1778 -856 
Q 2344 -856 2625 -561 
Q 2906 -266 2906 331 
L 2906 616 
Q 2728 306 2450 153 
Q 2172 0 1784 0 
Q 1141 0 747 490 
Q 353 981 353 1791 
Q 353 2603 747 3093 
Q 1141 3584 1784 3584 
Q 2172 3584 2450 3431 
Q 2728 3278 2906 2969 
L 2906 3500 
L 3481 3500 
L 3481 434 
z
" transform="scale(0.015625)"/>
        <path id="DejaVuSans-68" d="M 3513 2113 
L 3513 0 
L 2938 0 
L 2938 2094 
Q 2938 2591 2744 2837 
Q 2550 3084 2163 3084 
Q 1697 3084 1428 2787 
Q 1159 2491 1159 1978 
L 1159 0 
L 581 0 
L 581 4863 
L 1159 4863 
L 1159 2956 
Q 1366 3272 1645 3428 
Q 1925 3584 2291 3584 
Q 2894 3584 3203 3211 
Q 3513 2838 3513 2113 
z
" transform="scale(0.015625)"/>
        <path id="DejaVuSans-74" d="M 1172 4494 
L 1172 3500 
L 2356 3500 
L 2356 3053 
L 1172 3053 
L 1172 1153 
Q 1172 725 1289 603 
Q 1406 481 1766 481 
L 2356 481 
L 2356 0 
L 1766 0 
Q 1100 0 847 248 
Q 594 497 594 1153 
L 594 3053 
L 172 3053 
L 172 3500 
L 594 3500 
L 594 4494 
L 1172 4494 
z
" transform="scale(0.015625)"/>
        <path id="DejaVuSans-73" d="M 2834 3397 
L 2834 2853 
Q 2591 2978 2328 3040 
Q 2066 3103 1784 3103 
Q 1356 3103 1142 2972 
Q 928 2841 928 2578 
Q 928 2378 1081 2264 
Q 1234 2150 1697 2047 
L 1894 2003 
Q 2506 1872 2764 1633 
Q 3022 1394 3022 966 
Q 3022 478 2636 193 
Q 2250 -91 1575 -91 
Q 1294 -91 989 -36 
Q 684 19 347 128 
L 347 722 
Q 666 556 975 473 
Q 1284 391 1588 391 
Q 1994 391 2212 530 
Q 2431 669 2431 922 
Q 2431 1156 2273 1281 
Q 2116 1406 1581 1522 
L 1381 1569 
Q 847 1681 609 1914 
Q 372 2147 372 2553 
Q 372 3047 722 3315 
Q 1072 3584 1716 3584 
Q 2034 3584 2315 3537 
Q 2597 3491 2834 3397 
z
" transform="scale(0.015625)"/>
       </defs>
       <use xlink:href="#DejaVuSans-4c"/>
       <use xlink:href="#DejaVuSans-69" transform="translate(55.712891 0)"/>
       <use xlink:href="#DejaVuSans-67" transform="translate(83.496094 0)"/>
       <use xlink:href="#DejaVuSans-68" transform="translate(146.972656 0)"/>
       <use xlink:href="#DejaVuSans-74" transform="translate(210.351562 0)"/>
       <use xlink:href="#DejaVuSans-73" transform="translate(249.560547 0)"/>
      </g>
     </g>
    </g>
    <g id="xtick_4">
     <g id="line2d_4">
      <g>
       <use xlink:href="#mfdb01d554f" x="373.95" y="384.48" style="stroke: #000000; stroke-width: 0.8"/>
      </g>
     </g>
     <g id="text_4">
      <!-- Arrow &amp; Radar -->
      <g transform="translate(344.92875 397.55875) scale(0.08 -0.08)">
       <defs>
        <path id="DejaVuSans-20" transform="scale(0.015625)"/>
        <path id="DejaVuSans-26" d="M 1556 2509 
Q 1272 2256 1139 2004 
Q 1006 1753 1006 1478 
Q 1006 1022 1337 719 
Q 1669 416 2169 416 
Q 2466 416 2725 514 
Q 2984 613 3213 813 
L 1556 2509 
z
M 1997 2859 
L 3584 1234 
Q 3769 1513 3872 1830 
Q 3975 2147 3994 2503 
L 4575 2503 
Q 4538 2091 4375 1687 
Q 4213 1284 3922 891 
L 4794 0 
L 4006 0 
L 3559 459 
Q 3234 181 2878 45 
Q 2522 -91 2113 -91 
Q 1359 -91 881 339 
Q 403 769 403 1441 
Q 403 1841 612 2192 
Q 822 2544 1241 2853 
Q 1091 3050 1012 3245 
Q 934 3441 934 3628 
Q 934 4134 1281 4442 
Q 1628 4750 2203 4750 
Q 2463 4750 2720 4694 
Q 2978 4638 3244 4525 
L 3244 3956 
Q 2972 4103 2725 4179 
Q 2478 4256 2266 4256 
Q 1938 4256 1733 4082 
Q 1528 3909 1528 3634 
Q 1528 3475 1620 3314 
Q 1713 3153 1997 2859 
z
" transform="scale(0.015625)"/>
       </defs>
       <use xlink:href="#DejaVuSans-41"/>
       <use xlink:href="#DejaVuSans-72" transform="translate(68.408203 0)"/>
       <use xlink:href="#DejaVuSans-72" transform="translate(107.771484 0)"/>
       <use xlink:href="#DejaVuSans-6f" transform="translate(146.634766 0)"/>
       <use xlink:href="#DejaVuSans-77" transform="translate(207.816406 0)"/>
       <use xlink:href="#DejaVuSans-20" transform="translate(289.603516 0)"/>
       <use xlink:href="#DejaVuSans-26" transform="translate(321.390625 0)"/>
       <use xlink:href="#DejaVuSans-20" transform="translate(399.369141 0)"/>
       <use xlink:href="#DejaVuSans-52" transform="translate(431.15625 0)"/>
       <use xlink:href="#DejaVuSans-61" transform="translate(498.388672 0)"/>
       <use xlink:href="#DejaVuSans-64" transform="translate(559.667969 0)"/>
       <use xlink:href="#DejaVuSans-61" transform="translate(623.144531 0)"/>
       <use xlink:href="#DejaVuSans-72" transform="translate(684.423828 0)"/>
      </g>
     </g>
    </g>
    <g id="xtick_5">
     <g id="line2d_5">
      <g>
       <use xlink:href="#mfdb01d554f" x="457.65" y="384.48" style="stroke: #000000; stroke-width: 0.8"/>
      </g>
     </g>
     <g id="text_5">
      <!-- Arrow &amp; Lights -->
      <g transform="translate(428.338125 397.55875) scale(0.08 -0.08)">
       <use xlink:href="#DejaVuSans-41"/>
       <use xlink:href="#DejaVuSans-72" transform="translate(68.408203 0)"/>
       <use xlink:href="#DejaVuSans-72" transform="translate(107.771484 0)"/>
       <use xlink:href="#DejaVuSans-6f" transform="translate(146.634766 0)"/>
       <use xlink:href="#DejaVuSans-77" transform="translate(207.816406 0)"/>
       <use xlink:href="#DejaVuSans-20" transform="translate(289.603516 0)"/>
       <use xlink:href="#DejaVuSans-26" transform="translate(321.390625 0)"/>
       <use xlink:href="#DejaVuSans-20" transform="translate(399.369141 0)"/>
       <use xlink:href="#DejaVuSans-4c" transform="translate(431.15625 0)"/>
       <use xlink:href="#DejaVuSans-69" transform="translate(486.869141 0)"/>
       <use xlink:href="#DejaVuSans-67" transform="translate(514.652344 0)"/>
       <use xlink:href="#DejaVuSans-68" transform="translate(578.128906 0)"/>
       <use xlink:href="#DejaVuSans-74" transform="translate(641.507812 0)"/>
       <use xlink:href="#DejaVuSans-73" transform="translate(680.716797 0)"/>
      </g>
     </g>
    </g>
    <g id="xtick_6">
     <g id="line2d_6">
      <g>
       <use xlink:href="#mfdb01d554f" x="541.35" y="384.48" style="stroke: #000000; stroke-width: 0.8"/>
      </g>
     </g>
     <g id="text_6">
      <!-- Lights &amp; Radar -->
      <g transform="translate(511.84625 397.55875) scale(0.08 -0.08)">
       <use xlink:href="#DejaVuSans-4c"/>
       <use xlink:href="#DejaVuSans-69" transform="translate(55.712891 0)"/>
       <use xlink:href="#DejaVuSans-67" transform="translate(83.496094 0)"/>
       <use xlink:href="#DejaVuSans-68" transform="translate(146.972656 0)"/>
       <use xlink:href="#DejaVuSans-74" transform="translate(210.351562 0)"/>
       <use xlink:href="#DejaVuSans-73" transform="translate(249.560547 0)"/>
       <use xlink:href="#DejaVuSans-20" transform="translate(301.660156 0)"/>
       <use xlink:href="#DejaVuSans-26" transform="translate(333.447266 0)"/>
       <use xlink:href="#DejaVuSans-20" transform="translate(411.425781 0)"/>
       <use xlink:href="#DejaVuSans-52" transform="translate(443.212891 0)"/>
       <use xlink:href="#DejaVuSans-61" transform="translate(510.445312 0)"/>
       <use xlink:href="#DejaVuSans-64" transform="translate(571.724609 0)"/>
       <use xlink:href="#DejaVuSans-61" transform="translate(635.201172 0)"/>
       <use xlink:href="#DejaVuSans-72" transform="translate(696.480469 0)"/>
      </g>
     </g>
    </g>
    <g id="text_7">
     <!-- Visualization -->
     <g transform="translate(300.521875 416.820938) scale(0.1 -0.1)">
      <defs>
       <path id="DejaVuSans-56" d="M 1831 0 
L 50 4666 
L 709 4666 
L 2188 738 
L 3669 4666 
L 4325 4666 
L 2547 0 
L 1831 0 
z
" transform="scale(0.015625)"/>
       <path id="DejaVuSans-75" d="M 544 1381 
L 544 3500 
L 1119 3500 
L 1119 1403 
Q 1119 906 1312 657 
Q 1506 409 1894 409 
Q 2359 409 2629 706 
Q 2900 1003 2900 1516 
L 2900 3500 
L 3475 3500 
L 3475 0 
L 2900 0 
L 2900 538 
Q 2691 219 2414 64 
Q 2138 -91 1772 -91 
Q 1169 -91 856 284 
Q 544 659 544 1381 
z
M 1991 3584 
L 1991 3584 
z
" transform="scale(0.015625)"/>
       <path id="DejaVuSans-6c" d="M 603 4863 
L 1178 4863 
L 1178 0 
L 603 0 
L 603 4863 
z
" transform="scale(0.015625)"/>
       <path id="DejaVuSans-7a" d="M 353 3500 
L 3084 3500 
L 3084 2975 
L 922 459 
L 3084 459 
L 3084 0 
L 275 0 
L 275 525 
L 2438 3041 
L 353 3041 
L 353 3500 
z
" transform="scale(0.015625)"/>
       <path id="DejaVuSans-6e" d="M 3513 2113 
L 3513 0 
L 2938 0 
L 2938 2094 
Q 2938 2591 2744 2837 
Q 2550 3084 2163 3084 
Q 1697 3084 1428 2787 
Q 1159 2491 1159 1978 
L 1159 0 
L 581 0 
L 581 3500 
L 1159 3500 
L 1159 2956 
Q 1366 3272 1645 3428 
Q 1925 3584 2291 3584 
Q 2894 3584 3203 3211 
Q 3513 2838 3513 2113 
z
" transform="scale(0.015625)"/>
      </defs>
      <use xlink:href="#DejaVuSans-56"/>
      <use xlink:href="#DejaVuSans-69" transform="translate(66.158203 0)"/>
      <use xlink:href="#DejaVuSans-73" transform="translate(93.941406 0)"/>
      <use xlink:href="#DejaVuSans-75" transform="translate(146.041016 0)"/>
      <use xlink:href="#DejaVuSans-61" transform="translate(209.419922 0)"/>
      <use xlink:href="#DejaVuSans-6c" transform="translate(270.699219 0)"/>
      <use xlink:href="#DejaVuSans-69" transform="translate(298.482422 0)"/>
      <use xlink:href="#DejaVuSans-7a" transform="translate(326.265625 0)"/>
      <use xlink:href="#DejaVuSans-61" transform="translate(378.755859 0)"/>
      <use xlink:href="#DejaVuSans-74" transform="translate(440.035156 0)"/>
      <use xlink:href="#DejaVuSans-69" transform="translate(479.244141 0)"/>
      <use xlink:href="#DejaVuSans-6f" transform="translate(507.027344 0)"/>
      <use xlink:href="#DejaVuSans-6e" transform="translate(568.208984 0)"/>
     </g>
    </g>
   </g>
   <g id="matplotlib.axis_2">
    <g id="ytick_1">
     <g id="line2d_7">
      <defs>
       <path id="m5aa64d7170" d="M 0 0 
L -3.5 0 
" style="stroke: #000000; stroke-width: 0.8"/>
      </defs>
      <g>
       <use xlink:href="#m5aa64d7170" x="81" y="384.48" style="stroke: #000000; stroke-width: 0.8"/>
      </g>
     </g>
     <g id="text_8">
      <!-- 0 -->
      <g transform="translate(67.6375 388.279219) scale(0.1 -0.1)">
       <defs>
        <path id="DejaVuSans-30" d="M 2034 4250 
Q 1547 4250 1301 3770 
Q 1056 3291 1056 2328 
Q 1056 1369 1301 889 
Q 1547 409 2034 409 
Q 2525 409 2770 889 
Q 3016 1369 3016 2328 
Q 3016 3291 2770 3770 
Q 2525 4250 2034 4250 
z
M 2034 4750 
Q 2819 4750 3233 4129 
Q 3647 3509 3647 2328 
Q 3647 1150 3233 529 
Q 2819 -91 2034 -91 
Q 1250 -91 836 529 
Q 422 1150 422 2328 
Q 422 3509 836 4129 
Q 1250 4750 2034 4750 
z
" transform="scale(0.015625)"/>
       </defs>
       <use xlink:href="#DejaVuSans-30"/>
      </g>
     </g>
    </g>
    <g id="ytick_2">
     <g id="line2d_8">
      <g>
       <use xlink:href="#m5aa64d7170" x="81" y="340.150802" style="stroke: #000000; stroke-width: 0.8"/>
      </g>
     </g>
     <g id="text_9">
      <!-- 25 -->
      <g transform="translate(61.275 343.95002) scale(0.1 -0.1)">
       <defs>
        <path id="DejaVuSans-32" d="M 1228 531 
L 3431 531 
L 3431 0 
L 469 0 
L 469 531 
Q 828 903 1448 1529 
Q 2069 2156 2228 2338 
Q 2531 2678 2651 2914 
Q 2772 3150 2772 3378 
Q 2772 3750 2511 3984 
Q 2250 4219 1831 4219 
Q 1534 4219 1204 4116 
Q 875 4013 500 3803 
L 500 4441 
Q 881 4594 1212 4672 
Q 1544 4750 1819 4750 
Q 2544 4750 2975 4387 
Q 3406 4025 3406 3419 
Q 3406 3131 3298 2873 
Q 3191 2616 2906 2266 
Q 2828 2175 2409 1742 
Q 1991 1309 1228 531 
z
" transform="scale(0.015625)"/>
        <path id="DejaVuSans-35" d="M 691 4666 
L 3169 4666 
L 3169 4134 
L 1269 4134 
L 1269 2991 
Q 1406 3038 1543 3061 
Q 1681 3084 1819 3084 
Q 2600 3084 3056 2656 
Q 3513 2228 3513 1497 
Q 3513 744 3044 326 
Q 2575 -91 1722 -91 
Q 1428 -91 1123 -41 
Q 819 9 494 109 
L 494 744 
Q 775 591 1075 516 
Q 1375 441 1709 441 
Q 2250 441 2565 725 
Q 2881 1009 2881 1497 
Q 2881 1984 2565 2268 
Q 2250 2553 1709 2553 
Q 1456 2553 1204 2497 
Q 953 2441 691 2322 
L 691 4666 
z
" transform="scale(0.015625)"/>
       </defs>
       <use xlink:href="#DejaVuSans-32"/>
       <use xlink:href="#DejaVuSans-35" transform="translate(63.623047 0)"/>
      </g>
     </g>
    </g>
    <g id="ytick_3">
     <g id="line2d_9">
      <g>
       <use xlink:href="#m5aa64d7170" x="81" y="295.821603" style="stroke: #000000; stroke-width: 0.8"/>
      </g>
     </g>
     <g id="text_10">
      <!-- 50 -->
      <g transform="translate(61.275 299.620822) scale(0.1 -0.1)">
       <use xlink:href="#DejaVuSans-35"/>
       <use xlink:href="#DejaVuSans-30" transform="translate(63.623047 0)"/>
      </g>
     </g>
    </g>
    <g id="ytick_4">
     <g id="line2d_10">
      <g>
       <use xlink:href="#m5aa64d7170" x="81" y="251.492405" style="stroke: #000000; stroke-width: 0.8"/>
      </g>
     </g>
     <g id="text_11">
      <!-- 75 -->
      <g transform="translate(61.275 255.291623) scale(0.1 -0.1)">
       <defs>
        <path id="DejaVuSans-37" d="M 525 4666 
L 3525 4666 
L 3525 4397 
L 1831 0 
L 1172 0 
L 2766 4134 
L 525 4134 
L 525 4666 
z
" transform="scale(0.015625)"/>
       </defs>
       <use xlink:href="#DejaVuSans-37"/>
       <use xlink:href="#DejaVuSans-35" transform="translate(63.623047 0)"/>
      </g>
     </g>
    </g>
    <g id="ytick_5">
     <g id="line2d_11">
      <g>
       <use xlink:href="#m5aa64d7170" x="81" y="207.163206" style="stroke: #000000; stroke-width: 0.8"/>
      </g>
     </g>
     <g id="text_12">
      <!-- 100 -->
      <g transform="translate(54.9125 210.962425) scale(0.1 -0.1)">
       <defs>
        <path id="DejaVuSans-31" d="M 794 531 
L 1825 531 
L 1825 4091 
L 703 3866 
L 703 4441 
L 1819 4666 
L 2450 4666 
L 2450 531 
L 3481 531 
L 3481 0 
L 794 0 
L 794 531 
z
" transform="scale(0.015625)"/>
       </defs>
       <use xlink:href="#DejaVuSans-31"/>
       <use xlink:href="#DejaVuSans-30" transform="translate(63.623047 0)"/>
       <use xlink:href="#DejaVuSans-30" transform="translate(127.246094 0)"/>
      </g>
     </g>
    </g>
    <g id="ytick_6">
     <g id="line2d_12">
      <g>
       <use xlink:href="#m5aa64d7170" x="81" y="162.834008" style="stroke: #000000; stroke-width: 0.8"/>
      </g>
     </g>
     <g id="text_13">
      <!-- 125 -->
      <g transform="translate(54.9125 166.633226) scale(0.1 -0.1)">
       <use xlink:href="#DejaVuSans-31"/>
       <use xlink:href="#DejaVuSans-32" transform="translate(63.623047 0)"/>
       <use xlink:href="#DejaVuSans-35" transform="translate(127.246094 0)"/>
      </g>
     </g>
    </g>
    <g id="ytick_7">
     <g id="line2d_13">
      <g>
       <use xlink:href="#m5aa64d7170" x="81" y="118.504809" style="stroke: #000000; stroke-width: 0.8"/>
      </g>
     </g>
     <g id="text_14">
      <!-- 150 -->
      <g transform="translate(54.9125 122.304028) scale(0.1 -0.1)">
       <use xlink:href="#DejaVuSans-31"/>
       <use xlink:href="#DejaVuSans-35" transform="translate(63.623047 0)"/>
       <use xlink:href="#DejaVuSans-30" transform="translate(127.246094 0)"/>
      </g>
     </g>
    </g>
    <g id="ytick_8">
     <g id="line2d_14">
      <g>
       <use xlink:href="#m5aa64d7170" x="81" y="74.175611" style="stroke: #000000; stroke-width: 0.8"/>
      </g>
     </g>
     <g id="text_15">
      <!-- 175 -->
      <g transform="translate(54.9125 77.97483) scale(0.1 -0.1)">
       <use xlink:href="#DejaVuSans-31"/>
       <use xlink:href="#DejaVuSans-37" transform="translate(63.623047 0)"/>
       <use xlink:href="#DejaVuSans-35" transform="translate(127.246094 0)"/>
      </g>
     </g>
    </g>
    <g id="text_16">
     <!-- Angle Error -->
     <g transform="translate(42.832812 246.163125) rotate(-90) scale(0.1 -0.1)">
      <defs>
       <path id="DejaVuSans-65" d="M 3597 1894 
L 3597 1613 
L 953 1613 
Q 991 1019 1311 708 
Q 1631 397 2203 397 
Q 2534 397 2845 478 
Q 3156 559 3463 722 
L 3463 178 
Q 3153 47 2828 -22 
Q 2503 -91 2169 -91 
Q 1331 -91 842 396 
Q 353 884 353 1716 
Q 353 2575 817 3079 
Q 1281 3584 2069 3584 
Q 2775 3584 3186 3129 
Q 3597 2675 3597 1894 
z
M 3022 2063 
Q 3016 2534 2758 2815 
Q 2500 3097 2075 3097 
Q 1594 3097 1305 2825 
Q 1016 2553 972 2059 
L 3022 2063 
z
" transform="scale(0.015625)"/>
       <path id="DejaVuSans-45" d="M 628 4666 
L 3578 4666 
L 3578 4134 
L 1259 4134 
L 1259 2753 
L 3481 2753 
L 3481 2222 
L 1259 2222 
L 1259 531 
L 3634 531 
L 3634 0 
L 628 0 
L 628 4666 
z
" transform="scale(0.015625)"/>
      </defs>
      <use xlink:href="#DejaVuSans-41"/>
      <use xlink:href="#DejaVuSans-6e" transform="translate(68.408203 0)"/>
      <use xlink:href="#DejaVuSans-67" transform="translate(131.787109 0)"/>
      <use xlink:href="#DejaVuSans-6c" transform="translate(195.263672 0)"/>
      <use xlink:href="#DejaVuSans-65" transform="translate(223.046875 0)"/>
      <use xlink:href="#DejaVuSans-20" transform="translate(284.570312 0)"/>
      <use xlink:href="#DejaVuSans-45" transform="translate(316.357422 0)"/>
      <use xlink:href="#DejaVuSans-72" transform="translate(379.541016 0)"/>
      <use xlink:href="#DejaVuSans-72" transform="translate(418.904297 0)"/>
      <use xlink:href="#DejaVuSans-6f" transform="translate(457.767578 0)"/>
      <use xlink:href="#DejaVuSans-72" transform="translate(518.949219 0)"/>
     </g>
    </g>
   </g>
   <g id="LineCollection_1">
    <path d="M 106.11 126.996156 
L 139.59 126.996156 
" clip-path="url(#pe67b69d48b)" style="fill: none; stroke: #1f77b4; stroke-width: 1.5"/>
    <path d="M 189.81 79.350424 
L 223.29 79.350424 
" clip-path="url(#pe67b69d48b)" style="fill: none; stroke: #1f77b4; stroke-width: 1.5"/>
    <path d="M 273.51 308.958951 
L 306.99 308.958951 
" clip-path="url(#pe67b69d48b)" style="fill: none; stroke: #1f77b4; stroke-width: 1.5"/>
    <path d="M 357.21 110.22642 
L 390.69 110.22642 
" clip-path="url(#pe67b69d48b)" style="fill: none; stroke: #1f77b4; stroke-width: 1.5"/>
    <path d="M 440.91 67.678369 
L 474.39 67.678369 
" clip-path="url(#pe67b69d48b)" style="fill: none; stroke: #1f77b4; stroke-width: 1.5"/>
    <path d="M 524.61 71.037636 
L 558.09 71.037636 
" clip-path="url(#pe67b69d48b)" style="fill: none; stroke: #1f77b4; stroke-width: 1.5"/>
   </g>
   <g id="LineCollection_2">
    <path d="M 106.11 384.445747 
L 139.59 384.445747 
" clip-path="url(#pe67b69d48b)" style="fill: none; stroke: #1f77b4; stroke-width: 1.5"/>
    <path d="M 189.81 384.177564 
L 223.29 384.177564 
" clip-path="url(#pe67b69d48b)" style="fill: none; stroke: #1f77b4; stroke-width: 1.5"/>
    <path d="M 273.51 384.086863 
L 306.99 384.086863 
" clip-path="url(#pe67b69d48b)" style="fill: none; stroke: #1f77b4; stroke-width: 1.5"/>
    <path d="M 357.21 384.27935 
L 390.69 384.27935 
" clip-path="url(#pe67b69d48b)" style="fill: none; stroke: #1f77b4; stroke-width: 1.5"/>
    <path d="M 440.91 384.359166 
L 474.39 384.359166 
" clip-path="url(#pe67b69d48b)" style="fill: none; stroke: #1f77b4; stroke-width: 1.5"/>
    <path d="M 524.61 383.716626 
L 558.09 383.716626 
" clip-path="url(#pe67b69d48b)" style="fill: none; stroke: #1f77b4; stroke-width: 1.5"/>
   </g>
   <g id="LineCollection_3">
    <path d="M 122.85 384.445747 
L 122.85 126.996156 
" clip-path="url(#pe67b69d48b)" style="fill: none; stroke: #1f77b4; stroke-width: 1.5"/>
    <path d="M 206.55 384.177564 
L 206.55 79.350424 
" clip-path="url(#pe67b69d48b)" style="fill: none; stroke: #1f77b4; stroke-width: 1.5"/>
    <path d="M 290.25 384.086863 
L 290.25 308.958951 
" clip-path="url(#pe67b69d48b)" style="fill: none; stroke: #1f77b4; stroke-width: 1.5"/>
    <path d="M 373.95 384.27935 
L 373.95 110.22642 
" clip-path="url(#pe67b69d48b)" style="fill: none; stroke: #1f77b4; stroke-width: 1.5"/>
    <path d="M 457.65 384.359166 
L 457.65 67.678369 
" clip-path="url(#pe67b69d48b)" style="fill: none; stroke: #1f77b4; stroke-width: 1.5"/>
    <path d="M 541.35 383.716626 
L 541.35 71.037636 
" clip-path="url(#pe67b69d48b)" style="fill: none; stroke: #1f77b4; stroke-width: 1.5"/>
   </g>
   <g id="patch_3">
    <path d="M 110.295 379.93865 
L 135.405 379.93865 
L 135.405 360.732228 
L 110.295 360.732228 
L 110.295 379.93865 
z
" clip-path="url(#pe67b69d48b)" style="fill: #add8e6; stroke: #000000; stroke-linejoin: miter"/>
   </g>
   <g id="line2d_15">
    <path d="M 122.85 379.93865 
L 122.85 384.445747 
" clip-path="url(#pe67b69d48b)" style="fill: none; stroke: #000000; stroke-linecap: square"/>
   </g>
   <g id="line2d_16">
    <path d="M 122.85 360.732228 
L 122.85 332.770256 
" clip-path="url(#pe67b69d48b)" style="fill: none; stroke: #000000; stroke-linecap: square"/>
   </g>
   <g id="line2d_17">
    <path d="M 116.5725 384.445747 
L 129.1275 384.445747 
" clip-path="url(#pe67b69d48b)" style="fill: none; stroke: #000000; stroke-linecap: square"/>
   </g>
   <g id="line2d_18">
    <path d="M 116.5725 332.770256 
L 129.1275 332.770256 
" clip-path="url(#pe67b69d48b)" style="fill: none; stroke: #000000; stroke-linecap: square"/>
   </g>
   <g id="line2d_19">
    <defs>
     <path id="ma60582677c" d="M 0 2 
C 0.530406 2 1.03916 1.789267 1.414214 1.414214 
C 1.789267 1.03916 2 0.530406 2 0 
C 2 -0.530406 1.789267 -1.03916 1.414214 -1.414214 
C 1.03916 -1.789267 0.530406 -2 0 -2 
C -0.530406 -2 -1.03916 -1.789267 -1.414214 -1.414214 
C -1.789267 -1.03916 -2 -0.530406 -2 0 
C -2 0.530406 -1.789267 1.03916 -1.414214 1.414214 
C -1.03916 1.789267 -0.530406 2 0 2 
z
" style="stroke: #000000"/>
    </defs>
    <g clip-path="url(#pe67b69d48b)">
     <use xlink:href="#ma60582677c" x="122.85" y="277.971405" style="fill-opacity: 0; stroke: #000000"/>
     <use xlink:href="#ma60582677c" x="122.85" y="126.996156" style="fill-opacity: 0; stroke: #000000"/>
     <use xlink:href="#ma60582677c" x="122.85" y="331.089878" style="fill-opacity: 0; stroke: #000000"/>
     <use xlink:href="#ma60582677c" x="122.85" y="135.735569" style="fill-opacity: 0; stroke: #000000"/>
     <use xlink:href="#ma60582677c" x="122.85" y="331.497299" style="fill-opacity: 0; stroke: #000000"/>
     <use xlink:href="#ma60582677c" x="122.85" y="328.92906" style="fill-opacity: 0; stroke: #000000"/>
     <use xlink:href="#ma60582677c" x="122.85" y="193.674718" style="fill-opacity: 0; stroke: #000000"/>
    </g>
   </g>
   <g id="patch_4">
    <path d="M 193.995 379.978695 
L 219.105 379.978695 
L 219.105 354.915107 
L 193.995 354.915107 
L 193.995 379.978695 
z
" clip-path="url(#pe67b69d48b)" style="fill: #add8e6; stroke: #000000; stroke-linejoin: miter"/>
   </g>
   <g id="line2d_20">
    <path d="M 206.55 379.978695 
L 206.55 384.177564 
" clip-path="url(#pe67b69d48b)" style="fill: none; stroke: #000000; stroke-linecap: square"/>
   </g>
   <g id="line2d_21">
    <path d="M 206.55 354.915107 
L 206.55 335.526699 
" clip-path="url(#pe67b69d48b)" style="fill: none; stroke: #000000; stroke-linecap: square"/>
   </g>
   <g id="line2d_22">
    <path d="M 200.2725 384.177564 
L 212.8275 384.177564 
" clip-path="url(#pe67b69d48b)" style="fill: none; stroke: #000000; stroke-linecap: square"/>
   </g>
   <g id="line2d_23">
    <path d="M 200.2725 335.526699 
L 212.8275 335.526699 
" clip-path="url(#pe67b69d48b)" style="fill: none; stroke: #000000; stroke-linecap: square"/>
   </g>
   <g id="line2d_24">
    <g clip-path="url(#pe67b69d48b)">
     <use xlink:href="#ma60582677c" x="206.55" y="307.727291" style="fill-opacity: 0; stroke: #000000"/>
     <use xlink:href="#ma60582677c" x="206.55" y="194.571586" style="fill-opacity: 0; stroke: #000000"/>
     <use xlink:href="#ma60582677c" x="206.55" y="193.049321" style="fill-opacity: 0; stroke: #000000"/>
     <use xlink:href="#ma60582677c" x="206.55" y="287.010678" style="fill-opacity: 0; stroke: #000000"/>
     <use xlink:href="#ma60582677c" x="206.55" y="95.208752" style="fill-opacity: 0; stroke: #000000"/>
     <use xlink:href="#ma60582677c" x="206.55" y="98.91219" style="fill-opacity: 0; stroke: #000000"/>
     <use xlink:href="#ma60582677c" x="206.55" y="271.084474" style="fill-opacity: 0; stroke: #000000"/>
     <use xlink:href="#ma60582677c" x="206.55" y="79.350424" style="fill-opacity: 0; stroke: #000000"/>
     <use xlink:href="#ma60582677c" x="206.55" y="81.374141" style="fill-opacity: 0; stroke: #000000"/>
     <use xlink:href="#ma60582677c" x="206.55" y="157.926411" style="fill-opacity: 0; stroke: #000000"/>
     <use xlink:href="#ma60582677c" x="206.55" y="260.818807" style="fill-opacity: 0; stroke: #000000"/>
     <use xlink:href="#ma60582677c" x="206.55" y="303.263146" style="fill-opacity: 0; stroke: #000000"/>
     <use xlink:href="#ma60582677c" x="206.55" y="170.436997" style="fill-opacity: 0; stroke: #000000"/>
    </g>
   </g>
   <g id="patch_5">
    <path d="M 277.695 371.131919 
L 302.805 371.131919 
L 302.805 349.125119 
L 277.695 349.125119 
L 277.695 371.131919 
z
" clip-path="url(#pe67b69d48b)" style="fill: #add8e6; stroke: #000000; stroke-linejoin: miter"/>
   </g>
   <g id="line2d_25">
    <path d="M 290.25 371.131919 
L 290.25 384.086863 
" clip-path="url(#pe67b69d48b)" style="fill: none; stroke: #000000; stroke-linecap: square"/>
   </g>
   <g id="line2d_26">
    <path d="M 290.25 349.125119 
L 290.25 331.518133 
" clip-path="url(#pe67b69d48b)" style="fill: none; stroke: #000000; stroke-linecap: square"/>
   </g>
   <g id="line2d_27">
    <path d="M 283.9725 384.086863 
L 296.5275 384.086863 
" clip-path="url(#pe67b69d48b)" style="fill: none; stroke: #000000; stroke-linecap: square"/>
   </g>
   <g id="line2d_28">
    <path d="M 283.9725 331.518133 
L 296.5275 331.518133 
" clip-path="url(#pe67b69d48b)" style="fill: none; stroke: #000000; stroke-linecap: square"/>
   </g>
   <g id="line2d_29">
    <g clip-path="url(#pe67b69d48b)">
     <use xlink:href="#ma60582677c" x="290.25" y="308.958951" style="fill-opacity: 0; stroke: #000000"/>
    </g>
   </g>
   <g id="patch_6">
    <path d="M 361.395 380.034664 
L 386.505 380.034664 
L 386.505 364.800677 
L 361.395 364.800677 
L 361.395 380.034664 
z
" clip-path="url(#pe67b69d48b)" style="fill: #add8e6; stroke: #000000; stroke-linejoin: miter"/>
   </g>
   <g id="line2d_30">
    <path d="M 373.95 380.034664 
L 373.95 384.27935 
" clip-path="url(#pe67b69d48b)" style="fill: none; stroke: #000000; stroke-linecap: square"/>
   </g>
   <g id="line2d_31">
    <path d="M 373.95 364.800677 
L 373.95 343.312236 
" clip-path="url(#pe67b69d48b)" style="fill: none; stroke: #000000; stroke-linecap: square"/>
   </g>
   <g id="line2d_32">
    <path d="M 367.6725 384.27935 
L 380.2275 384.27935 
" clip-path="url(#pe67b69d48b)" style="fill: none; stroke: #000000; stroke-linecap: square"/>
   </g>
   <g id="line2d_33">
    <path d="M 367.6725 343.312236 
L 380.2275 343.312236 
" clip-path="url(#pe67b69d48b)" style="fill: none; stroke: #000000; stroke-linecap: square"/>
   </g>
   <g id="line2d_34">
    <g clip-path="url(#pe67b69d48b)">
     <use xlink:href="#ma60582677c" x="373.95" y="182.626818" style="fill-opacity: 0; stroke: #000000"/>
     <use xlink:href="#ma60582677c" x="373.95" y="341.630776" style="fill-opacity: 0; stroke: #000000"/>
     <use xlink:href="#ma60582677c" x="373.95" y="143.424557" style="fill-opacity: 0; stroke: #000000"/>
     <use xlink:href="#ma60582677c" x="373.95" y="110.22642" style="fill-opacity: 0; stroke: #000000"/>
     <use xlink:href="#ma60582677c" x="373.95" y="243.936847" style="fill-opacity: 0; stroke: #000000"/>
     <use xlink:href="#ma60582677c" x="373.95" y="234.190382" style="fill-opacity: 0; stroke: #000000"/>
     <use xlink:href="#ma60582677c" x="373.95" y="183.317112" style="fill-opacity: 0; stroke: #000000"/>
     <use xlink:href="#ma60582677c" x="373.95" y="113.083526" style="fill-opacity: 0; stroke: #000000"/>
     <use xlink:href="#ma60582677c" x="373.95" y="337.210765" style="fill-opacity: 0; stroke: #000000"/>
     <use xlink:href="#ma60582677c" x="373.95" y="128.725172" style="fill-opacity: 0; stroke: #000000"/>
    </g>
   </g>
   <g id="patch_7">
    <path d="M 445.095 380.830996 
L 470.205 380.830996 
L 470.205 361.223834 
L 445.095 361.223834 
L 445.095 380.830996 
z
" clip-path="url(#pe67b69d48b)" style="fill: #add8e6; stroke: #000000; stroke-linejoin: miter"/>
   </g>
   <g id="line2d_35">
    <path d="M 457.65 380.830996 
L 457.65 384.359166 
" clip-path="url(#pe67b69d48b)" style="fill: none; stroke: #000000; stroke-linecap: square"/>
   </g>
   <g id="line2d_36">
    <path d="M 457.65 361.223834 
L 457.65 341.158706 
" clip-path="url(#pe67b69d48b)" style="fill: none; stroke: #000000; stroke-linecap: square"/>
   </g>
   <g id="line2d_37">
    <path d="M 451.3725 384.359166 
L 463.9275 384.359166 
" clip-path="url(#pe67b69d48b)" style="fill: none; stroke: #000000; stroke-linecap: square"/>
   </g>
   <g id="line2d_38">
    <path d="M 451.3725 341.158706 
L 463.9275 341.158706 
" clip-path="url(#pe67b69d48b)" style="fill: none; stroke: #000000; stroke-linecap: square"/>
   </g>
   <g id="line2d_39">
    <g clip-path="url(#pe67b69d48b)">
     <use xlink:href="#ma60582677c" x="457.65" y="311.452433" style="fill-opacity: 0; stroke: #000000"/>
     <use xlink:href="#ma60582677c" x="457.65" y="311.279868" style="fill-opacity: 0; stroke: #000000"/>
     <use xlink:href="#ma60582677c" x="457.65" y="329.306089" style="fill-opacity: 0; stroke: #000000"/>
     <use xlink:href="#ma60582677c" x="457.65" y="89.158171" style="fill-opacity: 0; stroke: #000000"/>
     <use xlink:href="#ma60582677c" x="457.65" y="116.02131" style="fill-opacity: 0; stroke: #000000"/>
     <use xlink:href="#ma60582677c" x="457.65" y="168.064676" style="fill-opacity: 0; stroke: #000000"/>
     <use xlink:href="#ma60582677c" x="457.65" y="326.716962" style="fill-opacity: 0; stroke: #000000"/>
     <use xlink:href="#ma60582677c" x="457.65" y="67.678369" style="fill-opacity: 0; stroke: #000000"/>
     <use xlink:href="#ma60582677c" x="457.65" y="135.042083" style="fill-opacity: 0; stroke: #000000"/>
     <use xlink:href="#ma60582677c" x="457.65" y="70.670412" style="fill-opacity: 0; stroke: #000000"/>
     <use xlink:href="#ma60582677c" x="457.65" y="201.045954" style="fill-opacity: 0; stroke: #000000"/>
     <use xlink:href="#ma60582677c" x="457.65" y="119.304331" style="fill-opacity: 0; stroke: #000000"/>
     <use xlink:href="#ma60582677c" x="457.65" y="122.289282" style="fill-opacity: 0; stroke: #000000"/>
     <use xlink:href="#ma60582677c" x="457.65" y="322.037714" style="fill-opacity: 0; stroke: #000000"/>
    </g>
   </g>
   <g id="patch_8">
    <path d="M 528.795 377.863467 
L 553.905 377.863467 
L 553.905 354.880397 
L 528.795 354.880397 
L 528.795 377.863467 
z
" clip-path="url(#pe67b69d48b)" style="fill: #add8e6; stroke: #000000; stroke-linejoin: miter"/>
   </g>
   <g id="line2d_40">
    <path d="M 541.35 377.863467 
L 541.35 383.716626 
" clip-path="url(#pe67b69d48b)" style="fill: none; stroke: #000000; stroke-linecap: square"/>
   </g>
   <g id="line2d_41">
    <path d="M 541.35 354.880397 
L 541.35 347.906195 
" clip-path="url(#pe67b69d48b)" style="fill: none; stroke: #000000; stroke-linecap: square"/>
   </g>
   <g id="line2d_42">
    <path d="M 535.0725 383.716626 
L 547.6275 383.716626 
" clip-path="url(#pe67b69d48b)" style="fill: none; stroke: #000000; stroke-linecap: square"/>
   </g>
   <g id="line2d_43">
    <path d="M 535.0725 347.906195 
L 547.6275 347.906195 
" clip-path="url(#pe67b69d48b)" style="fill: none; stroke: #000000; stroke-linecap: square"/>
   </g>
   <g id="line2d_44">
    <g clip-path="url(#pe67b69d48b)">
     <use xlink:href="#ma60582677c" x="541.35" y="267.230618" style="fill-opacity: 0; stroke: #000000"/>
     <use xlink:href="#ma60582677c" x="541.35" y="85.303836" style="fill-opacity: 0; stroke: #000000"/>
     <use xlink:href="#ma60582677c" x="541.35" y="317.002591" style="fill-opacity: 0; stroke: #000000"/>
     <use xlink:href="#ma60582677c" x="541.35" y="266.562435" style="fill-opacity: 0; stroke: #000000"/>
     <use xlink:href="#ma60582677c" x="541.35" y="117.435412" style="fill-opacity: 0; stroke: #000000"/>
     <use xlink:href="#ma60582677c" x="541.35" y="314.042517" style="fill-opacity: 0; stroke: #000000"/>
     <use xlink:href="#ma60582677c" x="541.35" y="230.502547" style="fill-opacity: 0; stroke: #000000"/>
     <use xlink:href="#ma60582677c" x="541.35" y="286.128598" style="fill-opacity: 0; stroke: #000000"/>
     <use xlink:href="#ma60582677c" x="541.35" y="183.836118" style="fill-opacity: 0; stroke: #000000"/>
     <use xlink:href="#ma60582677c" x="541.35" y="266.116004" style="fill-opacity: 0; stroke: #000000"/>
     <use xlink:href="#ma60582677c" x="541.35" y="71.037636" style="fill-opacity: 0; stroke: #000000"/>
     <use xlink:href="#ma60582677c" x="541.35" y="83.261855" style="fill-opacity: 0; stroke: #000000"/>
     <use xlink:href="#ma60582677c" x="541.35" y="232.925652" style="fill-opacity: 0; stroke: #000000"/>
     <use xlink:href="#ma60582677c" x="541.35" y="200.017339" style="fill-opacity: 0; stroke: #000000"/>
    </g>
   </g>
   <g id="line2d_45">
    <path d="M 110.295 374.488167 
L 135.405 374.488167 
" clip-path="url(#pe67b69d48b)" style="fill: none; stroke: #000000"/>
   </g>
   <g id="line2d_46">
    <path d="M 193.995 371.961877 
L 219.105 371.961877 
" clip-path="url(#pe67b69d48b)" style="fill: none; stroke: #000000"/>
   </g>
   <g id="line2d_47">
    <path d="M 277.695 360.018643 
L 302.805 360.018643 
" clip-path="url(#pe67b69d48b)" style="fill: none; stroke: #000000"/>
   </g>
   <g id="line2d_48">
    <path d="M 361.395 376.060617 
L 386.505 376.060617 
" clip-path="url(#pe67b69d48b)" style="fill: none; stroke: #000000"/>
   </g>
   <g id="line2d_49">
    <path d="M 445.095 374.312925 
L 470.205 374.312925 
" clip-path="url(#pe67b69d48b)" style="fill: none; stroke: #000000"/>
   </g>
   <g id="line2d_50">
    <path d="M 528.795 370.174093 
L 553.905 370.174093 
" clip-path="url(#pe67b69d48b)" style="fill: none; stroke: #000000"/>
   </g>
   <g id="patch_9">
    <path d="M 81 384.48 
L 81 51.84 
" style="fill: none; stroke: #000000; stroke-width: 0.8; stroke-linejoin: miter; stroke-linecap: square"/>
   </g>
   <g id="patch_10">
    <path d="M 583.2 384.48 
L 583.2 51.84 
" style="fill: none; stroke: #000000; stroke-width: 0.8; stroke-linejoin: miter; stroke-linecap: square"/>
   </g>
   <g id="patch_11">
    <path d="M 81 384.48 
L 583.2 384.48 
" style="fill: none; stroke: #000000; stroke-width: 0.8; stroke-linejoin: miter; stroke-linecap: square"/>
   </g>
   <g id="patch_12">
    <path d="M 81 51.84 
L 583.2 51.84 
" style="fill: none; stroke: #000000; stroke-width: 0.8; stroke-linejoin: miter; stroke-linecap: square"/>
   </g>
   <g id="text_17">
    <!-- Distance Distribution by Visualization -->
    <g transform="translate(219.887813 31.84) scale(0.12 -0.12)">
     <defs>
      <path id="DejaVuSans-44" d="M 1259 4147 
L 1259 519 
L 2022 519 
Q 2988 519 3436 956 
Q 3884 1394 3884 2338 
Q 3884 3275 3436 3711 
Q 2988 4147 2022 4147 
L 1259 4147 
z
M 628 4666 
L 1925 4666 
Q 3281 4666 3915 4102 
Q 4550 3538 4550 2338 
Q 4550 1131 3912 565 
Q 3275 0 1925 0 
L 628 0 
L 628 4666 
z
" transform="scale(0.015625)"/>
      <path id="DejaVuSans-63" d="M 3122 3366 
L 3122 2828 
Q 2878 2963 2633 3030 
Q 2388 3097 2138 3097 
Q 1578 3097 1268 2742 
Q 959 2388 959 1747 
Q 959 1106 1268 751 
Q 1578 397 2138 397 
Q 2388 397 2633 464 
Q 2878 531 3122 666 
L 3122 134 
Q 2881 22 2623 -34 
Q 2366 -91 2075 -91 
Q 1284 -91 818 406 
Q 353 903 353 1747 
Q 353 2603 823 3093 
Q 1294 3584 2113 3584 
Q 2378 3584 2631 3529 
Q 2884 3475 3122 3366 
z
" transform="scale(0.015625)"/>
      <path id="DejaVuSans-62" d="M 3116 1747 
Q 3116 2381 2855 2742 
Q 2594 3103 2138 3103 
Q 1681 3103 1420 2742 
Q 1159 2381 1159 1747 
Q 1159 1113 1420 752 
Q 1681 391 2138 391 
Q 2594 391 2855 752 
Q 3116 1113 3116 1747 
z
M 1159 2969 
Q 1341 3281 1617 3432 
Q 1894 3584 2278 3584 
Q 2916 3584 3314 3078 
Q 3713 2572 3713 1747 
Q 3713 922 3314 415 
Q 2916 -91 2278 -91 
Q 1894 -91 1617 61 
Q 1341 213 1159 525 
L 1159 0 
L 581 0 
L 581 4863 
L 1159 4863 
L 1159 2969 
z
" transform="scale(0.015625)"/>
      <path id="DejaVuSans-79" d="M 2059 -325 
Q 1816 -950 1584 -1140 
Q 1353 -1331 966 -1331 
L 506 -1331 
L 506 -850 
L 844 -850 
Q 1081 -850 1212 -737 
Q 1344 -625 1503 -206 
L 1606 56 
L 191 3500 
L 800 3500 
L 1894 763 
L 2988 3500 
L 3597 3500 
L 2059 -325 
z
" transform="scale(0.015625)"/>
     </defs>
     <use xlink:href="#DejaVuSans-44"/>
     <use xlink:href="#DejaVuSans-69" transform="translate(77.001953 0)"/>
     <use xlink:href="#DejaVuSans-73" transform="translate(104.785156 0)"/>
     <use xlink:href="#DejaVuSans-74" transform="translate(156.884766 0)"/>
     <use xlink:href="#DejaVuSans-61" transform="translate(196.09375 0)"/>
     <use xlink:href="#DejaVuSans-6e" transform="translate(257.373047 0)"/>
     <use xlink:href="#DejaVuSans-63" transform="translate(320.751953 0)"/>
     <use xlink:href="#DejaVuSans-65" transform="translate(375.732422 0)"/>
     <use xlink:href="#DejaVuSans-20" transform="translate(437.255859 0)"/>
     <use xlink:href="#DejaVuSans-44" transform="translate(469.042969 0)"/>
     <use xlink:href="#DejaVuSans-69" transform="translate(546.044922 0)"/>
     <use xlink:href="#DejaVuSans-73" transform="translate(573.828125 0)"/>
     <use xlink:href="#DejaVuSans-74" transform="translate(625.927734 0)"/>
     <use xlink:href="#DejaVuSans-72" transform="translate(665.136719 0)"/>
     <use xlink:href="#DejaVuSans-69" transform="translate(706.25 0)"/>
     <use xlink:href="#DejaVuSans-62" transform="translate(734.033203 0)"/>
     <use xlink:href="#DejaVuSans-75" transform="translate(797.509766 0)"/>
     <use xlink:href="#DejaVuSans-74" transform="translate(860.888672 0)"/>
     <use xlink:href="#DejaVuSans-69" transform="translate(900.097656 0)"/>
     <use xlink:href="#DejaVuSans-6f" transform="translate(927.880859 0)"/>
     <use xlink:href="#DejaVuSans-6e" transform="translate(989.0625 0)"/>
     <use xlink:href="#DejaVuSans-20" transform="translate(1052.441406 0)"/>
     <use xlink:href="#DejaVuSans-62" transform="translate(1084.228516 0)"/>
     <use xlink:href="#DejaVuSans-79" transform="translate(1147.705078 0)"/>
     <use xlink:href="#DejaVuSans-20" transform="translate(1206.884766 0)"/>
     <use xlink:href="#DejaVuSans-56" transform="translate(1238.671875 0)"/>
     <use xlink:href="#DejaVuSans-69" transform="translate(1304.830078 0)"/>
     <use xlink:href="#DejaVuSans-73" transform="translate(1332.613281 0)"/>
     <use xlink:href="#DejaVuSans-75" transform="translate(1384.712891 0)"/>
     <use xlink:href="#DejaVuSans-61" transform="translate(1448.091797 0)"/>
     <use xlink:href="#DejaVuSans-6c" transform="translate(1509.371094 0)"/>
     <use xlink:href="#DejaVuSans-69" transform="translate(1537.154297 0)"/>
     <use xlink:href="#DejaVuSans-7a" transform="translate(1564.9375 0)"/>
     <use xlink:href="#DejaVuSans-61" transform="translate(1617.427734 0)"/>
     <use xlink:href="#DejaVuSans-74" transform="translate(1678.707031 0)"/>
     <use xlink:href="#DejaVuSans-69" transform="translate(1717.916016 0)"/>
     <use xlink:href="#DejaVuSans-6f" transform="translate(1745.699219 0)"/>
     <use xlink:href="#DejaVuSans-6e" transform="translate(1806.880859 0)"/>
    </g>
   </g>
  </g>
 </g>
 <defs>
  <clipPath id="pe67b69d48b">
   <rect x="81" y="51.84" width="502.2" height="332.64"/>
  </clipPath>
 </defs>
</svg>
