<?xml version="1.0" encoding="utf-8" standalone="no"?>
<!DOCTYPE svg PUBLIC "-//W3C//DTD SVG 1.1//EN"
  "http://www.w3.org/Graphics/SVG/1.1/DTD/svg11.dtd">
<svg xmlns:xlink="http://www.w3.org/1999/xlink" width="648pt" height="432pt" viewBox="0 0 648 432" xmlns="http://www.w3.org/2000/svg" version="1.1">
 <metadata>
  <rdf:RDF xmlns:dc="http://purl.org/dc/elements/1.1/" xmlns:cc="http://creativecommons.org/ns#" xmlns:rdf="http://www.w3.org/1999/02/22-rdf-syntax-ns#">
   <cc:Work>
    <dc:type rdf:resource="http://purl.org/dc/dcmitype/StillImage"/>
    <dc:date>2026-03-02T20:43:38.628250</dc:date>
    <dc:format>image/svg+xml</dc:format>
    <dc:creator>
     <cc:Agent>
      <dc:title>Matplotlib v3.10.6, https://matplotlib.org/</dc:title>
     </cc:Agent>
    </dc:creator>
   </cc:Work>
  </rdf:RDF>
 </metadata>
 <defs>
  <style type="text/css">*{stroke-linejoin: round; stroke-linecap: butt}</style>
 </defs>
 <g id="figure_1">
  <g id="patch_1">
   <path d="M 0 432 
L 648 432 
L 648 0 
L 0 0 
z
" style="fill: #ffffff"/>
  </g>
  <g id="axes_1">
   <g id="patch_2">
    <path d="M 81 384.48 
L 583.2 384.48 
L 583.2 51.84 
L 81 51.84 
z
" style="fill: #ffffff"/>
   </g>
   <g id="FillBetweenPolyCollection_1">
    <path d="M 153.36394 384.445747 
L 92.33606 384.445747 
L 90.987125 381.845246 
L 90.025719 379.244745 
L 89.482364 376.644244 
L 89.37 374.043743 
L 89.683428 371.443242 
L 90.400055 368.842741 
L 91.481851 366.24224 
L 92.878304 363.641739 
L 94.530075 361.041238 
L 96.37299 358.440737 
L 98.342026 355.840237 
L 100.374942 353.239736 
L 102.415304 350.639235 
L 104.414718 348.038734 
L 106.334186 345.438233 
L 108.144607 342.837732 
L 109.82649 340.237231 
L 111.369061 337.63673 
L 112.768917 335.036229 
L 114.028444 332.435728 
L 115.154175 329.835227 
L 116.155245 327.234726 
L 117.042058 324.634226 
L 117.825244 322.033725 
L 118.514921 319.433224 
L 119.120271 316.832723 
L 119.649371 314.232222 
L 120.109236 311.631721 
L 120.505995 309.03122 
L 120.845147 306.430719 
L 121.131816 303.830218 
L 121.370991 301.229717 
L 121.567679 298.629216 
L 121.726998 296.028715 
L 121.854177 293.428215 
L 121.95449 290.827714 
L 122.033134 288.227213 
L 122.095078 285.626712 
L 122.144906 283.026211 
L 122.186668 280.42571 
L 122.223764 277.825209 
L 122.258874 275.224708 
L 122.293926 272.624207 
L 122.330123 270.023706 
L 122.367997 267.423205 
L 122.407512 264.822704 
L 122.448176 262.222204 
L 122.489169 259.621703 
L 122.529461 257.021202 
L 122.567924 254.420701 
L 122.60342 251.8202 
L 122.634865 249.219699 
L 122.661272 246.619198 
L 122.68177 244.018697 
L 122.695606 241.418196 
L 122.702145 238.817695 
L 122.700858 236.217194 
L 122.691323 233.616693 
L 122.673233 231.016193 
L 122.646415 228.415692 
L 122.610862 225.815191 
L 122.566781 223.21469 
L 122.514636 220.614189 
L 122.455196 218.013688 
L 122.389571 215.413187 
L 122.319225 212.812686 
L 122.245963 210.212185 
L 122.171889 207.611684 
L 122.099326 205.011183 
L 122.030703 202.410682 
L 121.968417 199.810182 
L 121.914679 197.209681 
L 121.871354 194.60918 
L 121.839808 192.008679 
L 121.820791 189.408178 
L 121.814349 186.807677 
L 121.81979 184.207176 
L 121.835702 181.606675 
L 121.860037 179.006174 
L 121.890234 176.405673 
L 121.923397 173.805172 
L 121.9565 171.204671 
L 121.986607 168.604171 
L 122.011086 166.00367 
L 122.02781 163.403169 
L 122.035317 160.802668 
L 122.032922 158.202167 
L 122.020772 155.601666 
L 121.999838 153.001165 
L 121.971845 150.400664 
L 121.939143 147.800163 
L 121.904535 145.199662 
L 121.871067 142.599161 
L 121.841801 139.99866 
L 121.819597 137.39816 
L 121.806903 134.797659 
L 121.805597 132.197158 
L 121.816858 129.596657 
L 121.841114 126.996156 
L 123.858886 126.996156 
L 123.858886 126.996156 
L 123.883142 129.596657 
L 123.894403 132.197158 
L 123.893097 134.797659 
L 123.880403 137.39816 
L 123.858199 139.99866 
L 123.828933 142.599161 
L 123.795465 145.199662 
L 123.760857 147.800163 
L 123.728155 150.400664 
L 123.700162 153.001165 
L 123.679228 155.601666 
L 123.667078 158.202167 
L 123.664683 160.802668 
L 123.67219 163.403169 
L 123.688914 166.00367 
L 123.713393 168.604171 
L 123.7435 171.204671 
L 123.776603 173.805172 
L 123.809766 176.405673 
L 123.839963 179.006174 
L 123.864298 181.606675 
L 123.88021 184.207176 
L 123.885651 186.807677 
L 123.879209 189.408178 
L 123.860192 192.008679 
L 123.828646 194.60918 
L 123.785321 197.209681 
L 123.731583 199.810182 
L 123.669297 202.410682 
L 123.600674 205.011183 
L 123.528111 207.611684 
L 123.454037 210.212185 
L 123.380775 212.812686 
L 123.310429 215.413187 
L 123.244804 218.013688 
L 123.185364 220.614189 
L 123.133219 223.21469 
L 123.089138 225.815191 
L 123.053585 228.415692 
L 123.026767 231.016193 
L 123.008677 233.616693 
L 122.999142 236.217194 
L 122.997855 238.817695 
L 123.004394 241.418196 
L 123.01823 244.018697 
L 123.038728 246.619198 
L 123.065135 249.219699 
L 123.09658 251.8202 
L 123.132076 254.420701 
L 123.170539 257.021202 
L 123.210831 259.621703 
L 123.251824 262.222204 
L 123.292488 264.822704 
L 123.332003 267.423205 
L 123.369877 270.023706 
L 123.406074 272.624207 
L 123.441126 275.224708 
L 123.476236 277.825209 
L 123.513332 280.42571 
L 123.555094 283.026211 
L 123.604922 285.626712 
L 123.666866 288.227213 
L 123.74551 290.827714 
L 123.845823 293.428215 
L 123.973002 296.028715 
L 124.132321 298.629216 
L 124.329009 301.229717 
L 124.568184 303.830218 
L 124.854853 306.430719 
L 125.194005 309.03122 
L 125.590764 311.631721 
L 126.050629 314.232222 
L 126.579729 316.832723 
L 127.185079 319.433224 
L 127.874756 322.033725 
L 128.657942 324.634226 
L 129.544755 327.234726 
L 130.545825 329.835227 
L 131.671556 332.435728 
L 132.931083 335.036229 
L 134.330939 337.63673 
L 135.87351 340.237231 
L 137.555393 342.837732 
L 139.365814 345.438233 
L 141.285282 348.038734 
L 143.284696 350.639235 
L 145.325058 353.239736 
L 147.357974 355.840237 
L 149.32701 358.440737 
L 151.169925 361.041238 
L 152.821696 363.641739 
L 154.218149 366.24224 
L 155.299945 368.842741 
L 156.016572 371.443242 
L 156.33 374.043743 
L 156.217636 376.644244 
L 155.674281 379.244745 
L 154.712875 381.845246 
L 153.36394 384.445747 
z
" clip-path="url(#p4415e4eca6)" style="fill: #1f77b4; fill-opacity: 0.3"/>
   </g>
   <g id="FillBetweenPolyCollection_2">
    <path d="M 237.564077 384.177564 
L 175.535923 384.177564 
L 174.57727 381.047644 
L 173.839682 377.917724 
L 173.337592 374.787805 
L 173.079967 371.657885 
L 173.07 368.527965 
L 173.305025 365.398046 
L 173.776663 362.268126 
L 174.47119 359.138206 
L 175.370111 356.008286 
L 176.4509 352.878367 
L 177.687868 349.748447 
L 179.053119 346.618527 
L 180.51754 343.488608 
L 182.051782 340.358688 
L 183.627179 337.228768 
L 185.216584 334.098849 
L 186.795071 330.968929 
L 188.340497 327.839009 
L 189.833905 324.709089 
L 191.259762 321.57917 
L 192.606047 318.44925 
L 193.86419 315.31933 
L 195.02889 312.189411 
L 196.097831 309.059491 
L 197.071324 305.929571 
L 197.951891 302.799652 
L 198.743827 299.669732 
L 199.452766 296.539812 
L 200.085245 293.409893 
L 200.648319 290.279973 
L 201.149207 287.150053 
L 201.594997 284.020133 
L 201.9924 280.890214 
L 202.347571 277.760294 
L 202.665974 274.630374 
L 202.952313 271.500455 
L 203.210493 268.370535 
L 203.443637 265.240615 
L 203.654126 262.110696 
L 203.843668 258.980776 
L 204.013389 255.850856 
L 204.163936 252.720936 
L 204.295585 249.591017 
L 204.408356 246.461097 
L 204.502123 243.331177 
L 204.576717 240.201258 
L 204.632026 237.071338 
L 204.668077 233.941418 
L 204.685107 230.811499 
L 204.68362 227.681579 
L 204.664426 224.551659 
L 204.628666 221.42174 
L 204.577817 218.29182 
L 204.513681 215.1619 
L 204.438363 212.03198 
L 204.354224 208.902061 
L 204.263832 205.772141 
L 204.169895 202.642221 
L 204.075185 199.512302 
L 203.982459 196.382382 
L 203.894377 193.252462 
L 203.813411 190.122543 
L 203.741771 186.992623 
L 203.681328 183.862703 
L 203.633547 180.732783 
L 203.599439 177.602864 
L 203.579521 174.472944 
L 203.573799 171.343024 
L 203.581766 168.213105 
L 203.602426 165.083185 
L 203.634331 161.953265 
L 203.67564 158.823346 
L 203.724198 155.693426 
L 203.777621 152.563506 
L 203.833403 149.433586 
L 203.889021 146.303667 
L 203.942046 143.173747 
L 203.990248 140.043827 
L 204.031698 136.913908 
L 204.064854 133.783988 
L 204.088633 130.654068 
L 204.102457 127.524149 
L 204.106286 124.394229 
L 204.100618 121.264309 
L 204.086466 118.13439 
L 204.065321 115.00447 
L 204.039077 111.87455 
L 204.009951 108.74463 
L 203.980383 105.614711 
L 203.952929 102.484791 
L 203.930147 99.354871 
L 203.914488 96.224952 
L 203.908189 93.095032 
L 203.913181 89.965112 
L 203.931015 86.835193 
L 203.9628 83.705273 
L 204.009168 80.575353 
L 204.070259 77.445433 
L 204.145731 74.315514 
L 208.954269 74.315514 
L 208.954269 74.315514 
L 209.029741 77.445433 
L 209.090832 80.575353 
L 209.1372 83.705273 
L 209.168985 86.835193 
L 209.186819 89.965112 
L 209.191811 93.095032 
L 209.185512 96.224952 
L 209.169853 99.354871 
L 209.147071 102.484791 
L 209.119617 105.614711 
L 209.090049 108.74463 
L 209.060923 111.87455 
L 209.034679 115.00447 
L 209.013534 118.13439 
L 208.999382 121.264309 
L 208.993714 124.394229 
L 208.997543 127.524149 
L 209.011367 130.654068 
L 209.035146 133.783988 
L 209.068302 136.913908 
L 209.109752 140.043827 
L 209.157954 143.173747 
L 209.210979 146.303667 
L 209.266597 149.433586 
L 209.322379 152.563506 
L 209.375802 155.693426 
L 209.42436 158.823346 
L 209.465669 161.953265 
L 209.497574 165.083185 
L 209.518234 168.213105 
L 209.526201 171.343024 
L 209.520479 174.472944 
L 209.500561 177.602864 
L 209.466453 180.732783 
L 209.418672 183.862703 
L 209.358229 186.992623 
L 209.286589 190.122543 
L 209.205623 193.252462 
L 209.117541 196.382382 
L 209.024815 199.512302 
L 208.930105 202.642221 
L 208.836168 205.772141 
L 208.745776 208.902061 
L 208.661637 212.03198 
L 208.586319 215.1619 
L 208.522183 218.29182 
L 208.471334 221.42174 
L 208.435574 224.551659 
L 208.41638 227.681579 
L 208.414893 230.811499 
L 208.431923 233.941418 
L 208.467974 237.071338 
L 208.523283 240.201258 
L 208.597877 243.331177 
L 208.691644 246.461097 
L 208.804415 249.591017 
L 208.936064 252.720936 
L 209.086611 255.850856 
L 209.256332 258.980776 
L 209.445874 262.110696 
L 209.656363 265.240615 
L 209.889507 268.370535 
L 210.147687 271.500455 
L 210.434026 274.630374 
L 210.752429 277.760294 
L 211.1076 280.890214 
L 211.505003 284.020133 
L 211.950793 287.150053 
L 212.451681 290.279973 
L 213.014755 293.409893 
L 213.647234 296.539812 
L 214.356173 299.669732 
L 215.148109 302.799652 
L 216.028676 305.929571 
L 217.002169 309.059491 
L 218.07111 312.189411 
L 219.23581 315.31933 
L 220.493953 318.44925 
L 221.840238 321.57917 
L 223.266095 324.709089 
L 224.759503 327.839009 
L 226.304929 330.968929 
L 227.883416 334.098849 
L 229.472821 337.228768 
L 231.048218 340.358688 
L 232.58246 343.488608 
L 234.046881 346.618527 
L 235.412132 349.748447 
L 236.6491 352.878367 
L 237.729889 356.008286 
L 238.62881 359.138206 
L 239.323337 362.268126 
L 239.794975 365.398046 
L 240.03 368.527965 
L 240.020033 371.657885 
L 239.762408 374.787805 
L 239.260318 377.917724 
L 238.52273 381.047644 
L 237.564077 384.177564 
z
" clip-path="url(#p4415e4eca6)" style="fill: #1f77b4; fill-opacity: 0.3"/>
   </g>
   <g id="FillBetweenPolyCollection_3">
    <path d="M 304.89827 384.086863 
L 275.60173 384.086863 
L 274.542671 383.555866 
L 273.489328 383.024869 
L 272.449777 382.493872 
L 271.431664 381.962874 
L 270.441991 381.431877 
L 269.486924 380.90088 
L 268.571635 380.369883 
L 267.700179 379.838885 
L 266.87542 379.307888 
L 266.099001 378.776891 
L 265.37137 378.245893 
L 264.691851 377.714896 
L 264.058763 377.183899 
L 263.469579 376.652902 
L 262.921114 376.121904 
L 262.409728 375.590907 
L 261.931548 375.05991 
L 261.48268 374.528913 
L 261.059405 373.997915 
L 260.658357 373.466918 
L 260.276671 372.935921 
L 259.912084 372.404923 
L 259.563008 371.873926 
L 259.22856 371.342929 
L 258.908549 370.811932 
L 258.603442 370.280934 
L 258.314294 369.749937 
L 258.042665 369.21894 
L 257.790522 368.687943 
L 257.560139 368.156945 
L 257.353997 367.625948 
L 257.174692 367.094951 
L 257.024851 366.563953 
L 256.90706 366.032956 
L 256.823803 365.501959 
L 256.777407 364.970962 
L 256.77 364.439964 
L 256.803466 363.908967 
L 256.879408 363.37797 
L 256.999104 362.846973 
L 257.163467 362.315975 
L 257.372997 361.784978 
L 257.627737 361.253981 
L 257.927223 360.722983 
L 258.270451 360.191986 
L 258.655841 359.660989 
L 259.081218 359.129992 
L 259.543811 358.598994 
L 260.040276 358.067997 
L 260.566728 357.537 
L 261.118813 357.006003 
L 261.691787 356.475005 
L 262.280626 355.944008 
L 262.880141 355.413011 
L 263.485114 354.882013 
L 264.09043 354.351016 
L 264.69121 353.820019 
L 265.282938 353.289022 
L 265.861571 352.758024 
L 266.423637 352.227027 
L 266.966301 351.69603 
L 267.487416 351.165033 
L 267.985549 350.634035 
L 268.459976 350.103038 
L 268.91066 349.572041 
L 269.338207 349.041043 
L 269.743809 348.510046 
L 270.129165 347.979049 
L 270.496403 347.448052 
L 270.847986 346.917054 
L 271.186626 346.386057 
L 271.515191 345.85506 
L 271.836614 345.324063 
L 272.153821 344.793065 
L 272.469644 344.262068 
L 272.786769 343.731071 
L 273.107669 343.200073 
L 273.434568 342.669076 
L 273.769403 342.138079 
L 274.113804 341.607082 
L 274.469082 341.076084 
L 274.836229 340.545087 
L 275.215925 340.01409 
L 275.608558 339.483093 
L 276.014242 338.952095 
L 276.432845 338.421098 
L 276.864022 337.890101 
L 277.307235 337.359103 
L 277.761786 336.828106 
L 278.226836 336.297109 
L 278.701424 335.766112 
L 279.184475 335.235114 
L 279.674812 334.704117 
L 280.171147 334.17312 
L 280.672089 333.642123 
L 281.176129 333.111125 
L 281.681644 332.580128 
L 282.186886 332.049131 
L 282.689991 331.518133 
L 297.810009 331.518133 
L 297.810009 331.518133 
L 298.313114 332.049131 
L 298.818356 332.580128 
L 299.323871 333.111125 
L 299.827911 333.642123 
L 300.328853 334.17312 
L 300.825188 334.704117 
L 301.315525 335.235114 
L 301.798576 335.766112 
L 302.273164 336.297109 
L 302.738214 336.828106 
L 303.192765 337.359103 
L 303.635978 337.890101 
L 304.067155 338.421098 
L 304.485758 338.952095 
L 304.891442 339.483093 
L 305.284075 340.01409 
L 305.663771 340.545087 
L 306.030918 341.076084 
L 306.386196 341.607082 
L 306.730597 342.138079 
L 307.065432 342.669076 
L 307.392331 343.200073 
L 307.713231 343.731071 
L 308.030356 344.262068 
L 308.346179 344.793065 
L 308.663386 345.324063 
L 308.984809 345.85506 
L 309.313374 346.386057 
L 309.652014 346.917054 
L 310.003597 347.448052 
L 310.370835 347.979049 
L 310.756191 348.510046 
L 311.161793 349.041043 
L 311.58934 349.572041 
L 312.040024 350.103038 
L 312.514451 350.634035 
L 313.012584 351.165033 
L 313.533699 351.69603 
L 314.076363 352.227027 
L 314.638429 352.758024 
L 315.217062 353.289022 
L 315.80879 353.820019 
L 316.40957 354.351016 
L 317.014886 354.882013 
L 317.619859 355.413011 
L 318.219374 355.944008 
L 318.808213 356.475005 
L 319.381187 357.006003 
L 319.933272 357.537 
L 320.459724 358.067997 
L 320.956189 358.598994 
L 321.418782 359.129992 
L 321.844159 359.660989 
L 322.229549 360.191986 
L 322.572777 360.722983 
L 322.872263 361.253981 
L 323.127003 361.784978 
L 323.336533 362.315975 
L 323.500896 362.846973 
L 323.620592 363.37797 
L 323.696534 363.908967 
L 323.73 364.439964 
L 323.722593 364.970962 
L 323.676197 365.501959 
L 323.59294 366.032956 
L 323.475149 366.563953 
L 323.325308 367.094951 
L 323.146003 367.625948 
L 322.939861 368.156945 
L 322.709478 368.687943 
L 322.457335 369.21894 
L 322.185706 369.749937 
L 321.896558 370.280934 
L 321.591451 370.811932 
L 321.27144 371.342929 
L 320.936992 371.873926 
L 320.587916 372.404923 
L 320.223329 372.935921 
L 319.841643 373.466918 
L 319.440595 373.997915 
L 319.01732 374.528913 
L 318.568452 375.05991 
L 318.090272 375.590907 
L 317.578886 376.121904 
L 317.030421 376.652902 
L 316.441237 377.183899 
L 315.808149 377.714896 
L 315.12863 378.245893 
L 314.400999 378.776891 
L 313.62458 379.307888 
L 312.799821 379.838885 
L 311.928365 380.369883 
L 311.013076 380.90088 
L 310.058009 381.431877 
L 309.068336 381.962874 
L 308.050223 382.493872 
L 307.010672 383.024869 
L 305.957329 383.555866 
L 304.89827 384.086863 
z
" clip-path="url(#p4415e4eca6)" style="fill: #1f77b4; fill-opacity: 0.3"/>
   </g>
   <g id="FillBetweenPolyCollection_4">
    <path d="M 405.950725 384.27935 
L 341.949275 384.27935 
L 341.16645 381.511138 
L 340.66946 378.742927 
L 340.47 375.974716 
L 340.571549 373.206504 
L 340.969265 370.438293 
L 341.650269 367.670081 
L 342.594291 364.90187 
L 343.77464 362.133658 
L 345.159425 359.365447 
L 346.712961 356.597236 
L 348.397264 353.829024 
L 350.173553 351.060813 
L 352.003678 348.292601 
L 353.851401 345.52439 
L 355.683474 342.756179 
L 357.470484 339.987967 
L 359.187429 337.219756 
L 360.814043 334.451544 
L 362.334868 331.683333 
L 363.739118 328.915122 
L 365.020351 326.14691 
L 366.176014 323.378699 
L 367.206897 320.610487 
L 368.116527 317.842276 
L 368.910569 315.074064 
L 369.59624 312.305853 
L 370.18178 309.537642 
L 370.675983 306.76943 
L 371.087816 304.001219 
L 371.426114 301.233007 
L 371.699352 298.464796 
L 371.915504 295.696585 
L 372.081949 292.928373 
L 372.205441 290.160162 
L 372.292119 287.39195 
L 372.34754 284.623739 
L 372.376734 281.855528 
L 372.384269 279.087316 
L 372.37431 276.319105 
L 372.350675 273.550893 
L 372.316884 270.782682 
L 372.276181 268.014471 
L 372.231558 265.246259 
L 372.185754 262.478048 
L 372.141243 259.709836 
L 372.100212 256.941625 
L 372.064534 254.173413 
L 372.035739 251.405202 
L 372.014984 248.636991 
L 372.003031 245.868779 
L 372.000236 243.100568 
L 372.006549 240.332356 
L 372.021532 237.564145 
L 372.044392 234.795934 
L 372.074026 232.027722 
L 372.109092 229.259511 
L 372.148076 226.491299 
L 372.189378 223.723088 
L 372.231392 220.954877 
L 372.272591 218.186665 
L 372.311598 215.418454 
L 372.347245 212.650242 
L 372.378617 209.882031 
L 372.405079 207.113819 
L 372.426275 204.345608 
L 372.442118 201.577397 
L 372.452755 198.809185 
L 372.458521 196.040974 
L 372.459882 193.272762 
L 372.457378 190.504551 
L 372.45156 187.73634 
L 372.442938 184.968128 
L 372.431943 182.199917 
L 372.418892 179.431705 
L 372.403981 176.663494 
L 372.387289 173.895283 
L 372.368794 171.127071 
L 372.348409 168.35886 
L 372.326026 165.590648 
L 372.301559 162.822437 
L 372.274998 160.054226 
L 372.246456 157.286014 
L 372.216202 154.517803 
L 372.184691 151.749591 
L 372.152578 148.98138 
L 372.120714 146.213168 
L 372.090131 143.444957 
L 372.062008 140.676746 
L 372.03763 137.908534 
L 372.018328 135.140323 
L 372.005426 132.372111 
L 372.00017 129.6039 
L 372.003673 126.835689 
L 372.01685 124.067477 
L 372.040378 121.299266 
L 372.07465 118.531054 
L 372.119756 115.762843 
L 372.175469 112.994632 
L 372.241253 110.22642 
L 375.658747 110.22642 
L 375.658747 110.22642 
L 375.724531 112.994632 
L 375.780244 115.762843 
L 375.82535 118.531054 
L 375.859622 121.299266 
L 375.88315 124.067477 
L 375.896327 126.835689 
L 375.89983 129.6039 
L 375.894574 132.372111 
L 375.881672 135.140323 
L 375.86237 137.908534 
L 375.837992 140.676746 
L 375.809869 143.444957 
L 375.779286 146.213168 
L 375.747422 148.98138 
L 375.715309 151.749591 
L 375.683798 154.517803 
L 375.653544 157.286014 
L 375.625002 160.054226 
L 375.598441 162.822437 
L 375.573974 165.590648 
L 375.551591 168.35886 
L 375.531206 171.127071 
L 375.512711 173.895283 
L 375.496019 176.663494 
L 375.481108 179.431705 
L 375.468057 182.199917 
L 375.457062 184.968128 
L 375.44844 187.73634 
L 375.442622 190.504551 
L 375.440118 193.272762 
L 375.441479 196.040974 
L 375.447245 198.809185 
L 375.457882 201.577397 
L 375.473725 204.345608 
L 375.494921 207.113819 
L 375.521383 209.882031 
L 375.552755 212.650242 
L 375.588402 215.418454 
L 375.627409 218.186665 
L 375.668608 220.954877 
L 375.710622 223.723088 
L 375.751924 226.491299 
L 375.790908 229.259511 
L 375.825974 232.027722 
L 375.855608 234.795934 
L 375.878468 237.564145 
L 375.893451 240.332356 
L 375.899764 243.100568 
L 375.896969 245.868779 
L 375.885016 248.636991 
L 375.864261 251.405202 
L 375.835466 254.173413 
L 375.799788 256.941625 
L 375.758757 259.709836 
L 375.714246 262.478048 
L 375.668442 265.246259 
L 375.623819 268.014471 
L 375.583116 270.782682 
L 375.549325 273.550893 
L 375.52569 276.319105 
L 375.515731 279.087316 
L 375.523266 281.855528 
L 375.55246 284.623739 
L 375.607881 287.39195 
L 375.694559 290.160162 
L 375.818051 292.928373 
L 375.984496 295.696585 
L 376.200648 298.464796 
L 376.473886 301.233007 
L 376.812184 304.001219 
L 377.224017 306.76943 
L 377.71822 309.537642 
L 378.30376 312.305853 
L 378.989431 315.074064 
L 379.783473 317.842276 
L 380.693103 320.610487 
L 381.723986 323.378699 
L 382.879649 326.14691 
L 384.160882 328.915122 
L 385.565132 331.683333 
L 387.085957 334.451544 
L 388.712571 337.219756 
L 390.429516 339.987967 
L 392.216526 342.756179 
L 394.048599 345.52439 
L 395.896322 348.292601 
L 397.726447 351.060813 
L 399.502736 353.829024 
L 401.187039 356.597236 
L 402.740575 359.365447 
L 404.12536 362.133658 
L 405.305709 364.90187 
L 406.249731 367.670081 
L 406.930735 370.438293 
L 407.328451 373.206504 
L 407.43 375.974716 
L 407.23054 378.742927 
L 406.73355 381.511138 
L 405.950725 384.27935 
z
" clip-path="url(#p4415e4eca6)" style="fill: #1f77b4; fill-opacity: 0.3"/>
   </g>
   <g id="FillBetweenPolyCollection_5">
    <path d="M 489.692137 384.359166 
L 425.607863 384.359166 
L 424.891894 381.16037 
L 424.409746 377.961574 
L 424.17 374.762778 
L 424.175625 371.563982 
L 424.423922 368.365186 
L 424.906685 365.166391 
L 425.610582 361.967595 
L 426.517713 358.768799 
L 427.606341 355.570003 
L 428.851727 352.371207 
L 430.227044 349.172411 
L 431.704314 345.973615 
L 433.25533 342.774819 
L 434.852512 339.576023 
L 436.469674 336.377227 
L 438.082664 333.178431 
L 439.669869 329.979635 
L 441.212568 326.780839 
L 442.695141 323.582043 
L 444.105134 320.383248 
L 445.4332 317.184452 
L 446.672938 313.985656 
L 447.820639 310.78686 
L 448.874982 307.588064 
L 449.836683 304.389268 
L 450.708137 301.190472 
L 451.493054 297.991676 
L 452.196116 294.79288 
L 452.822668 291.594084 
L 453.378432 288.395288 
L 453.86928 285.196492 
L 454.301037 281.997696 
L 454.67933 278.7989 
L 455.009474 275.600104 
L 455.296402 272.401309 
L 455.544611 269.202513 
L 455.758148 266.003717 
L 455.940606 262.804921 
L 456.095147 259.606125 
L 456.224526 256.407329 
L 456.331132 253.208533 
L 456.417032 250.009737 
L 456.484018 246.810941 
L 456.53365 243.612145 
L 456.567308 240.413349 
L 456.58623 237.214553 
L 456.591549 234.015757 
L 456.584332 230.816961 
L 456.565602 227.618165 
L 456.536357 224.41937 
L 456.497587 221.220574 
L 456.45028 218.021778 
L 456.395421 214.822982 
L 456.333989 211.624186 
L 456.266946 208.42539 
L 456.195229 205.226594 
L 456.119732 202.027798 
L 456.041292 198.829002 
L 455.96068 195.630206 
L 455.878586 192.43141 
L 455.795617 189.232614 
L 455.712287 186.033818 
L 455.629027 182.835022 
L 455.546188 179.636227 
L 455.464055 176.437431 
L 455.382864 173.238635 
L 455.302817 170.039839 
L 455.22411 166.841043 
L 455.146946 163.642247 
L 455.071564 160.443451 
L 454.998249 157.244655 
L 454.927345 154.045859 
L 454.859269 150.847063 
L 454.794504 147.648267 
L 454.733602 144.449471 
L 454.677169 141.250675 
L 454.62585 138.051879 
L 454.580312 134.853083 
L 454.541223 131.654288 
L 454.509224 128.455492 
L 454.484916 125.256696 
L 454.46883 122.0579 
L 454.461419 118.859104 
L 454.46304 115.660308 
L 454.47395 112.461512 
L 454.494301 109.262716 
L 454.524137 106.06392 
L 454.563407 102.865124 
L 454.611961 99.666328 
L 454.669563 96.467532 
L 454.735901 93.268736 
L 454.810588 90.06994 
L 454.893172 86.871144 
L 454.983138 83.672349 
L 455.079914 80.473553 
L 455.182867 77.274757 
L 455.291308 74.075961 
L 455.404495 70.877165 
L 455.521625 67.678369 
L 459.778375 67.678369 
L 459.778375 67.678369 
L 459.895505 70.877165 
L 460.008692 74.075961 
L 460.117133 77.274757 
L 460.220086 80.473553 
L 460.316862 83.672349 
L 460.406828 86.871144 
L 460.489412 90.06994 
L 460.564099 93.268736 
L 460.630437 96.467532 
L 460.688039 99.666328 
L 460.736593 102.865124 
L 460.775863 106.06392 
L 460.805699 109.262716 
L 460.82605 112.461512 
L 460.83696 115.660308 
L 460.838581 118.859104 
L 460.83117 122.0579 
L 460.815084 125.256696 
L 460.790776 128.455492 
L 460.758777 131.654288 
L 460.719688 134.853083 
L 460.67415 138.051879 
L 460.622831 141.250675 
L 460.566398 144.449471 
L 460.505496 147.648267 
L 460.440731 150.847063 
L 460.372655 154.045859 
L 460.301751 157.244655 
L 460.228436 160.443451 
L 460.153054 163.642247 
L 460.07589 166.841043 
L 459.997183 170.039839 
L 459.917136 173.238635 
L 459.835945 176.437431 
L 459.753812 179.636227 
L 459.670973 182.835022 
L 459.587713 186.033818 
L 459.504383 189.232614 
L 459.421414 192.43141 
L 459.33932 195.630206 
L 459.258708 198.829002 
L 459.180268 202.027798 
L 459.104771 205.226594 
L 459.033054 208.42539 
L 458.966011 211.624186 
L 458.904579 214.822982 
L 458.84972 218.021778 
L 458.802413 221.220574 
L 458.763643 224.41937 
L 458.734398 227.618165 
L 458.715668 230.816961 
L 458.708451 234.015757 
L 458.71377 237.214553 
L 458.732692 240.413349 
L 458.76635 243.612145 
L 458.815982 246.810941 
L 458.882968 250.009737 
L 458.968868 253.208533 
L 459.075474 256.407329 
L 459.204853 259.606125 
L 459.359394 262.804921 
L 459.541852 266.003717 
L 459.755389 269.202513 
L 460.003598 272.401309 
L 460.290526 275.600104 
L 460.62067 278.7989 
L 460.998963 281.997696 
L 461.43072 285.196492 
L 461.921568 288.395288 
L 462.477332 291.594084 
L 463.103884 294.79288 
L 463.806946 297.991676 
L 464.591863 301.190472 
L 465.463317 304.389268 
L 466.425018 307.588064 
L 467.479361 310.78686 
L 468.627062 313.985656 
L 469.8668 317.184452 
L 471.194866 320.383248 
L 472.604859 323.582043 
L 474.087432 326.780839 
L 475.630131 329.979635 
L 477.217336 333.178431 
L 478.830326 336.377227 
L 480.447488 339.576023 
L 482.04467 342.774819 
L 483.595686 345.973615 
L 485.072956 349.172411 
L 486.448273 352.371207 
L 487.693659 355.570003 
L 488.782287 358.768799 
L 489.689418 361.967595 
L 490.393315 365.166391 
L 490.876078 368.365186 
L 491.124375 371.563982 
L 491.13 374.762778 
L 490.890254 377.961574 
L 490.408106 381.16037 
L 489.692137 384.359166 
z
" clip-path="url(#p4415e4eca6)" style="fill: #1f77b4; fill-opacity: 0.3"/>
   </g>
   <g id="FillBetweenPolyCollection_6">
    <path d="M 572.252447 383.716626 
L 510.447553 383.716626 
L 509.391127 380.558252 
L 508.597687 377.399879 
L 508.086694 374.241505 
L 507.87 371.083131 
L 507.951329 367.924758 
L 508.326144 364.766384 
L 508.981879 361.608011 
L 509.898543 358.449637 
L 511.049638 355.291263 
L 512.403342 352.13289 
L 513.923881 348.974516 
L 515.573007 345.816142 
L 517.311501 342.657769 
L 519.100613 339.499395 
L 520.903379 336.341021 
L 522.685747 333.182648 
L 524.417479 330.024274 
L 526.072799 326.8659 
L 527.630785 323.707527 
L 529.075512 320.549153 
L 530.395977 317.39078 
L 531.585824 314.232406 
L 532.642929 311.074032 
L 533.568869 307.915659 
L 534.368332 304.757285 
L 535.048494 301.598911 
L 535.618406 298.440538 
L 536.088415 295.282164 
L 536.469633 292.12379 
L 536.773479 288.965417 
L 537.011289 285.807043 
L 537.194 282.64867 
L 537.331911 279.490296 
L 537.434502 276.331922 
L 537.510317 273.173549 
L 537.566898 270.015175 
L 537.610757 266.856801 
L 537.647383 263.698428 
L 537.681279 260.540054 
L 537.716019 257.38168 
L 537.754315 254.223307 
L 537.798103 251.064933 
L 537.84863 247.906559 
L 537.906547 244.748186 
L 537.972006 241.589812 
L 538.044745 238.431439 
L 538.124187 235.273065 
L 538.209518 232.114691 
L 538.299763 228.956318 
L 538.393857 225.797944 
L 538.4907 222.63957 
L 538.58921 219.481197 
L 538.688352 216.322823 
L 538.787171 213.164449 
L 538.884799 210.006076 
L 538.980468 206.847702 
L 539.073505 203.689328 
L 539.16332 200.530955 
L 539.249398 197.372581 
L 539.331282 194.214208 
L 539.40856 191.055834 
L 539.480849 187.89746 
L 539.547792 184.739087 
L 539.609049 181.580713 
L 539.664297 178.422339 
L 539.713238 175.263966 
L 539.755603 172.105592 
L 539.791166 168.947218 
L 539.819753 165.788845 
L 539.841255 162.630471 
L 539.855634 159.472097 
L 539.862936 156.313724 
L 539.86329 153.15535 
L 539.856909 149.996977 
L 539.844094 146.838603 
L 539.825224 143.680229 
L 539.800756 140.521856 
L 539.771222 137.363482 
L 539.737226 134.205108 
L 539.699442 131.046735 
L 539.658623 127.888361 
L 539.615597 124.729987 
L 539.571275 121.571614 
L 539.526653 118.41324 
L 539.48281 115.254867 
L 539.440907 112.096493 
L 539.402171 108.938119 
L 539.367878 105.779746 
L 539.339326 102.621372 
L 539.317794 99.462998 
L 539.304505 96.304625 
L 539.300572 93.146251 
L 539.306955 89.987877 
L 539.324404 86.829504 
L 539.353421 83.67113 
L 539.394221 80.512756 
L 539.446711 77.354383 
L 539.510475 74.196009 
L 539.584782 71.037636 
L 543.115218 71.037636 
L 543.115218 71.037636 
L 543.189525 74.196009 
L 543.253289 77.354383 
L 543.305779 80.512756 
L 543.346579 83.67113 
L 543.375596 86.829504 
L 543.393045 89.987877 
L 543.399428 93.146251 
L 543.395495 96.304625 
L 543.382206 99.462998 
L 543.360674 102.621372 
L 543.332122 105.779746 
L 543.297829 108.938119 
L 543.259093 112.096493 
L 543.21719 115.254867 
L 543.173347 118.41324 
L 543.128725 121.571614 
L 543.084403 124.729987 
L 543.041377 127.888361 
L 543.000558 131.046735 
L 542.962774 134.205108 
L 542.928778 137.363482 
L 542.899244 140.521856 
L 542.874776 143.680229 
L 542.855906 146.838603 
L 542.843091 149.996977 
L 542.83671 153.15535 
L 542.837064 156.313724 
L 542.844366 159.472097 
L 542.858745 162.630471 
L 542.880247 165.788845 
L 542.908834 168.947218 
L 542.944397 172.105592 
L 542.986762 175.263966 
L 543.035703 178.422339 
L 543.090951 181.580713 
L 543.152208 184.739087 
L 543.219151 187.89746 
L 543.29144 191.055834 
L 543.368718 194.214208 
L 543.450602 197.372581 
L 543.53668 200.530955 
L 543.626495 203.689328 
L 543.719532 206.847702 
L 543.815201 210.006076 
L 543.912829 213.164449 
L 544.011648 216.322823 
L 544.11079 219.481197 
L 544.2093 222.63957 
L 544.306143 225.797944 
L 544.400237 228.956318 
L 544.490482 232.114691 
L 544.575813 235.273065 
L 544.655255 238.431439 
L 544.727994 241.589812 
L 544.793453 244.748186 
L 544.85137 247.906559 
L 544.901897 251.064933 
L 544.945685 254.223307 
L 544.983981 257.38168 
L 545.018721 260.540054 
L 545.052617 263.698428 
L 545.089243 266.856801 
L 545.133102 270.015175 
L 545.189683 273.173549 
L 545.265498 276.331922 
L 545.368089 279.490296 
L 545.506 282.64867 
L 545.688711 285.807043 
L 545.926521 288.965417 
L 546.230367 292.12379 
L 546.611585 295.282164 
L 547.081594 298.440538 
L 547.651506 301.598911 
L 548.331668 304.757285 
L 549.131131 307.915659 
L 550.057071 311.074032 
L 551.114176 314.232406 
L 552.304023 317.39078 
L 553.624488 320.549153 
L 555.069215 323.707527 
L 556.627201 326.8659 
L 558.282521 330.024274 
L 560.014253 333.182648 
L 561.796621 336.341021 
L 563.599387 339.499395 
L 565.388499 342.657769 
L 567.126993 345.816142 
L 568.776119 348.974516 
L 570.296658 352.13289 
L 571.650362 355.291263 
L 572.801457 358.449637 
L 573.718121 361.608011 
L 574.373856 364.766384 
L 574.748671 367.924758 
L 574.83 371.083131 
L 574.613306 374.241505 
L 574.102313 377.399879 
L 573.308873 380.558252 
L 572.252447 383.716626 
z
" clip-path="url(#p4415e4eca6)" style="fill: #1f77b4; fill-opacity: 0.3"/>
   </g>
   <g id="matplotlib.axis_1">
    <g id="xtick_1">
     <g id="line2d_1">
      <defs>
       <path id="m1fd11c9ab3" d="M 0 0 
L 0 3.5 
" style="stroke: #000000; stroke-width: 0.8"/>
      </defs>
      <g>
       <use xlink:href="#m1fd11c9ab3" x="122.85" y="384.48" style="stroke: #000000; stroke-width: 0.8"/>
      </g>
     </g>
     <g id="text_1">
      <!-- Arrow -->
      <g transform="translate(111.26625 397.55875) scale(0.08 -0.08)">
       <defs>
        <path id="DejaVuSans-41" d="M 2188 4044 
L 1331 1722 
L 3047 1722 
L 2188 4044 
z
M 1831 4666 
L 2547 4666 
L 4325 0 
L 3669 0 
L 3244 1197 
L 1141 1197 
L 716 0 
L 50 0 
L 1831 4666 
z
" transform="scale(0.015625)"/>
        <path id="DejaVuSans-72" d="M 2631 2963 
Q 2534 3019 2420 3045 
Q 2306 3072 2169 3072 
Q 1681 3072 1420 2755 
Q 1159 2438 1159 1844 
L 1159 0 
L 581 0 
L 581 3500 
L 1159 3500 
L 1159 2956 
Q 1341 3275 1631 3429 
Q 1922 3584 2338 3584 
Q 2397 3584 2469 3576 
Q 2541 3569 2628 3553 
L 2631 2963 
z
" transform="scale(0.015625)"/>
        <path id="DejaVuSans-6f" d="M 1959 3097 
Q 1497 3097 1228 2736 
Q 959 2375 959 1747 
Q 959 1119 1226 758 
Q 1494 397 1959 397 
Q 2419 397 2687 759 
Q 2956 1122 2956 1747 
Q 2956 2369 2687 2733 
Q 2419 3097 1959 3097 
z
M 1959 3584 
Q 2709 3584 3137 3096 
Q 3566 2609 3566 1747 
Q 3566 888 3137 398 
Q 2709 -91 1959 -91 
Q 1206 -91 779 398 
Q 353 888 353 1747 
Q 353 2609 779 3096 
Q 1206 3584 1959 3584 
z
" transform="scale(0.015625)"/>
        <path id="DejaVuSans-77" d="M 269 3500 
L 844 3500 
L 1563 769 
L 2278 3500 
L 2956 3500 
L 3675 769 
L 4391 3500 
L 4966 3500 
L 4050 0 
L 3372 0 
L 2619 2869 
L 1863 0 
L 1184 0 
L 269 3500 
z
" transform="scale(0.015625)"/>
       </defs>
       <use xlink:href="#DejaVuSans-41"/>
       <use xlink:href="#DejaVuSans-72" transform="translate(68.408203 0)"/>
       <use xlink:href="#DejaVuSans-72" transform="translate(107.771484 0)"/>
       <use xlink:href="#DejaVuSans-6f" transform="translate(146.634766 0)"/>
       <use xlink:href="#DejaVuSans-77" transform="translate(207.816406 0)"/>
      </g>
     </g>
    </g>
    <g id="xtick_2">
     <g id="line2d_2">
      <g>
       <use xlink:href="#m1fd11c9ab3" x="206.55" y="384.48" style="stroke: #000000; stroke-width: 0.8"/>
      </g>
     </g>
     <g id="text_2">
      <!-- Radar -->
      <g transform="translate(194.774375 397.55875) scale(0.08 -0.08)">
       <defs>
        <path id="DejaVuSans-52" d="M 2841 2188 
Q 3044 2119 3236 1894 
Q 3428 1669 3622 1275 
L 4263 0 
L 3584 0 
L 2988 1197 
Q 2756 1666 2539 1819 
Q 2322 1972 1947 1972 
L 1259 1972 
L 1259 0 
L 628 0 
L 628 4666 
L 2053 4666 
Q 2853 4666 3247 4331 
Q 3641 3997 3641 3322 
Q 3641 2881 3436 2590 
Q 3231 2300 2841 2188 
z
M 1259 4147 
L 1259 2491 
L 2053 2491 
Q 2509 2491 2742 2702 
Q 2975 2913 2975 3322 
Q 2975 3731 2742 3939 
Q 2509 4147 2053 4147 
L 1259 4147 
z
" transform="scale(0.015625)"/>
        <path id="DejaVuSans-61" d="M 2194 1759 
Q 1497 1759 1228 1600 
Q 959 1441 959 1056 
Q 959 750 1161 570 
Q 1363 391 1709 391 
Q 2188 391 2477 730 
Q 2766 1069 2766 1631 
L 2766 1759 
L 2194 1759 
z
M 3341 1997 
L 3341 0 
L 2766 0 
L 2766 531 
Q 2569 213 2275 61 
Q 1981 -91 1556 -91 
Q 1019 -91 701 211 
Q 384 513 384 1019 
Q 384 1609 779 1909 
Q 1175 2209 1959 2209 
L 2766 2209 
L 2766 2266 
Q 2766 2663 2505 2880 
Q 2244 3097 1772 3097 
Q 1472 3097 1187 3025 
Q 903 2953 641 2809 
L 641 3341 
Q 956 3463 1253 3523 
Q 1550 3584 1831 3584 
Q 2591 3584 2966 3190 
Q 3341 2797 3341 1997 
z
" transform="scale(0.015625)"/>
        <path id="DejaVuSans-64" d="M 2906 2969 
L 2906 4863 
L 3481 4863 
L 3481 0 
L 2906 0 
L 2906 525 
Q 2725 213 2448 61 
Q 2172 -91 1784 -91 
Q 1150 -91 751 415 
Q 353 922 353 1747 
Q 353 2572 751 3078 
Q 1150 3584 1784 3584 
Q 2172 3584 2448 3432 
Q 2725 3281 2906 2969 
z
M 947 1747 
Q 947 1113 1208 752 
Q 1469 391 1925 391 
Q 2381 391 2643 752 
Q 2906 1113 2906 1747 
Q 2906 2381 2643 2742 
Q 2381 3103 1925 3103 
Q 1469 3103 1208 2742 
Q 947 2381 947 1747 
z
" transform="scale(0.015625)"/>
       </defs>
       <use xlink:href="#DejaVuSans-52"/>
       <use xlink:href="#DejaVuSans-61" transform="translate(67.232422 0)"/>
       <use xlink:href="#DejaVuSans-64" transform="translate(128.511719 0)"/>
       <use xlink:href="#DejaVuSans-61" transform="translate(191.988281 0)"/>
       <use xlink:href="#DejaVuSans-72" transform="translate(253.267578 0)"/>
      </g>
     </g>
    </g>
    <g id="xtick_3">
     <g id="line2d_3">
      <g>
       <use xlink:href="#m1fd11c9ab3" x="290.25" y="384.48" style="stroke: #000000; stroke-width: 0.8"/>
      </g>
     </g>
     <g id="text_3">
      <!-- Lights -->
      <g transform="translate(278.18375 397.55875) scale(0.08 -0.08)">
       <defs>
        <path id="DejaVuSans-4c" d="M 628 4666 
L 1259 4666 
L 1259 531 
L 3531 531 
L 3531 0 
L 628 0 
L 628 4666 
z
" transform="scale(0.015625)"/>
        <path id="DejaVuSans-69" d="M 603 3500 
L 1178 3500 
L 1178 0 
L 603 0 
L 603 3500 
z
M 603 4863 
L 1178 4863 
L 1178 4134 
L 603 4134 
L 603 4863 
z
" transform="scale(0.015625)"/>
        <path id="DejaVuSans-67" d="M 2906 1791 
Q 2906 2416 2648 2759 
Q 2391 3103 1925 3103 
Q 1463 3103 1205 2759 
Q 947 2416 947 1791 
Q 947 1169 1205 825 
Q 1463 481 1925 481 
Q 2391 481 2648 825 
Q 2906 1169 2906 1791 
z
M 3481 434 
Q 3481 -459 3084 -895 
Q 2688 -1331 1869 -1331 
Q 1566 -1331 1297 -1286 
Q 1028 -1241 775 -1147 
L 775 -588 
Q 1028 -725 1275 -790 
Q 1522 -856 1778 -856 
Q 2344 -856 2625 -561 
Q 2906 -266 2906 331 
L 2906 616 
Q 2728 306 2450 153 
Q 2172 0 1784 0 
Q 1141 0 747 490 
Q 353 981 353 1791 
Q 353 2603 747 3093 
Q 1141 3584 1784 3584 
Q 2172 3584 2450 3431 
Q 2728 3278 2906 2969 
L 2906 3500 
L 3481 3500 
L 3481 434 
z
" transform="scale(0.015625)"/>
        <path id="DejaVuSans-68" d="M 3513 2113 
L 3513 0 
L 2938 0 
L 2938 2094 
Q 2938 2591 2744 2837 
Q 2550 3084 2163 3084 
Q 1697 3084 1428 2787 
Q 1159 2491 1159 1978 
L 1159 0 
L 581 0 
L 581 4863 
L 1159 4863 
L 1159 2956 
Q 1366 3272 1645 3428 
Q 1925 3584 2291 3584 
Q 2894 3584 3203 3211 
Q 3513 2838 3513 2113 
z
" transform="scale(0.015625)"/>
        <path id="DejaVuSans-74" d="M 1172 4494 
L 1172 3500 
L 2356 3500 
L 2356 3053 
L 1172 3053 
L 1172 1153 
Q 1172 725 1289 603 
Q 1406 481 1766 481 
L 2356 481 
L 2356 0 
L 1766 0 
Q 1100 0 847 248 
Q 594 497 594 1153 
L 594 3053 
L 172 3053 
L 172 3500 
L 594 3500 
L 594 4494 
L 1172 4494 
z
" transform="scale(0.015625)"/>
        <path id="DejaVuSans-73" d="M 2834 3397 
L 2834 2853 
Q 2591 2978 2328 3040 
Q 2066 3103 1784 3103 
Q 1356 3103 1142 2972 
Q 928 2841 928 2578 
Q 928 2378 1081 2264 
Q 1234 2150 1697 2047 
L 1894 2003 
Q 2506 1872 2764 1633 
Q 3022 1394 3022 966 
Q 3022 478 2636 193 
Q 2250 -91 1575 -91 
Q 1294 -91 989 -36 
Q 684 19 347 128 
L 347 722 
Q 666 556 975 473 
Q 1284 391 1588 391 
Q 1994 391 2212 530 
Q 2431 669 2431 922 
Q 2431 1156 2273 1281 
Q 2116 1406 1581 1522 
L 1381 1569 
Q 847 1681 609 1914 
Q 372 2147 372 2553 
Q 372 3047 722 3315 
Q 1072 3584 1716 3584 
Q 2034 3584 2315 3537 
Q 2597 3491 2834 3397 
z
" transform="scale(0.015625)"/>
       </defs>
       <use xlink:href="#DejaVuSans-4c"/>
       <use xlink:href="#DejaVuSans-69" transform="translate(55.712891 0)"/>
       <use xlink:href="#DejaVuSans-67" transform="translate(83.496094 0)"/>
       <use xlink:href="#DejaVuSans-68" transform="translate(146.972656 0)"/>
       <use xlink:href="#DejaVuSans-74" transform="translate(210.351562 0)"/>
       <use xlink:href="#DejaVuSans-73" transform="translate(249.560547 0)"/>
      </g>
     </g>
    </g>
    <g id="xtick_4">
     <g id="line2d_4">
      <g>
       <use xlink:href="#m1fd11c9ab3" x="373.95" y="384.48" style="stroke: #000000; stroke-width: 0.8"/>
      </g>
     </g>
     <g id="text_4">
      <!-- Arrow &amp; Radar -->
      <g transform="translate(344.92875 397.55875) scale(0.08 -0.08)">
       <defs>
        <path id="DejaVuSans-20" transform="scale(0.015625)"/>
        <path id="DejaVuSans-26" d="M 1556 2509 
Q 1272 2256 1139 2004 
Q 1006 1753 1006 1478 
Q 1006 1022 1337 719 
Q 1669 416 2169 416 
Q 2466 416 2725 514 
Q 2984 613 3213 813 
L 1556 2509 
z
M 1997 2859 
L 3584 1234 
Q 3769 1513 3872 1830 
Q 3975 2147 3994 2503 
L 4575 2503 
Q 4538 2091 4375 1687 
Q 4213 1284 3922 891 
L 4794 0 
L 4006 0 
L 3559 459 
Q 3234 181 2878 45 
Q 2522 -91 2113 -91 
Q 1359 -91 881 339 
Q 403 769 403 1441 
Q 403 1841 612 2192 
Q 822 2544 1241 2853 
Q 1091 3050 1012 3245 
Q 934 3441 934 3628 
Q 934 4134 1281 4442 
Q 1628 4750 2203 4750 
Q 2463 4750 2720 4694 
Q 2978 4638 3244 4525 
L 3244 3956 
Q 2972 4103 2725 4179 
Q 2478 4256 2266 4256 
Q 1938 4256 1733 4082 
Q 1528 3909 1528 3634 
Q 1528 3475 1620 3314 
Q 1713 3153 1997 2859 
z
" transform="scale(0.015625)"/>
       </defs>
       <use xlink:href="#DejaVuSans-41"/>
       <use xlink:href="#DejaVuSans-72" transform="translate(68.408203 0)"/>
       <use xlink:href="#DejaVuSans-72" transform="translate(107.771484 0)"/>
       <use xlink:href="#DejaVuSans-6f" transform="translate(146.634766 0)"/>
       <use xlink:href="#DejaVuSans-77" transform="translate(207.816406 0)"/>
       <use xlink:href="#DejaVuSans-20" transform="translate(289.603516 0)"/>
       <use xlink:href="#DejaVuSans-26" transform="translate(321.390625 0)"/>
       <use xlink:href="#DejaVuSans-20" transform="translate(399.369141 0)"/>
       <use xlink:href="#DejaVuSans-52" transform="translate(431.15625 0)"/>
       <use xlink:href="#DejaVuSans-61" transform="translate(498.388672 0)"/>
       <use xlink:href="#DejaVuSans-64" transform="translate(559.667969 0)"/>
       <use xlink:href="#DejaVuSans-61" transform="translate(623.144531 0)"/>
       <use xlink:href="#DejaVuSans-72" transform="translate(684.423828 0)"/>
      </g>
     </g>
    </g>
    <g id="xtick_5">
     <g id="line2d_5">
      <g>
       <use xlink:href="#m1fd11c9ab3" x="457.65" y="384.48" style="stroke: #000000; stroke-width: 0.8"/>
      </g>
     </g>
     <g id="text_5">
      <!-- Arrow &amp; Lights -->
      <g transform="translate(428.338125 397.55875) scale(0.08 -0.08)">
       <use xlink:href="#DejaVuSans-41"/>
       <use xlink:href="#DejaVuSans-72" transform="translate(68.408203 0)"/>
       <use xlink:href="#DejaVuSans-72" transform="translate(107.771484 0)"/>
       <use xlink:href="#DejaVuSans-6f" transform="translate(146.634766 0)"/>
       <use xlink:href="#DejaVuSans-77" transform="translate(207.816406 0)"/>
       <use xlink:href="#DejaVuSans-20" transform="translate(289.603516 0)"/>
       <use xlink:href="#DejaVuSans-26" transform="translate(321.390625 0)"/>
       <use xlink:href="#DejaVuSans-20" transform="translate(399.369141 0)"/>
       <use xlink:href="#DejaVuSans-4c" transform="translate(431.15625 0)"/>
       <use xlink:href="#DejaVuSans-69" transform="translate(486.869141 0)"/>
       <use xlink:href="#DejaVuSans-67" transform="translate(514.652344 0)"/>
       <use xlink:href="#DejaVuSans-68" transform="translate(578.128906 0)"/>
       <use xlink:href="#DejaVuSans-74" transform="translate(641.507812 0)"/>
       <use xlink:href="#DejaVuSans-73" transform="translate(680.716797 0)"/>
      </g>
     </g>
    </g>
    <g id="xtick_6">
     <g id="line2d_6">
      <g>
       <use xlink:href="#m1fd11c9ab3" x="541.35" y="384.48" style="stroke: #000000; stroke-width: 0.8"/>
      </g>
     </g>
     <g id="text_6">
      <!-- Lights &amp; Radar -->
      <g transform="translate(511.84625 397.55875) scale(0.08 -0.08)">
       <use xlink:href="#DejaVuSans-4c"/>
       <use xlink:href="#DejaVuSans-69" transform="translate(55.712891 0)"/>
       <use xlink:href="#DejaVuSans-67" transform="translate(83.496094 0)"/>
       <use xlink:href="#DejaVuSans-68" transform="translate(146.972656 0)"/>
       <use xlink:href="#DejaVuSans-74" transform="translate(210.351562 0)"/>
       <use xlink:href="#DejaVuSans-73" transform="translate(249.560547 0)"/>
       <use xlink:href="#DejaVuSans-20" transform="translate(301.660156 0)"/>
       <use xlink:href="#DejaVuSans-26" transform="translate(333.447266 0)"/>
       <use xlink:href="#DejaVuSans-20" transform="translate(411.425781 0)"/>
       <use xlink:href="#DejaVuSans-52" transform="translate(443.212891 0)"/>
       <use xlink:href="#DejaVuSans-61" transform="translate(510.445312 0)"/>
       <use xlink:href="#DejaVuSans-64" transform="translate(571.724609 0)"/>
       <use xlink:href="#DejaVuSans-61" transform="translate(635.201172 0)"/>
       <use xlink:href="#DejaVuSans-72" transform="translate(696.480469 0)"/>
      </g>
     </g>
    </g>
    <g id="text_7">
     <!-- Visualization -->
     <g transform="translate(300.521875 416.820938) scale(0.1 -0.1)">
      <defs>
       <path id="DejaVuSans-56" d="M 1831 0 
L 50 4666 
L 709 4666 
L 2188 738 
L 3669 4666 
L 4325 4666 
L 2547 0 
L 1831 0 
z
" transform="scale(0.015625)"/>
       <path id="DejaVuSans-75" d="M 544 1381 
L 544 3500 
L 1119 3500 
L 1119 1403 
Q 1119 906 1312 657 
Q 1506 409 1894 409 
Q 2359 409 2629 706 
Q 2900 1003 2900 1516 
L 2900 3500 
L 3475 3500 
L 3475 0 
L 2900 0 
L 2900 538 
Q 2691 219 2414 64 
Q 2138 -91 1772 -91 
Q 1169 -91 856 284 
Q 544 659 544 1381 
z
M 1991 3584 
L 1991 3584 
z
" transform="scale(0.015625)"/>
       <path id="DejaVuSans-6c" d="M 603 4863 
L 1178 4863 
L 1178 0 
L 603 0 
L 603 4863 
z
" transform="scale(0.015625)"/>
       <path id="DejaVuSans-7a" d="M 353 3500 
L 3084 3500 
L 3084 2975 
L 922 459 
L 3084 459 
L 3084 0 
L 275 0 
L 275 525 
L 2438 3041 
L 353 3041 
L 353 3500 
z
" transform="scale(0.015625)"/>
       <path id="DejaVuSans-6e" d="M 3513 2113 
L 3513 0 
L 2938 0 
L 2938 2094 
Q 2938 2591 2744 2837 
Q 2550 3084 2163 3084 
Q 1697 3084 1428 2787 
Q 1159 2491 1159 1978 
L 1159 0 
L 581 0 
L 581 3500 
L 1159 3500 
L 1159 2956 
Q 1366 3272 1645 3428 
Q 1925 3584 2291 3584 
Q 2894 3584 3203 3211 
Q 3513 2838 3513 2113 
z
" transform="scale(0.015625)"/>
      </defs>
      <use xlink:href="#DejaVuSans-56"/>
      <use xlink:href="#DejaVuSans-69" transform="translate(66.158203 0)"/>
      <use xlink:href="#DejaVuSans-73" transform="translate(93.941406 0)"/>
      <use xlink:href="#DejaVuSans-75" transform="translate(146.041016 0)"/>
      <use xlink:href="#DejaVuSans-61" transform="translate(209.419922 0)"/>
      <use xlink:href="#DejaVuSans-6c" transform="translate(270.699219 0)"/>
      <use xlink:href="#DejaVuSans-69" transform="translate(298.482422 0)"/>
      <use xlink:href="#DejaVuSans-7a" transform="translate(326.265625 0)"/>
      <use xlink:href="#DejaVuSans-61" transform="translate(378.755859 0)"/>
      <use xlink:href="#DejaVuSans-74" transform="translate(440.035156 0)"/>
      <use xlink:href="#DejaVuSans-69" transform="translate(479.244141 0)"/>
      <use xlink:href="#DejaVuSans-6f" transform="translate(507.027344 0)"/>
      <use xlink:href="#DejaVuSans-6e" transform="translate(568.208984 0)"/>
     </g>
    </g>
   </g>
   <g id="matplotlib.axis_2">
    <g id="ytick_1">
     <g id="line2d_7">
      <defs>
       <path id="m59e907f96e" d="M 0 0 
L -3.5 0 
" style="stroke: #000000; stroke-width: 0.8"/>
      </defs>
      <g>
       <use xlink:href="#m59e907f96e" x="81" y="384.48" style="stroke: #000000; stroke-width: 0.8"/>
      </g>
     </g>
     <g id="text_8">
      <!-- 0 -->
      <g transform="translate(67.6375 388.279219) scale(0.1 -0.1)">
       <defs>
        <path id="DejaVuSans-30" d="M 2034 4250 
Q 1547 4250 1301 3770 
Q 1056 3291 1056 2328 
Q 1056 1369 1301 889 
Q 1547 409 2034 409 
Q 2525 409 2770 889 
Q 3016 1369 3016 2328 
Q 3016 3291 2770 3770 
Q 2525 4250 2034 4250 
z
M 2034 4750 
Q 2819 4750 3233 4129 
Q 3647 3509 3647 2328 
Q 3647 1150 3233 529 
Q 2819 -91 2034 -91 
Q 1250 -91 836 529 
Q 422 1150 422 2328 
Q 422 3509 836 4129 
Q 1250 4750 2034 4750 
z
" transform="scale(0.015625)"/>
       </defs>
       <use xlink:href="#DejaVuSans-30"/>
      </g>
     </g>
    </g>
    <g id="ytick_2">
     <g id="line2d_8">
      <g>
       <use xlink:href="#m59e907f96e" x="81" y="340.150802" style="stroke: #000000; stroke-width: 0.8"/>
      </g>
     </g>
     <g id="text_9">
      <!-- 25 -->
      <g transform="translate(61.275 343.95002) scale(0.1 -0.1)">
       <defs>
        <path id="DejaVuSans-32" d="M 1228 531 
L 3431 531 
L 3431 0 
L 469 0 
L 469 531 
Q 828 903 1448 1529 
Q 2069 2156 2228 2338 
Q 2531 2678 2651 2914 
Q 2772 3150 2772 3378 
Q 2772 3750 2511 3984 
Q 2250 4219 1831 4219 
Q 1534 4219 1204 4116 
Q 875 4013 500 3803 
L 500 4441 
Q 881 4594 1212 4672 
Q 1544 4750 1819 4750 
Q 2544 4750 2975 4387 
Q 3406 4025 3406 3419 
Q 3406 3131 3298 2873 
Q 3191 2616 2906 2266 
Q 2828 2175 2409 1742 
Q 1991 1309 1228 531 
z
" transform="scale(0.015625)"/>
        <path id="DejaVuSans-35" d="M 691 4666 
L 3169 4666 
L 3169 4134 
L 1269 4134 
L 1269 2991 
Q 1406 3038 1543 3061 
Q 1681 3084 1819 3084 
Q 2600 3084 3056 2656 
Q 3513 2228 3513 1497 
Q 3513 744 3044 326 
Q 2575 -91 1722 -91 
Q 1428 -91 1123 -41 
Q 819 9 494 109 
L 494 744 
Q 775 591 1075 516 
Q 1375 441 1709 441 
Q 2250 441 2565 725 
Q 2881 1009 2881 1497 
Q 2881 1984 2565 2268 
Q 2250 2553 1709 2553 
Q 1456 2553 1204 2497 
Q 953 2441 691 2322 
L 691 4666 
z
" transform="scale(0.015625)"/>
       </defs>
       <use xlink:href="#DejaVuSans-32"/>
       <use xlink:href="#DejaVuSans-35" transform="translate(63.623047 0)"/>
      </g>
     </g>
    </g>
    <g id="ytick_3">
     <g id="line2d_9">
      <g>
       <use xlink:href="#m59e907f96e" x="81" y="295.821603" style="stroke: #000000; stroke-width: 0.8"/>
      </g>
     </g>
     <g id="text_10">
      <!-- 50 -->
      <g transform="translate(61.275 299.620822) scale(0.1 -0.1)">
       <use xlink:href="#DejaVuSans-35"/>
       <use xlink:href="#DejaVuSans-30" transform="translate(63.623047 0)"/>
      </g>
     </g>
    </g>
    <g id="ytick_4">
     <g id="line2d_10">
      <g>
       <use xlink:href="#m59e907f96e" x="81" y="251.492405" style="stroke: #000000; stroke-width: 0.8"/>
      </g>
     </g>
     <g id="text_11">
      <!-- 75 -->
      <g transform="translate(61.275 255.291623) scale(0.1 -0.1)">
       <defs>
        <path id="DejaVuSans-37" d="M 525 4666 
L 3525 4666 
L 3525 4397 
L 1831 0 
L 1172 0 
L 2766 4134 
L 525 4134 
L 525 4666 
z
" transform="scale(0.015625)"/>
       </defs>
       <use xlink:href="#DejaVuSans-37"/>
       <use xlink:href="#DejaVuSans-35" transform="translate(63.623047 0)"/>
      </g>
     </g>
    </g>
    <g id="ytick_5">
     <g id="line2d_11">
      <g>
       <use xlink:href="#m59e907f96e" x="81" y="207.163206" style="stroke: #000000; stroke-width: 0.8"/>
      </g>
     </g>
     <g id="text_12">
      <!-- 100 -->
      <g transform="translate(54.9125 210.962425) scale(0.1 -0.1)">
       <defs>
        <path id="DejaVuSans-31" d="M 794 531 
L 1825 531 
L 1825 4091 
L 703 3866 
L 703 4441 
L 1819 4666 
L 2450 4666 
L 2450 531 
L 3481 531 
L 3481 0 
L 794 0 
L 794 531 
z
" transform="scale(0.015625)"/>
       </defs>
       <use xlink:href="#DejaVuSans-31"/>
       <use xlink:href="#DejaVuSans-30" transform="translate(63.623047 0)"/>
       <use xlink:href="#DejaVuSans-30" transform="translate(127.246094 0)"/>
      </g>
     </g>
    </g>
    <g id="ytick_6">
     <g id="line2d_12">
      <g>
       <use xlink:href="#m59e907f96e" x="81" y="162.834008" style="stroke: #000000; stroke-width: 0.8"/>
      </g>
     </g>
     <g id="text_13">
      <!-- 125 -->
      <g transform="translate(54.9125 166.633226) scale(0.1 -0.1)">
       <use xlink:href="#DejaVuSans-31"/>
       <use xlink:href="#DejaVuSans-32" transform="translate(63.623047 0)"/>
       <use xlink:href="#DejaVuSans-35" transform="translate(127.246094 0)"/>
      </g>
     </g>
    </g>
    <g id="ytick_7">
     <g id="line2d_13">
      <g>
       <use xlink:href="#m59e907f96e" x="81" y="118.504809" style="stroke: #000000; stroke-width: 0.8"/>
      </g>
     </g>
     <g id="text_14">
      <!-- 150 -->
      <g transform="translate(54.9125 122.304028) scale(0.1 -0.1)">
       <use xlink:href="#DejaVuSans-31"/>
       <use xlink:href="#DejaVuSans-35" transform="translate(63.623047 0)"/>
       <use xlink:href="#DejaVuSans-30" transform="translate(127.246094 0)"/>
      </g>
     </g>
    </g>
    <g id="ytick_8">
     <g id="line2d_14">
      <g>
       <use xlink:href="#m59e907f96e" x="81" y="74.175611" style="stroke: #000000; stroke-width: 0.8"/>
      </g>
     </g>
     <g id="text_15">
      <!-- 175 -->
      <g transform="translate(54.9125 77.97483) scale(0.1 -0.1)">
       <use xlink:href="#DejaVuSans-31"/>
       <use xlink:href="#DejaVuSans-37" transform="translate(63.623047 0)"/>
       <use xlink:href="#DejaVuSans-35" transform="translate(127.246094 0)"/>
      </g>
     </g>
    </g>
    <g id="text_16">
     <!-- Angle Error -->
     <g transform="translate(42.832812 246.163125) rotate(-90) scale(0.1 -0.1)">
      <defs>
       <path id="DejaVuSans-65" d="M 3597 1894 
L 3597 1613 
L 953 1613 
Q 991 1019 1311 708 
Q 1631 397 2203 397 
Q 2534 397 2845 478 
Q 3156 559 3463 722 
L 3463 178 
Q 3153 47 2828 -22 
Q 2503 -91 2169 -91 
Q 1331 -91 842 396 
Q 353 884 353 1716 
Q 353 2575 817 3079 
Q 1281 3584 2069 3584 
Q 2775 3584 3186 3129 
Q 3597 2675 3597 1894 
z
M 3022 2063 
Q 3016 2534 2758 2815 
Q 2500 3097 2075 3097 
Q 1594 3097 1305 2825 
Q 1016 2553 972 2059 
L 3022 2063 
z
" transform="scale(0.015625)"/>
       <path id="DejaVuSans-45" d="M 628 4666 
L 3578 4666 
L 3578 4134 
L 1259 4134 
L 1259 2753 
L 3481 2753 
L 3481 2222 
L 1259 2222 
L 1259 531 
L 3634 531 
L 3634 0 
L 628 0 
L 628 4666 
z
" transform="scale(0.015625)"/>
      </defs>
      <use xlink:href="#DejaVuSans-41"/>
      <use xlink:href="#DejaVuSans-6e" transform="translate(68.408203 0)"/>
      <use xlink:href="#DejaVuSans-67" transform="translate(131.787109 0)"/>
      <use xlink:href="#DejaVuSans-6c" transform="translate(195.263672 0)"/>
      <use xlink:href="#DejaVuSans-65" transform="translate(223.046875 0)"/>
      <use xlink:href="#DejaVuSans-20" transform="translate(284.570312 0)"/>
      <use xlink:href="#DejaVuSans-45" transform="translate(316.357422 0)"/>
      <use xlink:href="#DejaVuSans-72" transform="translate(379.541016 0)"/>
      <use xlink:href="#DejaVuSans-72" transform="translate(418.904297 0)"/>
      <use xlink:href="#DejaVuSans-6f" transform="translate(457.767578 0)"/>
      <use xlink:href="#DejaVuSans-72" transform="translate(518.949219 0)"/>
     </g>
    </g>
   </g>
   <g id="LineCollection_1">
    <path d="M 106.11 126.996156 
L 139.59 126.996156 
" clip-path="url(#p4415e4eca6)" style="fill: none; stroke: #1f77b4; stroke-width: 1.5"/>
    <path d="M 189.81 74.315514 
L 223.29 74.315514 
" clip-path="url(#p4415e4eca6)" style="fill: none; stroke: #1f77b4; stroke-width: 1.5"/>
    <path d="M 273.51 331.518133 
L 306.99 331.518133 
" clip-path="url(#p4415e4eca6)" style="fill: none; stroke: #1f77b4; stroke-width: 1.5"/>
    <path d="M 357.21 110.22642 
L 390.69 110.22642 
" clip-path="url(#p4415e4eca6)" style="fill: none; stroke: #1f77b4; stroke-width: 1.5"/>
    <path d="M 440.91 67.678369 
L 474.39 67.678369 
" clip-path="url(#p4415e4eca6)" style="fill: none; stroke: #1f77b4; stroke-width: 1.5"/>
    <path d="M 524.61 71.037636 
L 558.09 71.037636 
" clip-path="url(#p4415e4eca6)" style="fill: none; stroke: #1f77b4; stroke-width: 1.5"/>
   </g>
   <g id="LineCollection_2">
    <path d="M 106.11 384.445747 
L 139.59 384.445747 
" clip-path="url(#p4415e4eca6)" style="fill: none; stroke: #1f77b4; stroke-width: 1.5"/>
    <path d="M 189.81 384.177564 
L 223.29 384.177564 
" clip-path="url(#p4415e4eca6)" style="fill: none; stroke: #1f77b4; stroke-width: 1.5"/>
    <path d="M 273.51 384.086863 
L 306.99 384.086863 
" clip-path="url(#p4415e4eca6)" style="fill: none; stroke: #1f77b4; stroke-width: 1.5"/>
    <path d="M 357.21 384.27935 
L 390.69 384.27935 
" clip-path="url(#p4415e4eca6)" style="fill: none; stroke: #1f77b4; stroke-width: 1.5"/>
    <path d="M 440.91 384.359166 
L 474.39 384.359166 
" clip-path="url(#p4415e4eca6)" style="fill: none; stroke: #1f77b4; stroke-width: 1.5"/>
    <path d="M 524.61 383.716626 
L 558.09 383.716626 
" clip-path="url(#p4415e4eca6)" style="fill: none; stroke: #1f77b4; stroke-width: 1.5"/>
   </g>
   <g id="LineCollection_3">
    <path d="M 122.85 384.445747 
L 122.85 126.996156 
" clip-path="url(#p4415e4eca6)" style="fill: none; stroke: #1f77b4; stroke-width: 1.5"/>
    <path d="M 206.55 384.177564 
L 206.55 74.315514 
" clip-path="url(#p4415e4eca6)" style="fill: none; stroke: #1f77b4; stroke-width: 1.5"/>
    <path d="M 290.25 384.086863 
L 290.25 331.518133 
" clip-path="url(#p4415e4eca6)" style="fill: none; stroke: #1f77b4; stroke-width: 1.5"/>
    <path d="M 373.95 384.27935 
L 373.95 110.22642 
" clip-path="url(#p4415e4eca6)" style="fill: none; stroke: #1f77b4; stroke-width: 1.5"/>
    <path d="M 457.65 384.359166 
L 457.65 67.678369 
" clip-path="url(#p4415e4eca6)" style="fill: none; stroke: #1f77b4; stroke-width: 1.5"/>
    <path d="M 541.35 383.716626 
L 541.35 71.037636 
" clip-path="url(#p4415e4eca6)" style="fill: none; stroke: #1f77b4; stroke-width: 1.5"/>
   </g>
   <g id="patch_3">
    <path d="M 110.295 379.672482 
L 135.405 379.672482 
L 135.405 360.732228 
L 110.295 360.732228 
L 110.295 379.672482 
z
" clip-path="url(#p4415e4eca6)" style="fill: #add8e6; stroke: #000000; stroke-linejoin: miter"/>
   </g>
   <g id="line2d_15">
    <path d="M 122.85 379.672482 
L 122.85 384.445747 
" clip-path="url(#p4415e4eca6)" style="fill: none; stroke: #000000; stroke-linecap: square"/>
   </g>
   <g id="line2d_16">
    <path d="M 122.85 360.732228 
L 122.85 337.661416 
" clip-path="url(#p4415e4eca6)" style="fill: none; stroke: #000000; stroke-linecap: square"/>
   </g>
   <g id="line2d_17">
    <path d="M 116.5725 384.445747 
L 129.1275 384.445747 
" clip-path="url(#p4415e4eca6)" style="fill: none; stroke: #000000; stroke-linecap: square"/>
   </g>
   <g id="line2d_18">
    <path d="M 116.5725 337.661416 
L 129.1275 337.661416 
" clip-path="url(#p4415e4eca6)" style="fill: none; stroke: #000000; stroke-linecap: square"/>
   </g>
   <g id="line2d_19">
    <defs>
     <path id="m2603674dbe" d="M 0 2 
C 0.530406 2 1.03916 1.789267 1.414214 1.414214 
C 1.789267 1.03916 2 0.530406 2 0 
C 2 -0.530406 1.789267 -1.03916 1.414214 -1.414214 
C 1.03916 -1.789267 0.530406 -2 0 -2 
C -0.530406 -2 -1.03916 -1.789267 -1.414214 -1.414214 
C -1.789267 -1.03916 -2 -0.530406 -2 0 
C -2 0.530406 -1.789267 1.03916 -1.414214 1.414214 
C -1.03916 1.789267 -0.530406 2 0 2 
z
" style="stroke: #000000"/>
    </defs>
    <g clip-path="url(#p4415e4eca6)">
     <use xlink:href="#m2603674dbe" x="122.85" y="328.046643" style="fill-opacity: 0; stroke: #000000"/>
     <use xlink:href="#m2603674dbe" x="122.85" y="277.971405" style="fill-opacity: 0; stroke: #000000"/>
     <use xlink:href="#m2603674dbe" x="122.85" y="126.996156" style="fill-opacity: 0; stroke: #000000"/>
     <use xlink:href="#m2603674dbe" x="122.85" y="331.089878" style="fill-opacity: 0; stroke: #000000"/>
     <use xlink:href="#m2603674dbe" x="122.85" y="183.453114" style="fill-opacity: 0; stroke: #000000"/>
     <use xlink:href="#m2603674dbe" x="122.85" y="135.735569" style="fill-opacity: 0; stroke: #000000"/>
     <use xlink:href="#m2603674dbe" x="122.85" y="331.497299" style="fill-opacity: 0; stroke: #000000"/>
     <use xlink:href="#m2603674dbe" x="122.85" y="328.92906" style="fill-opacity: 0; stroke: #000000"/>
     <use xlink:href="#m2603674dbe" x="122.85" y="193.674718" style="fill-opacity: 0; stroke: #000000"/>
    </g>
   </g>
   <g id="patch_4">
    <path d="M 193.995 377.320702 
L 219.105 377.320702 
L 219.105 347.821881 
L 193.995 347.821881 
L 193.995 377.320702 
z
" clip-path="url(#p4415e4eca6)" style="fill: #add8e6; stroke: #000000; stroke-linejoin: miter"/>
   </g>
   <g id="line2d_20">
    <path d="M 206.55 377.320702 
L 206.55 384.177564 
" clip-path="url(#p4415e4eca6)" style="fill: none; stroke: #000000; stroke-linecap: square"/>
   </g>
   <g id="line2d_21">
    <path d="M 206.55 347.821881 
L 206.55 307.727291 
" clip-path="url(#p4415e4eca6)" style="fill: none; stroke: #000000; stroke-linecap: square"/>
   </g>
   <g id="line2d_22">
    <path d="M 200.2725 384.177564 
L 212.8275 384.177564 
" clip-path="url(#p4415e4eca6)" style="fill: none; stroke: #000000; stroke-linecap: square"/>
   </g>
   <g id="line2d_23">
    <path d="M 200.2725 307.727291 
L 212.8275 307.727291 
" clip-path="url(#p4415e4eca6)" style="fill: none; stroke: #000000; stroke-linecap: square"/>
   </g>
   <g id="line2d_24">
    <g clip-path="url(#p4415e4eca6)">
     <use xlink:href="#m2603674dbe" x="206.55" y="290.682395" style="fill-opacity: 0; stroke: #000000"/>
     <use xlink:href="#m2603674dbe" x="206.55" y="162.513951" style="fill-opacity: 0; stroke: #000000"/>
     <use xlink:href="#m2603674dbe" x="206.55" y="74.315514" style="fill-opacity: 0; stroke: #000000"/>
     <use xlink:href="#m2603674dbe" x="206.55" y="194.571586" style="fill-opacity: 0; stroke: #000000"/>
     <use xlink:href="#m2603674dbe" x="206.55" y="193.049321" style="fill-opacity: 0; stroke: #000000"/>
     <use xlink:href="#m2603674dbe" x="206.55" y="287.010678" style="fill-opacity: 0; stroke: #000000"/>
     <use xlink:href="#m2603674dbe" x="206.55" y="95.208752" style="fill-opacity: 0; stroke: #000000"/>
     <use xlink:href="#m2603674dbe" x="206.55" y="98.91219" style="fill-opacity: 0; stroke: #000000"/>
     <use xlink:href="#m2603674dbe" x="206.55" y="173.007027" style="fill-opacity: 0; stroke: #000000"/>
     <use xlink:href="#m2603674dbe" x="206.55" y="271.084474" style="fill-opacity: 0; stroke: #000000"/>
     <use xlink:href="#m2603674dbe" x="206.55" y="79.350424" style="fill-opacity: 0; stroke: #000000"/>
     <use xlink:href="#m2603674dbe" x="206.55" y="81.374141" style="fill-opacity: 0; stroke: #000000"/>
     <use xlink:href="#m2603674dbe" x="206.55" y="157.926411" style="fill-opacity: 0; stroke: #000000"/>
     <use xlink:href="#m2603674dbe" x="206.55" y="260.818807" style="fill-opacity: 0; stroke: #000000"/>
     <use xlink:href="#m2603674dbe" x="206.55" y="303.263146" style="fill-opacity: 0; stroke: #000000"/>
     <use xlink:href="#m2603674dbe" x="206.55" y="170.436997" style="fill-opacity: 0; stroke: #000000"/>
    </g>
   </g>
   <g id="patch_5">
    <path d="M 277.695 371.630438 
L 302.805 371.630438 
L 302.805 351.651985 
L 277.695 351.651985 
L 277.695 371.630438 
z
" clip-path="url(#p4415e4eca6)" style="fill: #add8e6; stroke: #000000; stroke-linejoin: miter"/>
   </g>
   <g id="line2d_25">
    <path d="M 290.25 371.630438 
L 290.25 384.086863 
" clip-path="url(#p4415e4eca6)" style="fill: none; stroke: #000000; stroke-linecap: square"/>
   </g>
   <g id="line2d_26">
    <path d="M 290.25 351.651985 
L 290.25 331.518133 
" clip-path="url(#p4415e4eca6)" style="fill: none; stroke: #000000; stroke-linecap: square"/>
   </g>
   <g id="line2d_27">
    <path d="M 283.9725 384.086863 
L 296.5275 384.086863 
" clip-path="url(#p4415e4eca6)" style="fill: none; stroke: #000000; stroke-linecap: square"/>
   </g>
   <g id="line2d_28">
    <path d="M 283.9725 331.518133 
L 296.5275 331.518133 
" clip-path="url(#p4415e4eca6)" style="fill: none; stroke: #000000; stroke-linecap: square"/>
   </g>
   <g id="line2d_29"/>
   <g id="patch_6">
    <path d="M 361.395 380.156624 
L 386.505 380.156624 
L 386.505 364.800677 
L 361.395 364.800677 
L 361.395 380.156624 
z
" clip-path="url(#p4415e4eca6)" style="fill: #add8e6; stroke: #000000; stroke-linejoin: miter"/>
   </g>
   <g id="line2d_30">
    <path d="M 373.95 380.156624 
L 373.95 384.27935 
" clip-path="url(#p4415e4eca6)" style="fill: none; stroke: #000000; stroke-linecap: square"/>
   </g>
   <g id="line2d_31">
    <path d="M 373.95 364.800677 
L 373.95 343.595198 
" clip-path="url(#p4415e4eca6)" style="fill: none; stroke: #000000; stroke-linecap: square"/>
   </g>
   <g id="line2d_32">
    <path d="M 367.6725 384.27935 
L 380.2275 384.27935 
" clip-path="url(#p4415e4eca6)" style="fill: none; stroke: #000000; stroke-linecap: square"/>
   </g>
   <g id="line2d_33">
    <path d="M 367.6725 343.595198 
L 380.2275 343.595198 
" clip-path="url(#p4415e4eca6)" style="fill: none; stroke: #000000; stroke-linecap: square"/>
   </g>
   <g id="line2d_34">
    <g clip-path="url(#p4415e4eca6)">
     <use xlink:href="#m2603674dbe" x="373.95" y="312.024493" style="fill-opacity: 0; stroke: #000000"/>
     <use xlink:href="#m2603674dbe" x="373.95" y="270.030414" style="fill-opacity: 0; stroke: #000000"/>
     <use xlink:href="#m2603674dbe" x="373.95" y="182.626818" style="fill-opacity: 0; stroke: #000000"/>
     <use xlink:href="#m2603674dbe" x="373.95" y="341.630776" style="fill-opacity: 0; stroke: #000000"/>
     <use xlink:href="#m2603674dbe" x="373.95" y="143.424557" style="fill-opacity: 0; stroke: #000000"/>
     <use xlink:href="#m2603674dbe" x="373.95" y="110.22642" style="fill-opacity: 0; stroke: #000000"/>
     <use xlink:href="#m2603674dbe" x="373.95" y="243.936847" style="fill-opacity: 0; stroke: #000000"/>
     <use xlink:href="#m2603674dbe" x="373.95" y="234.190382" style="fill-opacity: 0; stroke: #000000"/>
     <use xlink:href="#m2603674dbe" x="373.95" y="242.673855" style="fill-opacity: 0; stroke: #000000"/>
     <use xlink:href="#m2603674dbe" x="373.95" y="183.317112" style="fill-opacity: 0; stroke: #000000"/>
     <use xlink:href="#m2603674dbe" x="373.95" y="113.083526" style="fill-opacity: 0; stroke: #000000"/>
     <use xlink:href="#m2603674dbe" x="373.95" y="337.210765" style="fill-opacity: 0; stroke: #000000"/>
     <use xlink:href="#m2603674dbe" x="373.95" y="128.725172" style="fill-opacity: 0; stroke: #000000"/>
    </g>
   </g>
   <g id="patch_7">
    <path d="M 445.095 380.331629 
L 470.205 380.331629 
L 470.205 356.58387 
L 445.095 356.58387 
L 445.095 380.331629 
z
" clip-path="url(#p4415e4eca6)" style="fill: #add8e6; stroke: #000000; stroke-linejoin: miter"/>
   </g>
   <g id="line2d_35">
    <path d="M 457.65 380.331629 
L 457.65 384.359166 
" clip-path="url(#p4415e4eca6)" style="fill: none; stroke: #000000; stroke-linecap: square"/>
   </g>
   <g id="line2d_36">
    <path d="M 457.65 356.58387 
L 457.65 322.037714 
" clip-path="url(#p4415e4eca6)" style="fill: none; stroke: #000000; stroke-linecap: square"/>
   </g>
   <g id="line2d_37">
    <path d="M 451.3725 384.359166 
L 463.9275 384.359166 
" clip-path="url(#p4415e4eca6)" style="fill: none; stroke: #000000; stroke-linecap: square"/>
   </g>
   <g id="line2d_38">
    <path d="M 451.3725 322.037714 
L 463.9275 322.037714 
" clip-path="url(#p4415e4eca6)" style="fill: none; stroke: #000000; stroke-linecap: square"/>
   </g>
   <g id="line2d_39">
    <g clip-path="url(#p4415e4eca6)">
     <use xlink:href="#m2603674dbe" x="457.65" y="311.452433" style="fill-opacity: 0; stroke: #000000"/>
     <use xlink:href="#m2603674dbe" x="457.65" y="269.544318" style="fill-opacity: 0; stroke: #000000"/>
     <use xlink:href="#m2603674dbe" x="457.65" y="311.279868" style="fill-opacity: 0; stroke: #000000"/>
     <use xlink:href="#m2603674dbe" x="457.65" y="89.158171" style="fill-opacity: 0; stroke: #000000"/>
     <use xlink:href="#m2603674dbe" x="457.65" y="116.02131" style="fill-opacity: 0; stroke: #000000"/>
     <use xlink:href="#m2603674dbe" x="457.65" y="168.064676" style="fill-opacity: 0; stroke: #000000"/>
     <use xlink:href="#m2603674dbe" x="457.65" y="67.678369" style="fill-opacity: 0; stroke: #000000"/>
     <use xlink:href="#m2603674dbe" x="457.65" y="174.711219" style="fill-opacity: 0; stroke: #000000"/>
     <use xlink:href="#m2603674dbe" x="457.65" y="135.042083" style="fill-opacity: 0; stroke: #000000"/>
     <use xlink:href="#m2603674dbe" x="457.65" y="70.670412" style="fill-opacity: 0; stroke: #000000"/>
     <use xlink:href="#m2603674dbe" x="457.65" y="201.045954" style="fill-opacity: 0; stroke: #000000"/>
     <use xlink:href="#m2603674dbe" x="457.65" y="119.304331" style="fill-opacity: 0; stroke: #000000"/>
     <use xlink:href="#m2603674dbe" x="457.65" y="122.289282" style="fill-opacity: 0; stroke: #000000"/>
    </g>
   </g>
   <g id="patch_8">
    <path d="M 528.795 376.67377 
L 553.905 376.67377 
L 553.905 351.504666 
L 528.795 351.504666 
L 528.795 376.67377 
z
" clip-path="url(#p4415e4eca6)" style="fill: #add8e6; stroke: #000000; stroke-linejoin: miter"/>
   </g>
   <g id="line2d_40">
    <path d="M 541.35 376.67377 
L 541.35 383.716626 
" clip-path="url(#p4415e4eca6)" style="fill: none; stroke: #000000; stroke-linecap: square"/>
   </g>
   <g id="line2d_41">
    <path d="M 541.35 351.504666 
L 541.35 314.042517 
" clip-path="url(#p4415e4eca6)" style="fill: none; stroke: #000000; stroke-linecap: square"/>
   </g>
   <g id="line2d_42">
    <path d="M 535.0725 383.716626 
L 547.6275 383.716626 
" clip-path="url(#p4415e4eca6)" style="fill: none; stroke: #000000; stroke-linecap: square"/>
   </g>
   <g id="line2d_43">
    <path d="M 535.0725 314.042517 
L 547.6275 314.042517 
" clip-path="url(#p4415e4eca6)" style="fill: none; stroke: #000000; stroke-linecap: square"/>
   </g>
   <g id="line2d_44">
    <g clip-path="url(#p4415e4eca6)">
     <use xlink:href="#m2603674dbe" x="541.35" y="141.242142" style="fill-opacity: 0; stroke: #000000"/>
     <use xlink:href="#m2603674dbe" x="541.35" y="245.07109" style="fill-opacity: 0; stroke: #000000"/>
     <use xlink:href="#m2603674dbe" x="541.35" y="267.230618" style="fill-opacity: 0; stroke: #000000"/>
     <use xlink:href="#m2603674dbe" x="541.35" y="85.303836" style="fill-opacity: 0; stroke: #000000"/>
     <use xlink:href="#m2603674dbe" x="541.35" y="266.562435" style="fill-opacity: 0; stroke: #000000"/>
     <use xlink:href="#m2603674dbe" x="541.35" y="117.435412" style="fill-opacity: 0; stroke: #000000"/>
     <use xlink:href="#m2603674dbe" x="541.35" y="230.502547" style="fill-opacity: 0; stroke: #000000"/>
     <use xlink:href="#m2603674dbe" x="541.35" y="286.128598" style="fill-opacity: 0; stroke: #000000"/>
     <use xlink:href="#m2603674dbe" x="541.35" y="183.836118" style="fill-opacity: 0; stroke: #000000"/>
     <use xlink:href="#m2603674dbe" x="541.35" y="266.116004" style="fill-opacity: 0; stroke: #000000"/>
     <use xlink:href="#m2603674dbe" x="541.35" y="71.037636" style="fill-opacity: 0; stroke: #000000"/>
     <use xlink:href="#m2603674dbe" x="541.35" y="83.261855" style="fill-opacity: 0; stroke: #000000"/>
     <use xlink:href="#m2603674dbe" x="541.35" y="232.925652" style="fill-opacity: 0; stroke: #000000"/>
     <use xlink:href="#m2603674dbe" x="541.35" y="200.017339" style="fill-opacity: 0; stroke: #000000"/>
    </g>
   </g>
   <g id="line2d_45">
    <path d="M 110.295 375.563159 
L 135.405 375.563159 
" clip-path="url(#p4415e4eca6)" style="fill: none; stroke: #000000"/>
   </g>
   <g id="line2d_46">
    <path d="M 193.995 368.75599 
L 219.105 368.75599 
" clip-path="url(#p4415e4eca6)" style="fill: none; stroke: #000000"/>
   </g>
   <g id="line2d_47">
    <path d="M 277.695 362.916097 
L 302.805 362.916097 
" clip-path="url(#p4415e4eca6)" style="fill: none; stroke: #000000"/>
   </g>
   <g id="line2d_48">
    <path d="M 361.395 376.799157 
L 386.505 376.799157 
" clip-path="url(#p4415e4eca6)" style="fill: none; stroke: #000000"/>
   </g>
   <g id="line2d_49">
    <path d="M 445.095 373.905408 
L 470.205 373.905408 
" clip-path="url(#p4415e4eca6)" style="fill: none; stroke: #000000"/>
   </g>
   <g id="line2d_50">
    <path d="M 528.795 369.227471 
L 553.905 369.227471 
" clip-path="url(#p4415e4eca6)" style="fill: none; stroke: #000000"/>
   </g>
   <g id="patch_9">
    <path d="M 81 384.48 
L 81 51.84 
" style="fill: none; stroke: #000000; stroke-width: 0.8; stroke-linejoin: miter; stroke-linecap: square"/>
   </g>
   <g id="patch_10">
    <path d="M 583.2 384.48 
L 583.2 51.84 
" style="fill: none; stroke: #000000; stroke-width: 0.8; stroke-linejoin: miter; stroke-linecap: square"/>
   </g>
   <g id="patch_11">
    <path d="M 81 384.48 
L 583.2 384.48 
" style="fill: none; stroke: #000000; stroke-width: 0.8; stroke-linejoin: miter; stroke-linecap: square"/>
   </g>
   <g id="patch_12">
    <path d="M 81 51.84 
L 583.2 51.84 
" style="fill: none; stroke: #000000; stroke-width: 0.8; stroke-linejoin: miter; stroke-linecap: square"/>
   </g>
   <g id="text_17">
    <!-- Distance Distribution by Visualization -->
    <g transform="translate(219.887813 31.84) scale(0.12 -0.12)">
     <defs>
      <path id="DejaVuSans-44" d="M 1259 4147 
L 1259 519 
L 2022 519 
Q 2988 519 3436 956 
Q 3884 1394 3884 2338 
Q 3884 3275 3436 3711 
Q 2988 4147 2022 4147 
L 1259 4147 
z
M 628 4666 
L 1925 4666 
Q 3281 4666 3915 4102 
Q 4550 3538 4550 2338 
Q 4550 1131 3912 565 
Q 3275 0 1925 0 
L 628 0 
L 628 4666 
z
" transform="scale(0.015625)"/>
      <path id="DejaVuSans-63" d="M 3122 3366 
L 3122 2828 
Q 2878 2963 2633 3030 
Q 2388 3097 2138 3097 
Q 1578 3097 1268 2742 
Q 959 2388 959 1747 
Q 959 1106 1268 751 
Q 1578 397 2138 397 
Q 2388 397 2633 464 
Q 2878 531 3122 666 
L 3122 134 
Q 2881 22 2623 -34 
Q 2366 -91 2075 -91 
Q 1284 -91 818 406 
Q 353 903 353 1747 
Q 353 2603 823 3093 
Q 1294 3584 2113 3584 
Q 2378 3584 2631 3529 
Q 2884 3475 3122 3366 
z
" transform="scale(0.015625)"/>
      <path id="DejaVuSans-62" d="M 3116 1747 
Q 3116 2381 2855 2742 
Q 2594 3103 2138 3103 
Q 1681 3103 1420 2742 
Q 1159 2381 1159 1747 
Q 1159 1113 1420 752 
Q 1681 391 2138 391 
Q 2594 391 2855 752 
Q 3116 1113 3116 1747 
z
M 1159 2969 
Q 1341 3281 1617 3432 
Q 1894 3584 2278 3584 
Q 2916 3584 3314 3078 
Q 3713 2572 3713 1747 
Q 3713 922 3314 415 
Q 2916 -91 2278 -91 
Q 1894 -91 1617 61 
Q 1341 213 1159 525 
L 1159 0 
L 581 0 
L 581 4863 
L 1159 4863 
L 1159 2969 
z
" transform="scale(0.015625)"/>
      <path id="DejaVuSans-79" d="M 2059 -325 
Q 1816 -950 1584 -1140 
Q 1353 -1331 966 -1331 
L 506 -1331 
L 506 -850 
L 844 -850 
Q 1081 -850 1212 -737 
Q 1344 -625 1503 -206 
L 1606 56 
L 191 3500 
L 800 3500 
L 1894 763 
L 2988 3500 
L 3597 3500 
L 2059 -325 
z
" transform="scale(0.015625)"/>
     </defs>
     <use xlink:href="#DejaVuSans-44"/>
     <use xlink:href="#DejaVuSans-69" transform="translate(77.001953 0)"/>
     <use xlink:href="#DejaVuSans-73" transform="translate(104.785156 0)"/>
     <use xlink:href="#DejaVuSans-74" transform="translate(156.884766 0)"/>
     <use xlink:href="#DejaVuSans-61" transform="translate(196.09375 0)"/>
     <use xlink:href="#DejaVuSans-6e" transform="translate(257.373047 0)"/>
     <use xlink:href="#DejaVuSans-63" transform="translate(320.751953 0)"/>
     <use xlink:href="#DejaVuSans-65" transform="translate(375.732422 0)"/>
     <use xlink:href="#DejaVuSans-20" transform="translate(437.255859 0)"/>
     <use xlink:href="#DejaVuSans-44" transform="translate(469.042969 0)"/>
     <use xlink:href="#DejaVuSans-69" transform="translate(546.044922 0)"/>
     <use xlink:href="#DejaVuSans-73" transform="translate(573.828125 0)"/>
     <use xlink:href="#DejaVuSans-74" transform="translate(625.927734 0)"/>
     <use xlink:href="#DejaVuSans-72" transform="translate(665.136719 0)"/>
     <use xlink:href="#DejaVuSans-69" transform="translate(706.25 0)"/>
     <use xlink:href="#DejaVuSans-62" transform="translate(734.033203 0)"/>
     <use xlink:href="#DejaVuSans-75" transform="translate(797.509766 0)"/>
     <use xlink:href="#DejaVuSans-74" transform="translate(860.888672 0)"/>
     <use xlink:href="#DejaVuSans-69" transform="translate(900.097656 0)"/>
     <use xlink:href="#DejaVuSans-6f" transform="translate(927.880859 0)"/>
     <use xlink:href="#DejaVuSans-6e" transform="translate(989.0625 0)"/>
     <use xlink:href="#DejaVuSans-20" transform="translate(1052.441406 0)"/>
     <use xlink:href="#DejaVuSans-62" transform="translate(1084.228516 0)"/>
     <use xlink:href="#DejaVuSans-79" transform="translate(1147.705078 0)"/>
     <use xlink:href="#DejaVuSans-20" transform="translate(1206.884766 0)"/>
     <use xlink:href="#DejaVuSans-56" transform="translate(1238.671875 0)"/>
     <use xlink:href="#DejaVuSans-69" transform="translate(1304.830078 0)"/>
     <use xlink:href="#DejaVuSans-73" transform="translate(1332.613281 0)"/>
     <use xlink:href="#DejaVuSans-75" transform="translate(1384.712891 0)"/>
     <use xlink:href="#DejaVuSans-61" transform="translate(1448.091797 0)"/>
     <use xlink:href="#DejaVuSans-6c" transform="translate(1509.371094 0)"/>
     <use xlink:href="#DejaVuSans-69" transform="translate(1537.154297 0)"/>
     <use xlink:href="#DejaVuSans-7a" transform="translate(1564.9375 0)"/>
     <use xlink:href="#DejaVuSans-61" transform="translate(1617.427734 0)"/>
     <use xlink:href="#DejaVuSans-74" transform="translate(1678.707031 0)"/>
     <use xlink:href="#DejaVuSans-69" transform="translate(1717.916016 0)"/>
     <use xlink:href="#DejaVuSans-6f" transform="translate(1745.699219 0)"/>
     <use xlink:href="#DejaVuSans-6e" transform="translate(1806.880859 0)"/>
    </g>
   </g>
  </g>
 </g>
 <defs>
  <clipPath id="p4415e4eca6">
   <rect x="81" y="51.84" width="502.2" height="332.64"/>
  </clipPath>
 </defs>
</svg>
