<?xml version="1.0" encoding="utf-8" standalone="no"?>
<!DOCTYPE svg PUBLIC "-//W3C//DTD SVG 1.1//EN"
  "http://www.w3.org/Graphics/SVG/1.1/DTD/svg11.dtd">
<svg xmlns:xlink="http://www.w3.org/1999/xlink" width="648pt" height="432pt" viewBox="0 0 648 432" xmlns="http://www.w3.org/2000/svg" version="1.1">
 <metadata>
  <rdf:RDF xmlns:dc="http://purl.org/dc/elements/1.1/" xmlns:cc="http://creativecommons.org/ns#" xmlns:rdf="http://www.w3.org/1999/02/22-rdf-syntax-ns#">
   <cc:Work>
    <dc:type rdf:resource="http://purl.org/dc/dcmitype/StillImage"/>
    <dc:date>2026-03-16T13:32:01.118496</dc:date>
    <dc:format>image/svg+xml</dc:format>
    <dc:creator>
     <cc:Agent>
      <dc:title>Matplotlib v3.10.6, https://matplotlib.org/</dc:title>
     </cc:Agent>
    </dc:creator>
   </cc:Work>
  </rdf:RDF>
 </metadata>
 <defs>
  <style type="text/css">*{stroke-linejoin: round; stroke-linecap: butt}</style>
 </defs>
 <g id="figure_1">
  <g id="patch_1">
   <path d="M 0 432 
L 648 432 
L 648 0 
L 0 0 
z
" style="fill: #ffffff"/>
  </g>
  <g id="axes_1">
   <g id="patch_2">
    <path d="M 81 384.48 
L 583.2 384.48 
L 583.2 51.84 
L 81 51.84 
z
" style="fill: #ffffff"/>
   </g>
   <g id="FillBetweenPolyCollection_1">
    <path d="M 135.017835 246.835862 
L 110.682165 246.835862 
L 110.371256 244.982069 
L 110.061716 243.128276 
L 109.753676 241.274483 
L 109.447244 239.42069 
L 109.14251 237.566897 
L 108.839547 235.713103 
L 108.538409 233.85931 
L 108.23914 232.005517 
L 107.941767 230.151724 
L 107.646311 228.297931 
L 107.352785 226.444138 
L 107.061194 224.590345 
L 106.771543 222.736552 
L 106.483835 220.882759 
L 106.198076 219.028966 
L 105.914272 217.175172 
L 105.632438 215.321379 
L 105.352593 213.467586 
L 105.074767 211.613793 
L 104.798997 209.76 
L 104.525329 207.906207 
L 104.253821 206.052414 
L 103.984539 204.198621 
L 103.717559 202.344828 
L 103.452965 200.491034 
L 103.190848 198.637241 
L 102.931303 196.783448 
L 102.674431 194.929655 
L 102.420331 193.075862 
L 102.169101 191.222069 
L 101.920833 189.368276 
L 101.675613 187.514483 
L 101.433513 185.66069 
L 101.194593 183.806897 
L 100.95889 181.953103 
L 100.726425 180.09931 
L 100.497189 178.245517 
L 100.271149 176.391724 
L 100.048238 174.537931 
L 99.828359 172.684138 
L 99.611377 170.830345 
L 99.397123 168.976552 
L 99.185388 167.122759 
L 98.975929 165.268966 
L 98.768461 163.415172 
L 98.562667 161.561379 
L 98.358195 159.707586 
L 98.154661 157.853793 
L 97.951652 156 
L 97.748734 154.146207 
L 97.545454 152.292414 
L 97.341345 150.438621 
L 97.135936 148.584828 
L 96.928755 146.731034 
L 96.719341 144.877241 
L 96.50725 143.023448 
L 96.292065 141.169655 
L 96.073403 139.315862 
L 95.850925 137.462069 
L 95.624349 135.608276 
L 95.393452 133.754483 
L 95.158088 131.90069 
L 94.918189 130.046897 
L 94.673776 128.193103 
L 94.42497 126.33931 
L 94.171992 124.485517 
L 93.915177 122.631724 
L 93.654972 120.777931 
L 93.391944 118.924138 
L 93.126782 117.070345 
L 92.860297 115.216552 
L 92.593422 113.362759 
L 92.327212 111.508966 
L 92.062841 109.655172 
L 91.801593 107.801379 
L 91.544863 105.947586 
L 91.294143 104.093793 
L 91.051017 102.24 
L 90.817147 100.386207 
L 90.594263 98.532414 
L 90.384152 96.678621 
L 90.18864 94.824828 
L 90.009578 92.971034 
L 89.848826 91.117241 
L 89.70824 89.263448 
L 89.589647 87.409655 
L 89.494838 85.555862 
L 89.42554 83.702069 
L 89.383407 81.848276 
L 89.37 79.994483 
L 89.38677 78.14069 
L 89.435045 76.286897 
L 89.516012 74.433103 
L 89.630706 72.57931 
L 89.779999 70.725517 
L 89.964587 68.871724 
L 90.184981 67.017931 
L 90.441502 65.164138 
L 90.734271 63.310345 
L 154.965729 63.310345 
L 154.965729 63.310345 
L 155.258498 65.164138 
L 155.515019 67.017931 
L 155.735413 68.871724 
L 155.920001 70.725517 
L 156.069294 72.57931 
L 156.183988 74.433103 
L 156.264955 76.286897 
L 156.31323 78.14069 
L 156.33 79.994483 
L 156.316593 81.848276 
L 156.27446 83.702069 
L 156.205162 85.555862 
L 156.110353 87.409655 
L 155.99176 89.263448 
L 155.851174 91.117241 
L 155.690422 92.971034 
L 155.51136 94.824828 
L 155.315848 96.678621 
L 155.105737 98.532414 
L 154.882853 100.386207 
L 154.648983 102.24 
L 154.405857 104.093793 
L 154.155137 105.947586 
L 153.898407 107.801379 
L 153.637159 109.655172 
L 153.372788 111.508966 
L 153.106578 113.362759 
L 152.839703 115.216552 
L 152.573218 117.070345 
L 152.308056 118.924138 
L 152.045028 120.777931 
L 151.784823 122.631724 
L 151.528008 124.485517 
L 151.27503 126.33931 
L 151.026224 128.193103 
L 150.781811 130.046897 
L 150.541912 131.90069 
L 150.306548 133.754483 
L 150.075651 135.608276 
L 149.849075 137.462069 
L 149.626597 139.315862 
L 149.407935 141.169655 
L 149.19275 143.023448 
L 148.980659 144.877241 
L 148.771245 146.731034 
L 148.564064 148.584828 
L 148.358655 150.438621 
L 148.154546 152.292414 
L 147.951266 154.146207 
L 147.748348 156 
L 147.545339 157.853793 
L 147.341805 159.707586 
L 147.137333 161.561379 
L 146.931539 163.415172 
L 146.724071 165.268966 
L 146.514612 167.122759 
L 146.302877 168.976552 
L 146.088623 170.830345 
L 145.871641 172.684138 
L 145.651762 174.537931 
L 145.428851 176.391724 
L 145.202811 178.245517 
L 144.973575 180.09931 
L 144.74111 181.953103 
L 144.505407 183.806897 
L 144.266487 185.66069 
L 144.024387 187.514483 
L 143.779167 189.368276 
L 143.530899 191.222069 
L 143.279669 193.075862 
L 143.025569 194.929655 
L 142.768697 196.783448 
L 142.509152 198.637241 
L 142.247035 200.491034 
L 141.982441 202.344828 
L 141.715461 204.198621 
L 141.446179 206.052414 
L 141.174671 207.906207 
L 140.901003 209.76 
L 140.625233 211.613793 
L 140.347407 213.467586 
L 140.067562 215.321379 
L 139.785728 217.175172 
L 139.501924 219.028966 
L 139.216165 220.882759 
L 138.928457 222.736552 
L 138.638806 224.590345 
L 138.347215 226.444138 
L 138.053689 228.297931 
L 137.758233 230.151724 
L 137.46086 232.005517 
L 137.161591 233.85931 
L 136.860453 235.713103 
L 136.55749 237.566897 
L 136.252756 239.42069 
L 135.946324 241.274483 
L 135.638284 243.128276 
L 135.328744 244.982069 
L 135.017835 246.835862 
z
" clip-path="url(#p89ecfc60c4)" style="fill: #1f77b4; fill-opacity: 0.3"/>
   </g>
   <g id="FillBetweenPolyCollection_2">
    <path d="M 216.595885 155.073103 
L 196.504115 155.073103 
L 196.24219 154.146207 
L 195.973805 153.21931 
L 195.697948 152.292414 
L 195.413568 151.365517 
L 195.119593 150.438621 
L 194.814939 149.511724 
L 194.498528 148.584828 
L 194.169306 147.657931 
L 193.826255 146.731034 
L 193.468417 145.804138 
L 193.094905 144.877241 
L 192.704927 143.950345 
L 192.297801 143.023448 
L 191.872969 142.096552 
L 191.43002 141.169655 
L 190.968698 140.242759 
L 190.488921 139.315862 
L 189.990791 138.388966 
L 189.474603 137.462069 
L 188.940856 136.535172 
L 188.390257 135.608276 
L 187.823724 134.681379 
L 187.242387 133.754483 
L 186.647586 132.827586 
L 186.040865 131.90069 
L 185.423965 130.973793 
L 184.798812 130.046897 
L 184.167503 129.12 
L 183.532291 128.193103 
L 182.895561 127.266207 
L 182.259813 126.33931 
L 181.627636 125.412414 
L 181.001681 124.485517 
L 180.384633 123.558621 
L 179.779184 122.631724 
L 179.187999 121.704828 
L 178.61369 120.777931 
L 178.058779 119.851034 
L 177.525676 118.924138 
L 177.016638 117.997241 
L 176.533753 117.070345 
L 176.0789 116.143448 
L 175.653737 115.216552 
L 175.259667 114.289655 
L 174.897828 113.362759 
L 174.569069 112.435862 
L 174.273943 111.508966 
L 174.012694 110.582069 
L 173.785255 109.655172 
L 173.591244 108.728276 
L 173.429969 107.801379 
L 173.300436 106.874483 
L 173.20136 105.947586 
L 173.131178 105.02069 
L 173.088075 104.093793 
L 173.07 103.166897 
L 173.0747 102.24 
L 173.099743 101.313103 
L 173.142556 100.386207 
L 173.200457 99.45931 
L 173.270692 98.532414 
L 173.350473 97.605517 
L 173.437017 96.678621 
L 173.527584 95.751724 
L 173.619515 94.824828 
L 173.710272 93.897931 
L 173.797469 92.971034 
L 173.878913 92.044138 
L 173.952628 91.117241 
L 174.01689 90.190345 
L 174.070248 89.263448 
L 174.111547 88.336552 
L 174.139945 87.409655 
L 174.154926 86.482759 
L 174.156311 85.555862 
L 174.144258 84.628966 
L 174.119264 83.702069 
L 174.082158 82.775172 
L 174.034092 81.848276 
L 173.976527 80.921379 
L 173.911213 79.994483 
L 173.840167 79.067586 
L 173.765648 78.14069 
L 173.690123 77.213793 
L 173.616241 76.286897 
L 173.546793 75.36 
L 173.48468 74.433103 
L 173.43287 73.506207 
L 173.394364 72.57931 
L 173.372155 71.652414 
L 173.369189 70.725517 
L 173.388329 69.798621 
L 173.432315 68.871724 
L 173.503735 67.944828 
L 173.604987 67.017931 
L 173.738253 66.091034 
L 173.905471 65.164138 
L 174.108312 64.237241 
L 174.34816 63.310345 
L 238.75184 63.310345 
L 238.75184 63.310345 
L 238.991688 64.237241 
L 239.194529 65.164138 
L 239.361747 66.091034 
L 239.495013 67.017931 
L 239.596265 67.944828 
L 239.667685 68.871724 
L 239.711671 69.798621 
L 239.730811 70.725517 
L 239.727845 71.652414 
L 239.705636 72.57931 
L 239.66713 73.506207 
L 239.61532 74.433103 
L 239.553207 75.36 
L 239.483759 76.286897 
L 239.409877 77.213793 
L 239.334352 78.14069 
L 239.259833 79.067586 
L 239.188787 79.994483 
L 239.123473 80.921379 
L 239.065908 81.848276 
L 239.017842 82.775172 
L 238.980736 83.702069 
L 238.955742 84.628966 
L 238.943689 85.555862 
L 238.945074 86.482759 
L 238.960055 87.409655 
L 238.988453 88.336552 
L 239.029752 89.263448 
L 239.08311 90.190345 
L 239.147372 91.117241 
L 239.221087 92.044138 
L 239.302531 92.971034 
L 239.389728 93.897931 
L 239.480485 94.824828 
L 239.572416 95.751724 
L 239.662983 96.678621 
L 239.749527 97.605517 
L 239.829308 98.532414 
L 239.899543 99.45931 
L 239.957444 100.386207 
L 240.000257 101.313103 
L 240.0253 102.24 
L 240.03 103.166897 
L 240.011925 104.093793 
L 239.968822 105.02069 
L 239.89864 105.947586 
L 239.799564 106.874483 
L 239.670031 107.801379 
L 239.508756 108.728276 
L 239.314745 109.655172 
L 239.087306 110.582069 
L 238.826057 111.508966 
L 238.530931 112.435862 
L 238.202172 113.362759 
L 237.840333 114.289655 
L 237.446263 115.216552 
L 237.0211 116.143448 
L 236.566247 117.070345 
L 236.083362 117.997241 
L 235.574324 118.924138 
L 235.041221 119.851034 
L 234.48631 120.777931 
L 233.912001 121.704828 
L 233.320816 122.631724 
L 232.715367 123.558621 
L 232.098319 124.485517 
L 231.472364 125.412414 
L 230.840187 126.33931 
L 230.204439 127.266207 
L 229.567709 128.193103 
L 228.932497 129.12 
L 228.301188 130.046897 
L 227.676035 130.973793 
L 227.059135 131.90069 
L 226.452414 132.827586 
L 225.857613 133.754483 
L 225.276276 134.681379 
L 224.709743 135.608276 
L 224.159144 136.535172 
L 223.625397 137.462069 
L 223.109209 138.388966 
L 222.611079 139.315862 
L 222.131302 140.242759 
L 221.66998 141.169655 
L 221.227031 142.096552 
L 220.802199 143.023448 
L 220.395073 143.950345 
L 220.005095 144.877241 
L 219.631583 145.804138 
L 219.273745 146.731034 
L 218.930694 147.657931 
L 218.601472 148.584828 
L 218.285061 149.511724 
L 217.980407 150.438621 
L 217.686432 151.365517 
L 217.402052 152.292414 
L 217.126195 153.21931 
L 216.85781 154.146207 
L 216.595885 155.073103 
z
" clip-path="url(#p89ecfc60c4)" style="fill: #1f77b4; fill-opacity: 0.3"/>
   </g>
   <g id="FillBetweenPolyCollection_3">
    <path d="M 300.295885 246.835862 
L 280.204115 246.835862 
L 279.94219 244.982069 
L 279.673805 243.128276 
L 279.397948 241.274483 
L 279.113568 239.42069 
L 278.819593 237.566897 
L 278.514939 235.713103 
L 278.198528 233.85931 
L 277.869306 232.005517 
L 277.526255 230.151724 
L 277.168417 228.297931 
L 276.794905 226.444138 
L 276.404927 224.590345 
L 275.997801 222.736552 
L 275.572969 220.882759 
L 275.13002 219.028966 
L 274.668698 217.175172 
L 274.188921 215.321379 
L 273.690791 213.467586 
L 273.174603 211.613793 
L 272.640856 209.76 
L 272.090257 207.906207 
L 271.523724 206.052414 
L 270.942387 204.198621 
L 270.347586 202.344828 
L 269.740865 200.491034 
L 269.123965 198.637241 
L 268.498812 196.783448 
L 267.867503 194.929655 
L 267.232291 193.075862 
L 266.595561 191.222069 
L 265.959813 189.368276 
L 265.327636 187.514483 
L 264.701681 185.66069 
L 264.084633 183.806897 
L 263.479184 181.953103 
L 262.887999 180.09931 
L 262.31369 178.245517 
L 261.758779 176.391724 
L 261.225676 174.537931 
L 260.716638 172.684138 
L 260.233753 170.830345 
L 259.7789 168.976552 
L 259.353737 167.122759 
L 258.959667 165.268966 
L 258.597828 163.415172 
L 258.269069 161.561379 
L 257.973943 159.707586 
L 257.712694 157.853793 
L 257.485255 156 
L 257.291244 154.146207 
L 257.129969 152.292414 
L 257.000436 150.438621 
L 256.90136 148.584828 
L 256.831178 146.731034 
L 256.788075 144.877241 
L 256.77 143.023448 
L 256.7747 141.169655 
L 256.799743 139.315862 
L 256.842556 137.462069 
L 256.900457 135.608276 
L 256.970692 133.754483 
L 257.050473 131.90069 
L 257.137017 130.046897 
L 257.227584 128.193103 
L 257.319515 126.33931 
L 257.410272 124.485517 
L 257.497469 122.631724 
L 257.578913 120.777931 
L 257.652628 118.924138 
L 257.71689 117.070345 
L 257.770248 115.216552 
L 257.811547 113.362759 
L 257.839945 111.508966 
L 257.854926 109.655172 
L 257.856311 107.801379 
L 257.844258 105.947586 
L 257.819264 104.093793 
L 257.782158 102.24 
L 257.734092 100.386207 
L 257.676527 98.532414 
L 257.611213 96.678621 
L 257.540167 94.824828 
L 257.465648 92.971034 
L 257.390123 91.117241 
L 257.316241 89.263448 
L 257.246793 87.409655 
L 257.18468 85.555862 
L 257.13287 83.702069 
L 257.094364 81.848276 
L 257.072155 79.994483 
L 257.069189 78.14069 
L 257.088329 76.286897 
L 257.132315 74.433103 
L 257.203735 72.57931 
L 257.304987 70.725517 
L 257.438253 68.871724 
L 257.605471 67.017931 
L 257.808312 65.164138 
L 258.04816 63.310345 
L 322.45184 63.310345 
L 322.45184 63.310345 
L 322.691688 65.164138 
L 322.894529 67.017931 
L 323.061747 68.871724 
L 323.195013 70.725517 
L 323.296265 72.57931 
L 323.367685 74.433103 
L 323.411671 76.286897 
L 323.430811 78.14069 
L 323.427845 79.994483 
L 323.405636 81.848276 
L 323.36713 83.702069 
L 323.31532 85.555862 
L 323.253207 87.409655 
L 323.183759 89.263448 
L 323.109877 91.117241 
L 323.034352 92.971034 
L 322.959833 94.824828 
L 322.888787 96.678621 
L 322.823473 98.532414 
L 322.765908 100.386207 
L 322.717842 102.24 
L 322.680736 104.093793 
L 322.655742 105.947586 
L 322.643689 107.801379 
L 322.645074 109.655172 
L 322.660055 111.508966 
L 322.688453 113.362759 
L 322.729752 115.216552 
L 322.78311 117.070345 
L 322.847372 118.924138 
L 322.921087 120.777931 
L 323.002531 122.631724 
L 323.089728 124.485517 
L 323.180485 126.33931 
L 323.272416 128.193103 
L 323.362983 130.046897 
L 323.449527 131.90069 
L 323.529308 133.754483 
L 323.599543 135.608276 
L 323.657444 137.462069 
L 323.700257 139.315862 
L 323.7253 141.169655 
L 323.73 143.023448 
L 323.711925 144.877241 
L 323.668822 146.731034 
L 323.59864 148.584828 
L 323.499564 150.438621 
L 323.370031 152.292414 
L 323.208756 154.146207 
L 323.014745 156 
L 322.787306 157.853793 
L 322.526057 159.707586 
L 322.230931 161.561379 
L 321.902172 163.415172 
L 321.540333 165.268966 
L 321.146263 167.122759 
L 320.7211 168.976552 
L 320.266247 170.830345 
L 319.783362 172.684138 
L 319.274324 174.537931 
L 318.741221 176.391724 
L 318.18631 178.245517 
L 317.612001 180.09931 
L 317.020816 181.953103 
L 316.415367 183.806897 
L 315.798319 185.66069 
L 315.172364 187.514483 
L 314.540187 189.368276 
L 313.904439 191.222069 
L 313.267709 193.075862 
L 312.632497 194.929655 
L 312.001188 196.783448 
L 311.376035 198.637241 
L 310.759135 200.491034 
L 310.152414 202.344828 
L 309.557613 204.198621 
L 308.976276 206.052414 
L 308.409743 207.906207 
L 307.859144 209.76 
L 307.325397 211.613793 
L 306.809209 213.467586 
L 306.311079 215.321379 
L 305.831302 217.175172 
L 305.36998 219.028966 
L 304.927031 220.882759 
L 304.502199 222.736552 
L 304.095073 224.590345 
L 303.705095 226.444138 
L 303.331583 228.297931 
L 302.973745 230.151724 
L 302.630694 232.005517 
L 302.301472 233.85931 
L 301.985061 235.713103 
L 301.680407 237.566897 
L 301.386432 239.42069 
L 301.102052 241.274483 
L 300.826195 243.128276 
L 300.55781 244.982069 
L 300.295885 246.835862 
z
" clip-path="url(#p89ecfc60c4)" style="fill: #1f77b4; fill-opacity: 0.3"/>
   </g>
   <g id="FillBetweenPolyCollection_4">
    <path d="M 379.814757 246.835862 
L 368.085243 246.835862 
L 368.044566 244.982069 
L 368.01139 243.128276 
L 367.985229 241.274483 
L 367.965502 239.42069 
L 367.951538 237.566897 
L 367.942578 235.713103 
L 367.937779 233.85931 
L 367.936224 232.005517 
L 367.936927 230.151724 
L 367.938839 228.297931 
L 367.94086 226.444138 
L 367.941844 224.590345 
L 367.940609 222.736552 
L 367.935948 220.882759 
L 367.926638 219.028966 
L 367.911448 217.175172 
L 367.889152 215.321379 
L 367.858534 213.467586 
L 367.8184 211.613793 
L 367.767588 209.76 
L 367.704971 207.906207 
L 367.629471 206.052414 
L 367.54006 204.198621 
L 367.435773 202.344828 
L 367.315707 200.491034 
L 367.179031 198.637241 
L 367.024988 196.783448 
L 366.852899 194.929655 
L 366.662164 193.075862 
L 366.452267 191.222069 
L 366.222778 189.368276 
L 365.973349 187.514483 
L 365.703719 185.66069 
L 365.413711 183.806897 
L 365.103234 181.953103 
L 364.77228 180.09931 
L 364.420921 178.245517 
L 364.049311 176.391724 
L 363.657684 174.537931 
L 363.246347 172.684138 
L 362.815684 170.830345 
L 362.366152 168.976552 
L 361.898276 167.122759 
L 361.412651 165.268966 
L 360.909938 163.415172 
L 360.390861 161.561379 
L 359.856209 159.707586 
L 359.306829 157.853793 
L 358.743628 156 
L 358.16757 154.146207 
L 357.579676 152.292414 
L 356.981018 150.438621 
L 356.372723 148.584828 
L 355.755969 146.731034 
L 355.131984 144.877241 
L 354.502042 143.023448 
L 353.867465 141.169655 
L 353.229621 139.315862 
L 352.58992 137.462069 
L 351.949813 135.608276 
L 351.310792 133.754483 
L 350.674385 131.90069 
L 350.042157 130.046897 
L 349.415704 128.193103 
L 348.796653 126.33931 
L 348.186659 124.485517 
L 347.587402 122.631724 
L 347.000582 120.777931 
L 346.427916 118.924138 
L 345.871136 117.070345 
L 345.331982 115.216552 
L 344.812202 113.362759 
L 344.313539 111.508966 
L 343.837734 109.655172 
L 343.386514 107.801379 
L 342.961589 105.947586 
L 342.564643 104.093793 
L 342.197327 102.24 
L 341.861253 100.386207 
L 341.557982 98.532414 
L 341.289017 96.678621 
L 341.055794 94.824828 
L 340.859669 92.971034 
L 340.701913 91.117241 
L 340.583695 89.263448 
L 340.506078 87.409655 
L 340.47 85.555862 
L 340.476272 83.702069 
L 340.525563 81.848276 
L 340.618388 79.994483 
L 340.755101 78.14069 
L 340.935888 76.286897 
L 341.160754 74.433103 
L 341.429521 72.57931 
L 341.741817 70.725517 
L 342.097076 68.871724 
L 342.494535 67.017931 
L 342.933229 65.164138 
L 343.411995 63.310345 
L 404.488005 63.310345 
L 404.488005 63.310345 
L 404.966771 65.164138 
L 405.405465 67.017931 
L 405.802924 68.871724 
L 406.158183 70.725517 
L 406.470479 72.57931 
L 406.739246 74.433103 
L 406.964112 76.286897 
L 407.144899 78.14069 
L 407.281612 79.994483 
L 407.374437 81.848276 
L 407.423728 83.702069 
L 407.43 85.555862 
L 407.393922 87.409655 
L 407.316305 89.263448 
L 407.198087 91.117241 
L 407.040331 92.971034 
L 406.844206 94.824828 
L 406.610983 96.678621 
L 406.342018 98.532414 
L 406.038747 100.386207 
L 405.702673 102.24 
L 405.335357 104.093793 
L 404.938411 105.947586 
L 404.513486 107.801379 
L 404.062266 109.655172 
L 403.586461 111.508966 
L 403.087798 113.362759 
L 402.568018 115.216552 
L 402.028864 117.070345 
L 401.472084 118.924138 
L 400.899418 120.777931 
L 400.312598 122.631724 
L 399.713341 124.485517 
L 399.103347 126.33931 
L 398.484296 128.193103 
L 397.857843 130.046897 
L 397.225615 131.90069 
L 396.589208 133.754483 
L 395.950187 135.608276 
L 395.31008 137.462069 
L 394.670379 139.315862 
L 394.032535 141.169655 
L 393.397958 143.023448 
L 392.768016 144.877241 
L 392.144031 146.731034 
L 391.527277 148.584828 
L 390.918982 150.438621 
L 390.320324 152.292414 
L 389.73243 154.146207 
L 389.156372 156 
L 388.593171 157.853793 
L 388.043791 159.707586 
L 387.509139 161.561379 
L 386.990062 163.415172 
L 386.487349 165.268966 
L 386.001724 167.122759 
L 385.533848 168.976552 
L 385.084316 170.830345 
L 384.653653 172.684138 
L 384.242316 174.537931 
L 383.850689 176.391724 
L 383.479079 178.245517 
L 383.12772 180.09931 
L 382.796766 181.953103 
L 382.486289 183.806897 
L 382.196281 185.66069 
L 381.926651 187.514483 
L 381.677222 189.368276 
L 381.447733 191.222069 
L 381.237836 193.075862 
L 381.047101 194.929655 
L 380.875012 196.783448 
L 380.720969 198.637241 
L 380.584293 200.491034 
L 380.464227 202.344828 
L 380.35994 204.198621 
L 380.270529 206.052414 
L 380.195029 207.906207 
L 380.132412 209.76 
L 380.0816 211.613793 
L 380.041466 213.467586 
L 380.010848 215.321379 
L 379.988552 217.175172 
L 379.973362 219.028966 
L 379.964052 220.882759 
L 379.959391 222.736552 
L 379.958156 224.590345 
L 379.95914 226.444138 
L 379.961161 228.297931 
L 379.963073 230.151724 
L 379.963776 232.005517 
L 379.962221 233.85931 
L 379.957422 235.713103 
L 379.948462 237.566897 
L 379.934498 239.42069 
L 379.914771 241.274483 
L 379.88861 243.128276 
L 379.855434 244.982069 
L 379.814757 246.835862 
z
" clip-path="url(#p89ecfc60c4)" style="fill: #1f77b4; fill-opacity: 0.3"/>
   </g>
   <g id="FillBetweenPolyCollection_5">
    <path d="M 462.818233 292.717241 
L 452.481767 292.717241 
L 452.473855 290.4 
L 452.475947 288.082759 
L 452.4877 285.765517 
L 452.50867 283.448276 
L 452.538312 281.131034 
L 452.575984 278.813793 
L 452.62095 276.496552 
L 452.672388 274.17931 
L 452.729386 271.862069 
L 452.790959 269.544828 
L 452.856047 267.227586 
L 452.923526 264.910345 
L 452.992216 262.593103 
L 453.060887 260.275862 
L 453.128269 257.958621 
L 453.193059 255.641379 
L 453.253931 253.324138 
L 453.309542 251.006897 
L 453.358544 248.689655 
L 453.399591 246.372414 
L 453.431345 244.055172 
L 453.452484 241.737931 
L 453.461715 239.42069 
L 453.457771 237.103448 
L 453.439427 234.786207 
L 453.405501 232.468966 
L 453.35486 230.151724 
L 453.286426 227.834483 
L 453.19918 225.517241 
L 453.092169 223.2 
L 452.964504 220.882759 
L 452.815369 218.565517 
L 452.64402 216.248276 
L 452.449793 213.931034 
L 452.232097 211.613793 
L 451.990426 209.296552 
L 451.724356 206.97931 
L 451.433545 204.662069 
L 451.117738 202.344828 
L 450.776768 200.027586 
L 450.410553 197.710345 
L 450.019104 195.393103 
L 449.602521 193.075862 
L 449.160993 190.758621 
L 448.694807 188.441379 
L 448.204338 186.124138 
L 447.69006 183.806897 
L 447.152541 181.489655 
L 446.592445 179.172414 
L 446.010535 176.855172 
L 445.407673 174.537931 
L 444.784818 172.22069 
L 444.143032 169.903448 
L 443.483474 167.586207 
L 442.807406 165.268966 
L 442.11619 162.951724 
L 441.411287 160.634483 
L 440.69426 158.317241 
L 439.966767 156 
L 439.230564 153.682759 
L 438.487504 151.365517 
L 437.739527 149.048276 
L 436.988664 146.731034 
L 436.237033 144.413793 
L 435.486826 142.096552 
L 434.740314 139.77931 
L 433.999833 137.462069 
L 433.267782 135.144828 
L 432.546612 132.827586 
L 431.838817 130.510345 
L 431.146926 128.193103 
L 430.473493 125.875862 
L 429.821084 123.558621 
L 429.192263 121.241379 
L 428.589584 118.924138 
L 428.015573 116.606897 
L 427.472717 114.289655 
L 426.963445 111.972414 
L 426.490116 109.655172 
L 426.055002 107.337931 
L 425.660272 105.02069 
L 425.307977 102.703448 
L 425.00003 100.386207 
L 424.738197 98.068966 
L 424.524075 95.751724 
L 424.359079 93.434483 
L 424.24443 91.117241 
L 424.18114 88.8 
L 424.17 86.482759 
L 424.211569 84.165517 
L 424.306165 81.848276 
L 424.453858 79.531034 
L 424.654462 77.213793 
L 424.907535 74.896552 
L 425.212374 72.57931 
L 425.568016 70.262069 
L 425.973242 67.944828 
L 426.426579 65.627586 
L 426.926313 63.310345 
L 488.373687 63.310345 
L 488.373687 63.310345 
L 488.873421 65.627586 
L 489.326758 67.944828 
L 489.731984 70.262069 
L 490.087626 72.57931 
L 490.392465 74.896552 
L 490.645538 77.213793 
L 490.846142 79.531034 
L 490.993835 81.848276 
L 491.088431 84.165517 
L 491.13 86.482759 
L 491.11886 88.8 
L 491.05557 91.117241 
L 490.940921 93.434483 
L 490.775925 95.751724 
L 490.561803 98.068966 
L 490.29997 100.386207 
L 489.992023 102.703448 
L 489.639728 105.02069 
L 489.244998 107.337931 
L 488.809884 109.655172 
L 488.336555 111.972414 
L 487.827283 114.289655 
L 487.284427 116.606897 
L 486.710416 118.924138 
L 486.107737 121.241379 
L 485.478916 123.558621 
L 484.826507 125.875862 
L 484.153074 128.193103 
L 483.461183 130.510345 
L 482.753388 132.827586 
L 482.032218 135.144828 
L 481.300167 137.462069 
L 480.559686 139.77931 
L 479.813174 142.096552 
L 479.062967 144.413793 
L 478.311336 146.731034 
L 477.560473 149.048276 
L 476.812496 151.365517 
L 476.069436 153.682759 
L 475.333233 156 
L 474.60574 158.317241 
L 473.888713 160.634483 
L 473.18381 162.951724 
L 472.492594 165.268966 
L 471.816526 167.586207 
L 471.156968 169.903448 
L 470.515182 172.22069 
L 469.892327 174.537931 
L 469.289465 176.855172 
L 468.707555 179.172414 
L 468.147459 181.489655 
L 467.60994 183.806897 
L 467.095662 186.124138 
L 466.605193 188.441379 
L 466.139007 190.758621 
L 465.697479 193.075862 
L 465.280896 195.393103 
L 464.889447 197.710345 
L 464.523232 200.027586 
L 464.182262 202.344828 
L 463.866455 204.662069 
L 463.575644 206.97931 
L 463.309574 209.296552 
L 463.067903 211.613793 
L 462.850207 213.931034 
L 462.65598 216.248276 
L 462.484631 218.565517 
L 462.335496 220.882759 
L 462.207831 223.2 
L 462.10082 225.517241 
L 462.013574 227.834483 
L 461.94514 230.151724 
L 461.894499 232.468966 
L 461.860573 234.786207 
L 461.842229 237.103448 
L 461.838285 239.42069 
L 461.847516 241.737931 
L 461.868655 244.055172 
L 461.900409 246.372414 
L 461.941456 248.689655 
L 461.990458 251.006897 
L 462.046069 253.324138 
L 462.106941 255.641379 
L 462.171731 257.958621 
L 462.239113 260.275862 
L 462.307784 262.593103 
L 462.376474 264.910345 
L 462.443953 267.227586 
L 462.509041 269.544828 
L 462.570614 271.862069 
L 462.627612 274.17931 
L 462.67905 276.496552 
L 462.724016 278.813793 
L 462.761688 281.131034 
L 462.79133 283.448276 
L 462.8123 285.765517 
L 462.824053 288.082759 
L 462.826145 290.4 
L 462.818233 292.717241 
z
" clip-path="url(#p89ecfc60c4)" style="fill: #1f77b4; fill-opacity: 0.3"/>
   </g>
   <g id="FillBetweenPolyCollection_6">
    <path d="M 546.292041 246.835862 
L 536.407959 246.835862 
L 536.408993 244.982069 
L 536.420594 243.128276 
L 536.442525 241.274483 
L 536.474455 239.42069 
L 536.515961 237.566897 
L 536.56653 235.713103 
L 536.625562 233.85931 
L 536.692371 232.005517 
L 536.766191 230.151724 
L 536.846179 228.297931 
L 536.931418 226.444138 
L 537.020928 224.590345 
L 537.113663 222.736552 
L 537.208525 220.882759 
L 537.304367 219.028966 
L 537.399995 217.175172 
L 537.494182 215.321379 
L 537.585669 213.467586 
L 537.673172 211.613793 
L 537.755389 209.76 
L 537.831006 207.906207 
L 537.898704 206.052414 
L 537.957162 204.198621 
L 538.005065 202.344828 
L 538.041109 200.491034 
L 538.064005 198.637241 
L 538.072487 196.783448 
L 538.065316 194.929655 
L 538.041282 193.075862 
L 537.999214 191.222069 
L 537.937983 189.368276 
L 537.856505 187.514483 
L 537.75375 185.66069 
L 537.628743 183.806897 
L 537.480571 181.953103 
L 537.308388 180.09931 
L 537.111422 178.245517 
L 536.888976 176.391724 
L 536.640436 174.537931 
L 536.365276 172.684138 
L 536.063061 170.830345 
L 535.733454 168.976552 
L 535.37622 167.122759 
L 534.991229 165.268966 
L 534.578464 163.415172 
L 534.13802 161.561379 
L 533.670108 159.707586 
L 533.175062 157.853793 
L 532.653337 156 
L 532.105511 154.146207 
L 531.53229 152.292414 
L 530.934504 150.438621 
L 530.313107 148.584828 
L 529.669182 146.731034 
L 529.003931 144.877241 
L 528.318677 143.023448 
L 527.614865 141.169655 
L 526.89405 139.315862 
L 526.1579 137.462069 
L 525.40819 135.608276 
L 524.646792 133.754483 
L 523.875679 131.90069 
L 523.09691 130.046897 
L 522.312628 128.193103 
L 521.525054 126.33931 
L 520.73648 124.485517 
L 519.94926 122.631724 
L 519.165804 120.777931 
L 518.388572 118.924138 
L 517.620064 117.070345 
L 516.862812 115.216552 
L 516.119376 113.362759 
L 515.392328 111.508966 
L 514.684251 109.655172 
L 513.997724 107.801379 
L 513.335316 105.947586 
L 512.699571 104.093793 
L 512.093004 102.24 
L 511.518083 100.386207 
L 510.977223 98.532414 
L 510.472767 96.678621 
L 510.00698 94.824828 
L 509.58203 92.971034 
L 509.199976 91.117241 
L 508.862754 89.263448 
L 508.572161 87.409655 
L 508.329841 85.555862 
L 508.137272 83.702069 
L 507.995745 81.848276 
L 507.906359 79.994483 
L 507.87 78.14069 
L 507.887332 76.286897 
L 507.958784 74.433103 
L 508.084541 72.57931 
L 508.264535 70.725517 
L 508.498436 68.871724 
L 508.785652 67.017931 
L 509.125323 65.164138 
L 509.516321 63.310345 
L 573.183679 63.310345 
L 573.183679 63.310345 
L 573.574677 65.164138 
L 573.914348 67.017931 
L 574.201564 68.871724 
L 574.435465 70.725517 
L 574.615459 72.57931 
L 574.741216 74.433103 
L 574.812668 76.286897 
L 574.83 78.14069 
L 574.793641 79.994483 
L 574.704255 81.848276 
L 574.562728 83.702069 
L 574.370159 85.555862 
L 574.127839 87.409655 
L 573.837246 89.263448 
L 573.500024 91.117241 
L 573.11797 92.971034 
L 572.69302 94.824828 
L 572.227233 96.678621 
L 571.722777 98.532414 
L 571.181917 100.386207 
L 570.606996 102.24 
L 570.000429 104.093793 
L 569.364684 105.947586 
L 568.702276 107.801379 
L 568.015749 109.655172 
L 567.307672 111.508966 
L 566.580624 113.362759 
L 565.837188 115.216552 
L 565.079936 117.070345 
L 564.311428 118.924138 
L 563.534196 120.777931 
L 562.75074 122.631724 
L 561.96352 124.485517 
L 561.174946 126.33931 
L 560.387372 128.193103 
L 559.60309 130.046897 
L 558.824321 131.90069 
L 558.053208 133.754483 
L 557.29181 135.608276 
L 556.5421 137.462069 
L 555.80595 139.315862 
L 555.085135 141.169655 
L 554.381323 143.023448 
L 553.696069 144.877241 
L 553.030818 146.731034 
L 552.386893 148.584828 
L 551.765496 150.438621 
L 551.16771 152.292414 
L 550.594489 154.146207 
L 550.046663 156 
L 549.524938 157.853793 
L 549.029892 159.707586 
L 548.56198 161.561379 
L 548.121536 163.415172 
L 547.708771 165.268966 
L 547.32378 167.122759 
L 546.966546 168.976552 
L 546.636939 170.830345 
L 546.334724 172.684138 
L 546.059564 174.537931 
L 545.811024 176.391724 
L 545.588578 178.245517 
L 545.391612 180.09931 
L 545.219429 181.953103 
L 545.071257 183.806897 
L 544.94625 185.66069 
L 544.843495 187.514483 
L 544.762017 189.368276 
L 544.700786 191.222069 
L 544.658718 193.075862 
L 544.634684 194.929655 
L 544.627513 196.783448 
L 544.635995 198.637241 
L 544.658891 200.491034 
L 544.694935 202.344828 
L 544.742838 204.198621 
L 544.801296 206.052414 
L 544.868994 207.906207 
L 544.944611 209.76 
L 545.026828 211.613793 
L 545.114331 213.467586 
L 545.205818 215.321379 
L 545.300005 217.175172 
L 545.395633 219.028966 
L 545.491475 220.882759 
L 545.586337 222.736552 
L 545.679072 224.590345 
L 545.768582 226.444138 
L 545.853821 228.297931 
L 545.933809 230.151724 
L 546.007629 232.005517 
L 546.074438 233.85931 
L 546.13347 235.713103 
L 546.184039 237.566897 
L 546.225545 239.42069 
L 546.257475 241.274483 
L 546.279406 243.128276 
L 546.291007 244.982069 
L 546.292041 246.835862 
z
" clip-path="url(#p89ecfc60c4)" style="fill: #1f77b4; fill-opacity: 0.3"/>
   </g>
   <g id="matplotlib.axis_1">
    <g id="xtick_1">
     <g id="line2d_1">
      <defs>
       <path id="m6759e3cabf" d="M 0 0 
L 0 3.5 
" style="stroke: #000000; stroke-width: 0.8"/>
      </defs>
      <g>
       <use xlink:href="#m6759e3cabf" x="122.85" y="384.48" style="stroke: #000000; stroke-width: 0.8"/>
      </g>
     </g>
     <g id="text_1">
      <!-- Arrow -->
      <g transform="translate(111.26625 397.55875) scale(0.08 -0.08)">
       <defs>
        <path id="DejaVuSans-41" d="M 2188 4044 
L 1331 1722 
L 3047 1722 
L 2188 4044 
z
M 1831 4666 
L 2547 4666 
L 4325 0 
L 3669 0 
L 3244 1197 
L 1141 1197 
L 716 0 
L 50 0 
L 1831 4666 
z
" transform="scale(0.015625)"/>
        <path id="DejaVuSans-72" d="M 2631 2963 
Q 2534 3019 2420 3045 
Q 2306 3072 2169 3072 
Q 1681 3072 1420 2755 
Q 1159 2438 1159 1844 
L 1159 0 
L 581 0 
L 581 3500 
L 1159 3500 
L 1159 2956 
Q 1341 3275 1631 3429 
Q 1922 3584 2338 3584 
Q 2397 3584 2469 3576 
Q 2541 3569 2628 3553 
L 2631 2963 
z
" transform="scale(0.015625)"/>
        <path id="DejaVuSans-6f" d="M 1959 3097 
Q 1497 3097 1228 2736 
Q 959 2375 959 1747 
Q 959 1119 1226 758 
Q 1494 397 1959 397 
Q 2419 397 2687 759 
Q 2956 1122 2956 1747 
Q 2956 2369 2687 2733 
Q 2419 3097 1959 3097 
z
M 1959 3584 
Q 2709 3584 3137 3096 
Q 3566 2609 3566 1747 
Q 3566 888 3137 398 
Q 2709 -91 1959 -91 
Q 1206 -91 779 398 
Q 353 888 353 1747 
Q 353 2609 779 3096 
Q 1206 3584 1959 3584 
z
" transform="scale(0.015625)"/>
        <path id="DejaVuSans-77" d="M 269 3500 
L 844 3500 
L 1563 769 
L 2278 3500 
L 2956 3500 
L 3675 769 
L 4391 3500 
L 4966 3500 
L 4050 0 
L 3372 0 
L 2619 2869 
L 1863 0 
L 1184 0 
L 269 3500 
z
" transform="scale(0.015625)"/>
       </defs>
       <use xlink:href="#DejaVuSans-41"/>
       <use xlink:href="#DejaVuSans-72" transform="translate(68.408203 0)"/>
       <use xlink:href="#DejaVuSans-72" transform="translate(107.771484 0)"/>
       <use xlink:href="#DejaVuSans-6f" transform="translate(146.634766 0)"/>
       <use xlink:href="#DejaVuSans-77" transform="translate(207.816406 0)"/>
      </g>
     </g>
    </g>
    <g id="xtick_2">
     <g id="line2d_2">
      <g>
       <use xlink:href="#m6759e3cabf" x="206.55" y="384.48" style="stroke: #000000; stroke-width: 0.8"/>
      </g>
     </g>
     <g id="text_2">
      <!-- Radar -->
      <g transform="translate(194.774375 397.55875) scale(0.08 -0.08)">
       <defs>
        <path id="DejaVuSans-52" d="M 2841 2188 
Q 3044 2119 3236 1894 
Q 3428 1669 3622 1275 
L 4263 0 
L 3584 0 
L 2988 1197 
Q 2756 1666 2539 1819 
Q 2322 1972 1947 1972 
L 1259 1972 
L 1259 0 
L 628 0 
L 628 4666 
L 2053 4666 
Q 2853 4666 3247 4331 
Q 3641 3997 3641 3322 
Q 3641 2881 3436 2590 
Q 3231 2300 2841 2188 
z
M 1259 4147 
L 1259 2491 
L 2053 2491 
Q 2509 2491 2742 2702 
Q 2975 2913 2975 3322 
Q 2975 3731 2742 3939 
Q 2509 4147 2053 4147 
L 1259 4147 
z
" transform="scale(0.015625)"/>
        <path id="DejaVuSans-61" d="M 2194 1759 
Q 1497 1759 1228 1600 
Q 959 1441 959 1056 
Q 959 750 1161 570 
Q 1363 391 1709 391 
Q 2188 391 2477 730 
Q 2766 1069 2766 1631 
L 2766 1759 
L 2194 1759 
z
M 3341 1997 
L 3341 0 
L 2766 0 
L 2766 531 
Q 2569 213 2275 61 
Q 1981 -91 1556 -91 
Q 1019 -91 701 211 
Q 384 513 384 1019 
Q 384 1609 779 1909 
Q 1175 2209 1959 2209 
L 2766 2209 
L 2766 2266 
Q 2766 2663 2505 2880 
Q 2244 3097 1772 3097 
Q 1472 3097 1187 3025 
Q 903 2953 641 2809 
L 641 3341 
Q 956 3463 1253 3523 
Q 1550 3584 1831 3584 
Q 2591 3584 2966 3190 
Q 3341 2797 3341 1997 
z
" transform="scale(0.015625)"/>
        <path id="DejaVuSans-64" d="M 2906 2969 
L 2906 4863 
L 3481 4863 
L 3481 0 
L 2906 0 
L 2906 525 
Q 2725 213 2448 61 
Q 2172 -91 1784 -91 
Q 1150 -91 751 415 
Q 353 922 353 1747 
Q 353 2572 751 3078 
Q 1150 3584 1784 3584 
Q 2172 3584 2448 3432 
Q 2725 3281 2906 2969 
z
M 947 1747 
Q 947 1113 1208 752 
Q 1469 391 1925 391 
Q 2381 391 2643 752 
Q 2906 1113 2906 1747 
Q 2906 2381 2643 2742 
Q 2381 3103 1925 3103 
Q 1469 3103 1208 2742 
Q 947 2381 947 1747 
z
" transform="scale(0.015625)"/>
       </defs>
       <use xlink:href="#DejaVuSans-52"/>
       <use xlink:href="#DejaVuSans-61" transform="translate(67.232422 0)"/>
       <use xlink:href="#DejaVuSans-64" transform="translate(128.511719 0)"/>
       <use xlink:href="#DejaVuSans-61" transform="translate(191.988281 0)"/>
       <use xlink:href="#DejaVuSans-72" transform="translate(253.267578 0)"/>
      </g>
     </g>
    </g>
    <g id="xtick_3">
     <g id="line2d_3">
      <g>
       <use xlink:href="#m6759e3cabf" x="290.25" y="384.48" style="stroke: #000000; stroke-width: 0.8"/>
      </g>
     </g>
     <g id="text_3">
      <!-- Lights -->
      <g transform="translate(278.18375 397.55875) scale(0.08 -0.08)">
       <defs>
        <path id="DejaVuSans-4c" d="M 628 4666 
L 1259 4666 
L 1259 531 
L 3531 531 
L 3531 0 
L 628 0 
L 628 4666 
z
" transform="scale(0.015625)"/>
        <path id="DejaVuSans-69" d="M 603 3500 
L 1178 3500 
L 1178 0 
L 603 0 
L 603 3500 
z
M 603 4863 
L 1178 4863 
L 1178 4134 
L 603 4134 
L 603 4863 
z
" transform="scale(0.015625)"/>
        <path id="DejaVuSans-67" d="M 2906 1791 
Q 2906 2416 2648 2759 
Q 2391 3103 1925 3103 
Q 1463 3103 1205 2759 
Q 947 2416 947 1791 
Q 947 1169 1205 825 
Q 1463 481 1925 481 
Q 2391 481 2648 825 
Q 2906 1169 2906 1791 
z
M 3481 434 
Q 3481 -459 3084 -895 
Q 2688 -1331 1869 -1331 
Q 1566 -1331 1297 -1286 
Q 1028 -1241 775 -1147 
L 775 -588 
Q 1028 -725 1275 -790 
Q 1522 -856 1778 -856 
Q 2344 -856 2625 -561 
Q 2906 -266 2906 331 
L 2906 616 
Q 2728 306 2450 153 
Q 2172 0 1784 0 
Q 1141 0 747 490 
Q 353 981 353 1791 
Q 353 2603 747 3093 
Q 1141 3584 1784 3584 
Q 2172 3584 2450 3431 
Q 2728 3278 2906 2969 
L 2906 3500 
L 3481 3500 
L 3481 434 
z
" transform="scale(0.015625)"/>
        <path id="DejaVuSans-68" d="M 3513 2113 
L 3513 0 
L 2938 0 
L 2938 2094 
Q 2938 2591 2744 2837 
Q 2550 3084 2163 3084 
Q 1697 3084 1428 2787 
Q 1159 2491 1159 1978 
L 1159 0 
L 581 0 
L 581 4863 
L 1159 4863 
L 1159 2956 
Q 1366 3272 1645 3428 
Q 1925 3584 2291 3584 
Q 2894 3584 3203 3211 
Q 3513 2838 3513 2113 
z
" transform="scale(0.015625)"/>
        <path id="DejaVuSans-74" d="M 1172 4494 
L 1172 3500 
L 2356 3500 
L 2356 3053 
L 1172 3053 
L 1172 1153 
Q 1172 725 1289 603 
Q 1406 481 1766 481 
L 2356 481 
L 2356 0 
L 1766 0 
Q 1100 0 847 248 
Q 594 497 594 1153 
L 594 3053 
L 172 3053 
L 172 3500 
L 594 3500 
L 594 4494 
L 1172 4494 
z
" transform="scale(0.015625)"/>
        <path id="DejaVuSans-73" d="M 2834 3397 
L 2834 2853 
Q 2591 2978 2328 3040 
Q 2066 3103 1784 3103 
Q 1356 3103 1142 2972 
Q 928 2841 928 2578 
Q 928 2378 1081 2264 
Q 1234 2150 1697 2047 
L 1894 2003 
Q 2506 1872 2764 1633 
Q 3022 1394 3022 966 
Q 3022 478 2636 193 
Q 2250 -91 1575 -91 
Q 1294 -91 989 -36 
Q 684 19 347 128 
L 347 722 
Q 666 556 975 473 
Q 1284 391 1588 391 
Q 1994 391 2212 530 
Q 2431 669 2431 922 
Q 2431 1156 2273 1281 
Q 2116 1406 1581 1522 
L 1381 1569 
Q 847 1681 609 1914 
Q 372 2147 372 2553 
Q 372 3047 722 3315 
Q 1072 3584 1716 3584 
Q 2034 3584 2315 3537 
Q 2597 3491 2834 3397 
z
" transform="scale(0.015625)"/>
       </defs>
       <use xlink:href="#DejaVuSans-4c"/>
       <use xlink:href="#DejaVuSans-69" transform="translate(55.712891 0)"/>
       <use xlink:href="#DejaVuSans-67" transform="translate(83.496094 0)"/>
       <use xlink:href="#DejaVuSans-68" transform="translate(146.972656 0)"/>
       <use xlink:href="#DejaVuSans-74" transform="translate(210.351562 0)"/>
       <use xlink:href="#DejaVuSans-73" transform="translate(249.560547 0)"/>
      </g>
     </g>
    </g>
    <g id="xtick_4">
     <g id="line2d_4">
      <g>
       <use xlink:href="#m6759e3cabf" x="373.95" y="384.48" style="stroke: #000000; stroke-width: 0.8"/>
      </g>
     </g>
     <g id="text_4">
      <!-- Arrow and Radar -->
      <g transform="translate(340.5225 397.55875) scale(0.08 -0.08)">
       <defs>
        <path id="DejaVuSans-20" transform="scale(0.015625)"/>
        <path id="DejaVuSans-6e" d="M 3513 2113 
L 3513 0 
L 2938 0 
L 2938 2094 
Q 2938 2591 2744 2837 
Q 2550 3084 2163 3084 
Q 1697 3084 1428 2787 
Q 1159 2491 1159 1978 
L 1159 0 
L 581 0 
L 581 3500 
L 1159 3500 
L 1159 2956 
Q 1366 3272 1645 3428 
Q 1925 3584 2291 3584 
Q 2894 3584 3203 3211 
Q 3513 2838 3513 2113 
z
" transform="scale(0.015625)"/>
       </defs>
       <use xlink:href="#DejaVuSans-41"/>
       <use xlink:href="#DejaVuSans-72" transform="translate(68.408203 0)"/>
       <use xlink:href="#DejaVuSans-72" transform="translate(107.771484 0)"/>
       <use xlink:href="#DejaVuSans-6f" transform="translate(146.634766 0)"/>
       <use xlink:href="#DejaVuSans-77" transform="translate(207.816406 0)"/>
       <use xlink:href="#DejaVuSans-20" transform="translate(289.603516 0)"/>
       <use xlink:href="#DejaVuSans-61" transform="translate(321.390625 0)"/>
       <use xlink:href="#DejaVuSans-6e" transform="translate(382.669922 0)"/>
       <use xlink:href="#DejaVuSans-64" transform="translate(446.048828 0)"/>
       <use xlink:href="#DejaVuSans-20" transform="translate(509.525391 0)"/>
       <use xlink:href="#DejaVuSans-52" transform="translate(541.3125 0)"/>
       <use xlink:href="#DejaVuSans-61" transform="translate(608.544922 0)"/>
       <use xlink:href="#DejaVuSans-64" transform="translate(669.824219 0)"/>
       <use xlink:href="#DejaVuSans-61" transform="translate(733.300781 0)"/>
       <use xlink:href="#DejaVuSans-72" transform="translate(794.580078 0)"/>
      </g>
     </g>
    </g>
    <g id="xtick_5">
     <g id="line2d_5">
      <g>
       <use xlink:href="#m6759e3cabf" x="457.65" y="384.48" style="stroke: #000000; stroke-width: 0.8"/>
      </g>
     </g>
     <g id="text_5">
      <!-- Arrow and Lights -->
      <g transform="translate(423.931875 397.55875) scale(0.08 -0.08)">
       <use xlink:href="#DejaVuSans-41"/>
       <use xlink:href="#DejaVuSans-72" transform="translate(68.408203 0)"/>
       <use xlink:href="#DejaVuSans-72" transform="translate(107.771484 0)"/>
       <use xlink:href="#DejaVuSans-6f" transform="translate(146.634766 0)"/>
       <use xlink:href="#DejaVuSans-77" transform="translate(207.816406 0)"/>
       <use xlink:href="#DejaVuSans-20" transform="translate(289.603516 0)"/>
       <use xlink:href="#DejaVuSans-61" transform="translate(321.390625 0)"/>
       <use xlink:href="#DejaVuSans-6e" transform="translate(382.669922 0)"/>
       <use xlink:href="#DejaVuSans-64" transform="translate(446.048828 0)"/>
       <use xlink:href="#DejaVuSans-20" transform="translate(509.525391 0)"/>
       <use xlink:href="#DejaVuSans-4c" transform="translate(541.3125 0)"/>
       <use xlink:href="#DejaVuSans-69" transform="translate(597.025391 0)"/>
       <use xlink:href="#DejaVuSans-67" transform="translate(624.808594 0)"/>
       <use xlink:href="#DejaVuSans-68" transform="translate(688.285156 0)"/>
       <use xlink:href="#DejaVuSans-74" transform="translate(751.664062 0)"/>
       <use xlink:href="#DejaVuSans-73" transform="translate(790.873047 0)"/>
      </g>
     </g>
    </g>
    <g id="xtick_6">
     <g id="line2d_6">
      <g>
       <use xlink:href="#m6759e3cabf" x="541.35" y="384.48" style="stroke: #000000; stroke-width: 0.8"/>
      </g>
     </g>
     <g id="text_6">
      <!-- Lights and Radar -->
      <g transform="translate(507.44 397.55875) scale(0.08 -0.08)">
       <use xlink:href="#DejaVuSans-4c"/>
       <use xlink:href="#DejaVuSans-69" transform="translate(55.712891 0)"/>
       <use xlink:href="#DejaVuSans-67" transform="translate(83.496094 0)"/>
       <use xlink:href="#DejaVuSans-68" transform="translate(146.972656 0)"/>
       <use xlink:href="#DejaVuSans-74" transform="translate(210.351562 0)"/>
       <use xlink:href="#DejaVuSans-73" transform="translate(249.560547 0)"/>
       <use xlink:href="#DejaVuSans-20" transform="translate(301.660156 0)"/>
       <use xlink:href="#DejaVuSans-61" transform="translate(333.447266 0)"/>
       <use xlink:href="#DejaVuSans-6e" transform="translate(394.726562 0)"/>
       <use xlink:href="#DejaVuSans-64" transform="translate(458.105469 0)"/>
       <use xlink:href="#DejaVuSans-20" transform="translate(521.582031 0)"/>
       <use xlink:href="#DejaVuSans-52" transform="translate(553.369141 0)"/>
       <use xlink:href="#DejaVuSans-61" transform="translate(620.601562 0)"/>
       <use xlink:href="#DejaVuSans-64" transform="translate(681.880859 0)"/>
       <use xlink:href="#DejaVuSans-61" transform="translate(745.357422 0)"/>
       <use xlink:href="#DejaVuSans-72" transform="translate(806.636719 0)"/>
      </g>
     </g>
    </g>
    <g id="text_7">
     <!-- Visualization -->
     <g transform="translate(300.521875 416.820938) scale(0.1 -0.1)">
      <defs>
       <path id="DejaVuSans-56" d="M 1831 0 
L 50 4666 
L 709 4666 
L 2188 738 
L 3669 4666 
L 4325 4666 
L 2547 0 
L 1831 0 
z
" transform="scale(0.015625)"/>
       <path id="DejaVuSans-75" d="M 544 1381 
L 544 3500 
L 1119 3500 
L 1119 1403 
Q 1119 906 1312 657 
Q 1506 409 1894 409 
Q 2359 409 2629 706 
Q 2900 1003 2900 1516 
L 2900 3500 
L 3475 3500 
L 3475 0 
L 2900 0 
L 2900 538 
Q 2691 219 2414 64 
Q 2138 -91 1772 -91 
Q 1169 -91 856 284 
Q 544 659 544 1381 
z
M 1991 3584 
L 1991 3584 
z
" transform="scale(0.015625)"/>
       <path id="DejaVuSans-6c" d="M 603 4863 
L 1178 4863 
L 1178 0 
L 603 0 
L 603 4863 
z
" transform="scale(0.015625)"/>
       <path id="DejaVuSans-7a" d="M 353 3500 
L 3084 3500 
L 3084 2975 
L 922 459 
L 3084 459 
L 3084 0 
L 275 0 
L 275 525 
L 2438 3041 
L 353 3041 
L 353 3500 
z
" transform="scale(0.015625)"/>
      </defs>
      <use xlink:href="#DejaVuSans-56"/>
      <use xlink:href="#DejaVuSans-69" transform="translate(66.158203 0)"/>
      <use xlink:href="#DejaVuSans-73" transform="translate(93.941406 0)"/>
      <use xlink:href="#DejaVuSans-75" transform="translate(146.041016 0)"/>
      <use xlink:href="#DejaVuSans-61" transform="translate(209.419922 0)"/>
      <use xlink:href="#DejaVuSans-6c" transform="translate(270.699219 0)"/>
      <use xlink:href="#DejaVuSans-69" transform="translate(298.482422 0)"/>
      <use xlink:href="#DejaVuSans-7a" transform="translate(326.265625 0)"/>
      <use xlink:href="#DejaVuSans-61" transform="translate(378.755859 0)"/>
      <use xlink:href="#DejaVuSans-74" transform="translate(440.035156 0)"/>
      <use xlink:href="#DejaVuSans-69" transform="translate(479.244141 0)"/>
      <use xlink:href="#DejaVuSans-6f" transform="translate(507.027344 0)"/>
      <use xlink:href="#DejaVuSans-6e" transform="translate(568.208984 0)"/>
     </g>
    </g>
   </g>
   <g id="matplotlib.axis_2">
    <g id="ytick_1">
     <g id="line2d_7">
      <defs>
       <path id="m78d5f7238b" d="M 0 0 
L -3.5 0 
" style="stroke: #000000; stroke-width: 0.8"/>
      </defs>
      <g>
       <use xlink:href="#m78d5f7238b" x="81" y="384.48" style="stroke: #000000; stroke-width: 0.8"/>
      </g>
     </g>
     <g id="text_8">
      <!-- 0 -->
      <g transform="translate(67.6375 388.279219) scale(0.1 -0.1)">
       <defs>
        <path id="DejaVuSans-30" d="M 2034 4250 
Q 1547 4250 1301 3770 
Q 1056 3291 1056 2328 
Q 1056 1369 1301 889 
Q 1547 409 2034 409 
Q 2525 409 2770 889 
Q 3016 1369 3016 2328 
Q 3016 3291 2770 3770 
Q 2525 4250 2034 4250 
z
M 2034 4750 
Q 2819 4750 3233 4129 
Q 3647 3509 3647 2328 
Q 3647 1150 3233 529 
Q 2819 -91 2034 -91 
Q 1250 -91 836 529 
Q 422 1150 422 2328 
Q 422 3509 836 4129 
Q 1250 4750 2034 4750 
z
" transform="scale(0.015625)"/>
       </defs>
       <use xlink:href="#DejaVuSans-30"/>
      </g>
     </g>
    </g>
    <g id="ytick_2">
     <g id="line2d_8">
      <g>
       <use xlink:href="#m78d5f7238b" x="81" y="338.598621" style="stroke: #000000; stroke-width: 0.8"/>
      </g>
     </g>
     <g id="text_9">
      <!-- 1 -->
      <g transform="translate(67.6375 342.397839) scale(0.1 -0.1)">
       <defs>
        <path id="DejaVuSans-31" d="M 794 531 
L 1825 531 
L 1825 4091 
L 703 3866 
L 703 4441 
L 1819 4666 
L 2450 4666 
L 2450 531 
L 3481 531 
L 3481 0 
L 794 0 
L 794 531 
z
" transform="scale(0.015625)"/>
       </defs>
       <use xlink:href="#DejaVuSans-31"/>
      </g>
     </g>
    </g>
    <g id="ytick_3">
     <g id="line2d_9">
      <g>
       <use xlink:href="#m78d5f7238b" x="81" y="292.717241" style="stroke: #000000; stroke-width: 0.8"/>
      </g>
     </g>
     <g id="text_10">
      <!-- 2 -->
      <g transform="translate(67.6375 296.51646) scale(0.1 -0.1)">
       <defs>
        <path id="DejaVuSans-32" d="M 1228 531 
L 3431 531 
L 3431 0 
L 469 0 
L 469 531 
Q 828 903 1448 1529 
Q 2069 2156 2228 2338 
Q 2531 2678 2651 2914 
Q 2772 3150 2772 3378 
Q 2772 3750 2511 3984 
Q 2250 4219 1831 4219 
Q 1534 4219 1204 4116 
Q 875 4013 500 3803 
L 500 4441 
Q 881 4594 1212 4672 
Q 1544 4750 1819 4750 
Q 2544 4750 2975 4387 
Q 3406 4025 3406 3419 
Q 3406 3131 3298 2873 
Q 3191 2616 2906 2266 
Q 2828 2175 2409 1742 
Q 1991 1309 1228 531 
z
" transform="scale(0.015625)"/>
       </defs>
       <use xlink:href="#DejaVuSans-32"/>
      </g>
     </g>
    </g>
    <g id="ytick_4">
     <g id="line2d_10">
      <g>
       <use xlink:href="#m78d5f7238b" x="81" y="246.835862" style="stroke: #000000; stroke-width: 0.8"/>
      </g>
     </g>
     <g id="text_11">
      <!-- 3 -->
      <g transform="translate(67.6375 250.635081) scale(0.1 -0.1)">
       <defs>
        <path id="DejaVuSans-33" d="M 2597 2516 
Q 3050 2419 3304 2112 
Q 3559 1806 3559 1356 
Q 3559 666 3084 287 
Q 2609 -91 1734 -91 
Q 1441 -91 1130 -33 
Q 819 25 488 141 
L 488 750 
Q 750 597 1062 519 
Q 1375 441 1716 441 
Q 2309 441 2620 675 
Q 2931 909 2931 1356 
Q 2931 1769 2642 2001 
Q 2353 2234 1838 2234 
L 1294 2234 
L 1294 2753 
L 1863 2753 
Q 2328 2753 2575 2939 
Q 2822 3125 2822 3475 
Q 2822 3834 2567 4026 
Q 2313 4219 1838 4219 
Q 1578 4219 1281 4162 
Q 984 4106 628 3988 
L 628 4550 
Q 988 4650 1302 4700 
Q 1616 4750 1894 4750 
Q 2613 4750 3031 4423 
Q 3450 4097 3450 3541 
Q 3450 3153 3228 2886 
Q 3006 2619 2597 2516 
z
" transform="scale(0.015625)"/>
       </defs>
       <use xlink:href="#DejaVuSans-33"/>
      </g>
     </g>
    </g>
    <g id="ytick_5">
     <g id="line2d_11">
      <g>
       <use xlink:href="#m78d5f7238b" x="81" y="200.954483" style="stroke: #000000; stroke-width: 0.8"/>
      </g>
     </g>
     <g id="text_12">
      <!-- 4 -->
      <g transform="translate(67.6375 204.753702) scale(0.1 -0.1)">
       <defs>
        <path id="DejaVuSans-34" d="M 2419 4116 
L 825 1625 
L 2419 1625 
L 2419 4116 
z
M 2253 4666 
L 3047 4666 
L 3047 1625 
L 3713 1625 
L 3713 1100 
L 3047 1100 
L 3047 0 
L 2419 0 
L 2419 1100 
L 313 1100 
L 313 1709 
L 2253 4666 
z
" transform="scale(0.015625)"/>
       </defs>
       <use xlink:href="#DejaVuSans-34"/>
      </g>
     </g>
    </g>
    <g id="ytick_6">
     <g id="line2d_12">
      <g>
       <use xlink:href="#m78d5f7238b" x="81" y="155.073103" style="stroke: #000000; stroke-width: 0.8"/>
      </g>
     </g>
     <g id="text_13">
      <!-- 5 -->
      <g transform="translate(67.6375 158.872322) scale(0.1 -0.1)">
       <defs>
        <path id="DejaVuSans-35" d="M 691 4666 
L 3169 4666 
L 3169 4134 
L 1269 4134 
L 1269 2991 
Q 1406 3038 1543 3061 
Q 1681 3084 1819 3084 
Q 2600 3084 3056 2656 
Q 3513 2228 3513 1497 
Q 3513 744 3044 326 
Q 2575 -91 1722 -91 
Q 1428 -91 1123 -41 
Q 819 9 494 109 
L 494 744 
Q 775 591 1075 516 
Q 1375 441 1709 441 
Q 2250 441 2565 725 
Q 2881 1009 2881 1497 
Q 2881 1984 2565 2268 
Q 2250 2553 1709 2553 
Q 1456 2553 1204 2497 
Q 953 2441 691 2322 
L 691 4666 
z
" transform="scale(0.015625)"/>
       </defs>
       <use xlink:href="#DejaVuSans-35"/>
      </g>
     </g>
    </g>
    <g id="ytick_7">
     <g id="line2d_13">
      <g>
       <use xlink:href="#m78d5f7238b" x="81" y="109.191724" style="stroke: #000000; stroke-width: 0.8"/>
      </g>
     </g>
     <g id="text_14">
      <!-- 6 -->
      <g transform="translate(67.6375 112.990943) scale(0.1 -0.1)">
       <defs>
        <path id="DejaVuSans-36" d="M 2113 2584 
Q 1688 2584 1439 2293 
Q 1191 2003 1191 1497 
Q 1191 994 1439 701 
Q 1688 409 2113 409 
Q 2538 409 2786 701 
Q 3034 994 3034 1497 
Q 3034 2003 2786 2293 
Q 2538 2584 2113 2584 
z
M 3366 4563 
L 3366 3988 
Q 3128 4100 2886 4159 
Q 2644 4219 2406 4219 
Q 1781 4219 1451 3797 
Q 1122 3375 1075 2522 
Q 1259 2794 1537 2939 
Q 1816 3084 2150 3084 
Q 2853 3084 3261 2657 
Q 3669 2231 3669 1497 
Q 3669 778 3244 343 
Q 2819 -91 2113 -91 
Q 1303 -91 875 529 
Q 447 1150 447 2328 
Q 447 3434 972 4092 
Q 1497 4750 2381 4750 
Q 2619 4750 2861 4703 
Q 3103 4656 3366 4563 
z
" transform="scale(0.015625)"/>
       </defs>
       <use xlink:href="#DejaVuSans-36"/>
      </g>
     </g>
    </g>
    <g id="ytick_8">
     <g id="line2d_14">
      <g>
       <use xlink:href="#m78d5f7238b" x="81" y="63.310345" style="stroke: #000000; stroke-width: 0.8"/>
      </g>
     </g>
     <g id="text_15">
      <!-- 7 -->
      <g transform="translate(67.6375 67.109564) scale(0.1 -0.1)">
       <defs>
        <path id="DejaVuSans-37" d="M 525 4666 
L 3525 4666 
L 3525 4397 
L 1831 0 
L 1172 0 
L 2766 4134 
L 525 4134 
L 525 4666 
z
" transform="scale(0.015625)"/>
       </defs>
       <use xlink:href="#DejaVuSans-37"/>
      </g>
     </g>
    </g>
    <g id="text_16">
     <!-- Confidence -->
     <g transform="translate(55.557812 246.274062) rotate(-90) scale(0.1 -0.1)">
      <defs>
       <path id="DejaVuSans-43" d="M 4122 4306 
L 4122 3641 
Q 3803 3938 3442 4084 
Q 3081 4231 2675 4231 
Q 1875 4231 1450 3742 
Q 1025 3253 1025 2328 
Q 1025 1406 1450 917 
Q 1875 428 2675 428 
Q 3081 428 3442 575 
Q 3803 722 4122 1019 
L 4122 359 
Q 3791 134 3420 21 
Q 3050 -91 2638 -91 
Q 1578 -91 968 557 
Q 359 1206 359 2328 
Q 359 3453 968 4101 
Q 1578 4750 2638 4750 
Q 3056 4750 3426 4639 
Q 3797 4528 4122 4306 
z
" transform="scale(0.015625)"/>
       <path id="DejaVuSans-66" d="M 2375 4863 
L 2375 4384 
L 1825 4384 
Q 1516 4384 1395 4259 
Q 1275 4134 1275 3809 
L 1275 3500 
L 2222 3500 
L 2222 3053 
L 1275 3053 
L 1275 0 
L 697 0 
L 697 3053 
L 147 3053 
L 147 3500 
L 697 3500 
L 697 3744 
Q 697 4328 969 4595 
Q 1241 4863 1831 4863 
L 2375 4863 
z
" transform="scale(0.015625)"/>
       <path id="DejaVuSans-65" d="M 3597 1894 
L 3597 1613 
L 953 1613 
Q 991 1019 1311 708 
Q 1631 397 2203 397 
Q 2534 397 2845 478 
Q 3156 559 3463 722 
L 3463 178 
Q 3153 47 2828 -22 
Q 2503 -91 2169 -91 
Q 1331 -91 842 396 
Q 353 884 353 1716 
Q 353 2575 817 3079 
Q 1281 3584 2069 3584 
Q 2775 3584 3186 3129 
Q 3597 2675 3597 1894 
z
M 3022 2063 
Q 3016 2534 2758 2815 
Q 2500 3097 2075 3097 
Q 1594 3097 1305 2825 
Q 1016 2553 972 2059 
L 3022 2063 
z
" transform="scale(0.015625)"/>
       <path id="DejaVuSans-63" d="M 3122 3366 
L 3122 2828 
Q 2878 2963 2633 3030 
Q 2388 3097 2138 3097 
Q 1578 3097 1268 2742 
Q 959 2388 959 1747 
Q 959 1106 1268 751 
Q 1578 397 2138 397 
Q 2388 397 2633 464 
Q 2878 531 3122 666 
L 3122 134 
Q 2881 22 2623 -34 
Q 2366 -91 2075 -91 
Q 1284 -91 818 406 
Q 353 903 353 1747 
Q 353 2603 823 3093 
Q 1294 3584 2113 3584 
Q 2378 3584 2631 3529 
Q 2884 3475 3122 3366 
z
" transform="scale(0.015625)"/>
      </defs>
      <use xlink:href="#DejaVuSans-43"/>
      <use xlink:href="#DejaVuSans-6f" transform="translate(69.824219 0)"/>
      <use xlink:href="#DejaVuSans-6e" transform="translate(131.005859 0)"/>
      <use xlink:href="#DejaVuSans-66" transform="translate(194.384766 0)"/>
      <use xlink:href="#DejaVuSans-69" transform="translate(229.589844 0)"/>
      <use xlink:href="#DejaVuSans-64" transform="translate(257.373047 0)"/>
      <use xlink:href="#DejaVuSans-65" transform="translate(320.849609 0)"/>
      <use xlink:href="#DejaVuSans-6e" transform="translate(382.373047 0)"/>
      <use xlink:href="#DejaVuSans-63" transform="translate(445.751953 0)"/>
      <use xlink:href="#DejaVuSans-65" transform="translate(500.732422 0)"/>
     </g>
    </g>
   </g>
   <g id="LineCollection_1">
    <path d="M 106.11 63.310345 
L 139.59 63.310345 
" clip-path="url(#p89ecfc60c4)" style="fill: none; stroke: #1f77b4; stroke-width: 1.5"/>
    <path d="M 189.81 63.310345 
L 223.29 63.310345 
" clip-path="url(#p89ecfc60c4)" style="fill: none; stroke: #1f77b4; stroke-width: 1.5"/>
    <path d="M 273.51 63.310345 
L 306.99 63.310345 
" clip-path="url(#p89ecfc60c4)" style="fill: none; stroke: #1f77b4; stroke-width: 1.5"/>
    <path d="M 357.21 63.310345 
L 390.69 63.310345 
" clip-path="url(#p89ecfc60c4)" style="fill: none; stroke: #1f77b4; stroke-width: 1.5"/>
    <path d="M 440.91 63.310345 
L 474.39 63.310345 
" clip-path="url(#p89ecfc60c4)" style="fill: none; stroke: #1f77b4; stroke-width: 1.5"/>
    <path d="M 524.61 63.310345 
L 558.09 63.310345 
" clip-path="url(#p89ecfc60c4)" style="fill: none; stroke: #1f77b4; stroke-width: 1.5"/>
   </g>
   <g id="LineCollection_2">
    <path d="M 106.11 246.835862 
L 139.59 246.835862 
" clip-path="url(#p89ecfc60c4)" style="fill: none; stroke: #1f77b4; stroke-width: 1.5"/>
    <path d="M 189.81 155.073103 
L 223.29 155.073103 
" clip-path="url(#p89ecfc60c4)" style="fill: none; stroke: #1f77b4; stroke-width: 1.5"/>
    <path d="M 273.51 246.835862 
L 306.99 246.835862 
" clip-path="url(#p89ecfc60c4)" style="fill: none; stroke: #1f77b4; stroke-width: 1.5"/>
    <path d="M 357.21 246.835862 
L 390.69 246.835862 
" clip-path="url(#p89ecfc60c4)" style="fill: none; stroke: #1f77b4; stroke-width: 1.5"/>
    <path d="M 440.91 292.717241 
L 474.39 292.717241 
" clip-path="url(#p89ecfc60c4)" style="fill: none; stroke: #1f77b4; stroke-width: 1.5"/>
    <path d="M 524.61 246.835862 
L 558.09 246.835862 
" clip-path="url(#p89ecfc60c4)" style="fill: none; stroke: #1f77b4; stroke-width: 1.5"/>
   </g>
   <g id="LineCollection_3">
    <path d="M 122.85 246.835862 
L 122.85 63.310345 
" clip-path="url(#p89ecfc60c4)" style="fill: none; stroke: #1f77b4; stroke-width: 1.5"/>
    <path d="M 206.55 155.073103 
L 206.55 63.310345 
" clip-path="url(#p89ecfc60c4)" style="fill: none; stroke: #1f77b4; stroke-width: 1.5"/>
    <path d="M 290.25 246.835862 
L 290.25 63.310345 
" clip-path="url(#p89ecfc60c4)" style="fill: none; stroke: #1f77b4; stroke-width: 1.5"/>
    <path d="M 373.95 246.835862 
L 373.95 63.310345 
" clip-path="url(#p89ecfc60c4)" style="fill: none; stroke: #1f77b4; stroke-width: 1.5"/>
    <path d="M 457.65 292.717241 
L 457.65 63.310345 
" clip-path="url(#p89ecfc60c4)" style="fill: none; stroke: #1f77b4; stroke-width: 1.5"/>
    <path d="M 541.35 246.835862 
L 541.35 63.310345 
" clip-path="url(#p89ecfc60c4)" style="fill: none; stroke: #1f77b4; stroke-width: 1.5"/>
   </g>
   <g id="patch_3">
    <path d="M 110.295 155.073103 
L 135.405 155.073103 
L 135.405 63.310345 
L 110.295 63.310345 
L 110.295 155.073103 
z
" clip-path="url(#p89ecfc60c4)" style="fill: #add8e6; stroke: #000000; stroke-linejoin: miter"/>
   </g>
   <g id="line2d_15">
    <path d="M 122.85 155.073103 
L 122.85 246.835862 
" clip-path="url(#p89ecfc60c4)" style="fill: none; stroke: #000000; stroke-linecap: square"/>
   </g>
   <g id="line2d_16">
    <path d="M 122.85 63.310345 
L 122.85 63.310345 
" clip-path="url(#p89ecfc60c4)" style="fill: none; stroke: #000000; stroke-linecap: square"/>
   </g>
   <g id="line2d_17">
    <path d="M 116.5725 246.835862 
L 129.1275 246.835862 
" clip-path="url(#p89ecfc60c4)" style="fill: none; stroke: #000000; stroke-linecap: square"/>
   </g>
   <g id="line2d_18">
    <path d="M 116.5725 63.310345 
L 129.1275 63.310345 
" clip-path="url(#p89ecfc60c4)" style="fill: none; stroke: #000000; stroke-linecap: square"/>
   </g>
   <g id="line2d_19"/>
   <g id="patch_4">
    <path d="M 193.995 109.191724 
L 219.105 109.191724 
L 219.105 63.310345 
L 193.995 63.310345 
L 193.995 109.191724 
z
" clip-path="url(#p89ecfc60c4)" style="fill: #add8e6; stroke: #000000; stroke-linejoin: miter"/>
   </g>
   <g id="line2d_20">
    <path d="M 206.55 109.191724 
L 206.55 155.073103 
" clip-path="url(#p89ecfc60c4)" style="fill: none; stroke: #000000; stroke-linecap: square"/>
   </g>
   <g id="line2d_21">
    <path d="M 206.55 63.310345 
L 206.55 63.310345 
" clip-path="url(#p89ecfc60c4)" style="fill: none; stroke: #000000; stroke-linecap: square"/>
   </g>
   <g id="line2d_22">
    <path d="M 200.2725 155.073103 
L 212.8275 155.073103 
" clip-path="url(#p89ecfc60c4)" style="fill: none; stroke: #000000; stroke-linecap: square"/>
   </g>
   <g id="line2d_23">
    <path d="M 200.2725 63.310345 
L 212.8275 63.310345 
" clip-path="url(#p89ecfc60c4)" style="fill: none; stroke: #000000; stroke-linecap: square"/>
   </g>
   <g id="line2d_24"/>
   <g id="patch_5">
    <path d="M 277.695 155.073103 
L 302.805 155.073103 
L 302.805 63.310345 
L 277.695 63.310345 
L 277.695 155.073103 
z
" clip-path="url(#p89ecfc60c4)" style="fill: #add8e6; stroke: #000000; stroke-linejoin: miter"/>
   </g>
   <g id="line2d_25">
    <path d="M 290.25 155.073103 
L 290.25 246.835862 
" clip-path="url(#p89ecfc60c4)" style="fill: none; stroke: #000000; stroke-linecap: square"/>
   </g>
   <g id="line2d_26">
    <path d="M 290.25 63.310345 
L 290.25 63.310345 
" clip-path="url(#p89ecfc60c4)" style="fill: none; stroke: #000000; stroke-linecap: square"/>
   </g>
   <g id="line2d_27">
    <path d="M 283.9725 246.835862 
L 296.5275 246.835862 
" clip-path="url(#p89ecfc60c4)" style="fill: none; stroke: #000000; stroke-linecap: square"/>
   </g>
   <g id="line2d_28">
    <path d="M 283.9725 63.310345 
L 296.5275 63.310345 
" clip-path="url(#p89ecfc60c4)" style="fill: none; stroke: #000000; stroke-linecap: square"/>
   </g>
   <g id="line2d_29"/>
   <g id="patch_6">
    <path d="M 361.395 109.191724 
L 386.505 109.191724 
L 386.505 63.310345 
L 361.395 63.310345 
L 361.395 109.191724 
z
" clip-path="url(#p89ecfc60c4)" style="fill: #add8e6; stroke: #000000; stroke-linejoin: miter"/>
   </g>
   <g id="line2d_30">
    <path d="M 373.95 109.191724 
L 373.95 155.073103 
" clip-path="url(#p89ecfc60c4)" style="fill: none; stroke: #000000; stroke-linecap: square"/>
   </g>
   <g id="line2d_31">
    <path d="M 373.95 63.310345 
L 373.95 63.310345 
" clip-path="url(#p89ecfc60c4)" style="fill: none; stroke: #000000; stroke-linecap: square"/>
   </g>
   <g id="line2d_32">
    <path d="M 367.6725 155.073103 
L 380.2275 155.073103 
" clip-path="url(#p89ecfc60c4)" style="fill: none; stroke: #000000; stroke-linecap: square"/>
   </g>
   <g id="line2d_33">
    <path d="M 367.6725 63.310345 
L 380.2275 63.310345 
" clip-path="url(#p89ecfc60c4)" style="fill: none; stroke: #000000; stroke-linecap: square"/>
   </g>
   <g id="line2d_34">
    <defs>
     <path id="m202f74b68d" d="M 0 2 
C 0.530406 2 1.03916 1.789267 1.414214 1.414214 
C 1.789267 1.03916 2 0.530406 2 0 
C 2 -0.530406 1.789267 -1.03916 1.414214 -1.414214 
C 1.03916 -1.789267 0.530406 -2 0 -2 
C -0.530406 -2 -1.03916 -1.789267 -1.414214 -1.414214 
C -1.789267 -1.03916 -2 -0.530406 -2 0 
C -2 0.530406 -1.789267 1.03916 -1.414214 1.414214 
C -1.03916 1.789267 -0.530406 2 0 2 
z
" style="stroke: #000000"/>
    </defs>
    <g clip-path="url(#p89ecfc60c4)">
     <use xlink:href="#m202f74b68d" x="373.95" y="246.835862" style="fill-opacity: 0; stroke: #000000"/>
    </g>
   </g>
   <g id="patch_7">
    <path d="M 445.095 109.191724 
L 470.205 109.191724 
L 470.205 63.310345 
L 445.095 63.310345 
L 445.095 109.191724 
z
" clip-path="url(#p89ecfc60c4)" style="fill: #add8e6; stroke: #000000; stroke-linejoin: miter"/>
   </g>
   <g id="line2d_35">
    <path d="M 457.65 109.191724 
L 457.65 155.073103 
" clip-path="url(#p89ecfc60c4)" style="fill: none; stroke: #000000; stroke-linecap: square"/>
   </g>
   <g id="line2d_36">
    <path d="M 457.65 63.310345 
L 457.65 63.310345 
" clip-path="url(#p89ecfc60c4)" style="fill: none; stroke: #000000; stroke-linecap: square"/>
   </g>
   <g id="line2d_37">
    <path d="M 451.3725 155.073103 
L 463.9275 155.073103 
" clip-path="url(#p89ecfc60c4)" style="fill: none; stroke: #000000; stroke-linecap: square"/>
   </g>
   <g id="line2d_38">
    <path d="M 451.3725 63.310345 
L 463.9275 63.310345 
" clip-path="url(#p89ecfc60c4)" style="fill: none; stroke: #000000; stroke-linecap: square"/>
   </g>
   <g id="line2d_39">
    <g clip-path="url(#p89ecfc60c4)">
     <use xlink:href="#m202f74b68d" x="457.65" y="292.717241" style="fill-opacity: 0; stroke: #000000"/>
    </g>
   </g>
   <g id="patch_8">
    <path d="M 528.795 109.191724 
L 553.905 109.191724 
L 553.905 63.310345 
L 528.795 63.310345 
L 528.795 109.191724 
z
" clip-path="url(#p89ecfc60c4)" style="fill: #add8e6; stroke: #000000; stroke-linejoin: miter"/>
   </g>
   <g id="line2d_40">
    <path d="M 541.35 109.191724 
L 541.35 109.191724 
" clip-path="url(#p89ecfc60c4)" style="fill: none; stroke: #000000; stroke-linecap: square"/>
   </g>
   <g id="line2d_41">
    <path d="M 541.35 63.310345 
L 541.35 63.310345 
" clip-path="url(#p89ecfc60c4)" style="fill: none; stroke: #000000; stroke-linecap: square"/>
   </g>
   <g id="line2d_42">
    <path d="M 535.0725 109.191724 
L 547.6275 109.191724 
" clip-path="url(#p89ecfc60c4)" style="fill: none; stroke: #000000; stroke-linecap: square"/>
   </g>
   <g id="line2d_43">
    <path d="M 535.0725 63.310345 
L 547.6275 63.310345 
" clip-path="url(#p89ecfc60c4)" style="fill: none; stroke: #000000; stroke-linecap: square"/>
   </g>
   <g id="line2d_44">
    <g clip-path="url(#p89ecfc60c4)">
     <use xlink:href="#m202f74b68d" x="541.35" y="246.835862" style="fill-opacity: 0; stroke: #000000"/>
    </g>
   </g>
   <g id="line2d_45">
    <path d="M 110.295 109.191724 
L 135.405 109.191724 
" clip-path="url(#p89ecfc60c4)" style="fill: none; stroke: #000000"/>
   </g>
   <g id="line2d_46">
    <path d="M 193.995 109.191724 
L 219.105 109.191724 
" clip-path="url(#p89ecfc60c4)" style="fill: none; stroke: #000000"/>
   </g>
   <g id="line2d_47">
    <path d="M 277.695 155.073103 
L 302.805 155.073103 
" clip-path="url(#p89ecfc60c4)" style="fill: none; stroke: #000000"/>
   </g>
   <g id="line2d_48">
    <path d="M 361.395 109.191724 
L 386.505 109.191724 
" clip-path="url(#p89ecfc60c4)" style="fill: none; stroke: #000000"/>
   </g>
   <g id="line2d_49">
    <path d="M 445.095 109.191724 
L 470.205 109.191724 
" clip-path="url(#p89ecfc60c4)" style="fill: none; stroke: #000000"/>
   </g>
   <g id="line2d_50">
    <path d="M 528.795 63.310345 
L 553.905 63.310345 
" clip-path="url(#p89ecfc60c4)" style="fill: none; stroke: #000000"/>
   </g>
   <g id="patch_9">
    <path d="M 81 384.48 
L 81 51.84 
" style="fill: none; stroke: #000000; stroke-width: 0.8; stroke-linejoin: miter; stroke-linecap: square"/>
   </g>
   <g id="patch_10">
    <path d="M 583.2 384.48 
L 583.2 51.84 
" style="fill: none; stroke: #000000; stroke-width: 0.8; stroke-linejoin: miter; stroke-linecap: square"/>
   </g>
   <g id="patch_11">
    <path d="M 81 384.48 
L 583.2 384.48 
" style="fill: none; stroke: #000000; stroke-width: 0.8; stroke-linejoin: miter; stroke-linecap: square"/>
   </g>
   <g id="patch_12">
    <path d="M 81 51.84 
L 583.2 51.84 
" style="fill: none; stroke: #000000; stroke-width: 0.8; stroke-linejoin: miter; stroke-linecap: square"/>
   </g>
   <g id="text_17">
    <!-- Confidence by Visualisation -->
    <g transform="translate(249.31875 31.84) scale(0.12 -0.12)">
     <defs>
      <path id="DejaVuSans-62" d="M 3116 1747 
Q 3116 2381 2855 2742 
Q 2594 3103 2138 3103 
Q 1681 3103 1420 2742 
Q 1159 2381 1159 1747 
Q 1159 1113 1420 752 
Q 1681 391 2138 391 
Q 2594 391 2855 752 
Q 3116 1113 3116 1747 
z
M 1159 2969 
Q 1341 3281 1617 3432 
Q 1894 3584 2278 3584 
Q 2916 3584 3314 3078 
Q 3713 2572 3713 1747 
Q 3713 922 3314 415 
Q 2916 -91 2278 -91 
Q 1894 -91 1617 61 
Q 1341 213 1159 525 
L 1159 0 
L 581 0 
L 581 4863 
L 1159 4863 
L 1159 2969 
z
" transform="scale(0.015625)"/>
      <path id="DejaVuSans-79" d="M 2059 -325 
Q 1816 -950 1584 -1140 
Q 1353 -1331 966 -1331 
L 506 -1331 
L 506 -850 
L 844 -850 
Q 1081 -850 1212 -737 
Q 1344 -625 1503 -206 
L 1606 56 
L 191 3500 
L 800 3500 
L 1894 763 
L 2988 3500 
L 3597 3500 
L 2059 -325 
z
" transform="scale(0.015625)"/>
     </defs>
     <use xlink:href="#DejaVuSans-43"/>
     <use xlink:href="#DejaVuSans-6f" transform="translate(69.824219 0)"/>
     <use xlink:href="#DejaVuSans-6e" transform="translate(131.005859 0)"/>
     <use xlink:href="#DejaVuSans-66" transform="translate(194.384766 0)"/>
     <use xlink:href="#DejaVuSans-69" transform="translate(229.589844 0)"/>
     <use xlink:href="#DejaVuSans-64" transform="translate(257.373047 0)"/>
     <use xlink:href="#DejaVuSans-65" transform="translate(320.849609 0)"/>
     <use xlink:href="#DejaVuSans-6e" transform="translate(382.373047 0)"/>
     <use xlink:href="#DejaVuSans-63" transform="translate(445.751953 0)"/>
     <use xlink:href="#DejaVuSans-65" transform="translate(500.732422 0)"/>
     <use xlink:href="#DejaVuSans-20" transform="translate(562.255859 0)"/>
     <use xlink:href="#DejaVuSans-62" transform="translate(594.042969 0)"/>
     <use xlink:href="#DejaVuSans-79" transform="translate(657.519531 0)"/>
     <use xlink:href="#DejaVuSans-20" transform="translate(716.699219 0)"/>
     <use xlink:href="#DejaVuSans-56" transform="translate(748.486328 0)"/>
     <use xlink:href="#DejaVuSans-69" transform="translate(814.644531 0)"/>
     <use xlink:href="#DejaVuSans-73" transform="translate(842.427734 0)"/>
     <use xlink:href="#DejaVuSans-75" transform="translate(894.527344 0)"/>
     <use xlink:href="#DejaVuSans-61" transform="translate(957.90625 0)"/>
     <use xlink:href="#DejaVuSans-6c" transform="translate(1019.185547 0)"/>
     <use xlink:href="#DejaVuSans-69" transform="translate(1046.96875 0)"/>
     <use xlink:href="#DejaVuSans-73" transform="translate(1074.751953 0)"/>
     <use xlink:href="#DejaVuSans-61" transform="translate(1126.851562 0)"/>
     <use xlink:href="#DejaVuSans-74" transform="translate(1188.130859 0)"/>
     <use xlink:href="#DejaVuSans-69" transform="translate(1227.339844 0)"/>
     <use xlink:href="#DejaVuSans-6f" transform="translate(1255.123047 0)"/>
     <use xlink:href="#DejaVuSans-6e" transform="translate(1316.304688 0)"/>
    </g>
   </g>
  </g>
 </g>
 <defs>
  <clipPath id="p89ecfc60c4">
   <rect x="81" y="51.84" width="502.2" height="332.64"/>
  </clipPath>
 </defs>
</svg>
