<?xml version="1.0" encoding="utf-8" standalone="no"?>
<!DOCTYPE svg PUBLIC "-//W3C//DTD SVG 1.1//EN"
  "http://www.w3.org/Graphics/SVG/1.1/DTD/svg11.dtd">
<svg xmlns:xlink="http://www.w3.org/1999/xlink" width="648pt" height="432pt" viewBox="0 0 648 432" xmlns="http://www.w3.org/2000/svg" version="1.1">
 <metadata>
  <rdf:RDF xmlns:dc="http://purl.org/dc/elements/1.1/" xmlns:cc="http://creativecommons.org/ns#" xmlns:rdf="http://www.w3.org/1999/02/22-rdf-syntax-ns#">
   <cc:Work>
    <dc:type rdf:resource="http://purl.org/dc/dcmitype/StillImage"/>
    <dc:date>2026-03-19T20:19:01.961303</dc:date>
    <dc:format>image/svg+xml</dc:format>
    <dc:creator>
     <cc:Agent>
      <dc:title>Matplotlib v3.10.6, https://matplotlib.org/</dc:title>
     </cc:Agent>
    </dc:creator>
   </cc:Work>
  </rdf:RDF>
 </metadata>
 <defs>
  <style type="text/css">*{stroke-linejoin: round; stroke-linecap: butt}</style>
 </defs>
 <g id="figure_1">
  <g id="patch_1">
   <path d="M 0 432 
L 648 432 
L 648 0 
L 0 0 
z
" style="fill: #ffffff"/>
  </g>
  <g id="axes_1">
   <g id="patch_2">
    <path d="M 81 384.48 
L 583.2 384.48 
L 583.2 51.84 
L 81 51.84 
z
" style="fill: #ffffff"/>
   </g>
   <g id="FillBetweenPolyCollection_1">
    <path d="M 154.694234 378.254214 
L 91.005766 378.254214 
L 89.93788 376.988128 
L 89.386838 375.722042 
L 89.37 374.455956 
L 89.877421 373.18987 
L 90.873204 371.923784 
L 92.299013 370.657697 
L 94.079295 369.391611 
L 96.127582 368.125525 
L 98.353134 366.859439 
L 100.667255 365.593353 
L 102.988671 364.327267 
L 105.247582 363.061181 
L 107.388187 361.795095 
L 109.369674 360.529008 
L 111.165868 359.262922 
L 112.763813 357.996836 
L 114.161648 356.73075 
L 115.366125 355.464664 
L 116.390085 354.198578 
L 117.250121 352.932492 
L 117.964614 351.666406 
L 118.552197 350.400319 
L 119.030689 349.134233 
L 119.416452 347.868147 
L 119.724112 346.602061 
L 119.96655 345.335975 
L 120.155082 344.069889 
L 120.299743 342.803803 
L 120.409581 341.537717 
L 120.492919 340.27163 
L 120.557529 339.005544 
L 120.610694 337.739458 
L 120.659169 336.473372 
L 120.709035 335.207286 
L 120.765505 333.9412 
L 120.832703 332.675114 
L 120.913474 331.409028 
L 121.009258 330.142941 
L 121.120068 328.876855 
L 121.244571 327.610769 
L 121.380282 326.344683 
L 121.523847 325.078597 
L 121.671378 323.812511 
L 121.818812 322.546425 
L 121.962252 321.280339 
L 122.098248 320.014252 
L 122.224012 318.748166 
L 122.337538 317.48208 
L 122.437637 316.215994 
L 122.523899 314.949908 
L 122.596591 313.683822 
L 122.656515 312.417736 
L 122.704861 311.151649 
L 122.743043 309.885563 
L 122.772574 308.619477 
L 122.794944 307.353391 
L 122.811546 306.087305 
L 122.823619 304.821219 
L 122.832223 303.555133 
L 122.838231 302.289047 
L 122.842341 301.02296 
L 122.845092 299.756874 
L 122.846888 298.490788 
L 122.848019 297.224702 
L 122.848689 295.958616 
L 122.849024 294.69253 
L 122.849096 293.426444 
L 122.848924 292.160358 
L 122.84848 290.894271 
L 122.84769 289.628185 
L 122.846422 288.362099 
L 122.844487 287.096013 
L 122.841617 285.829927 
L 122.837459 284.563841 
L 122.83156 283.297755 
L 122.823358 282.031669 
L 122.812181 280.765582 
L 122.797253 279.499496 
L 122.777718 278.23341 
L 122.752671 276.967324 
L 122.721221 275.701238 
L 122.682558 274.435152 
L 122.636045 273.169066 
L 122.581318 271.90298 
L 122.518384 270.636893 
L 122.447715 269.370807 
L 122.370319 268.104721 
L 122.287774 266.838635 
L 122.20222 265.572549 
L 122.116302 264.306463 
L 122.033049 263.040377 
L 121.955712 261.77429 
L 121.887563 260.508204 
L 121.831665 259.242118 
L 121.79065 257.976032 
L 121.766512 256.709946 
L 121.760447 255.44386 
L 121.772761 254.177774 
L 121.802838 252.911688 
L 123.897162 252.911688 
L 123.897162 252.911688 
L 123.927239 254.177774 
L 123.939553 255.44386 
L 123.933488 256.709946 
L 123.90935 257.976032 
L 123.868335 259.242118 
L 123.812437 260.508204 
L 123.744288 261.77429 
L 123.666951 263.040377 
L 123.583698 264.306463 
L 123.49778 265.572549 
L 123.412226 266.838635 
L 123.329681 268.104721 
L 123.252285 269.370807 
L 123.181616 270.636893 
L 123.118682 271.90298 
L 123.063955 273.169066 
L 123.017442 274.435152 
L 122.978779 275.701238 
L 122.947329 276.967324 
L 122.922282 278.23341 
L 122.902747 279.499496 
L 122.887819 280.765582 
L 122.876642 282.031669 
L 122.86844 283.297755 
L 122.862541 284.563841 
L 122.858383 285.829927 
L 122.855513 287.096013 
L 122.853578 288.362099 
L 122.85231 289.628185 
L 122.85152 290.894271 
L 122.851076 292.160358 
L 122.850904 293.426444 
L 122.850976 294.69253 
L 122.851311 295.958616 
L 122.851981 297.224702 
L 122.853112 298.490788 
L 122.854908 299.756874 
L 122.857659 301.02296 
L 122.861769 302.289047 
L 122.867777 303.555133 
L 122.876381 304.821219 
L 122.888454 306.087305 
L 122.905056 307.353391 
L 122.927426 308.619477 
L 122.956957 309.885563 
L 122.995139 311.151649 
L 123.043485 312.417736 
L 123.103409 313.683822 
L 123.176101 314.949908 
L 123.262363 316.215994 
L 123.362462 317.48208 
L 123.475988 318.748166 
L 123.601752 320.014252 
L 123.737748 321.280339 
L 123.881188 322.546425 
L 124.028622 323.812511 
L 124.176153 325.078597 
L 124.319718 326.344683 
L 124.455429 327.610769 
L 124.579932 328.876855 
L 124.690742 330.142941 
L 124.786526 331.409028 
L 124.867297 332.675114 
L 124.934495 333.9412 
L 124.990965 335.207286 
L 125.040831 336.473372 
L 125.089306 337.739458 
L 125.142471 339.005544 
L 125.207081 340.27163 
L 125.290419 341.537717 
L 125.400257 342.803803 
L 125.544918 344.069889 
L 125.73345 345.335975 
L 125.975888 346.602061 
L 126.283548 347.868147 
L 126.669311 349.134233 
L 127.147803 350.400319 
L 127.735386 351.666406 
L 128.449879 352.932492 
L 129.309915 354.198578 
L 130.333875 355.464664 
L 131.538352 356.73075 
L 132.936187 357.996836 
L 134.534132 359.262922 
L 136.330326 360.529008 
L 138.311813 361.795095 
L 140.452418 363.061181 
L 142.711329 364.327267 
L 145.032745 365.593353 
L 147.346866 366.859439 
L 149.572418 368.125525 
L 151.620705 369.391611 
L 153.400987 370.657697 
L 154.826796 371.923784 
L 155.822579 373.18987 
L 156.33 374.455956 
L 156.313162 375.722042 
L 155.76212 376.988128 
L 154.694234 378.254214 
z
" clip-path="url(#p6e16123ead)" style="fill: #1f77b4; fill-opacity: 0.3"/>
   </g>
   <g id="FillBetweenPolyCollection_2">
    <path d="M 237.292337 382.441717 
L 175.807663 382.441717 
L 174.002675 379.574437 
L 173.07 376.707157 
L 173.083761 373.839877 
L 174.036166 370.972597 
L 175.838353 368.105316 
L 178.332613 365.238036 
L 181.313646 362.370756 
L 184.554918 359.503476 
L 187.835492 356.636196 
L 190.963093 353.768915 
L 193.79033 350.901635 
L 196.222664 348.034355 
L 198.21836 345.167075 
L 199.781956 342.299795 
L 200.953532 339.432514 
L 201.796182 336.565234 
L 202.383803 333.697954 
L 202.790691 330.830674 
L 203.083771 327.963394 
L 203.317704 325.096113 
L 203.532651 322.228833 
L 203.754226 319.361553 
L 203.995058 316.494273 
L 204.25735 313.626993 
L 204.535904 310.759712 
L 204.821163 307.892432 
L 205.101917 305.025152 
L 205.367464 302.157872 
L 205.609093 299.290592 
L 205.820897 296.423311 
L 205.999973 293.556031 
L 206.14617 290.688751 
L 206.261517 287.821471 
L 206.349531 284.954191 
L 206.414515 282.08691 
L 206.460961 279.21963 
L 206.493103 276.35235 
L 206.514636 273.48507 
L 206.528588 270.61779 
L 206.537303 267.75051 
L 206.542488 264.883229 
L 206.545313 262.015949 
L 206.546503 259.148669 
L 206.546424 256.281389 
L 206.545147 253.414109 
L 206.542487 250.546828 
L 206.538032 247.679548 
L 206.531157 244.812268 
L 206.521059 241.944988 
L 206.506805 239.077708 
L 206.487424 236.210427 
L 206.462041 233.343147 
L 206.430044 230.475867 
L 206.391287 227.608587 
L 206.346273 224.741307 
L 206.296294 221.874026 
L 206.24348 219.006746 
L 206.190721 216.139466 
L 206.141446 213.272186 
L 206.099274 210.404906 
L 206.067585 207.537625 
L 206.049074 204.670345 
L 206.045371 201.803065 
L 206.056808 198.935785 
L 206.082367 196.068505 
L 206.119831 193.201224 
L 206.1661 190.333944 
L 206.217614 187.466664 
L 206.270802 184.599384 
L 206.322475 181.732104 
L 206.370116 178.864823 
L 206.41202 175.997543 
L 206.447313 173.130263 
L 206.475841 170.262983 
L 206.498005 167.395703 
L 206.514558 164.528422 
L 206.526415 161.661142 
L 206.534493 158.793862 
L 206.539591 155.926582 
L 206.542313 153.059302 
L 206.543021 150.192022 
L 206.541816 147.324741 
L 206.538529 144.457461 
L 206.532732 141.590181 
L 206.523766 138.722901 
L 206.510792 135.855621 
L 206.492882 132.98834 
L 206.469144 130.12106 
L 206.438898 127.25378 
L 206.401866 124.3865 
L 206.358373 121.51922 
L 206.3095 118.651939 
L 206.257167 115.784659 
L 206.204084 112.917379 
L 206.153569 110.050099 
L 206.109233 107.182819 
L 206.074559 104.315538 
L 206.052459 101.448258 
L 206.044866 98.580978 
L 207.055134 98.580978 
L 207.055134 98.580978 
L 207.047541 101.448258 
L 207.025441 104.315538 
L 206.990767 107.182819 
L 206.946431 110.050099 
L 206.895916 112.917379 
L 206.842833 115.784659 
L 206.7905 118.651939 
L 206.741627 121.51922 
L 206.698134 124.3865 
L 206.661102 127.25378 
L 206.630856 130.12106 
L 206.607118 132.98834 
L 206.589208 135.855621 
L 206.576234 138.722901 
L 206.567268 141.590181 
L 206.561471 144.457461 
L 206.558184 147.324741 
L 206.556979 150.192022 
L 206.557687 153.059302 
L 206.560409 155.926582 
L 206.565507 158.793862 
L 206.573585 161.661142 
L 206.585442 164.528422 
L 206.601995 167.395703 
L 206.624159 170.262983 
L 206.652687 173.130263 
L 206.68798 175.997543 
L 206.729884 178.864823 
L 206.777525 181.732104 
L 206.829198 184.599384 
L 206.882386 187.466664 
L 206.9339 190.333944 
L 206.980169 193.201224 
L 207.017633 196.068505 
L 207.043192 198.935785 
L 207.054629 201.803065 
L 207.050926 204.670345 
L 207.032415 207.537625 
L 207.000726 210.404906 
L 206.958554 213.272186 
L 206.909279 216.139466 
L 206.85652 219.006746 
L 206.803706 221.874026 
L 206.753727 224.741307 
L 206.708713 227.608587 
L 206.669956 230.475867 
L 206.637959 233.343147 
L 206.612576 236.210427 
L 206.593195 239.077708 
L 206.578941 241.944988 
L 206.568843 244.812268 
L 206.561968 247.679548 
L 206.557513 250.546828 
L 206.554853 253.414109 
L 206.553576 256.281389 
L 206.553497 259.148669 
L 206.554687 262.015949 
L 206.557512 264.883229 
L 206.562697 267.75051 
L 206.571412 270.61779 
L 206.585364 273.48507 
L 206.606897 276.35235 
L 206.639039 279.21963 
L 206.685485 282.08691 
L 206.750469 284.954191 
L 206.838483 287.821471 
L 206.95383 290.688751 
L 207.100027 293.556031 
L 207.279103 296.423311 
L 207.490907 299.290592 
L 207.732536 302.157872 
L 207.998083 305.025152 
L 208.278837 307.892432 
L 208.564096 310.759712 
L 208.84265 313.626993 
L 209.104942 316.494273 
L 209.345774 319.361553 
L 209.567349 322.228833 
L 209.782296 325.096113 
L 210.016229 327.963394 
L 210.309309 330.830674 
L 210.716197 333.697954 
L 211.303818 336.565234 
L 212.146468 339.432514 
L 213.318044 342.299795 
L 214.88164 345.167075 
L 216.877336 348.034355 
L 219.30967 350.901635 
L 222.136907 353.768915 
L 225.264508 356.636196 
L 228.545082 359.503476 
L 231.786354 362.370756 
L 234.767387 365.238036 
L 237.261647 368.105316 
L 239.063834 370.972597 
L 240.016239 373.839877 
L 240.03 376.707157 
L 239.097325 379.574437 
L 237.292337 382.441717 
z
" clip-path="url(#p6e16123ead)" style="fill: #1f77b4; fill-opacity: 0.3"/>
   </g>
   <g id="FillBetweenPolyCollection_3">
    <path d="M 320.138335 377.608835 
L 260.361665 377.608835 
L 259.019431 374.477554 
L 257.970057 371.346273 
L 257.238291 368.214991 
L 256.837659 365.08371 
L 256.77 361.952429 
L 257.02572 358.821148 
L 257.584747 355.689866 
L 258.418085 352.558585 
L 259.489809 349.427304 
L 260.759348 346.296022 
L 262.183839 343.164741 
L 263.720388 340.03346 
L 265.328065 336.902178 
L 266.969521 333.770897 
L 268.612146 330.639616 
L 270.228752 327.508334 
L 271.797791 324.377053 
L 273.303174 321.245772 
L 274.733784 318.11449 
L 276.082765 314.983209 
L 277.346718 311.851928 
L 278.524859 308.720646 
L 279.61826 305.589365 
L 280.629181 302.458084 
L 281.560554 299.326802 
L 282.415618 296.195521 
L 283.197685 293.06424 
L 283.910026 289.932958 
L 284.555846 286.801677 
L 285.138314 283.670396 
L 285.660615 280.539114 
L 286.126018 277.407833 
L 286.537922 274.276552 
L 286.899894 271.14527 
L 287.215677 268.013989 
L 287.489175 264.882708 
L 287.724428 261.751426 
L 287.925561 258.620145 
L 288.096737 255.488864 
L 288.242088 252.357583 
L 288.365663 249.226301 
L 288.471355 246.09502 
L 288.562841 242.963739 
L 288.643522 239.832457 
L 288.71646 236.701176 
L 288.784331 233.569895 
L 288.849374 230.438613 
L 288.91336 227.307332 
L 288.977567 224.176051 
L 289.042769 221.044769 
L 289.109247 217.913488 
L 289.176811 214.782207 
L 289.244838 211.650925 
L 289.312328 208.519644 
L 289.377974 205.388363 
L 289.440236 202.257081 
L 289.497429 199.1258 
L 289.547812 195.994519 
L 289.589682 192.863237 
L 289.621457 189.731956 
L 289.64176 186.600675 
L 289.649497 183.469393 
L 289.643918 180.338112 
L 289.624667 177.206831 
L 289.591819 174.075549 
L 289.545901 170.944268 
L 289.487885 167.812987 
L 289.419173 164.681705 
L 289.341558 161.550424 
L 289.257158 158.419143 
L 289.168344 155.287862 
L 289.077646 152.15658 
L 288.98765 149.025299 
L 288.90089 145.894018 
L 288.819744 142.762736 
L 288.746334 139.631455 
L 288.682443 136.500174 
L 288.629446 133.368892 
L 288.588271 130.237611 
L 288.559383 127.10633 
L 288.542789 123.975048 
L 288.538078 120.843767 
L 288.544477 117.712486 
L 288.560919 114.581204 
L 288.586135 111.449923 
L 288.618743 108.318642 
L 288.657336 105.18736 
L 288.70057 102.056079 
L 288.747232 98.924798 
L 288.796298 95.793516 
L 288.846971 92.662235 
L 288.898693 89.530954 
L 288.95114 86.399672 
L 289.004202 83.268391 
L 289.057936 80.13711 
L 289.112516 77.005828 
L 289.168173 73.874547 
L 289.225133 70.743266 
L 289.283563 67.611984 
L 291.216437 67.611984 
L 291.216437 67.611984 
L 291.274867 70.743266 
L 291.331827 73.874547 
L 291.387484 77.005828 
L 291.442064 80.13711 
L 291.495798 83.268391 
L 291.54886 86.399672 
L 291.601307 89.530954 
L 291.653029 92.662235 
L 291.703702 95.793516 
L 291.752768 98.924798 
L 291.79943 102.056079 
L 291.842664 105.18736 
L 291.881257 108.318642 
L 291.913865 111.449923 
L 291.939081 114.581204 
L 291.955523 117.712486 
L 291.961922 120.843767 
L 291.957211 123.975048 
L 291.940617 127.10633 
L 291.911729 130.237611 
L 291.870554 133.368892 
L 291.817557 136.500174 
L 291.753666 139.631455 
L 291.680256 142.762736 
L 291.59911 145.894018 
L 291.51235 149.025299 
L 291.422354 152.15658 
L 291.331656 155.287862 
L 291.242842 158.419143 
L 291.158442 161.550424 
L 291.080827 164.681705 
L 291.012115 167.812987 
L 290.954099 170.944268 
L 290.908181 174.075549 
L 290.875333 177.206831 
L 290.856082 180.338112 
L 290.850503 183.469393 
L 290.85824 186.600675 
L 290.878543 189.731956 
L 290.910318 192.863237 
L 290.952188 195.994519 
L 291.002571 199.1258 
L 291.059764 202.257081 
L 291.122026 205.388363 
L 291.187672 208.519644 
L 291.255162 211.650925 
L 291.323189 214.782207 
L 291.390753 217.913488 
L 291.457231 221.044769 
L 291.522433 224.176051 
L 291.58664 227.307332 
L 291.650626 230.438613 
L 291.715669 233.569895 
L 291.78354 236.701176 
L 291.856478 239.832457 
L 291.937159 242.963739 
L 292.028645 246.09502 
L 292.134337 249.226301 
L 292.257912 252.357583 
L 292.403263 255.488864 
L 292.574439 258.620145 
L 292.775572 261.751426 
L 293.010825 264.882708 
L 293.284323 268.013989 
L 293.600106 271.14527 
L 293.962078 274.276552 
L 294.373982 277.407833 
L 294.839385 280.539114 
L 295.361686 283.670396 
L 295.944154 286.801677 
L 296.589974 289.932958 
L 297.302315 293.06424 
L 298.084382 296.195521 
L 298.939446 299.326802 
L 299.870819 302.458084 
L 300.88174 305.589365 
L 301.975141 308.720646 
L 303.153282 311.851928 
L 304.417235 314.983209 
L 305.766216 318.11449 
L 307.196826 321.245772 
L 308.702209 324.377053 
L 310.271248 327.508334 
L 311.887854 330.639616 
L 313.530479 333.770897 
L 315.171935 336.902178 
L 316.779612 340.03346 
L 318.316161 343.164741 
L 319.740652 346.296022 
L 321.010191 349.427304 
L 322.081915 352.558585 
L 322.915253 355.689866 
L 323.47428 358.821148 
L 323.73 361.952429 
L 323.662341 365.08371 
L 323.261709 368.214991 
L 322.529943 371.346273 
L 321.480569 374.477554 
L 320.138335 377.608835 
z
" clip-path="url(#p6e16123ead)" style="fill: #1f77b4; fill-opacity: 0.3"/>
   </g>
   <g id="FillBetweenPolyCollection_4">
    <path d="M 406.381053 381.596038 
L 341.518947 381.596038 
L 340.784583 378.684154 
L 340.47 375.77227 
L 340.584975 372.860386 
L 341.122284 369.948502 
L 342.058219 367.036619 
L 343.354184 364.124735 
L 344.959217 361.212851 
L 346.813211 358.300967 
L 348.850558 355.389084 
L 351.003903 352.4772 
L 353.207731 349.565316 
L 355.401498 346.653432 
L 357.532144 343.741549 
L 359.555834 340.829665 
L 361.438902 337.917781 
L 363.158023 335.005897 
L 364.699712 332.094013 
L 366.059276 329.18213 
L 367.239403 326.270246 
L 368.248539 323.358362 
L 369.099224 320.446478 
L 369.806524 317.534595 
L 370.386643 314.622711 
L 370.855803 311.710827 
L 371.229412 308.798943 
L 371.521517 305.88706 
L 371.744525 302.975176 
L 371.909143 300.063292 
L 372.024493 297.151408 
L 372.098341 294.239525 
L 372.137379 291.327641 
L 372.147536 288.415757 
L 372.134249 285.503873 
L 372.102693 282.591989 
L 372.057931 279.680106 
L 372.004992 276.768222 
L 371.948864 273.856338 
L 371.894429 270.944454 
L 371.846339 268.032571 
L 371.808857 265.120687 
L 371.785691 262.208803 
L 371.779833 259.296919 
L 371.793424 256.385036 
L 371.827664 253.473152 
L 371.882774 250.561268 
L 371.958011 247.649384 
L 372.051747 244.7375 
L 372.16159 241.825617 
L 372.284547 238.913733 
L 372.417221 236.001849 
L 372.556005 233.089965 
L 372.697279 230.178082 
L 372.837594 227.266198 
L 372.973812 224.354314 
L 373.103225 221.44243 
L 373.223622 218.530547 
L 373.333319 215.618663 
L 373.431154 212.706779 
L 373.516449 209.794895 
L 373.588947 206.883011 
L 373.64874 203.971128 
L 373.696189 201.059244 
L 373.731847 198.14736 
L 373.75639 195.235476 
L 373.770563 192.323593 
L 373.775141 189.411709 
L 373.770907 186.499825 
L 373.758638 183.587941 
L 373.739113 180.676058 
L 373.713112 177.764174 
L 373.681432 174.85229 
L 373.644891 171.940406 
L 373.604327 169.028523 
L 373.560592 166.116639 
L 373.514532 163.204755 
L 373.466962 160.292871 
L 373.418634 157.380987 
L 373.370204 154.469104 
L 373.322198 151.55722 
L 373.274996 148.645336 
L 373.228821 145.733452 
L 373.183748 142.821569 
L 373.139736 139.909685 
L 373.096668 136.997801 
L 373.054417 134.085917 
L 373.012908 131.174034 
L 372.972194 128.26215 
L 372.932508 125.350266 
L 372.894313 122.438382 
L 372.858322 119.526498 
L 372.825487 116.614615 
L 372.79696 113.702731 
L 372.774033 110.790847 
L 372.75804 107.878963 
L 372.750259 104.96708 
L 372.751801 102.055196 
L 372.763508 99.143312 
L 372.785868 96.231428 
L 372.818957 93.319545 
L 375.081043 93.319545 
L 375.081043 93.319545 
L 375.114132 96.231428 
L 375.136492 99.143312 
L 375.148199 102.055196 
L 375.149741 104.96708 
L 375.14196 107.878963 
L 375.125967 110.790847 
L 375.10304 113.702731 
L 375.074513 116.614615 
L 375.041678 119.526498 
L 375.005687 122.438382 
L 374.967492 125.350266 
L 374.927806 128.26215 
L 374.887092 131.174034 
L 374.845583 134.085917 
L 374.803332 136.997801 
L 374.760264 139.909685 
L 374.716252 142.821569 
L 374.671179 145.733452 
L 374.625004 148.645336 
L 374.577802 151.55722 
L 374.529796 154.469104 
L 374.481366 157.380987 
L 374.433038 160.292871 
L 374.385468 163.204755 
L 374.339408 166.116639 
L 374.295673 169.028523 
L 374.255109 171.940406 
L 374.218568 174.85229 
L 374.186888 177.764174 
L 374.160887 180.676058 
L 374.141362 183.587941 
L 374.129093 186.499825 
L 374.124859 189.411709 
L 374.129437 192.323593 
L 374.14361 195.235476 
L 374.168153 198.14736 
L 374.203811 201.059244 
L 374.25126 203.971128 
L 374.311053 206.883011 
L 374.383551 209.794895 
L 374.468846 212.706779 
L 374.566681 215.618663 
L 374.676378 218.530547 
L 374.796775 221.44243 
L 374.926188 224.354314 
L 375.062406 227.266198 
L 375.202721 230.178082 
L 375.343995 233.089965 
L 375.482779 236.001849 
L 375.615453 238.913733 
L 375.73841 241.825617 
L 375.848253 244.7375 
L 375.941989 247.649384 
L 376.017226 250.561268 
L 376.072336 253.473152 
L 376.106576 256.385036 
L 376.120167 259.296919 
L 376.114309 262.208803 
L 376.091143 265.120687 
L 376.053661 268.032571 
L 376.005571 270.944454 
L 375.951136 273.856338 
L 375.895008 276.768222 
L 375.842069 279.680106 
L 375.797307 282.591989 
L 375.765751 285.503873 
L 375.752464 288.415757 
L 375.762621 291.327641 
L 375.801659 294.239525 
L 375.875507 297.151408 
L 375.990857 300.063292 
L 376.155475 302.975176 
L 376.378483 305.88706 
L 376.670588 308.798943 
L 377.044197 311.710827 
L 377.513357 314.622711 
L 378.093476 317.534595 
L 378.800776 320.446478 
L 379.651461 323.358362 
L 380.660597 326.270246 
L 381.840724 329.18213 
L 383.200288 332.094013 
L 384.741977 335.005897 
L 386.461098 337.917781 
L 388.344166 340.829665 
L 390.367856 343.741549 
L 392.498502 346.653432 
L 394.692269 349.565316 
L 396.896097 352.4772 
L 399.049442 355.389084 
L 401.086789 358.300967 
L 402.940783 361.212851 
L 404.545816 364.124735 
L 405.841781 367.036619 
L 406.777716 369.948502 
L 407.315025 372.860386 
L 407.43 375.77227 
L 407.115417 378.684154 
L 406.381053 381.596038 
z
" clip-path="url(#p6e16123ead)" style="fill: #1f77b4; fill-opacity: 0.3"/>
   </g>
   <g id="FillBetweenPolyCollection_5">
    <path d="M 488.814827 380.035359 
L 426.485173 380.035359 
L 425.210493 378.121126 
L 424.42933 376.206893 
L 424.17 374.292661 
L 424.433983 372.378428 
L 425.196188 370.464196 
L 426.407487 368.549963 
L 427.999202 366.63573 
L 429.888991 364.721498 
L 431.987449 362.807265 
L 434.204719 360.893033 
L 436.456442 358.9788 
L 438.668543 357.064567 
L 440.780537 355.150335 
L 442.747235 353.236102 
L 444.538947 351.32187 
L 446.140416 349.407637 
L 447.548818 347.493404 
L 448.771202 345.579172 
L 449.82173 343.664939 
L 450.719004 341.750707 
L 451.483726 339.836474 
L 452.136791 337.922241 
L 452.697905 336.008009 
L 453.184671 334.093776 
L 453.612122 332.179544 
L 453.99258 330.265311 
L 454.335765 328.351078 
L 454.649059 326.436846 
L 454.93783 324.522613 
L 455.205784 322.608381 
L 455.455285 320.694148 
L 455.68763 318.779915 
L 455.903279 316.865683 
L 456.102031 314.95145 
L 456.283168 313.037218 
L 456.445575 311.122985 
L 456.587846 309.208752 
L 456.708397 307.29452 
L 456.805576 305.380287 
L 456.87779 303.466055 
L 456.923645 301.551822 
L 456.942094 299.637589 
L 456.93259 297.723357 
L 456.895244 295.809124 
L 456.830963 293.894892 
L 456.741571 291.980659 
L 456.629885 290.066426 
L 456.499741 288.152194 
L 456.355951 286.237961 
L 456.20418 284.323729 
L 456.050751 282.409496 
L 455.90237 280.495263 
L 455.76579 278.581031 
L 455.647448 276.666798 
L 455.553081 274.752566 
L 455.487379 272.838333 
L 455.453687 270.9241 
L 455.453805 269.009868 
L 455.487885 267.095635 
L 455.55445 265.181403 
L 455.650537 263.26717 
L 455.771929 261.352937 
L 455.913475 259.438705 
L 456.06946 257.524472 
L 456.233983 255.61024 
L 456.401319 253.696007 
L 456.566238 251.781774 
L 456.724245 249.867542 
L 456.871745 247.953309 
L 457.006117 246.039077 
L 457.125711 244.124844 
L 457.229769 242.210611 
L 457.318302 240.296379 
L 457.391926 238.382146 
L 457.451686 236.467913 
L 457.498883 234.553681 
L 457.534918 232.639448 
L 457.561154 230.725216 
L 457.57882 228.810983 
L 457.588942 226.89675 
L 457.592305 224.982518 
L 457.589457 223.068285 
L 457.58073 221.154053 
L 457.566296 219.23982 
L 457.54623 217.325587 
L 457.5206 215.411355 
L 457.48955 213.497122 
L 457.453392 211.58289 
L 457.412678 209.668657 
L 457.368259 207.754424 
L 457.321306 205.840192 
L 457.273306 203.925959 
L 457.226011 202.011727 
L 457.181351 200.097494 
L 457.141318 198.183261 
L 457.107824 196.269029 
L 457.082555 194.354796 
L 457.066832 192.440564 
L 457.061495 190.526331 
L 458.238505 190.526331 
L 458.238505 190.526331 
L 458.233168 192.440564 
L 458.217445 194.354796 
L 458.192176 196.269029 
L 458.158682 198.183261 
L 458.118649 200.097494 
L 458.073989 202.011727 
L 458.026694 203.925959 
L 457.978694 205.840192 
L 457.931741 207.754424 
L 457.887322 209.668657 
L 457.846608 211.58289 
L 457.81045 213.497122 
L 457.7794 215.411355 
L 457.75377 217.325587 
L 457.733704 219.23982 
L 457.71927 221.154053 
L 457.710543 223.068285 
L 457.707695 224.982518 
L 457.711058 226.89675 
L 457.72118 228.810983 
L 457.738846 230.725216 
L 457.765082 232.639448 
L 457.801117 234.553681 
L 457.848314 236.467913 
L 457.908074 238.382146 
L 457.981698 240.296379 
L 458.070231 242.210611 
L 458.174289 244.124844 
L 458.293883 246.039077 
L 458.428255 247.953309 
L 458.575755 249.867542 
L 458.733762 251.781774 
L 458.898681 253.696007 
L 459.066017 255.61024 
L 459.23054 257.524472 
L 459.386525 259.438705 
L 459.528071 261.352937 
L 459.649463 263.26717 
L 459.74555 265.181403 
L 459.812115 267.095635 
L 459.846195 269.009868 
L 459.846313 270.9241 
L 459.812621 272.838333 
L 459.746919 274.752566 
L 459.652552 276.666798 
L 459.53421 278.581031 
L 459.39763 280.495263 
L 459.249249 282.409496 
L 459.09582 284.323729 
L 458.944049 286.237961 
L 458.800259 288.152194 
L 458.670115 290.066426 
L 458.558429 291.980659 
L 458.469037 293.894892 
L 458.404756 295.809124 
L 458.36741 297.723357 
L 458.357906 299.637589 
L 458.376355 301.551822 
L 458.42221 303.466055 
L 458.494424 305.380287 
L 458.591603 307.29452 
L 458.712154 309.208752 
L 458.854425 311.122985 
L 459.016832 313.037218 
L 459.197969 314.95145 
L 459.396721 316.865683 
L 459.61237 318.779915 
L 459.844715 320.694148 
L 460.094216 322.608381 
L 460.36217 324.522613 
L 460.650941 326.436846 
L 460.964235 328.351078 
L 461.30742 330.265311 
L 461.687878 332.179544 
L 462.115329 334.093776 
L 462.602095 336.008009 
L 463.163209 337.922241 
L 463.816274 339.836474 
L 464.580996 341.750707 
L 465.47827 343.664939 
L 466.528798 345.579172 
L 467.751182 347.493404 
L 469.159584 349.407637 
L 470.761053 351.32187 
L 472.552765 353.236102 
L 474.519463 355.150335 
L 476.631457 357.064567 
L 478.843558 358.9788 
L 481.095281 360.893033 
L 483.312551 362.807265 
L 485.411009 364.721498 
L 487.300798 366.63573 
L 488.892513 368.549963 
L 490.103812 370.464196 
L 490.866017 372.378428 
L 491.13 374.292661 
L 490.87067 376.206893 
L 490.089507 378.121126 
L 488.814827 380.035359 
z
" clip-path="url(#p6e16123ead)" style="fill: #1f77b4; fill-opacity: 0.3"/>
   </g>
   <g id="FillBetweenPolyCollection_6">
    <path d="M 570.844382 383.051673 
L 511.855618 383.051673 
L 510.372927 381.064344 
L 509.202425 379.077015 
L 508.380888 377.089685 
L 507.932997 375.102356 
L 507.87 373.115026 
L 508.18919 371.127697 
L 508.874233 369.140368 
L 509.896311 367.153038 
L 511.215959 365.165709 
L 512.785454 363.178379 
L 514.551533 361.19105 
L 516.458247 359.203721 
L 518.449731 357.216391 
L 520.472708 355.229062 
L 522.478589 353.241732 
L 524.425074 351.254403 
L 526.277208 349.267074 
L 528.007902 347.279744 
L 529.597965 345.292415 
L 531.035715 343.305085 
L 532.316281 341.317756 
L 533.440665 339.330427 
L 534.414697 337.343097 
L 535.247928 335.355768 
L 535.952562 333.368438 
L 536.54246 331.381109 
L 537.032251 329.39378 
L 537.436583 327.40645 
L 537.769503 325.419121 
L 538.043984 323.431791 
L 538.271585 321.444462 
L 538.462232 319.457133 
L 538.624124 317.469803 
L 538.763736 315.482474 
L 538.885911 313.495144 
L 538.994033 311.507815 
L 539.090257 309.520486 
L 539.175773 307.533156 
L 539.251097 305.545827 
L 539.316356 303.558497 
L 539.371555 301.571168 
L 539.416804 299.583839 
L 539.452495 297.596509 
L 539.479412 295.60918 
L 539.498788 293.62185 
L 539.512285 291.634521 
L 539.521926 289.647192 
L 539.529985 287.659862 
L 539.538844 285.672533 
L 539.550835 283.685203 
L 539.568087 281.697874 
L 539.592388 279.710545 
L 539.625074 277.723215 
L 539.66695 275.735886 
L 539.718253 273.748556 
L 539.778648 271.761227 
L 539.847265 269.773898 
L 539.922762 267.786568 
L 540.003414 265.799239 
L 540.087217 263.811909 
L 540.172004 261.82458 
L 540.25556 259.837251 
L 540.335735 257.849921 
L 540.410549 255.862592 
L 540.47828 253.875262 
L 540.53754 251.887933 
L 540.587321 249.900604 
L 540.627033 247.913274 
L 540.656501 245.925945 
L 540.67595 243.938615 
L 540.685961 241.951286 
L 540.687413 239.963957 
L 540.681397 237.976627 
L 540.669132 235.989298 
L 540.651873 234.001968 
L 540.630814 232.014639 
L 540.607016 230.02731 
L 540.581347 228.03998 
L 540.554442 226.052651 
L 540.526696 224.065321 
L 540.498284 222.077992 
L 540.469207 220.090663 
L 540.439358 218.103333 
L 540.408606 216.116004 
L 540.376881 214.128674 
L 540.344258 212.141345 
L 540.311023 210.154016 
L 540.277721 208.166686 
L 540.245172 206.179357 
L 540.214455 204.192027 
L 540.186862 202.204698 
L 540.163826 200.217369 
L 540.146826 198.230039 
L 540.137279 196.24271 
L 540.136432 194.25538 
L 540.145263 192.268051 
L 540.164399 190.280722 
L 540.194059 188.293392 
L 540.234023 186.306063 
L 542.465977 186.306063 
L 542.465977 186.306063 
L 542.505941 188.293392 
L 542.535601 190.280722 
L 542.554737 192.268051 
L 542.563568 194.25538 
L 542.562721 196.24271 
L 542.553174 198.230039 
L 542.536174 200.217369 
L 542.513138 202.204698 
L 542.485545 204.192027 
L 542.454828 206.179357 
L 542.422279 208.166686 
L 542.388977 210.154016 
L 542.355742 212.141345 
L 542.323119 214.128674 
L 542.291394 216.116004 
L 542.260642 218.103333 
L 542.230793 220.090663 
L 542.201716 222.077992 
L 542.173304 224.065321 
L 542.145558 226.052651 
L 542.118653 228.03998 
L 542.092984 230.02731 
L 542.069186 232.014639 
L 542.048127 234.001968 
L 542.030868 235.989298 
L 542.018603 237.976627 
L 542.012587 239.963957 
L 542.014039 241.951286 
L 542.02405 243.938615 
L 542.043499 245.925945 
L 542.072967 247.913274 
L 542.112679 249.900604 
L 542.16246 251.887933 
L 542.22172 253.875262 
L 542.289451 255.862592 
L 542.364265 257.849921 
L 542.44444 259.837251 
L 542.527996 261.82458 
L 542.612783 263.811909 
L 542.696586 265.799239 
L 542.777238 267.786568 
L 542.852735 269.773898 
L 542.921352 271.761227 
L 542.981747 273.748556 
L 543.03305 275.735886 
L 543.074926 277.723215 
L 543.107612 279.710545 
L 543.131913 281.697874 
L 543.149165 283.685203 
L 543.161156 285.672533 
L 543.170015 287.659862 
L 543.178074 289.647192 
L 543.187715 291.634521 
L 543.201212 293.62185 
L 543.220588 295.60918 
L 543.247505 297.596509 
L 543.283196 299.583839 
L 543.328445 301.571168 
L 543.383644 303.558497 
L 543.448903 305.545827 
L 543.524227 307.533156 
L 543.609743 309.520486 
L 543.705967 311.507815 
L 543.814089 313.495144 
L 543.936264 315.482474 
L 544.075876 317.469803 
L 544.237768 319.457133 
L 544.428415 321.444462 
L 544.656016 323.431791 
L 544.930497 325.419121 
L 545.263417 327.40645 
L 545.667749 329.39378 
L 546.15754 331.381109 
L 546.747438 333.368438 
L 547.452072 335.355768 
L 548.285303 337.343097 
L 549.259335 339.330427 
L 550.383719 341.317756 
L 551.664285 343.305085 
L 553.102035 345.292415 
L 554.692098 347.279744 
L 556.422792 349.267074 
L 558.274926 351.254403 
L 560.221411 353.241732 
L 562.227292 355.229062 
L 564.250269 357.216391 
L 566.241753 359.203721 
L 568.148467 361.19105 
L 569.914546 363.178379 
L 571.484041 365.165709 
L 572.803689 367.153038 
L 573.825767 369.140368 
L 574.51081 371.127697 
L 574.83 373.115026 
L 574.767003 375.102356 
L 574.319112 377.089685 
L 573.497575 379.077015 
L 572.327073 381.064344 
L 570.844382 383.051673 
z
" clip-path="url(#p6e16123ead)" style="fill: #1f77b4; fill-opacity: 0.3"/>
   </g>
   <g id="matplotlib.axis_1">
    <g id="xtick_1">
     <g id="line2d_1">
      <defs>
       <path id="m2ef98a6885" d="M 0 0 
L 0 3.5 
" style="stroke: #000000; stroke-width: 0.8"/>
      </defs>
      <g>
       <use xlink:href="#m2ef98a6885" x="122.85" y="384.48" style="stroke: #000000; stroke-width: 0.8"/>
      </g>
     </g>
     <g id="text_1">
      <!-- Arrow -->
      <g transform="translate(111.26625 397.55875) scale(0.08 -0.08)">
       <defs>
        <path id="DejaVuSans-41" d="M 2188 4044 
L 1331 1722 
L 3047 1722 
L 2188 4044 
z
M 1831 4666 
L 2547 4666 
L 4325 0 
L 3669 0 
L 3244 1197 
L 1141 1197 
L 716 0 
L 50 0 
L 1831 4666 
z
" transform="scale(0.015625)"/>
        <path id="DejaVuSans-72" d="M 2631 2963 
Q 2534 3019 2420 3045 
Q 2306 3072 2169 3072 
Q 1681 3072 1420 2755 
Q 1159 2438 1159 1844 
L 1159 0 
L 581 0 
L 581 3500 
L 1159 3500 
L 1159 2956 
Q 1341 3275 1631 3429 
Q 1922 3584 2338 3584 
Q 2397 3584 2469 3576 
Q 2541 3569 2628 3553 
L 2631 2963 
z
" transform="scale(0.015625)"/>
        <path id="DejaVuSans-6f" d="M 1959 3097 
Q 1497 3097 1228 2736 
Q 959 2375 959 1747 
Q 959 1119 1226 758 
Q 1494 397 1959 397 
Q 2419 397 2687 759 
Q 2956 1122 2956 1747 
Q 2956 2369 2687 2733 
Q 2419 3097 1959 3097 
z
M 1959 3584 
Q 2709 3584 3137 3096 
Q 3566 2609 3566 1747 
Q 3566 888 3137 398 
Q 2709 -91 1959 -91 
Q 1206 -91 779 398 
Q 353 888 353 1747 
Q 353 2609 779 3096 
Q 1206 3584 1959 3584 
z
" transform="scale(0.015625)"/>
        <path id="DejaVuSans-77" d="M 269 3500 
L 844 3500 
L 1563 769 
L 2278 3500 
L 2956 3500 
L 3675 769 
L 4391 3500 
L 4966 3500 
L 4050 0 
L 3372 0 
L 2619 2869 
L 1863 0 
L 1184 0 
L 269 3500 
z
" transform="scale(0.015625)"/>
       </defs>
       <use xlink:href="#DejaVuSans-41"/>
       <use xlink:href="#DejaVuSans-72" transform="translate(68.408203 0)"/>
       <use xlink:href="#DejaVuSans-72" transform="translate(107.771484 0)"/>
       <use xlink:href="#DejaVuSans-6f" transform="translate(146.634766 0)"/>
       <use xlink:href="#DejaVuSans-77" transform="translate(207.816406 0)"/>
      </g>
     </g>
    </g>
    <g id="xtick_2">
     <g id="line2d_2">
      <g>
       <use xlink:href="#m2ef98a6885" x="206.55" y="384.48" style="stroke: #000000; stroke-width: 0.8"/>
      </g>
     </g>
     <g id="text_2">
      <!-- Radar -->
      <g transform="translate(194.774375 397.55875) scale(0.08 -0.08)">
       <defs>
        <path id="DejaVuSans-52" d="M 2841 2188 
Q 3044 2119 3236 1894 
Q 3428 1669 3622 1275 
L 4263 0 
L 3584 0 
L 2988 1197 
Q 2756 1666 2539 1819 
Q 2322 1972 1947 1972 
L 1259 1972 
L 1259 0 
L 628 0 
L 628 4666 
L 2053 4666 
Q 2853 4666 3247 4331 
Q 3641 3997 3641 3322 
Q 3641 2881 3436 2590 
Q 3231 2300 2841 2188 
z
M 1259 4147 
L 1259 2491 
L 2053 2491 
Q 2509 2491 2742 2702 
Q 2975 2913 2975 3322 
Q 2975 3731 2742 3939 
Q 2509 4147 2053 4147 
L 1259 4147 
z
" transform="scale(0.015625)"/>
        <path id="DejaVuSans-61" d="M 2194 1759 
Q 1497 1759 1228 1600 
Q 959 1441 959 1056 
Q 959 750 1161 570 
Q 1363 391 1709 391 
Q 2188 391 2477 730 
Q 2766 1069 2766 1631 
L 2766 1759 
L 2194 1759 
z
M 3341 1997 
L 3341 0 
L 2766 0 
L 2766 531 
Q 2569 213 2275 61 
Q 1981 -91 1556 -91 
Q 1019 -91 701 211 
Q 384 513 384 1019 
Q 384 1609 779 1909 
Q 1175 2209 1959 2209 
L 2766 2209 
L 2766 2266 
Q 2766 2663 2505 2880 
Q 2244 3097 1772 3097 
Q 1472 3097 1187 3025 
Q 903 2953 641 2809 
L 641 3341 
Q 956 3463 1253 3523 
Q 1550 3584 1831 3584 
Q 2591 3584 2966 3190 
Q 3341 2797 3341 1997 
z
" transform="scale(0.015625)"/>
        <path id="DejaVuSans-64" d="M 2906 2969 
L 2906 4863 
L 3481 4863 
L 3481 0 
L 2906 0 
L 2906 525 
Q 2725 213 2448 61 
Q 2172 -91 1784 -91 
Q 1150 -91 751 415 
Q 353 922 353 1747 
Q 353 2572 751 3078 
Q 1150 3584 1784 3584 
Q 2172 3584 2448 3432 
Q 2725 3281 2906 2969 
z
M 947 1747 
Q 947 1113 1208 752 
Q 1469 391 1925 391 
Q 2381 391 2643 752 
Q 2906 1113 2906 1747 
Q 2906 2381 2643 2742 
Q 2381 3103 1925 3103 
Q 1469 3103 1208 2742 
Q 947 2381 947 1747 
z
" transform="scale(0.015625)"/>
       </defs>
       <use xlink:href="#DejaVuSans-52"/>
       <use xlink:href="#DejaVuSans-61" transform="translate(67.232422 0)"/>
       <use xlink:href="#DejaVuSans-64" transform="translate(128.511719 0)"/>
       <use xlink:href="#DejaVuSans-61" transform="translate(191.988281 0)"/>
       <use xlink:href="#DejaVuSans-72" transform="translate(253.267578 0)"/>
      </g>
     </g>
    </g>
    <g id="xtick_3">
     <g id="line2d_3">
      <g>
       <use xlink:href="#m2ef98a6885" x="290.25" y="384.48" style="stroke: #000000; stroke-width: 0.8"/>
      </g>
     </g>
     <g id="text_3">
      <!-- Lights -->
      <g transform="translate(278.18375 397.55875) scale(0.08 -0.08)">
       <defs>
        <path id="DejaVuSans-4c" d="M 628 4666 
L 1259 4666 
L 1259 531 
L 3531 531 
L 3531 0 
L 628 0 
L 628 4666 
z
" transform="scale(0.015625)"/>
        <path id="DejaVuSans-69" d="M 603 3500 
L 1178 3500 
L 1178 0 
L 603 0 
L 603 3500 
z
M 603 4863 
L 1178 4863 
L 1178 4134 
L 603 4134 
L 603 4863 
z
" transform="scale(0.015625)"/>
        <path id="DejaVuSans-67" d="M 2906 1791 
Q 2906 2416 2648 2759 
Q 2391 3103 1925 3103 
Q 1463 3103 1205 2759 
Q 947 2416 947 1791 
Q 947 1169 1205 825 
Q 1463 481 1925 481 
Q 2391 481 2648 825 
Q 2906 1169 2906 1791 
z
M 3481 434 
Q 3481 -459 3084 -895 
Q 2688 -1331 1869 -1331 
Q 1566 -1331 1297 -1286 
Q 1028 -1241 775 -1147 
L 775 -588 
Q 1028 -725 1275 -790 
Q 1522 -856 1778 -856 
Q 2344 -856 2625 -561 
Q 2906 -266 2906 331 
L 2906 616 
Q 2728 306 2450 153 
Q 2172 0 1784 0 
Q 1141 0 747 490 
Q 353 981 353 1791 
Q 353 2603 747 3093 
Q 1141 3584 1784 3584 
Q 2172 3584 2450 3431 
Q 2728 3278 2906 2969 
L 2906 3500 
L 3481 3500 
L 3481 434 
z
" transform="scale(0.015625)"/>
        <path id="DejaVuSans-68" d="M 3513 2113 
L 3513 0 
L 2938 0 
L 2938 2094 
Q 2938 2591 2744 2837 
Q 2550 3084 2163 3084 
Q 1697 3084 1428 2787 
Q 1159 2491 1159 1978 
L 1159 0 
L 581 0 
L 581 4863 
L 1159 4863 
L 1159 2956 
Q 1366 3272 1645 3428 
Q 1925 3584 2291 3584 
Q 2894 3584 3203 3211 
Q 3513 2838 3513 2113 
z
" transform="scale(0.015625)"/>
        <path id="DejaVuSans-74" d="M 1172 4494 
L 1172 3500 
L 2356 3500 
L 2356 3053 
L 1172 3053 
L 1172 1153 
Q 1172 725 1289 603 
Q 1406 481 1766 481 
L 2356 481 
L 2356 0 
L 1766 0 
Q 1100 0 847 248 
Q 594 497 594 1153 
L 594 3053 
L 172 3053 
L 172 3500 
L 594 3500 
L 594 4494 
L 1172 4494 
z
" transform="scale(0.015625)"/>
        <path id="DejaVuSans-73" d="M 2834 3397 
L 2834 2853 
Q 2591 2978 2328 3040 
Q 2066 3103 1784 3103 
Q 1356 3103 1142 2972 
Q 928 2841 928 2578 
Q 928 2378 1081 2264 
Q 1234 2150 1697 2047 
L 1894 2003 
Q 2506 1872 2764 1633 
Q 3022 1394 3022 966 
Q 3022 478 2636 193 
Q 2250 -91 1575 -91 
Q 1294 -91 989 -36 
Q 684 19 347 128 
L 347 722 
Q 666 556 975 473 
Q 1284 391 1588 391 
Q 1994 391 2212 530 
Q 2431 669 2431 922 
Q 2431 1156 2273 1281 
Q 2116 1406 1581 1522 
L 1381 1569 
Q 847 1681 609 1914 
Q 372 2147 372 2553 
Q 372 3047 722 3315 
Q 1072 3584 1716 3584 
Q 2034 3584 2315 3537 
Q 2597 3491 2834 3397 
z
" transform="scale(0.015625)"/>
       </defs>
       <use xlink:href="#DejaVuSans-4c"/>
       <use xlink:href="#DejaVuSans-69" transform="translate(55.712891 0)"/>
       <use xlink:href="#DejaVuSans-67" transform="translate(83.496094 0)"/>
       <use xlink:href="#DejaVuSans-68" transform="translate(146.972656 0)"/>
       <use xlink:href="#DejaVuSans-74" transform="translate(210.351562 0)"/>
       <use xlink:href="#DejaVuSans-73" transform="translate(249.560547 0)"/>
      </g>
     </g>
    </g>
    <g id="xtick_4">
     <g id="line2d_4">
      <g>
       <use xlink:href="#m2ef98a6885" x="373.95" y="384.48" style="stroke: #000000; stroke-width: 0.8"/>
      </g>
     </g>
     <g id="text_4">
      <!-- Arrow &amp; Radar -->
      <g transform="translate(344.92875 397.55875) scale(0.08 -0.08)">
       <defs>
        <path id="DejaVuSans-20" transform="scale(0.015625)"/>
        <path id="DejaVuSans-26" d="M 1556 2509 
Q 1272 2256 1139 2004 
Q 1006 1753 1006 1478 
Q 1006 1022 1337 719 
Q 1669 416 2169 416 
Q 2466 416 2725 514 
Q 2984 613 3213 813 
L 1556 2509 
z
M 1997 2859 
L 3584 1234 
Q 3769 1513 3872 1830 
Q 3975 2147 3994 2503 
L 4575 2503 
Q 4538 2091 4375 1687 
Q 4213 1284 3922 891 
L 4794 0 
L 4006 0 
L 3559 459 
Q 3234 181 2878 45 
Q 2522 -91 2113 -91 
Q 1359 -91 881 339 
Q 403 769 403 1441 
Q 403 1841 612 2192 
Q 822 2544 1241 2853 
Q 1091 3050 1012 3245 
Q 934 3441 934 3628 
Q 934 4134 1281 4442 
Q 1628 4750 2203 4750 
Q 2463 4750 2720 4694 
Q 2978 4638 3244 4525 
L 3244 3956 
Q 2972 4103 2725 4179 
Q 2478 4256 2266 4256 
Q 1938 4256 1733 4082 
Q 1528 3909 1528 3634 
Q 1528 3475 1620 3314 
Q 1713 3153 1997 2859 
z
" transform="scale(0.015625)"/>
       </defs>
       <use xlink:href="#DejaVuSans-41"/>
       <use xlink:href="#DejaVuSans-72" transform="translate(68.408203 0)"/>
       <use xlink:href="#DejaVuSans-72" transform="translate(107.771484 0)"/>
       <use xlink:href="#DejaVuSans-6f" transform="translate(146.634766 0)"/>
       <use xlink:href="#DejaVuSans-77" transform="translate(207.816406 0)"/>
       <use xlink:href="#DejaVuSans-20" transform="translate(289.603516 0)"/>
       <use xlink:href="#DejaVuSans-26" transform="translate(321.390625 0)"/>
       <use xlink:href="#DejaVuSans-20" transform="translate(399.369141 0)"/>
       <use xlink:href="#DejaVuSans-52" transform="translate(431.15625 0)"/>
       <use xlink:href="#DejaVuSans-61" transform="translate(498.388672 0)"/>
       <use xlink:href="#DejaVuSans-64" transform="translate(559.667969 0)"/>
       <use xlink:href="#DejaVuSans-61" transform="translate(623.144531 0)"/>
       <use xlink:href="#DejaVuSans-72" transform="translate(684.423828 0)"/>
      </g>
     </g>
    </g>
    <g id="xtick_5">
     <g id="line2d_5">
      <g>
       <use xlink:href="#m2ef98a6885" x="457.65" y="384.48" style="stroke: #000000; stroke-width: 0.8"/>
      </g>
     </g>
     <g id="text_5">
      <!-- Arrow &amp; Lights -->
      <g transform="translate(428.338125 397.55875) scale(0.08 -0.08)">
       <use xlink:href="#DejaVuSans-41"/>
       <use xlink:href="#DejaVuSans-72" transform="translate(68.408203 0)"/>
       <use xlink:href="#DejaVuSans-72" transform="translate(107.771484 0)"/>
       <use xlink:href="#DejaVuSans-6f" transform="translate(146.634766 0)"/>
       <use xlink:href="#DejaVuSans-77" transform="translate(207.816406 0)"/>
       <use xlink:href="#DejaVuSans-20" transform="translate(289.603516 0)"/>
       <use xlink:href="#DejaVuSans-26" transform="translate(321.390625 0)"/>
       <use xlink:href="#DejaVuSans-20" transform="translate(399.369141 0)"/>
       <use xlink:href="#DejaVuSans-4c" transform="translate(431.15625 0)"/>
       <use xlink:href="#DejaVuSans-69" transform="translate(486.869141 0)"/>
       <use xlink:href="#DejaVuSans-67" transform="translate(514.652344 0)"/>
       <use xlink:href="#DejaVuSans-68" transform="translate(578.128906 0)"/>
       <use xlink:href="#DejaVuSans-74" transform="translate(641.507812 0)"/>
       <use xlink:href="#DejaVuSans-73" transform="translate(680.716797 0)"/>
      </g>
     </g>
    </g>
    <g id="xtick_6">
     <g id="line2d_6">
      <g>
       <use xlink:href="#m2ef98a6885" x="541.35" y="384.48" style="stroke: #000000; stroke-width: 0.8"/>
      </g>
     </g>
     <g id="text_6">
      <!-- Lights &amp; Radar -->
      <g transform="translate(511.84625 397.55875) scale(0.08 -0.08)">
       <use xlink:href="#DejaVuSans-4c"/>
       <use xlink:href="#DejaVuSans-69" transform="translate(55.712891 0)"/>
       <use xlink:href="#DejaVuSans-67" transform="translate(83.496094 0)"/>
       <use xlink:href="#DejaVuSans-68" transform="translate(146.972656 0)"/>
       <use xlink:href="#DejaVuSans-74" transform="translate(210.351562 0)"/>
       <use xlink:href="#DejaVuSans-73" transform="translate(249.560547 0)"/>
       <use xlink:href="#DejaVuSans-20" transform="translate(301.660156 0)"/>
       <use xlink:href="#DejaVuSans-26" transform="translate(333.447266 0)"/>
       <use xlink:href="#DejaVuSans-20" transform="translate(411.425781 0)"/>
       <use xlink:href="#DejaVuSans-52" transform="translate(443.212891 0)"/>
       <use xlink:href="#DejaVuSans-61" transform="translate(510.445312 0)"/>
       <use xlink:href="#DejaVuSans-64" transform="translate(571.724609 0)"/>
       <use xlink:href="#DejaVuSans-61" transform="translate(635.201172 0)"/>
       <use xlink:href="#DejaVuSans-72" transform="translate(696.480469 0)"/>
      </g>
     </g>
    </g>
    <g id="text_7">
     <!-- Visualization -->
     <g transform="translate(300.521875 416.820938) scale(0.1 -0.1)">
      <defs>
       <path id="DejaVuSans-56" d="M 1831 0 
L 50 4666 
L 709 4666 
L 2188 738 
L 3669 4666 
L 4325 4666 
L 2547 0 
L 1831 0 
z
" transform="scale(0.015625)"/>
       <path id="DejaVuSans-75" d="M 544 1381 
L 544 3500 
L 1119 3500 
L 1119 1403 
Q 1119 906 1312 657 
Q 1506 409 1894 409 
Q 2359 409 2629 706 
Q 2900 1003 2900 1516 
L 2900 3500 
L 3475 3500 
L 3475 0 
L 2900 0 
L 2900 538 
Q 2691 219 2414 64 
Q 2138 -91 1772 -91 
Q 1169 -91 856 284 
Q 544 659 544 1381 
z
M 1991 3584 
L 1991 3584 
z
" transform="scale(0.015625)"/>
       <path id="DejaVuSans-6c" d="M 603 4863 
L 1178 4863 
L 1178 0 
L 603 0 
L 603 4863 
z
" transform="scale(0.015625)"/>
       <path id="DejaVuSans-7a" d="M 353 3500 
L 3084 3500 
L 3084 2975 
L 922 459 
L 3084 459 
L 3084 0 
L 275 0 
L 275 525 
L 2438 3041 
L 353 3041 
L 353 3500 
z
" transform="scale(0.015625)"/>
       <path id="DejaVuSans-6e" d="M 3513 2113 
L 3513 0 
L 2938 0 
L 2938 2094 
Q 2938 2591 2744 2837 
Q 2550 3084 2163 3084 
Q 1697 3084 1428 2787 
Q 1159 2491 1159 1978 
L 1159 0 
L 581 0 
L 581 3500 
L 1159 3500 
L 1159 2956 
Q 1366 3272 1645 3428 
Q 1925 3584 2291 3584 
Q 2894 3584 3203 3211 
Q 3513 2838 3513 2113 
z
" transform="scale(0.015625)"/>
      </defs>
      <use xlink:href="#DejaVuSans-56"/>
      <use xlink:href="#DejaVuSans-69" transform="translate(66.158203 0)"/>
      <use xlink:href="#DejaVuSans-73" transform="translate(93.941406 0)"/>
      <use xlink:href="#DejaVuSans-75" transform="translate(146.041016 0)"/>
      <use xlink:href="#DejaVuSans-61" transform="translate(209.419922 0)"/>
      <use xlink:href="#DejaVuSans-6c" transform="translate(270.699219 0)"/>
      <use xlink:href="#DejaVuSans-69" transform="translate(298.482422 0)"/>
      <use xlink:href="#DejaVuSans-7a" transform="translate(326.265625 0)"/>
      <use xlink:href="#DejaVuSans-61" transform="translate(378.755859 0)"/>
      <use xlink:href="#DejaVuSans-74" transform="translate(440.035156 0)"/>
      <use xlink:href="#DejaVuSans-69" transform="translate(479.244141 0)"/>
      <use xlink:href="#DejaVuSans-6f" transform="translate(507.027344 0)"/>
      <use xlink:href="#DejaVuSans-6e" transform="translate(568.208984 0)"/>
     </g>
    </g>
   </g>
   <g id="matplotlib.axis_2">
    <g id="ytick_1">
     <g id="line2d_7">
      <defs>
       <path id="m8ef2c17ace" d="M 0 0 
L -3.5 0 
" style="stroke: #000000; stroke-width: 0.8"/>
      </defs>
      <g>
       <use xlink:href="#m8ef2c17ace" x="81" y="384.48" style="stroke: #000000; stroke-width: 0.8"/>
      </g>
     </g>
     <g id="text_8">
      <!-- 0 -->
      <g transform="translate(67.6375 388.279219) scale(0.1 -0.1)">
       <defs>
        <path id="DejaVuSans-30" d="M 2034 4250 
Q 1547 4250 1301 3770 
Q 1056 3291 1056 2328 
Q 1056 1369 1301 889 
Q 1547 409 2034 409 
Q 2525 409 2770 889 
Q 3016 1369 3016 2328 
Q 3016 3291 2770 3770 
Q 2525 4250 2034 4250 
z
M 2034 4750 
Q 2819 4750 3233 4129 
Q 3647 3509 3647 2328 
Q 3647 1150 3233 529 
Q 2819 -91 2034 -91 
Q 1250 -91 836 529 
Q 422 1150 422 2328 
Q 422 3509 836 4129 
Q 1250 4750 2034 4750 
z
" transform="scale(0.015625)"/>
       </defs>
       <use xlink:href="#DejaVuSans-30"/>
      </g>
     </g>
    </g>
    <g id="ytick_2">
     <g id="line2d_8">
      <g>
       <use xlink:href="#m8ef2c17ace" x="81" y="327.504782" style="stroke: #000000; stroke-width: 0.8"/>
      </g>
     </g>
     <g id="text_9">
      <!-- 5 -->
      <g transform="translate(67.6375 331.304001) scale(0.1 -0.1)">
       <defs>
        <path id="DejaVuSans-35" d="M 691 4666 
L 3169 4666 
L 3169 4134 
L 1269 4134 
L 1269 2991 
Q 1406 3038 1543 3061 
Q 1681 3084 1819 3084 
Q 2600 3084 3056 2656 
Q 3513 2228 3513 1497 
Q 3513 744 3044 326 
Q 2575 -91 1722 -91 
Q 1428 -91 1123 -41 
Q 819 9 494 109 
L 494 744 
Q 775 591 1075 516 
Q 1375 441 1709 441 
Q 2250 441 2565 725 
Q 2881 1009 2881 1497 
Q 2881 1984 2565 2268 
Q 2250 2553 1709 2553 
Q 1456 2553 1204 2497 
Q 953 2441 691 2322 
L 691 4666 
z
" transform="scale(0.015625)"/>
       </defs>
       <use xlink:href="#DejaVuSans-35"/>
      </g>
     </g>
    </g>
    <g id="ytick_3">
     <g id="line2d_9">
      <g>
       <use xlink:href="#m8ef2c17ace" x="81" y="270.529564" style="stroke: #000000; stroke-width: 0.8"/>
      </g>
     </g>
     <g id="text_10">
      <!-- 10 -->
      <g transform="translate(61.275 274.328783) scale(0.1 -0.1)">
       <defs>
        <path id="DejaVuSans-31" d="M 794 531 
L 1825 531 
L 1825 4091 
L 703 3866 
L 703 4441 
L 1819 4666 
L 2450 4666 
L 2450 531 
L 3481 531 
L 3481 0 
L 794 0 
L 794 531 
z
" transform="scale(0.015625)"/>
       </defs>
       <use xlink:href="#DejaVuSans-31"/>
       <use xlink:href="#DejaVuSans-30" transform="translate(63.623047 0)"/>
      </g>
     </g>
    </g>
    <g id="ytick_4">
     <g id="line2d_10">
      <g>
       <use xlink:href="#m8ef2c17ace" x="81" y="213.554347" style="stroke: #000000; stroke-width: 0.8"/>
      </g>
     </g>
     <g id="text_11">
      <!-- 15 -->
      <g transform="translate(61.275 217.353565) scale(0.1 -0.1)">
       <use xlink:href="#DejaVuSans-31"/>
       <use xlink:href="#DejaVuSans-35" transform="translate(63.623047 0)"/>
      </g>
     </g>
    </g>
    <g id="ytick_5">
     <g id="line2d_11">
      <g>
       <use xlink:href="#m8ef2c17ace" x="81" y="156.579129" style="stroke: #000000; stroke-width: 0.8"/>
      </g>
     </g>
     <g id="text_12">
      <!-- 20 -->
      <g transform="translate(61.275 160.378348) scale(0.1 -0.1)">
       <defs>
        <path id="DejaVuSans-32" d="M 1228 531 
L 3431 531 
L 3431 0 
L 469 0 
L 469 531 
Q 828 903 1448 1529 
Q 2069 2156 2228 2338 
Q 2531 2678 2651 2914 
Q 2772 3150 2772 3378 
Q 2772 3750 2511 3984 
Q 2250 4219 1831 4219 
Q 1534 4219 1204 4116 
Q 875 4013 500 3803 
L 500 4441 
Q 881 4594 1212 4672 
Q 1544 4750 1819 4750 
Q 2544 4750 2975 4387 
Q 3406 4025 3406 3419 
Q 3406 3131 3298 2873 
Q 3191 2616 2906 2266 
Q 2828 2175 2409 1742 
Q 1991 1309 1228 531 
z
" transform="scale(0.015625)"/>
       </defs>
       <use xlink:href="#DejaVuSans-32"/>
       <use xlink:href="#DejaVuSans-30" transform="translate(63.623047 0)"/>
      </g>
     </g>
    </g>
    <g id="ytick_6">
     <g id="line2d_12">
      <g>
       <use xlink:href="#m8ef2c17ace" x="81" y="99.603911" style="stroke: #000000; stroke-width: 0.8"/>
      </g>
     </g>
     <g id="text_13">
      <!-- 25 -->
      <g transform="translate(61.275 103.40313) scale(0.1 -0.1)">
       <use xlink:href="#DejaVuSans-32"/>
       <use xlink:href="#DejaVuSans-35" transform="translate(63.623047 0)"/>
      </g>
     </g>
    </g>
    <g id="text_14">
     <!-- Distance -->
     <g transform="translate(49.195312 240.0225) rotate(-90) scale(0.1 -0.1)">
      <defs>
       <path id="DejaVuSans-44" d="M 1259 4147 
L 1259 519 
L 2022 519 
Q 2988 519 3436 956 
Q 3884 1394 3884 2338 
Q 3884 3275 3436 3711 
Q 2988 4147 2022 4147 
L 1259 4147 
z
M 628 4666 
L 1925 4666 
Q 3281 4666 3915 4102 
Q 4550 3538 4550 2338 
Q 4550 1131 3912 565 
Q 3275 0 1925 0 
L 628 0 
L 628 4666 
z
" transform="scale(0.015625)"/>
       <path id="DejaVuSans-63" d="M 3122 3366 
L 3122 2828 
Q 2878 2963 2633 3030 
Q 2388 3097 2138 3097 
Q 1578 3097 1268 2742 
Q 959 2388 959 1747 
Q 959 1106 1268 751 
Q 1578 397 2138 397 
Q 2388 397 2633 464 
Q 2878 531 3122 666 
L 3122 134 
Q 2881 22 2623 -34 
Q 2366 -91 2075 -91 
Q 1284 -91 818 406 
Q 353 903 353 1747 
Q 353 2603 823 3093 
Q 1294 3584 2113 3584 
Q 2378 3584 2631 3529 
Q 2884 3475 3122 3366 
z
" transform="scale(0.015625)"/>
       <path id="DejaVuSans-65" d="M 3597 1894 
L 3597 1613 
L 953 1613 
Q 991 1019 1311 708 
Q 1631 397 2203 397 
Q 2534 397 2845 478 
Q 3156 559 3463 722 
L 3463 178 
Q 3153 47 2828 -22 
Q 2503 -91 2169 -91 
Q 1331 -91 842 396 
Q 353 884 353 1716 
Q 353 2575 817 3079 
Q 1281 3584 2069 3584 
Q 2775 3584 3186 3129 
Q 3597 2675 3597 1894 
z
M 3022 2063 
Q 3016 2534 2758 2815 
Q 2500 3097 2075 3097 
Q 1594 3097 1305 2825 
Q 1016 2553 972 2059 
L 3022 2063 
z
" transform="scale(0.015625)"/>
      </defs>
      <use xlink:href="#DejaVuSans-44"/>
      <use xlink:href="#DejaVuSans-69" transform="translate(77.001953 0)"/>
      <use xlink:href="#DejaVuSans-73" transform="translate(104.785156 0)"/>
      <use xlink:href="#DejaVuSans-74" transform="translate(156.884766 0)"/>
      <use xlink:href="#DejaVuSans-61" transform="translate(196.09375 0)"/>
      <use xlink:href="#DejaVuSans-6e" transform="translate(257.373047 0)"/>
      <use xlink:href="#DejaVuSans-63" transform="translate(320.751953 0)"/>
      <use xlink:href="#DejaVuSans-65" transform="translate(375.732422 0)"/>
     </g>
    </g>
   </g>
   <g id="LineCollection_1">
    <path d="M 106.11 252.911688 
L 139.59 252.911688 
" clip-path="url(#p6e16123ead)" style="fill: none; stroke: #1f77b4; stroke-width: 1.5"/>
    <path d="M 189.81 98.580978 
L 223.29 98.580978 
" clip-path="url(#p6e16123ead)" style="fill: none; stroke: #1f77b4; stroke-width: 1.5"/>
    <path d="M 273.51 67.611984 
L 306.99 67.611984 
" clip-path="url(#p6e16123ead)" style="fill: none; stroke: #1f77b4; stroke-width: 1.5"/>
    <path d="M 357.21 93.319545 
L 390.69 93.319545 
" clip-path="url(#p6e16123ead)" style="fill: none; stroke: #1f77b4; stroke-width: 1.5"/>
    <path d="M 440.91 190.526331 
L 474.39 190.526331 
" clip-path="url(#p6e16123ead)" style="fill: none; stroke: #1f77b4; stroke-width: 1.5"/>
    <path d="M 524.61 186.306063 
L 558.09 186.306063 
" clip-path="url(#p6e16123ead)" style="fill: none; stroke: #1f77b4; stroke-width: 1.5"/>
   </g>
   <g id="LineCollection_2">
    <path d="M 106.11 378.254214 
L 139.59 378.254214 
" clip-path="url(#p6e16123ead)" style="fill: none; stroke: #1f77b4; stroke-width: 1.5"/>
    <path d="M 189.81 382.441717 
L 223.29 382.441717 
" clip-path="url(#p6e16123ead)" style="fill: none; stroke: #1f77b4; stroke-width: 1.5"/>
    <path d="M 273.51 377.608835 
L 306.99 377.608835 
" clip-path="url(#p6e16123ead)" style="fill: none; stroke: #1f77b4; stroke-width: 1.5"/>
    <path d="M 357.21 381.596038 
L 390.69 381.596038 
" clip-path="url(#p6e16123ead)" style="fill: none; stroke: #1f77b4; stroke-width: 1.5"/>
    <path d="M 440.91 380.035359 
L 474.39 380.035359 
" clip-path="url(#p6e16123ead)" style="fill: none; stroke: #1f77b4; stroke-width: 1.5"/>
    <path d="M 524.61 383.051673 
L 558.09 383.051673 
" clip-path="url(#p6e16123ead)" style="fill: none; stroke: #1f77b4; stroke-width: 1.5"/>
   </g>
   <g id="LineCollection_3">
    <path d="M 122.85 378.254214 
L 122.85 252.911688 
" clip-path="url(#p6e16123ead)" style="fill: none; stroke: #1f77b4; stroke-width: 1.5"/>
    <path d="M 206.55 382.441717 
L 206.55 98.580978 
" clip-path="url(#p6e16123ead)" style="fill: none; stroke: #1f77b4; stroke-width: 1.5"/>
    <path d="M 290.25 377.608835 
L 290.25 67.611984 
" clip-path="url(#p6e16123ead)" style="fill: none; stroke: #1f77b4; stroke-width: 1.5"/>
    <path d="M 373.95 381.596038 
L 373.95 93.319545 
" clip-path="url(#p6e16123ead)" style="fill: none; stroke: #1f77b4; stroke-width: 1.5"/>
    <path d="M 457.65 380.035359 
L 457.65 190.526331 
" clip-path="url(#p6e16123ead)" style="fill: none; stroke: #1f77b4; stroke-width: 1.5"/>
    <path d="M 541.35 383.051673 
L 541.35 186.306063 
" clip-path="url(#p6e16123ead)" style="fill: none; stroke: #1f77b4; stroke-width: 1.5"/>
   </g>
   <g id="patch_3">
    <path d="M 110.295 376.934946 
L 135.405 376.934946 
L 135.405 370.422735 
L 110.295 370.422735 
L 110.295 376.934946 
z
" clip-path="url(#p6e16123ead)" style="fill: #add8e6; stroke: #000000; stroke-linejoin: miter"/>
   </g>
   <g id="line2d_13">
    <path d="M 122.85 376.934946 
L 122.85 378.254214 
" clip-path="url(#p6e16123ead)" style="fill: none; stroke: #000000; stroke-linecap: square"/>
   </g>
   <g id="line2d_14">
    <path d="M 122.85 370.422735 
L 122.85 361.423508 
" clip-path="url(#p6e16123ead)" style="fill: none; stroke: #000000; stroke-linecap: square"/>
   </g>
   <g id="line2d_15">
    <path d="M 116.5725 378.254214 
L 129.1275 378.254214 
" clip-path="url(#p6e16123ead)" style="fill: none; stroke: #000000; stroke-linecap: square"/>
   </g>
   <g id="line2d_16">
    <path d="M 116.5725 361.423508 
L 129.1275 361.423508 
" clip-path="url(#p6e16123ead)" style="fill: none; stroke: #000000; stroke-linecap: square"/>
   </g>
   <g id="line2d_17">
    <defs>
     <path id="m098403dffb" d="M 0 2 
C 0.530406 2 1.03916 1.789267 1.414214 1.414214 
C 1.789267 1.03916 2 0.530406 2 0 
C 2 -0.530406 1.789267 -1.03916 1.414214 -1.414214 
C 1.03916 -1.789267 0.530406 -2 0 -2 
C -0.530406 -2 -1.03916 -1.789267 -1.414214 -1.414214 
C -1.789267 -1.03916 -2 -0.530406 -2 0 
C -2 0.530406 -1.789267 1.03916 -1.414214 1.414214 
C -1.03916 1.789267 -0.530406 2 0 2 
z
" style="stroke: #000000"/>
    </defs>
    <g clip-path="url(#p6e16123ead)">
     <use xlink:href="#m098403dffb" x="122.85" y="348.780411" style="fill-opacity: 0; stroke: #000000"/>
     <use xlink:href="#m098403dffb" x="122.85" y="356.533678" style="fill-opacity: 0; stroke: #000000"/>
     <use xlink:href="#m098403dffb" x="122.85" y="252.911688" style="fill-opacity: 0; stroke: #000000"/>
     <use xlink:href="#m098403dffb" x="122.85" y="334.942658" style="fill-opacity: 0; stroke: #000000"/>
     <use xlink:href="#m098403dffb" x="122.85" y="358.242354" style="fill-opacity: 0; stroke: #000000"/>
     <use xlink:href="#m098403dffb" x="122.85" y="258.408201" style="fill-opacity: 0; stroke: #000000"/>
     <use xlink:href="#m098403dffb" x="122.85" y="346.845886" style="fill-opacity: 0; stroke: #000000"/>
     <use xlink:href="#m098403dffb" x="122.85" y="331.565178" style="fill-opacity: 0; stroke: #000000"/>
     <use xlink:href="#m098403dffb" x="122.85" y="330.028021" style="fill-opacity: 0; stroke: #000000"/>
    </g>
   </g>
   <g id="patch_4">
    <path d="M 193.995 376.560907 
L 219.105 376.560907 
L 219.105 372.7214 
L 193.995 372.7214 
L 193.995 376.560907 
z
" clip-path="url(#p6e16123ead)" style="fill: #add8e6; stroke: #000000; stroke-linejoin: miter"/>
   </g>
   <g id="line2d_18">
    <path d="M 206.55 376.560907 
L 206.55 382.296008 
" clip-path="url(#p6e16123ead)" style="fill: none; stroke: #000000; stroke-linecap: square"/>
   </g>
   <g id="line2d_19">
    <path d="M 206.55 372.7214 
L 206.55 368.928455 
" clip-path="url(#p6e16123ead)" style="fill: none; stroke: #000000; stroke-linecap: square"/>
   </g>
   <g id="line2d_20">
    <path d="M 200.2725 382.296008 
L 212.8275 382.296008 
" clip-path="url(#p6e16123ead)" style="fill: none; stroke: #000000; stroke-linecap: square"/>
   </g>
   <g id="line2d_21">
    <path d="M 200.2725 368.928455 
L 212.8275 368.928455 
" clip-path="url(#p6e16123ead)" style="fill: none; stroke: #000000; stroke-linecap: square"/>
   </g>
   <g id="line2d_22">
    <g clip-path="url(#p6e16123ead)">
     <use xlink:href="#m098403dffb" x="206.55" y="382.412358" style="fill-opacity: 0; stroke: #000000"/>
     <use xlink:href="#m098403dffb" x="206.55" y="382.441717" style="fill-opacity: 0; stroke: #000000"/>
     <use xlink:href="#m098403dffb" x="206.55" y="363.422575" style="fill-opacity: 0; stroke: #000000"/>
     <use xlink:href="#m098403dffb" x="206.55" y="366.291767" style="fill-opacity: 0; stroke: #000000"/>
     <use xlink:href="#m098403dffb" x="206.55" y="363.415225" style="fill-opacity: 0; stroke: #000000"/>
     <use xlink:href="#m098403dffb" x="206.55" y="318.86571" style="fill-opacity: 0; stroke: #000000"/>
     <use xlink:href="#m098403dffb" x="206.55" y="202.539556" style="fill-opacity: 0; stroke: #000000"/>
     <use xlink:href="#m098403dffb" x="206.55" y="317.393892" style="fill-opacity: 0; stroke: #000000"/>
     <use xlink:href="#m098403dffb" x="206.55" y="331.176687" style="fill-opacity: 0; stroke: #000000"/>
     <use xlink:href="#m098403dffb" x="206.55" y="331.083407" style="fill-opacity: 0; stroke: #000000"/>
     <use xlink:href="#m098403dffb" x="206.55" y="98.580978" style="fill-opacity: 0; stroke: #000000"/>
     <use xlink:href="#m098403dffb" x="206.55" y="332.70564" style="fill-opacity: 0; stroke: #000000"/>
     <use xlink:href="#m098403dffb" x="206.55" y="322.136383" style="fill-opacity: 0; stroke: #000000"/>
    </g>
   </g>
   <g id="patch_5">
    <path d="M 277.695 371.44591 
L 302.805 371.44591 
L 302.805 336.538314 
L 277.695 336.538314 
L 277.695 371.44591 
z
" clip-path="url(#p6e16123ead)" style="fill: #add8e6; stroke: #000000; stroke-linejoin: miter"/>
   </g>
   <g id="line2d_23">
    <path d="M 290.25 371.44591 
L 290.25 377.608835 
" clip-path="url(#p6e16123ead)" style="fill: none; stroke: #000000; stroke-linecap: square"/>
   </g>
   <g id="line2d_24">
    <path d="M 290.25 336.538314 
L 290.25 311.464937 
" clip-path="url(#p6e16123ead)" style="fill: none; stroke: #000000; stroke-linecap: square"/>
   </g>
   <g id="line2d_25">
    <path d="M 283.9725 377.608835 
L 296.5275 377.608835 
" clip-path="url(#p6e16123ead)" style="fill: none; stroke: #000000; stroke-linecap: square"/>
   </g>
   <g id="line2d_26">
    <path d="M 283.9725 311.464937 
L 296.5275 311.464937 
" clip-path="url(#p6e16123ead)" style="fill: none; stroke: #000000; stroke-linecap: square"/>
   </g>
   <g id="line2d_27">
    <g clip-path="url(#p6e16123ead)">
     <use xlink:href="#m098403dffb" x="290.25" y="281.12152" style="fill-opacity: 0; stroke: #000000"/>
     <use xlink:href="#m098403dffb" x="290.25" y="140.416285" style="fill-opacity: 0; stroke: #000000"/>
     <use xlink:href="#m098403dffb" x="290.25" y="103.650405" style="fill-opacity: 0; stroke: #000000"/>
     <use xlink:href="#m098403dffb" x="290.25" y="218.35975" style="fill-opacity: 0; stroke: #000000"/>
     <use xlink:href="#m098403dffb" x="290.25" y="128.076934" style="fill-opacity: 0; stroke: #000000"/>
     <use xlink:href="#m098403dffb" x="290.25" y="243.897638" style="fill-opacity: 0; stroke: #000000"/>
     <use xlink:href="#m098403dffb" x="290.25" y="281.074207" style="fill-opacity: 0; stroke: #000000"/>
     <use xlink:href="#m098403dffb" x="290.25" y="67.611984" style="fill-opacity: 0; stroke: #000000"/>
    </g>
   </g>
   <g id="patch_6">
    <path d="M 361.395 377.718574 
L 386.505 377.718574 
L 386.505 372.69742 
L 361.395 372.69742 
L 361.395 377.718574 
z
" clip-path="url(#p6e16123ead)" style="fill: #add8e6; stroke: #000000; stroke-linejoin: miter"/>
   </g>
   <g id="line2d_28">
    <path d="M 373.95 377.718574 
L 373.95 381.596038 
" clip-path="url(#p6e16123ead)" style="fill: none; stroke: #000000; stroke-linecap: square"/>
   </g>
   <g id="line2d_29">
    <path d="M 373.95 372.69742 
L 373.95 366.349699 
" clip-path="url(#p6e16123ead)" style="fill: none; stroke: #000000; stroke-linecap: square"/>
   </g>
   <g id="line2d_30">
    <path d="M 367.6725 381.596038 
L 380.2275 381.596038 
" clip-path="url(#p6e16123ead)" style="fill: none; stroke: #000000; stroke-linecap: square"/>
   </g>
   <g id="line2d_31">
    <path d="M 367.6725 366.349699 
L 380.2275 366.349699 
" clip-path="url(#p6e16123ead)" style="fill: none; stroke: #000000; stroke-linecap: square"/>
   </g>
   <g id="line2d_32">
    <g clip-path="url(#p6e16123ead)">
     <use xlink:href="#m098403dffb" x="373.95" y="363.490341" style="fill-opacity: 0; stroke: #000000"/>
     <use xlink:href="#m098403dffb" x="373.95" y="361.130564" style="fill-opacity: 0; stroke: #000000"/>
     <use xlink:href="#m098403dffb" x="373.95" y="364.867945" style="fill-opacity: 0; stroke: #000000"/>
     <use xlink:href="#m098403dffb" x="373.95" y="364.594099" style="fill-opacity: 0; stroke: #000000"/>
     <use xlink:href="#m098403dffb" x="373.95" y="330.718823" style="fill-opacity: 0; stroke: #000000"/>
     <use xlink:href="#m098403dffb" x="373.95" y="326.097369" style="fill-opacity: 0; stroke: #000000"/>
     <use xlink:href="#m098403dffb" x="373.95" y="253.663874" style="fill-opacity: 0; stroke: #000000"/>
     <use xlink:href="#m098403dffb" x="373.95" y="257.939409" style="fill-opacity: 0; stroke: #000000"/>
     <use xlink:href="#m098403dffb" x="373.95" y="268.483015" style="fill-opacity: 0; stroke: #000000"/>
     <use xlink:href="#m098403dffb" x="373.95" y="143.041019" style="fill-opacity: 0; stroke: #000000"/>
     <use xlink:href="#m098403dffb" x="373.95" y="308.390189" style="fill-opacity: 0; stroke: #000000"/>
     <use xlink:href="#m098403dffb" x="373.95" y="93.319545" style="fill-opacity: 0; stroke: #000000"/>
     <use xlink:href="#m098403dffb" x="373.95" y="247.066486" style="fill-opacity: 0; stroke: #000000"/>
     <use xlink:href="#m098403dffb" x="373.95" y="102.11196" style="fill-opacity: 0; stroke: #000000"/>
    </g>
   </g>
   <g id="patch_7">
    <path d="M 445.095 376.643891 
L 470.205 376.643891 
L 470.205 367.312885 
L 445.095 367.312885 
L 445.095 376.643891 
z
" clip-path="url(#p6e16123ead)" style="fill: #add8e6; stroke: #000000; stroke-linejoin: miter"/>
   </g>
   <g id="line2d_33">
    <path d="M 457.65 376.643891 
L 457.65 380.035359 
" clip-path="url(#p6e16123ead)" style="fill: none; stroke: #000000; stroke-linecap: square"/>
   </g>
   <g id="line2d_34">
    <path d="M 457.65 367.312885 
L 457.65 353.815915 
" clip-path="url(#p6e16123ead)" style="fill: none; stroke: #000000; stroke-linecap: square"/>
   </g>
   <g id="line2d_35">
    <path d="M 451.3725 380.035359 
L 463.9275 380.035359 
" clip-path="url(#p6e16123ead)" style="fill: none; stroke: #000000; stroke-linecap: square"/>
   </g>
   <g id="line2d_36">
    <path d="M 451.3725 353.815915 
L 463.9275 353.815915 
" clip-path="url(#p6e16123ead)" style="fill: none; stroke: #000000; stroke-linecap: square"/>
   </g>
   <g id="line2d_37">
    <g clip-path="url(#p6e16123ead)">
     <use xlink:href="#m098403dffb" x="457.65" y="352.730093" style="fill-opacity: 0; stroke: #000000"/>
     <use xlink:href="#m098403dffb" x="457.65" y="327.458929" style="fill-opacity: 0; stroke: #000000"/>
     <use xlink:href="#m098403dffb" x="457.65" y="339.796741" style="fill-opacity: 0; stroke: #000000"/>
     <use xlink:href="#m098403dffb" x="457.65" y="339.809481" style="fill-opacity: 0; stroke: #000000"/>
     <use xlink:href="#m098403dffb" x="457.65" y="275.81454" style="fill-opacity: 0; stroke: #000000"/>
     <use xlink:href="#m098403dffb" x="457.65" y="262.682026" style="fill-opacity: 0; stroke: #000000"/>
     <use xlink:href="#m098403dffb" x="457.65" y="266.985706" style="fill-opacity: 0; stroke: #000000"/>
     <use xlink:href="#m098403dffb" x="457.65" y="273.884436" style="fill-opacity: 0; stroke: #000000"/>
     <use xlink:href="#m098403dffb" x="457.65" y="317.809264" style="fill-opacity: 0; stroke: #000000"/>
     <use xlink:href="#m098403dffb" x="457.65" y="190.526331" style="fill-opacity: 0; stroke: #000000"/>
     <use xlink:href="#m098403dffb" x="457.65" y="336.48598" style="fill-opacity: 0; stroke: #000000"/>
     <use xlink:href="#m098403dffb" x="457.65" y="346.493471" style="fill-opacity: 0; stroke: #000000"/>
    </g>
   </g>
   <g id="patch_8">
    <path d="M 528.795 377.404453 
L 553.905 377.404453 
L 553.905 365.939475 
L 528.795 365.939475 
L 528.795 377.404453 
z
" clip-path="url(#p6e16123ead)" style="fill: #add8e6; stroke: #000000; stroke-linejoin: miter"/>
   </g>
   <g id="line2d_38">
    <path d="M 541.35 377.404453 
L 541.35 383.051673 
" clip-path="url(#p6e16123ead)" style="fill: none; stroke: #000000; stroke-linecap: square"/>
   </g>
   <g id="line2d_39">
    <path d="M 541.35 365.939475 
L 541.35 353.055159 
" clip-path="url(#p6e16123ead)" style="fill: none; stroke: #000000; stroke-linecap: square"/>
   </g>
   <g id="line2d_40">
    <path d="M 535.0725 383.051673 
L 547.6275 383.051673 
" clip-path="url(#p6e16123ead)" style="fill: none; stroke: #000000; stroke-linecap: square"/>
   </g>
   <g id="line2d_41">
    <path d="M 535.0725 353.055159 
L 547.6275 353.055159 
" clip-path="url(#p6e16123ead)" style="fill: none; stroke: #000000; stroke-linecap: square"/>
   </g>
   <g id="line2d_42">
    <g clip-path="url(#p6e16123ead)">
     <use xlink:href="#m098403dffb" x="541.35" y="345.781714" style="fill-opacity: 0; stroke: #000000"/>
     <use xlink:href="#m098403dffb" x="541.35" y="320.849108" style="fill-opacity: 0; stroke: #000000"/>
     <use xlink:href="#m098403dffb" x="541.35" y="337.285205" style="fill-opacity: 0; stroke: #000000"/>
     <use xlink:href="#m098403dffb" x="541.35" y="318.730952" style="fill-opacity: 0; stroke: #000000"/>
     <use xlink:href="#m098403dffb" x="541.35" y="225.586829" style="fill-opacity: 0; stroke: #000000"/>
     <use xlink:href="#m098403dffb" x="541.35" y="266.638727" style="fill-opacity: 0; stroke: #000000"/>
     <use xlink:href="#m098403dffb" x="541.35" y="186.306063" style="fill-opacity: 0; stroke: #000000"/>
     <use xlink:href="#m098403dffb" x="541.35" y="283.914433" style="fill-opacity: 0; stroke: #000000"/>
     <use xlink:href="#m098403dffb" x="541.35" y="312.545084" style="fill-opacity: 0; stroke: #000000"/>
     <use xlink:href="#m098403dffb" x="541.35" y="282.225038" style="fill-opacity: 0; stroke: #000000"/>
     <use xlink:href="#m098403dffb" x="541.35" y="196.482064" style="fill-opacity: 0; stroke: #000000"/>
    </g>
   </g>
   <g id="line2d_43">
    <path d="M 110.295 375.559506 
L 135.405 375.559506 
" clip-path="url(#p6e16123ead)" style="fill: none; stroke: #000000"/>
   </g>
   <g id="line2d_44">
    <path d="M 193.995 375.479689 
L 219.105 375.479689 
" clip-path="url(#p6e16123ead)" style="fill: none; stroke: #000000"/>
   </g>
   <g id="line2d_45">
    <path d="M 277.695 362.988321 
L 302.805 362.988321 
" clip-path="url(#p6e16123ead)" style="fill: none; stroke: #000000"/>
   </g>
   <g id="line2d_46">
    <path d="M 361.395 375.589197 
L 386.505 375.589197 
" clip-path="url(#p6e16123ead)" style="fill: none; stroke: #000000"/>
   </g>
   <g id="line2d_47">
    <path d="M 445.095 374.811849 
L 470.205 374.811849 
" clip-path="url(#p6e16123ead)" style="fill: none; stroke: #000000"/>
   </g>
   <g id="line2d_48">
    <path d="M 528.795 373.206461 
L 553.905 373.206461 
" clip-path="url(#p6e16123ead)" style="fill: none; stroke: #000000"/>
   </g>
   <g id="patch_9">
    <path d="M 81 384.48 
L 81 51.84 
" style="fill: none; stroke: #000000; stroke-width: 0.8; stroke-linejoin: miter; stroke-linecap: square"/>
   </g>
   <g id="patch_10">
    <path d="M 583.2 384.48 
L 583.2 51.84 
" style="fill: none; stroke: #000000; stroke-width: 0.8; stroke-linejoin: miter; stroke-linecap: square"/>
   </g>
   <g id="patch_11">
    <path d="M 81 384.48 
L 583.2 384.48 
" style="fill: none; stroke: #000000; stroke-width: 0.8; stroke-linejoin: miter; stroke-linecap: square"/>
   </g>
   <g id="patch_12">
    <path d="M 81 51.84 
L 583.2 51.84 
" style="fill: none; stroke: #000000; stroke-width: 0.8; stroke-linejoin: miter; stroke-linecap: square"/>
   </g>
   <g id="text_15">
    <!-- Distance Distribution by Visualization -->
    <g transform="translate(219.887813 31.84) scale(0.12 -0.12)">
     <defs>
      <path id="DejaVuSans-62" d="M 3116 1747 
Q 3116 2381 2855 2742 
Q 2594 3103 2138 3103 
Q 1681 3103 1420 2742 
Q 1159 2381 1159 1747 
Q 1159 1113 1420 752 
Q 1681 391 2138 391 
Q 2594 391 2855 752 
Q 3116 1113 3116 1747 
z
M 1159 2969 
Q 1341 3281 1617 3432 
Q 1894 3584 2278 3584 
Q 2916 3584 3314 3078 
Q 3713 2572 3713 1747 
Q 3713 922 3314 415 
Q 2916 -91 2278 -91 
Q 1894 -91 1617 61 
Q 1341 213 1159 525 
L 1159 0 
L 581 0 
L 581 4863 
L 1159 4863 
L 1159 2969 
z
" transform="scale(0.015625)"/>
      <path id="DejaVuSans-79" d="M 2059 -325 
Q 1816 -950 1584 -1140 
Q 1353 -1331 966 -1331 
L 506 -1331 
L 506 -850 
L 844 -850 
Q 1081 -850 1212 -737 
Q 1344 -625 1503 -206 
L 1606 56 
L 191 3500 
L 800 3500 
L 1894 763 
L 2988 3500 
L 3597 3500 
L 2059 -325 
z
" transform="scale(0.015625)"/>
     </defs>
     <use xlink:href="#DejaVuSans-44"/>
     <use xlink:href="#DejaVuSans-69" transform="translate(77.001953 0)"/>
     <use xlink:href="#DejaVuSans-73" transform="translate(104.785156 0)"/>
     <use xlink:href="#DejaVuSans-74" transform="translate(156.884766 0)"/>
     <use xlink:href="#DejaVuSans-61" transform="translate(196.09375 0)"/>
     <use xlink:href="#DejaVuSans-6e" transform="translate(257.373047 0)"/>
     <use xlink:href="#DejaVuSans-63" transform="translate(320.751953 0)"/>
     <use xlink:href="#DejaVuSans-65" transform="translate(375.732422 0)"/>
     <use xlink:href="#DejaVuSans-20" transform="translate(437.255859 0)"/>
     <use xlink:href="#DejaVuSans-44" transform="translate(469.042969 0)"/>
     <use xlink:href="#DejaVuSans-69" transform="translate(546.044922 0)"/>
     <use xlink:href="#DejaVuSans-73" transform="translate(573.828125 0)"/>
     <use xlink:href="#DejaVuSans-74" transform="translate(625.927734 0)"/>
     <use xlink:href="#DejaVuSans-72" transform="translate(665.136719 0)"/>
     <use xlink:href="#DejaVuSans-69" transform="translate(706.25 0)"/>
     <use xlink:href="#DejaVuSans-62" transform="translate(734.033203 0)"/>
     <use xlink:href="#DejaVuSans-75" transform="translate(797.509766 0)"/>
     <use xlink:href="#DejaVuSans-74" transform="translate(860.888672 0)"/>
     <use xlink:href="#DejaVuSans-69" transform="translate(900.097656 0)"/>
     <use xlink:href="#DejaVuSans-6f" transform="translate(927.880859 0)"/>
     <use xlink:href="#DejaVuSans-6e" transform="translate(989.0625 0)"/>
     <use xlink:href="#DejaVuSans-20" transform="translate(1052.441406 0)"/>
     <use xlink:href="#DejaVuSans-62" transform="translate(1084.228516 0)"/>
     <use xlink:href="#DejaVuSans-79" transform="translate(1147.705078 0)"/>
     <use xlink:href="#DejaVuSans-20" transform="translate(1206.884766 0)"/>
     <use xlink:href="#DejaVuSans-56" transform="translate(1238.671875 0)"/>
     <use xlink:href="#DejaVuSans-69" transform="translate(1304.830078 0)"/>
     <use xlink:href="#DejaVuSans-73" transform="translate(1332.613281 0)"/>
     <use xlink:href="#DejaVuSans-75" transform="translate(1384.712891 0)"/>
     <use xlink:href="#DejaVuSans-61" transform="translate(1448.091797 0)"/>
     <use xlink:href="#DejaVuSans-6c" transform="translate(1509.371094 0)"/>
     <use xlink:href="#DejaVuSans-69" transform="translate(1537.154297 0)"/>
     <use xlink:href="#DejaVuSans-7a" transform="translate(1564.9375 0)"/>
     <use xlink:href="#DejaVuSans-61" transform="translate(1617.427734 0)"/>
     <use xlink:href="#DejaVuSans-74" transform="translate(1678.707031 0)"/>
     <use xlink:href="#DejaVuSans-69" transform="translate(1717.916016 0)"/>
     <use xlink:href="#DejaVuSans-6f" transform="translate(1745.699219 0)"/>
     <use xlink:href="#DejaVuSans-6e" transform="translate(1806.880859 0)"/>
    </g>
   </g>
  </g>
 </g>
 <defs>
  <clipPath id="p6e16123ead">
   <rect x="81" y="51.84" width="502.2" height="332.64"/>
  </clipPath>
 </defs>
</svg>
