<?xml version="1.0" encoding="utf-8" standalone="no"?>
<!DOCTYPE svg PUBLIC "-//W3C//DTD SVG 1.1//EN"
  "http://www.w3.org/Graphics/SVG/1.1/DTD/svg11.dtd">
<svg xmlns:xlink="http://www.w3.org/1999/xlink" width="648pt" height="432pt" viewBox="0 0 648 432" xmlns="http://www.w3.org/2000/svg" version="1.1">
 <metadata>
  <rdf:RDF xmlns:dc="http://purl.org/dc/elements/1.1/" xmlns:cc="http://creativecommons.org/ns#" xmlns:rdf="http://www.w3.org/1999/02/22-rdf-syntax-ns#">
   <cc:Work>
    <dc:type rdf:resource="http://purl.org/dc/dcmitype/StillImage"/>
    <dc:date>2026-03-02T20:43:38.118847</dc:date>
    <dc:format>image/svg+xml</dc:format>
    <dc:creator>
     <cc:Agent>
      <dc:title>Matplotlib v3.10.6, https://matplotlib.org/</dc:title>
     </cc:Agent>
    </dc:creator>
   </cc:Work>
  </rdf:RDF>
 </metadata>
 <defs>
  <style type="text/css">*{stroke-linejoin: round; stroke-linecap: butt}</style>
 </defs>
 <g id="figure_1">
  <g id="patch_1">
   <path d="M 0 432 
L 648 432 
L 648 0 
L 0 0 
z
" style="fill: #ffffff"/>
  </g>
  <g id="axes_1">
   <g id="patch_2">
    <path d="M 81 384.48 
L 583.2 384.48 
L 583.2 51.84 
L 81 51.84 
z
" style="fill: #ffffff"/>
   </g>
   <g id="FillBetweenPolyCollection_1">
    <path d="M 148.955456 357.442183 
L 96.744544 357.442183 
L 94.809584 356.149243 
L 93.09972 354.856303 
L 91.666292 353.563363 
L 90.55179 352.270422 
L 89.787532 350.977482 
L 89.392 349.684542 
L 89.37 348.391602 
L 89.712666 347.098662 
L 90.398313 345.805721 
L 91.394025 344.512781 
L 92.657845 343.219841 
L 94.141356 341.926901 
L 95.792453 340.633961 
L 97.558099 339.34102 
L 99.386861 338.04808 
L 101.231085 336.75514 
L 103.048604 335.4622 
L 104.803919 334.16926 
L 106.468842 332.876319 
L 108.022644 331.583379 
L 109.451769 330.290439 
L 110.749198 328.997499 
L 111.913569 327.704559 
L 112.948154 326.411618 
L 113.859776 325.118678 
L 114.657755 323.825738 
L 115.352943 322.532798 
L 115.956881 321.239858 
L 116.481121 319.946917 
L 116.936706 318.653977 
L 117.333803 317.361037 
L 117.681486 316.068097 
L 117.98763 314.775157 
L 118.258899 313.482217 
L 118.500805 312.189276 
L 118.717814 310.896336 
L 118.913469 309.603396 
L 119.090547 308.310456 
L 119.251204 307.017516 
L 119.397129 305.724575 
L 119.529695 304.431635 
L 119.6501 303.138695 
L 119.759494 301.845755 
L 119.859092 300.552815 
L 119.950258 299.259874 
L 120.034557 297.966934 
L 120.113767 296.673994 
L 120.189847 295.381054 
L 120.264865 294.088114 
L 120.340881 292.795173 
L 120.419817 291.502233 
L 120.503299 290.209293 
L 120.592518 288.916353 
L 120.688108 287.623413 
L 120.790067 286.330472 
L 120.897732 285.037532 
L 121.009814 283.744592 
L 121.124487 282.451652 
L 121.239542 281.158712 
L 121.35256 279.865771 
L 121.461127 278.572831 
L 121.563032 277.279891 
L 121.65645 275.986951 
L 121.740088 274.694011 
L 121.813271 273.40107 
L 121.875973 272.10813 
L 121.928779 270.81519 
L 121.972793 269.52225 
L 122.0095 268.22931 
L 122.040586 266.93637 
L 122.067763 265.643429 
L 122.09258 264.350489 
L 122.116269 263.057549 
L 122.139627 261.764609 
L 122.162941 260.471669 
L 122.185972 259.178728 
L 122.20799 257.885788 
L 122.227855 256.592848 
L 122.24414 255.299908 
L 122.255285 254.006968 
L 122.259756 252.714027 
L 122.256213 251.421087 
L 122.243657 250.128147 
L 122.221554 248.835207 
L 122.189928 247.542267 
L 122.149406 246.249326 
L 122.101219 244.956386 
L 122.047166 243.663446 
L 121.989524 242.370506 
L 121.93093 241.077566 
L 121.874231 239.784625 
L 121.822317 238.491685 
L 121.777951 237.198745 
L 121.743601 235.905805 
L 121.721294 234.612865 
L 121.712498 233.319924 
L 121.718044 232.026984 
L 121.738086 230.734044 
L 121.772113 229.441104 
L 123.927887 229.441104 
L 123.927887 229.441104 
L 123.961914 230.734044 
L 123.981956 232.026984 
L 123.987502 233.319924 
L 123.978706 234.612865 
L 123.956399 235.905805 
L 123.922049 237.198745 
L 123.877683 238.491685 
L 123.825769 239.784625 
L 123.76907 241.077566 
L 123.710476 242.370506 
L 123.652834 243.663446 
L 123.598781 244.956386 
L 123.550594 246.249326 
L 123.510072 247.542267 
L 123.478446 248.835207 
L 123.456343 250.128147 
L 123.443787 251.421087 
L 123.440244 252.714027 
L 123.444715 254.006968 
L 123.45586 255.299908 
L 123.472145 256.592848 
L 123.49201 257.885788 
L 123.514028 259.178728 
L 123.537059 260.471669 
L 123.560373 261.764609 
L 123.583731 263.057549 
L 123.60742 264.350489 
L 123.632237 265.643429 
L 123.659414 266.93637 
L 123.6905 268.22931 
L 123.727207 269.52225 
L 123.771221 270.81519 
L 123.824027 272.10813 
L 123.886729 273.40107 
L 123.959912 274.694011 
L 124.04355 275.986951 
L 124.136968 277.279891 
L 124.238873 278.572831 
L 124.34744 279.865771 
L 124.460458 281.158712 
L 124.575513 282.451652 
L 124.690186 283.744592 
L 124.802268 285.037532 
L 124.909933 286.330472 
L 125.011892 287.623413 
L 125.107482 288.916353 
L 125.196701 290.209293 
L 125.280183 291.502233 
L 125.359119 292.795173 
L 125.435135 294.088114 
L 125.510153 295.381054 
L 125.586233 296.673994 
L 125.665443 297.966934 
L 125.749742 299.259874 
L 125.840908 300.552815 
L 125.940506 301.845755 
L 126.0499 303.138695 
L 126.170305 304.431635 
L 126.302871 305.724575 
L 126.448796 307.017516 
L 126.609453 308.310456 
L 126.786531 309.603396 
L 126.982186 310.896336 
L 127.199195 312.189276 
L 127.441101 313.482217 
L 127.71237 314.775157 
L 128.018514 316.068097 
L 128.366197 317.361037 
L 128.763294 318.653977 
L 129.218879 319.946917 
L 129.743119 321.239858 
L 130.347057 322.532798 
L 131.042245 323.825738 
L 131.840224 325.118678 
L 132.751846 326.411618 
L 133.786431 327.704559 
L 134.950802 328.997499 
L 136.248231 330.290439 
L 137.677356 331.583379 
L 139.231158 332.876319 
L 140.896081 334.16926 
L 142.651396 335.4622 
L 144.468915 336.75514 
L 146.313139 338.04808 
L 148.141901 339.34102 
L 149.907547 340.633961 
L 151.558644 341.926901 
L 153.042155 343.219841 
L 154.305975 344.512781 
L 155.301687 345.805721 
L 155.987334 347.098662 
L 156.33 348.391602 
L 156.308 349.684542 
L 155.912468 350.977482 
L 155.14821 352.270422 
L 154.033708 353.563363 
L 152.60028 354.856303 
L 150.890416 356.149243 
L 148.955456 357.442183 
z
" clip-path="url(#p69f2a4b7d1)" style="fill: #1f77b4; fill-opacity: 0.3"/>
   </g>
   <g id="FillBetweenPolyCollection_2">
    <path d="M 215.589338 375.62799 
L 197.510662 375.62799 
L 195.122986 372.575701 
L 192.348829 369.523411 
L 189.235023 366.471121 
L 185.890493 363.418832 
L 182.491096 360.366542 
L 179.269574 357.314252 
L 176.489414 354.261963 
L 174.406473 351.209673 
L 173.226661 348.157383 
L 173.07 345.105093 
L 173.950024 342.052804 
L 175.773242 339.000514 
L 178.357821 335.948224 
L 181.465787 332.895935 
L 184.84041 329.843645 
L 188.240621 326.791355 
L 191.466601 323.739066 
L 194.374006 320.686776 
L 196.877305 317.634486 
L 198.944738 314.582196 
L 200.588092 311.529907 
L 201.850265 308.477617 
L 202.792837 305.425327 
L 203.484977 302.373038 
L 203.994406 299.320748 
L 204.380721 296.268458 
L 204.691159 293.216169 
L 204.958784 290.163879 
L 205.202869 287.111589 
L 205.431053 284.059299 
L 205.642627 281.00701 
L 205.832169 277.95472 
L 205.992851 274.90243 
L 206.118893 271.850141 
L 206.207016 268.797851 
L 206.257004 265.745561 
L 206.271658 262.693272 
L 206.256444 259.640982 
L 206.218998 256.588692 
L 206.168521 253.536402 
L 206.11499 250.484113 
L 206.068145 247.431823 
L 206.036308 244.379533 
L 206.025253 241.327244 
L 206.037406 238.274954 
L 206.071622 235.222664 
L 206.123658 232.170374 
L 206.187213 229.118085 
L 206.255278 226.065795 
L 206.321427 223.013505 
L 206.380768 219.961216 
L 206.430387 216.908926 
L 206.469293 213.856636 
L 206.498015 210.804347 
L 206.518034 207.752057 
L 206.531236 204.699767 
L 206.539485 201.647477 
L 206.544375 198.595188 
L 206.547127 195.542898 
L 206.5486 192.490608 
L 206.549348 189.438319 
L 206.54971 186.386029 
L 206.549877 183.333739 
L 206.54995 180.28145 
L 206.549981 177.22916 
L 206.549993 174.17687 
L 206.549998 171.12458 
L 206.549999 168.072291 
L 206.55 165.020001 
L 206.55 161.967711 
L 206.55 158.915422 
L 206.55 155.863132 
L 206.55 152.810842 
L 206.55 149.758553 
L 206.549999 146.706263 
L 206.549998 143.653973 
L 206.549993 140.601683 
L 206.549981 137.549394 
L 206.549951 134.497104 
L 206.54988 131.444814 
L 206.549717 128.392525 
L 206.549361 125.340235 
L 206.548626 122.287945 
L 206.547179 119.235656 
L 206.544469 116.183366 
L 206.539648 113.131076 
L 206.531504 110.078786 
L 206.518454 107.026497 
L 206.498636 103.974207 
L 206.470161 100.921917 
L 206.431532 97.869628 
L 206.382187 94.817338 
L 206.323073 91.765048 
L 206.257056 88.712759 
L 206.18899 85.660469 
L 206.125292 82.608179 
L 206.073021 79.555889 
L 206.03862 76.5036 
L 206.02661 73.45131 
L 207.07339 73.45131 
L 207.07339 73.45131 
L 207.06138 76.5036 
L 207.026979 79.555889 
L 206.974708 82.608179 
L 206.91101 85.660469 
L 206.842944 88.712759 
L 206.776927 91.765048 
L 206.717813 94.817338 
L 206.668468 97.869628 
L 206.629839 100.921917 
L 206.601364 103.974207 
L 206.581546 107.026497 
L 206.568496 110.078786 
L 206.560352 113.131076 
L 206.555531 116.183366 
L 206.552821 119.235656 
L 206.551374 122.287945 
L 206.550639 125.340235 
L 206.550283 128.392525 
L 206.55012 131.444814 
L 206.550049 134.497104 
L 206.550019 137.549394 
L 206.550007 140.601683 
L 206.550002 143.653973 
L 206.550001 146.706263 
L 206.55 149.758553 
L 206.55 152.810842 
L 206.55 155.863132 
L 206.55 158.915422 
L 206.55 161.967711 
L 206.55 165.020001 
L 206.550001 168.072291 
L 206.550002 171.12458 
L 206.550007 174.17687 
L 206.550019 177.22916 
L 206.55005 180.28145 
L 206.550123 183.333739 
L 206.55029 186.386029 
L 206.550652 189.438319 
L 206.5514 192.490608 
L 206.552873 195.542898 
L 206.555625 198.595188 
L 206.560515 201.647477 
L 206.568764 204.699767 
L 206.581966 207.752057 
L 206.601985 210.804347 
L 206.630707 213.856636 
L 206.669613 216.908926 
L 206.719232 219.961216 
L 206.778573 223.013505 
L 206.844722 226.065795 
L 206.912787 229.118085 
L 206.976342 232.170374 
L 207.028378 235.222664 
L 207.062594 238.274954 
L 207.074747 241.327244 
L 207.063692 244.379533 
L 207.031855 247.431823 
L 206.98501 250.484113 
L 206.931479 253.536402 
L 206.881002 256.588692 
L 206.843556 259.640982 
L 206.828342 262.693272 
L 206.842996 265.745561 
L 206.892984 268.797851 
L 206.981107 271.850141 
L 207.107149 274.90243 
L 207.267831 277.95472 
L 207.457373 281.00701 
L 207.668947 284.059299 
L 207.897131 287.111589 
L 208.141216 290.163879 
L 208.408841 293.216169 
L 208.719279 296.268458 
L 209.105594 299.320748 
L 209.615023 302.373038 
L 210.307163 305.425327 
L 211.249735 308.477617 
L 212.511908 311.529907 
L 214.155262 314.582196 
L 216.222695 317.634486 
L 218.725994 320.686776 
L 221.633399 323.739066 
L 224.859379 326.791355 
L 228.25959 329.843645 
L 231.634213 332.895935 
L 234.742179 335.948224 
L 237.326758 339.000514 
L 239.149976 342.052804 
L 240.03 345.105093 
L 239.873339 348.157383 
L 238.693527 351.209673 
L 236.610586 354.261963 
L 233.830426 357.314252 
L 230.608904 360.366542 
L 227.209507 363.418832 
L 223.864977 366.471121 
L 220.751171 369.523411 
L 217.977014 372.575701 
L 215.589338 375.62799 
z
" clip-path="url(#p69f2a4b7d1)" style="fill: #1f77b4; fill-opacity: 0.3"/>
   </g>
   <g id="FillBetweenPolyCollection_3">
    <path d="M 313.553578 355.49773 
L 266.946422 355.49773 
L 265.612336 352.587496 
L 264.329325 349.677263 
L 263.111113 346.767029 
L 261.970813 343.856796 
L 260.920657 340.946562 
L 259.971741 338.036329 
L 259.1338 335.126095 
L 258.415012 332.215862 
L 257.821848 329.305628 
L 257.358956 326.395395 
L 257.029097 323.485161 
L 256.833123 320.574928 
L 256.77 317.664695 
L 256.836876 314.754461 
L 257.029187 311.844228 
L 257.340798 308.933994 
L 257.764172 306.023761 
L 258.290567 303.113527 
L 258.910244 300.203294 
L 259.612693 297.29306 
L 260.386859 294.382827 
L 261.221371 291.472593 
L 262.104761 288.56236 
L 263.025676 285.652126 
L 263.973073 282.741893 
L 264.936395 279.83166 
L 265.90573 276.921426 
L 266.871937 274.011193 
L 267.826764 271.100959 
L 268.762921 268.190726 
L 269.674143 265.280492 
L 270.55522 262.370259 
L 271.402005 259.460025 
L 272.211398 256.549792 
L 272.981313 253.639558 
L 273.710621 250.729325 
L 274.399078 247.819091 
L 275.04724 244.908858 
L 275.656369 241.998625 
L 276.228326 239.088391 
L 276.765464 236.178158 
L 277.270515 233.267924 
L 277.746481 230.357691 
L 278.196521 227.447457 
L 278.623851 224.537224 
L 279.031649 221.62699 
L 279.42296 218.716757 
L 279.800622 215.806523 
L 280.167194 212.89629 
L 280.524901 209.986056 
L 280.875582 207.075823 
L 281.220658 204.16559 
L 281.561101 201.255356 
L 281.897425 198.345123 
L 282.229677 195.434889 
L 282.557444 192.524656 
L 282.879866 189.614422 
L 283.195666 186.704189 
L 283.503179 183.793955 
L 283.800394 180.883722 
L 284.085011 177.973488 
L 284.354498 175.063255 
L 284.606158 172.153021 
L 284.837202 169.242788 
L 285.044836 166.332555 
L 285.226339 163.422321 
L 285.379156 160.512088 
L 285.500988 157.601854 
L 285.589878 154.691621 
L 285.644301 151.781387 
L 285.663244 148.871154 
L 285.646272 145.96092 
L 285.593596 143.050687 
L 285.506115 140.140453 
L 285.385444 137.23022 
L 285.233928 134.319986 
L 285.054632 131.409753 
L 284.851306 128.49952 
L 284.628334 125.589286 
L 284.390659 122.679053 
L 284.143686 119.768819 
L 283.893171 116.858586 
L 283.645087 113.948352 
L 283.405487 111.038119 
L 283.180357 108.127885 
L 282.975462 105.217652 
L 282.796199 102.307418 
L 282.64746 99.397185 
L 282.533505 96.486951 
L 282.457848 93.576718 
L 282.423177 90.666485 
L 282.431285 87.756251 
L 282.48304 84.846018 
L 282.578371 81.935784 
L 282.716297 79.025551 
L 282.89497 76.115317 
L 283.111746 73.205084 
L 283.363284 70.29485 
L 283.645655 67.384617 
L 296.854345 67.384617 
L 296.854345 67.384617 
L 297.136716 70.29485 
L 297.388254 73.205084 
L 297.60503 76.115317 
L 297.783703 79.025551 
L 297.921629 81.935784 
L 298.01696 84.846018 
L 298.068715 87.756251 
L 298.076823 90.666485 
L 298.042152 93.576718 
L 297.966495 96.486951 
L 297.85254 99.397185 
L 297.703801 102.307418 
L 297.524538 105.217652 
L 297.319643 108.127885 
L 297.094513 111.038119 
L 296.854913 113.948352 
L 296.606829 116.858586 
L 296.356314 119.768819 
L 296.109341 122.679053 
L 295.871666 125.589286 
L 295.648694 128.49952 
L 295.445368 131.409753 
L 295.266072 134.319986 
L 295.114556 137.23022 
L 294.993885 140.140453 
L 294.906404 143.050687 
L 294.853728 145.96092 
L 294.836756 148.871154 
L 294.855699 151.781387 
L 294.910122 154.691621 
L 294.999012 157.601854 
L 295.120844 160.512088 
L 295.273661 163.422321 
L 295.455164 166.332555 
L 295.662798 169.242788 
L 295.893842 172.153021 
L 296.145502 175.063255 
L 296.414989 177.973488 
L 296.699606 180.883722 
L 296.996821 183.793955 
L 297.304334 186.704189 
L 297.620134 189.614422 
L 297.942556 192.524656 
L 298.270323 195.434889 
L 298.602575 198.345123 
L 298.938899 201.255356 
L 299.279342 204.16559 
L 299.624418 207.075823 
L 299.975099 209.986056 
L 300.332806 212.89629 
L 300.699378 215.806523 
L 301.07704 218.716757 
L 301.468351 221.62699 
L 301.876149 224.537224 
L 302.303479 227.447457 
L 302.753519 230.357691 
L 303.229485 233.267924 
L 303.734536 236.178158 
L 304.271674 239.088391 
L 304.843631 241.998625 
L 305.45276 244.908858 
L 306.100922 247.819091 
L 306.789379 250.729325 
L 307.518687 253.639558 
L 308.288602 256.549792 
L 309.097995 259.460025 
L 309.94478 262.370259 
L 310.825857 265.280492 
L 311.737079 268.190726 
L 312.673236 271.100959 
L 313.628063 274.011193 
L 314.59427 276.921426 
L 315.563605 279.83166 
L 316.526927 282.741893 
L 317.474324 285.652126 
L 318.395239 288.56236 
L 319.278629 291.472593 
L 320.113141 294.382827 
L 320.887307 297.29306 
L 321.589756 300.203294 
L 322.209433 303.113527 
L 322.735828 306.023761 
L 323.159202 308.933994 
L 323.470813 311.844228 
L 323.663124 314.754461 
L 323.73 317.664695 
L 323.666877 320.574928 
L 323.470903 323.485161 
L 323.141044 326.395395 
L 322.678152 329.305628 
L 322.084988 332.215862 
L 321.3662 335.126095 
L 320.528259 338.036329 
L 319.579343 340.946562 
L 318.529187 343.856796 
L 317.388887 346.767029 
L 316.170675 349.677263 
L 314.887664 352.587496 
L 313.553578 355.49773 
z
" clip-path="url(#p69f2a4b7d1)" style="fill: #1f77b4; fill-opacity: 0.3"/>
   </g>
   <g id="FillBetweenPolyCollection_4">
    <path d="M 389.739155 371.955308 
L 358.160845 371.955308 
L 355.465622 369.520724 
L 352.71268 367.086139 
L 350.001565 364.651555 
L 347.441932 362.216971 
L 345.146086 359.782386 
L 343.220519 357.347802 
L 341.75733 354.913218 
L 340.826513 352.478633 
L 340.47 350.044049 
L 340.698177 347.609465 
L 341.489239 345.17488 
L 342.791422 342.740296 
L 344.527796 340.305712 
L 346.602991 337.871127 
L 348.911072 335.436543 
L 351.343703 333.001959 
L 353.797776 330.567374 
L 356.181855 328.13279 
L 358.420961 325.698206 
L 360.459474 323.263621 
L 362.262117 320.829037 
L 363.813219 318.394453 
L 365.114536 315.959869 
L 366.182044 313.525284 
L 367.042122 311.0907 
L 367.727549 308.656116 
L 368.273689 306.221531 
L 368.715173 303.786947 
L 369.083291 301.352363 
L 369.404226 298.917778 
L 369.698129 296.483194 
L 369.978999 294.04861 
L 370.255194 291.614025 
L 370.530411 289.179441 
L 370.804908 286.744857 
L 371.076765 284.310272 
L 371.343023 281.875688 
L 371.600581 279.441104 
L 371.846786 277.006519 
L 372.079731 274.571935 
L 372.298294 272.137351 
L 372.502008 269.702766 
L 372.690841 267.268182 
L 372.86497 264.833598 
L 373.024597 262.399013 
L 373.169859 259.964429 
L 373.300815 257.529845 
L 373.417494 255.09526 
L 373.519995 252.660676 
L 373.608579 250.226092 
L 373.683743 247.791507 
L 373.746256 245.356923 
L 373.797146 242.922339 
L 373.837654 240.487754 
L 373.869155 238.05317 
L 373.893071 235.618586 
L 373.910788 233.184001 
L 373.923593 230.749417 
L 373.932616 228.314833 
L 373.938816 225.880248 
L 373.942965 223.445664 
L 373.945668 221.01108 
L 373.947374 218.576495 
L 373.948405 216.141911 
L 373.948979 213.707327 
L 373.949224 211.272742 
L 373.949203 208.838158 
L 373.94891 206.403574 
L 373.948279 203.96899 
L 373.947174 201.534405 
L 373.945375 199.099821 
L 373.942566 196.665237 
L 373.938317 194.230652 
L 373.932067 191.796068 
L 373.923125 189.361484 
L 373.910677 186.926899 
L 373.893819 184.492315 
L 373.871609 182.057731 
L 373.843154 179.623146 
L 373.807705 177.188562 
L 373.76478 174.753978 
L 373.71427 172.319393 
L 373.656535 169.884809 
L 373.592458 167.450225 
L 373.523447 165.01564 
L 373.45138 162.581056 
L 373.378491 160.146472 
L 373.30722 157.711887 
L 373.240042 155.277303 
L 373.179301 152.842719 
L 373.127076 150.408134 
L 373.085089 147.97355 
L 373.05466 145.538966 
L 373.036703 143.104381 
L 373.031736 140.669797 
L 373.039898 138.235213 
L 373.060959 135.800628 
L 373.094306 133.366044 
L 373.138928 130.93146 
L 374.761072 130.93146 
L 374.761072 130.93146 
L 374.805694 133.366044 
L 374.839041 135.800628 
L 374.860102 138.235213 
L 374.868264 140.669797 
L 374.863297 143.104381 
L 374.84534 145.538966 
L 374.814911 147.97355 
L 374.772924 150.408134 
L 374.720699 152.842719 
L 374.659958 155.277303 
L 374.59278 157.711887 
L 374.521509 160.146472 
L 374.44862 162.581056 
L 374.376553 165.01564 
L 374.307542 167.450225 
L 374.243465 169.884809 
L 374.18573 172.319393 
L 374.13522 174.753978 
L 374.092295 177.188562 
L 374.056846 179.623146 
L 374.028391 182.057731 
L 374.006181 184.492315 
L 373.989323 186.926899 
L 373.976875 189.361484 
L 373.967933 191.796068 
L 373.961683 194.230652 
L 373.957434 196.665237 
L 373.954625 199.099821 
L 373.952826 201.534405 
L 373.951721 203.96899 
L 373.95109 206.403574 
L 373.950797 208.838158 
L 373.950776 211.272742 
L 373.951021 213.707327 
L 373.951595 216.141911 
L 373.952626 218.576495 
L 373.954332 221.01108 
L 373.957035 223.445664 
L 373.961184 225.880248 
L 373.967384 228.314833 
L 373.976407 230.749417 
L 373.989212 233.184001 
L 374.006929 235.618586 
L 374.030845 238.05317 
L 374.062346 240.487754 
L 374.102854 242.922339 
L 374.153744 245.356923 
L 374.216257 247.791507 
L 374.291421 250.226092 
L 374.380005 252.660676 
L 374.482506 255.09526 
L 374.599185 257.529845 
L 374.730141 259.964429 
L 374.875403 262.399013 
L 375.03503 264.833598 
L 375.209159 267.268182 
L 375.397992 269.702766 
L 375.601706 272.137351 
L 375.820269 274.571935 
L 376.053214 277.006519 
L 376.299419 279.441104 
L 376.556977 281.875688 
L 376.823235 284.310272 
L 377.095092 286.744857 
L 377.369589 289.179441 
L 377.644806 291.614025 
L 377.921001 294.04861 
L 378.201871 296.483194 
L 378.495774 298.917778 
L 378.816709 301.352363 
L 379.184827 303.786947 
L 379.626311 306.221531 
L 380.172451 308.656116 
L 380.857878 311.0907 
L 381.717956 313.525284 
L 382.785464 315.959869 
L 384.086781 318.394453 
L 385.637883 320.829037 
L 387.440526 323.263621 
L 389.479039 325.698206 
L 391.718145 328.13279 
L 394.102224 330.567374 
L 396.556297 333.001959 
L 398.988928 335.436543 
L 401.297009 337.871127 
L 403.372204 340.305712 
L 405.108578 342.740296 
L 406.410761 345.17488 
L 407.201823 347.609465 
L 407.43 350.044049 
L 407.073487 352.478633 
L 406.14267 354.913218 
L 404.679481 357.347802 
L 402.753914 359.782386 
L 400.458068 362.216971 
L 397.898435 364.651555 
L 395.18732 367.086139 
L 392.434378 369.520724 
L 389.739155 371.955308 
z
" clip-path="url(#p69f2a4b7d1)" style="fill: #1f77b4; fill-opacity: 0.3"/>
   </g>
   <g id="FillBetweenPolyCollection_5">
    <path d="M 481.389688 365.177473 
L 433.910312 365.177473 
L 431.915003 362.87108 
L 430.057622 360.564687 
L 428.387373 358.258293 
L 426.949485 355.9519 
L 425.782962 353.645507 
L 424.918611 351.339114 
L 424.377507 349.03272 
L 424.17 346.726327 
L 424.295347 344.419934 
L 424.741979 342.113541 
L 425.488381 339.807148 
L 426.504508 337.500754 
L 427.753595 335.194361 
L 429.194249 332.887968 
L 430.78262 330.581575 
L 432.474528 328.275181 
L 434.227386 325.968788 
L 436.001806 323.662395 
L 437.762825 321.356002 
L 439.480704 319.049609 
L 441.131312 316.743215 
L 442.696125 314.436822 
L 444.161918 312.130429 
L 445.520207 309.824036 
L 446.76656 307.517643 
L 447.899832 305.211249 
L 448.921418 302.904856 
L 449.83457 300.598463 
L 450.643828 298.29207 
L 451.354575 295.985676 
L 451.972723 293.679283 
L 452.504519 291.37289 
L 452.956447 289.066497 
L 453.335197 286.760104 
L 453.64767 284.45371 
L 453.900989 282.147317 
L 454.102507 279.840924 
L 454.259773 277.534531 
L 454.380461 275.228137 
L 454.472263 272.921744 
L 454.542742 270.615351 
L 454.599159 268.308958 
L 454.648282 266.002565 
L 454.696206 263.696171 
L 454.748177 261.389778 
L 454.808452 259.083385 
L 454.880195 256.776992 
L 454.965417 254.470599 
L 455.064972 252.164205 
L 455.178594 249.857812 
L 455.304986 247.551419 
L 455.44195 245.245026 
L 455.586547 242.938632 
L 455.735276 240.632239 
L 455.884277 238.325846 
L 456.029528 236.019453 
L 456.167035 233.71306 
L 456.293019 231.406666 
L 456.404071 229.100273 
L 456.497297 226.79388 
L 456.57042 224.487487 
L 456.621869 222.181093 
L 456.650831 219.8747 
L 456.657273 217.568307 
L 456.64194 215.261914 
L 456.606316 212.955521 
L 456.55257 210.649127 
L 456.483457 208.342734 
L 456.402213 206.036341 
L 456.312417 203.729948 
L 456.217843 201.423555 
L 456.122293 199.117161 
L 456.029444 196.810768 
L 455.942685 194.504375 
L 455.864982 192.197982 
L 455.798761 189.891588 
L 455.74583 187.585195 
L 455.707327 185.278802 
L 455.683724 182.972409 
L 455.674856 180.666016 
L 455.679992 178.359622 
L 455.697935 176.053229 
L 455.727141 173.746836 
L 455.765852 171.440443 
L 455.812221 169.134049 
L 455.864437 166.827656 
L 455.920832 164.521263 
L 455.979958 162.21487 
L 456.040645 159.908477 
L 456.102031 157.602083 
L 456.163557 155.29569 
L 456.224949 152.989297 
L 456.286174 150.682904 
L 456.34738 148.376511 
L 456.408835 146.070117 
L 456.470859 143.763724 
L 456.533753 141.457331 
L 456.59775 139.150938 
L 456.662963 136.844544 
L 458.637037 136.844544 
L 458.637037 136.844544 
L 458.70225 139.150938 
L 458.766247 141.457331 
L 458.829141 143.763724 
L 458.891165 146.070117 
L 458.95262 148.376511 
L 459.013826 150.682904 
L 459.075051 152.989297 
L 459.136443 155.29569 
L 459.197969 157.602083 
L 459.259355 159.908477 
L 459.320042 162.21487 
L 459.379168 164.521263 
L 459.435563 166.827656 
L 459.487779 169.134049 
L 459.534148 171.440443 
L 459.572859 173.746836 
L 459.602065 176.053229 
L 459.620008 178.359622 
L 459.625144 180.666016 
L 459.616276 182.972409 
L 459.592673 185.278802 
L 459.55417 187.585195 
L 459.501239 189.891588 
L 459.435018 192.197982 
L 459.357315 194.504375 
L 459.270556 196.810768 
L 459.177707 199.117161 
L 459.082157 201.423555 
L 458.987583 203.729948 
L 458.897787 206.036341 
L 458.816543 208.342734 
L 458.74743 210.649127 
L 458.693684 212.955521 
L 458.65806 215.261914 
L 458.642727 217.568307 
L 458.649169 219.8747 
L 458.678131 222.181093 
L 458.72958 224.487487 
L 458.802703 226.79388 
L 458.895929 229.100273 
L 459.006981 231.406666 
L 459.132965 233.71306 
L 459.270472 236.019453 
L 459.415723 238.325846 
L 459.564724 240.632239 
L 459.713453 242.938632 
L 459.85805 245.245026 
L 459.995014 247.551419 
L 460.121406 249.857812 
L 460.235028 252.164205 
L 460.334583 254.470599 
L 460.419805 256.776992 
L 460.491548 259.083385 
L 460.551823 261.389778 
L 460.603794 263.696171 
L 460.651718 266.002565 
L 460.700841 268.308958 
L 460.757258 270.615351 
L 460.827737 272.921744 
L 460.919539 275.228137 
L 461.040227 277.534531 
L 461.197493 279.840924 
L 461.399011 282.147317 
L 461.65233 284.45371 
L 461.964803 286.760104 
L 462.343553 289.066497 
L 462.795481 291.37289 
L 463.327277 293.679283 
L 463.945425 295.985676 
L 464.656172 298.29207 
L 465.46543 300.598463 
L 466.378582 302.904856 
L 467.400168 305.211249 
L 468.53344 307.517643 
L 469.779793 309.824036 
L 471.138082 312.130429 
L 472.603875 314.436822 
L 474.168688 316.743215 
L 475.819296 319.049609 
L 477.537175 321.356002 
L 479.298194 323.662395 
L 481.072614 325.968788 
L 482.825472 328.275181 
L 484.51738 330.581575 
L 486.105751 332.887968 
L 487.546405 335.194361 
L 488.795492 337.500754 
L 489.811619 339.807148 
L 490.558021 342.113541 
L 491.004653 344.419934 
L 491.13 346.726327 
L 490.922493 349.03272 
L 490.381389 351.339114 
L 489.517038 353.645507 
L 488.350515 355.9519 
L 486.912627 358.258293 
L 485.242378 360.564687 
L 483.384997 362.87108 
L 481.389688 365.177473 
z
" clip-path="url(#p69f2a4b7d1)" style="fill: #1f77b4; fill-opacity: 0.3"/>
   </g>
   <g id="FillBetweenPolyCollection_6">
    <path d="M 554.806893 378.276955 
L 527.893107 378.276955 
L 525.684787 375.548287 
L 523.369944 372.81962 
L 521.001526 370.090953 
L 518.641844 367.362286 
L 516.359775 364.633619 
L 514.227061 361.904952 
L 512.313985 359.176285 
L 510.68484 356.447618 
L 509.393686 353.718951 
L 508.480847 350.990284 
L 507.970561 348.261617 
L 507.87 345.53295 
L 508.169708 342.804282 
L 508.845318 340.075615 
L 509.860221 337.346948 
L 511.168804 334.618281 
L 512.719817 331.889614 
L 514.459516 329.160947 
L 516.334301 326.43228 
L 518.292731 323.703613 
L 520.286895 320.974946 
L 522.273228 318.246279 
L 524.212923 315.517612 
L 526.072094 312.788944 
L 527.82184 310.060277 
L 529.438313 307.33161 
L 530.902842 304.602943 
L 532.202131 301.874276 
L 533.32848 299.145609 
L 534.279982 296.416942 
L 535.060599 293.688275 
L 535.680029 290.959608 
L 536.153301 288.230941 
L 536.500032 285.502274 
L 536.743338 282.773606 
L 536.90845 280.044939 
L 537.021117 277.316272 
L 537.105935 274.587605 
L 537.184775 271.858938 
L 537.275469 269.130271 
L 537.390902 266.401604 
L 537.538592 263.672937 
L 537.720799 260.94427 
L 537.935098 258.215603 
L 538.175334 255.486936 
L 538.432802 252.758268 
L 538.697507 250.029601 
L 538.95936 247.300934 
L 539.209188 244.572267 
L 539.439499 241.8436 
L 539.644951 239.114933 
L 539.822544 236.386266 
L 539.971543 233.657599 
L 540.093198 230.928932 
L 540.190302 228.200265 
L 540.26665 225.471598 
L 540.326472 222.74293 
L 540.373896 220.014263 
L 540.412499 217.285596 
L 540.44501 214.556929 
L 540.473169 211.828262 
L 540.497781 209.099595 
L 540.518914 206.370928 
L 540.536224 203.642261 
L 540.54932 200.913594 
L 540.558119 198.184927 
L 540.563103 195.45626 
L 540.565451 192.727592 
L 540.567006 189.998925 
L 540.570093 187.270258 
L 540.577227 184.541591 
L 540.59076 181.812924 
L 540.612538 179.084257 
L 540.643625 176.35559 
L 540.684135 173.626923 
L 540.733208 170.898256 
L 540.7891 168.169589 
L 540.849392 165.440922 
L 540.911242 162.712254 
L 540.97167 159.983587 
L 541.027804 157.25492 
L 541.077075 154.526253 
L 541.117346 151.797586 
L 541.14697 149.068919 
L 541.16481 146.340252 
L 541.170219 143.611585 
L 541.163032 140.882918 
L 541.143562 138.154251 
L 541.112618 135.425584 
L 541.071538 132.696917 
L 541.022215 129.968249 
L 540.967096 127.239582 
L 540.909132 124.510915 
L 540.851659 121.782248 
L 540.798204 119.053581 
L 540.75224 116.324914 
L 540.716891 113.596247 
L 540.69465 110.86758 
L 540.687136 108.138913 
L 542.012864 108.138913 
L 542.012864 108.138913 
L 542.00535 110.86758 
L 541.983109 113.596247 
L 541.94776 116.324914 
L 541.901796 119.053581 
L 541.848341 121.782248 
L 541.790868 124.510915 
L 541.732904 127.239582 
L 541.677785 129.968249 
L 541.628462 132.696917 
L 541.587382 135.425584 
L 541.556438 138.154251 
L 541.536968 140.882918 
L 541.529781 143.611585 
L 541.53519 146.340252 
L 541.55303 149.068919 
L 541.582654 151.797586 
L 541.622925 154.526253 
L 541.672196 157.25492 
L 541.72833 159.983587 
L 541.788758 162.712254 
L 541.850608 165.440922 
L 541.9109 168.169589 
L 541.966792 170.898256 
L 542.015865 173.626923 
L 542.056375 176.35559 
L 542.087462 179.084257 
L 542.10924 181.812924 
L 542.122773 184.541591 
L 542.129907 187.270258 
L 542.132994 189.998925 
L 542.134549 192.727592 
L 542.136897 195.45626 
L 542.141881 198.184927 
L 542.15068 200.913594 
L 542.163776 203.642261 
L 542.181086 206.370928 
L 542.202219 209.099595 
L 542.226831 211.828262 
L 542.25499 214.556929 
L 542.287501 217.285596 
L 542.326104 220.014263 
L 542.373528 222.74293 
L 542.43335 225.471598 
L 542.509698 228.200265 
L 542.606802 230.928932 
L 542.728457 233.657599 
L 542.877456 236.386266 
L 543.055049 239.114933 
L 543.260501 241.8436 
L 543.490812 244.572267 
L 543.74064 247.300934 
L 544.002493 250.029601 
L 544.267198 252.758268 
L 544.524666 255.486936 
L 544.764902 258.215603 
L 544.979201 260.94427 
L 545.161408 263.672937 
L 545.309098 266.401604 
L 545.424531 269.130271 
L 545.515225 271.858938 
L 545.594065 274.587605 
L 545.678883 277.316272 
L 545.79155 280.044939 
L 545.956662 282.773606 
L 546.199968 285.502274 
L 546.546699 288.230941 
L 547.019971 290.959608 
L 547.639401 293.688275 
L 548.420018 296.416942 
L 549.37152 299.145609 
L 550.497869 301.874276 
L 551.797158 304.602943 
L 553.261687 307.33161 
L 554.87816 310.060277 
L 556.627906 312.788944 
L 558.487077 315.517612 
L 560.426772 318.246279 
L 562.413105 320.974946 
L 564.407269 323.703613 
L 566.365699 326.43228 
L 568.240484 329.160947 
L 569.980183 331.889614 
L 571.531196 334.618281 
L 572.839779 337.346948 
L 573.854682 340.075615 
L 574.530292 342.804282 
L 574.83 345.53295 
L 574.729439 348.261617 
L 574.219153 350.990284 
L 573.306314 353.718951 
L 572.01516 356.447618 
L 570.386015 359.176285 
L 568.472939 361.904952 
L 566.340225 364.633619 
L 564.058156 367.362286 
L 561.698474 370.090953 
L 559.330056 372.81962 
L 557.015213 375.548287 
L 554.806893 378.276955 
z
" clip-path="url(#p69f2a4b7d1)" style="fill: #1f77b4; fill-opacity: 0.3"/>
   </g>
   <g id="matplotlib.axis_1">
    <g id="xtick_1">
     <g id="line2d_1">
      <defs>
       <path id="m2e325f9356" d="M 0 0 
L 0 3.5 
" style="stroke: #000000; stroke-width: 0.8"/>
      </defs>
      <g>
       <use xlink:href="#m2e325f9356" x="122.85" y="384.48" style="stroke: #000000; stroke-width: 0.8"/>
      </g>
     </g>
     <g id="text_1">
      <!-- Arrow -->
      <g transform="translate(111.26625 397.55875) scale(0.08 -0.08)">
       <defs>
        <path id="DejaVuSans-41" d="M 2188 4044 
L 1331 1722 
L 3047 1722 
L 2188 4044 
z
M 1831 4666 
L 2547 4666 
L 4325 0 
L 3669 0 
L 3244 1197 
L 1141 1197 
L 716 0 
L 50 0 
L 1831 4666 
z
" transform="scale(0.015625)"/>
        <path id="DejaVuSans-72" d="M 2631 2963 
Q 2534 3019 2420 3045 
Q 2306 3072 2169 3072 
Q 1681 3072 1420 2755 
Q 1159 2438 1159 1844 
L 1159 0 
L 581 0 
L 581 3500 
L 1159 3500 
L 1159 2956 
Q 1341 3275 1631 3429 
Q 1922 3584 2338 3584 
Q 2397 3584 2469 3576 
Q 2541 3569 2628 3553 
L 2631 2963 
z
" transform="scale(0.015625)"/>
        <path id="DejaVuSans-6f" d="M 1959 3097 
Q 1497 3097 1228 2736 
Q 959 2375 959 1747 
Q 959 1119 1226 758 
Q 1494 397 1959 397 
Q 2419 397 2687 759 
Q 2956 1122 2956 1747 
Q 2956 2369 2687 2733 
Q 2419 3097 1959 3097 
z
M 1959 3584 
Q 2709 3584 3137 3096 
Q 3566 2609 3566 1747 
Q 3566 888 3137 398 
Q 2709 -91 1959 -91 
Q 1206 -91 779 398 
Q 353 888 353 1747 
Q 353 2609 779 3096 
Q 1206 3584 1959 3584 
z
" transform="scale(0.015625)"/>
        <path id="DejaVuSans-77" d="M 269 3500 
L 844 3500 
L 1563 769 
L 2278 3500 
L 2956 3500 
L 3675 769 
L 4391 3500 
L 4966 3500 
L 4050 0 
L 3372 0 
L 2619 2869 
L 1863 0 
L 1184 0 
L 269 3500 
z
" transform="scale(0.015625)"/>
       </defs>
       <use xlink:href="#DejaVuSans-41"/>
       <use xlink:href="#DejaVuSans-72" transform="translate(68.408203 0)"/>
       <use xlink:href="#DejaVuSans-72" transform="translate(107.771484 0)"/>
       <use xlink:href="#DejaVuSans-6f" transform="translate(146.634766 0)"/>
       <use xlink:href="#DejaVuSans-77" transform="translate(207.816406 0)"/>
      </g>
     </g>
    </g>
    <g id="xtick_2">
     <g id="line2d_2">
      <g>
       <use xlink:href="#m2e325f9356" x="206.55" y="384.48" style="stroke: #000000; stroke-width: 0.8"/>
      </g>
     </g>
     <g id="text_2">
      <!-- Radar -->
      <g transform="translate(194.774375 397.55875) scale(0.08 -0.08)">
       <defs>
        <path id="DejaVuSans-52" d="M 2841 2188 
Q 3044 2119 3236 1894 
Q 3428 1669 3622 1275 
L 4263 0 
L 3584 0 
L 2988 1197 
Q 2756 1666 2539 1819 
Q 2322 1972 1947 1972 
L 1259 1972 
L 1259 0 
L 628 0 
L 628 4666 
L 2053 4666 
Q 2853 4666 3247 4331 
Q 3641 3997 3641 3322 
Q 3641 2881 3436 2590 
Q 3231 2300 2841 2188 
z
M 1259 4147 
L 1259 2491 
L 2053 2491 
Q 2509 2491 2742 2702 
Q 2975 2913 2975 3322 
Q 2975 3731 2742 3939 
Q 2509 4147 2053 4147 
L 1259 4147 
z
" transform="scale(0.015625)"/>
        <path id="DejaVuSans-61" d="M 2194 1759 
Q 1497 1759 1228 1600 
Q 959 1441 959 1056 
Q 959 750 1161 570 
Q 1363 391 1709 391 
Q 2188 391 2477 730 
Q 2766 1069 2766 1631 
L 2766 1759 
L 2194 1759 
z
M 3341 1997 
L 3341 0 
L 2766 0 
L 2766 531 
Q 2569 213 2275 61 
Q 1981 -91 1556 -91 
Q 1019 -91 701 211 
Q 384 513 384 1019 
Q 384 1609 779 1909 
Q 1175 2209 1959 2209 
L 2766 2209 
L 2766 2266 
Q 2766 2663 2505 2880 
Q 2244 3097 1772 3097 
Q 1472 3097 1187 3025 
Q 903 2953 641 2809 
L 641 3341 
Q 956 3463 1253 3523 
Q 1550 3584 1831 3584 
Q 2591 3584 2966 3190 
Q 3341 2797 3341 1997 
z
" transform="scale(0.015625)"/>
        <path id="DejaVuSans-64" d="M 2906 2969 
L 2906 4863 
L 3481 4863 
L 3481 0 
L 2906 0 
L 2906 525 
Q 2725 213 2448 61 
Q 2172 -91 1784 -91 
Q 1150 -91 751 415 
Q 353 922 353 1747 
Q 353 2572 751 3078 
Q 1150 3584 1784 3584 
Q 2172 3584 2448 3432 
Q 2725 3281 2906 2969 
z
M 947 1747 
Q 947 1113 1208 752 
Q 1469 391 1925 391 
Q 2381 391 2643 752 
Q 2906 1113 2906 1747 
Q 2906 2381 2643 2742 
Q 2381 3103 1925 3103 
Q 1469 3103 1208 2742 
Q 947 2381 947 1747 
z
" transform="scale(0.015625)"/>
       </defs>
       <use xlink:href="#DejaVuSans-52"/>
       <use xlink:href="#DejaVuSans-61" transform="translate(67.232422 0)"/>
       <use xlink:href="#DejaVuSans-64" transform="translate(128.511719 0)"/>
       <use xlink:href="#DejaVuSans-61" transform="translate(191.988281 0)"/>
       <use xlink:href="#DejaVuSans-72" transform="translate(253.267578 0)"/>
      </g>
     </g>
    </g>
    <g id="xtick_3">
     <g id="line2d_3">
      <g>
       <use xlink:href="#m2e325f9356" x="290.25" y="384.48" style="stroke: #000000; stroke-width: 0.8"/>
      </g>
     </g>
     <g id="text_3">
      <!-- Lights -->
      <g transform="translate(278.18375 397.55875) scale(0.08 -0.08)">
       <defs>
        <path id="DejaVuSans-4c" d="M 628 4666 
L 1259 4666 
L 1259 531 
L 3531 531 
L 3531 0 
L 628 0 
L 628 4666 
z
" transform="scale(0.015625)"/>
        <path id="DejaVuSans-69" d="M 603 3500 
L 1178 3500 
L 1178 0 
L 603 0 
L 603 3500 
z
M 603 4863 
L 1178 4863 
L 1178 4134 
L 603 4134 
L 603 4863 
z
" transform="scale(0.015625)"/>
        <path id="DejaVuSans-67" d="M 2906 1791 
Q 2906 2416 2648 2759 
Q 2391 3103 1925 3103 
Q 1463 3103 1205 2759 
Q 947 2416 947 1791 
Q 947 1169 1205 825 
Q 1463 481 1925 481 
Q 2391 481 2648 825 
Q 2906 1169 2906 1791 
z
M 3481 434 
Q 3481 -459 3084 -895 
Q 2688 -1331 1869 -1331 
Q 1566 -1331 1297 -1286 
Q 1028 -1241 775 -1147 
L 775 -588 
Q 1028 -725 1275 -790 
Q 1522 -856 1778 -856 
Q 2344 -856 2625 -561 
Q 2906 -266 2906 331 
L 2906 616 
Q 2728 306 2450 153 
Q 2172 0 1784 0 
Q 1141 0 747 490 
Q 353 981 353 1791 
Q 353 2603 747 3093 
Q 1141 3584 1784 3584 
Q 2172 3584 2450 3431 
Q 2728 3278 2906 2969 
L 2906 3500 
L 3481 3500 
L 3481 434 
z
" transform="scale(0.015625)"/>
        <path id="DejaVuSans-68" d="M 3513 2113 
L 3513 0 
L 2938 0 
L 2938 2094 
Q 2938 2591 2744 2837 
Q 2550 3084 2163 3084 
Q 1697 3084 1428 2787 
Q 1159 2491 1159 1978 
L 1159 0 
L 581 0 
L 581 4863 
L 1159 4863 
L 1159 2956 
Q 1366 3272 1645 3428 
Q 1925 3584 2291 3584 
Q 2894 3584 3203 3211 
Q 3513 2838 3513 2113 
z
" transform="scale(0.015625)"/>
        <path id="DejaVuSans-74" d="M 1172 4494 
L 1172 3500 
L 2356 3500 
L 2356 3053 
L 1172 3053 
L 1172 1153 
Q 1172 725 1289 603 
Q 1406 481 1766 481 
L 2356 481 
L 2356 0 
L 1766 0 
Q 1100 0 847 248 
Q 594 497 594 1153 
L 594 3053 
L 172 3053 
L 172 3500 
L 594 3500 
L 594 4494 
L 1172 4494 
z
" transform="scale(0.015625)"/>
        <path id="DejaVuSans-73" d="M 2834 3397 
L 2834 2853 
Q 2591 2978 2328 3040 
Q 2066 3103 1784 3103 
Q 1356 3103 1142 2972 
Q 928 2841 928 2578 
Q 928 2378 1081 2264 
Q 1234 2150 1697 2047 
L 1894 2003 
Q 2506 1872 2764 1633 
Q 3022 1394 3022 966 
Q 3022 478 2636 193 
Q 2250 -91 1575 -91 
Q 1294 -91 989 -36 
Q 684 19 347 128 
L 347 722 
Q 666 556 975 473 
Q 1284 391 1588 391 
Q 1994 391 2212 530 
Q 2431 669 2431 922 
Q 2431 1156 2273 1281 
Q 2116 1406 1581 1522 
L 1381 1569 
Q 847 1681 609 1914 
Q 372 2147 372 2553 
Q 372 3047 722 3315 
Q 1072 3584 1716 3584 
Q 2034 3584 2315 3537 
Q 2597 3491 2834 3397 
z
" transform="scale(0.015625)"/>
       </defs>
       <use xlink:href="#DejaVuSans-4c"/>
       <use xlink:href="#DejaVuSans-69" transform="translate(55.712891 0)"/>
       <use xlink:href="#DejaVuSans-67" transform="translate(83.496094 0)"/>
       <use xlink:href="#DejaVuSans-68" transform="translate(146.972656 0)"/>
       <use xlink:href="#DejaVuSans-74" transform="translate(210.351562 0)"/>
       <use xlink:href="#DejaVuSans-73" transform="translate(249.560547 0)"/>
      </g>
     </g>
    </g>
    <g id="xtick_4">
     <g id="line2d_4">
      <g>
       <use xlink:href="#m2e325f9356" x="373.95" y="384.48" style="stroke: #000000; stroke-width: 0.8"/>
      </g>
     </g>
     <g id="text_4">
      <!-- Arrow &amp; Radar -->
      <g transform="translate(344.92875 397.55875) scale(0.08 -0.08)">
       <defs>
        <path id="DejaVuSans-20" transform="scale(0.015625)"/>
        <path id="DejaVuSans-26" d="M 1556 2509 
Q 1272 2256 1139 2004 
Q 1006 1753 1006 1478 
Q 1006 1022 1337 719 
Q 1669 416 2169 416 
Q 2466 416 2725 514 
Q 2984 613 3213 813 
L 1556 2509 
z
M 1997 2859 
L 3584 1234 
Q 3769 1513 3872 1830 
Q 3975 2147 3994 2503 
L 4575 2503 
Q 4538 2091 4375 1687 
Q 4213 1284 3922 891 
L 4794 0 
L 4006 0 
L 3559 459 
Q 3234 181 2878 45 
Q 2522 -91 2113 -91 
Q 1359 -91 881 339 
Q 403 769 403 1441 
Q 403 1841 612 2192 
Q 822 2544 1241 2853 
Q 1091 3050 1012 3245 
Q 934 3441 934 3628 
Q 934 4134 1281 4442 
Q 1628 4750 2203 4750 
Q 2463 4750 2720 4694 
Q 2978 4638 3244 4525 
L 3244 3956 
Q 2972 4103 2725 4179 
Q 2478 4256 2266 4256 
Q 1938 4256 1733 4082 
Q 1528 3909 1528 3634 
Q 1528 3475 1620 3314 
Q 1713 3153 1997 2859 
z
" transform="scale(0.015625)"/>
       </defs>
       <use xlink:href="#DejaVuSans-41"/>
       <use xlink:href="#DejaVuSans-72" transform="translate(68.408203 0)"/>
       <use xlink:href="#DejaVuSans-72" transform="translate(107.771484 0)"/>
       <use xlink:href="#DejaVuSans-6f" transform="translate(146.634766 0)"/>
       <use xlink:href="#DejaVuSans-77" transform="translate(207.816406 0)"/>
       <use xlink:href="#DejaVuSans-20" transform="translate(289.603516 0)"/>
       <use xlink:href="#DejaVuSans-26" transform="translate(321.390625 0)"/>
       <use xlink:href="#DejaVuSans-20" transform="translate(399.369141 0)"/>
       <use xlink:href="#DejaVuSans-52" transform="translate(431.15625 0)"/>
       <use xlink:href="#DejaVuSans-61" transform="translate(498.388672 0)"/>
       <use xlink:href="#DejaVuSans-64" transform="translate(559.667969 0)"/>
       <use xlink:href="#DejaVuSans-61" transform="translate(623.144531 0)"/>
       <use xlink:href="#DejaVuSans-72" transform="translate(684.423828 0)"/>
      </g>
     </g>
    </g>
    <g id="xtick_5">
     <g id="line2d_5">
      <g>
       <use xlink:href="#m2e325f9356" x="457.65" y="384.48" style="stroke: #000000; stroke-width: 0.8"/>
      </g>
     </g>
     <g id="text_5">
      <!-- Arrow &amp; Lights -->
      <g transform="translate(428.338125 397.55875) scale(0.08 -0.08)">
       <use xlink:href="#DejaVuSans-41"/>
       <use xlink:href="#DejaVuSans-72" transform="translate(68.408203 0)"/>
       <use xlink:href="#DejaVuSans-72" transform="translate(107.771484 0)"/>
       <use xlink:href="#DejaVuSans-6f" transform="translate(146.634766 0)"/>
       <use xlink:href="#DejaVuSans-77" transform="translate(207.816406 0)"/>
       <use xlink:href="#DejaVuSans-20" transform="translate(289.603516 0)"/>
       <use xlink:href="#DejaVuSans-26" transform="translate(321.390625 0)"/>
       <use xlink:href="#DejaVuSans-20" transform="translate(399.369141 0)"/>
       <use xlink:href="#DejaVuSans-4c" transform="translate(431.15625 0)"/>
       <use xlink:href="#DejaVuSans-69" transform="translate(486.869141 0)"/>
       <use xlink:href="#DejaVuSans-67" transform="translate(514.652344 0)"/>
       <use xlink:href="#DejaVuSans-68" transform="translate(578.128906 0)"/>
       <use xlink:href="#DejaVuSans-74" transform="translate(641.507812 0)"/>
       <use xlink:href="#DejaVuSans-73" transform="translate(680.716797 0)"/>
      </g>
     </g>
    </g>
    <g id="xtick_6">
     <g id="line2d_6">
      <g>
       <use xlink:href="#m2e325f9356" x="541.35" y="384.48" style="stroke: #000000; stroke-width: 0.8"/>
      </g>
     </g>
     <g id="text_6">
      <!-- Lights &amp; Radar -->
      <g transform="translate(511.84625 397.55875) scale(0.08 -0.08)">
       <use xlink:href="#DejaVuSans-4c"/>
       <use xlink:href="#DejaVuSans-69" transform="translate(55.712891 0)"/>
       <use xlink:href="#DejaVuSans-67" transform="translate(83.496094 0)"/>
       <use xlink:href="#DejaVuSans-68" transform="translate(146.972656 0)"/>
       <use xlink:href="#DejaVuSans-74" transform="translate(210.351562 0)"/>
       <use xlink:href="#DejaVuSans-73" transform="translate(249.560547 0)"/>
       <use xlink:href="#DejaVuSans-20" transform="translate(301.660156 0)"/>
       <use xlink:href="#DejaVuSans-26" transform="translate(333.447266 0)"/>
       <use xlink:href="#DejaVuSans-20" transform="translate(411.425781 0)"/>
       <use xlink:href="#DejaVuSans-52" transform="translate(443.212891 0)"/>
       <use xlink:href="#DejaVuSans-61" transform="translate(510.445312 0)"/>
       <use xlink:href="#DejaVuSans-64" transform="translate(571.724609 0)"/>
       <use xlink:href="#DejaVuSans-61" transform="translate(635.201172 0)"/>
       <use xlink:href="#DejaVuSans-72" transform="translate(696.480469 0)"/>
      </g>
     </g>
    </g>
    <g id="text_7">
     <!-- Visualization -->
     <g transform="translate(300.521875 416.820938) scale(0.1 -0.1)">
      <defs>
       <path id="DejaVuSans-56" d="M 1831 0 
L 50 4666 
L 709 4666 
L 2188 738 
L 3669 4666 
L 4325 4666 
L 2547 0 
L 1831 0 
z
" transform="scale(0.015625)"/>
       <path id="DejaVuSans-75" d="M 544 1381 
L 544 3500 
L 1119 3500 
L 1119 1403 
Q 1119 906 1312 657 
Q 1506 409 1894 409 
Q 2359 409 2629 706 
Q 2900 1003 2900 1516 
L 2900 3500 
L 3475 3500 
L 3475 0 
L 2900 0 
L 2900 538 
Q 2691 219 2414 64 
Q 2138 -91 1772 -91 
Q 1169 -91 856 284 
Q 544 659 544 1381 
z
M 1991 3584 
L 1991 3584 
z
" transform="scale(0.015625)"/>
       <path id="DejaVuSans-6c" d="M 603 4863 
L 1178 4863 
L 1178 0 
L 603 0 
L 603 4863 
z
" transform="scale(0.015625)"/>
       <path id="DejaVuSans-7a" d="M 353 3500 
L 3084 3500 
L 3084 2975 
L 922 459 
L 3084 459 
L 3084 0 
L 275 0 
L 275 525 
L 2438 3041 
L 353 3041 
L 353 3500 
z
" transform="scale(0.015625)"/>
       <path id="DejaVuSans-6e" d="M 3513 2113 
L 3513 0 
L 2938 0 
L 2938 2094 
Q 2938 2591 2744 2837 
Q 2550 3084 2163 3084 
Q 1697 3084 1428 2787 
Q 1159 2491 1159 1978 
L 1159 0 
L 581 0 
L 581 3500 
L 1159 3500 
L 1159 2956 
Q 1366 3272 1645 3428 
Q 1925 3584 2291 3584 
Q 2894 3584 3203 3211 
Q 3513 2838 3513 2113 
z
" transform="scale(0.015625)"/>
      </defs>
      <use xlink:href="#DejaVuSans-56"/>
      <use xlink:href="#DejaVuSans-69" transform="translate(66.158203 0)"/>
      <use xlink:href="#DejaVuSans-73" transform="translate(93.941406 0)"/>
      <use xlink:href="#DejaVuSans-75" transform="translate(146.041016 0)"/>
      <use xlink:href="#DejaVuSans-61" transform="translate(209.419922 0)"/>
      <use xlink:href="#DejaVuSans-6c" transform="translate(270.699219 0)"/>
      <use xlink:href="#DejaVuSans-69" transform="translate(298.482422 0)"/>
      <use xlink:href="#DejaVuSans-7a" transform="translate(326.265625 0)"/>
      <use xlink:href="#DejaVuSans-61" transform="translate(378.755859 0)"/>
      <use xlink:href="#DejaVuSans-74" transform="translate(440.035156 0)"/>
      <use xlink:href="#DejaVuSans-69" transform="translate(479.244141 0)"/>
      <use xlink:href="#DejaVuSans-6f" transform="translate(507.027344 0)"/>
      <use xlink:href="#DejaVuSans-6e" transform="translate(568.208984 0)"/>
     </g>
    </g>
   </g>
   <g id="matplotlib.axis_2">
    <g id="ytick_1">
     <g id="line2d_7">
      <defs>
       <path id="ma18f0902fe" d="M 0 0 
L -3.5 0 
" style="stroke: #000000; stroke-width: 0.8"/>
      </defs>
      <g>
       <use xlink:href="#ma18f0902fe" x="81" y="384.48" style="stroke: #000000; stroke-width: 0.8"/>
      </g>
     </g>
     <g id="text_8">
      <!-- 0 -->
      <g transform="translate(67.6375 388.279219) scale(0.1 -0.1)">
       <defs>
        <path id="DejaVuSans-30" d="M 2034 4250 
Q 1547 4250 1301 3770 
Q 1056 3291 1056 2328 
Q 1056 1369 1301 889 
Q 1547 409 2034 409 
Q 2525 409 2770 889 
Q 3016 1369 3016 2328 
Q 3016 3291 2770 3770 
Q 2525 4250 2034 4250 
z
M 2034 4750 
Q 2819 4750 3233 4129 
Q 3647 3509 3647 2328 
Q 3647 1150 3233 529 
Q 2819 -91 2034 -91 
Q 1250 -91 836 529 
Q 422 1150 422 2328 
Q 422 3509 836 4129 
Q 1250 4750 2034 4750 
z
" transform="scale(0.015625)"/>
       </defs>
       <use xlink:href="#DejaVuSans-30"/>
      </g>
     </g>
    </g>
    <g id="ytick_2">
     <g id="line2d_8">
      <g>
       <use xlink:href="#ma18f0902fe" x="81" y="334.992736" style="stroke: #000000; stroke-width: 0.8"/>
      </g>
     </g>
     <g id="text_9">
      <!-- 1 -->
      <g transform="translate(67.6375 338.791955) scale(0.1 -0.1)">
       <defs>
        <path id="DejaVuSans-31" d="M 794 531 
L 1825 531 
L 1825 4091 
L 703 3866 
L 703 4441 
L 1819 4666 
L 2450 4666 
L 2450 531 
L 3481 531 
L 3481 0 
L 794 0 
L 794 531 
z
" transform="scale(0.015625)"/>
       </defs>
       <use xlink:href="#DejaVuSans-31"/>
      </g>
     </g>
    </g>
    <g id="ytick_3">
     <g id="line2d_9">
      <g>
       <use xlink:href="#ma18f0902fe" x="81" y="285.505472" style="stroke: #000000; stroke-width: 0.8"/>
      </g>
     </g>
     <g id="text_10">
      <!-- 2 -->
      <g transform="translate(67.6375 289.304691) scale(0.1 -0.1)">
       <defs>
        <path id="DejaVuSans-32" d="M 1228 531 
L 3431 531 
L 3431 0 
L 469 0 
L 469 531 
Q 828 903 1448 1529 
Q 2069 2156 2228 2338 
Q 2531 2678 2651 2914 
Q 2772 3150 2772 3378 
Q 2772 3750 2511 3984 
Q 2250 4219 1831 4219 
Q 1534 4219 1204 4116 
Q 875 4013 500 3803 
L 500 4441 
Q 881 4594 1212 4672 
Q 1544 4750 1819 4750 
Q 2544 4750 2975 4387 
Q 3406 4025 3406 3419 
Q 3406 3131 3298 2873 
Q 3191 2616 2906 2266 
Q 2828 2175 2409 1742 
Q 1991 1309 1228 531 
z
" transform="scale(0.015625)"/>
       </defs>
       <use xlink:href="#DejaVuSans-32"/>
      </g>
     </g>
    </g>
    <g id="ytick_4">
     <g id="line2d_10">
      <g>
       <use xlink:href="#ma18f0902fe" x="81" y="236.018209" style="stroke: #000000; stroke-width: 0.8"/>
      </g>
     </g>
     <g id="text_11">
      <!-- 3 -->
      <g transform="translate(67.6375 239.817427) scale(0.1 -0.1)">
       <defs>
        <path id="DejaVuSans-33" d="M 2597 2516 
Q 3050 2419 3304 2112 
Q 3559 1806 3559 1356 
Q 3559 666 3084 287 
Q 2609 -91 1734 -91 
Q 1441 -91 1130 -33 
Q 819 25 488 141 
L 488 750 
Q 750 597 1062 519 
Q 1375 441 1716 441 
Q 2309 441 2620 675 
Q 2931 909 2931 1356 
Q 2931 1769 2642 2001 
Q 2353 2234 1838 2234 
L 1294 2234 
L 1294 2753 
L 1863 2753 
Q 2328 2753 2575 2939 
Q 2822 3125 2822 3475 
Q 2822 3834 2567 4026 
Q 2313 4219 1838 4219 
Q 1578 4219 1281 4162 
Q 984 4106 628 3988 
L 628 4550 
Q 988 4650 1302 4700 
Q 1616 4750 1894 4750 
Q 2613 4750 3031 4423 
Q 3450 4097 3450 3541 
Q 3450 3153 3228 2886 
Q 3006 2619 2597 2516 
z
" transform="scale(0.015625)"/>
       </defs>
       <use xlink:href="#DejaVuSans-33"/>
      </g>
     </g>
    </g>
    <g id="ytick_5">
     <g id="line2d_11">
      <g>
       <use xlink:href="#ma18f0902fe" x="81" y="186.530945" style="stroke: #000000; stroke-width: 0.8"/>
      </g>
     </g>
     <g id="text_12">
      <!-- 4 -->
      <g transform="translate(67.6375 190.330164) scale(0.1 -0.1)">
       <defs>
        <path id="DejaVuSans-34" d="M 2419 4116 
L 825 1625 
L 2419 1625 
L 2419 4116 
z
M 2253 4666 
L 3047 4666 
L 3047 1625 
L 3713 1625 
L 3713 1100 
L 3047 1100 
L 3047 0 
L 2419 0 
L 2419 1100 
L 313 1100 
L 313 1709 
L 2253 4666 
z
" transform="scale(0.015625)"/>
       </defs>
       <use xlink:href="#DejaVuSans-34"/>
      </g>
     </g>
    </g>
    <g id="ytick_6">
     <g id="line2d_12">
      <g>
       <use xlink:href="#ma18f0902fe" x="81" y="137.043681" style="stroke: #000000; stroke-width: 0.8"/>
      </g>
     </g>
     <g id="text_13">
      <!-- 5 -->
      <g transform="translate(67.6375 140.8429) scale(0.1 -0.1)">
       <defs>
        <path id="DejaVuSans-35" d="M 691 4666 
L 3169 4666 
L 3169 4134 
L 1269 4134 
L 1269 2991 
Q 1406 3038 1543 3061 
Q 1681 3084 1819 3084 
Q 2600 3084 3056 2656 
Q 3513 2228 3513 1497 
Q 3513 744 3044 326 
Q 2575 -91 1722 -91 
Q 1428 -91 1123 -41 
Q 819 9 494 109 
L 494 744 
Q 775 591 1075 516 
Q 1375 441 1709 441 
Q 2250 441 2565 725 
Q 2881 1009 2881 1497 
Q 2881 1984 2565 2268 
Q 2250 2553 1709 2553 
Q 1456 2553 1204 2497 
Q 953 2441 691 2322 
L 691 4666 
z
" transform="scale(0.015625)"/>
       </defs>
       <use xlink:href="#DejaVuSans-35"/>
      </g>
     </g>
    </g>
    <g id="ytick_7">
     <g id="line2d_13">
      <g>
       <use xlink:href="#ma18f0902fe" x="81" y="87.556417" style="stroke: #000000; stroke-width: 0.8"/>
      </g>
     </g>
     <g id="text_14">
      <!-- 6 -->
      <g transform="translate(67.6375 91.355636) scale(0.1 -0.1)">
       <defs>
        <path id="DejaVuSans-36" d="M 2113 2584 
Q 1688 2584 1439 2293 
Q 1191 2003 1191 1497 
Q 1191 994 1439 701 
Q 1688 409 2113 409 
Q 2538 409 2786 701 
Q 3034 994 3034 1497 
Q 3034 2003 2786 2293 
Q 2538 2584 2113 2584 
z
M 3366 4563 
L 3366 3988 
Q 3128 4100 2886 4159 
Q 2644 4219 2406 4219 
Q 1781 4219 1451 3797 
Q 1122 3375 1075 2522 
Q 1259 2794 1537 2939 
Q 1816 3084 2150 3084 
Q 2853 3084 3261 2657 
Q 3669 2231 3669 1497 
Q 3669 778 3244 343 
Q 2819 -91 2113 -91 
Q 1303 -91 875 529 
Q 447 1150 447 2328 
Q 447 3434 972 4092 
Q 1497 4750 2381 4750 
Q 2619 4750 2861 4703 
Q 3103 4656 3366 4563 
z
" transform="scale(0.015625)"/>
       </defs>
       <use xlink:href="#DejaVuSans-36"/>
      </g>
     </g>
    </g>
    <g id="text_15">
     <!-- Distance -->
     <g transform="translate(55.557812 240.0225) rotate(-90) scale(0.1 -0.1)">
      <defs>
       <path id="DejaVuSans-44" d="M 1259 4147 
L 1259 519 
L 2022 519 
Q 2988 519 3436 956 
Q 3884 1394 3884 2338 
Q 3884 3275 3436 3711 
Q 2988 4147 2022 4147 
L 1259 4147 
z
M 628 4666 
L 1925 4666 
Q 3281 4666 3915 4102 
Q 4550 3538 4550 2338 
Q 4550 1131 3912 565 
Q 3275 0 1925 0 
L 628 0 
L 628 4666 
z
" transform="scale(0.015625)"/>
       <path id="DejaVuSans-63" d="M 3122 3366 
L 3122 2828 
Q 2878 2963 2633 3030 
Q 2388 3097 2138 3097 
Q 1578 3097 1268 2742 
Q 959 2388 959 1747 
Q 959 1106 1268 751 
Q 1578 397 2138 397 
Q 2388 397 2633 464 
Q 2878 531 3122 666 
L 3122 134 
Q 2881 22 2623 -34 
Q 2366 -91 2075 -91 
Q 1284 -91 818 406 
Q 353 903 353 1747 
Q 353 2603 823 3093 
Q 1294 3584 2113 3584 
Q 2378 3584 2631 3529 
Q 2884 3475 3122 3366 
z
" transform="scale(0.015625)"/>
       <path id="DejaVuSans-65" d="M 3597 1894 
L 3597 1613 
L 953 1613 
Q 991 1019 1311 708 
Q 1631 397 2203 397 
Q 2534 397 2845 478 
Q 3156 559 3463 722 
L 3463 178 
Q 3153 47 2828 -22 
Q 2503 -91 2169 -91 
Q 1331 -91 842 396 
Q 353 884 353 1716 
Q 353 2575 817 3079 
Q 1281 3584 2069 3584 
Q 2775 3584 3186 3129 
Q 3597 2675 3597 1894 
z
M 3022 2063 
Q 3016 2534 2758 2815 
Q 2500 3097 2075 3097 
Q 1594 3097 1305 2825 
Q 1016 2553 972 2059 
L 3022 2063 
z
" transform="scale(0.015625)"/>
      </defs>
      <use xlink:href="#DejaVuSans-44"/>
      <use xlink:href="#DejaVuSans-69" transform="translate(77.001953 0)"/>
      <use xlink:href="#DejaVuSans-73" transform="translate(104.785156 0)"/>
      <use xlink:href="#DejaVuSans-74" transform="translate(156.884766 0)"/>
      <use xlink:href="#DejaVuSans-61" transform="translate(196.09375 0)"/>
      <use xlink:href="#DejaVuSans-6e" transform="translate(257.373047 0)"/>
      <use xlink:href="#DejaVuSans-63" transform="translate(320.751953 0)"/>
      <use xlink:href="#DejaVuSans-65" transform="translate(375.732422 0)"/>
     </g>
    </g>
   </g>
   <g id="LineCollection_1">
    <path d="M 106.11 229.441104 
L 139.59 229.441104 
" clip-path="url(#p69f2a4b7d1)" style="fill: none; stroke: #1f77b4; stroke-width: 1.5"/>
    <path d="M 189.81 73.45131 
L 223.29 73.45131 
" clip-path="url(#p69f2a4b7d1)" style="fill: none; stroke: #1f77b4; stroke-width: 1.5"/>
    <path d="M 273.51 67.384617 
L 306.99 67.384617 
" clip-path="url(#p69f2a4b7d1)" style="fill: none; stroke: #1f77b4; stroke-width: 1.5"/>
    <path d="M 357.21 130.93146 
L 390.69 130.93146 
" clip-path="url(#p69f2a4b7d1)" style="fill: none; stroke: #1f77b4; stroke-width: 1.5"/>
    <path d="M 440.91 136.844544 
L 474.39 136.844544 
" clip-path="url(#p69f2a4b7d1)" style="fill: none; stroke: #1f77b4; stroke-width: 1.5"/>
    <path d="M 524.61 108.138913 
L 558.09 108.138913 
" clip-path="url(#p69f2a4b7d1)" style="fill: none; stroke: #1f77b4; stroke-width: 1.5"/>
   </g>
   <g id="LineCollection_2">
    <path d="M 106.11 357.442183 
L 139.59 357.442183 
" clip-path="url(#p69f2a4b7d1)" style="fill: none; stroke: #1f77b4; stroke-width: 1.5"/>
    <path d="M 189.81 375.62799 
L 223.29 375.62799 
" clip-path="url(#p69f2a4b7d1)" style="fill: none; stroke: #1f77b4; stroke-width: 1.5"/>
    <path d="M 273.51 355.49773 
L 306.99 355.49773 
" clip-path="url(#p69f2a4b7d1)" style="fill: none; stroke: #1f77b4; stroke-width: 1.5"/>
    <path d="M 357.21 371.955308 
L 390.69 371.955308 
" clip-path="url(#p69f2a4b7d1)" style="fill: none; stroke: #1f77b4; stroke-width: 1.5"/>
    <path d="M 440.91 365.177473 
L 474.39 365.177473 
" clip-path="url(#p69f2a4b7d1)" style="fill: none; stroke: #1f77b4; stroke-width: 1.5"/>
    <path d="M 524.61 378.276955 
L 558.09 378.276955 
" clip-path="url(#p69f2a4b7d1)" style="fill: none; stroke: #1f77b4; stroke-width: 1.5"/>
   </g>
   <g id="LineCollection_3">
    <path d="M 122.85 357.442183 
L 122.85 229.441104 
" clip-path="url(#p69f2a4b7d1)" style="fill: none; stroke: #1f77b4; stroke-width: 1.5"/>
    <path d="M 206.55 375.62799 
L 206.55 73.45131 
" clip-path="url(#p69f2a4b7d1)" style="fill: none; stroke: #1f77b4; stroke-width: 1.5"/>
    <path d="M 290.25 355.49773 
L 290.25 67.384617 
" clip-path="url(#p69f2a4b7d1)" style="fill: none; stroke: #1f77b4; stroke-width: 1.5"/>
    <path d="M 373.95 371.955308 
L 373.95 130.93146 
" clip-path="url(#p69f2a4b7d1)" style="fill: none; stroke: #1f77b4; stroke-width: 1.5"/>
    <path d="M 457.65 365.177473 
L 457.65 136.844544 
" clip-path="url(#p69f2a4b7d1)" style="fill: none; stroke: #1f77b4; stroke-width: 1.5"/>
    <path d="M 541.35 378.276955 
L 541.35 108.138913 
" clip-path="url(#p69f2a4b7d1)" style="fill: none; stroke: #1f77b4; stroke-width: 1.5"/>
   </g>
   <g id="patch_3">
    <path d="M 110.295 351.879207 
L 135.405 351.879207 
L 135.405 338.936253 
L 110.295 338.936253 
L 110.295 351.879207 
z
" clip-path="url(#p69f2a4b7d1)" style="fill: #add8e6; stroke: #000000; stroke-linejoin: miter"/>
   </g>
   <g id="line2d_14">
    <path d="M 122.85 351.879207 
L 122.85 357.442183 
" clip-path="url(#p69f2a4b7d1)" style="fill: none; stroke: #000000; stroke-linecap: square"/>
   </g>
   <g id="line2d_15">
    <path d="M 122.85 338.936253 
L 122.85 320.773214 
" clip-path="url(#p69f2a4b7d1)" style="fill: none; stroke: #000000; stroke-linecap: square"/>
   </g>
   <g id="line2d_16">
    <path d="M 116.5725 357.442183 
L 129.1275 357.442183 
" clip-path="url(#p69f2a4b7d1)" style="fill: none; stroke: #000000; stroke-linecap: square"/>
   </g>
   <g id="line2d_17">
    <path d="M 116.5725 320.773214 
L 129.1275 320.773214 
" clip-path="url(#p69f2a4b7d1)" style="fill: none; stroke: #000000; stroke-linecap: square"/>
   </g>
   <g id="line2d_18">
    <defs>
     <path id="m7f13d19af7" d="M 0 2 
C 0.530406 2 1.03916 1.789267 1.414214 1.414214 
C 1.789267 1.03916 2 0.530406 2 0 
C 2 -0.530406 1.789267 -1.03916 1.414214 -1.414214 
C 1.03916 -1.789267 0.530406 -2 0 -2 
C -0.530406 -2 -1.03916 -1.789267 -1.414214 -1.414214 
C -1.789267 -1.03916 -2 -0.530406 -2 0 
C -2 0.530406 -1.789267 1.03916 -1.414214 1.414214 
C -1.03916 1.789267 -0.530406 2 0 2 
z
" style="stroke: #000000"/>
    </defs>
    <g clip-path="url(#p69f2a4b7d1)">
     <use xlink:href="#m7f13d19af7" x="122.85" y="236.32983" style="fill-opacity: 0; stroke: #000000"/>
     <use xlink:href="#m7f13d19af7" x="122.85" y="229.441104" style="fill-opacity: 0; stroke: #000000"/>
     <use xlink:href="#m7f13d19af7" x="122.85" y="304.106993" style="fill-opacity: 0; stroke: #000000"/>
     <use xlink:href="#m7f13d19af7" x="122.85" y="288.86348" style="fill-opacity: 0; stroke: #000000"/>
     <use xlink:href="#m7f13d19af7" x="122.85" y="292.352184" style="fill-opacity: 0; stroke: #000000"/>
     <use xlink:href="#m7f13d19af7" x="122.85" y="284.34851" style="fill-opacity: 0; stroke: #000000"/>
     <use xlink:href="#m7f13d19af7" x="122.85" y="311.899999" style="fill-opacity: 0; stroke: #000000"/>
     <use xlink:href="#m7f13d19af7" x="122.85" y="263.112585" style="fill-opacity: 0; stroke: #000000"/>
     <use xlink:href="#m7f13d19af7" x="122.85" y="313.002477" style="fill-opacity: 0; stroke: #000000"/>
     <use xlink:href="#m7f13d19af7" x="122.85" y="303.762165" style="fill-opacity: 0; stroke: #000000"/>
    </g>
   </g>
   <g id="patch_4">
    <path d="M 193.995 350.509984 
L 219.105 350.509984 
L 219.105 337.854016 
L 193.995 337.854016 
L 193.995 350.509984 
z
" clip-path="url(#p69f2a4b7d1)" style="fill: #add8e6; stroke: #000000; stroke-linejoin: miter"/>
   </g>
   <g id="line2d_19">
    <path d="M 206.55 350.509984 
L 206.55 368.290138 
" clip-path="url(#p69f2a4b7d1)" style="fill: none; stroke: #000000; stroke-linecap: square"/>
   </g>
   <g id="line2d_20">
    <path d="M 206.55 337.854016 
L 206.55 320.398398 
" clip-path="url(#p69f2a4b7d1)" style="fill: none; stroke: #000000; stroke-linecap: square"/>
   </g>
   <g id="line2d_21">
    <path d="M 200.2725 368.290138 
L 212.8275 368.290138 
" clip-path="url(#p69f2a4b7d1)" style="fill: none; stroke: #000000; stroke-linecap: square"/>
   </g>
   <g id="line2d_22">
    <path d="M 200.2725 320.398398 
L 212.8275 320.398398 
" clip-path="url(#p69f2a4b7d1)" style="fill: none; stroke: #000000; stroke-linecap: square"/>
   </g>
   <g id="line2d_23">
    <g clip-path="url(#p69f2a4b7d1)">
     <use xlink:href="#m7f13d19af7" x="206.55" y="375.500487" style="fill-opacity: 0; stroke: #000000"/>
     <use xlink:href="#m7f13d19af7" x="206.55" y="374.361785" style="fill-opacity: 0; stroke: #000000"/>
     <use xlink:href="#m7f13d19af7" x="206.55" y="372.304218" style="fill-opacity: 0; stroke: #000000"/>
     <use xlink:href="#m7f13d19af7" x="206.55" y="374.995192" style="fill-opacity: 0; stroke: #000000"/>
     <use xlink:href="#m7f13d19af7" x="206.55" y="375.62799" style="fill-opacity: 0; stroke: #000000"/>
     <use xlink:href="#m7f13d19af7" x="206.55" y="293.030209" style="fill-opacity: 0; stroke: #000000"/>
     <use xlink:href="#m7f13d19af7" x="206.55" y="305.490755" style="fill-opacity: 0; stroke: #000000"/>
     <use xlink:href="#m7f13d19af7" x="206.55" y="316.941564" style="fill-opacity: 0; stroke: #000000"/>
     <use xlink:href="#m7f13d19af7" x="206.55" y="241.248122" style="fill-opacity: 0; stroke: #000000"/>
     <use xlink:href="#m7f13d19af7" x="206.55" y="73.45131" style="fill-opacity: 0; stroke: #000000"/>
     <use xlink:href="#m7f13d19af7" x="206.55" y="292.99829" style="fill-opacity: 0; stroke: #000000"/>
    </g>
   </g>
   <g id="patch_5">
    <path d="M 277.695 329.346982 
L 302.805 329.346982 
L 302.805 232.063323 
L 277.695 232.063323 
L 277.695 329.346982 
z
" clip-path="url(#p69f2a4b7d1)" style="fill: #add8e6; stroke: #000000; stroke-linejoin: miter"/>
   </g>
   <g id="line2d_24">
    <path d="M 290.25 329.346982 
L 290.25 355.49773 
" clip-path="url(#p69f2a4b7d1)" style="fill: none; stroke: #000000; stroke-linecap: square"/>
   </g>
   <g id="line2d_25">
    <path d="M 290.25 232.063323 
L 290.25 86.387429 
" clip-path="url(#p69f2a4b7d1)" style="fill: none; stroke: #000000; stroke-linecap: square"/>
   </g>
   <g id="line2d_26">
    <path d="M 283.9725 355.49773 
L 296.5275 355.49773 
" clip-path="url(#p69f2a4b7d1)" style="fill: none; stroke: #000000; stroke-linecap: square"/>
   </g>
   <g id="line2d_27">
    <path d="M 283.9725 86.387429 
L 296.5275 86.387429 
" clip-path="url(#p69f2a4b7d1)" style="fill: none; stroke: #000000; stroke-linecap: square"/>
   </g>
   <g id="line2d_28">
    <g clip-path="url(#p69f2a4b7d1)">
     <use xlink:href="#m7f13d19af7" x="290.25" y="78.072332" style="fill-opacity: 0; stroke: #000000"/>
     <use xlink:href="#m7f13d19af7" x="290.25" y="84.288229" style="fill-opacity: 0; stroke: #000000"/>
     <use xlink:href="#m7f13d19af7" x="290.25" y="74.857045" style="fill-opacity: 0; stroke: #000000"/>
     <use xlink:href="#m7f13d19af7" x="290.25" y="67.384617" style="fill-opacity: 0; stroke: #000000"/>
    </g>
   </g>
   <g id="patch_6">
    <path d="M 361.395 355.243851 
L 386.505 355.243851 
L 386.505 337.468281 
L 361.395 337.468281 
L 361.395 355.243851 
z
" clip-path="url(#p69f2a4b7d1)" style="fill: #add8e6; stroke: #000000; stroke-linejoin: miter"/>
   </g>
   <g id="line2d_29">
    <path d="M 373.95 355.243851 
L 373.95 371.955308 
" clip-path="url(#p69f2a4b7d1)" style="fill: none; stroke: #000000; stroke-linecap: square"/>
   </g>
   <g id="line2d_30">
    <path d="M 373.95 337.468281 
L 373.95 320.202874 
" clip-path="url(#p69f2a4b7d1)" style="fill: none; stroke: #000000; stroke-linecap: square"/>
   </g>
   <g id="line2d_31">
    <path d="M 367.6725 371.955308 
L 380.2275 371.955308 
" clip-path="url(#p69f2a4b7d1)" style="fill: none; stroke: #000000; stroke-linecap: square"/>
   </g>
   <g id="line2d_32">
    <path d="M 367.6725 320.202874 
L 380.2275 320.202874 
" clip-path="url(#p69f2a4b7d1)" style="fill: none; stroke: #000000; stroke-linecap: square"/>
   </g>
   <g id="line2d_33">
    <g clip-path="url(#p69f2a4b7d1)">
     <use xlink:href="#m7f13d19af7" x="373.95" y="293.32451" style="fill-opacity: 0; stroke: #000000"/>
     <use xlink:href="#m7f13d19af7" x="373.95" y="269.636045" style="fill-opacity: 0; stroke: #000000"/>
     <use xlink:href="#m7f13d19af7" x="373.95" y="309.39055" style="fill-opacity: 0; stroke: #000000"/>
     <use xlink:href="#m7f13d19af7" x="373.95" y="283.076291" style="fill-opacity: 0; stroke: #000000"/>
     <use xlink:href="#m7f13d19af7" x="373.95" y="299.307272" style="fill-opacity: 0; stroke: #000000"/>
     <use xlink:href="#m7f13d19af7" x="373.95" y="298.117994" style="fill-opacity: 0; stroke: #000000"/>
     <use xlink:href="#m7f13d19af7" x="373.95" y="151.001861" style="fill-opacity: 0; stroke: #000000"/>
     <use xlink:href="#m7f13d19af7" x="373.95" y="130.93146" style="fill-opacity: 0; stroke: #000000"/>
     <use xlink:href="#m7f13d19af7" x="373.95" y="305.742349" style="fill-opacity: 0; stroke: #000000"/>
     <use xlink:href="#m7f13d19af7" x="373.95" y="303.371958" style="fill-opacity: 0; stroke: #000000"/>
    </g>
   </g>
   <g id="patch_7">
    <path d="M 445.095 350.77397 
L 470.205 350.77397 
L 470.205 329.373569 
L 445.095 329.373569 
L 445.095 350.77397 
z
" clip-path="url(#p69f2a4b7d1)" style="fill: #add8e6; stroke: #000000; stroke-linejoin: miter"/>
   </g>
   <g id="line2d_34">
    <path d="M 457.65 350.77397 
L 457.65 365.177473 
" clip-path="url(#p69f2a4b7d1)" style="fill: none; stroke: #000000; stroke-linecap: square"/>
   </g>
   <g id="line2d_35">
    <path d="M 457.65 329.373569 
L 457.65 299.219185 
" clip-path="url(#p69f2a4b7d1)" style="fill: none; stroke: #000000; stroke-linecap: square"/>
   </g>
   <g id="line2d_36">
    <path d="M 451.3725 365.177473 
L 463.9275 365.177473 
" clip-path="url(#p69f2a4b7d1)" style="fill: none; stroke: #000000; stroke-linecap: square"/>
   </g>
   <g id="line2d_37">
    <path d="M 451.3725 299.219185 
L 463.9275 299.219185 
" clip-path="url(#p69f2a4b7d1)" style="fill: none; stroke: #000000; stroke-linecap: square"/>
   </g>
   <g id="line2d_38">
    <g clip-path="url(#p69f2a4b7d1)">
     <use xlink:href="#m7f13d19af7" x="457.65" y="178.224359" style="fill-opacity: 0; stroke: #000000"/>
     <use xlink:href="#m7f13d19af7" x="457.65" y="259.337498" style="fill-opacity: 0; stroke: #000000"/>
     <use xlink:href="#m7f13d19af7" x="457.65" y="246.594082" style="fill-opacity: 0; stroke: #000000"/>
     <use xlink:href="#m7f13d19af7" x="457.65" y="265.681864" style="fill-opacity: 0; stroke: #000000"/>
     <use xlink:href="#m7f13d19af7" x="457.65" y="159.030328" style="fill-opacity: 0; stroke: #000000"/>
     <use xlink:href="#m7f13d19af7" x="457.65" y="136.844544" style="fill-opacity: 0; stroke: #000000"/>
     <use xlink:href="#m7f13d19af7" x="457.65" y="273.075756" style="fill-opacity: 0; stroke: #000000"/>
     <use xlink:href="#m7f13d19af7" x="457.65" y="251.309674" style="fill-opacity: 0; stroke: #000000"/>
     <use xlink:href="#m7f13d19af7" x="457.65" y="190.426137" style="fill-opacity: 0; stroke: #000000"/>
     <use xlink:href="#m7f13d19af7" x="457.65" y="190.481464" style="fill-opacity: 0; stroke: #000000"/>
    </g>
   </g>
   <g id="patch_8">
    <path d="M 528.795 354.307497 
L 553.905 354.307497 
L 553.905 324.548499 
L 528.795 324.548499 
L 528.795 354.307497 
z
" clip-path="url(#p69f2a4b7d1)" style="fill: #add8e6; stroke: #000000; stroke-linejoin: miter"/>
   </g>
   <g id="line2d_39">
    <path d="M 541.35 354.307497 
L 541.35 378.276955 
" clip-path="url(#p69f2a4b7d1)" style="fill: none; stroke: #000000; stroke-linecap: square"/>
   </g>
   <g id="line2d_40">
    <path d="M 541.35 324.548499 
L 541.35 296.815292 
" clip-path="url(#p69f2a4b7d1)" style="fill: none; stroke: #000000; stroke-linecap: square"/>
   </g>
   <g id="line2d_41">
    <path d="M 535.0725 378.276955 
L 547.6275 378.276955 
" clip-path="url(#p69f2a4b7d1)" style="fill: none; stroke: #000000; stroke-linecap: square"/>
   </g>
   <g id="line2d_42">
    <path d="M 535.0725 296.815292 
L 547.6275 296.815292 
" clip-path="url(#p69f2a4b7d1)" style="fill: none; stroke: #000000; stroke-linecap: square"/>
   </g>
   <g id="line2d_43">
    <g clip-path="url(#p69f2a4b7d1)">
     <use xlink:href="#m7f13d19af7" x="541.35" y="248.005806" style="fill-opacity: 0; stroke: #000000"/>
     <use xlink:href="#m7f13d19af7" x="541.35" y="273.213381" style="fill-opacity: 0; stroke: #000000"/>
     <use xlink:href="#m7f13d19af7" x="541.35" y="267.287825" style="fill-opacity: 0; stroke: #000000"/>
     <use xlink:href="#m7f13d19af7" x="541.35" y="216.418135" style="fill-opacity: 0; stroke: #000000"/>
     <use xlink:href="#m7f13d19af7" x="541.35" y="273.898928" style="fill-opacity: 0; stroke: #000000"/>
     <use xlink:href="#m7f13d19af7" x="541.35" y="264.367681" style="fill-opacity: 0; stroke: #000000"/>
     <use xlink:href="#m7f13d19af7" x="541.35" y="108.138913" style="fill-opacity: 0; stroke: #000000"/>
     <use xlink:href="#m7f13d19af7" x="541.35" y="179.518847" style="fill-opacity: 0; stroke: #000000"/>
     <use xlink:href="#m7f13d19af7" x="541.35" y="268.147023" style="fill-opacity: 0; stroke: #000000"/>
    </g>
   </g>
   <g id="line2d_44">
    <path d="M 110.295 347.927287 
L 135.405 347.927287 
" clip-path="url(#p69f2a4b7d1)" style="fill: none; stroke: #000000"/>
   </g>
   <g id="line2d_45">
    <path d="M 193.995 347.280132 
L 219.105 347.280132 
" clip-path="url(#p69f2a4b7d1)" style="fill: none; stroke: #000000"/>
   </g>
   <g id="line2d_46">
    <path d="M 277.695 300.794785 
L 302.805 300.794785 
" clip-path="url(#p69f2a4b7d1)" style="fill: none; stroke: #000000"/>
   </g>
   <g id="line2d_47">
    <path d="M 361.395 348.400593 
L 386.505 348.400593 
" clip-path="url(#p69f2a4b7d1)" style="fill: none; stroke: #000000"/>
   </g>
   <g id="line2d_48">
    <path d="M 445.095 345.840993 
L 470.205 345.840993 
" clip-path="url(#p69f2a4b7d1)" style="fill: none; stroke: #000000"/>
   </g>
   <g id="line2d_49">
    <path d="M 528.795 344.178906 
L 553.905 344.178906 
" clip-path="url(#p69f2a4b7d1)" style="fill: none; stroke: #000000"/>
   </g>
   <g id="patch_9">
    <path d="M 81 384.48 
L 81 51.84 
" style="fill: none; stroke: #000000; stroke-width: 0.8; stroke-linejoin: miter; stroke-linecap: square"/>
   </g>
   <g id="patch_10">
    <path d="M 583.2 384.48 
L 583.2 51.84 
" style="fill: none; stroke: #000000; stroke-width: 0.8; stroke-linejoin: miter; stroke-linecap: square"/>
   </g>
   <g id="patch_11">
    <path d="M 81 384.48 
L 583.2 384.48 
" style="fill: none; stroke: #000000; stroke-width: 0.8; stroke-linejoin: miter; stroke-linecap: square"/>
   </g>
   <g id="patch_12">
    <path d="M 81 51.84 
L 583.2 51.84 
" style="fill: none; stroke: #000000; stroke-width: 0.8; stroke-linejoin: miter; stroke-linecap: square"/>
   </g>
   <g id="text_16">
    <!-- Distance Distribution by Visualization -->
    <g transform="translate(219.887813 31.84) scale(0.12 -0.12)">
     <defs>
      <path id="DejaVuSans-62" d="M 3116 1747 
Q 3116 2381 2855 2742 
Q 2594 3103 2138 3103 
Q 1681 3103 1420 2742 
Q 1159 2381 1159 1747 
Q 1159 1113 1420 752 
Q 1681 391 2138 391 
Q 2594 391 2855 752 
Q 3116 1113 3116 1747 
z
M 1159 2969 
Q 1341 3281 1617 3432 
Q 1894 3584 2278 3584 
Q 2916 3584 3314 3078 
Q 3713 2572 3713 1747 
Q 3713 922 3314 415 
Q 2916 -91 2278 -91 
Q 1894 -91 1617 61 
Q 1341 213 1159 525 
L 1159 0 
L 581 0 
L 581 4863 
L 1159 4863 
L 1159 2969 
z
" transform="scale(0.015625)"/>
      <path id="DejaVuSans-79" d="M 2059 -325 
Q 1816 -950 1584 -1140 
Q 1353 -1331 966 -1331 
L 506 -1331 
L 506 -850 
L 844 -850 
Q 1081 -850 1212 -737 
Q 1344 -625 1503 -206 
L 1606 56 
L 191 3500 
L 800 3500 
L 1894 763 
L 2988 3500 
L 3597 3500 
L 2059 -325 
z
" transform="scale(0.015625)"/>
     </defs>
     <use xlink:href="#DejaVuSans-44"/>
     <use xlink:href="#DejaVuSans-69" transform="translate(77.001953 0)"/>
     <use xlink:href="#DejaVuSans-73" transform="translate(104.785156 0)"/>
     <use xlink:href="#DejaVuSans-74" transform="translate(156.884766 0)"/>
     <use xlink:href="#DejaVuSans-61" transform="translate(196.09375 0)"/>
     <use xlink:href="#DejaVuSans-6e" transform="translate(257.373047 0)"/>
     <use xlink:href="#DejaVuSans-63" transform="translate(320.751953 0)"/>
     <use xlink:href="#DejaVuSans-65" transform="translate(375.732422 0)"/>
     <use xlink:href="#DejaVuSans-20" transform="translate(437.255859 0)"/>
     <use xlink:href="#DejaVuSans-44" transform="translate(469.042969 0)"/>
     <use xlink:href="#DejaVuSans-69" transform="translate(546.044922 0)"/>
     <use xlink:href="#DejaVuSans-73" transform="translate(573.828125 0)"/>
     <use xlink:href="#DejaVuSans-74" transform="translate(625.927734 0)"/>
     <use xlink:href="#DejaVuSans-72" transform="translate(665.136719 0)"/>
     <use xlink:href="#DejaVuSans-69" transform="translate(706.25 0)"/>
     <use xlink:href="#DejaVuSans-62" transform="translate(734.033203 0)"/>
     <use xlink:href="#DejaVuSans-75" transform="translate(797.509766 0)"/>
     <use xlink:href="#DejaVuSans-74" transform="translate(860.888672 0)"/>
     <use xlink:href="#DejaVuSans-69" transform="translate(900.097656 0)"/>
     <use xlink:href="#DejaVuSans-6f" transform="translate(927.880859 0)"/>
     <use xlink:href="#DejaVuSans-6e" transform="translate(989.0625 0)"/>
     <use xlink:href="#DejaVuSans-20" transform="translate(1052.441406 0)"/>
     <use xlink:href="#DejaVuSans-62" transform="translate(1084.228516 0)"/>
     <use xlink:href="#DejaVuSans-79" transform="translate(1147.705078 0)"/>
     <use xlink:href="#DejaVuSans-20" transform="translate(1206.884766 0)"/>
     <use xlink:href="#DejaVuSans-56" transform="translate(1238.671875 0)"/>
     <use xlink:href="#DejaVuSans-69" transform="translate(1304.830078 0)"/>
     <use xlink:href="#DejaVuSans-73" transform="translate(1332.613281 0)"/>
     <use xlink:href="#DejaVuSans-75" transform="translate(1384.712891 0)"/>
     <use xlink:href="#DejaVuSans-61" transform="translate(1448.091797 0)"/>
     <use xlink:href="#DejaVuSans-6c" transform="translate(1509.371094 0)"/>
     <use xlink:href="#DejaVuSans-69" transform="translate(1537.154297 0)"/>
     <use xlink:href="#DejaVuSans-7a" transform="translate(1564.9375 0)"/>
     <use xlink:href="#DejaVuSans-61" transform="translate(1617.427734 0)"/>
     <use xlink:href="#DejaVuSans-74" transform="translate(1678.707031 0)"/>
     <use xlink:href="#DejaVuSans-69" transform="translate(1717.916016 0)"/>
     <use xlink:href="#DejaVuSans-6f" transform="translate(1745.699219 0)"/>
     <use xlink:href="#DejaVuSans-6e" transform="translate(1806.880859 0)"/>
    </g>
   </g>
  </g>
 </g>
 <defs>
  <clipPath id="p69f2a4b7d1">
   <rect x="81" y="51.84" width="502.2" height="332.64"/>
  </clipPath>
 </defs>
</svg>
