<?xml version="1.0" encoding="utf-8" standalone="no"?>
<!DOCTYPE svg PUBLIC "-//W3C//DTD SVG 1.1//EN"
  "http://www.w3.org/Graphics/SVG/1.1/DTD/svg11.dtd">
<svg xmlns:xlink="http://www.w3.org/1999/xlink" width="648pt" height="432pt" viewBox="0 0 648 432" xmlns="http://www.w3.org/2000/svg" version="1.1">
 <metadata>
  <rdf:RDF xmlns:dc="http://purl.org/dc/elements/1.1/" xmlns:cc="http://creativecommons.org/ns#" xmlns:rdf="http://www.w3.org/1999/02/22-rdf-syntax-ns#">
   <cc:Work>
    <dc:type rdf:resource="http://purl.org/dc/dcmitype/StillImage"/>
    <dc:date>2026-03-02T20:55:47.021295</dc:date>
    <dc:format>image/svg+xml</dc:format>
    <dc:creator>
     <cc:Agent>
      <dc:title>Matplotlib v3.10.6, https://matplotlib.org/</dc:title>
     </cc:Agent>
    </dc:creator>
   </cc:Work>
  </rdf:RDF>
 </metadata>
 <defs>
  <style type="text/css">*{stroke-linejoin: round; stroke-linecap: butt}</style>
 </defs>
 <g id="figure_1">
  <g id="patch_1">
   <path d="M 0 432 
L 648 432 
L 648 0 
L 0 0 
z
" style="fill: #ffffff"/>
  </g>
  <g id="axes_1">
   <g id="patch_2">
    <path d="M 81 384.48 
L 583.2 384.48 
L 583.2 51.84 
L 81 51.84 
z
" style="fill: #ffffff"/>
   </g>
   <g id="FillBetweenPolyCollection_1">
    <path d="M 154.52015 378.254214 
L 91.17985 378.254214 
L 89.960776 376.988128 
L 89.37 375.722042 
L 89.430651 374.455956 
L 90.125484 373.18987 
L 91.39936 371.923784 
L 93.165511 370.657697 
L 95.314629 369.391611 
L 97.725481 368.125525 
L 100.275629 366.859439 
L 102.851003 365.593353 
L 105.353327 364.327267 
L 107.704898 363.061181 
L 109.850597 361.795095 
L 111.757446 360.529008 
L 113.412235 359.262922 
L 114.817933 357.996836 
L 115.989532 356.73075 
L 116.949909 355.464664 
L 117.726131 354.198578 
L 118.346437 352.932492 
L 118.838007 351.666406 
L 119.225492 350.400319 
L 119.530212 349.134233 
L 119.769903 347.868147 
L 119.958858 346.602061 
L 120.108348 345.335975 
L 120.227192 344.069889 
L 120.322371 342.803803 
L 120.399609 341.537717 
L 120.463851 340.27163 
L 120.51959 339.005544 
L 120.571032 337.739458 
L 120.622104 336.473372 
L 120.67634 335.207286 
L 120.736696 333.9412 
L 120.80535 332.675114 
L 120.88356 331.409028 
L 120.971598 330.142941 
L 121.068804 328.876855 
L 121.173743 327.610769 
L 121.284447 326.344683 
L 121.398689 325.078597 
L 121.514257 323.812511 
L 121.629166 322.546425 
L 121.741801 321.280339 
L 121.850959 320.014252 
L 121.955822 318.748166 
L 122.055862 317.48208 
L 122.150732 316.215994 
L 122.240158 314.949908 
L 122.323858 313.683822 
L 122.401514 312.417736 
L 122.472779 311.151649 
L 122.537316 309.885563 
L 122.594864 308.619477 
L 122.645292 307.353391 
L 122.688642 306.087305 
L 122.72515 304.821219 
L 122.755241 303.555133 
L 122.779492 302.289047 
L 122.798592 301.02296 
L 122.813286 299.756874 
L 122.824324 298.490788 
L 122.832418 297.224702 
L 122.838207 295.958616 
L 122.842239 294.69253 
L 122.844966 293.426444 
L 122.846734 292.160358 
L 122.847801 290.894271 
L 122.848334 289.628185 
L 122.84842 288.362099 
L 122.848071 287.096013 
L 122.847217 285.829927 
L 122.845708 284.563841 
L 122.843297 283.297755 
L 122.83963 282.031669 
L 122.834234 280.765582 
L 122.826506 279.499496 
L 122.815714 278.23341 
L 122.801014 276.967324 
L 122.781479 275.701238 
L 122.756158 274.435152 
L 122.724159 273.169066 
L 122.684752 271.90298 
L 122.63749 270.636893 
L 122.582337 269.370807 
L 122.51978 268.104721 
L 122.45092 266.838635 
L 122.377508 265.572549 
L 122.301926 264.306463 
L 122.22709 263.040377 
L 122.156285 261.77429 
L 122.09294 260.508204 
L 122.040357 259.242118 
L 122.001433 257.976032 
L 121.978394 256.709946 
L 121.972591 255.44386 
L 121.984368 254.177774 
L 122.013029 252.911688 
L 123.686971 252.911688 
L 123.686971 252.911688 
L 123.715632 254.177774 
L 123.727409 255.44386 
L 123.721606 256.709946 
L 123.698567 257.976032 
L 123.659643 259.242118 
L 123.60706 260.508204 
L 123.543715 261.77429 
L 123.47291 263.040377 
L 123.398074 264.306463 
L 123.322492 265.572549 
L 123.24908 266.838635 
L 123.18022 268.104721 
L 123.117663 269.370807 
L 123.06251 270.636893 
L 123.015248 271.90298 
L 122.975841 273.169066 
L 122.943842 274.435152 
L 122.918521 275.701238 
L 122.898986 276.967324 
L 122.884286 278.23341 
L 122.873494 279.499496 
L 122.865766 280.765582 
L 122.86037 282.031669 
L 122.856703 283.297755 
L 122.854292 284.563841 
L 122.852783 285.829927 
L 122.851929 287.096013 
L 122.85158 288.362099 
L 122.851666 289.628185 
L 122.852199 290.894271 
L 122.853266 292.160358 
L 122.855034 293.426444 
L 122.857761 294.69253 
L 122.861793 295.958616 
L 122.867582 297.224702 
L 122.875676 298.490788 
L 122.886714 299.756874 
L 122.901408 301.02296 
L 122.920508 302.289047 
L 122.944759 303.555133 
L 122.97485 304.821219 
L 123.011358 306.087305 
L 123.054708 307.353391 
L 123.105136 308.619477 
L 123.162684 309.885563 
L 123.227221 311.151649 
L 123.298486 312.417736 
L 123.376142 313.683822 
L 123.459842 314.949908 
L 123.549268 316.215994 
L 123.644138 317.48208 
L 123.744178 318.748166 
L 123.849041 320.014252 
L 123.958199 321.280339 
L 124.070834 322.546425 
L 124.185743 323.812511 
L 124.301311 325.078597 
L 124.415553 326.344683 
L 124.526257 327.610769 
L 124.631196 328.876855 
L 124.728402 330.142941 
L 124.81644 331.409028 
L 124.89465 332.675114 
L 124.963304 333.9412 
L 125.02366 335.207286 
L 125.077896 336.473372 
L 125.128968 337.739458 
L 125.18041 339.005544 
L 125.236149 340.27163 
L 125.300391 341.537717 
L 125.377629 342.803803 
L 125.472808 344.069889 
L 125.591652 345.335975 
L 125.741142 346.602061 
L 125.930097 347.868147 
L 126.169788 349.134233 
L 126.474508 350.400319 
L 126.861993 351.666406 
L 127.353563 352.932492 
L 127.973869 354.198578 
L 128.750091 355.464664 
L 129.710468 356.73075 
L 130.882067 357.996836 
L 132.287765 359.262922 
L 133.942554 360.529008 
L 135.849403 361.795095 
L 137.995102 363.061181 
L 140.346673 364.327267 
L 142.848997 365.593353 
L 145.424371 366.859439 
L 147.974519 368.125525 
L 150.385371 369.391611 
L 152.534489 370.657697 
L 154.30064 371.923784 
L 155.574516 373.18987 
L 156.269349 374.455956 
L 156.33 375.722042 
L 155.739224 376.988128 
L 154.52015 378.254214 
z
" clip-path="url(#p1e89f5f6c9)" style="fill: #1f77b4; fill-opacity: 0.3"/>
   </g>
   <g id="FillBetweenPolyCollection_2">
    <path d="M 236.43034 382.441717 
L 176.66966 382.441717 
L 174.324444 379.574437 
L 173.082346 376.707157 
L 173.07 373.839877 
L 174.275586 370.972597 
L 176.55142 368.105316 
L 179.641306 365.238036 
L 183.225604 362.370756 
L 186.973074 359.503476 
L 190.588002 356.636196 
L 193.843833 353.768915 
L 196.599113 350.901635 
L 198.796436 348.034355 
L 200.448679 345.167075 
L 201.618428 342.299795 
L 202.396226 339.432514 
L 202.881712 336.565234 
L 203.169735 333.697954 
L 203.341798 330.830674 
L 203.462046 327.963394 
L 203.576547 325.096113 
L 203.714589 322.228833 
L 203.891044 319.361553 
L 204.109182 316.494273 
L 204.363591 313.626993 
L 204.643063 310.759712 
L 204.933338 307.892432 
L 205.219583 305.025152 
L 205.488454 302.157872 
L 205.729592 299.290592 
L 205.936421 296.423311 
L 206.106277 293.556031 
L 206.239941 290.688751 
L 206.340782 287.821471 
L 206.413751 284.954191 
L 206.464406 282.08691 
L 206.498151 279.21963 
L 206.519725 276.35235 
L 206.532965 273.48507 
L 206.540763 270.61779 
L 206.545168 267.75051 
L 206.547547 264.883229 
L 206.548757 262.015949 
L 206.549294 259.148669 
L 206.549407 256.281389 
L 206.54917 253.414109 
L 206.548507 250.546828 
L 206.547196 247.679548 
L 206.544849 244.812268 
L 206.540875 241.944988 
L 206.534458 239.077708 
L 206.524568 236.210427 
L 206.510026 233.343147 
L 206.489643 230.475867 
L 206.462461 227.608587 
L 206.428044 224.741307 
L 206.386793 221.874026 
L 206.340201 219.006746 
L 206.290941 216.139466 
L 206.242726 213.272186 
L 206.199909 210.404906 
L 206.16685 207.537625 
L 206.147204 204.670345 
L 206.143245 201.803065 
L 206.155442 198.935785 
L 206.182363 196.068505 
L 206.220953 193.201224 
L 206.267104 190.333944 
L 206.316371 187.466664 
L 206.364665 184.599384 
L 206.408773 181.732104 
L 206.446627 178.864823 
L 206.477317 175.997543 
L 206.500911 173.130263 
L 206.518152 170.262983 
L 206.53015 167.395703 
L 206.53811 164.528422 
L 206.543145 161.661142 
L 206.54617 158.793862 
L 206.547868 155.926582 
L 206.548694 153.059302 
L 206.548898 150.192022 
L 206.548547 147.324741 
L 206.547529 144.457461 
L 206.545543 141.590181 
L 206.542076 138.722901 
L 206.536386 135.855621 
L 206.527501 132.98834 
L 206.514272 130.12106 
L 206.495496 127.25378 
L 206.470129 124.3865 
L 206.43757 121.51922 
L 206.397979 118.651939 
L 206.35255 115.784659 
L 206.303658 112.917379 
L 206.254775 110.050099 
L 206.210143 107.182819 
L 206.174188 104.315538 
L 206.150815 101.448258 
L 206.142705 98.580978 
L 206.957295 98.580978 
L 206.957295 98.580978 
L 206.949185 101.448258 
L 206.925812 104.315538 
L 206.889857 107.182819 
L 206.845225 110.050099 
L 206.796342 112.917379 
L 206.74745 115.784659 
L 206.702021 118.651939 
L 206.66243 121.51922 
L 206.629871 124.3865 
L 206.604504 127.25378 
L 206.585728 130.12106 
L 206.572499 132.98834 
L 206.563614 135.855621 
L 206.557924 138.722901 
L 206.554457 141.590181 
L 206.552471 144.457461 
L 206.551453 147.324741 
L 206.551102 150.192022 
L 206.551306 153.059302 
L 206.552132 155.926582 
L 206.55383 158.793862 
L 206.556855 161.661142 
L 206.56189 164.528422 
L 206.56985 167.395703 
L 206.581848 170.262983 
L 206.599089 173.130263 
L 206.622683 175.997543 
L 206.653373 178.864823 
L 206.691227 181.732104 
L 206.735335 184.599384 
L 206.783629 187.466664 
L 206.832896 190.333944 
L 206.879047 193.201224 
L 206.917637 196.068505 
L 206.944558 198.935785 
L 206.956755 201.803065 
L 206.952796 204.670345 
L 206.93315 207.537625 
L 206.900091 210.404906 
L 206.857274 213.272186 
L 206.809059 216.139466 
L 206.759799 219.006746 
L 206.713207 221.874026 
L 206.671956 224.741307 
L 206.637539 227.608587 
L 206.610357 230.475867 
L 206.589974 233.343147 
L 206.575432 236.210427 
L 206.565542 239.077708 
L 206.559125 241.944988 
L 206.555151 244.812268 
L 206.552804 247.679548 
L 206.551493 250.546828 
L 206.55083 253.414109 
L 206.550593 256.281389 
L 206.550706 259.148669 
L 206.551243 262.015949 
L 206.552453 264.883229 
L 206.554832 267.75051 
L 206.559237 270.61779 
L 206.567035 273.48507 
L 206.580275 276.35235 
L 206.601849 279.21963 
L 206.635594 282.08691 
L 206.686249 284.954191 
L 206.759218 287.821471 
L 206.860059 290.688751 
L 206.993723 293.556031 
L 207.163579 296.423311 
L 207.370408 299.290592 
L 207.611546 302.157872 
L 207.880417 305.025152 
L 208.166662 307.892432 
L 208.456937 310.759712 
L 208.736409 313.626993 
L 208.990818 316.494273 
L 209.208956 319.361553 
L 209.385411 322.228833 
L 209.523453 325.096113 
L 209.637954 327.963394 
L 209.758202 330.830674 
L 209.930265 333.697954 
L 210.218288 336.565234 
L 210.703774 339.432514 
L 211.481572 342.299795 
L 212.651321 345.167075 
L 214.303564 348.034355 
L 216.500887 350.901635 
L 219.256167 353.768915 
L 222.511998 356.636196 
L 226.126926 359.503476 
L 229.874396 362.370756 
L 233.458694 365.238036 
L 236.54858 368.105316 
L 238.824414 370.972597 
L 240.03 373.839877 
L 240.017654 376.707157 
L 238.775556 379.574437 
L 236.43034 382.441717 
z
" clip-path="url(#p1e89f5f6c9)" style="fill: #1f77b4; fill-opacity: 0.3"/>
   </g>
   <g id="FillBetweenPolyCollection_3">
    <path d="M 319.760446 377.80648 
L 260.739554 377.80648 
L 259.153163 374.673202 
L 257.940673 371.539925 
L 257.139944 368.406647 
L 256.77 365.273369 
L 256.830063 362.140092 
L 257.300165 359.006814 
L 258.143249 355.873536 
L 259.308512 352.740258 
L 260.735611 349.606981 
L 262.359298 346.473703 
L 264.113992 343.340425 
L 265.937896 340.207147 
L 267.776285 337.07387 
L 269.58377 333.940592 
L 271.325451 330.807314 
L 272.976997 327.674036 
L 274.523816 324.540759 
L 275.959564 321.407481 
L 277.284237 318.274203 
L 278.502167 315.140926 
L 279.620115 312.007648 
L 280.645692 308.87437 
L 281.586189 305.741092 
L 282.447862 302.607815 
L 283.235658 299.474537 
L 283.953275 296.341259 
L 284.603475 293.207981 
L 285.18852 290.074704 
L 285.710615 286.941426 
L 286.172295 283.808148 
L 286.576683 280.67487 
L 286.927608 277.541593 
L 287.229578 274.408315 
L 287.487658 271.275037 
L 287.707256 268.141759 
L 287.893894 265.008482 
L 288.052971 261.875204 
L 288.189573 258.741926 
L 288.308315 255.608649 
L 288.413262 252.475371 
L 288.507879 249.342093 
L 288.595051 246.208815 
L 288.677113 243.075538 
L 288.755917 239.94226 
L 288.83289 236.808982 
L 288.909099 233.675704 
L 288.9853 230.542427 
L 289.061967 227.409149 
L 289.139322 224.275871 
L 289.217337 221.142593 
L 289.29574 218.009316 
L 289.374019 214.876038 
L 289.451423 211.74276 
L 289.526988 208.609483 
L 289.599554 205.476205 
L 289.667812 202.342927 
L 289.730351 199.209649 
L 289.785719 196.076372 
L 289.832483 192.943094 
L 289.8693 189.809816 
L 289.894978 186.676538 
L 289.908541 183.543261 
L 289.909285 180.409983 
L 289.896834 177.276705 
L 289.871183 174.143427 
L 289.832733 171.01015 
L 289.782318 167.876872 
L 289.721206 164.743594 
L 289.651085 161.610316 
L 289.574025 158.477039 
L 289.492406 155.343761 
L 289.408827 152.210483 
L 289.325992 149.077206 
L 289.246578 145.943928 
L 289.173099 142.81065 
L 289.107777 139.677372 
L 289.052428 136.544095 
L 289.008378 133.410817 
L 288.97641 130.277539 
L 288.95675 127.144261 
L 288.94909 124.010984 
L 288.952646 120.877706 
L 288.966238 117.744428 
L 288.988396 114.61115 
L 289.017473 111.477873 
L 289.051755 108.344595 
L 289.089573 105.211317 
L 289.129406 102.07804 
L 289.169956 98.944762 
L 289.210218 95.811484 
L 289.249516 92.678206 
L 289.287521 89.544929 
L 289.324239 86.411651 
L 289.359971 83.278373 
L 289.395248 80.145095 
L 289.430752 77.011818 
L 289.467215 73.87854 
L 289.505325 70.745262 
L 289.545629 67.611984 
L 290.954371 67.611984 
L 290.954371 67.611984 
L 290.994675 70.745262 
L 291.032785 73.87854 
L 291.069248 77.011818 
L 291.104752 80.145095 
L 291.140029 83.278373 
L 291.175761 86.411651 
L 291.212479 89.544929 
L 291.250484 92.678206 
L 291.289782 95.811484 
L 291.330044 98.944762 
L 291.370594 102.07804 
L 291.410427 105.211317 
L 291.448245 108.344595 
L 291.482527 111.477873 
L 291.511604 114.61115 
L 291.533762 117.744428 
L 291.547354 120.877706 
L 291.55091 124.010984 
L 291.54325 127.144261 
L 291.52359 130.277539 
L 291.491622 133.410817 
L 291.447572 136.544095 
L 291.392223 139.677372 
L 291.326901 142.81065 
L 291.253422 145.943928 
L 291.174008 149.077206 
L 291.091173 152.210483 
L 291.007594 155.343761 
L 290.925975 158.477039 
L 290.848915 161.610316 
L 290.778794 164.743594 
L 290.717682 167.876872 
L 290.667267 171.01015 
L 290.628817 174.143427 
L 290.603166 177.276705 
L 290.590715 180.409983 
L 290.591459 183.543261 
L 290.605022 186.676538 
L 290.6307 189.809816 
L 290.667517 192.943094 
L 290.714281 196.076372 
L 290.769649 199.209649 
L 290.832188 202.342927 
L 290.900446 205.476205 
L 290.973012 208.609483 
L 291.048577 211.74276 
L 291.125981 214.876038 
L 291.20426 218.009316 
L 291.282663 221.142593 
L 291.360678 224.275871 
L 291.438033 227.409149 
L 291.5147 230.542427 
L 291.590901 233.675704 
L 291.66711 236.808982 
L 291.744083 239.94226 
L 291.822887 243.075538 
L 291.904949 246.208815 
L 291.992121 249.342093 
L 292.086738 252.475371 
L 292.191685 255.608649 
L 292.310427 258.741926 
L 292.447029 261.875204 
L 292.606106 265.008482 
L 292.792744 268.141759 
L 293.012342 271.275037 
L 293.270422 274.408315 
L 293.572392 277.541593 
L 293.923317 280.67487 
L 294.327705 283.808148 
L 294.789385 286.941426 
L 295.31148 290.074704 
L 295.896525 293.207981 
L 296.546725 296.341259 
L 297.264342 299.474537 
L 298.052138 302.607815 
L 298.913811 305.741092 
L 299.854308 308.87437 
L 300.879885 312.007648 
L 301.997833 315.140926 
L 303.215763 318.274203 
L 304.540436 321.407481 
L 305.976184 324.540759 
L 307.523003 327.674036 
L 309.174549 330.807314 
L 310.91623 333.940592 
L 312.723715 337.07387 
L 314.562104 340.207147 
L 316.386008 343.340425 
L 318.140702 346.473703 
L 319.764389 349.606981 
L 321.191488 352.740258 
L 322.356751 355.873536 
L 323.199835 359.006814 
L 323.669937 362.140092 
L 323.73 365.273369 
L 323.360056 368.406647 
L 322.559327 371.539925 
L 321.346837 374.673202 
L 319.760446 377.80648 
z
" clip-path="url(#p1e89f5f6c9)" style="fill: #1f77b4; fill-opacity: 0.3"/>
   </g>
   <g id="FillBetweenPolyCollection_4">
    <path d="M 406.133603 381.596038 
L 341.766397 381.596038 
L 340.862623 378.684154 
L 340.47 375.77227 
L 340.604341 372.860386 
L 341.256034 369.948502 
L 342.390863 367.036619 
L 343.952774 364.124735 
L 345.868271 361.212851 
L 348.05196 358.300967 
L 350.412678 355.389084 
L 352.859594 352.4772 
L 355.307731 349.565316 
L 357.682458 346.653432 
L 359.922678 343.741549 
L 361.982576 340.829665 
L 363.831978 337.917781 
L 365.455507 335.005897 
L 366.850791 332.094013 
L 368.026059 329.18213 
L 368.997441 326.270246 
L 369.786253 323.358362 
L 370.416511 320.446478 
L 370.912819 317.534595 
L 371.298724 314.622711 
L 371.595564 311.710827 
L 371.821775 308.798943 
L 371.992606 305.88706 
L 372.120151 302.975176 
L 372.213629 300.063292 
L 372.279816 297.151408 
L 372.323561 294.239525 
L 372.348326 291.327641 
L 372.3567 288.415757 
L 372.350848 285.503873 
L 372.332871 282.591989 
L 372.305055 279.680106 
L 372.270019 276.768222 
L 372.230739 273.856338 
L 372.190488 270.944454 
L 372.152692 268.032571 
L 372.120728 265.120687 
L 372.097714 262.208803 
L 372.086285 259.296919 
L 372.088421 256.385036 
L 372.105321 253.473152 
L 372.137344 250.561268 
L 372.184038 247.649384 
L 372.244219 244.7375 
L 372.316128 241.825617 
L 372.397606 238.913733 
L 372.486297 236.001849 
L 372.579831 233.089965 
L 372.675985 230.178082 
L 372.7728 227.266198 
L 372.868646 224.354314 
L 372.96224 221.44243 
L 373.052619 218.530547 
L 373.139081 215.618663 
L 373.221117 212.706779 
L 373.298325 209.794895 
L 373.37035 206.883011 
L 373.436826 203.971128 
L 373.497352 201.059244 
L 373.551487 198.14736 
L 373.598764 195.235476 
L 373.638721 192.323593 
L 373.670947 189.411709 
L 373.695125 186.499825 
L 373.711074 183.587941 
L 373.718793 180.676058 
L 373.718489 177.764174 
L 373.710586 174.85229 
L 373.695734 171.940406 
L 373.674784 169.028523 
L 373.648761 166.116639 
L 373.618808 163.204755 
L 373.58612 160.292871 
L 373.55187 157.380987 
L 373.517125 154.469104 
L 373.482773 151.55722 
L 373.449455 148.645336 
L 373.417527 145.733452 
L 373.387046 142.821569 
L 373.357796 139.909685 
L 373.329344 136.997801 
L 373.301135 134.085917 
L 373.272604 131.174034 
L 373.243301 128.26215 
L 373.213013 125.350266 
L 373.181855 122.438382 
L 373.15034 119.526498 
L 373.119389 116.614615 
L 373.090297 113.702731 
L 373.064642 110.790847 
L 373.044164 107.878963 
L 373.030598 104.96708 
L 373.025515 102.055196 
L 373.030162 99.143312 
L 373.045328 96.231428 
L 373.071262 93.319545 
L 374.828738 93.319545 
L 374.828738 93.319545 
L 374.854672 96.231428 
L 374.869838 99.143312 
L 374.874485 102.055196 
L 374.869402 104.96708 
L 374.855836 107.878963 
L 374.835358 110.790847 
L 374.809703 113.702731 
L 374.780611 116.614615 
L 374.74966 119.526498 
L 374.718145 122.438382 
L 374.686987 125.350266 
L 374.656699 128.26215 
L 374.627396 131.174034 
L 374.598865 134.085917 
L 374.570656 136.997801 
L 374.542204 139.909685 
L 374.512954 142.821569 
L 374.482473 145.733452 
L 374.450545 148.645336 
L 374.417227 151.55722 
L 374.382875 154.469104 
L 374.34813 157.380987 
L 374.31388 160.292871 
L 374.281192 163.204755 
L 374.251239 166.116639 
L 374.225216 169.028523 
L 374.204266 171.940406 
L 374.189414 174.85229 
L 374.181511 177.764174 
L 374.181207 180.676058 
L 374.188926 183.587941 
L 374.204875 186.499825 
L 374.229053 189.411709 
L 374.261279 192.323593 
L 374.301236 195.235476 
L 374.348513 198.14736 
L 374.402648 201.059244 
L 374.463174 203.971128 
L 374.52965 206.883011 
L 374.601675 209.794895 
L 374.678883 212.706779 
L 374.760919 215.618663 
L 374.847381 218.530547 
L 374.93776 221.44243 
L 375.031354 224.354314 
L 375.1272 227.266198 
L 375.224015 230.178082 
L 375.320169 233.089965 
L 375.413703 236.001849 
L 375.502394 238.913733 
L 375.583872 241.825617 
L 375.655781 244.7375 
L 375.715962 247.649384 
L 375.762656 250.561268 
L 375.794679 253.473152 
L 375.811579 256.385036 
L 375.813715 259.296919 
L 375.802286 262.208803 
L 375.779272 265.120687 
L 375.747308 268.032571 
L 375.709512 270.944454 
L 375.669261 273.856338 
L 375.629981 276.768222 
L 375.594945 279.680106 
L 375.567129 282.591989 
L 375.549152 285.503873 
L 375.5433 288.415757 
L 375.551674 291.327641 
L 375.576439 294.239525 
L 375.620184 297.151408 
L 375.686371 300.063292 
L 375.779849 302.975176 
L 375.907394 305.88706 
L 376.078225 308.798943 
L 376.304436 311.710827 
L 376.601276 314.622711 
L 376.987181 317.534595 
L 377.483489 320.446478 
L 378.113747 323.358362 
L 378.902559 326.270246 
L 379.873941 329.18213 
L 381.049209 332.094013 
L 382.444493 335.005897 
L 384.068022 337.917781 
L 385.917424 340.829665 
L 387.977322 343.741549 
L 390.217542 346.653432 
L 392.592269 349.565316 
L 395.040406 352.4772 
L 397.487322 355.389084 
L 399.84804 358.300967 
L 402.031729 361.212851 
L 403.947226 364.124735 
L 405.509137 367.036619 
L 406.643966 369.948502 
L 407.295659 372.860386 
L 407.43 375.77227 
L 407.037377 378.684154 
L 406.133603 381.596038 
z
" clip-path="url(#p1e89f5f6c9)" style="fill: #1f77b4; fill-opacity: 0.3"/>
   </g>
   <g id="FillBetweenPolyCollection_5">
    <path d="M 488.762476 380.035359 
L 426.537524 380.035359 
L 425.234821 378.121126 
L 424.435399 376.206893 
L 424.17 374.292661 
L 424.441439 372.378428 
L 425.224667 370.464196 
L 426.469243 368.549963 
L 428.103905 366.63573 
L 430.042682 364.721498 
L 432.19183 362.807265 
L 434.45685 360.893033 
L 436.748879 358.9788 
L 438.989891 357.064567 
L 441.116363 355.150335 
L 443.081241 353.236102 
L 444.854298 351.32187 
L 446.42109 349.407637 
L 447.780855 347.493404 
L 448.943752 345.579172 
L 449.927805 343.664939 
L 450.755885 341.750707 
L 451.452997 339.836474 
L 452.044024 337.922241 
L 452.552019 336.008009 
L 452.997064 334.093776 
L 453.395643 332.179544 
L 453.760459 330.265311 
L 454.10059 328.351078 
L 454.421881 326.436846 
L 454.727475 324.522613 
L 455.018401 322.608381 
L 455.294151 320.694148 
L 455.553194 318.779915 
L 455.793413 316.865683 
L 456.012452 314.95145 
L 456.207964 313.037218 
L 456.377799 311.122985 
L 456.52013 309.208752 
L 456.633535 307.29452 
L 456.71707 305.380287 
L 456.770326 303.466055 
L 456.793483 301.551822 
L 456.787361 299.637589 
L 456.753469 297.723357 
L 456.694039 295.809124 
L 456.612038 293.894892 
L 456.511147 291.980659 
L 456.395713 290.066426 
L 456.270644 288.152194 
L 456.141273 286.237961 
L 456.013176 284.323729 
L 455.891955 282.409496 
L 455.782998 280.495263 
L 455.691234 278.581031 
L 455.620884 276.666798 
L 455.575248 274.752566 
L 455.556524 272.838333 
L 455.565683 270.9241 
L 455.602415 269.009868 
L 455.665146 267.095635 
L 455.751128 265.181403 
L 455.856611 263.26717 
L 455.977063 261.352937 
L 456.10745 259.438705 
L 456.242535 257.524472 
L 456.37719 255.61024 
L 456.506689 253.696007 
L 456.626972 251.781774 
L 456.734845 249.867542 
L 456.828124 247.953309 
L 456.905699 246.039077 
L 456.967518 244.124844 
L 457.0145 242.210611 
L 457.04838 240.296379 
L 457.0715 238.382146 
L 457.086572 236.467913 
L 457.096418 234.553681 
L 457.103727 232.639448 
L 457.110828 230.725216 
L 457.119522 228.810983 
L 457.130963 226.89675 
L 457.145612 224.982518 
L 457.163252 223.068285 
L 457.18308 221.154053 
L 457.203838 219.23982 
L 457.223991 217.325587 
L 457.241924 215.411355 
L 457.256133 213.497122 
L 457.265408 211.58289 
L 457.268969 209.668657 
L 457.266567 207.754424 
L 457.258523 205.840192 
L 457.245711 203.925959 
L 457.229486 202.011727 
L 457.211567 200.097494 
L 457.193886 198.183261 
L 457.178411 196.269029 
L 457.16698 194.354796 
L 457.161137 192.440564 
L 457.162009 190.526331 
L 458.137991 190.526331 
L 458.137991 190.526331 
L 458.138863 192.440564 
L 458.13302 194.354796 
L 458.121589 196.269029 
L 458.106114 198.183261 
L 458.088433 200.097494 
L 458.070514 202.011727 
L 458.054289 203.925959 
L 458.041477 205.840192 
L 458.033433 207.754424 
L 458.031031 209.668657 
L 458.034592 211.58289 
L 458.043867 213.497122 
L 458.058076 215.411355 
L 458.076009 217.325587 
L 458.096162 219.23982 
L 458.11692 221.154053 
L 458.136748 223.068285 
L 458.154388 224.982518 
L 458.169037 226.89675 
L 458.180478 228.810983 
L 458.189172 230.725216 
L 458.196273 232.639448 
L 458.203582 234.553681 
L 458.213428 236.467913 
L 458.2285 238.382146 
L 458.25162 240.296379 
L 458.2855 242.210611 
L 458.332482 244.124844 
L 458.394301 246.039077 
L 458.471876 247.953309 
L 458.565155 249.867542 
L 458.673028 251.781774 
L 458.793311 253.696007 
L 458.92281 255.61024 
L 459.057465 257.524472 
L 459.19255 259.438705 
L 459.322937 261.352937 
L 459.443389 263.26717 
L 459.548872 265.181403 
L 459.634854 267.095635 
L 459.697585 269.009868 
L 459.734317 270.9241 
L 459.743476 272.838333 
L 459.724752 274.752566 
L 459.679116 276.666798 
L 459.608766 278.581031 
L 459.517002 280.495263 
L 459.408045 282.409496 
L 459.286824 284.323729 
L 459.158727 286.237961 
L 459.029356 288.152194 
L 458.904287 290.066426 
L 458.788853 291.980659 
L 458.687962 293.894892 
L 458.605961 295.809124 
L 458.546531 297.723357 
L 458.512639 299.637589 
L 458.506517 301.551822 
L 458.529674 303.466055 
L 458.58293 305.380287 
L 458.666465 307.29452 
L 458.77987 309.208752 
L 458.922201 311.122985 
L 459.092036 313.037218 
L 459.287548 314.95145 
L 459.506587 316.865683 
L 459.746806 318.779915 
L 460.005849 320.694148 
L 460.281599 322.608381 
L 460.572525 324.522613 
L 460.878119 326.436846 
L 461.19941 328.351078 
L 461.539541 330.265311 
L 461.904357 332.179544 
L 462.302936 334.093776 
L 462.747981 336.008009 
L 463.255976 337.922241 
L 463.847003 339.836474 
L 464.544115 341.750707 
L 465.372195 343.664939 
L 466.356248 345.579172 
L 467.519145 347.493404 
L 468.87891 349.407637 
L 470.445702 351.32187 
L 472.218759 353.236102 
L 474.183637 355.150335 
L 476.310109 357.064567 
L 478.551121 358.9788 
L 480.84315 360.893033 
L 483.10817 362.807265 
L 485.257318 364.721498 
L 487.196095 366.63573 
L 488.830757 368.549963 
L 490.075333 370.464196 
L 490.858561 372.378428 
L 491.13 374.292661 
L 490.864601 376.206893 
L 490.065179 378.121126 
L 488.762476 380.035359 
z
" clip-path="url(#p1e89f5f6c9)" style="fill: #1f77b4; fill-opacity: 0.3"/>
   </g>
   <g id="FillBetweenPolyCollection_6">
    <path d="M 570.98975 383.051673 
L 511.71025 383.051673 
L 510.239646 381.064344 
L 509.08938 379.077015 
L 508.296768 377.089685 
L 507.88665 375.102356 
L 507.87 373.115026 
L 508.243387 371.127697 
L 508.989316 369.140368 
L 510.077422 367.153038 
L 511.466387 365.165709 
L 513.106435 363.178379 
L 514.942176 361.19105 
L 516.915591 359.203721 
L 518.968922 357.216391 
L 521.047294 355.229062 
L 523.100896 353.241732 
L 525.086631 351.254403 
L 526.969194 349.267074 
L 528.721578 347.279744 
L 530.325049 345.292415 
L 531.768695 343.305085 
L 533.048627 341.317756 
L 534.166959 339.330427 
L 535.130653 337.343097 
L 535.950344 335.355768 
L 536.639195 333.368438 
L 537.211864 331.381109 
L 537.683592 329.39378 
L 538.06945 327.40645 
L 538.383746 325.419121 
L 538.63958 323.431791 
L 538.848547 321.444462 
L 539.020564 319.457133 
L 539.163813 317.469803 
L 539.284771 315.482474 
L 539.38833 313.495144 
L 539.477964 311.507815 
L 539.555954 309.520486 
L 539.623631 307.533156 
L 539.681637 305.545827 
L 539.730173 303.558497 
L 539.769238 301.571168 
L 539.798829 299.583839 
L 539.819097 297.596509 
L 539.830464 295.60918 
L 539.833682 293.62185 
L 539.82985 291.634521 
L 539.820385 289.647192 
L 539.806961 287.659862 
L 539.791426 285.672533 
L 539.775706 283.685203 
L 539.761699 281.697874 
L 539.751188 279.710545 
L 539.745749 277.723215 
L 539.746694 275.735886 
L 539.755015 273.748556 
L 539.771356 271.761227 
L 539.796001 269.773898 
L 539.828876 267.786568 
L 539.869562 265.799239 
L 539.917328 263.811909 
L 539.971163 261.82458 
L 540.029827 259.837251 
L 540.091906 257.849921 
L 540.155872 255.862592 
L 540.220157 253.875262 
L 540.283213 251.887933 
L 540.343587 249.900604 
L 540.39998 247.913274 
L 540.451297 245.925945 
L 540.496683 243.938615 
L 540.535542 241.951286 
L 540.567532 239.963957 
L 540.592546 237.976627 
L 540.610665 235.989298 
L 540.622114 234.001968 
L 540.627194 232.014639 
L 540.626226 230.02731 
L 540.619501 228.03998 
L 540.60724 226.052651 
L 540.589583 224.065321 
L 540.566594 222.077992 
L 540.538293 220.090663 
L 540.504711 218.103333 
L 540.465956 216.116004 
L 540.422288 214.128674 
L 540.374192 212.141345 
L 540.322437 210.154016 
L 540.268118 208.166686 
L 540.212658 206.179357 
L 540.157793 204.192027 
L 540.105509 202.204698 
L 540.057954 200.217369 
L 540.017325 198.230039 
L 539.985736 196.24271 
L 539.965087 194.25538 
L 539.956931 192.268051 
L 539.962371 190.280722 
L 539.981976 188.293392 
L 540.015736 186.306063 
L 542.684264 186.306063 
L 542.684264 186.306063 
L 542.718024 188.293392 
L 542.737629 190.280722 
L 542.743069 192.268051 
L 542.734913 194.25538 
L 542.714264 196.24271 
L 542.682675 198.230039 
L 542.642046 200.217369 
L 542.594491 202.204698 
L 542.542207 204.192027 
L 542.487342 206.179357 
L 542.431882 208.166686 
L 542.377563 210.154016 
L 542.325808 212.141345 
L 542.277712 214.128674 
L 542.234044 216.116004 
L 542.195289 218.103333 
L 542.161707 220.090663 
L 542.133406 222.077992 
L 542.110417 224.065321 
L 542.09276 226.052651 
L 542.080499 228.03998 
L 542.073774 230.02731 
L 542.072806 232.014639 
L 542.077886 234.001968 
L 542.089335 235.989298 
L 542.107454 237.976627 
L 542.132468 239.963957 
L 542.164458 241.951286 
L 542.203317 243.938615 
L 542.248703 245.925945 
L 542.30002 247.913274 
L 542.356413 249.900604 
L 542.416787 251.887933 
L 542.479843 253.875262 
L 542.544128 255.862592 
L 542.608094 257.849921 
L 542.670173 259.837251 
L 542.728837 261.82458 
L 542.782672 263.811909 
L 542.830438 265.799239 
L 542.871124 267.786568 
L 542.903999 269.773898 
L 542.928644 271.761227 
L 542.944985 273.748556 
L 542.953306 275.735886 
L 542.954251 277.723215 
L 542.948812 279.710545 
L 542.938301 281.697874 
L 542.924294 283.685203 
L 542.908574 285.672533 
L 542.893039 287.659862 
L 542.879615 289.647192 
L 542.87015 291.634521 
L 542.866318 293.62185 
L 542.869536 295.60918 
L 542.880903 297.596509 
L 542.901171 299.583839 
L 542.930762 301.571168 
L 542.969827 303.558497 
L 543.018363 305.545827 
L 543.076369 307.533156 
L 543.144046 309.520486 
L 543.222036 311.507815 
L 543.31167 313.495144 
L 543.415229 315.482474 
L 543.536187 317.469803 
L 543.679436 319.457133 
L 543.851453 321.444462 
L 544.06042 323.431791 
L 544.316254 325.419121 
L 544.63055 327.40645 
L 545.016408 329.39378 
L 545.488136 331.381109 
L 546.060805 333.368438 
L 546.749656 335.355768 
L 547.569347 337.343097 
L 548.533041 339.330427 
L 549.651373 341.317756 
L 550.931305 343.305085 
L 552.374951 345.292415 
L 553.978422 347.279744 
L 555.730806 349.267074 
L 557.613369 351.254403 
L 559.599104 353.241732 
L 561.652706 355.229062 
L 563.731078 357.216391 
L 565.784409 359.203721 
L 567.757824 361.19105 
L 569.593565 363.178379 
L 571.233613 365.165709 
L 572.622578 367.153038 
L 573.710684 369.140368 
L 574.456613 371.127697 
L 574.83 373.115026 
L 574.81335 375.102356 
L 574.403232 377.089685 
L 573.61062 379.077015 
L 572.460354 381.064344 
L 570.98975 383.051673 
z
" clip-path="url(#p1e89f5f6c9)" style="fill: #1f77b4; fill-opacity: 0.3"/>
   </g>
   <g id="matplotlib.axis_1">
    <g id="xtick_1">
     <g id="line2d_1">
      <defs>
       <path id="m9d8e5e9846" d="M 0 0 
L 0 3.5 
" style="stroke: #000000; stroke-width: 0.8"/>
      </defs>
      <g>
       <use xlink:href="#m9d8e5e9846" x="122.85" y="384.48" style="stroke: #000000; stroke-width: 0.8"/>
      </g>
     </g>
     <g id="text_1">
      <!-- Arrow -->
      <g transform="translate(111.26625 397.55875) scale(0.08 -0.08)">
       <defs>
        <path id="DejaVuSans-41" d="M 2188 4044 
L 1331 1722 
L 3047 1722 
L 2188 4044 
z
M 1831 4666 
L 2547 4666 
L 4325 0 
L 3669 0 
L 3244 1197 
L 1141 1197 
L 716 0 
L 50 0 
L 1831 4666 
z
" transform="scale(0.015625)"/>
        <path id="DejaVuSans-72" d="M 2631 2963 
Q 2534 3019 2420 3045 
Q 2306 3072 2169 3072 
Q 1681 3072 1420 2755 
Q 1159 2438 1159 1844 
L 1159 0 
L 581 0 
L 581 3500 
L 1159 3500 
L 1159 2956 
Q 1341 3275 1631 3429 
Q 1922 3584 2338 3584 
Q 2397 3584 2469 3576 
Q 2541 3569 2628 3553 
L 2631 2963 
z
" transform="scale(0.015625)"/>
        <path id="DejaVuSans-6f" d="M 1959 3097 
Q 1497 3097 1228 2736 
Q 959 2375 959 1747 
Q 959 1119 1226 758 
Q 1494 397 1959 397 
Q 2419 397 2687 759 
Q 2956 1122 2956 1747 
Q 2956 2369 2687 2733 
Q 2419 3097 1959 3097 
z
M 1959 3584 
Q 2709 3584 3137 3096 
Q 3566 2609 3566 1747 
Q 3566 888 3137 398 
Q 2709 -91 1959 -91 
Q 1206 -91 779 398 
Q 353 888 353 1747 
Q 353 2609 779 3096 
Q 1206 3584 1959 3584 
z
" transform="scale(0.015625)"/>
        <path id="DejaVuSans-77" d="M 269 3500 
L 844 3500 
L 1563 769 
L 2278 3500 
L 2956 3500 
L 3675 769 
L 4391 3500 
L 4966 3500 
L 4050 0 
L 3372 0 
L 2619 2869 
L 1863 0 
L 1184 0 
L 269 3500 
z
" transform="scale(0.015625)"/>
       </defs>
       <use xlink:href="#DejaVuSans-41"/>
       <use xlink:href="#DejaVuSans-72" transform="translate(68.408203 0)"/>
       <use xlink:href="#DejaVuSans-72" transform="translate(107.771484 0)"/>
       <use xlink:href="#DejaVuSans-6f" transform="translate(146.634766 0)"/>
       <use xlink:href="#DejaVuSans-77" transform="translate(207.816406 0)"/>
      </g>
     </g>
    </g>
    <g id="xtick_2">
     <g id="line2d_2">
      <g>
       <use xlink:href="#m9d8e5e9846" x="206.55" y="384.48" style="stroke: #000000; stroke-width: 0.8"/>
      </g>
     </g>
     <g id="text_2">
      <!-- Radar -->
      <g transform="translate(194.774375 397.55875) scale(0.08 -0.08)">
       <defs>
        <path id="DejaVuSans-52" d="M 2841 2188 
Q 3044 2119 3236 1894 
Q 3428 1669 3622 1275 
L 4263 0 
L 3584 0 
L 2988 1197 
Q 2756 1666 2539 1819 
Q 2322 1972 1947 1972 
L 1259 1972 
L 1259 0 
L 628 0 
L 628 4666 
L 2053 4666 
Q 2853 4666 3247 4331 
Q 3641 3997 3641 3322 
Q 3641 2881 3436 2590 
Q 3231 2300 2841 2188 
z
M 1259 4147 
L 1259 2491 
L 2053 2491 
Q 2509 2491 2742 2702 
Q 2975 2913 2975 3322 
Q 2975 3731 2742 3939 
Q 2509 4147 2053 4147 
L 1259 4147 
z
" transform="scale(0.015625)"/>
        <path id="DejaVuSans-61" d="M 2194 1759 
Q 1497 1759 1228 1600 
Q 959 1441 959 1056 
Q 959 750 1161 570 
Q 1363 391 1709 391 
Q 2188 391 2477 730 
Q 2766 1069 2766 1631 
L 2766 1759 
L 2194 1759 
z
M 3341 1997 
L 3341 0 
L 2766 0 
L 2766 531 
Q 2569 213 2275 61 
Q 1981 -91 1556 -91 
Q 1019 -91 701 211 
Q 384 513 384 1019 
Q 384 1609 779 1909 
Q 1175 2209 1959 2209 
L 2766 2209 
L 2766 2266 
Q 2766 2663 2505 2880 
Q 2244 3097 1772 3097 
Q 1472 3097 1187 3025 
Q 903 2953 641 2809 
L 641 3341 
Q 956 3463 1253 3523 
Q 1550 3584 1831 3584 
Q 2591 3584 2966 3190 
Q 3341 2797 3341 1997 
z
" transform="scale(0.015625)"/>
        <path id="DejaVuSans-64" d="M 2906 2969 
L 2906 4863 
L 3481 4863 
L 3481 0 
L 2906 0 
L 2906 525 
Q 2725 213 2448 61 
Q 2172 -91 1784 -91 
Q 1150 -91 751 415 
Q 353 922 353 1747 
Q 353 2572 751 3078 
Q 1150 3584 1784 3584 
Q 2172 3584 2448 3432 
Q 2725 3281 2906 2969 
z
M 947 1747 
Q 947 1113 1208 752 
Q 1469 391 1925 391 
Q 2381 391 2643 752 
Q 2906 1113 2906 1747 
Q 2906 2381 2643 2742 
Q 2381 3103 1925 3103 
Q 1469 3103 1208 2742 
Q 947 2381 947 1747 
z
" transform="scale(0.015625)"/>
       </defs>
       <use xlink:href="#DejaVuSans-52"/>
       <use xlink:href="#DejaVuSans-61" transform="translate(67.232422 0)"/>
       <use xlink:href="#DejaVuSans-64" transform="translate(128.511719 0)"/>
       <use xlink:href="#DejaVuSans-61" transform="translate(191.988281 0)"/>
       <use xlink:href="#DejaVuSans-72" transform="translate(253.267578 0)"/>
      </g>
     </g>
    </g>
    <g id="xtick_3">
     <g id="line2d_3">
      <g>
       <use xlink:href="#m9d8e5e9846" x="290.25" y="384.48" style="stroke: #000000; stroke-width: 0.8"/>
      </g>
     </g>
     <g id="text_3">
      <!-- Lights -->
      <g transform="translate(278.18375 397.55875) scale(0.08 -0.08)">
       <defs>
        <path id="DejaVuSans-4c" d="M 628 4666 
L 1259 4666 
L 1259 531 
L 3531 531 
L 3531 0 
L 628 0 
L 628 4666 
z
" transform="scale(0.015625)"/>
        <path id="DejaVuSans-69" d="M 603 3500 
L 1178 3500 
L 1178 0 
L 603 0 
L 603 3500 
z
M 603 4863 
L 1178 4863 
L 1178 4134 
L 603 4134 
L 603 4863 
z
" transform="scale(0.015625)"/>
        <path id="DejaVuSans-67" d="M 2906 1791 
Q 2906 2416 2648 2759 
Q 2391 3103 1925 3103 
Q 1463 3103 1205 2759 
Q 947 2416 947 1791 
Q 947 1169 1205 825 
Q 1463 481 1925 481 
Q 2391 481 2648 825 
Q 2906 1169 2906 1791 
z
M 3481 434 
Q 3481 -459 3084 -895 
Q 2688 -1331 1869 -1331 
Q 1566 -1331 1297 -1286 
Q 1028 -1241 775 -1147 
L 775 -588 
Q 1028 -725 1275 -790 
Q 1522 -856 1778 -856 
Q 2344 -856 2625 -561 
Q 2906 -266 2906 331 
L 2906 616 
Q 2728 306 2450 153 
Q 2172 0 1784 0 
Q 1141 0 747 490 
Q 353 981 353 1791 
Q 353 2603 747 3093 
Q 1141 3584 1784 3584 
Q 2172 3584 2450 3431 
Q 2728 3278 2906 2969 
L 2906 3500 
L 3481 3500 
L 3481 434 
z
" transform="scale(0.015625)"/>
        <path id="DejaVuSans-68" d="M 3513 2113 
L 3513 0 
L 2938 0 
L 2938 2094 
Q 2938 2591 2744 2837 
Q 2550 3084 2163 3084 
Q 1697 3084 1428 2787 
Q 1159 2491 1159 1978 
L 1159 0 
L 581 0 
L 581 4863 
L 1159 4863 
L 1159 2956 
Q 1366 3272 1645 3428 
Q 1925 3584 2291 3584 
Q 2894 3584 3203 3211 
Q 3513 2838 3513 2113 
z
" transform="scale(0.015625)"/>
        <path id="DejaVuSans-74" d="M 1172 4494 
L 1172 3500 
L 2356 3500 
L 2356 3053 
L 1172 3053 
L 1172 1153 
Q 1172 725 1289 603 
Q 1406 481 1766 481 
L 2356 481 
L 2356 0 
L 1766 0 
Q 1100 0 847 248 
Q 594 497 594 1153 
L 594 3053 
L 172 3053 
L 172 3500 
L 594 3500 
L 594 4494 
L 1172 4494 
z
" transform="scale(0.015625)"/>
        <path id="DejaVuSans-73" d="M 2834 3397 
L 2834 2853 
Q 2591 2978 2328 3040 
Q 2066 3103 1784 3103 
Q 1356 3103 1142 2972 
Q 928 2841 928 2578 
Q 928 2378 1081 2264 
Q 1234 2150 1697 2047 
L 1894 2003 
Q 2506 1872 2764 1633 
Q 3022 1394 3022 966 
Q 3022 478 2636 193 
Q 2250 -91 1575 -91 
Q 1294 -91 989 -36 
Q 684 19 347 128 
L 347 722 
Q 666 556 975 473 
Q 1284 391 1588 391 
Q 1994 391 2212 530 
Q 2431 669 2431 922 
Q 2431 1156 2273 1281 
Q 2116 1406 1581 1522 
L 1381 1569 
Q 847 1681 609 1914 
Q 372 2147 372 2553 
Q 372 3047 722 3315 
Q 1072 3584 1716 3584 
Q 2034 3584 2315 3537 
Q 2597 3491 2834 3397 
z
" transform="scale(0.015625)"/>
       </defs>
       <use xlink:href="#DejaVuSans-4c"/>
       <use xlink:href="#DejaVuSans-69" transform="translate(55.712891 0)"/>
       <use xlink:href="#DejaVuSans-67" transform="translate(83.496094 0)"/>
       <use xlink:href="#DejaVuSans-68" transform="translate(146.972656 0)"/>
       <use xlink:href="#DejaVuSans-74" transform="translate(210.351562 0)"/>
       <use xlink:href="#DejaVuSans-73" transform="translate(249.560547 0)"/>
      </g>
     </g>
    </g>
    <g id="xtick_4">
     <g id="line2d_4">
      <g>
       <use xlink:href="#m9d8e5e9846" x="373.95" y="384.48" style="stroke: #000000; stroke-width: 0.8"/>
      </g>
     </g>
     <g id="text_4">
      <!-- Arrow &amp; Radar -->
      <g transform="translate(344.92875 397.55875) scale(0.08 -0.08)">
       <defs>
        <path id="DejaVuSans-20" transform="scale(0.015625)"/>
        <path id="DejaVuSans-26" d="M 1556 2509 
Q 1272 2256 1139 2004 
Q 1006 1753 1006 1478 
Q 1006 1022 1337 719 
Q 1669 416 2169 416 
Q 2466 416 2725 514 
Q 2984 613 3213 813 
L 1556 2509 
z
M 1997 2859 
L 3584 1234 
Q 3769 1513 3872 1830 
Q 3975 2147 3994 2503 
L 4575 2503 
Q 4538 2091 4375 1687 
Q 4213 1284 3922 891 
L 4794 0 
L 4006 0 
L 3559 459 
Q 3234 181 2878 45 
Q 2522 -91 2113 -91 
Q 1359 -91 881 339 
Q 403 769 403 1441 
Q 403 1841 612 2192 
Q 822 2544 1241 2853 
Q 1091 3050 1012 3245 
Q 934 3441 934 3628 
Q 934 4134 1281 4442 
Q 1628 4750 2203 4750 
Q 2463 4750 2720 4694 
Q 2978 4638 3244 4525 
L 3244 3956 
Q 2972 4103 2725 4179 
Q 2478 4256 2266 4256 
Q 1938 4256 1733 4082 
Q 1528 3909 1528 3634 
Q 1528 3475 1620 3314 
Q 1713 3153 1997 2859 
z
" transform="scale(0.015625)"/>
       </defs>
       <use xlink:href="#DejaVuSans-41"/>
       <use xlink:href="#DejaVuSans-72" transform="translate(68.408203 0)"/>
       <use xlink:href="#DejaVuSans-72" transform="translate(107.771484 0)"/>
       <use xlink:href="#DejaVuSans-6f" transform="translate(146.634766 0)"/>
       <use xlink:href="#DejaVuSans-77" transform="translate(207.816406 0)"/>
       <use xlink:href="#DejaVuSans-20" transform="translate(289.603516 0)"/>
       <use xlink:href="#DejaVuSans-26" transform="translate(321.390625 0)"/>
       <use xlink:href="#DejaVuSans-20" transform="translate(399.369141 0)"/>
       <use xlink:href="#DejaVuSans-52" transform="translate(431.15625 0)"/>
       <use xlink:href="#DejaVuSans-61" transform="translate(498.388672 0)"/>
       <use xlink:href="#DejaVuSans-64" transform="translate(559.667969 0)"/>
       <use xlink:href="#DejaVuSans-61" transform="translate(623.144531 0)"/>
       <use xlink:href="#DejaVuSans-72" transform="translate(684.423828 0)"/>
      </g>
     </g>
    </g>
    <g id="xtick_5">
     <g id="line2d_5">
      <g>
       <use xlink:href="#m9d8e5e9846" x="457.65" y="384.48" style="stroke: #000000; stroke-width: 0.8"/>
      </g>
     </g>
     <g id="text_5">
      <!-- Arrow &amp; Lights -->
      <g transform="translate(428.338125 397.55875) scale(0.08 -0.08)">
       <use xlink:href="#DejaVuSans-41"/>
       <use xlink:href="#DejaVuSans-72" transform="translate(68.408203 0)"/>
       <use xlink:href="#DejaVuSans-72" transform="translate(107.771484 0)"/>
       <use xlink:href="#DejaVuSans-6f" transform="translate(146.634766 0)"/>
       <use xlink:href="#DejaVuSans-77" transform="translate(207.816406 0)"/>
       <use xlink:href="#DejaVuSans-20" transform="translate(289.603516 0)"/>
       <use xlink:href="#DejaVuSans-26" transform="translate(321.390625 0)"/>
       <use xlink:href="#DejaVuSans-20" transform="translate(399.369141 0)"/>
       <use xlink:href="#DejaVuSans-4c" transform="translate(431.15625 0)"/>
       <use xlink:href="#DejaVuSans-69" transform="translate(486.869141 0)"/>
       <use xlink:href="#DejaVuSans-67" transform="translate(514.652344 0)"/>
       <use xlink:href="#DejaVuSans-68" transform="translate(578.128906 0)"/>
       <use xlink:href="#DejaVuSans-74" transform="translate(641.507812 0)"/>
       <use xlink:href="#DejaVuSans-73" transform="translate(680.716797 0)"/>
      </g>
     </g>
    </g>
    <g id="xtick_6">
     <g id="line2d_6">
      <g>
       <use xlink:href="#m9d8e5e9846" x="541.35" y="384.48" style="stroke: #000000; stroke-width: 0.8"/>
      </g>
     </g>
     <g id="text_6">
      <!-- Lights &amp; Radar -->
      <g transform="translate(511.84625 397.55875) scale(0.08 -0.08)">
       <use xlink:href="#DejaVuSans-4c"/>
       <use xlink:href="#DejaVuSans-69" transform="translate(55.712891 0)"/>
       <use xlink:href="#DejaVuSans-67" transform="translate(83.496094 0)"/>
       <use xlink:href="#DejaVuSans-68" transform="translate(146.972656 0)"/>
       <use xlink:href="#DejaVuSans-74" transform="translate(210.351562 0)"/>
       <use xlink:href="#DejaVuSans-73" transform="translate(249.560547 0)"/>
       <use xlink:href="#DejaVuSans-20" transform="translate(301.660156 0)"/>
       <use xlink:href="#DejaVuSans-26" transform="translate(333.447266 0)"/>
       <use xlink:href="#DejaVuSans-20" transform="translate(411.425781 0)"/>
       <use xlink:href="#DejaVuSans-52" transform="translate(443.212891 0)"/>
       <use xlink:href="#DejaVuSans-61" transform="translate(510.445312 0)"/>
       <use xlink:href="#DejaVuSans-64" transform="translate(571.724609 0)"/>
       <use xlink:href="#DejaVuSans-61" transform="translate(635.201172 0)"/>
       <use xlink:href="#DejaVuSans-72" transform="translate(696.480469 0)"/>
      </g>
     </g>
    </g>
    <g id="text_7">
     <!-- Visualization -->
     <g transform="translate(300.521875 416.820938) scale(0.1 -0.1)">
      <defs>
       <path id="DejaVuSans-56" d="M 1831 0 
L 50 4666 
L 709 4666 
L 2188 738 
L 3669 4666 
L 4325 4666 
L 2547 0 
L 1831 0 
z
" transform="scale(0.015625)"/>
       <path id="DejaVuSans-75" d="M 544 1381 
L 544 3500 
L 1119 3500 
L 1119 1403 
Q 1119 906 1312 657 
Q 1506 409 1894 409 
Q 2359 409 2629 706 
Q 2900 1003 2900 1516 
L 2900 3500 
L 3475 3500 
L 3475 0 
L 2900 0 
L 2900 538 
Q 2691 219 2414 64 
Q 2138 -91 1772 -91 
Q 1169 -91 856 284 
Q 544 659 544 1381 
z
M 1991 3584 
L 1991 3584 
z
" transform="scale(0.015625)"/>
       <path id="DejaVuSans-6c" d="M 603 4863 
L 1178 4863 
L 1178 0 
L 603 0 
L 603 4863 
z
" transform="scale(0.015625)"/>
       <path id="DejaVuSans-7a" d="M 353 3500 
L 3084 3500 
L 3084 2975 
L 922 459 
L 3084 459 
L 3084 0 
L 275 0 
L 275 525 
L 2438 3041 
L 353 3041 
L 353 3500 
z
" transform="scale(0.015625)"/>
       <path id="DejaVuSans-6e" d="M 3513 2113 
L 3513 0 
L 2938 0 
L 2938 2094 
Q 2938 2591 2744 2837 
Q 2550 3084 2163 3084 
Q 1697 3084 1428 2787 
Q 1159 2491 1159 1978 
L 1159 0 
L 581 0 
L 581 3500 
L 1159 3500 
L 1159 2956 
Q 1366 3272 1645 3428 
Q 1925 3584 2291 3584 
Q 2894 3584 3203 3211 
Q 3513 2838 3513 2113 
z
" transform="scale(0.015625)"/>
      </defs>
      <use xlink:href="#DejaVuSans-56"/>
      <use xlink:href="#DejaVuSans-69" transform="translate(66.158203 0)"/>
      <use xlink:href="#DejaVuSans-73" transform="translate(93.941406 0)"/>
      <use xlink:href="#DejaVuSans-75" transform="translate(146.041016 0)"/>
      <use xlink:href="#DejaVuSans-61" transform="translate(209.419922 0)"/>
      <use xlink:href="#DejaVuSans-6c" transform="translate(270.699219 0)"/>
      <use xlink:href="#DejaVuSans-69" transform="translate(298.482422 0)"/>
      <use xlink:href="#DejaVuSans-7a" transform="translate(326.265625 0)"/>
      <use xlink:href="#DejaVuSans-61" transform="translate(378.755859 0)"/>
      <use xlink:href="#DejaVuSans-74" transform="translate(440.035156 0)"/>
      <use xlink:href="#DejaVuSans-69" transform="translate(479.244141 0)"/>
      <use xlink:href="#DejaVuSans-6f" transform="translate(507.027344 0)"/>
      <use xlink:href="#DejaVuSans-6e" transform="translate(568.208984 0)"/>
     </g>
    </g>
   </g>
   <g id="matplotlib.axis_2">
    <g id="ytick_1">
     <g id="line2d_7">
      <defs>
       <path id="mc3bbd326d2" d="M 0 0 
L -3.5 0 
" style="stroke: #000000; stroke-width: 0.8"/>
      </defs>
      <g>
       <use xlink:href="#mc3bbd326d2" x="81" y="384.48" style="stroke: #000000; stroke-width: 0.8"/>
      </g>
     </g>
     <g id="text_8">
      <!-- 0 -->
      <g transform="translate(67.6375 388.279219) scale(0.1 -0.1)">
       <defs>
        <path id="DejaVuSans-30" d="M 2034 4250 
Q 1547 4250 1301 3770 
Q 1056 3291 1056 2328 
Q 1056 1369 1301 889 
Q 1547 409 2034 409 
Q 2525 409 2770 889 
Q 3016 1369 3016 2328 
Q 3016 3291 2770 3770 
Q 2525 4250 2034 4250 
z
M 2034 4750 
Q 2819 4750 3233 4129 
Q 3647 3509 3647 2328 
Q 3647 1150 3233 529 
Q 2819 -91 2034 -91 
Q 1250 -91 836 529 
Q 422 1150 422 2328 
Q 422 3509 836 4129 
Q 1250 4750 2034 4750 
z
" transform="scale(0.015625)"/>
       </defs>
       <use xlink:href="#DejaVuSans-30"/>
      </g>
     </g>
    </g>
    <g id="ytick_2">
     <g id="line2d_8">
      <g>
       <use xlink:href="#mc3bbd326d2" x="81" y="327.504782" style="stroke: #000000; stroke-width: 0.8"/>
      </g>
     </g>
     <g id="text_9">
      <!-- 5 -->
      <g transform="translate(67.6375 331.304001) scale(0.1 -0.1)">
       <defs>
        <path id="DejaVuSans-35" d="M 691 4666 
L 3169 4666 
L 3169 4134 
L 1269 4134 
L 1269 2991 
Q 1406 3038 1543 3061 
Q 1681 3084 1819 3084 
Q 2600 3084 3056 2656 
Q 3513 2228 3513 1497 
Q 3513 744 3044 326 
Q 2575 -91 1722 -91 
Q 1428 -91 1123 -41 
Q 819 9 494 109 
L 494 744 
Q 775 591 1075 516 
Q 1375 441 1709 441 
Q 2250 441 2565 725 
Q 2881 1009 2881 1497 
Q 2881 1984 2565 2268 
Q 2250 2553 1709 2553 
Q 1456 2553 1204 2497 
Q 953 2441 691 2322 
L 691 4666 
z
" transform="scale(0.015625)"/>
       </defs>
       <use xlink:href="#DejaVuSans-35"/>
      </g>
     </g>
    </g>
    <g id="ytick_3">
     <g id="line2d_9">
      <g>
       <use xlink:href="#mc3bbd326d2" x="81" y="270.529564" style="stroke: #000000; stroke-width: 0.8"/>
      </g>
     </g>
     <g id="text_10">
      <!-- 10 -->
      <g transform="translate(61.275 274.328783) scale(0.1 -0.1)">
       <defs>
        <path id="DejaVuSans-31" d="M 794 531 
L 1825 531 
L 1825 4091 
L 703 3866 
L 703 4441 
L 1819 4666 
L 2450 4666 
L 2450 531 
L 3481 531 
L 3481 0 
L 794 0 
L 794 531 
z
" transform="scale(0.015625)"/>
       </defs>
       <use xlink:href="#DejaVuSans-31"/>
       <use xlink:href="#DejaVuSans-30" transform="translate(63.623047 0)"/>
      </g>
     </g>
    </g>
    <g id="ytick_4">
     <g id="line2d_10">
      <g>
       <use xlink:href="#mc3bbd326d2" x="81" y="213.554347" style="stroke: #000000; stroke-width: 0.8"/>
      </g>
     </g>
     <g id="text_11">
      <!-- 15 -->
      <g transform="translate(61.275 217.353565) scale(0.1 -0.1)">
       <use xlink:href="#DejaVuSans-31"/>
       <use xlink:href="#DejaVuSans-35" transform="translate(63.623047 0)"/>
      </g>
     </g>
    </g>
    <g id="ytick_5">
     <g id="line2d_11">
      <g>
       <use xlink:href="#mc3bbd326d2" x="81" y="156.579129" style="stroke: #000000; stroke-width: 0.8"/>
      </g>
     </g>
     <g id="text_12">
      <!-- 20 -->
      <g transform="translate(61.275 160.378348) scale(0.1 -0.1)">
       <defs>
        <path id="DejaVuSans-32" d="M 1228 531 
L 3431 531 
L 3431 0 
L 469 0 
L 469 531 
Q 828 903 1448 1529 
Q 2069 2156 2228 2338 
Q 2531 2678 2651 2914 
Q 2772 3150 2772 3378 
Q 2772 3750 2511 3984 
Q 2250 4219 1831 4219 
Q 1534 4219 1204 4116 
Q 875 4013 500 3803 
L 500 4441 
Q 881 4594 1212 4672 
Q 1544 4750 1819 4750 
Q 2544 4750 2975 4387 
Q 3406 4025 3406 3419 
Q 3406 3131 3298 2873 
Q 3191 2616 2906 2266 
Q 2828 2175 2409 1742 
Q 1991 1309 1228 531 
z
" transform="scale(0.015625)"/>
       </defs>
       <use xlink:href="#DejaVuSans-32"/>
       <use xlink:href="#DejaVuSans-30" transform="translate(63.623047 0)"/>
      </g>
     </g>
    </g>
    <g id="ytick_6">
     <g id="line2d_12">
      <g>
       <use xlink:href="#mc3bbd326d2" x="81" y="99.603911" style="stroke: #000000; stroke-width: 0.8"/>
      </g>
     </g>
     <g id="text_13">
      <!-- 25 -->
      <g transform="translate(61.275 103.40313) scale(0.1 -0.1)">
       <use xlink:href="#DejaVuSans-32"/>
       <use xlink:href="#DejaVuSans-35" transform="translate(63.623047 0)"/>
      </g>
     </g>
    </g>
    <g id="text_14">
     <!-- Distance -->
     <g transform="translate(49.195312 240.0225) rotate(-90) scale(0.1 -0.1)">
      <defs>
       <path id="DejaVuSans-44" d="M 1259 4147 
L 1259 519 
L 2022 519 
Q 2988 519 3436 956 
Q 3884 1394 3884 2338 
Q 3884 3275 3436 3711 
Q 2988 4147 2022 4147 
L 1259 4147 
z
M 628 4666 
L 1925 4666 
Q 3281 4666 3915 4102 
Q 4550 3538 4550 2338 
Q 4550 1131 3912 565 
Q 3275 0 1925 0 
L 628 0 
L 628 4666 
z
" transform="scale(0.015625)"/>
       <path id="DejaVuSans-63" d="M 3122 3366 
L 3122 2828 
Q 2878 2963 2633 3030 
Q 2388 3097 2138 3097 
Q 1578 3097 1268 2742 
Q 959 2388 959 1747 
Q 959 1106 1268 751 
Q 1578 397 2138 397 
Q 2388 397 2633 464 
Q 2878 531 3122 666 
L 3122 134 
Q 2881 22 2623 -34 
Q 2366 -91 2075 -91 
Q 1284 -91 818 406 
Q 353 903 353 1747 
Q 353 2603 823 3093 
Q 1294 3584 2113 3584 
Q 2378 3584 2631 3529 
Q 2884 3475 3122 3366 
z
" transform="scale(0.015625)"/>
       <path id="DejaVuSans-65" d="M 3597 1894 
L 3597 1613 
L 953 1613 
Q 991 1019 1311 708 
Q 1631 397 2203 397 
Q 2534 397 2845 478 
Q 3156 559 3463 722 
L 3463 178 
Q 3153 47 2828 -22 
Q 2503 -91 2169 -91 
Q 1331 -91 842 396 
Q 353 884 353 1716 
Q 353 2575 817 3079 
Q 1281 3584 2069 3584 
Q 2775 3584 3186 3129 
Q 3597 2675 3597 1894 
z
M 3022 2063 
Q 3016 2534 2758 2815 
Q 2500 3097 2075 3097 
Q 1594 3097 1305 2825 
Q 1016 2553 972 2059 
L 3022 2063 
z
" transform="scale(0.015625)"/>
      </defs>
      <use xlink:href="#DejaVuSans-44"/>
      <use xlink:href="#DejaVuSans-69" transform="translate(77.001953 0)"/>
      <use xlink:href="#DejaVuSans-73" transform="translate(104.785156 0)"/>
      <use xlink:href="#DejaVuSans-74" transform="translate(156.884766 0)"/>
      <use xlink:href="#DejaVuSans-61" transform="translate(196.09375 0)"/>
      <use xlink:href="#DejaVuSans-6e" transform="translate(257.373047 0)"/>
      <use xlink:href="#DejaVuSans-63" transform="translate(320.751953 0)"/>
      <use xlink:href="#DejaVuSans-65" transform="translate(375.732422 0)"/>
     </g>
    </g>
   </g>
   <g id="LineCollection_1">
    <path d="M 106.11 252.911688 
L 139.59 252.911688 
" clip-path="url(#p1e89f5f6c9)" style="fill: none; stroke: #1f77b4; stroke-width: 1.5"/>
    <path d="M 189.81 98.580978 
L 223.29 98.580978 
" clip-path="url(#p1e89f5f6c9)" style="fill: none; stroke: #1f77b4; stroke-width: 1.5"/>
    <path d="M 273.51 67.611984 
L 306.99 67.611984 
" clip-path="url(#p1e89f5f6c9)" style="fill: none; stroke: #1f77b4; stroke-width: 1.5"/>
    <path d="M 357.21 93.319545 
L 390.69 93.319545 
" clip-path="url(#p1e89f5f6c9)" style="fill: none; stroke: #1f77b4; stroke-width: 1.5"/>
    <path d="M 440.91 190.526331 
L 474.39 190.526331 
" clip-path="url(#p1e89f5f6c9)" style="fill: none; stroke: #1f77b4; stroke-width: 1.5"/>
    <path d="M 524.61 186.306063 
L 558.09 186.306063 
" clip-path="url(#p1e89f5f6c9)" style="fill: none; stroke: #1f77b4; stroke-width: 1.5"/>
   </g>
   <g id="LineCollection_2">
    <path d="M 106.11 378.254214 
L 139.59 378.254214 
" clip-path="url(#p1e89f5f6c9)" style="fill: none; stroke: #1f77b4; stroke-width: 1.5"/>
    <path d="M 189.81 382.441717 
L 223.29 382.441717 
" clip-path="url(#p1e89f5f6c9)" style="fill: none; stroke: #1f77b4; stroke-width: 1.5"/>
    <path d="M 273.51 377.80648 
L 306.99 377.80648 
" clip-path="url(#p1e89f5f6c9)" style="fill: none; stroke: #1f77b4; stroke-width: 1.5"/>
    <path d="M 357.21 381.596038 
L 390.69 381.596038 
" clip-path="url(#p1e89f5f6c9)" style="fill: none; stroke: #1f77b4; stroke-width: 1.5"/>
    <path d="M 440.91 380.035359 
L 474.39 380.035359 
" clip-path="url(#p1e89f5f6c9)" style="fill: none; stroke: #1f77b4; stroke-width: 1.5"/>
    <path d="M 524.61 383.051673 
L 558.09 383.051673 
" clip-path="url(#p1e89f5f6c9)" style="fill: none; stroke: #1f77b4; stroke-width: 1.5"/>
   </g>
   <g id="LineCollection_3">
    <path d="M 122.85 378.254214 
L 122.85 252.911688 
" clip-path="url(#p1e89f5f6c9)" style="fill: none; stroke: #1f77b4; stroke-width: 1.5"/>
    <path d="M 206.55 382.441717 
L 206.55 98.580978 
" clip-path="url(#p1e89f5f6c9)" style="fill: none; stroke: #1f77b4; stroke-width: 1.5"/>
    <path d="M 290.25 377.80648 
L 290.25 67.611984 
" clip-path="url(#p1e89f5f6c9)" style="fill: none; stroke: #1f77b4; stroke-width: 1.5"/>
    <path d="M 373.95 381.596038 
L 373.95 93.319545 
" clip-path="url(#p1e89f5f6c9)" style="fill: none; stroke: #1f77b4; stroke-width: 1.5"/>
    <path d="M 457.65 380.035359 
L 457.65 190.526331 
" clip-path="url(#p1e89f5f6c9)" style="fill: none; stroke: #1f77b4; stroke-width: 1.5"/>
    <path d="M 541.35 383.051673 
L 541.35 186.306063 
" clip-path="url(#p1e89f5f6c9)" style="fill: none; stroke: #1f77b4; stroke-width: 1.5"/>
   </g>
   <g id="patch_3">
    <path d="M 110.295 376.907384 
L 135.405 376.907384 
L 135.405 370.568489 
L 110.295 370.568489 
L 110.295 376.907384 
z
" clip-path="url(#p1e89f5f6c9)" style="fill: #add8e6; stroke: #000000; stroke-linejoin: miter"/>
   </g>
   <g id="line2d_13">
    <path d="M 122.85 376.907384 
L 122.85 378.254214 
" clip-path="url(#p1e89f5f6c9)" style="fill: none; stroke: #000000; stroke-linecap: square"/>
   </g>
   <g id="line2d_14">
    <path d="M 122.85 370.568489 
L 122.85 361.423508 
" clip-path="url(#p1e89f5f6c9)" style="fill: none; stroke: #000000; stroke-linecap: square"/>
   </g>
   <g id="line2d_15">
    <path d="M 116.5725 378.254214 
L 129.1275 378.254214 
" clip-path="url(#p1e89f5f6c9)" style="fill: none; stroke: #000000; stroke-linecap: square"/>
   </g>
   <g id="line2d_16">
    <path d="M 116.5725 361.423508 
L 129.1275 361.423508 
" clip-path="url(#p1e89f5f6c9)" style="fill: none; stroke: #000000; stroke-linecap: square"/>
   </g>
   <g id="line2d_17">
    <defs>
     <path id="m4d52bcbca3" d="M 0 2 
C 0.530406 2 1.03916 1.789267 1.414214 1.414214 
C 1.789267 1.03916 2 0.530406 2 0 
C 2 -0.530406 1.789267 -1.03916 1.414214 -1.414214 
C 1.03916 -1.789267 0.530406 -2 0 -2 
C -0.530406 -2 -1.03916 -1.789267 -1.414214 -1.414214 
C -1.789267 -1.03916 -2 -0.530406 -2 0 
C -2 0.530406 -1.789267 1.03916 -1.414214 1.414214 
C -1.03916 1.789267 -0.530406 2 0 2 
z
" style="stroke: #000000"/>
    </defs>
    <g clip-path="url(#p1e89f5f6c9)">
     <use xlink:href="#m4d52bcbca3" x="122.85" y="350.366624" style="fill-opacity: 0; stroke: #000000"/>
     <use xlink:href="#m4d52bcbca3" x="122.85" y="348.780411" style="fill-opacity: 0; stroke: #000000"/>
     <use xlink:href="#m4d52bcbca3" x="122.85" y="356.533678" style="fill-opacity: 0; stroke: #000000"/>
     <use xlink:href="#m4d52bcbca3" x="122.85" y="318.864787" style="fill-opacity: 0; stroke: #000000"/>
     <use xlink:href="#m4d52bcbca3" x="122.85" y="339.842014" style="fill-opacity: 0; stroke: #000000"/>
     <use xlink:href="#m4d52bcbca3" x="122.85" y="252.911688" style="fill-opacity: 0; stroke: #000000"/>
     <use xlink:href="#m4d52bcbca3" x="122.85" y="334.942658" style="fill-opacity: 0; stroke: #000000"/>
     <use xlink:href="#m4d52bcbca3" x="122.85" y="358.242354" style="fill-opacity: 0; stroke: #000000"/>
     <use xlink:href="#m4d52bcbca3" x="122.85" y="258.408201" style="fill-opacity: 0; stroke: #000000"/>
     <use xlink:href="#m4d52bcbca3" x="122.85" y="346.845886" style="fill-opacity: 0; stroke: #000000"/>
     <use xlink:href="#m4d52bcbca3" x="122.85" y="331.565178" style="fill-opacity: 0; stroke: #000000"/>
     <use xlink:href="#m4d52bcbca3" x="122.85" y="330.028021" style="fill-opacity: 0; stroke: #000000"/>
    </g>
   </g>
   <g id="patch_4">
    <path d="M 193.995 376.551368 
L 219.105 376.551368 
L 219.105 372.585711 
L 193.995 372.585711 
L 193.995 376.551368 
z
" clip-path="url(#p1e89f5f6c9)" style="fill: #add8e6; stroke: #000000; stroke-linejoin: miter"/>
   </g>
   <g id="line2d_18">
    <path d="M 206.55 376.551368 
L 206.55 382.441717 
" clip-path="url(#p1e89f5f6c9)" style="fill: none; stroke: #000000; stroke-linecap: square"/>
   </g>
   <g id="line2d_19">
    <path d="M 206.55 372.585711 
L 206.55 368.928455 
" clip-path="url(#p1e89f5f6c9)" style="fill: none; stroke: #000000; stroke-linecap: square"/>
   </g>
   <g id="line2d_20">
    <path d="M 200.2725 382.441717 
L 212.8275 382.441717 
" clip-path="url(#p1e89f5f6c9)" style="fill: none; stroke: #000000; stroke-linecap: square"/>
   </g>
   <g id="line2d_21">
    <path d="M 200.2725 368.928455 
L 212.8275 368.928455 
" clip-path="url(#p1e89f5f6c9)" style="fill: none; stroke: #000000; stroke-linecap: square"/>
   </g>
   <g id="line2d_22">
    <g clip-path="url(#p1e89f5f6c9)">
     <use xlink:href="#m4d52bcbca3" x="206.55" y="363.422575" style="fill-opacity: 0; stroke: #000000"/>
     <use xlink:href="#m4d52bcbca3" x="206.55" y="366.291767" style="fill-opacity: 0; stroke: #000000"/>
     <use xlink:href="#m4d52bcbca3" x="206.55" y="351.49912" style="fill-opacity: 0; stroke: #000000"/>
     <use xlink:href="#m4d52bcbca3" x="206.55" y="312.861866" style="fill-opacity: 0; stroke: #000000"/>
     <use xlink:href="#m4d52bcbca3" x="206.55" y="363.415225" style="fill-opacity: 0; stroke: #000000"/>
     <use xlink:href="#m4d52bcbca3" x="206.55" y="338.412095" style="fill-opacity: 0; stroke: #000000"/>
     <use xlink:href="#m4d52bcbca3" x="206.55" y="357.769539" style="fill-opacity: 0; stroke: #000000"/>
     <use xlink:href="#m4d52bcbca3" x="206.55" y="318.86571" style="fill-opacity: 0; stroke: #000000"/>
     <use xlink:href="#m4d52bcbca3" x="206.55" y="202.539556" style="fill-opacity: 0; stroke: #000000"/>
     <use xlink:href="#m4d52bcbca3" x="206.55" y="317.393892" style="fill-opacity: 0; stroke: #000000"/>
     <use xlink:href="#m4d52bcbca3" x="206.55" y="331.176687" style="fill-opacity: 0; stroke: #000000"/>
     <use xlink:href="#m4d52bcbca3" x="206.55" y="331.083407" style="fill-opacity: 0; stroke: #000000"/>
     <use xlink:href="#m4d52bcbca3" x="206.55" y="98.580978" style="fill-opacity: 0; stroke: #000000"/>
     <use xlink:href="#m4d52bcbca3" x="206.55" y="332.70564" style="fill-opacity: 0; stroke: #000000"/>
     <use xlink:href="#m4d52bcbca3" x="206.55" y="322.136383" style="fill-opacity: 0; stroke: #000000"/>
    </g>
   </g>
   <g id="patch_5">
    <path d="M 277.695 371.550825 
L 302.805 371.550825 
L 302.805 340.532342 
L 277.695 340.532342 
L 277.695 371.550825 
z
" clip-path="url(#p1e89f5f6c9)" style="fill: #add8e6; stroke: #000000; stroke-linejoin: miter"/>
   </g>
   <g id="line2d_23">
    <path d="M 290.25 371.550825 
L 290.25 377.80648 
" clip-path="url(#p1e89f5f6c9)" style="fill: none; stroke: #000000; stroke-linecap: square"/>
   </g>
   <g id="line2d_24">
    <path d="M 290.25 340.532342 
L 290.25 311.464937 
" clip-path="url(#p1e89f5f6c9)" style="fill: none; stroke: #000000; stroke-linecap: square"/>
   </g>
   <g id="line2d_25">
    <path d="M 283.9725 377.80648 
L 296.5275 377.80648 
" clip-path="url(#p1e89f5f6c9)" style="fill: none; stroke: #000000; stroke-linecap: square"/>
   </g>
   <g id="line2d_26">
    <path d="M 283.9725 311.464937 
L 296.5275 311.464937 
" clip-path="url(#p1e89f5f6c9)" style="fill: none; stroke: #000000; stroke-linecap: square"/>
   </g>
   <g id="line2d_27">
    <g clip-path="url(#p1e89f5f6c9)">
     <use xlink:href="#m4d52bcbca3" x="290.25" y="258.918129" style="fill-opacity: 0; stroke: #000000"/>
     <use xlink:href="#m4d52bcbca3" x="290.25" y="281.12152" style="fill-opacity: 0; stroke: #000000"/>
     <use xlink:href="#m4d52bcbca3" x="290.25" y="140.416285" style="fill-opacity: 0; stroke: #000000"/>
     <use xlink:href="#m4d52bcbca3" x="290.25" y="103.650405" style="fill-opacity: 0; stroke: #000000"/>
     <use xlink:href="#m4d52bcbca3" x="290.25" y="218.35975" style="fill-opacity: 0; stroke: #000000"/>
     <use xlink:href="#m4d52bcbca3" x="290.25" y="128.076934" style="fill-opacity: 0; stroke: #000000"/>
     <use xlink:href="#m4d52bcbca3" x="290.25" y="243.897638" style="fill-opacity: 0; stroke: #000000"/>
     <use xlink:href="#m4d52bcbca3" x="290.25" y="281.074207" style="fill-opacity: 0; stroke: #000000"/>
     <use xlink:href="#m4d52bcbca3" x="290.25" y="67.611984" style="fill-opacity: 0; stroke: #000000"/>
    </g>
   </g>
   <g id="patch_6">
    <path d="M 361.395 377.680573 
L 386.505 377.680573 
L 386.505 372.191668 
L 361.395 372.191668 
L 361.395 377.680573 
z
" clip-path="url(#p1e89f5f6c9)" style="fill: #add8e6; stroke: #000000; stroke-linejoin: miter"/>
   </g>
   <g id="line2d_28">
    <path d="M 373.95 377.680573 
L 373.95 381.596038 
" clip-path="url(#p1e89f5f6c9)" style="fill: none; stroke: #000000; stroke-linecap: square"/>
   </g>
   <g id="line2d_29">
    <path d="M 373.95 372.191668 
L 373.95 364.594099 
" clip-path="url(#p1e89f5f6c9)" style="fill: none; stroke: #000000; stroke-linecap: square"/>
   </g>
   <g id="line2d_30">
    <path d="M 367.6725 381.596038 
L 380.2275 381.596038 
" clip-path="url(#p1e89f5f6c9)" style="fill: none; stroke: #000000; stroke-linecap: square"/>
   </g>
   <g id="line2d_31">
    <path d="M 367.6725 364.594099 
L 380.2275 364.594099 
" clip-path="url(#p1e89f5f6c9)" style="fill: none; stroke: #000000; stroke-linecap: square"/>
   </g>
   <g id="line2d_32">
    <g clip-path="url(#p1e89f5f6c9)">
     <use xlink:href="#m4d52bcbca3" x="373.95" y="363.490341" style="fill-opacity: 0; stroke: #000000"/>
     <use xlink:href="#m4d52bcbca3" x="373.95" y="358.035785" style="fill-opacity: 0; stroke: #000000"/>
     <use xlink:href="#m4d52bcbca3" x="373.95" y="361.130564" style="fill-opacity: 0; stroke: #000000"/>
     <use xlink:href="#m4d52bcbca3" x="373.95" y="330.718823" style="fill-opacity: 0; stroke: #000000"/>
     <use xlink:href="#m4d52bcbca3" x="373.95" y="326.097369" style="fill-opacity: 0; stroke: #000000"/>
     <use xlink:href="#m4d52bcbca3" x="373.95" y="217.94782" style="fill-opacity: 0; stroke: #000000"/>
     <use xlink:href="#m4d52bcbca3" x="373.95" y="298.452526" style="fill-opacity: 0; stroke: #000000"/>
     <use xlink:href="#m4d52bcbca3" x="373.95" y="253.663874" style="fill-opacity: 0; stroke: #000000"/>
     <use xlink:href="#m4d52bcbca3" x="373.95" y="257.939409" style="fill-opacity: 0; stroke: #000000"/>
     <use xlink:href="#m4d52bcbca3" x="373.95" y="268.483015" style="fill-opacity: 0; stroke: #000000"/>
     <use xlink:href="#m4d52bcbca3" x="373.95" y="143.041019" style="fill-opacity: 0; stroke: #000000"/>
     <use xlink:href="#m4d52bcbca3" x="373.95" y="308.390189" style="fill-opacity: 0; stroke: #000000"/>
     <use xlink:href="#m4d52bcbca3" x="373.95" y="93.319545" style="fill-opacity: 0; stroke: #000000"/>
     <use xlink:href="#m4d52bcbca3" x="373.95" y="247.066486" style="fill-opacity: 0; stroke: #000000"/>
     <use xlink:href="#m4d52bcbca3" x="373.95" y="102.11196" style="fill-opacity: 0; stroke: #000000"/>
    </g>
   </g>
   <g id="patch_7">
    <path d="M 445.095 376.569722 
L 470.205 376.569722 
L 470.205 367.092682 
L 445.095 367.092682 
L 445.095 376.569722 
z
" clip-path="url(#p1e89f5f6c9)" style="fill: #add8e6; stroke: #000000; stroke-linejoin: miter"/>
   </g>
   <g id="line2d_33">
    <path d="M 457.65 376.569722 
L 457.65 380.035359 
" clip-path="url(#p1e89f5f6c9)" style="fill: none; stroke: #000000; stroke-linecap: square"/>
   </g>
   <g id="line2d_34">
    <path d="M 457.65 367.092682 
L 457.65 353.815915 
" clip-path="url(#p1e89f5f6c9)" style="fill: none; stroke: #000000; stroke-linecap: square"/>
   </g>
   <g id="line2d_35">
    <path d="M 451.3725 380.035359 
L 463.9275 380.035359 
" clip-path="url(#p1e89f5f6c9)" style="fill: none; stroke: #000000; stroke-linecap: square"/>
   </g>
   <g id="line2d_36">
    <path d="M 451.3725 353.815915 
L 463.9275 353.815915 
" clip-path="url(#p1e89f5f6c9)" style="fill: none; stroke: #000000; stroke-linecap: square"/>
   </g>
   <g id="line2d_37">
    <g clip-path="url(#p1e89f5f6c9)">
     <use xlink:href="#m4d52bcbca3" x="457.65" y="336.987134" style="fill-opacity: 0; stroke: #000000"/>
     <use xlink:href="#m4d52bcbca3" x="457.65" y="352.730093" style="fill-opacity: 0; stroke: #000000"/>
     <use xlink:href="#m4d52bcbca3" x="457.65" y="332.567475" style="fill-opacity: 0; stroke: #000000"/>
     <use xlink:href="#m4d52bcbca3" x="457.65" y="327.458929" style="fill-opacity: 0; stroke: #000000"/>
     <use xlink:href="#m4d52bcbca3" x="457.65" y="339.796741" style="fill-opacity: 0; stroke: #000000"/>
     <use xlink:href="#m4d52bcbca3" x="457.65" y="339.809481" style="fill-opacity: 0; stroke: #000000"/>
     <use xlink:href="#m4d52bcbca3" x="457.65" y="228.619506" style="fill-opacity: 0; stroke: #000000"/>
     <use xlink:href="#m4d52bcbca3" x="457.65" y="284.16803" style="fill-opacity: 0; stroke: #000000"/>
     <use xlink:href="#m4d52bcbca3" x="457.65" y="275.81454" style="fill-opacity: 0; stroke: #000000"/>
     <use xlink:href="#m4d52bcbca3" x="457.65" y="262.682026" style="fill-opacity: 0; stroke: #000000"/>
     <use xlink:href="#m4d52bcbca3" x="457.65" y="266.985706" style="fill-opacity: 0; stroke: #000000"/>
     <use xlink:href="#m4d52bcbca3" x="457.65" y="273.884436" style="fill-opacity: 0; stroke: #000000"/>
     <use xlink:href="#m4d52bcbca3" x="457.65" y="317.809264" style="fill-opacity: 0; stroke: #000000"/>
     <use xlink:href="#m4d52bcbca3" x="457.65" y="190.526331" style="fill-opacity: 0; stroke: #000000"/>
     <use xlink:href="#m4d52bcbca3" x="457.65" y="336.48598" style="fill-opacity: 0; stroke: #000000"/>
     <use xlink:href="#m4d52bcbca3" x="457.65" y="346.493471" style="fill-opacity: 0; stroke: #000000"/>
    </g>
   </g>
   <g id="patch_8">
    <path d="M 528.795 377.258759 
L 553.905 377.258759 
L 553.905 367.68454 
L 528.795 367.68454 
L 528.795 377.258759 
z
" clip-path="url(#p1e89f5f6c9)" style="fill: #add8e6; stroke: #000000; stroke-linejoin: miter"/>
   </g>
   <g id="line2d_38">
    <path d="M 541.35 377.258759 
L 541.35 383.051673 
" clip-path="url(#p1e89f5f6c9)" style="fill: none; stroke: #000000; stroke-linecap: square"/>
   </g>
   <g id="line2d_39">
    <path d="M 541.35 367.68454 
L 541.35 356.82268 
" clip-path="url(#p1e89f5f6c9)" style="fill: none; stroke: #000000; stroke-linecap: square"/>
   </g>
   <g id="line2d_40">
    <path d="M 535.0725 383.051673 
L 547.6275 383.051673 
" clip-path="url(#p1e89f5f6c9)" style="fill: none; stroke: #000000; stroke-linecap: square"/>
   </g>
   <g id="line2d_41">
    <path d="M 535.0725 356.82268 
L 547.6275 356.82268 
" clip-path="url(#p1e89f5f6c9)" style="fill: none; stroke: #000000; stroke-linecap: square"/>
   </g>
   <g id="line2d_42">
    <g clip-path="url(#p1e89f5f6c9)">
     <use xlink:href="#m4d52bcbca3" x="541.35" y="353.055159" style="fill-opacity: 0; stroke: #000000"/>
     <use xlink:href="#m4d52bcbca3" x="541.35" y="345.781714" style="fill-opacity: 0; stroke: #000000"/>
     <use xlink:href="#m4d52bcbca3" x="541.35" y="320.849108" style="fill-opacity: 0; stroke: #000000"/>
     <use xlink:href="#m4d52bcbca3" x="541.35" y="337.285205" style="fill-opacity: 0; stroke: #000000"/>
     <use xlink:href="#m4d52bcbca3" x="541.35" y="188.05543" style="fill-opacity: 0; stroke: #000000"/>
     <use xlink:href="#m4d52bcbca3" x="541.35" y="258.596219" style="fill-opacity: 0; stroke: #000000"/>
     <use xlink:href="#m4d52bcbca3" x="541.35" y="318.730952" style="fill-opacity: 0; stroke: #000000"/>
     <use xlink:href="#m4d52bcbca3" x="541.35" y="225.586829" style="fill-opacity: 0; stroke: #000000"/>
     <use xlink:href="#m4d52bcbca3" x="541.35" y="266.638727" style="fill-opacity: 0; stroke: #000000"/>
     <use xlink:href="#m4d52bcbca3" x="541.35" y="186.306063" style="fill-opacity: 0; stroke: #000000"/>
     <use xlink:href="#m4d52bcbca3" x="541.35" y="283.914433" style="fill-opacity: 0; stroke: #000000"/>
     <use xlink:href="#m4d52bcbca3" x="541.35" y="312.545084" style="fill-opacity: 0; stroke: #000000"/>
     <use xlink:href="#m4d52bcbca3" x="541.35" y="282.225038" style="fill-opacity: 0; stroke: #000000"/>
     <use xlink:href="#m4d52bcbca3" x="541.35" y="196.482064" style="fill-opacity: 0; stroke: #000000"/>
    </g>
   </g>
   <g id="line2d_43">
    <path d="M 110.295 375.559506 
L 135.405 375.559506 
" clip-path="url(#p1e89f5f6c9)" style="fill: none; stroke: #000000"/>
   </g>
   <g id="line2d_44">
    <path d="M 193.995 375.479689 
L 219.105 375.479689 
" clip-path="url(#p1e89f5f6c9)" style="fill: none; stroke: #000000"/>
   </g>
   <g id="line2d_45">
    <path d="M 277.695 363.362284 
L 302.805 363.362284 
" clip-path="url(#p1e89f5f6c9)" style="fill: none; stroke: #000000"/>
   </g>
   <g id="line2d_46">
    <path d="M 361.395 375.653264 
L 386.505 375.653264 
" clip-path="url(#p1e89f5f6c9)" style="fill: none; stroke: #000000"/>
   </g>
   <g id="line2d_47">
    <path d="M 445.095 374.566782 
L 470.205 374.566782 
" clip-path="url(#p1e89f5f6c9)" style="fill: none; stroke: #000000"/>
   </g>
   <g id="line2d_48">
    <path d="M 528.795 374.364228 
L 553.905 374.364228 
" clip-path="url(#p1e89f5f6c9)" style="fill: none; stroke: #000000"/>
   </g>
   <g id="patch_9">
    <path d="M 81 384.48 
L 81 51.84 
" style="fill: none; stroke: #000000; stroke-width: 0.8; stroke-linejoin: miter; stroke-linecap: square"/>
   </g>
   <g id="patch_10">
    <path d="M 583.2 384.48 
L 583.2 51.84 
" style="fill: none; stroke: #000000; stroke-width: 0.8; stroke-linejoin: miter; stroke-linecap: square"/>
   </g>
   <g id="patch_11">
    <path d="M 81 384.48 
L 583.2 384.48 
" style="fill: none; stroke: #000000; stroke-width: 0.8; stroke-linejoin: miter; stroke-linecap: square"/>
   </g>
   <g id="patch_12">
    <path d="M 81 51.84 
L 583.2 51.84 
" style="fill: none; stroke: #000000; stroke-width: 0.8; stroke-linejoin: miter; stroke-linecap: square"/>
   </g>
   <g id="text_15">
    <!-- Distance Distribution by Visualization -->
    <g transform="translate(219.887813 31.84) scale(0.12 -0.12)">
     <defs>
      <path id="DejaVuSans-62" d="M 3116 1747 
Q 3116 2381 2855 2742 
Q 2594 3103 2138 3103 
Q 1681 3103 1420 2742 
Q 1159 2381 1159 1747 
Q 1159 1113 1420 752 
Q 1681 391 2138 391 
Q 2594 391 2855 752 
Q 3116 1113 3116 1747 
z
M 1159 2969 
Q 1341 3281 1617 3432 
Q 1894 3584 2278 3584 
Q 2916 3584 3314 3078 
Q 3713 2572 3713 1747 
Q 3713 922 3314 415 
Q 2916 -91 2278 -91 
Q 1894 -91 1617 61 
Q 1341 213 1159 525 
L 1159 0 
L 581 0 
L 581 4863 
L 1159 4863 
L 1159 2969 
z
" transform="scale(0.015625)"/>
      <path id="DejaVuSans-79" d="M 2059 -325 
Q 1816 -950 1584 -1140 
Q 1353 -1331 966 -1331 
L 506 -1331 
L 506 -850 
L 844 -850 
Q 1081 -850 1212 -737 
Q 1344 -625 1503 -206 
L 1606 56 
L 191 3500 
L 800 3500 
L 1894 763 
L 2988 3500 
L 3597 3500 
L 2059 -325 
z
" transform="scale(0.015625)"/>
     </defs>
     <use xlink:href="#DejaVuSans-44"/>
     <use xlink:href="#DejaVuSans-69" transform="translate(77.001953 0)"/>
     <use xlink:href="#DejaVuSans-73" transform="translate(104.785156 0)"/>
     <use xlink:href="#DejaVuSans-74" transform="translate(156.884766 0)"/>
     <use xlink:href="#DejaVuSans-61" transform="translate(196.09375 0)"/>
     <use xlink:href="#DejaVuSans-6e" transform="translate(257.373047 0)"/>
     <use xlink:href="#DejaVuSans-63" transform="translate(320.751953 0)"/>
     <use xlink:href="#DejaVuSans-65" transform="translate(375.732422 0)"/>
     <use xlink:href="#DejaVuSans-20" transform="translate(437.255859 0)"/>
     <use xlink:href="#DejaVuSans-44" transform="translate(469.042969 0)"/>
     <use xlink:href="#DejaVuSans-69" transform="translate(546.044922 0)"/>
     <use xlink:href="#DejaVuSans-73" transform="translate(573.828125 0)"/>
     <use xlink:href="#DejaVuSans-74" transform="translate(625.927734 0)"/>
     <use xlink:href="#DejaVuSans-72" transform="translate(665.136719 0)"/>
     <use xlink:href="#DejaVuSans-69" transform="translate(706.25 0)"/>
     <use xlink:href="#DejaVuSans-62" transform="translate(734.033203 0)"/>
     <use xlink:href="#DejaVuSans-75" transform="translate(797.509766 0)"/>
     <use xlink:href="#DejaVuSans-74" transform="translate(860.888672 0)"/>
     <use xlink:href="#DejaVuSans-69" transform="translate(900.097656 0)"/>
     <use xlink:href="#DejaVuSans-6f" transform="translate(927.880859 0)"/>
     <use xlink:href="#DejaVuSans-6e" transform="translate(989.0625 0)"/>
     <use xlink:href="#DejaVuSans-20" transform="translate(1052.441406 0)"/>
     <use xlink:href="#DejaVuSans-62" transform="translate(1084.228516 0)"/>
     <use xlink:href="#DejaVuSans-79" transform="translate(1147.705078 0)"/>
     <use xlink:href="#DejaVuSans-20" transform="translate(1206.884766 0)"/>
     <use xlink:href="#DejaVuSans-56" transform="translate(1238.671875 0)"/>
     <use xlink:href="#DejaVuSans-69" transform="translate(1304.830078 0)"/>
     <use xlink:href="#DejaVuSans-73" transform="translate(1332.613281 0)"/>
     <use xlink:href="#DejaVuSans-75" transform="translate(1384.712891 0)"/>
     <use xlink:href="#DejaVuSans-61" transform="translate(1448.091797 0)"/>
     <use xlink:href="#DejaVuSans-6c" transform="translate(1509.371094 0)"/>
     <use xlink:href="#DejaVuSans-69" transform="translate(1537.154297 0)"/>
     <use xlink:href="#DejaVuSans-7a" transform="translate(1564.9375 0)"/>
     <use xlink:href="#DejaVuSans-61" transform="translate(1617.427734 0)"/>
     <use xlink:href="#DejaVuSans-74" transform="translate(1678.707031 0)"/>
     <use xlink:href="#DejaVuSans-69" transform="translate(1717.916016 0)"/>
     <use xlink:href="#DejaVuSans-6f" transform="translate(1745.699219 0)"/>
     <use xlink:href="#DejaVuSans-6e" transform="translate(1806.880859 0)"/>
    </g>
   </g>
  </g>
 </g>
 <defs>
  <clipPath id="p1e89f5f6c9">
   <rect x="81" y="51.84" width="502.2" height="332.64"/>
  </clipPath>
 </defs>
</svg>
