<?xml version="1.0" encoding="utf-8" standalone="no"?>
<!DOCTYPE svg PUBLIC "-//W3C//DTD SVG 1.1//EN"
  "http://www.w3.org/Graphics/SVG/1.1/DTD/svg11.dtd">
<svg xmlns:xlink="http://www.w3.org/1999/xlink" width="648pt" height="432pt" viewBox="0 0 648 432" xmlns="http://www.w3.org/2000/svg" version="1.1">
 <metadata>
  <rdf:RDF xmlns:dc="http://purl.org/dc/elements/1.1/" xmlns:cc="http://creativecommons.org/ns#" xmlns:rdf="http://www.w3.org/1999/02/22-rdf-syntax-ns#">
   <cc:Work>
    <dc:type rdf:resource="http://purl.org/dc/dcmitype/StillImage"/>
    <dc:date>2026-03-16T12:17:36.966391</dc:date>
    <dc:format>image/svg+xml</dc:format>
    <dc:creator>
     <cc:Agent>
      <dc:title>Matplotlib v3.10.6, https://matplotlib.org/</dc:title>
     </cc:Agent>
    </dc:creator>
   </cc:Work>
  </rdf:RDF>
 </metadata>
 <defs>
  <style type="text/css">*{stroke-linejoin: round; stroke-linecap: butt}</style>
 </defs>
 <g id="figure_1">
  <g id="patch_1">
   <path d="M 0 432 
L 648 432 
L 648 0 
L 0 0 
z
" style="fill: #ffffff"/>
  </g>
  <g id="axes_1">
   <g id="patch_2">
    <path d="M 81 384.48 
L 583.2 384.48 
L 583.2 51.84 
L 81 51.84 
z
" style="fill: #ffffff"/>
   </g>
   <g id="FillBetweenPolyCollection_1">
    <path d="M 150.698912 354.512432 
L 95.001088 354.512432 
L 94.383879 351.909189 
L 93.794367 349.305946 
L 93.234633 346.702703 
L 92.706656 344.099459 
L 92.212294 341.496216 
L 91.753275 338.892973 
L 91.331185 336.28973 
L 90.947455 333.686486 
L 90.603353 331.083243 
L 90.299976 328.48 
L 90.038242 325.876757 
L 89.818884 323.273514 
L 89.642446 320.67027 
L 89.509278 318.067027 
L 89.419539 315.463784 
L 89.37319 312.860541 
L 89.37 310.257297 
L 89.409547 307.654054 
L 89.491221 305.050811 
L 89.614231 302.447568 
L 89.77761 299.844324 
L 89.980223 297.241081 
L 90.220775 294.637838 
L 90.497823 292.034595 
L 90.809783 289.431351 
L 91.154942 286.828108 
L 91.531474 284.224865 
L 91.937444 281.621622 
L 92.370832 279.018378 
L 92.829534 276.415135 
L 93.311385 273.811892 
L 93.814167 271.208649 
L 94.335622 268.605405 
L 94.873467 266.002162 
L 95.425408 263.398919 
L 95.989147 260.795676 
L 96.5624 258.192432 
L 97.142903 255.589189 
L 97.728427 252.985946 
L 98.316786 250.382703 
L 98.905847 247.779459 
L 99.493537 245.176216 
L 100.077857 242.572973 
L 100.656881 239.96973 
L 101.228769 237.366486 
L 101.791772 234.763243 
L 102.344236 232.16 
L 102.884606 229.556757 
L 103.411433 226.953514 
L 103.923376 224.35027 
L 104.419203 221.747027 
L 104.897798 219.143784 
L 105.358157 216.540541 
L 105.799394 213.937297 
L 106.220743 211.334054 
L 106.621552 208.730811 
L 107.00129 206.127568 
L 107.359543 203.524324 
L 107.696016 200.921081 
L 108.010531 198.317838 
L 108.303022 195.714595 
L 108.573542 193.111351 
L 108.822253 190.508108 
L 109.049426 187.904865 
L 109.255443 185.301622 
L 109.440787 182.698378 
L 109.606042 180.095135 
L 109.75189 177.491892 
L 109.879105 174.888649 
L 109.988551 172.285405 
L 110.081172 169.682162 
L 110.157993 167.078919 
L 110.220107 164.475676 
L 110.268676 161.872432 
L 110.304917 159.269189 
L 110.3301 156.665946 
L 110.345539 154.062703 
L 110.352583 151.459459 
L 110.352608 148.856216 
L 110.34701 146.252973 
L 110.337192 143.64973 
L 110.324562 141.046486 
L 110.310518 138.443243 
L 110.296439 135.84 
L 110.283681 133.236757 
L 110.273564 130.633514 
L 110.267362 128.03027 
L 110.2663 125.427027 
L 110.271539 122.823784 
L 110.284175 120.220541 
L 110.305227 117.617297 
L 110.335632 115.014054 
L 110.376241 112.410811 
L 110.42781 109.807568 
L 110.491 107.204324 
L 110.566369 104.601081 
L 110.654372 101.997838 
L 110.755361 99.394595 
L 110.869578 96.791351 
L 134.830422 96.791351 
L 134.830422 96.791351 
L 134.944639 99.394595 
L 135.045628 101.997838 
L 135.133631 104.601081 
L 135.209 107.204324 
L 135.27219 109.807568 
L 135.323759 112.410811 
L 135.364368 115.014054 
L 135.394773 117.617297 
L 135.415825 120.220541 
L 135.428461 122.823784 
L 135.4337 125.427027 
L 135.432638 128.03027 
L 135.426436 130.633514 
L 135.416319 133.236757 
L 135.403561 135.84 
L 135.389482 138.443243 
L 135.375438 141.046486 
L 135.362808 143.64973 
L 135.35299 146.252973 
L 135.347392 148.856216 
L 135.347417 151.459459 
L 135.354461 154.062703 
L 135.3699 156.665946 
L 135.395083 159.269189 
L 135.431324 161.872432 
L 135.479893 164.475676 
L 135.542007 167.078919 
L 135.618828 169.682162 
L 135.711449 172.285405 
L 135.820895 174.888649 
L 135.94811 177.491892 
L 136.093958 180.095135 
L 136.259213 182.698378 
L 136.444557 185.301622 
L 136.650574 187.904865 
L 136.877747 190.508108 
L 137.126458 193.111351 
L 137.396978 195.714595 
L 137.689469 198.317838 
L 138.003984 200.921081 
L 138.340457 203.524324 
L 138.69871 206.127568 
L 139.078448 208.730811 
L 139.479257 211.334054 
L 139.900606 213.937297 
L 140.341843 216.540541 
L 140.802202 219.143784 
L 141.280797 221.747027 
L 141.776624 224.35027 
L 142.288567 226.953514 
L 142.815394 229.556757 
L 143.355764 232.16 
L 143.908228 234.763243 
L 144.471231 237.366486 
L 145.043119 239.96973 
L 145.622143 242.572973 
L 146.206463 245.176216 
L 146.794153 247.779459 
L 147.383214 250.382703 
L 147.971573 252.985946 
L 148.557097 255.589189 
L 149.1376 258.192432 
L 149.710853 260.795676 
L 150.274592 263.398919 
L 150.826533 266.002162 
L 151.364378 268.605405 
L 151.885833 271.208649 
L 152.388615 273.811892 
L 152.870466 276.415135 
L 153.329168 279.018378 
L 153.762556 281.621622 
L 154.168526 284.224865 
L 154.545058 286.828108 
L 154.890217 289.431351 
L 155.202177 292.034595 
L 155.479225 294.637838 
L 155.719777 297.241081 
L 155.92239 299.844324 
L 156.085769 302.447568 
L 156.208779 305.050811 
L 156.290453 307.654054 
L 156.33 310.257297 
L 156.32681 312.860541 
L 156.280461 315.463784 
L 156.190722 318.067027 
L 156.057554 320.67027 
L 155.881116 323.273514 
L 155.661758 325.876757 
L 155.400024 328.48 
L 155.096647 331.083243 
L 154.752545 333.686486 
L 154.368815 336.28973 
L 153.946725 338.892973 
L 153.487706 341.496216 
L 152.993344 344.099459 
L 152.465367 346.702703 
L 151.905633 349.305946 
L 151.316121 351.909189 
L 150.698912 354.512432 
z
" clip-path="url(#pb8a18c886c)" style="fill: #1f77b4; fill-opacity: 0.3"/>
   </g>
   <g id="FillBetweenPolyCollection_2">
    <path d="M 235.795508 366.499459 
L 177.304492 366.499459 
L 176.783157 363.896216 
L 176.290407 361.292973 
L 175.827875 358.68973 
L 175.3971 356.086486 
L 174.999511 353.483243 
L 174.636422 350.88 
L 174.309021 348.276757 
L 174.018362 345.673514 
L 173.765361 343.07027 
L 173.550782 340.467027 
L 173.375238 337.863784 
L 173.239181 335.260541 
L 173.142901 332.657297 
L 173.086523 330.054054 
L 173.07 327.450811 
L 173.093117 324.847568 
L 173.155489 322.244324 
L 173.25656 319.641081 
L 173.395608 317.037838 
L 173.571745 314.434595 
L 173.783922 311.831351 
L 174.030935 309.228108 
L 174.311428 306.624865 
L 174.623903 304.021622 
L 174.966725 301.418378 
L 175.338133 298.815135 
L 175.736246 296.211892 
L 176.159078 293.608649 
L 176.604544 291.005405 
L 177.070471 288.402162 
L 177.554617 285.798919 
L 178.054673 283.195676 
L 178.568285 280.592432 
L 179.093061 277.989189 
L 179.626585 275.385946 
L 180.166434 272.782703 
L 180.710187 270.179459 
L 181.25544 267.576216 
L 181.799819 264.972973 
L 182.340993 262.36973 
L 182.876688 259.766486 
L 183.404696 257.163243 
L 183.92289 254.56 
L 184.429233 251.956757 
L 184.92179 249.353514 
L 185.398739 246.75027 
L 185.858376 244.147027 
L 186.29913 241.543784 
L 186.719565 238.940541 
L 187.118391 236.337297 
L 187.494466 233.734054 
L 187.846807 231.130811 
L 188.174586 228.527568 
L 188.47714 225.924324 
L 188.753972 223.321081 
L 189.004747 220.717838 
L 189.229299 218.114595 
L 189.427627 215.511351 
L 189.599892 212.908108 
L 189.746415 210.304865 
L 189.867675 207.701622 
L 189.964302 205.098378 
L 190.037072 202.495135 
L 190.0869 199.891892 
L 190.114837 197.288649 
L 190.122053 194.685405 
L 190.109838 192.082162 
L 190.079586 189.478919 
L 190.032787 186.875676 
L 189.971018 184.272432 
L 189.895929 181.669189 
L 189.809234 179.065946 
L 189.712699 176.462703 
L 189.608129 173.859459 
L 189.497357 171.256216 
L 189.382233 168.652973 
L 189.264608 166.04973 
L 189.146326 163.446486 
L 189.029211 160.843243 
L 188.915056 158.24 
L 188.805609 155.636757 
L 188.702568 153.033514 
L 188.607563 150.43027 
L 188.522156 147.827027 
L 188.447821 145.223784 
L 188.385946 142.620541 
L 188.337818 140.017297 
L 188.30462 137.414054 
L 188.287424 134.810811 
L 188.287186 132.207568 
L 188.304741 129.604324 
L 188.340802 127.001081 
L 188.395954 124.397838 
L 188.470657 121.794595 
L 188.565241 119.191351 
L 188.679911 116.588108 
L 188.814744 113.984865 
L 188.969695 111.381622 
L 189.144597 108.778378 
L 223.955403 108.778378 
L 223.955403 108.778378 
L 224.130305 111.381622 
L 224.285256 113.984865 
L 224.420089 116.588108 
L 224.534759 119.191351 
L 224.629343 121.794595 
L 224.704046 124.397838 
L 224.759198 127.001081 
L 224.795259 129.604324 
L 224.812814 132.207568 
L 224.812576 134.810811 
L 224.79538 137.414054 
L 224.762182 140.017297 
L 224.714054 142.620541 
L 224.652179 145.223784 
L 224.577844 147.827027 
L 224.492437 150.43027 
L 224.397432 153.033514 
L 224.294391 155.636757 
L 224.184944 158.24 
L 224.070789 160.843243 
L 223.953674 163.446486 
L 223.835392 166.04973 
L 223.717767 168.652973 
L 223.602643 171.256216 
L 223.491871 173.859459 
L 223.387301 176.462703 
L 223.290766 179.065946 
L 223.204071 181.669189 
L 223.128982 184.272432 
L 223.067213 186.875676 
L 223.020414 189.478919 
L 222.990162 192.082162 
L 222.977947 194.685405 
L 222.985163 197.288649 
L 223.0131 199.891892 
L 223.062928 202.495135 
L 223.135698 205.098378 
L 223.232325 207.701622 
L 223.353585 210.304865 
L 223.500108 212.908108 
L 223.672373 215.511351 
L 223.870701 218.114595 
L 224.095253 220.717838 
L 224.346028 223.321081 
L 224.62286 225.924324 
L 224.925414 228.527568 
L 225.253193 231.130811 
L 225.605534 233.734054 
L 225.981609 236.337297 
L 226.380435 238.940541 
L 226.80087 241.543784 
L 227.241624 244.147027 
L 227.701261 246.75027 
L 228.17821 249.353514 
L 228.670767 251.956757 
L 229.17711 254.56 
L 229.695304 257.163243 
L 230.223312 259.766486 
L 230.759007 262.36973 
L 231.300181 264.972973 
L 231.84456 267.576216 
L 232.389813 270.179459 
L 232.933566 272.782703 
L 233.473415 275.385946 
L 234.006939 277.989189 
L 234.531715 280.592432 
L 235.045327 283.195676 
L 235.545383 285.798919 
L 236.029529 288.402162 
L 236.495456 291.005405 
L 236.940922 293.608649 
L 237.363754 296.211892 
L 237.761867 298.815135 
L 238.133275 301.418378 
L 238.476097 304.021622 
L 238.788572 306.624865 
L 239.069065 309.228108 
L 239.316078 311.831351 
L 239.528255 314.434595 
L 239.704392 317.037838 
L 239.84344 319.641081 
L 239.944511 322.244324 
L 240.006883 324.847568 
L 240.03 327.450811 
L 240.013477 330.054054 
L 239.957099 332.657297 
L 239.860819 335.260541 
L 239.724762 337.863784 
L 239.549218 340.467027 
L 239.334639 343.07027 
L 239.081638 345.673514 
L 238.790979 348.276757 
L 238.463578 350.88 
L 238.100489 353.483243 
L 237.7029 356.086486 
L 237.272125 358.68973 
L 236.809593 361.292973 
L 236.316843 363.896216 
L 235.795508 366.499459 
z
" clip-path="url(#pb8a18c886c)" style="fill: #1f77b4; fill-opacity: 0.3"/>
   </g>
   <g id="FillBetweenPolyCollection_3">
    <path d="M 303.614688 366.499459 
L 276.885312 366.499459 
L 276.255197 363.472432 
L 275.609515 360.445405 
L 274.948677 357.418378 
L 274.273221 354.391351 
L 273.583828 351.364324 
L 272.881341 348.337297 
L 272.166775 345.31027 
L 271.441332 342.283243 
L 270.706414 339.256216 
L 269.963629 336.229189 
L 269.214797 333.202162 
L 268.461952 330.175135 
L 267.707344 327.148108 
L 266.953431 324.121081 
L 266.202871 321.094054 
L 265.458512 318.067027 
L 264.723372 315.04 
L 264.000619 312.012973 
L 263.293549 308.985946 
L 262.605555 305.958919 
L 261.940096 302.931892 
L 261.300665 299.904865 
L 260.69075 296.877838 
L 260.113798 293.850811 
L 259.573174 290.823784 
L 259.072121 287.796757 
L 258.613723 284.76973 
L 258.200861 281.742703 
L 257.836181 278.715676 
L 257.522057 275.688649 
L 257.260555 272.661622 
L 257.053412 269.634595 
L 256.902005 266.607568 
L 256.807332 263.580541 
L 256.77 260.553514 
L 256.790211 257.526486 
L 256.867759 254.499459 
L 257.002032 251.472432 
L 257.192014 248.445405 
L 257.436302 245.418378 
L 257.733118 242.391351 
L 258.080332 239.364324 
L 258.475491 236.337297 
L 258.915842 233.31027 
L 259.39837 230.283243 
L 259.919832 227.256216 
L 260.476795 224.229189 
L 261.065675 221.202162 
L 261.682777 218.175135 
L 262.324334 215.148108 
L 262.986549 212.121081 
L 263.665628 209.094054 
L 264.357823 206.067027 
L 265.059459 203.04 
L 265.766971 200.012973 
L 266.476931 196.985946 
L 267.186071 193.958919 
L 267.891307 190.931892 
L 268.589754 187.904865 
L 269.278745 184.877838 
L 269.955839 181.850811 
L 270.618829 178.823784 
L 271.265745 175.796757 
L 271.894859 172.76973 
L 272.504682 169.742703 
L 273.093958 166.715676 
L 273.661663 163.688649 
L 274.206995 160.661622 
L 274.729366 157.634595 
L 275.228391 154.607568 
L 275.703882 151.580541 
L 276.15583 148.553514 
L 276.584403 145.526486 
L 276.989925 142.499459 
L 277.372871 139.472432 
L 277.733855 136.445405 
L 278.073615 133.418378 
L 278.393008 130.391351 
L 278.692993 127.364324 
L 278.974625 124.337297 
L 279.23904 121.31027 
L 279.487448 118.283243 
L 279.721119 115.256216 
L 279.941372 112.229189 
L 280.149567 109.202162 
L 280.347087 106.175135 
L 280.535331 103.148108 
L 280.7157 100.121081 
L 280.889583 97.094054 
L 281.058347 94.067027 
L 281.223323 91.04 
L 281.38579 88.012973 
L 281.546968 84.985946 
L 281.708005 81.958919 
L 281.869962 78.931892 
L 282.033806 75.904865 
L 282.2004 72.877838 
L 282.370494 69.850811 
L 282.544721 66.823784 
L 297.955279 66.823784 
L 297.955279 66.823784 
L 298.129506 69.850811 
L 298.2996 72.877838 
L 298.466194 75.904865 
L 298.630038 78.931892 
L 298.791995 81.958919 
L 298.953032 84.985946 
L 299.11421 88.012973 
L 299.276677 91.04 
L 299.441653 94.067027 
L 299.610417 97.094054 
L 299.7843 100.121081 
L 299.964669 103.148108 
L 300.152913 106.175135 
L 300.350433 109.202162 
L 300.558628 112.229189 
L 300.778881 115.256216 
L 301.012552 118.283243 
L 301.26096 121.31027 
L 301.525375 124.337297 
L 301.807007 127.364324 
L 302.106992 130.391351 
L 302.426385 133.418378 
L 302.766145 136.445405 
L 303.127129 139.472432 
L 303.510075 142.499459 
L 303.915597 145.526486 
L 304.34417 148.553514 
L 304.796118 151.580541 
L 305.271609 154.607568 
L 305.770634 157.634595 
L 306.293005 160.661622 
L 306.838337 163.688649 
L 307.406042 166.715676 
L 307.995318 169.742703 
L 308.605141 172.76973 
L 309.234255 175.796757 
L 309.881171 178.823784 
L 310.544161 181.850811 
L 311.221255 184.877838 
L 311.910246 187.904865 
L 312.608693 190.931892 
L 313.313929 193.958919 
L 314.023069 196.985946 
L 314.733029 200.012973 
L 315.440541 203.04 
L 316.142177 206.067027 
L 316.834372 209.094054 
L 317.513451 212.121081 
L 318.175666 215.148108 
L 318.817223 218.175135 
L 319.434325 221.202162 
L 320.023205 224.229189 
L 320.580168 227.256216 
L 321.10163 230.283243 
L 321.584158 233.31027 
L 322.024509 236.337297 
L 322.419668 239.364324 
L 322.766882 242.391351 
L 323.063698 245.418378 
L 323.307986 248.445405 
L 323.497968 251.472432 
L 323.632241 254.499459 
L 323.709789 257.526486 
L 323.73 260.553514 
L 323.692668 263.580541 
L 323.597995 266.607568 
L 323.446588 269.634595 
L 323.239445 272.661622 
L 322.977943 275.688649 
L 322.663819 278.715676 
L 322.299139 281.742703 
L 321.886277 284.76973 
L 321.427879 287.796757 
L 320.926826 290.823784 
L 320.386202 293.850811 
L 319.80925 296.877838 
L 319.199335 299.904865 
L 318.559904 302.931892 
L 317.894445 305.958919 
L 317.206451 308.985946 
L 316.499381 312.012973 
L 315.776628 315.04 
L 315.041488 318.067027 
L 314.297129 321.094054 
L 313.546569 324.121081 
L 312.792656 327.148108 
L 312.038048 330.175135 
L 311.285203 333.202162 
L 310.536371 336.229189 
L 309.793586 339.256216 
L 309.058668 342.283243 
L 308.333225 345.31027 
L 307.618659 348.337297 
L 306.916172 351.364324 
L 306.226779 354.391351 
L 305.551323 357.418378 
L 304.890485 360.445405 
L 304.244803 363.472432 
L 303.614688 366.499459 
z
" clip-path="url(#pb8a18c886c)" style="fill: #1f77b4; fill-opacity: 0.3"/>
   </g>
   <g id="FillBetweenPolyCollection_4">
    <path d="M 403.631011 348.518919 
L 344.268989 348.518919 
L 343.748931 345.673514 
L 343.263134 342.828108 
L 342.813091 339.982703 
L 342.40013 337.137297 
L 342.025404 334.291892 
L 341.689884 331.446486 
L 341.394353 328.601081 
L 341.139399 325.755676 
L 340.925417 322.91027 
L 340.752601 320.064865 
L 340.620949 317.219459 
L 340.53026 314.374054 
L 340.480138 311.528649 
L 340.47 308.683243 
L 340.499074 305.837838 
L 340.566413 302.992432 
L 340.670897 300.147027 
L 340.811249 297.301622 
L 340.986038 294.456216 
L 341.193696 291.610811 
L 341.432527 288.765405 
L 341.700721 285.92 
L 341.996369 283.074595 
L 342.317474 280.229189 
L 342.661969 277.383784 
L 343.027727 274.538378 
L 343.412584 271.692973 
L 343.814344 268.847568 
L 344.230802 266.002162 
L 344.659755 263.156757 
L 345.099016 260.311351 
L 345.546431 257.465946 
L 345.999888 254.620541 
L 346.457334 251.775135 
L 346.916785 248.92973 
L 347.376335 246.084324 
L 347.83417 243.238919 
L 348.288578 240.393514 
L 348.737952 237.548108 
L 349.180801 234.702703 
L 349.615757 231.857297 
L 350.041577 229.011892 
L 350.45715 226.166486 
L 350.861497 223.321081 
L 351.253774 220.475676 
L 351.633272 217.63027 
L 351.999417 214.784865 
L 352.351769 211.939459 
L 352.690015 209.094054 
L 353.013972 206.248649 
L 353.323579 203.403243 
L 353.618889 200.557838 
L 353.90007 197.712432 
L 354.167391 194.867027 
L 354.421221 192.021622 
L 354.662015 189.176216 
L 354.890313 186.330811 
L 355.106727 183.485405 
L 355.311932 180.64 
L 355.506663 177.794595 
L 355.691697 174.949189 
L 355.867857 172.103784 
L 356.03599 169.258378 
L 356.196971 166.412973 
L 356.351687 163.567568 
L 356.501033 160.722162 
L 356.645904 157.876757 
L 356.787189 155.031351 
L 356.925765 152.185946 
L 357.062488 149.340541 
L 357.198194 146.495135 
L 357.333688 143.64973 
L 357.469744 140.804324 
L 357.607099 137.958919 
L 357.746452 135.113514 
L 357.888458 132.268108 
L 358.03373 129.422703 
L 358.182834 126.577297 
L 358.336286 123.731892 
L 358.494558 120.886486 
L 358.65807 118.041081 
L 358.827192 115.195676 
L 359.002246 112.35027 
L 359.183503 109.504865 
L 359.371184 106.659459 
L 359.565463 103.814054 
L 359.766465 100.968649 
L 359.974266 98.123243 
L 360.188898 95.277838 
L 360.410347 92.432432 
L 360.638554 89.587027 
L 360.873418 86.741622 
L 361.114795 83.896216 
L 361.362503 81.050811 
L 361.616321 78.205405 
L 361.875989 75.36 
L 362.141213 72.514595 
L 362.411668 69.669189 
L 362.686995 66.823784 
L 385.213005 66.823784 
L 385.213005 66.823784 
L 385.488332 69.669189 
L 385.758787 72.514595 
L 386.024011 75.36 
L 386.283679 78.205405 
L 386.537497 81.050811 
L 386.785205 83.896216 
L 387.026582 86.741622 
L 387.261446 89.587027 
L 387.489653 92.432432 
L 387.711102 95.277838 
L 387.925734 98.123243 
L 388.133535 100.968649 
L 388.334537 103.814054 
L 388.528816 106.659459 
L 388.716497 109.504865 
L 388.897754 112.35027 
L 389.072808 115.195676 
L 389.24193 118.041081 
L 389.405442 120.886486 
L 389.563714 123.731892 
L 389.717166 126.577297 
L 389.86627 129.422703 
L 390.011542 132.268108 
L 390.153548 135.113514 
L 390.292901 137.958919 
L 390.430256 140.804324 
L 390.566312 143.64973 
L 390.701806 146.495135 
L 390.837512 149.340541 
L 390.974235 152.185946 
L 391.112811 155.031351 
L 391.254096 157.876757 
L 391.398967 160.722162 
L 391.548313 163.567568 
L 391.703029 166.412973 
L 391.86401 169.258378 
L 392.032143 172.103784 
L 392.208303 174.949189 
L 392.393337 177.794595 
L 392.588068 180.64 
L 392.793273 183.485405 
L 393.009687 186.330811 
L 393.237985 189.176216 
L 393.478779 192.021622 
L 393.732609 194.867027 
L 393.99993 197.712432 
L 394.281111 200.557838 
L 394.576421 203.403243 
L 394.886028 206.248649 
L 395.209985 209.094054 
L 395.548231 211.939459 
L 395.900583 214.784865 
L 396.266728 217.63027 
L 396.646226 220.475676 
L 397.038503 223.321081 
L 397.44285 226.166486 
L 397.858423 229.011892 
L 398.284243 231.857297 
L 398.719199 234.702703 
L 399.162048 237.548108 
L 399.611422 240.393514 
L 400.06583 243.238919 
L 400.523665 246.084324 
L 400.983215 248.92973 
L 401.442666 251.775135 
L 401.900112 254.620541 
L 402.353569 257.465946 
L 402.800984 260.311351 
L 403.240245 263.156757 
L 403.669198 266.002162 
L 404.085656 268.847568 
L 404.487416 271.692973 
L 404.872273 274.538378 
L 405.238031 277.383784 
L 405.582526 280.229189 
L 405.903631 283.074595 
L 406.199279 285.92 
L 406.467473 288.765405 
L 406.706304 291.610811 
L 406.913962 294.456216 
L 407.088751 297.301622 
L 407.229103 300.147027 
L 407.333587 302.992432 
L 407.400926 305.837838 
L 407.43 308.683243 
L 407.419862 311.528649 
L 407.36974 314.374054 
L 407.279051 317.219459 
L 407.147399 320.064865 
L 406.974583 322.91027 
L 406.760601 325.755676 
L 406.505647 328.601081 
L 406.210116 331.446486 
L 405.874596 334.291892 
L 405.49987 337.137297 
L 405.086909 339.982703 
L 404.636866 342.828108 
L 404.151069 345.673514 
L 403.631011 348.518919 
z
" clip-path="url(#pb8a18c886c)" style="fill: #1f77b4; fill-opacity: 0.3"/>
   </g>
   <g id="FillBetweenPolyCollection_5">
    <path d="M 478.395075 366.499459 
L 436.904925 366.499459 
L 436.267166 363.956757 
L 435.640296 361.414054 
L 435.025541 358.871351 
L 434.424025 356.328649 
L 433.836766 353.785946 
L 433.264668 351.243243 
L 432.708526 348.700541 
L 432.16902 346.157838 
L 431.646715 343.615135 
L 431.142069 341.072432 
L 430.655435 338.52973 
L 430.187063 335.987027 
L 429.737115 333.444324 
L 429.305663 330.901622 
L 428.892706 328.358919 
L 428.498179 325.816216 
L 428.121959 323.273514 
L 427.76388 320.730811 
L 427.423741 318.188108 
L 427.101321 315.645405 
L 426.796385 313.102703 
L 426.5087 310.56 
L 426.238039 308.017297 
L 425.984192 305.474595 
L 425.746978 302.931892 
L 425.526247 300.389189 
L 425.321888 297.846486 
L 425.133833 295.303784 
L 424.962065 292.761081 
L 424.806612 290.218378 
L 424.667555 287.675676 
L 424.545026 285.132973 
L 424.439205 282.59027 
L 424.350318 280.047568 
L 424.278634 277.504865 
L 424.224457 274.962162 
L 424.188125 272.419459 
L 424.17 269.876757 
L 424.17046 267.334054 
L 424.189892 264.791351 
L 424.228685 262.248649 
L 424.287219 259.705946 
L 424.365855 257.163243 
L 424.464928 254.620541 
L 424.584739 252.077838 
L 424.72554 249.535135 
L 424.887534 246.992432 
L 425.07086 244.44973 
L 425.275586 241.907027 
L 425.501708 239.364324 
L 425.749135 236.821622 
L 426.017693 234.278919 
L 426.307111 231.736216 
L 426.617027 229.193514 
L 426.946979 226.650811 
L 427.296408 224.108108 
L 427.664657 221.565405 
L 428.050972 219.022703 
L 428.454505 216.48 
L 428.87432 213.937297 
L 429.309393 211.394595 
L 429.758627 208.851892 
L 430.220851 206.309189 
L 430.694835 203.766486 
L 431.179294 201.223784 
L 431.672904 198.681081 
L 432.174312 196.138378 
L 432.682145 193.595676 
L 433.195024 191.052973 
L 433.711578 188.51027 
L 434.230454 185.967568 
L 434.750333 183.424865 
L 435.269939 180.882162 
L 435.78805 178.339459 
L 436.303515 175.796757 
L 436.815257 173.254054 
L 437.322285 170.711351 
L 437.823704 168.168649 
L 438.318719 165.625946 
L 438.806641 163.083243 
L 439.286889 160.540541 
L 439.758995 157.997838 
L 440.222603 155.455135 
L 440.677467 152.912432 
L 441.123448 150.36973 
L 441.560511 147.827027 
L 441.988717 145.284324 
L 442.408218 142.741622 
L 442.819246 140.198919 
L 443.222105 137.656216 
L 443.617162 135.113514 
L 444.00483 132.570811 
L 444.385564 130.028108 
L 444.759843 127.485405 
L 445.128161 124.942703 
L 445.491014 122.4 
L 445.84889 119.857297 
L 446.202258 117.314595 
L 446.551556 114.771892 
L 468.748444 114.771892 
L 468.748444 114.771892 
L 469.097742 117.314595 
L 469.45111 119.857297 
L 469.808986 122.4 
L 470.171839 124.942703 
L 470.540157 127.485405 
L 470.914436 130.028108 
L 471.29517 132.570811 
L 471.682838 135.113514 
L 472.077895 137.656216 
L 472.480754 140.198919 
L 472.891782 142.741622 
L 473.311283 145.284324 
L 473.739489 147.827027 
L 474.176552 150.36973 
L 474.622533 152.912432 
L 475.077397 155.455135 
L 475.541005 157.997838 
L 476.013111 160.540541 
L 476.493359 163.083243 
L 476.981281 165.625946 
L 477.476296 168.168649 
L 477.977715 170.711351 
L 478.484743 173.254054 
L 478.996485 175.796757 
L 479.51195 178.339459 
L 480.030061 180.882162 
L 480.549667 183.424865 
L 481.069546 185.967568 
L 481.588422 188.51027 
L 482.104976 191.052973 
L 482.617855 193.595676 
L 483.125688 196.138378 
L 483.627096 198.681081 
L 484.120706 201.223784 
L 484.605165 203.766486 
L 485.079149 206.309189 
L 485.541373 208.851892 
L 485.990607 211.394595 
L 486.42568 213.937297 
L 486.845495 216.48 
L 487.249028 219.022703 
L 487.635343 221.565405 
L 488.003592 224.108108 
L 488.353021 226.650811 
L 488.682973 229.193514 
L 488.992889 231.736216 
L 489.282307 234.278919 
L 489.550865 236.821622 
L 489.798292 239.364324 
L 490.024414 241.907027 
L 490.22914 244.44973 
L 490.412466 246.992432 
L 490.57446 249.535135 
L 490.715261 252.077838 
L 490.835072 254.620541 
L 490.934145 257.163243 
L 491.012781 259.705946 
L 491.071315 262.248649 
L 491.110108 264.791351 
L 491.12954 267.334054 
L 491.13 269.876757 
L 491.111875 272.419459 
L 491.075543 274.962162 
L 491.021366 277.504865 
L 490.949682 280.047568 
L 490.860795 282.59027 
L 490.754974 285.132973 
L 490.632445 287.675676 
L 490.493388 290.218378 
L 490.337935 292.761081 
L 490.166167 295.303784 
L 489.978112 297.846486 
L 489.773753 300.389189 
L 489.553022 302.931892 
L 489.315808 305.474595 
L 489.061961 308.017297 
L 488.7913 310.56 
L 488.503615 313.102703 
L 488.198679 315.645405 
L 487.876259 318.188108 
L 487.53612 320.730811 
L 487.178041 323.273514 
L 486.801821 325.816216 
L 486.407294 328.358919 
L 485.994337 330.901622 
L 485.562885 333.444324 
L 485.112937 335.987027 
L 484.644565 338.52973 
L 484.157931 341.072432 
L 483.653285 343.615135 
L 483.13098 346.157838 
L 482.591474 348.700541 
L 482.035332 351.243243 
L 481.463234 353.785946 
L 480.875975 356.328649 
L 480.274459 358.871351 
L 479.659704 361.414054 
L 479.032834 363.956757 
L 478.395075 366.499459 
z
" clip-path="url(#pb8a18c886c)" style="fill: #1f77b4; fill-opacity: 0.3"/>
   </g>
   <g id="FillBetweenPolyCollection_6">
    <path d="M 561.39339 360.505946 
L 521.30661 360.505946 
L 520.49638 357.539459 
L 519.689264 354.572973 
L 518.887913 351.606486 
L 518.095034 348.64 
L 517.313373 345.673514 
L 516.545704 342.707027 
L 515.794807 339.740541 
L 515.063451 336.774054 
L 514.35438 333.807568 
L 513.670288 330.841081 
L 513.013807 327.874595 
L 512.387484 324.908108 
L 511.793765 321.941622 
L 511.234974 318.975135 
L 510.713302 316.008649 
L 510.230784 313.042162 
L 509.789286 310.075676 
L 509.390491 307.109189 
L 509.035886 304.142703 
L 508.726749 301.176216 
L 508.464142 298.20973 
L 508.248897 295.243243 
L 508.081617 292.276757 
L 507.962665 289.31027 
L 507.892165 286.343784 
L 507.87 283.377297 
L 507.895813 280.410811 
L 507.969011 277.444324 
L 508.088773 274.477838 
L 508.254051 271.511351 
L 508.463585 268.544865 
L 508.715911 265.578378 
L 509.009376 262.611892 
L 509.342149 259.645405 
L 509.712236 256.678919 
L 510.1175 253.712432 
L 510.555678 250.745946 
L 511.024394 247.779459 
L 511.521185 244.812973 
L 512.043514 241.846486 
L 512.588794 238.88 
L 513.154404 235.913514 
L 513.737709 232.947027 
L 514.33608 229.980541 
L 514.946909 227.014054 
L 515.567626 224.047568 
L 516.195718 221.081081 
L 516.828741 218.114595 
L 517.464334 215.148108 
L 518.100232 212.181622 
L 518.734275 209.215135 
L 519.364417 206.248649 
L 519.988737 203.282162 
L 520.605439 200.315676 
L 521.212864 197.349189 
L 521.809485 194.382703 
L 522.393915 191.416216 
L 522.964904 188.44973 
L 523.521342 185.483243 
L 524.062251 182.516757 
L 524.586788 179.55027 
L 525.094242 176.583784 
L 525.584025 173.617297 
L 526.055671 170.650811 
L 526.508833 167.684324 
L 526.943274 164.717838 
L 527.358867 161.751351 
L 527.755586 158.784865 
L 528.133502 155.818378 
L 528.492781 152.851892 
L 528.833678 149.885405 
L 529.156532 146.918919 
L 529.461763 143.952432 
L 529.74987 140.985946 
L 530.021423 138.019459 
L 530.277062 135.052973 
L 530.517494 132.086486 
L 530.743487 129.12 
L 530.955868 126.153514 
L 531.155517 123.187027 
L 531.343363 120.220541 
L 531.520377 117.254054 
L 531.687568 114.287568 
L 531.845977 111.321081 
L 531.996668 108.354595 
L 532.140721 105.388108 
L 532.279227 102.421622 
L 532.413273 99.455135 
L 532.543939 96.488649 
L 532.672284 93.522162 
L 532.799341 90.555676 
L 532.926103 87.589189 
L 533.053516 84.622703 
L 533.18247 81.656216 
L 533.313786 78.68973 
L 533.448215 75.723243 
L 533.586424 72.756757 
L 533.728991 69.79027 
L 533.876403 66.823784 
L 548.823597 66.823784 
L 548.823597 66.823784 
L 548.971009 69.79027 
L 549.113576 72.756757 
L 549.251785 75.723243 
L 549.386214 78.68973 
L 549.51753 81.656216 
L 549.646484 84.622703 
L 549.773897 87.589189 
L 549.900659 90.555676 
L 550.027716 93.522162 
L 550.156061 96.488649 
L 550.286727 99.455135 
L 550.420773 102.421622 
L 550.559279 105.388108 
L 550.703332 108.354595 
L 550.854023 111.321081 
L 551.012432 114.287568 
L 551.179623 117.254054 
L 551.356637 120.220541 
L 551.544483 123.187027 
L 551.744132 126.153514 
L 551.956513 129.12 
L 552.182506 132.086486 
L 552.422938 135.052973 
L 552.678577 138.019459 
L 552.95013 140.985946 
L 553.238237 143.952432 
L 553.543468 146.918919 
L 553.866322 149.885405 
L 554.207219 152.851892 
L 554.566498 155.818378 
L 554.944414 158.784865 
L 555.341133 161.751351 
L 555.756726 164.717838 
L 556.191167 167.684324 
L 556.644329 170.650811 
L 557.115975 173.617297 
L 557.605758 176.583784 
L 558.113212 179.55027 
L 558.637749 182.516757 
L 559.178658 185.483243 
L 559.735096 188.44973 
L 560.306085 191.416216 
L 560.890515 194.382703 
L 561.487136 197.349189 
L 562.094561 200.315676 
L 562.711263 203.282162 
L 563.335583 206.248649 
L 563.965725 209.215135 
L 564.599768 212.181622 
L 565.235666 215.148108 
L 565.871259 218.114595 
L 566.504282 221.081081 
L 567.132374 224.047568 
L 567.753091 227.014054 
L 568.36392 229.980541 
L 568.962291 232.947027 
L 569.545596 235.913514 
L 570.111206 238.88 
L 570.656486 241.846486 
L 571.178815 244.812973 
L 571.675606 247.779459 
L 572.144322 250.745946 
L 572.5825 253.712432 
L 572.987764 256.678919 
L 573.357851 259.645405 
L 573.690624 262.611892 
L 573.984089 265.578378 
L 574.236415 268.544865 
L 574.445949 271.511351 
L 574.611227 274.477838 
L 574.730989 277.444324 
L 574.804187 280.410811 
L 574.83 283.377297 
L 574.807835 286.343784 
L 574.737335 289.31027 
L 574.618383 292.276757 
L 574.451103 295.243243 
L 574.235858 298.20973 
L 573.973251 301.176216 
L 573.664114 304.142703 
L 573.309509 307.109189 
L 572.910714 310.075676 
L 572.469216 313.042162 
L 571.986698 316.008649 
L 571.465026 318.975135 
L 570.906235 321.941622 
L 570.312516 324.908108 
L 569.686193 327.874595 
L 569.029712 330.841081 
L 568.34562 333.807568 
L 567.636549 336.774054 
L 566.905193 339.740541 
L 566.154296 342.707027 
L 565.386627 345.673514 
L 564.604966 348.64 
L 563.812087 351.606486 
L 563.010736 354.572973 
L 562.20362 357.539459 
L 561.39339 360.505946 
z
" clip-path="url(#pb8a18c886c)" style="fill: #1f77b4; fill-opacity: 0.3"/>
   </g>
   <g id="matplotlib.axis_1">
    <g id="xtick_1">
     <g id="line2d_1">
      <defs>
       <path id="m1a45e6bfe5" d="M 0 0 
L 0 3.5 
" style="stroke: #000000; stroke-width: 0.8"/>
      </defs>
      <g>
       <use xlink:href="#m1a45e6bfe5" x="122.85" y="384.48" style="stroke: #000000; stroke-width: 0.8"/>
      </g>
     </g>
     <g id="text_1">
      <!-- Arrow -->
      <g transform="translate(111.26625 397.55875) scale(0.08 -0.08)">
       <defs>
        <path id="DejaVuSans-41" d="M 2188 4044 
L 1331 1722 
L 3047 1722 
L 2188 4044 
z
M 1831 4666 
L 2547 4666 
L 4325 0 
L 3669 0 
L 3244 1197 
L 1141 1197 
L 716 0 
L 50 0 
L 1831 4666 
z
" transform="scale(0.015625)"/>
        <path id="DejaVuSans-72" d="M 2631 2963 
Q 2534 3019 2420 3045 
Q 2306 3072 2169 3072 
Q 1681 3072 1420 2755 
Q 1159 2438 1159 1844 
L 1159 0 
L 581 0 
L 581 3500 
L 1159 3500 
L 1159 2956 
Q 1341 3275 1631 3429 
Q 1922 3584 2338 3584 
Q 2397 3584 2469 3576 
Q 2541 3569 2628 3553 
L 2631 2963 
z
" transform="scale(0.015625)"/>
        <path id="DejaVuSans-6f" d="M 1959 3097 
Q 1497 3097 1228 2736 
Q 959 2375 959 1747 
Q 959 1119 1226 758 
Q 1494 397 1959 397 
Q 2419 397 2687 759 
Q 2956 1122 2956 1747 
Q 2956 2369 2687 2733 
Q 2419 3097 1959 3097 
z
M 1959 3584 
Q 2709 3584 3137 3096 
Q 3566 2609 3566 1747 
Q 3566 888 3137 398 
Q 2709 -91 1959 -91 
Q 1206 -91 779 398 
Q 353 888 353 1747 
Q 353 2609 779 3096 
Q 1206 3584 1959 3584 
z
" transform="scale(0.015625)"/>
        <path id="DejaVuSans-77" d="M 269 3500 
L 844 3500 
L 1563 769 
L 2278 3500 
L 2956 3500 
L 3675 769 
L 4391 3500 
L 4966 3500 
L 4050 0 
L 3372 0 
L 2619 2869 
L 1863 0 
L 1184 0 
L 269 3500 
z
" transform="scale(0.015625)"/>
       </defs>
       <use xlink:href="#DejaVuSans-41"/>
       <use xlink:href="#DejaVuSans-72" transform="translate(68.408203 0)"/>
       <use xlink:href="#DejaVuSans-72" transform="translate(107.771484 0)"/>
       <use xlink:href="#DejaVuSans-6f" transform="translate(146.634766 0)"/>
       <use xlink:href="#DejaVuSans-77" transform="translate(207.816406 0)"/>
      </g>
     </g>
    </g>
    <g id="xtick_2">
     <g id="line2d_2">
      <g>
       <use xlink:href="#m1a45e6bfe5" x="206.55" y="384.48" style="stroke: #000000; stroke-width: 0.8"/>
      </g>
     </g>
     <g id="text_2">
      <!-- Radar -->
      <g transform="translate(194.774375 397.55875) scale(0.08 -0.08)">
       <defs>
        <path id="DejaVuSans-52" d="M 2841 2188 
Q 3044 2119 3236 1894 
Q 3428 1669 3622 1275 
L 4263 0 
L 3584 0 
L 2988 1197 
Q 2756 1666 2539 1819 
Q 2322 1972 1947 1972 
L 1259 1972 
L 1259 0 
L 628 0 
L 628 4666 
L 2053 4666 
Q 2853 4666 3247 4331 
Q 3641 3997 3641 3322 
Q 3641 2881 3436 2590 
Q 3231 2300 2841 2188 
z
M 1259 4147 
L 1259 2491 
L 2053 2491 
Q 2509 2491 2742 2702 
Q 2975 2913 2975 3322 
Q 2975 3731 2742 3939 
Q 2509 4147 2053 4147 
L 1259 4147 
z
" transform="scale(0.015625)"/>
        <path id="DejaVuSans-61" d="M 2194 1759 
Q 1497 1759 1228 1600 
Q 959 1441 959 1056 
Q 959 750 1161 570 
Q 1363 391 1709 391 
Q 2188 391 2477 730 
Q 2766 1069 2766 1631 
L 2766 1759 
L 2194 1759 
z
M 3341 1997 
L 3341 0 
L 2766 0 
L 2766 531 
Q 2569 213 2275 61 
Q 1981 -91 1556 -91 
Q 1019 -91 701 211 
Q 384 513 384 1019 
Q 384 1609 779 1909 
Q 1175 2209 1959 2209 
L 2766 2209 
L 2766 2266 
Q 2766 2663 2505 2880 
Q 2244 3097 1772 3097 
Q 1472 3097 1187 3025 
Q 903 2953 641 2809 
L 641 3341 
Q 956 3463 1253 3523 
Q 1550 3584 1831 3584 
Q 2591 3584 2966 3190 
Q 3341 2797 3341 1997 
z
" transform="scale(0.015625)"/>
        <path id="DejaVuSans-64" d="M 2906 2969 
L 2906 4863 
L 3481 4863 
L 3481 0 
L 2906 0 
L 2906 525 
Q 2725 213 2448 61 
Q 2172 -91 1784 -91 
Q 1150 -91 751 415 
Q 353 922 353 1747 
Q 353 2572 751 3078 
Q 1150 3584 1784 3584 
Q 2172 3584 2448 3432 
Q 2725 3281 2906 2969 
z
M 947 1747 
Q 947 1113 1208 752 
Q 1469 391 1925 391 
Q 2381 391 2643 752 
Q 2906 1113 2906 1747 
Q 2906 2381 2643 2742 
Q 2381 3103 1925 3103 
Q 1469 3103 1208 2742 
Q 947 2381 947 1747 
z
" transform="scale(0.015625)"/>
       </defs>
       <use xlink:href="#DejaVuSans-52"/>
       <use xlink:href="#DejaVuSans-61" transform="translate(67.232422 0)"/>
       <use xlink:href="#DejaVuSans-64" transform="translate(128.511719 0)"/>
       <use xlink:href="#DejaVuSans-61" transform="translate(191.988281 0)"/>
       <use xlink:href="#DejaVuSans-72" transform="translate(253.267578 0)"/>
      </g>
     </g>
    </g>
    <g id="xtick_3">
     <g id="line2d_3">
      <g>
       <use xlink:href="#m1a45e6bfe5" x="290.25" y="384.48" style="stroke: #000000; stroke-width: 0.8"/>
      </g>
     </g>
     <g id="text_3">
      <!-- Lights -->
      <g transform="translate(278.18375 397.55875) scale(0.08 -0.08)">
       <defs>
        <path id="DejaVuSans-4c" d="M 628 4666 
L 1259 4666 
L 1259 531 
L 3531 531 
L 3531 0 
L 628 0 
L 628 4666 
z
" transform="scale(0.015625)"/>
        <path id="DejaVuSans-69" d="M 603 3500 
L 1178 3500 
L 1178 0 
L 603 0 
L 603 3500 
z
M 603 4863 
L 1178 4863 
L 1178 4134 
L 603 4134 
L 603 4863 
z
" transform="scale(0.015625)"/>
        <path id="DejaVuSans-67" d="M 2906 1791 
Q 2906 2416 2648 2759 
Q 2391 3103 1925 3103 
Q 1463 3103 1205 2759 
Q 947 2416 947 1791 
Q 947 1169 1205 825 
Q 1463 481 1925 481 
Q 2391 481 2648 825 
Q 2906 1169 2906 1791 
z
M 3481 434 
Q 3481 -459 3084 -895 
Q 2688 -1331 1869 -1331 
Q 1566 -1331 1297 -1286 
Q 1028 -1241 775 -1147 
L 775 -588 
Q 1028 -725 1275 -790 
Q 1522 -856 1778 -856 
Q 2344 -856 2625 -561 
Q 2906 -266 2906 331 
L 2906 616 
Q 2728 306 2450 153 
Q 2172 0 1784 0 
Q 1141 0 747 490 
Q 353 981 353 1791 
Q 353 2603 747 3093 
Q 1141 3584 1784 3584 
Q 2172 3584 2450 3431 
Q 2728 3278 2906 2969 
L 2906 3500 
L 3481 3500 
L 3481 434 
z
" transform="scale(0.015625)"/>
        <path id="DejaVuSans-68" d="M 3513 2113 
L 3513 0 
L 2938 0 
L 2938 2094 
Q 2938 2591 2744 2837 
Q 2550 3084 2163 3084 
Q 1697 3084 1428 2787 
Q 1159 2491 1159 1978 
L 1159 0 
L 581 0 
L 581 4863 
L 1159 4863 
L 1159 2956 
Q 1366 3272 1645 3428 
Q 1925 3584 2291 3584 
Q 2894 3584 3203 3211 
Q 3513 2838 3513 2113 
z
" transform="scale(0.015625)"/>
        <path id="DejaVuSans-74" d="M 1172 4494 
L 1172 3500 
L 2356 3500 
L 2356 3053 
L 1172 3053 
L 1172 1153 
Q 1172 725 1289 603 
Q 1406 481 1766 481 
L 2356 481 
L 2356 0 
L 1766 0 
Q 1100 0 847 248 
Q 594 497 594 1153 
L 594 3053 
L 172 3053 
L 172 3500 
L 594 3500 
L 594 4494 
L 1172 4494 
z
" transform="scale(0.015625)"/>
        <path id="DejaVuSans-73" d="M 2834 3397 
L 2834 2853 
Q 2591 2978 2328 3040 
Q 2066 3103 1784 3103 
Q 1356 3103 1142 2972 
Q 928 2841 928 2578 
Q 928 2378 1081 2264 
Q 1234 2150 1697 2047 
L 1894 2003 
Q 2506 1872 2764 1633 
Q 3022 1394 3022 966 
Q 3022 478 2636 193 
Q 2250 -91 1575 -91 
Q 1294 -91 989 -36 
Q 684 19 347 128 
L 347 722 
Q 666 556 975 473 
Q 1284 391 1588 391 
Q 1994 391 2212 530 
Q 2431 669 2431 922 
Q 2431 1156 2273 1281 
Q 2116 1406 1581 1522 
L 1381 1569 
Q 847 1681 609 1914 
Q 372 2147 372 2553 
Q 372 3047 722 3315 
Q 1072 3584 1716 3584 
Q 2034 3584 2315 3537 
Q 2597 3491 2834 3397 
z
" transform="scale(0.015625)"/>
       </defs>
       <use xlink:href="#DejaVuSans-4c"/>
       <use xlink:href="#DejaVuSans-69" transform="translate(55.712891 0)"/>
       <use xlink:href="#DejaVuSans-67" transform="translate(83.496094 0)"/>
       <use xlink:href="#DejaVuSans-68" transform="translate(146.972656 0)"/>
       <use xlink:href="#DejaVuSans-74" transform="translate(210.351562 0)"/>
       <use xlink:href="#DejaVuSans-73" transform="translate(249.560547 0)"/>
      </g>
     </g>
    </g>
    <g id="xtick_4">
     <g id="line2d_4">
      <g>
       <use xlink:href="#m1a45e6bfe5" x="373.95" y="384.48" style="stroke: #000000; stroke-width: 0.8"/>
      </g>
     </g>
     <g id="text_4">
      <!-- Arrow and Radar -->
      <g transform="translate(340.5225 397.55875) scale(0.08 -0.08)">
       <defs>
        <path id="DejaVuSans-20" transform="scale(0.015625)"/>
        <path id="DejaVuSans-6e" d="M 3513 2113 
L 3513 0 
L 2938 0 
L 2938 2094 
Q 2938 2591 2744 2837 
Q 2550 3084 2163 3084 
Q 1697 3084 1428 2787 
Q 1159 2491 1159 1978 
L 1159 0 
L 581 0 
L 581 3500 
L 1159 3500 
L 1159 2956 
Q 1366 3272 1645 3428 
Q 1925 3584 2291 3584 
Q 2894 3584 3203 3211 
Q 3513 2838 3513 2113 
z
" transform="scale(0.015625)"/>
       </defs>
       <use xlink:href="#DejaVuSans-41"/>
       <use xlink:href="#DejaVuSans-72" transform="translate(68.408203 0)"/>
       <use xlink:href="#DejaVuSans-72" transform="translate(107.771484 0)"/>
       <use xlink:href="#DejaVuSans-6f" transform="translate(146.634766 0)"/>
       <use xlink:href="#DejaVuSans-77" transform="translate(207.816406 0)"/>
       <use xlink:href="#DejaVuSans-20" transform="translate(289.603516 0)"/>
       <use xlink:href="#DejaVuSans-61" transform="translate(321.390625 0)"/>
       <use xlink:href="#DejaVuSans-6e" transform="translate(382.669922 0)"/>
       <use xlink:href="#DejaVuSans-64" transform="translate(446.048828 0)"/>
       <use xlink:href="#DejaVuSans-20" transform="translate(509.525391 0)"/>
       <use xlink:href="#DejaVuSans-52" transform="translate(541.3125 0)"/>
       <use xlink:href="#DejaVuSans-61" transform="translate(608.544922 0)"/>
       <use xlink:href="#DejaVuSans-64" transform="translate(669.824219 0)"/>
       <use xlink:href="#DejaVuSans-61" transform="translate(733.300781 0)"/>
       <use xlink:href="#DejaVuSans-72" transform="translate(794.580078 0)"/>
      </g>
     </g>
    </g>
    <g id="xtick_5">
     <g id="line2d_5">
      <g>
       <use xlink:href="#m1a45e6bfe5" x="457.65" y="384.48" style="stroke: #000000; stroke-width: 0.8"/>
      </g>
     </g>
     <g id="text_5">
      <!-- Arrow and Lights -->
      <g transform="translate(423.931875 397.55875) scale(0.08 -0.08)">
       <use xlink:href="#DejaVuSans-41"/>
       <use xlink:href="#DejaVuSans-72" transform="translate(68.408203 0)"/>
       <use xlink:href="#DejaVuSans-72" transform="translate(107.771484 0)"/>
       <use xlink:href="#DejaVuSans-6f" transform="translate(146.634766 0)"/>
       <use xlink:href="#DejaVuSans-77" transform="translate(207.816406 0)"/>
       <use xlink:href="#DejaVuSans-20" transform="translate(289.603516 0)"/>
       <use xlink:href="#DejaVuSans-61" transform="translate(321.390625 0)"/>
       <use xlink:href="#DejaVuSans-6e" transform="translate(382.669922 0)"/>
       <use xlink:href="#DejaVuSans-64" transform="translate(446.048828 0)"/>
       <use xlink:href="#DejaVuSans-20" transform="translate(509.525391 0)"/>
       <use xlink:href="#DejaVuSans-4c" transform="translate(541.3125 0)"/>
       <use xlink:href="#DejaVuSans-69" transform="translate(597.025391 0)"/>
       <use xlink:href="#DejaVuSans-67" transform="translate(624.808594 0)"/>
       <use xlink:href="#DejaVuSans-68" transform="translate(688.285156 0)"/>
       <use xlink:href="#DejaVuSans-74" transform="translate(751.664062 0)"/>
       <use xlink:href="#DejaVuSans-73" transform="translate(790.873047 0)"/>
      </g>
     </g>
    </g>
    <g id="xtick_6">
     <g id="line2d_6">
      <g>
       <use xlink:href="#m1a45e6bfe5" x="541.35" y="384.48" style="stroke: #000000; stroke-width: 0.8"/>
      </g>
     </g>
     <g id="text_6">
      <!-- Lights and Radar -->
      <g transform="translate(507.44 397.55875) scale(0.08 -0.08)">
       <use xlink:href="#DejaVuSans-4c"/>
       <use xlink:href="#DejaVuSans-69" transform="translate(55.712891 0)"/>
       <use xlink:href="#DejaVuSans-67" transform="translate(83.496094 0)"/>
       <use xlink:href="#DejaVuSans-68" transform="translate(146.972656 0)"/>
       <use xlink:href="#DejaVuSans-74" transform="translate(210.351562 0)"/>
       <use xlink:href="#DejaVuSans-73" transform="translate(249.560547 0)"/>
       <use xlink:href="#DejaVuSans-20" transform="translate(301.660156 0)"/>
       <use xlink:href="#DejaVuSans-61" transform="translate(333.447266 0)"/>
       <use xlink:href="#DejaVuSans-6e" transform="translate(394.726562 0)"/>
       <use xlink:href="#DejaVuSans-64" transform="translate(458.105469 0)"/>
       <use xlink:href="#DejaVuSans-20" transform="translate(521.582031 0)"/>
       <use xlink:href="#DejaVuSans-52" transform="translate(553.369141 0)"/>
       <use xlink:href="#DejaVuSans-61" transform="translate(620.601562 0)"/>
       <use xlink:href="#DejaVuSans-64" transform="translate(681.880859 0)"/>
       <use xlink:href="#DejaVuSans-61" transform="translate(745.357422 0)"/>
       <use xlink:href="#DejaVuSans-72" transform="translate(806.636719 0)"/>
      </g>
     </g>
    </g>
    <g id="text_7">
     <!-- Visualization -->
     <g transform="translate(300.521875 416.820938) scale(0.1 -0.1)">
      <defs>
       <path id="DejaVuSans-56" d="M 1831 0 
L 50 4666 
L 709 4666 
L 2188 738 
L 3669 4666 
L 4325 4666 
L 2547 0 
L 1831 0 
z
" transform="scale(0.015625)"/>
       <path id="DejaVuSans-75" d="M 544 1381 
L 544 3500 
L 1119 3500 
L 1119 1403 
Q 1119 906 1312 657 
Q 1506 409 1894 409 
Q 2359 409 2629 706 
Q 2900 1003 2900 1516 
L 2900 3500 
L 3475 3500 
L 3475 0 
L 2900 0 
L 2900 538 
Q 2691 219 2414 64 
Q 2138 -91 1772 -91 
Q 1169 -91 856 284 
Q 544 659 544 1381 
z
M 1991 3584 
L 1991 3584 
z
" transform="scale(0.015625)"/>
       <path id="DejaVuSans-6c" d="M 603 4863 
L 1178 4863 
L 1178 0 
L 603 0 
L 603 4863 
z
" transform="scale(0.015625)"/>
       <path id="DejaVuSans-7a" d="M 353 3500 
L 3084 3500 
L 3084 2975 
L 922 459 
L 3084 459 
L 3084 0 
L 275 0 
L 275 525 
L 2438 3041 
L 353 3041 
L 353 3500 
z
" transform="scale(0.015625)"/>
      </defs>
      <use xlink:href="#DejaVuSans-56"/>
      <use xlink:href="#DejaVuSans-69" transform="translate(66.158203 0)"/>
      <use xlink:href="#DejaVuSans-73" transform="translate(93.941406 0)"/>
      <use xlink:href="#DejaVuSans-75" transform="translate(146.041016 0)"/>
      <use xlink:href="#DejaVuSans-61" transform="translate(209.419922 0)"/>
      <use xlink:href="#DejaVuSans-6c" transform="translate(270.699219 0)"/>
      <use xlink:href="#DejaVuSans-69" transform="translate(298.482422 0)"/>
      <use xlink:href="#DejaVuSans-7a" transform="translate(326.265625 0)"/>
      <use xlink:href="#DejaVuSans-61" transform="translate(378.755859 0)"/>
      <use xlink:href="#DejaVuSans-74" transform="translate(440.035156 0)"/>
      <use xlink:href="#DejaVuSans-69" transform="translate(479.244141 0)"/>
      <use xlink:href="#DejaVuSans-6f" transform="translate(507.027344 0)"/>
      <use xlink:href="#DejaVuSans-6e" transform="translate(568.208984 0)"/>
     </g>
    </g>
   </g>
   <g id="matplotlib.axis_2">
    <g id="ytick_1">
     <g id="line2d_7">
      <defs>
       <path id="m350e0d0435" d="M 0 0 
L -3.5 0 
" style="stroke: #000000; stroke-width: 0.8"/>
      </defs>
      <g>
       <use xlink:href="#m350e0d0435" x="81" y="384.48" style="stroke: #000000; stroke-width: 0.8"/>
      </g>
     </g>
     <g id="text_8">
      <!-- 0 -->
      <g transform="translate(67.6375 388.279219) scale(0.1 -0.1)">
       <defs>
        <path id="DejaVuSans-30" d="M 2034 4250 
Q 1547 4250 1301 3770 
Q 1056 3291 1056 2328 
Q 1056 1369 1301 889 
Q 1547 409 2034 409 
Q 2525 409 2770 889 
Q 3016 1369 3016 2328 
Q 3016 3291 2770 3770 
Q 2525 4250 2034 4250 
z
M 2034 4750 
Q 2819 4750 3233 4129 
Q 3647 3509 3647 2328 
Q 3647 1150 3233 529 
Q 2819 -91 2034 -91 
Q 1250 -91 836 529 
Q 422 1150 422 2328 
Q 422 3509 836 4129 
Q 1250 4750 2034 4750 
z
" transform="scale(0.015625)"/>
       </defs>
       <use xlink:href="#DejaVuSans-30"/>
      </g>
     </g>
    </g>
    <g id="ytick_2">
     <g id="line2d_8">
      <g>
       <use xlink:href="#m350e0d0435" x="81" y="312.557838" style="stroke: #000000; stroke-width: 0.8"/>
      </g>
     </g>
     <g id="text_9">
      <!-- 2 -->
      <g transform="translate(67.6375 316.357057) scale(0.1 -0.1)">
       <defs>
        <path id="DejaVuSans-32" d="M 1228 531 
L 3431 531 
L 3431 0 
L 469 0 
L 469 531 
Q 828 903 1448 1529 
Q 2069 2156 2228 2338 
Q 2531 2678 2651 2914 
Q 2772 3150 2772 3378 
Q 2772 3750 2511 3984 
Q 2250 4219 1831 4219 
Q 1534 4219 1204 4116 
Q 875 4013 500 3803 
L 500 4441 
Q 881 4594 1212 4672 
Q 1544 4750 1819 4750 
Q 2544 4750 2975 4387 
Q 3406 4025 3406 3419 
Q 3406 3131 3298 2873 
Q 3191 2616 2906 2266 
Q 2828 2175 2409 1742 
Q 1991 1309 1228 531 
z
" transform="scale(0.015625)"/>
       </defs>
       <use xlink:href="#DejaVuSans-32"/>
      </g>
     </g>
    </g>
    <g id="ytick_3">
     <g id="line2d_9">
      <g>
       <use xlink:href="#m350e0d0435" x="81" y="240.635676" style="stroke: #000000; stroke-width: 0.8"/>
      </g>
     </g>
     <g id="text_10">
      <!-- 4 -->
      <g transform="translate(67.6375 244.434894) scale(0.1 -0.1)">
       <defs>
        <path id="DejaVuSans-34" d="M 2419 4116 
L 825 1625 
L 2419 1625 
L 2419 4116 
z
M 2253 4666 
L 3047 4666 
L 3047 1625 
L 3713 1625 
L 3713 1100 
L 3047 1100 
L 3047 0 
L 2419 0 
L 2419 1100 
L 313 1100 
L 313 1709 
L 2253 4666 
z
" transform="scale(0.015625)"/>
       </defs>
       <use xlink:href="#DejaVuSans-34"/>
      </g>
     </g>
    </g>
    <g id="ytick_4">
     <g id="line2d_10">
      <g>
       <use xlink:href="#m350e0d0435" x="81" y="168.713514" style="stroke: #000000; stroke-width: 0.8"/>
      </g>
     </g>
     <g id="text_11">
      <!-- 6 -->
      <g transform="translate(67.6375 172.512732) scale(0.1 -0.1)">
       <defs>
        <path id="DejaVuSans-36" d="M 2113 2584 
Q 1688 2584 1439 2293 
Q 1191 2003 1191 1497 
Q 1191 994 1439 701 
Q 1688 409 2113 409 
Q 2538 409 2786 701 
Q 3034 994 3034 1497 
Q 3034 2003 2786 2293 
Q 2538 2584 2113 2584 
z
M 3366 4563 
L 3366 3988 
Q 3128 4100 2886 4159 
Q 2644 4219 2406 4219 
Q 1781 4219 1451 3797 
Q 1122 3375 1075 2522 
Q 1259 2794 1537 2939 
Q 1816 3084 2150 3084 
Q 2853 3084 3261 2657 
Q 3669 2231 3669 1497 
Q 3669 778 3244 343 
Q 2819 -91 2113 -91 
Q 1303 -91 875 529 
Q 447 1150 447 2328 
Q 447 3434 972 4092 
Q 1497 4750 2381 4750 
Q 2619 4750 2861 4703 
Q 3103 4656 3366 4563 
z
" transform="scale(0.015625)"/>
       </defs>
       <use xlink:href="#DejaVuSans-36"/>
      </g>
     </g>
    </g>
    <g id="ytick_5">
     <g id="line2d_11">
      <g>
       <use xlink:href="#m350e0d0435" x="81" y="96.791351" style="stroke: #000000; stroke-width: 0.8"/>
      </g>
     </g>
     <g id="text_12">
      <!-- 8 -->
      <g transform="translate(67.6375 100.59057) scale(0.1 -0.1)">
       <defs>
        <path id="DejaVuSans-38" d="M 2034 2216 
Q 1584 2216 1326 1975 
Q 1069 1734 1069 1313 
Q 1069 891 1326 650 
Q 1584 409 2034 409 
Q 2484 409 2743 651 
Q 3003 894 3003 1313 
Q 3003 1734 2745 1975 
Q 2488 2216 2034 2216 
z
M 1403 2484 
Q 997 2584 770 2862 
Q 544 3141 544 3541 
Q 544 4100 942 4425 
Q 1341 4750 2034 4750 
Q 2731 4750 3128 4425 
Q 3525 4100 3525 3541 
Q 3525 3141 3298 2862 
Q 3072 2584 2669 2484 
Q 3125 2378 3379 2068 
Q 3634 1759 3634 1313 
Q 3634 634 3220 271 
Q 2806 -91 2034 -91 
Q 1263 -91 848 271 
Q 434 634 434 1313 
Q 434 1759 690 2068 
Q 947 2378 1403 2484 
z
M 1172 3481 
Q 1172 3119 1398 2916 
Q 1625 2713 2034 2713 
Q 2441 2713 2670 2916 
Q 2900 3119 2900 3481 
Q 2900 3844 2670 4047 
Q 2441 4250 2034 4250 
Q 1625 4250 1398 4047 
Q 1172 3844 1172 3481 
z
" transform="scale(0.015625)"/>
       </defs>
       <use xlink:href="#DejaVuSans-38"/>
      </g>
     </g>
    </g>
    <g id="text_13">
     <!-- NASA TLX Score -->
     <g transform="translate(55.557812 258.454531) rotate(-90) scale(0.1 -0.1)">
      <defs>
       <path id="DejaVuSans-4e" d="M 628 4666 
L 1478 4666 
L 3547 763 
L 3547 4666 
L 4159 4666 
L 4159 0 
L 3309 0 
L 1241 3903 
L 1241 0 
L 628 0 
L 628 4666 
z
" transform="scale(0.015625)"/>
       <path id="DejaVuSans-53" d="M 3425 4513 
L 3425 3897 
Q 3066 4069 2747 4153 
Q 2428 4238 2131 4238 
Q 1616 4238 1336 4038 
Q 1056 3838 1056 3469 
Q 1056 3159 1242 3001 
Q 1428 2844 1947 2747 
L 2328 2669 
Q 3034 2534 3370 2195 
Q 3706 1856 3706 1288 
Q 3706 609 3251 259 
Q 2797 -91 1919 -91 
Q 1588 -91 1214 -16 
Q 841 59 441 206 
L 441 856 
Q 825 641 1194 531 
Q 1563 422 1919 422 
Q 2459 422 2753 634 
Q 3047 847 3047 1241 
Q 3047 1584 2836 1778 
Q 2625 1972 2144 2069 
L 1759 2144 
Q 1053 2284 737 2584 
Q 422 2884 422 3419 
Q 422 4038 858 4394 
Q 1294 4750 2059 4750 
Q 2388 4750 2728 4690 
Q 3069 4631 3425 4513 
z
" transform="scale(0.015625)"/>
       <path id="DejaVuSans-54" d="M -19 4666 
L 3928 4666 
L 3928 4134 
L 2272 4134 
L 2272 0 
L 1638 0 
L 1638 4134 
L -19 4134 
L -19 4666 
z
" transform="scale(0.015625)"/>
       <path id="DejaVuSans-58" d="M 403 4666 
L 1081 4666 
L 2241 2931 
L 3406 4666 
L 4084 4666 
L 2584 2425 
L 4184 0 
L 3506 0 
L 2194 1984 
L 872 0 
L 191 0 
L 1856 2491 
L 403 4666 
z
" transform="scale(0.015625)"/>
       <path id="DejaVuSans-63" d="M 3122 3366 
L 3122 2828 
Q 2878 2963 2633 3030 
Q 2388 3097 2138 3097 
Q 1578 3097 1268 2742 
Q 959 2388 959 1747 
Q 959 1106 1268 751 
Q 1578 397 2138 397 
Q 2388 397 2633 464 
Q 2878 531 3122 666 
L 3122 134 
Q 2881 22 2623 -34 
Q 2366 -91 2075 -91 
Q 1284 -91 818 406 
Q 353 903 353 1747 
Q 353 2603 823 3093 
Q 1294 3584 2113 3584 
Q 2378 3584 2631 3529 
Q 2884 3475 3122 3366 
z
" transform="scale(0.015625)"/>
       <path id="DejaVuSans-65" d="M 3597 1894 
L 3597 1613 
L 953 1613 
Q 991 1019 1311 708 
Q 1631 397 2203 397 
Q 2534 397 2845 478 
Q 3156 559 3463 722 
L 3463 178 
Q 3153 47 2828 -22 
Q 2503 -91 2169 -91 
Q 1331 -91 842 396 
Q 353 884 353 1716 
Q 353 2575 817 3079 
Q 1281 3584 2069 3584 
Q 2775 3584 3186 3129 
Q 3597 2675 3597 1894 
z
M 3022 2063 
Q 3016 2534 2758 2815 
Q 2500 3097 2075 3097 
Q 1594 3097 1305 2825 
Q 1016 2553 972 2059 
L 3022 2063 
z
" transform="scale(0.015625)"/>
      </defs>
      <use xlink:href="#DejaVuSans-4e"/>
      <use xlink:href="#DejaVuSans-41" transform="translate(74.804688 0)"/>
      <use xlink:href="#DejaVuSans-53" transform="translate(143.212891 0)"/>
      <use xlink:href="#DejaVuSans-41" transform="translate(208.564453 0)"/>
      <use xlink:href="#DejaVuSans-20" transform="translate(276.972656 0)"/>
      <use xlink:href="#DejaVuSans-54" transform="translate(308.759766 0)"/>
      <use xlink:href="#DejaVuSans-4c" transform="translate(369.84375 0)"/>
      <use xlink:href="#DejaVuSans-58" transform="translate(425.556641 0)"/>
      <use xlink:href="#DejaVuSans-20" transform="translate(494.0625 0)"/>
      <use xlink:href="#DejaVuSans-53" transform="translate(525.849609 0)"/>
      <use xlink:href="#DejaVuSans-63" transform="translate(589.326172 0)"/>
      <use xlink:href="#DejaVuSans-6f" transform="translate(644.306641 0)"/>
      <use xlink:href="#DejaVuSans-72" transform="translate(705.488281 0)"/>
      <use xlink:href="#DejaVuSans-65" transform="translate(744.351562 0)"/>
     </g>
    </g>
   </g>
   <g id="LineCollection_1">
    <path d="M 106.11 96.791351 
L 139.59 96.791351 
" clip-path="url(#pb8a18c886c)" style="fill: none; stroke: #1f77b4; stroke-width: 1.5"/>
    <path d="M 189.81 108.778378 
L 223.29 108.778378 
" clip-path="url(#pb8a18c886c)" style="fill: none; stroke: #1f77b4; stroke-width: 1.5"/>
    <path d="M 273.51 66.823784 
L 306.99 66.823784 
" clip-path="url(#pb8a18c886c)" style="fill: none; stroke: #1f77b4; stroke-width: 1.5"/>
    <path d="M 357.21 66.823784 
L 390.69 66.823784 
" clip-path="url(#pb8a18c886c)" style="fill: none; stroke: #1f77b4; stroke-width: 1.5"/>
    <path d="M 440.91 114.771892 
L 474.39 114.771892 
" clip-path="url(#pb8a18c886c)" style="fill: none; stroke: #1f77b4; stroke-width: 1.5"/>
    <path d="M 524.61 66.823784 
L 558.09 66.823784 
" clip-path="url(#pb8a18c886c)" style="fill: none; stroke: #1f77b4; stroke-width: 1.5"/>
   </g>
   <g id="LineCollection_2">
    <path d="M 106.11 354.512432 
L 139.59 354.512432 
" clip-path="url(#pb8a18c886c)" style="fill: none; stroke: #1f77b4; stroke-width: 1.5"/>
    <path d="M 189.81 366.499459 
L 223.29 366.499459 
" clip-path="url(#pb8a18c886c)" style="fill: none; stroke: #1f77b4; stroke-width: 1.5"/>
    <path d="M 273.51 366.499459 
L 306.99 366.499459 
" clip-path="url(#pb8a18c886c)" style="fill: none; stroke: #1f77b4; stroke-width: 1.5"/>
    <path d="M 357.21 348.518919 
L 390.69 348.518919 
" clip-path="url(#pb8a18c886c)" style="fill: none; stroke: #1f77b4; stroke-width: 1.5"/>
    <path d="M 440.91 366.499459 
L 474.39 366.499459 
" clip-path="url(#pb8a18c886c)" style="fill: none; stroke: #1f77b4; stroke-width: 1.5"/>
    <path d="M 524.61 360.505946 
L 558.09 360.505946 
" clip-path="url(#pb8a18c886c)" style="fill: none; stroke: #1f77b4; stroke-width: 1.5"/>
   </g>
   <g id="LineCollection_3">
    <path d="M 122.85 354.512432 
L 122.85 96.791351 
" clip-path="url(#pb8a18c886c)" style="fill: none; stroke: #1f77b4; stroke-width: 1.5"/>
    <path d="M 206.55 366.499459 
L 206.55 108.778378 
" clip-path="url(#pb8a18c886c)" style="fill: none; stroke: #1f77b4; stroke-width: 1.5"/>
    <path d="M 290.25 366.499459 
L 290.25 66.823784 
" clip-path="url(#pb8a18c886c)" style="fill: none; stroke: #1f77b4; stroke-width: 1.5"/>
    <path d="M 373.95 348.518919 
L 373.95 66.823784 
" clip-path="url(#pb8a18c886c)" style="fill: none; stroke: #1f77b4; stroke-width: 1.5"/>
    <path d="M 457.65 366.499459 
L 457.65 114.771892 
" clip-path="url(#pb8a18c886c)" style="fill: none; stroke: #1f77b4; stroke-width: 1.5"/>
    <path d="M 541.35 360.505946 
L 541.35 66.823784 
" clip-path="url(#pb8a18c886c)" style="fill: none; stroke: #1f77b4; stroke-width: 1.5"/>
   </g>
   <g id="patch_3">
    <path d="M 110.295 324.544865 
L 135.405 324.544865 
L 135.405 222.655135 
L 110.295 222.655135 
L 110.295 324.544865 
z
" clip-path="url(#pb8a18c886c)" style="fill: #add8e6; stroke: #000000; stroke-linejoin: miter"/>
   </g>
   <g id="line2d_12">
    <path d="M 122.85 324.544865 
L 122.85 354.512432 
" clip-path="url(#pb8a18c886c)" style="fill: none; stroke: #000000; stroke-linecap: square"/>
   </g>
   <g id="line2d_13">
    <path d="M 122.85 222.655135 
L 122.85 96.791351 
" clip-path="url(#pb8a18c886c)" style="fill: none; stroke: #000000; stroke-linecap: square"/>
   </g>
   <g id="line2d_14">
    <path d="M 116.5725 354.512432 
L 129.1275 354.512432 
" clip-path="url(#pb8a18c886c)" style="fill: none; stroke: #000000; stroke-linecap: square"/>
   </g>
   <g id="line2d_15">
    <path d="M 116.5725 96.791351 
L 129.1275 96.791351 
" clip-path="url(#pb8a18c886c)" style="fill: none; stroke: #000000; stroke-linecap: square"/>
   </g>
   <g id="line2d_16"/>
   <g id="patch_4">
    <path d="M 193.995 348.518919 
L 219.105 348.518919 
L 219.105 138.745946 
L 193.995 138.745946 
L 193.995 348.518919 
z
" clip-path="url(#pb8a18c886c)" style="fill: #add8e6; stroke: #000000; stroke-linejoin: miter"/>
   </g>
   <g id="line2d_17">
    <path d="M 206.55 348.518919 
L 206.55 366.499459 
" clip-path="url(#pb8a18c886c)" style="fill: none; stroke: #000000; stroke-linecap: square"/>
   </g>
   <g id="line2d_18">
    <path d="M 206.55 138.745946 
L 206.55 108.778378 
" clip-path="url(#pb8a18c886c)" style="fill: none; stroke: #000000; stroke-linecap: square"/>
   </g>
   <g id="line2d_19">
    <path d="M 200.2725 366.499459 
L 212.8275 366.499459 
" clip-path="url(#pb8a18c886c)" style="fill: none; stroke: #000000; stroke-linecap: square"/>
   </g>
   <g id="line2d_20">
    <path d="M 200.2725 108.778378 
L 212.8275 108.778378 
" clip-path="url(#pb8a18c886c)" style="fill: none; stroke: #000000; stroke-linecap: square"/>
   </g>
   <g id="line2d_21"/>
   <g id="patch_5">
    <path d="M 277.695 288.583784 
L 302.805 288.583784 
L 302.805 216.661622 
L 277.695 216.661622 
L 277.695 288.583784 
z
" clip-path="url(#pb8a18c886c)" style="fill: #add8e6; stroke: #000000; stroke-linejoin: miter"/>
   </g>
   <g id="line2d_22">
    <path d="M 290.25 288.583784 
L 290.25 366.499459 
" clip-path="url(#pb8a18c886c)" style="fill: none; stroke: #000000; stroke-linecap: square"/>
   </g>
   <g id="line2d_23">
    <path d="M 290.25 216.661622 
L 290.25 156.726486 
" clip-path="url(#pb8a18c886c)" style="fill: none; stroke: #000000; stroke-linecap: square"/>
   </g>
   <g id="line2d_24">
    <path d="M 283.9725 366.499459 
L 296.5275 366.499459 
" clip-path="url(#pb8a18c886c)" style="fill: none; stroke: #000000; stroke-linecap: square"/>
   </g>
   <g id="line2d_25">
    <path d="M 283.9725 156.726486 
L 296.5275 156.726486 
" clip-path="url(#pb8a18c886c)" style="fill: none; stroke: #000000; stroke-linecap: square"/>
   </g>
   <g id="line2d_26">
    <defs>
     <path id="m3eb6794e67" d="M 0 2 
C 0.530406 2 1.03916 1.789267 1.414214 1.414214 
C 1.789267 1.03916 2 0.530406 2 0 
C 2 -0.530406 1.789267 -1.03916 1.414214 -1.414214 
C 1.03916 -1.789267 0.530406 -2 0 -2 
C -0.530406 -2 -1.03916 -1.789267 -1.414214 -1.414214 
C -1.789267 -1.03916 -2 -0.530406 -2 0 
C -2 0.530406 -1.789267 1.03916 -1.414214 1.414214 
C -1.03916 1.789267 -0.530406 2 0 2 
z
" style="stroke: #000000"/>
    </defs>
    <g clip-path="url(#pb8a18c886c)">
     <use xlink:href="#m3eb6794e67" x="290.25" y="66.823784" style="fill-opacity: 0; stroke: #000000"/>
    </g>
   </g>
   <g id="patch_6">
    <path d="M 361.395 330.538378 
L 386.505 330.538378 
L 386.505 180.700541 
L 361.395 180.700541 
L 361.395 330.538378 
z
" clip-path="url(#pb8a18c886c)" style="fill: #add8e6; stroke: #000000; stroke-linejoin: miter"/>
   </g>
   <g id="line2d_27">
    <path d="M 373.95 330.538378 
L 373.95 348.518919 
" clip-path="url(#pb8a18c886c)" style="fill: none; stroke: #000000; stroke-linecap: square"/>
   </g>
   <g id="line2d_28">
    <path d="M 373.95 180.700541 
L 373.95 66.823784 
" clip-path="url(#pb8a18c886c)" style="fill: none; stroke: #000000; stroke-linecap: square"/>
   </g>
   <g id="line2d_29">
    <path d="M 367.6725 348.518919 
L 380.2275 348.518919 
" clip-path="url(#pb8a18c886c)" style="fill: none; stroke: #000000; stroke-linecap: square"/>
   </g>
   <g id="line2d_30">
    <path d="M 367.6725 66.823784 
L 380.2275 66.823784 
" clip-path="url(#pb8a18c886c)" style="fill: none; stroke: #000000; stroke-linecap: square"/>
   </g>
   <g id="line2d_31"/>
   <g id="patch_7">
    <path d="M 445.095 318.551351 
L 470.205 318.551351 
L 470.205 216.661622 
L 445.095 216.661622 
L 445.095 318.551351 
z
" clip-path="url(#pb8a18c886c)" style="fill: #add8e6; stroke: #000000; stroke-linejoin: miter"/>
   </g>
   <g id="line2d_32">
    <path d="M 457.65 318.551351 
L 457.65 366.499459 
" clip-path="url(#pb8a18c886c)" style="fill: none; stroke: #000000; stroke-linecap: square"/>
   </g>
   <g id="line2d_33">
    <path d="M 457.65 216.661622 
L 457.65 114.771892 
" clip-path="url(#pb8a18c886c)" style="fill: none; stroke: #000000; stroke-linecap: square"/>
   </g>
   <g id="line2d_34">
    <path d="M 451.3725 366.499459 
L 463.9275 366.499459 
" clip-path="url(#pb8a18c886c)" style="fill: none; stroke: #000000; stroke-linecap: square"/>
   </g>
   <g id="line2d_35">
    <path d="M 451.3725 114.771892 
L 463.9275 114.771892 
" clip-path="url(#pb8a18c886c)" style="fill: none; stroke: #000000; stroke-linecap: square"/>
   </g>
   <g id="line2d_36"/>
   <g id="patch_8">
    <path d="M 528.795 306.564324 
L 553.905 306.564324 
L 553.905 234.642162 
L 528.795 234.642162 
L 528.795 306.564324 
z
" clip-path="url(#pb8a18c886c)" style="fill: #add8e6; stroke: #000000; stroke-linejoin: miter"/>
   </g>
   <g id="line2d_37">
    <path d="M 541.35 306.564324 
L 541.35 360.505946 
" clip-path="url(#pb8a18c886c)" style="fill: none; stroke: #000000; stroke-linecap: square"/>
   </g>
   <g id="line2d_38">
    <path d="M 541.35 234.642162 
L 541.35 162.72 
" clip-path="url(#pb8a18c886c)" style="fill: none; stroke: #000000; stroke-linecap: square"/>
   </g>
   <g id="line2d_39">
    <path d="M 535.0725 360.505946 
L 547.6275 360.505946 
" clip-path="url(#pb8a18c886c)" style="fill: none; stroke: #000000; stroke-linecap: square"/>
   </g>
   <g id="line2d_40">
    <path d="M 535.0725 162.72 
L 547.6275 162.72 
" clip-path="url(#pb8a18c886c)" style="fill: none; stroke: #000000; stroke-linecap: square"/>
   </g>
   <g id="line2d_41">
    <g clip-path="url(#pb8a18c886c)">
     <use xlink:href="#m3eb6794e67" x="541.35" y="66.823784" style="fill-opacity: 0; stroke: #000000"/>
    </g>
   </g>
   <g id="line2d_42">
    <path d="M 110.295 294.577297 
L 135.405 294.577297 
" clip-path="url(#pb8a18c886c)" style="fill: none; stroke: #000000"/>
   </g>
   <g id="line2d_43">
    <path d="M 193.995 306.564324 
L 219.105 306.564324 
" clip-path="url(#pb8a18c886c)" style="fill: none; stroke: #000000"/>
   </g>
   <g id="line2d_44">
    <path d="M 277.695 252.622703 
L 302.805 252.622703 
" clip-path="url(#pb8a18c886c)" style="fill: none; stroke: #000000"/>
   </g>
   <g id="line2d_45">
    <path d="M 361.395 270.603243 
L 386.505 270.603243 
" clip-path="url(#pb8a18c886c)" style="fill: none; stroke: #000000"/>
   </g>
   <g id="line2d_46">
    <path d="M 445.095 270.603243 
L 470.205 270.603243 
" clip-path="url(#pb8a18c886c)" style="fill: none; stroke: #000000"/>
   </g>
   <g id="line2d_47">
    <path d="M 528.795 276.596757 
L 553.905 276.596757 
" clip-path="url(#pb8a18c886c)" style="fill: none; stroke: #000000"/>
   </g>
   <g id="patch_9">
    <path d="M 81 384.48 
L 81 51.84 
" style="fill: none; stroke: #000000; stroke-width: 0.8; stroke-linejoin: miter; stroke-linecap: square"/>
   </g>
   <g id="patch_10">
    <path d="M 583.2 384.48 
L 583.2 51.84 
" style="fill: none; stroke: #000000; stroke-width: 0.8; stroke-linejoin: miter; stroke-linecap: square"/>
   </g>
   <g id="patch_11">
    <path d="M 81 384.48 
L 583.2 384.48 
" style="fill: none; stroke: #000000; stroke-width: 0.8; stroke-linejoin: miter; stroke-linecap: square"/>
   </g>
   <g id="patch_12">
    <path d="M 81 51.84 
L 583.2 51.84 
" style="fill: none; stroke: #000000; stroke-width: 0.8; stroke-linejoin: miter; stroke-linecap: square"/>
   </g>
   <g id="text_14">
    <!-- NASA TLX Distribution by Visualisation -->
    <g transform="translate(216.5025 31.84) scale(0.12 -0.12)">
     <defs>
      <path id="DejaVuSans-44" d="M 1259 4147 
L 1259 519 
L 2022 519 
Q 2988 519 3436 956 
Q 3884 1394 3884 2338 
Q 3884 3275 3436 3711 
Q 2988 4147 2022 4147 
L 1259 4147 
z
M 628 4666 
L 1925 4666 
Q 3281 4666 3915 4102 
Q 4550 3538 4550 2338 
Q 4550 1131 3912 565 
Q 3275 0 1925 0 
L 628 0 
L 628 4666 
z
" transform="scale(0.015625)"/>
      <path id="DejaVuSans-62" d="M 3116 1747 
Q 3116 2381 2855 2742 
Q 2594 3103 2138 3103 
Q 1681 3103 1420 2742 
Q 1159 2381 1159 1747 
Q 1159 1113 1420 752 
Q 1681 391 2138 391 
Q 2594 391 2855 752 
Q 3116 1113 3116 1747 
z
M 1159 2969 
Q 1341 3281 1617 3432 
Q 1894 3584 2278 3584 
Q 2916 3584 3314 3078 
Q 3713 2572 3713 1747 
Q 3713 922 3314 415 
Q 2916 -91 2278 -91 
Q 1894 -91 1617 61 
Q 1341 213 1159 525 
L 1159 0 
L 581 0 
L 581 4863 
L 1159 4863 
L 1159 2969 
z
" transform="scale(0.015625)"/>
      <path id="DejaVuSans-79" d="M 2059 -325 
Q 1816 -950 1584 -1140 
Q 1353 -1331 966 -1331 
L 506 -1331 
L 506 -850 
L 844 -850 
Q 1081 -850 1212 -737 
Q 1344 -625 1503 -206 
L 1606 56 
L 191 3500 
L 800 3500 
L 1894 763 
L 2988 3500 
L 3597 3500 
L 2059 -325 
z
" transform="scale(0.015625)"/>
     </defs>
     <use xlink:href="#DejaVuSans-4e"/>
     <use xlink:href="#DejaVuSans-41" transform="translate(74.804688 0)"/>
     <use xlink:href="#DejaVuSans-53" transform="translate(143.212891 0)"/>
     <use xlink:href="#DejaVuSans-41" transform="translate(208.564453 0)"/>
     <use xlink:href="#DejaVuSans-20" transform="translate(276.972656 0)"/>
     <use xlink:href="#DejaVuSans-54" transform="translate(308.759766 0)"/>
     <use xlink:href="#DejaVuSans-4c" transform="translate(369.84375 0)"/>
     <use xlink:href="#DejaVuSans-58" transform="translate(425.556641 0)"/>
     <use xlink:href="#DejaVuSans-20" transform="translate(494.0625 0)"/>
     <use xlink:href="#DejaVuSans-44" transform="translate(525.849609 0)"/>
     <use xlink:href="#DejaVuSans-69" transform="translate(602.851562 0)"/>
     <use xlink:href="#DejaVuSans-73" transform="translate(630.634766 0)"/>
     <use xlink:href="#DejaVuSans-74" transform="translate(682.734375 0)"/>
     <use xlink:href="#DejaVuSans-72" transform="translate(721.943359 0)"/>
     <use xlink:href="#DejaVuSans-69" transform="translate(763.056641 0)"/>
     <use xlink:href="#DejaVuSans-62" transform="translate(790.839844 0)"/>
     <use xlink:href="#DejaVuSans-75" transform="translate(854.316406 0)"/>
     <use xlink:href="#DejaVuSans-74" transform="translate(917.695312 0)"/>
     <use xlink:href="#DejaVuSans-69" transform="translate(956.904297 0)"/>
     <use xlink:href="#DejaVuSans-6f" transform="translate(984.6875 0)"/>
     <use xlink:href="#DejaVuSans-6e" transform="translate(1045.869141 0)"/>
     <use xlink:href="#DejaVuSans-20" transform="translate(1109.248047 0)"/>
     <use xlink:href="#DejaVuSans-62" transform="translate(1141.035156 0)"/>
     <use xlink:href="#DejaVuSans-79" transform="translate(1204.511719 0)"/>
     <use xlink:href="#DejaVuSans-20" transform="translate(1263.691406 0)"/>
     <use xlink:href="#DejaVuSans-56" transform="translate(1295.478516 0)"/>
     <use xlink:href="#DejaVuSans-69" transform="translate(1361.636719 0)"/>
     <use xlink:href="#DejaVuSans-73" transform="translate(1389.419922 0)"/>
     <use xlink:href="#DejaVuSans-75" transform="translate(1441.519531 0)"/>
     <use xlink:href="#DejaVuSans-61" transform="translate(1504.898438 0)"/>
     <use xlink:href="#DejaVuSans-6c" transform="translate(1566.177734 0)"/>
     <use xlink:href="#DejaVuSans-69" transform="translate(1593.960938 0)"/>
     <use xlink:href="#DejaVuSans-73" transform="translate(1621.744141 0)"/>
     <use xlink:href="#DejaVuSans-61" transform="translate(1673.84375 0)"/>
     <use xlink:href="#DejaVuSans-74" transform="translate(1735.123047 0)"/>
     <use xlink:href="#DejaVuSans-69" transform="translate(1774.332031 0)"/>
     <use xlink:href="#DejaVuSans-6f" transform="translate(1802.115234 0)"/>
     <use xlink:href="#DejaVuSans-6e" transform="translate(1863.296875 0)"/>
    </g>
   </g>
  </g>
 </g>
 <defs>
  <clipPath id="pb8a18c886c">
   <rect x="81" y="51.84" width="502.2" height="332.64"/>
  </clipPath>
 </defs>
</svg>
