<?xml version="1.0" encoding="utf-8" standalone="no"?>
<!DOCTYPE svg PUBLIC "-//W3C//DTD SVG 1.1//EN"
  "http://www.w3.org/Graphics/SVG/1.1/DTD/svg11.dtd">
<svg xmlns:xlink="http://www.w3.org/1999/xlink" width="648pt" height="432pt" viewBox="0 0 648 432" xmlns="http://www.w3.org/2000/svg" version="1.1">
 <metadata>
  <rdf:RDF xmlns:dc="http://purl.org/dc/elements/1.1/" xmlns:cc="http://creativecommons.org/ns#" xmlns:rdf="http://www.w3.org/1999/02/22-rdf-syntax-ns#">
   <cc:Work>
    <dc:type rdf:resource="http://purl.org/dc/dcmitype/StillImage"/>
    <dc:date>2026-03-02T20:43:39.124344</dc:date>
    <dc:format>image/svg+xml</dc:format>
    <dc:creator>
     <cc:Agent>
      <dc:title>Matplotlib v3.10.6, https://matplotlib.org/</dc:title>
     </cc:Agent>
    </dc:creator>
   </cc:Work>
  </rdf:RDF>
 </metadata>
 <defs>
  <style type="text/css">*{stroke-linejoin: round; stroke-linecap: butt}</style>
 </defs>
 <g id="figure_1">
  <g id="patch_1">
   <path d="M 0 432 
L 648 432 
L 648 0 
L 0 0 
z
" style="fill: #ffffff"/>
  </g>
  <g id="axes_1">
   <g id="patch_2">
    <path d="M 81 384.48 
L 583.2 384.48 
L 583.2 51.84 
L 81 51.84 
z
" style="fill: #ffffff"/>
   </g>
   <g id="FillBetweenPolyCollection_1">
    <path d="M 135.761627 345.852671 
L 109.938373 345.852671 
L 108.225044 343.690173 
L 106.436781 341.527674 
L 104.596934 339.365175 
L 102.732713 337.202677 
L 100.874591 335.040178 
L 99.055458 332.877679 
L 97.309508 330.715181 
L 95.670906 328.552682 
L 94.172298 326.390183 
L 92.843255 324.227685 
L 91.70877 322.065186 
L 90.78793 319.902687 
L 90.092887 317.740189 
L 89.628221 315.57769 
L 89.39078 313.415192 
L 89.37 311.252693 
L 89.548683 309.090194 
L 89.904163 306.927696 
L 90.409741 304.765197 
L 91.036259 302.602698 
L 91.753688 300.4402 
L 92.532588 298.277701 
L 93.345383 296.115202 
L 94.167368 293.952704 
L 94.977454 291.790205 
L 95.758665 289.627706 
L 96.498419 287.465208 
L 97.188639 285.302709 
L 97.825723 283.140211 
L 98.410398 280.977712 
L 98.94744 278.815213 
L 99.445261 276.652715 
L 99.915309 274.490216 
L 100.371293 272.327717 
L 100.828214 270.165219 
L 101.30124 268.00272 
L 101.804498 265.840221 
L 102.349877 263.677723 
L 102.945959 261.515224 
L 103.597208 259.352725 
L 104.30351 257.190227 
L 105.060149 255.027728 
L 105.858221 252.865229 
L 106.685474 250.702731 
L 107.527457 248.540232 
L 108.368869 246.377734 
L 109.194944 244.215235 
L 109.992703 242.052736 
L 110.751955 239.890238 
L 111.465931 237.727739 
L 112.131514 235.56524 
L 112.749056 233.402742 
L 113.321863 231.240243 
L 113.855415 229.077744 
L 114.356456 226.915246 
L 114.832075 224.752747 
L 115.28887 222.590248 
L 115.732301 220.42775 
L 116.166253 218.265251 
L 116.592855 216.102753 
L 117.012512 213.940254 
L 117.424121 211.777755 
L 117.825418 209.615257 
L 118.213397 207.452758 
L 118.584737 205.290259 
L 118.936205 203.127761 
L 119.264996 200.965262 
L 119.568988 198.802763 
L 119.846904 196.640265 
L 120.098394 194.477766 
L 120.324019 192.315267 
L 120.525175 190.152769 
L 120.703948 187.99027 
L 120.862923 185.827772 
L 121.004968 183.665273 
L 121.133 181.502774 
L 121.249752 179.340276 
L 121.357575 177.177777 
L 121.458263 175.015278 
L 121.552956 172.85278 
L 121.642086 170.690281 
L 121.725417 168.527782 
L 121.802136 166.365284 
L 121.871016 164.202785 
L 121.930619 162.040286 
L 121.979525 159.877788 
L 122.016556 157.715289 
L 122.040994 155.55279 
L 122.052736 153.390292 
L 122.052404 151.227793 
L 122.041374 149.065295 
L 122.021743 146.902796 
L 121.996207 144.740297 
L 121.967891 142.577799 
L 121.940133 140.4153 
L 121.916234 138.252801 
L 121.899226 136.090303 
L 121.89164 133.927804 
L 121.895341 131.765305 
L 123.804659 131.765305 
L 123.804659 131.765305 
L 123.80836 133.927804 
L 123.800774 136.090303 
L 123.783766 138.252801 
L 123.759867 140.4153 
L 123.732109 142.577799 
L 123.703793 144.740297 
L 123.678257 146.902796 
L 123.658626 149.065295 
L 123.647596 151.227793 
L 123.647264 153.390292 
L 123.659006 155.55279 
L 123.683444 157.715289 
L 123.720475 159.877788 
L 123.769381 162.040286 
L 123.828984 164.202785 
L 123.897864 166.365284 
L 123.974583 168.527782 
L 124.057914 170.690281 
L 124.147044 172.85278 
L 124.241737 175.015278 
L 124.342425 177.177777 
L 124.450248 179.340276 
L 124.567 181.502774 
L 124.695032 183.665273 
L 124.837077 185.827772 
L 124.996052 187.99027 
L 125.174825 190.152769 
L 125.375981 192.315267 
L 125.601606 194.477766 
L 125.853096 196.640265 
L 126.131012 198.802763 
L 126.435004 200.965262 
L 126.763795 203.127761 
L 127.115263 205.290259 
L 127.486603 207.452758 
L 127.874582 209.615257 
L 128.275879 211.777755 
L 128.687488 213.940254 
L 129.107145 216.102753 
L 129.533747 218.265251 
L 129.967699 220.42775 
L 130.41113 222.590248 
L 130.867925 224.752747 
L 131.343544 226.915246 
L 131.844585 229.077744 
L 132.378137 231.240243 
L 132.950944 233.402742 
L 133.568486 235.56524 
L 134.234069 237.727739 
L 134.948045 239.890238 
L 135.707297 242.052736 
L 136.505056 244.215235 
L 137.331131 246.377734 
L 138.172543 248.540232 
L 139.014526 250.702731 
L 139.841779 252.865229 
L 140.639851 255.027728 
L 141.39649 257.190227 
L 142.102792 259.352725 
L 142.754041 261.515224 
L 143.350123 263.677723 
L 143.895502 265.840221 
L 144.39876 268.00272 
L 144.871786 270.165219 
L 145.328707 272.327717 
L 145.784691 274.490216 
L 146.254739 276.652715 
L 146.75256 278.815213 
L 147.289602 280.977712 
L 147.874277 283.140211 
L 148.511361 285.302709 
L 149.201581 287.465208 
L 149.941335 289.627706 
L 150.722546 291.790205 
L 151.532632 293.952704 
L 152.354617 296.115202 
L 153.167412 298.277701 
L 153.946312 300.4402 
L 154.663741 302.602698 
L 155.290259 304.765197 
L 155.795837 306.927696 
L 156.151317 309.090194 
L 156.33 311.252693 
L 156.30922 313.415192 
L 156.071779 315.57769 
L 155.607113 317.740189 
L 154.91207 319.902687 
L 153.99123 322.065186 
L 152.856745 324.227685 
L 151.527702 326.390183 
L 150.029094 328.552682 
L 148.390492 330.715181 
L 146.644542 332.877679 
L 144.825409 335.040178 
L 142.967287 337.202677 
L 141.103066 339.365175 
L 139.263219 341.527674 
L 137.474956 343.690173 
L 135.761627 345.852671 
z
" clip-path="url(#pff96d8ea60)" style="fill: #1f77b4; fill-opacity: 0.3"/>
   </g>
   <g id="FillBetweenPolyCollection_2">
    <path d="M 214.86554 351.836307 
L 198.23446 351.836307 
L 197.322432 350.231934 
L 196.358978 348.627562 
L 195.34634 347.023189 
L 194.287238 345.418817 
L 193.184887 343.814444 
L 192.043038 342.210071 
L 190.866037 340.605699 
L 189.658898 339.001326 
L 188.427389 337.396954 
L 187.178122 335.792581 
L 185.918636 334.188208 
L 184.657453 332.583836 
L 183.404112 330.979463 
L 182.16914 329.375091 
L 180.963975 327.770718 
L 179.800811 326.166346 
L 178.692377 324.561973 
L 177.651639 322.9576 
L 176.691439 321.353228 
L 175.824075 319.748855 
L 175.06086 318.144483 
L 174.411664 316.54011 
L 173.884473 314.935737 
L 173.485 313.331365 
L 173.216369 311.726992 
L 173.078898 310.12262 
L 173.07 308.518247 
L 173.184222 306.913875 
L 173.413416 305.309502 
L 173.747042 303.705129 
L 174.172596 302.100757 
L 174.676129 300.496384 
L 175.242845 298.892012 
L 175.857725 297.287639 
L 176.50616 295.683266 
L 177.174549 294.078894 
L 177.850819 292.474521 
L 178.52486 290.870149 
L 179.188829 289.265776 
L 179.837324 287.661404 
L 180.467415 286.057031 
L 181.078533 284.452658 
L 181.672234 282.848286 
L 182.251858 281.243913 
L 182.82209 279.639541 
L 183.388484 278.035168 
L 183.956947 276.430795 
L 184.533236 274.826423 
L 185.122493 273.22205 
L 185.728837 271.617678 
L 186.355045 270.013305 
L 187.002324 268.408933 
L 187.670192 266.80456 
L 188.356469 265.200187 
L 189.057362 263.595815 
L 189.767648 261.991442 
L 190.480932 260.38707 
L 191.189957 258.782697 
L 191.886959 257.178324 
L 192.564027 255.573952 
L 193.213465 253.969579 
L 193.828129 252.365207 
L 194.401722 250.760834 
L 194.929037 249.156462 
L 195.406138 247.552089 
L 195.830479 245.947716 
L 196.200955 244.343344 
L 196.517884 242.738971 
L 196.782934 241.134599 
L 196.999001 239.530226 
L 197.170035 237.925853 
L 197.300851 236.321481 
L 197.3969 234.717108 
L 197.464052 233.112736 
L 197.508364 231.508363 
L 197.535875 229.903991 
L 197.552414 228.299618 
L 197.563443 226.695245 
L 197.573929 225.090873 
L 197.588261 223.4865 
L 197.610205 221.882128 
L 197.642886 220.277755 
L 197.688821 218.673382 
L 197.749965 217.06901 
L 197.82778 215.464637 
L 197.923325 213.860265 
L 198.037335 212.255892 
L 198.170299 210.65152 
L 198.322532 209.047147 
L 198.494213 207.442774 
L 198.685415 205.838402 
L 198.896102 204.234029 
L 199.12611 202.629657 
L 199.375104 201.025284 
L 199.642531 199.420911 
L 199.927563 197.816539 
L 200.229049 196.212166 
L 200.545471 194.607794 
L 200.874925 193.003421 
L 212.225075 193.003421 
L 212.225075 193.003421 
L 212.554529 194.607794 
L 212.870951 196.212166 
L 213.172437 197.816539 
L 213.457469 199.420911 
L 213.724896 201.025284 
L 213.97389 202.629657 
L 214.203898 204.234029 
L 214.414585 205.838402 
L 214.605787 207.442774 
L 214.777468 209.047147 
L 214.929701 210.65152 
L 215.062665 212.255892 
L 215.176675 213.860265 
L 215.27222 215.464637 
L 215.350035 217.06901 
L 215.411179 218.673382 
L 215.457114 220.277755 
L 215.489795 221.882128 
L 215.511739 223.4865 
L 215.526071 225.090873 
L 215.536557 226.695245 
L 215.547586 228.299618 
L 215.564125 229.903991 
L 215.591636 231.508363 
L 215.635948 233.112736 
L 215.7031 234.717108 
L 215.799149 236.321481 
L 215.929965 237.925853 
L 216.100999 239.530226 
L 216.317066 241.134599 
L 216.582116 242.738971 
L 216.899045 244.343344 
L 217.269521 245.947716 
L 217.693862 247.552089 
L 218.170963 249.156462 
L 218.698278 250.760834 
L 219.271871 252.365207 
L 219.886535 253.969579 
L 220.535973 255.573952 
L 221.213041 257.178324 
L 221.910043 258.782697 
L 222.619068 260.38707 
L 223.332352 261.991442 
L 224.042638 263.595815 
L 224.743531 265.200187 
L 225.429808 266.80456 
L 226.097676 268.408933 
L 226.744955 270.013305 
L 227.371163 271.617678 
L 227.977507 273.22205 
L 228.566764 274.826423 
L 229.143053 276.430795 
L 229.711516 278.035168 
L 230.27791 279.639541 
L 230.848142 281.243913 
L 231.427766 282.848286 
L 232.021467 284.452658 
L 232.632585 286.057031 
L 233.262676 287.661404 
L 233.911171 289.265776 
L 234.57514 290.870149 
L 235.249181 292.474521 
L 235.925451 294.078894 
L 236.59384 295.683266 
L 237.242275 297.287639 
L 237.857155 298.892012 
L 238.423871 300.496384 
L 238.927404 302.100757 
L 239.352958 303.705129 
L 239.686584 305.309502 
L 239.915778 306.913875 
L 240.03 308.518247 
L 240.021102 310.12262 
L 239.883631 311.726992 
L 239.615 313.331365 
L 239.215527 314.935737 
L 238.688336 316.54011 
L 238.03914 318.144483 
L 237.275925 319.748855 
L 236.408561 321.353228 
L 235.448361 322.9576 
L 234.407623 324.561973 
L 233.299189 326.166346 
L 232.136025 327.770718 
L 230.93086 329.375091 
L 229.695888 330.979463 
L 228.442547 332.583836 
L 227.181364 334.188208 
L 225.921878 335.792581 
L 224.672611 337.396954 
L 223.441102 339.001326 
L 222.233963 340.605699 
L 221.056962 342.210071 
L 219.915113 343.814444 
L 218.812762 345.418817 
L 217.75366 347.023189 
L 216.741022 348.627562 
L 215.777568 350.231934 
L 214.86554 351.836307 
z
" clip-path="url(#pff96d8ea60)" style="fill: #1f77b4; fill-opacity: 0.3"/>
   </g>
   <g id="FillBetweenPolyCollection_3">
    <path d="M 296.522431 364.950798 
L 283.977569 364.950798 
L 282.996066 361.938669 
L 281.904156 358.92654 
L 280.696453 355.914411 
L 279.370098 352.902282 
L 277.925832 349.890153 
L 276.36904 346.878025 
L 274.710614 343.865896 
L 272.967526 340.853767 
L 271.162974 337.841638 
L 269.326032 334.829509 
L 267.49076 331.81738 
L 265.694814 328.805251 
L 263.977623 325.793122 
L 262.378285 322.780993 
L 260.933343 319.768865 
L 259.674655 316.756736 
L 258.627533 313.744607 
L 257.80934 310.732478 
L 257.228667 307.720349 
L 256.885156 304.70822 
L 256.77 301.696091 
L 256.867042 298.683962 
L 257.154377 295.671833 
L 257.60629 292.659705 
L 258.195344 289.647576 
L 258.894423 286.635447 
L 259.678536 283.623318 
L 260.526236 280.611189 
L 261.420526 277.59906 
L 262.34922 274.586931 
L 263.304736 271.574802 
L 264.28341 268.562673 
L 265.284436 265.550545 
L 266.308584 262.538416 
L 267.356872 259.526287 
L 268.429354 256.514158 
L 269.524176 253.502029 
L 270.636993 250.4899 
L 271.760809 247.477771 
L 272.886222 244.465642 
L 274.002027 241.453513 
L 275.096058 238.441385 
L 276.156154 235.429256 
L 277.171096 232.417127 
L 278.13142 229.404998 
L 279.029978 226.392869 
L 279.862235 223.38074 
L 280.626265 220.368611 
L 281.322498 217.356482 
L 281.953279 214.344354 
L 282.522328 211.332225 
L 283.034183 208.320096 
L 283.4937 205.307967 
L 283.905681 202.295838 
L 284.274639 199.283709 
L 284.604722 196.27158 
L 284.899759 193.259451 
L 285.163399 190.247322 
L 285.399288 187.235194 
L 285.611237 184.223065 
L 285.803339 181.210936 
L 285.979996 178.198807 
L 286.145855 175.186678 
L 286.305637 172.174549 
L 286.463894 169.16242 
L 286.624712 166.150291 
L 286.791402 163.138162 
L 286.966226 160.126034 
L 287.150184 157.113905 
L 287.34291 154.101776 
L 287.542677 151.089647 
L 287.746528 148.077518 
L 287.950518 145.065389 
L 288.150049 142.05326 
L 288.340251 139.041131 
L 288.516394 136.029002 
L 288.674268 133.016874 
L 288.810511 130.004745 
L 288.922853 126.992616 
L 289.010248 123.980487 
L 289.072904 120.968358 
L 289.112204 117.956229 
L 289.130538 114.9441 
L 289.131071 111.931971 
L 289.117468 108.919842 
L 289.093623 105.907714 
L 289.063402 102.895585 
L 289.030438 99.883456 
L 288.997971 96.871327 
L 288.968774 93.859198 
L 288.945116 90.847069 
L 288.928785 87.83494 
L 288.921138 84.822811 
L 288.923158 81.810682 
L 288.935507 78.798554 
L 288.95856 75.786425 
L 288.992418 72.774296 
L 289.036892 69.762167 
L 289.091488 66.750038 
L 291.408512 66.750038 
L 291.408512 66.750038 
L 291.463108 69.762167 
L 291.507582 72.774296 
L 291.54144 75.786425 
L 291.564493 78.798554 
L 291.576842 81.810682 
L 291.578862 84.822811 
L 291.571215 87.83494 
L 291.554884 90.847069 
L 291.531226 93.859198 
L 291.502029 96.871327 
L 291.469562 99.883456 
L 291.436598 102.895585 
L 291.406377 105.907714 
L 291.382532 108.919842 
L 291.368929 111.931971 
L 291.369462 114.9441 
L 291.387796 117.956229 
L 291.427096 120.968358 
L 291.489752 123.980487 
L 291.577147 126.992616 
L 291.689489 130.004745 
L 291.825732 133.016874 
L 291.983606 136.029002 
L 292.159749 139.041131 
L 292.349951 142.05326 
L 292.549482 145.065389 
L 292.753472 148.077518 
L 292.957323 151.089647 
L 293.15709 154.101776 
L 293.349816 157.113905 
L 293.533774 160.126034 
L 293.708598 163.138162 
L 293.875288 166.150291 
L 294.036106 169.16242 
L 294.194363 172.174549 
L 294.354145 175.186678 
L 294.520004 178.198807 
L 294.696661 181.210936 
L 294.888763 184.223065 
L 295.100712 187.235194 
L 295.336601 190.247322 
L 295.600241 193.259451 
L 295.895278 196.27158 
L 296.225361 199.283709 
L 296.594319 202.295838 
L 297.0063 205.307967 
L 297.465817 208.320096 
L 297.977672 211.332225 
L 298.546721 214.344354 
L 299.177502 217.356482 
L 299.873735 220.368611 
L 300.637765 223.38074 
L 301.470022 226.392869 
L 302.36858 229.404998 
L 303.328904 232.417127 
L 304.343846 235.429256 
L 305.403942 238.441385 
L 306.497973 241.453513 
L 307.613778 244.465642 
L 308.739191 247.477771 
L 309.863007 250.4899 
L 310.975824 253.502029 
L 312.070646 256.514158 
L 313.143128 259.526287 
L 314.191416 262.538416 
L 315.215564 265.550545 
L 316.21659 268.562673 
L 317.195264 271.574802 
L 318.15078 274.586931 
L 319.079474 277.59906 
L 319.973764 280.611189 
L 320.821464 283.623318 
L 321.605577 286.635447 
L 322.304656 289.647576 
L 322.89371 292.659705 
L 323.345623 295.671833 
L 323.632958 298.683962 
L 323.73 301.696091 
L 323.614844 304.70822 
L 323.271333 307.720349 
L 322.69066 310.732478 
L 321.872467 313.744607 
L 320.825345 316.756736 
L 319.566657 319.768865 
L 318.121715 322.780993 
L 316.522377 325.793122 
L 314.805186 328.805251 
L 313.00924 331.81738 
L 311.173968 334.829509 
L 309.337026 337.841638 
L 307.532474 340.853767 
L 305.789386 343.865896 
L 304.13096 346.878025 
L 302.574168 349.890153 
L 301.129902 352.902282 
L 299.803547 355.914411 
L 298.595844 358.92654 
L 297.503934 361.938669 
L 296.522431 364.950798 
z
" clip-path="url(#pff96d8ea60)" style="fill: #1f77b4; fill-opacity: 0.3"/>
   </g>
   <g id="FillBetweenPolyCollection_4">
    <path d="M 381.858399 356.989748 
L 366.041601 356.989748 
L 364.855763 355.261321 
L 363.569539 353.532893 
L 362.189169 351.804465 
L 360.724135 350.076037 
L 359.187275 348.347609 
L 357.594737 346.619181 
L 355.965734 344.890754 
L 354.32209 343.162326 
L 352.687558 341.433898 
L 351.086949 339.70547 
L 349.545092 337.977042 
L 348.085693 336.248615 
L 346.730174 334.520187 
L 345.496579 332.791759 
L 344.398636 331.063331 
L 343.445078 329.334903 
L 342.639286 327.606475 
L 341.979307 325.878048 
L 341.458252 324.14962 
L 341.065074 322.421192 
L 340.785638 320.692764 
L 340.604024 318.964336 
L 340.503921 317.235908 
L 340.47 315.507481 
L 340.489151 313.779053 
L 340.551452 312.050625 
L 340.650806 310.322197 
L 340.785199 308.593769 
L 340.95656 306.865342 
L 341.170266 305.136914 
L 341.43436 303.408486 
L 341.758551 301.680058 
L 342.153128 299.95163 
L 342.627873 298.223202 
L 343.19107 296.494775 
L 343.848697 294.766347 
L 344.603837 293.037919 
L 345.456344 291.309491 
L 346.402751 289.581063 
L 347.436407 287.852636 
L 348.54779 286.124208 
L 349.724956 284.39578 
L 350.954062 282.667352 
L 352.219928 280.938924 
L 353.506571 279.210496 
L 354.797722 277.482069 
L 356.077262 275.753641 
L 357.329609 274.025213 
L 358.540037 272.296785 
L 359.694937 270.568357 
L 360.782053 268.839929 
L 361.790668 267.111502 
L 362.711797 265.383074 
L 363.538352 263.654646 
L 364.26531 261.926218 
L 364.889862 260.19779 
L 365.411539 258.469363 
L 365.832308 256.740935 
L 366.156601 255.012507 
L 366.391284 253.284079 
L 366.545522 251.555651 
L 366.630559 249.827223 
L 366.659378 248.098796 
L 366.64626 246.370368 
L 366.606257 244.64194 
L 366.554583 242.913512 
L 366.50598 241.185084 
L 366.474069 239.456656 
L 366.470757 237.728229 
L 366.505714 235.999801 
L 366.585984 234.271373 
L 366.715741 232.542945 
L 366.896219 230.814517 
L 367.12582 229.08609 
L 367.400387 227.357662 
L 367.713619 225.629234 
L 368.057593 223.900806 
L 368.423346 222.172378 
L 368.801478 220.44395 
L 369.182716 218.715523 
L 369.558412 216.987095 
L 369.920949 215.258667 
L 370.26402 213.530239 
L 370.582791 211.801811 
L 370.873957 210.073384 
L 371.135687 208.344956 
L 371.367507 206.616528 
L 371.57012 204.8881 
L 371.745204 203.159672 
L 371.895198 201.431244 
L 372.023088 199.702817 
L 372.132214 197.974389 
L 372.22609 196.245961 
L 372.308238 194.517533 
L 372.382054 192.789105 
L 372.450674 191.060677 
L 372.516874 189.33225 
L 372.582976 187.603822 
L 372.650782 185.875394 
L 375.249218 185.875394 
L 375.249218 185.875394 
L 375.317024 187.603822 
L 375.383126 189.33225 
L 375.449326 191.060677 
L 375.517946 192.789105 
L 375.591762 194.517533 
L 375.67391 196.245961 
L 375.767786 197.974389 
L 375.876912 199.702817 
L 376.004802 201.431244 
L 376.154796 203.159672 
L 376.32988 204.8881 
L 376.532493 206.616528 
L 376.764313 208.344956 
L 377.026043 210.073384 
L 377.317209 211.801811 
L 377.63598 213.530239 
L 377.979051 215.258667 
L 378.341588 216.987095 
L 378.717284 218.715523 
L 379.098522 220.44395 
L 379.476654 222.172378 
L 379.842407 223.900806 
L 380.186381 225.629234 
L 380.499613 227.357662 
L 380.77418 229.08609 
L 381.003781 230.814517 
L 381.184259 232.542945 
L 381.314016 234.271373 
L 381.394286 235.999801 
L 381.429243 237.728229 
L 381.425931 239.456656 
L 381.39402 241.185084 
L 381.345417 242.913512 
L 381.293743 244.64194 
L 381.25374 246.370368 
L 381.240622 248.098796 
L 381.269441 249.827223 
L 381.354478 251.555651 
L 381.508716 253.284079 
L 381.743399 255.012507 
L 382.067692 256.740935 
L 382.488461 258.469363 
L 383.010138 260.19779 
L 383.63469 261.926218 
L 384.361648 263.654646 
L 385.188203 265.383074 
L 386.109332 267.111502 
L 387.117947 268.839929 
L 388.205063 270.568357 
L 389.359963 272.296785 
L 390.570391 274.025213 
L 391.822738 275.753641 
L 393.102278 277.482069 
L 394.393429 279.210496 
L 395.680072 280.938924 
L 396.945938 282.667352 
L 398.175044 284.39578 
L 399.35221 286.124208 
L 400.463593 287.852636 
L 401.497249 289.581063 
L 402.443656 291.309491 
L 403.296163 293.037919 
L 404.051303 294.766347 
L 404.70893 296.494775 
L 405.272127 298.223202 
L 405.746872 299.95163 
L 406.141449 301.680058 
L 406.46564 303.408486 
L 406.729734 305.136914 
L 406.94344 306.865342 
L 407.114801 308.593769 
L 407.249194 310.322197 
L 407.348548 312.050625 
L 407.410849 313.779053 
L 407.43 315.507481 
L 407.396079 317.235908 
L 407.295976 318.964336 
L 407.114362 320.692764 
L 406.834926 322.421192 
L 406.441748 324.14962 
L 405.920693 325.878048 
L 405.260714 327.606475 
L 404.454922 329.334903 
L 403.501364 331.063331 
L 402.403421 332.791759 
L 401.169826 334.520187 
L 399.814307 336.248615 
L 398.354908 337.977042 
L 396.813051 339.70547 
L 395.212442 341.433898 
L 393.57791 343.162326 
L 391.934266 344.890754 
L 390.305263 346.619181 
L 388.712725 348.347609 
L 387.175865 350.076037 
L 385.710831 351.804465 
L 384.330461 353.532893 
L 383.044237 355.261321 
L 381.858399 356.989748 
z
" clip-path="url(#pff96d8ea60)" style="fill: #1f77b4; fill-opacity: 0.3"/>
   </g>
   <g id="FillBetweenPolyCollection_5">
    <path d="M 465.057472 363.311721 
L 450.242528 363.311721 
L 449.068688 360.699871 
L 447.789844 358.088021 
L 446.412362 355.476171 
L 444.94648 352.864321 
L 443.406488 350.252471 
L 441.810628 347.640621 
L 440.180629 345.028771 
L 438.540864 342.416921 
L 436.917161 339.80507 
L 435.335342 337.19322 
L 433.819656 334.58137 
L 432.391268 331.96952 
L 431.067021 329.35767 
L 429.858643 326.74582 
L 428.77253 324.13397 
L 427.810171 321.52212 
L 426.969162 318.91027 
L 426.244676 316.29842 
L 425.631189 313.68657 
L 425.124176 311.07472 
L 424.721543 308.46287 
L 424.424538 305.85102 
L 424.238016 303.23917 
L 424.17 300.62732 
L 424.230605 298.01547 
L 424.430497 295.40362 
L 424.779117 292.79177 
L 425.282936 290.17992 
L 425.944012 287.56807 
L 426.759024 284.95622 
L 427.718941 282.34437 
L 428.809313 279.73252 
L 430.011149 277.12067 
L 431.302214 274.50882 
L 432.658568 271.89697 
L 434.056129 269.28512 
L 435.472076 266.67327 
L 436.885934 264.06142 
L 438.280268 261.44957 
L 439.640942 258.83772 
L 440.956995 256.22587 
L 442.220211 253.61402 
L 443.424501 251.00217 
L 444.565214 248.39032 
L 445.638498 245.77847 
L 446.640811 243.16662 
L 447.56864 240.55477 
L 448.41845 237.94292 
L 449.186874 235.33107 
L 449.871083 232.719219 
L 450.46929 230.107369 
L 450.981294 227.495519 
L 451.40899 224.883669 
L 451.756748 222.271819 
L 452.031609 219.659969 
L 452.24323 217.048119 
L 452.40358 214.436269 
L 452.526369 211.824419 
L 452.626289 209.212569 
L 452.718096 206.600719 
L 452.815652 203.988869 
L 452.931007 201.377019 
L 453.07362 198.765169 
L 453.2498 196.153319 
L 453.462417 193.541469 
L 453.710913 190.929619 
L 453.991588 188.317769 
L 454.298138 185.705919 
L 454.622358 183.094069 
L 454.954933 180.482219 
L 455.286242 177.870369 
L 455.607074 175.258519 
L 455.909217 172.646669 
L 456.185866 170.034819 
L 456.431839 167.422969 
L 456.643627 164.811119 
L 456.819284 162.199269 
L 456.958223 159.587419 
L 457.060955 156.975569 
L 457.12882 154.363719 
L 457.163744 151.751869 
L 457.168061 149.140019 
L 457.144401 146.528169 
L 457.095641 143.916319 
L 457.024921 141.304469 
L 456.935685 138.692619 
L 456.831737 136.080769 
L 456.717271 133.468919 
L 456.596865 130.857069 
L 456.475418 128.245219 
L 456.358015 125.633369 
L 456.249747 123.021518 
L 456.155465 120.409668 
L 456.079528 117.797818 
L 456.025537 115.185968 
L 455.996111 112.574118 
L 455.992712 109.962268 
L 456.015554 107.350418 
L 456.063595 104.738568 
L 459.236405 104.738568 
L 459.236405 104.738568 
L 459.284446 107.350418 
L 459.307288 109.962268 
L 459.303889 112.574118 
L 459.274463 115.185968 
L 459.220472 117.797818 
L 459.144535 120.409668 
L 459.050253 123.021518 
L 458.941985 125.633369 
L 458.824582 128.245219 
L 458.703135 130.857069 
L 458.582729 133.468919 
L 458.468263 136.080769 
L 458.364315 138.692619 
L 458.275079 141.304469 
L 458.204359 143.916319 
L 458.155599 146.528169 
L 458.131939 149.140019 
L 458.136256 151.751869 
L 458.17118 154.363719 
L 458.239045 156.975569 
L 458.341777 159.587419 
L 458.480716 162.199269 
L 458.656373 164.811119 
L 458.868161 167.422969 
L 459.114134 170.034819 
L 459.390783 172.646669 
L 459.692926 175.258519 
L 460.013758 177.870369 
L 460.345067 180.482219 
L 460.677642 183.094069 
L 461.001862 185.705919 
L 461.308412 188.317769 
L 461.589087 190.929619 
L 461.837583 193.541469 
L 462.0502 196.153319 
L 462.22638 198.765169 
L 462.368993 201.377019 
L 462.484348 203.988869 
L 462.581904 206.600719 
L 462.673711 209.212569 
L 462.773631 211.824419 
L 462.89642 214.436269 
L 463.05677 217.048119 
L 463.268391 219.659969 
L 463.543252 222.271819 
L 463.89101 224.883669 
L 464.318706 227.495519 
L 464.83071 230.107369 
L 465.428917 232.719219 
L 466.113126 235.33107 
L 466.88155 237.94292 
L 467.73136 240.55477 
L 468.659189 243.16662 
L 469.661502 245.77847 
L 470.734786 248.39032 
L 471.875499 251.00217 
L 473.079789 253.61402 
L 474.343005 256.22587 
L 475.659058 258.83772 
L 477.019732 261.44957 
L 478.414066 264.06142 
L 479.827924 266.67327 
L 481.243871 269.28512 
L 482.641432 271.89697 
L 483.997786 274.50882 
L 485.288851 277.12067 
L 486.490687 279.73252 
L 487.581059 282.34437 
L 488.540976 284.95622 
L 489.355988 287.56807 
L 490.017064 290.17992 
L 490.520883 292.79177 
L 490.869503 295.40362 
L 491.069395 298.01547 
L 491.13 300.62732 
L 491.061984 303.23917 
L 490.875462 305.85102 
L 490.578457 308.46287 
L 490.175824 311.07472 
L 489.668811 313.68657 
L 489.055324 316.29842 
L 488.330838 318.91027 
L 487.489829 321.52212 
L 486.52747 324.13397 
L 485.441357 326.74582 
L 484.232979 329.35767 
L 482.908732 331.96952 
L 481.480344 334.58137 
L 479.964658 337.19322 
L 478.382839 339.80507 
L 476.759136 342.416921 
L 475.119371 345.028771 
L 473.489372 347.640621 
L 471.893512 350.252471 
L 470.35352 352.864321 
L 468.887638 355.476171 
L 467.510156 358.088021 
L 466.231312 360.699871 
L 465.057472 363.311721 
z
" clip-path="url(#pff96d8ea60)" style="fill: #1f77b4; fill-opacity: 0.3"/>
   </g>
   <g id="FillBetweenPolyCollection_6">
    <path d="M 551.393552 351.04371 
L 531.306448 351.04371 
L 530.443756 349.959884 
L 529.573038 348.876058 
L 528.699519 347.792232 
L 527.827786 346.708406 
L 526.961624 345.62458 
L 526.103889 344.540754 
L 525.256441 343.456928 
L 524.420129 342.373101 
L 523.594839 341.289275 
L 522.779599 340.205449 
L 521.972747 339.121623 
L 521.172146 338.037797 
L 520.375433 336.953971 
L 519.580303 335.870145 
L 518.784801 334.786319 
L 517.987606 333.702493 
L 517.18829 332.618667 
L 516.387545 331.53484 
L 515.587338 330.451014 
L 514.791006 329.367188 
L 514.003266 328.283362 
L 513.230135 327.199536 
L 512.478769 326.11571 
L 511.757212 325.031884 
L 511.074081 323.948058 
L 510.438196 322.864232 
L 509.858176 321.780405 
L 509.342028 320.696579 
L 508.896748 319.612753 
L 508.527977 318.528927 
L 508.239717 317.445101 
L 508.03413 316.361275 
L 507.911452 315.277449 
L 507.87 314.193623 
L 507.906298 313.109797 
L 508.015293 312.025971 
L 508.190662 310.942144 
L 508.425166 309.858318 
L 508.71105 308.774492 
L 509.040439 307.690666 
L 509.405713 306.60684 
L 509.799828 305.523014 
L 510.216578 304.439188 
L 510.65076 303.355362 
L 511.098268 302.271536 
L 511.556086 301.18771 
L 512.022222 300.103883 
L 512.495571 299.020057 
L 512.975751 297.936231 
L 513.462915 296.852405 
L 513.957575 295.768579 
L 514.460439 294.684753 
L 514.972295 293.600927 
L 515.493924 292.517101 
L 516.026062 291.433275 
L 516.569396 290.349449 
L 517.124583 289.265622 
L 517.69228 288.181796 
L 518.273173 287.09797 
L 518.867985 286.014144 
L 519.477462 284.930318 
L 520.10232 283.846492 
L 520.743167 282.762666 
L 521.400386 281.67884 
L 522.074007 280.595014 
L 522.763573 279.511188 
L 523.46801 278.427361 
L 524.18553 277.343535 
L 524.913564 276.259709 
L 525.648752 275.175883 
L 526.386982 274.092057 
L 527.123495 273.008231 
L 527.853031 271.924405 
L 528.570027 270.840579 
L 529.268849 269.756753 
L 529.944034 268.672927 
L 530.59054 267.5891 
L 531.203972 266.505274 
L 531.780789 265.421448 
L 532.318459 264.337622 
L 532.815564 263.253796 
L 533.271851 262.16997 
L 533.688221 261.086144 
L 534.066658 260.002318 
L 534.410113 258.918492 
L 534.722339 257.834666 
L 535.007693 256.750839 
L 535.270919 255.667013 
L 535.516924 254.583187 
L 535.750548 253.499361 
L 535.976363 252.415535 
L 536.198482 251.331709 
L 536.42041 250.247883 
L 536.644936 249.164057 
L 536.874053 248.080231 
L 537.108942 246.996405 
L 537.349977 245.912578 
L 537.596782 244.828752 
L 537.848314 243.744926 
L 544.851686 243.744926 
L 544.851686 243.744926 
L 545.103218 244.828752 
L 545.350023 245.912578 
L 545.591058 246.996405 
L 545.825947 248.080231 
L 546.055064 249.164057 
L 546.27959 250.247883 
L 546.501518 251.331709 
L 546.723637 252.415535 
L 546.949452 253.499361 
L 547.183076 254.583187 
L 547.429081 255.667013 
L 547.692307 256.750839 
L 547.977661 257.834666 
L 548.289887 258.918492 
L 548.633342 260.002318 
L 549.011779 261.086144 
L 549.428149 262.16997 
L 549.884436 263.253796 
L 550.381541 264.337622 
L 550.919211 265.421448 
L 551.496028 266.505274 
L 552.10946 267.5891 
L 552.755966 268.672927 
L 553.431151 269.756753 
L 554.129973 270.840579 
L 554.846969 271.924405 
L 555.576505 273.008231 
L 556.313018 274.092057 
L 557.051248 275.175883 
L 557.786436 276.259709 
L 558.51447 277.343535 
L 559.23199 278.427361 
L 559.936427 279.511188 
L 560.625993 280.595014 
L 561.299614 281.67884 
L 561.956833 282.762666 
L 562.59768 283.846492 
L 563.222538 284.930318 
L 563.832015 286.014144 
L 564.426827 287.09797 
L 565.00772 288.181796 
L 565.575417 289.265622 
L 566.130604 290.349449 
L 566.673938 291.433275 
L 567.206076 292.517101 
L 567.727705 293.600927 
L 568.239561 294.684753 
L 568.742425 295.768579 
L 569.237085 296.852405 
L 569.724249 297.936231 
L 570.204429 299.020057 
L 570.677778 300.103883 
L 571.143914 301.18771 
L 571.601732 302.271536 
L 572.04924 303.355362 
L 572.483422 304.439188 
L 572.900172 305.523014 
L 573.294287 306.60684 
L 573.659561 307.690666 
L 573.98895 308.774492 
L 574.274834 309.858318 
L 574.509338 310.942144 
L 574.684707 312.025971 
L 574.793702 313.109797 
L 574.83 314.193623 
L 574.788548 315.277449 
L 574.66587 316.361275 
L 574.460283 317.445101 
L 574.172023 318.528927 
L 573.803252 319.612753 
L 573.357972 320.696579 
L 572.841824 321.780405 
L 572.261804 322.864232 
L 571.625919 323.948058 
L 570.942788 325.031884 
L 570.221231 326.11571 
L 569.469865 327.199536 
L 568.696734 328.283362 
L 567.908994 329.367188 
L 567.112662 330.451014 
L 566.312455 331.53484 
L 565.51171 332.618667 
L 564.712394 333.702493 
L 563.915199 334.786319 
L 563.119697 335.870145 
L 562.324567 336.953971 
L 561.527854 338.037797 
L 560.727253 339.121623 
L 559.920401 340.205449 
L 559.105161 341.289275 
L 558.279871 342.373101 
L 557.443559 343.456928 
L 556.596111 344.540754 
L 555.738376 345.62458 
L 554.872214 346.708406 
L 554.000481 347.792232 
L 553.126962 348.876058 
L 552.256244 349.959884 
L 551.393552 351.04371 
z
" clip-path="url(#pff96d8ea60)" style="fill: #1f77b4; fill-opacity: 0.3"/>
   </g>
   <g id="matplotlib.axis_1">
    <g id="xtick_1">
     <g id="line2d_1">
      <defs>
       <path id="mff1ef8e8e4" d="M 0 0 
L 0 3.5 
" style="stroke: #000000; stroke-width: 0.8"/>
      </defs>
      <g>
       <use xlink:href="#mff1ef8e8e4" x="122.85" y="384.48" style="stroke: #000000; stroke-width: 0.8"/>
      </g>
     </g>
     <g id="text_1">
      <!-- Arrow -->
      <g transform="translate(111.26625 397.55875) scale(0.08 -0.08)">
       <defs>
        <path id="DejaVuSans-41" d="M 2188 4044 
L 1331 1722 
L 3047 1722 
L 2188 4044 
z
M 1831 4666 
L 2547 4666 
L 4325 0 
L 3669 0 
L 3244 1197 
L 1141 1197 
L 716 0 
L 50 0 
L 1831 4666 
z
" transform="scale(0.015625)"/>
        <path id="DejaVuSans-72" d="M 2631 2963 
Q 2534 3019 2420 3045 
Q 2306 3072 2169 3072 
Q 1681 3072 1420 2755 
Q 1159 2438 1159 1844 
L 1159 0 
L 581 0 
L 581 3500 
L 1159 3500 
L 1159 2956 
Q 1341 3275 1631 3429 
Q 1922 3584 2338 3584 
Q 2397 3584 2469 3576 
Q 2541 3569 2628 3553 
L 2631 2963 
z
" transform="scale(0.015625)"/>
        <path id="DejaVuSans-6f" d="M 1959 3097 
Q 1497 3097 1228 2736 
Q 959 2375 959 1747 
Q 959 1119 1226 758 
Q 1494 397 1959 397 
Q 2419 397 2687 759 
Q 2956 1122 2956 1747 
Q 2956 2369 2687 2733 
Q 2419 3097 1959 3097 
z
M 1959 3584 
Q 2709 3584 3137 3096 
Q 3566 2609 3566 1747 
Q 3566 888 3137 398 
Q 2709 -91 1959 -91 
Q 1206 -91 779 398 
Q 353 888 353 1747 
Q 353 2609 779 3096 
Q 1206 3584 1959 3584 
z
" transform="scale(0.015625)"/>
        <path id="DejaVuSans-77" d="M 269 3500 
L 844 3500 
L 1563 769 
L 2278 3500 
L 2956 3500 
L 3675 769 
L 4391 3500 
L 4966 3500 
L 4050 0 
L 3372 0 
L 2619 2869 
L 1863 0 
L 1184 0 
L 269 3500 
z
" transform="scale(0.015625)"/>
       </defs>
       <use xlink:href="#DejaVuSans-41"/>
       <use xlink:href="#DejaVuSans-72" transform="translate(68.408203 0)"/>
       <use xlink:href="#DejaVuSans-72" transform="translate(107.771484 0)"/>
       <use xlink:href="#DejaVuSans-6f" transform="translate(146.634766 0)"/>
       <use xlink:href="#DejaVuSans-77" transform="translate(207.816406 0)"/>
      </g>
     </g>
    </g>
    <g id="xtick_2">
     <g id="line2d_2">
      <g>
       <use xlink:href="#mff1ef8e8e4" x="206.55" y="384.48" style="stroke: #000000; stroke-width: 0.8"/>
      </g>
     </g>
     <g id="text_2">
      <!-- Radar -->
      <g transform="translate(194.774375 397.55875) scale(0.08 -0.08)">
       <defs>
        <path id="DejaVuSans-52" d="M 2841 2188 
Q 3044 2119 3236 1894 
Q 3428 1669 3622 1275 
L 4263 0 
L 3584 0 
L 2988 1197 
Q 2756 1666 2539 1819 
Q 2322 1972 1947 1972 
L 1259 1972 
L 1259 0 
L 628 0 
L 628 4666 
L 2053 4666 
Q 2853 4666 3247 4331 
Q 3641 3997 3641 3322 
Q 3641 2881 3436 2590 
Q 3231 2300 2841 2188 
z
M 1259 4147 
L 1259 2491 
L 2053 2491 
Q 2509 2491 2742 2702 
Q 2975 2913 2975 3322 
Q 2975 3731 2742 3939 
Q 2509 4147 2053 4147 
L 1259 4147 
z
" transform="scale(0.015625)"/>
        <path id="DejaVuSans-61" d="M 2194 1759 
Q 1497 1759 1228 1600 
Q 959 1441 959 1056 
Q 959 750 1161 570 
Q 1363 391 1709 391 
Q 2188 391 2477 730 
Q 2766 1069 2766 1631 
L 2766 1759 
L 2194 1759 
z
M 3341 1997 
L 3341 0 
L 2766 0 
L 2766 531 
Q 2569 213 2275 61 
Q 1981 -91 1556 -91 
Q 1019 -91 701 211 
Q 384 513 384 1019 
Q 384 1609 779 1909 
Q 1175 2209 1959 2209 
L 2766 2209 
L 2766 2266 
Q 2766 2663 2505 2880 
Q 2244 3097 1772 3097 
Q 1472 3097 1187 3025 
Q 903 2953 641 2809 
L 641 3341 
Q 956 3463 1253 3523 
Q 1550 3584 1831 3584 
Q 2591 3584 2966 3190 
Q 3341 2797 3341 1997 
z
" transform="scale(0.015625)"/>
        <path id="DejaVuSans-64" d="M 2906 2969 
L 2906 4863 
L 3481 4863 
L 3481 0 
L 2906 0 
L 2906 525 
Q 2725 213 2448 61 
Q 2172 -91 1784 -91 
Q 1150 -91 751 415 
Q 353 922 353 1747 
Q 353 2572 751 3078 
Q 1150 3584 1784 3584 
Q 2172 3584 2448 3432 
Q 2725 3281 2906 2969 
z
M 947 1747 
Q 947 1113 1208 752 
Q 1469 391 1925 391 
Q 2381 391 2643 752 
Q 2906 1113 2906 1747 
Q 2906 2381 2643 2742 
Q 2381 3103 1925 3103 
Q 1469 3103 1208 2742 
Q 947 2381 947 1747 
z
" transform="scale(0.015625)"/>
       </defs>
       <use xlink:href="#DejaVuSans-52"/>
       <use xlink:href="#DejaVuSans-61" transform="translate(67.232422 0)"/>
       <use xlink:href="#DejaVuSans-64" transform="translate(128.511719 0)"/>
       <use xlink:href="#DejaVuSans-61" transform="translate(191.988281 0)"/>
       <use xlink:href="#DejaVuSans-72" transform="translate(253.267578 0)"/>
      </g>
     </g>
    </g>
    <g id="xtick_3">
     <g id="line2d_3">
      <g>
       <use xlink:href="#mff1ef8e8e4" x="290.25" y="384.48" style="stroke: #000000; stroke-width: 0.8"/>
      </g>
     </g>
     <g id="text_3">
      <!-- Lights -->
      <g transform="translate(278.18375 397.55875) scale(0.08 -0.08)">
       <defs>
        <path id="DejaVuSans-4c" d="M 628 4666 
L 1259 4666 
L 1259 531 
L 3531 531 
L 3531 0 
L 628 0 
L 628 4666 
z
" transform="scale(0.015625)"/>
        <path id="DejaVuSans-69" d="M 603 3500 
L 1178 3500 
L 1178 0 
L 603 0 
L 603 3500 
z
M 603 4863 
L 1178 4863 
L 1178 4134 
L 603 4134 
L 603 4863 
z
" transform="scale(0.015625)"/>
        <path id="DejaVuSans-67" d="M 2906 1791 
Q 2906 2416 2648 2759 
Q 2391 3103 1925 3103 
Q 1463 3103 1205 2759 
Q 947 2416 947 1791 
Q 947 1169 1205 825 
Q 1463 481 1925 481 
Q 2391 481 2648 825 
Q 2906 1169 2906 1791 
z
M 3481 434 
Q 3481 -459 3084 -895 
Q 2688 -1331 1869 -1331 
Q 1566 -1331 1297 -1286 
Q 1028 -1241 775 -1147 
L 775 -588 
Q 1028 -725 1275 -790 
Q 1522 -856 1778 -856 
Q 2344 -856 2625 -561 
Q 2906 -266 2906 331 
L 2906 616 
Q 2728 306 2450 153 
Q 2172 0 1784 0 
Q 1141 0 747 490 
Q 353 981 353 1791 
Q 353 2603 747 3093 
Q 1141 3584 1784 3584 
Q 2172 3584 2450 3431 
Q 2728 3278 2906 2969 
L 2906 3500 
L 3481 3500 
L 3481 434 
z
" transform="scale(0.015625)"/>
        <path id="DejaVuSans-68" d="M 3513 2113 
L 3513 0 
L 2938 0 
L 2938 2094 
Q 2938 2591 2744 2837 
Q 2550 3084 2163 3084 
Q 1697 3084 1428 2787 
Q 1159 2491 1159 1978 
L 1159 0 
L 581 0 
L 581 4863 
L 1159 4863 
L 1159 2956 
Q 1366 3272 1645 3428 
Q 1925 3584 2291 3584 
Q 2894 3584 3203 3211 
Q 3513 2838 3513 2113 
z
" transform="scale(0.015625)"/>
        <path id="DejaVuSans-74" d="M 1172 4494 
L 1172 3500 
L 2356 3500 
L 2356 3053 
L 1172 3053 
L 1172 1153 
Q 1172 725 1289 603 
Q 1406 481 1766 481 
L 2356 481 
L 2356 0 
L 1766 0 
Q 1100 0 847 248 
Q 594 497 594 1153 
L 594 3053 
L 172 3053 
L 172 3500 
L 594 3500 
L 594 4494 
L 1172 4494 
z
" transform="scale(0.015625)"/>
        <path id="DejaVuSans-73" d="M 2834 3397 
L 2834 2853 
Q 2591 2978 2328 3040 
Q 2066 3103 1784 3103 
Q 1356 3103 1142 2972 
Q 928 2841 928 2578 
Q 928 2378 1081 2264 
Q 1234 2150 1697 2047 
L 1894 2003 
Q 2506 1872 2764 1633 
Q 3022 1394 3022 966 
Q 3022 478 2636 193 
Q 2250 -91 1575 -91 
Q 1294 -91 989 -36 
Q 684 19 347 128 
L 347 722 
Q 666 556 975 473 
Q 1284 391 1588 391 
Q 1994 391 2212 530 
Q 2431 669 2431 922 
Q 2431 1156 2273 1281 
Q 2116 1406 1581 1522 
L 1381 1569 
Q 847 1681 609 1914 
Q 372 2147 372 2553 
Q 372 3047 722 3315 
Q 1072 3584 1716 3584 
Q 2034 3584 2315 3537 
Q 2597 3491 2834 3397 
z
" transform="scale(0.015625)"/>
       </defs>
       <use xlink:href="#DejaVuSans-4c"/>
       <use xlink:href="#DejaVuSans-69" transform="translate(55.712891 0)"/>
       <use xlink:href="#DejaVuSans-67" transform="translate(83.496094 0)"/>
       <use xlink:href="#DejaVuSans-68" transform="translate(146.972656 0)"/>
       <use xlink:href="#DejaVuSans-74" transform="translate(210.351562 0)"/>
       <use xlink:href="#DejaVuSans-73" transform="translate(249.560547 0)"/>
      </g>
     </g>
    </g>
    <g id="xtick_4">
     <g id="line2d_4">
      <g>
       <use xlink:href="#mff1ef8e8e4" x="373.95" y="384.48" style="stroke: #000000; stroke-width: 0.8"/>
      </g>
     </g>
     <g id="text_4">
      <!-- Arrow &amp; Radar -->
      <g transform="translate(344.92875 397.55875) scale(0.08 -0.08)">
       <defs>
        <path id="DejaVuSans-20" transform="scale(0.015625)"/>
        <path id="DejaVuSans-26" d="M 1556 2509 
Q 1272 2256 1139 2004 
Q 1006 1753 1006 1478 
Q 1006 1022 1337 719 
Q 1669 416 2169 416 
Q 2466 416 2725 514 
Q 2984 613 3213 813 
L 1556 2509 
z
M 1997 2859 
L 3584 1234 
Q 3769 1513 3872 1830 
Q 3975 2147 3994 2503 
L 4575 2503 
Q 4538 2091 4375 1687 
Q 4213 1284 3922 891 
L 4794 0 
L 4006 0 
L 3559 459 
Q 3234 181 2878 45 
Q 2522 -91 2113 -91 
Q 1359 -91 881 339 
Q 403 769 403 1441 
Q 403 1841 612 2192 
Q 822 2544 1241 2853 
Q 1091 3050 1012 3245 
Q 934 3441 934 3628 
Q 934 4134 1281 4442 
Q 1628 4750 2203 4750 
Q 2463 4750 2720 4694 
Q 2978 4638 3244 4525 
L 3244 3956 
Q 2972 4103 2725 4179 
Q 2478 4256 2266 4256 
Q 1938 4256 1733 4082 
Q 1528 3909 1528 3634 
Q 1528 3475 1620 3314 
Q 1713 3153 1997 2859 
z
" transform="scale(0.015625)"/>
       </defs>
       <use xlink:href="#DejaVuSans-41"/>
       <use xlink:href="#DejaVuSans-72" transform="translate(68.408203 0)"/>
       <use xlink:href="#DejaVuSans-72" transform="translate(107.771484 0)"/>
       <use xlink:href="#DejaVuSans-6f" transform="translate(146.634766 0)"/>
       <use xlink:href="#DejaVuSans-77" transform="translate(207.816406 0)"/>
       <use xlink:href="#DejaVuSans-20" transform="translate(289.603516 0)"/>
       <use xlink:href="#DejaVuSans-26" transform="translate(321.390625 0)"/>
       <use xlink:href="#DejaVuSans-20" transform="translate(399.369141 0)"/>
       <use xlink:href="#DejaVuSans-52" transform="translate(431.15625 0)"/>
       <use xlink:href="#DejaVuSans-61" transform="translate(498.388672 0)"/>
       <use xlink:href="#DejaVuSans-64" transform="translate(559.667969 0)"/>
       <use xlink:href="#DejaVuSans-61" transform="translate(623.144531 0)"/>
       <use xlink:href="#DejaVuSans-72" transform="translate(684.423828 0)"/>
      </g>
     </g>
    </g>
    <g id="xtick_5">
     <g id="line2d_5">
      <g>
       <use xlink:href="#mff1ef8e8e4" x="457.65" y="384.48" style="stroke: #000000; stroke-width: 0.8"/>
      </g>
     </g>
     <g id="text_5">
      <!-- Arrow &amp; Lights -->
      <g transform="translate(428.338125 397.55875) scale(0.08 -0.08)">
       <use xlink:href="#DejaVuSans-41"/>
       <use xlink:href="#DejaVuSans-72" transform="translate(68.408203 0)"/>
       <use xlink:href="#DejaVuSans-72" transform="translate(107.771484 0)"/>
       <use xlink:href="#DejaVuSans-6f" transform="translate(146.634766 0)"/>
       <use xlink:href="#DejaVuSans-77" transform="translate(207.816406 0)"/>
       <use xlink:href="#DejaVuSans-20" transform="translate(289.603516 0)"/>
       <use xlink:href="#DejaVuSans-26" transform="translate(321.390625 0)"/>
       <use xlink:href="#DejaVuSans-20" transform="translate(399.369141 0)"/>
       <use xlink:href="#DejaVuSans-4c" transform="translate(431.15625 0)"/>
       <use xlink:href="#DejaVuSans-69" transform="translate(486.869141 0)"/>
       <use xlink:href="#DejaVuSans-67" transform="translate(514.652344 0)"/>
       <use xlink:href="#DejaVuSans-68" transform="translate(578.128906 0)"/>
       <use xlink:href="#DejaVuSans-74" transform="translate(641.507812 0)"/>
       <use xlink:href="#DejaVuSans-73" transform="translate(680.716797 0)"/>
      </g>
     </g>
    </g>
    <g id="xtick_6">
     <g id="line2d_6">
      <g>
       <use xlink:href="#mff1ef8e8e4" x="541.35" y="384.48" style="stroke: #000000; stroke-width: 0.8"/>
      </g>
     </g>
     <g id="text_6">
      <!-- Lights &amp; Radar -->
      <g transform="translate(511.84625 397.55875) scale(0.08 -0.08)">
       <use xlink:href="#DejaVuSans-4c"/>
       <use xlink:href="#DejaVuSans-69" transform="translate(55.712891 0)"/>
       <use xlink:href="#DejaVuSans-67" transform="translate(83.496094 0)"/>
       <use xlink:href="#DejaVuSans-68" transform="translate(146.972656 0)"/>
       <use xlink:href="#DejaVuSans-74" transform="translate(210.351562 0)"/>
       <use xlink:href="#DejaVuSans-73" transform="translate(249.560547 0)"/>
       <use xlink:href="#DejaVuSans-20" transform="translate(301.660156 0)"/>
       <use xlink:href="#DejaVuSans-26" transform="translate(333.447266 0)"/>
       <use xlink:href="#DejaVuSans-20" transform="translate(411.425781 0)"/>
       <use xlink:href="#DejaVuSans-52" transform="translate(443.212891 0)"/>
       <use xlink:href="#DejaVuSans-61" transform="translate(510.445312 0)"/>
       <use xlink:href="#DejaVuSans-64" transform="translate(571.724609 0)"/>
       <use xlink:href="#DejaVuSans-61" transform="translate(635.201172 0)"/>
       <use xlink:href="#DejaVuSans-72" transform="translate(696.480469 0)"/>
      </g>
     </g>
    </g>
    <g id="text_7">
     <!-- Visualization -->
     <g transform="translate(300.521875 416.820938) scale(0.1 -0.1)">
      <defs>
       <path id="DejaVuSans-56" d="M 1831 0 
L 50 4666 
L 709 4666 
L 2188 738 
L 3669 4666 
L 4325 4666 
L 2547 0 
L 1831 0 
z
" transform="scale(0.015625)"/>
       <path id="DejaVuSans-75" d="M 544 1381 
L 544 3500 
L 1119 3500 
L 1119 1403 
Q 1119 906 1312 657 
Q 1506 409 1894 409 
Q 2359 409 2629 706 
Q 2900 1003 2900 1516 
L 2900 3500 
L 3475 3500 
L 3475 0 
L 2900 0 
L 2900 538 
Q 2691 219 2414 64 
Q 2138 -91 1772 -91 
Q 1169 -91 856 284 
Q 544 659 544 1381 
z
M 1991 3584 
L 1991 3584 
z
" transform="scale(0.015625)"/>
       <path id="DejaVuSans-6c" d="M 603 4863 
L 1178 4863 
L 1178 0 
L 603 0 
L 603 4863 
z
" transform="scale(0.015625)"/>
       <path id="DejaVuSans-7a" d="M 353 3500 
L 3084 3500 
L 3084 2975 
L 922 459 
L 3084 459 
L 3084 0 
L 275 0 
L 275 525 
L 2438 3041 
L 353 3041 
L 353 3500 
z
" transform="scale(0.015625)"/>
       <path id="DejaVuSans-6e" d="M 3513 2113 
L 3513 0 
L 2938 0 
L 2938 2094 
Q 2938 2591 2744 2837 
Q 2550 3084 2163 3084 
Q 1697 3084 1428 2787 
Q 1159 2491 1159 1978 
L 1159 0 
L 581 0 
L 581 3500 
L 1159 3500 
L 1159 2956 
Q 1366 3272 1645 3428 
Q 1925 3584 2291 3584 
Q 2894 3584 3203 3211 
Q 3513 2838 3513 2113 
z
" transform="scale(0.015625)"/>
      </defs>
      <use xlink:href="#DejaVuSans-56"/>
      <use xlink:href="#DejaVuSans-69" transform="translate(66.158203 0)"/>
      <use xlink:href="#DejaVuSans-73" transform="translate(93.941406 0)"/>
      <use xlink:href="#DejaVuSans-75" transform="translate(146.041016 0)"/>
      <use xlink:href="#DejaVuSans-61" transform="translate(209.419922 0)"/>
      <use xlink:href="#DejaVuSans-6c" transform="translate(270.699219 0)"/>
      <use xlink:href="#DejaVuSans-69" transform="translate(298.482422 0)"/>
      <use xlink:href="#DejaVuSans-7a" transform="translate(326.265625 0)"/>
      <use xlink:href="#DejaVuSans-61" transform="translate(378.755859 0)"/>
      <use xlink:href="#DejaVuSans-74" transform="translate(440.035156 0)"/>
      <use xlink:href="#DejaVuSans-69" transform="translate(479.244141 0)"/>
      <use xlink:href="#DejaVuSans-6f" transform="translate(507.027344 0)"/>
      <use xlink:href="#DejaVuSans-6e" transform="translate(568.208984 0)"/>
     </g>
    </g>
   </g>
   <g id="matplotlib.axis_2">
    <g id="ytick_1">
     <g id="line2d_7">
      <defs>
       <path id="m86a779a33f" d="M 0 0 
L -3.5 0 
" style="stroke: #000000; stroke-width: 0.8"/>
      </defs>
      <g>
       <use xlink:href="#m86a779a33f" x="81" y="384.48" style="stroke: #000000; stroke-width: 0.8"/>
      </g>
     </g>
     <g id="text_8">
      <!-- 0 -->
      <g transform="translate(67.6375 388.279219) scale(0.1 -0.1)">
       <defs>
        <path id="DejaVuSans-30" d="M 2034 4250 
Q 1547 4250 1301 3770 
Q 1056 3291 1056 2328 
Q 1056 1369 1301 889 
Q 1547 409 2034 409 
Q 2525 409 2770 889 
Q 3016 1369 3016 2328 
Q 3016 3291 2770 3770 
Q 2525 4250 2034 4250 
z
M 2034 4750 
Q 2819 4750 3233 4129 
Q 3647 3509 3647 2328 
Q 3647 1150 3233 529 
Q 2819 -91 2034 -91 
Q 1250 -91 836 529 
Q 422 1150 422 2328 
Q 422 3509 836 4129 
Q 1250 4750 2034 4750 
z
" transform="scale(0.015625)"/>
       </defs>
       <use xlink:href="#DejaVuSans-30"/>
      </g>
     </g>
    </g>
    <g id="ytick_2">
     <g id="line2d_8">
      <g>
       <use xlink:href="#m86a779a33f" x="81" y="333.152333" style="stroke: #000000; stroke-width: 0.8"/>
      </g>
     </g>
     <g id="text_9">
      <!-- 10 -->
      <g transform="translate(61.275 336.951552) scale(0.1 -0.1)">
       <defs>
        <path id="DejaVuSans-31" d="M 794 531 
L 1825 531 
L 1825 4091 
L 703 3866 
L 703 4441 
L 1819 4666 
L 2450 4666 
L 2450 531 
L 3481 531 
L 3481 0 
L 794 0 
L 794 531 
z
" transform="scale(0.015625)"/>
       </defs>
       <use xlink:href="#DejaVuSans-31"/>
       <use xlink:href="#DejaVuSans-30" transform="translate(63.623047 0)"/>
      </g>
     </g>
    </g>
    <g id="ytick_3">
     <g id="line2d_9">
      <g>
       <use xlink:href="#m86a779a33f" x="81" y="281.824666" style="stroke: #000000; stroke-width: 0.8"/>
      </g>
     </g>
     <g id="text_10">
      <!-- 20 -->
      <g transform="translate(61.275 285.623885) scale(0.1 -0.1)">
       <defs>
        <path id="DejaVuSans-32" d="M 1228 531 
L 3431 531 
L 3431 0 
L 469 0 
L 469 531 
Q 828 903 1448 1529 
Q 2069 2156 2228 2338 
Q 2531 2678 2651 2914 
Q 2772 3150 2772 3378 
Q 2772 3750 2511 3984 
Q 2250 4219 1831 4219 
Q 1534 4219 1204 4116 
Q 875 4013 500 3803 
L 500 4441 
Q 881 4594 1212 4672 
Q 1544 4750 1819 4750 
Q 2544 4750 2975 4387 
Q 3406 4025 3406 3419 
Q 3406 3131 3298 2873 
Q 3191 2616 2906 2266 
Q 2828 2175 2409 1742 
Q 1991 1309 1228 531 
z
" transform="scale(0.015625)"/>
       </defs>
       <use xlink:href="#DejaVuSans-32"/>
       <use xlink:href="#DejaVuSans-30" transform="translate(63.623047 0)"/>
      </g>
     </g>
    </g>
    <g id="ytick_4">
     <g id="line2d_10">
      <g>
       <use xlink:href="#m86a779a33f" x="81" y="230.496999" style="stroke: #000000; stroke-width: 0.8"/>
      </g>
     </g>
     <g id="text_11">
      <!-- 30 -->
      <g transform="translate(61.275 234.296217) scale(0.1 -0.1)">
       <defs>
        <path id="DejaVuSans-33" d="M 2597 2516 
Q 3050 2419 3304 2112 
Q 3559 1806 3559 1356 
Q 3559 666 3084 287 
Q 2609 -91 1734 -91 
Q 1441 -91 1130 -33 
Q 819 25 488 141 
L 488 750 
Q 750 597 1062 519 
Q 1375 441 1716 441 
Q 2309 441 2620 675 
Q 2931 909 2931 1356 
Q 2931 1769 2642 2001 
Q 2353 2234 1838 2234 
L 1294 2234 
L 1294 2753 
L 1863 2753 
Q 2328 2753 2575 2939 
Q 2822 3125 2822 3475 
Q 2822 3834 2567 4026 
Q 2313 4219 1838 4219 
Q 1578 4219 1281 4162 
Q 984 4106 628 3988 
L 628 4550 
Q 988 4650 1302 4700 
Q 1616 4750 1894 4750 
Q 2613 4750 3031 4423 
Q 3450 4097 3450 3541 
Q 3450 3153 3228 2886 
Q 3006 2619 2597 2516 
z
" transform="scale(0.015625)"/>
       </defs>
       <use xlink:href="#DejaVuSans-33"/>
       <use xlink:href="#DejaVuSans-30" transform="translate(63.623047 0)"/>
      </g>
     </g>
    </g>
    <g id="ytick_5">
     <g id="line2d_11">
      <g>
       <use xlink:href="#m86a779a33f" x="81" y="179.169332" style="stroke: #000000; stroke-width: 0.8"/>
      </g>
     </g>
     <g id="text_12">
      <!-- 40 -->
      <g transform="translate(61.275 182.96855) scale(0.1 -0.1)">
       <defs>
        <path id="DejaVuSans-34" d="M 2419 4116 
L 825 1625 
L 2419 1625 
L 2419 4116 
z
M 2253 4666 
L 3047 4666 
L 3047 1625 
L 3713 1625 
L 3713 1100 
L 3047 1100 
L 3047 0 
L 2419 0 
L 2419 1100 
L 313 1100 
L 313 1709 
L 2253 4666 
z
" transform="scale(0.015625)"/>
       </defs>
       <use xlink:href="#DejaVuSans-34"/>
       <use xlink:href="#DejaVuSans-30" transform="translate(63.623047 0)"/>
      </g>
     </g>
    </g>
    <g id="ytick_6">
     <g id="line2d_12">
      <g>
       <use xlink:href="#m86a779a33f" x="81" y="127.841665" style="stroke: #000000; stroke-width: 0.8"/>
      </g>
     </g>
     <g id="text_13">
      <!-- 50 -->
      <g transform="translate(61.275 131.640883) scale(0.1 -0.1)">
       <defs>
        <path id="DejaVuSans-35" d="M 691 4666 
L 3169 4666 
L 3169 4134 
L 1269 4134 
L 1269 2991 
Q 1406 3038 1543 3061 
Q 1681 3084 1819 3084 
Q 2600 3084 3056 2656 
Q 3513 2228 3513 1497 
Q 3513 744 3044 326 
Q 2575 -91 1722 -91 
Q 1428 -91 1123 -41 
Q 819 9 494 109 
L 494 744 
Q 775 591 1075 516 
Q 1375 441 1709 441 
Q 2250 441 2565 725 
Q 2881 1009 2881 1497 
Q 2881 1984 2565 2268 
Q 2250 2553 1709 2553 
Q 1456 2553 1204 2497 
Q 953 2441 691 2322 
L 691 4666 
z
" transform="scale(0.015625)"/>
       </defs>
       <use xlink:href="#DejaVuSans-35"/>
       <use xlink:href="#DejaVuSans-30" transform="translate(63.623047 0)"/>
      </g>
     </g>
    </g>
    <g id="ytick_7">
     <g id="line2d_13">
      <g>
       <use xlink:href="#m86a779a33f" x="81" y="76.513997" style="stroke: #000000; stroke-width: 0.8"/>
      </g>
     </g>
     <g id="text_14">
      <!-- 60 -->
      <g transform="translate(61.275 80.313216) scale(0.1 -0.1)">
       <defs>
        <path id="DejaVuSans-36" d="M 2113 2584 
Q 1688 2584 1439 2293 
Q 1191 2003 1191 1497 
Q 1191 994 1439 701 
Q 1688 409 2113 409 
Q 2538 409 2786 701 
Q 3034 994 3034 1497 
Q 3034 2003 2786 2293 
Q 2538 2584 2113 2584 
z
M 3366 4563 
L 3366 3988 
Q 3128 4100 2886 4159 
Q 2644 4219 2406 4219 
Q 1781 4219 1451 3797 
Q 1122 3375 1075 2522 
Q 1259 2794 1537 2939 
Q 1816 3084 2150 3084 
Q 2853 3084 3261 2657 
Q 3669 2231 3669 1497 
Q 3669 778 3244 343 
Q 2819 -91 2113 -91 
Q 1303 -91 875 529 
Q 447 1150 447 2328 
Q 447 3434 972 4092 
Q 1497 4750 2381 4750 
Q 2619 4750 2861 4703 
Q 3103 4656 3366 4563 
z
" transform="scale(0.015625)"/>
       </defs>
       <use xlink:href="#DejaVuSans-36"/>
       <use xlink:href="#DejaVuSans-30" transform="translate(63.623047 0)"/>
      </g>
     </g>
    </g>
    <g id="text_15">
     <!-- Response Time -->
     <g transform="translate(49.195312 255.996719) rotate(-90) scale(0.1 -0.1)">
      <defs>
       <path id="DejaVuSans-65" d="M 3597 1894 
L 3597 1613 
L 953 1613 
Q 991 1019 1311 708 
Q 1631 397 2203 397 
Q 2534 397 2845 478 
Q 3156 559 3463 722 
L 3463 178 
Q 3153 47 2828 -22 
Q 2503 -91 2169 -91 
Q 1331 -91 842 396 
Q 353 884 353 1716 
Q 353 2575 817 3079 
Q 1281 3584 2069 3584 
Q 2775 3584 3186 3129 
Q 3597 2675 3597 1894 
z
M 3022 2063 
Q 3016 2534 2758 2815 
Q 2500 3097 2075 3097 
Q 1594 3097 1305 2825 
Q 1016 2553 972 2059 
L 3022 2063 
z
" transform="scale(0.015625)"/>
       <path id="DejaVuSans-70" d="M 1159 525 
L 1159 -1331 
L 581 -1331 
L 581 3500 
L 1159 3500 
L 1159 2969 
Q 1341 3281 1617 3432 
Q 1894 3584 2278 3584 
Q 2916 3584 3314 3078 
Q 3713 2572 3713 1747 
Q 3713 922 3314 415 
Q 2916 -91 2278 -91 
Q 1894 -91 1617 61 
Q 1341 213 1159 525 
z
M 3116 1747 
Q 3116 2381 2855 2742 
Q 2594 3103 2138 3103 
Q 1681 3103 1420 2742 
Q 1159 2381 1159 1747 
Q 1159 1113 1420 752 
Q 1681 391 2138 391 
Q 2594 391 2855 752 
Q 3116 1113 3116 1747 
z
" transform="scale(0.015625)"/>
       <path id="DejaVuSans-54" d="M -19 4666 
L 3928 4666 
L 3928 4134 
L 2272 4134 
L 2272 0 
L 1638 0 
L 1638 4134 
L -19 4134 
L -19 4666 
z
" transform="scale(0.015625)"/>
       <path id="DejaVuSans-6d" d="M 3328 2828 
Q 3544 3216 3844 3400 
Q 4144 3584 4550 3584 
Q 5097 3584 5394 3201 
Q 5691 2819 5691 2113 
L 5691 0 
L 5113 0 
L 5113 2094 
Q 5113 2597 4934 2840 
Q 4756 3084 4391 3084 
Q 3944 3084 3684 2787 
Q 3425 2491 3425 1978 
L 3425 0 
L 2847 0 
L 2847 2094 
Q 2847 2600 2669 2842 
Q 2491 3084 2119 3084 
Q 1678 3084 1418 2786 
Q 1159 2488 1159 1978 
L 1159 0 
L 581 0 
L 581 3500 
L 1159 3500 
L 1159 2956 
Q 1356 3278 1631 3431 
Q 1906 3584 2284 3584 
Q 2666 3584 2933 3390 
Q 3200 3197 3328 2828 
z
" transform="scale(0.015625)"/>
      </defs>
      <use xlink:href="#DejaVuSans-52"/>
      <use xlink:href="#DejaVuSans-65" transform="translate(64.982422 0)"/>
      <use xlink:href="#DejaVuSans-73" transform="translate(126.505859 0)"/>
      <use xlink:href="#DejaVuSans-70" transform="translate(178.605469 0)"/>
      <use xlink:href="#DejaVuSans-6f" transform="translate(242.082031 0)"/>
      <use xlink:href="#DejaVuSans-6e" transform="translate(303.263672 0)"/>
      <use xlink:href="#DejaVuSans-73" transform="translate(366.642578 0)"/>
      <use xlink:href="#DejaVuSans-65" transform="translate(418.742188 0)"/>
      <use xlink:href="#DejaVuSans-20" transform="translate(480.265625 0)"/>
      <use xlink:href="#DejaVuSans-54" transform="translate(512.052734 0)"/>
      <use xlink:href="#DejaVuSans-69" transform="translate(570.011719 0)"/>
      <use xlink:href="#DejaVuSans-6d" transform="translate(597.794922 0)"/>
      <use xlink:href="#DejaVuSans-65" transform="translate(695.207031 0)"/>
     </g>
    </g>
   </g>
   <g id="LineCollection_1">
    <path d="M 106.11 131.765305 
L 139.59 131.765305 
" clip-path="url(#pff96d8ea60)" style="fill: none; stroke: #1f77b4; stroke-width: 1.5"/>
    <path d="M 189.81 193.003421 
L 223.29 193.003421 
" clip-path="url(#pff96d8ea60)" style="fill: none; stroke: #1f77b4; stroke-width: 1.5"/>
    <path d="M 273.51 66.750038 
L 306.99 66.750038 
" clip-path="url(#pff96d8ea60)" style="fill: none; stroke: #1f77b4; stroke-width: 1.5"/>
    <path d="M 357.21 185.875394 
L 390.69 185.875394 
" clip-path="url(#pff96d8ea60)" style="fill: none; stroke: #1f77b4; stroke-width: 1.5"/>
    <path d="M 440.91 104.738568 
L 474.39 104.738568 
" clip-path="url(#pff96d8ea60)" style="fill: none; stroke: #1f77b4; stroke-width: 1.5"/>
    <path d="M 524.61 243.744926 
L 558.09 243.744926 
" clip-path="url(#pff96d8ea60)" style="fill: none; stroke: #1f77b4; stroke-width: 1.5"/>
   </g>
   <g id="LineCollection_2">
    <path d="M 106.11 345.852671 
L 139.59 345.852671 
" clip-path="url(#pff96d8ea60)" style="fill: none; stroke: #1f77b4; stroke-width: 1.5"/>
    <path d="M 189.81 351.836307 
L 223.29 351.836307 
" clip-path="url(#pff96d8ea60)" style="fill: none; stroke: #1f77b4; stroke-width: 1.5"/>
    <path d="M 273.51 364.950798 
L 306.99 364.950798 
" clip-path="url(#pff96d8ea60)" style="fill: none; stroke: #1f77b4; stroke-width: 1.5"/>
    <path d="M 357.21 356.989748 
L 390.69 356.989748 
" clip-path="url(#pff96d8ea60)" style="fill: none; stroke: #1f77b4; stroke-width: 1.5"/>
    <path d="M 440.91 363.311721 
L 474.39 363.311721 
" clip-path="url(#pff96d8ea60)" style="fill: none; stroke: #1f77b4; stroke-width: 1.5"/>
    <path d="M 524.61 351.04371 
L 558.09 351.04371 
" clip-path="url(#pff96d8ea60)" style="fill: none; stroke: #1f77b4; stroke-width: 1.5"/>
   </g>
   <g id="LineCollection_3">
    <path d="M 122.85 345.852671 
L 122.85 131.765305 
" clip-path="url(#pff96d8ea60)" style="fill: none; stroke: #1f77b4; stroke-width: 1.5"/>
    <path d="M 206.55 351.836307 
L 206.55 193.003421 
" clip-path="url(#pff96d8ea60)" style="fill: none; stroke: #1f77b4; stroke-width: 1.5"/>
    <path d="M 290.25 364.950798 
L 290.25 66.750038 
" clip-path="url(#pff96d8ea60)" style="fill: none; stroke: #1f77b4; stroke-width: 1.5"/>
    <path d="M 373.95 356.989748 
L 373.95 185.875394 
" clip-path="url(#pff96d8ea60)" style="fill: none; stroke: #1f77b4; stroke-width: 1.5"/>
    <path d="M 457.65 363.311721 
L 457.65 104.738568 
" clip-path="url(#pff96d8ea60)" style="fill: none; stroke: #1f77b4; stroke-width: 1.5"/>
    <path d="M 541.35 351.04371 
L 541.35 243.744926 
" clip-path="url(#pff96d8ea60)" style="fill: none; stroke: #1f77b4; stroke-width: 1.5"/>
   </g>
   <g id="patch_3">
    <path d="M 110.295 318.072021 
L 135.405 318.072021 
L 135.405 261.621544 
L 110.295 261.621544 
L 110.295 318.072021 
z
" clip-path="url(#pff96d8ea60)" style="fill: #add8e6; stroke: #000000; stroke-linejoin: miter"/>
   </g>
   <g id="line2d_14">
    <path d="M 122.85 318.072021 
L 122.85 345.852671 
" clip-path="url(#pff96d8ea60)" style="fill: none; stroke: #000000; stroke-linecap: square"/>
   </g>
   <g id="line2d_15">
    <path d="M 122.85 261.621544 
L 122.85 200.277475 
" clip-path="url(#pff96d8ea60)" style="fill: none; stroke: #000000; stroke-linecap: square"/>
   </g>
   <g id="line2d_16">
    <path d="M 116.5725 345.852671 
L 129.1275 345.852671 
" clip-path="url(#pff96d8ea60)" style="fill: none; stroke: #000000; stroke-linecap: square"/>
   </g>
   <g id="line2d_17">
    <path d="M 116.5725 200.277475 
L 129.1275 200.277475 
" clip-path="url(#pff96d8ea60)" style="fill: none; stroke: #000000; stroke-linecap: square"/>
   </g>
   <g id="line2d_18">
    <defs>
     <path id="m5029e9f692" d="M 0 2 
C 0.530406 2 1.03916 1.789267 1.414214 1.414214 
C 1.789267 1.03916 2 0.530406 2 0 
C 2 -0.530406 1.789267 -1.03916 1.414214 -1.414214 
C 1.03916 -1.789267 0.530406 -2 0 -2 
C -0.530406 -2 -1.03916 -1.789267 -1.414214 -1.414214 
C -1.789267 -1.03916 -2 -0.530406 -2 0 
C -2 0.530406 -1.789267 1.03916 -1.414214 1.414214 
C -1.03916 1.789267 -0.530406 2 0 2 
z
" style="stroke: #000000"/>
    </defs>
    <g clip-path="url(#pff96d8ea60)">
     <use xlink:href="#m5029e9f692" x="122.85" y="176.171385" style="fill-opacity: 0; stroke: #000000"/>
     <use xlink:href="#m5029e9f692" x="122.85" y="131.765305" style="fill-opacity: 0; stroke: #000000"/>
    </g>
   </g>
   <g id="patch_4">
    <path d="M 193.995 314.593314 
L 219.105 314.593314 
L 219.105 266.761163 
L 193.995 266.761163 
L 193.995 314.593314 
z
" clip-path="url(#pff96d8ea60)" style="fill: #add8e6; stroke: #000000; stroke-linejoin: miter"/>
   </g>
   <g id="line2d_19">
    <path d="M 206.55 314.593314 
L 206.55 351.836307 
" clip-path="url(#pff96d8ea60)" style="fill: none; stroke: #000000; stroke-linecap: square"/>
   </g>
   <g id="line2d_20">
    <path d="M 206.55 266.761163 
L 206.55 195.785637 
" clip-path="url(#pff96d8ea60)" style="fill: none; stroke: #000000; stroke-linecap: square"/>
   </g>
   <g id="line2d_21">
    <path d="M 200.2725 351.836307 
L 212.8275 351.836307 
" clip-path="url(#pff96d8ea60)" style="fill: none; stroke: #000000; stroke-linecap: square"/>
   </g>
   <g id="line2d_22">
    <path d="M 200.2725 195.785637 
L 212.8275 195.785637 
" clip-path="url(#pff96d8ea60)" style="fill: none; stroke: #000000; stroke-linecap: square"/>
   </g>
   <g id="line2d_23">
    <g clip-path="url(#pff96d8ea60)">
     <use xlink:href="#m5029e9f692" x="206.55" y="193.003421" style="fill-opacity: 0; stroke: #000000"/>
     <use xlink:href="#m5029e9f692" x="206.55" y="194.137198" style="fill-opacity: 0; stroke: #000000"/>
    </g>
   </g>
   <g id="patch_5">
    <path d="M 277.695 313.474781 
L 302.805 313.474781 
L 302.805 257.605988 
L 277.695 257.605988 
L 277.695 313.474781 
z
" clip-path="url(#pff96d8ea60)" style="fill: #add8e6; stroke: #000000; stroke-linejoin: miter"/>
   </g>
   <g id="line2d_24">
    <path d="M 290.25 313.474781 
L 290.25 364.950798 
" clip-path="url(#pff96d8ea60)" style="fill: none; stroke: #000000; stroke-linecap: square"/>
   </g>
   <g id="line2d_25">
    <path d="M 290.25 257.605988 
L 290.25 187.240043 
" clip-path="url(#pff96d8ea60)" style="fill: none; stroke: #000000; stroke-linecap: square"/>
   </g>
   <g id="line2d_26">
    <path d="M 283.9725 364.950798 
L 296.5275 364.950798 
" clip-path="url(#pff96d8ea60)" style="fill: none; stroke: #000000; stroke-linecap: square"/>
   </g>
   <g id="line2d_27">
    <path d="M 283.9725 187.240043 
L 296.5275 187.240043 
" clip-path="url(#pff96d8ea60)" style="fill: none; stroke: #000000; stroke-linecap: square"/>
   </g>
   <g id="line2d_28">
    <g clip-path="url(#pff96d8ea60)">
     <use xlink:href="#m5029e9f692" x="290.25" y="161.703399" style="fill-opacity: 0; stroke: #000000"/>
     <use xlink:href="#m5029e9f692" x="290.25" y="168.34099" style="fill-opacity: 0; stroke: #000000"/>
     <use xlink:href="#m5029e9f692" x="290.25" y="66.750038" style="fill-opacity: 0; stroke: #000000"/>
     <use xlink:href="#m5029e9f692" x="290.25" y="98.345502" style="fill-opacity: 0; stroke: #000000"/>
     <use xlink:href="#m5029e9f692" x="290.25" y="151.270897" style="fill-opacity: 0; stroke: #000000"/>
    </g>
   </g>
   <g id="patch_6">
    <path d="M 361.395 326.315334 
L 386.505 326.315334 
L 386.505 285.13267 
L 361.395 285.13267 
L 361.395 326.315334 
z
" clip-path="url(#pff96d8ea60)" style="fill: #add8e6; stroke: #000000; stroke-linejoin: miter"/>
   </g>
   <g id="line2d_29">
    <path d="M 373.95 326.315334 
L 373.95 356.989748 
" clip-path="url(#pff96d8ea60)" style="fill: none; stroke: #000000; stroke-linecap: square"/>
   </g>
   <g id="line2d_30">
    <path d="M 373.95 285.13267 
L 373.95 227.080988 
" clip-path="url(#pff96d8ea60)" style="fill: none; stroke: #000000; stroke-linecap: square"/>
   </g>
   <g id="line2d_31">
    <path d="M 367.6725 356.989748 
L 380.2275 356.989748 
" clip-path="url(#pff96d8ea60)" style="fill: none; stroke: #000000; stroke-linecap: square"/>
   </g>
   <g id="line2d_32">
    <path d="M 367.6725 227.080988 
L 380.2275 227.080988 
" clip-path="url(#pff96d8ea60)" style="fill: none; stroke: #000000; stroke-linecap: square"/>
   </g>
   <g id="line2d_33">
    <g clip-path="url(#pff96d8ea60)">
     <use xlink:href="#m5029e9f692" x="373.95" y="185.875394" style="fill-opacity: 0; stroke: #000000"/>
     <use xlink:href="#m5029e9f692" x="373.95" y="208.281101" style="fill-opacity: 0; stroke: #000000"/>
    </g>
   </g>
   <g id="patch_7">
    <path d="M 445.095 324.143198 
L 470.205 324.143198 
L 470.205 274.418661 
L 445.095 274.418661 
L 445.095 324.143198 
z
" clip-path="url(#pff96d8ea60)" style="fill: #add8e6; stroke: #000000; stroke-linejoin: miter"/>
   </g>
   <g id="line2d_34">
    <path d="M 457.65 324.143198 
L 457.65 363.311721 
" clip-path="url(#pff96d8ea60)" style="fill: none; stroke: #000000; stroke-linecap: square"/>
   </g>
   <g id="line2d_35">
    <path d="M 457.65 274.418661 
L 457.65 200.057536 
" clip-path="url(#pff96d8ea60)" style="fill: none; stroke: #000000; stroke-linecap: square"/>
   </g>
   <g id="line2d_36">
    <path d="M 451.3725 363.311721 
L 463.9275 363.311721 
" clip-path="url(#pff96d8ea60)" style="fill: none; stroke: #000000; stroke-linecap: square"/>
   </g>
   <g id="line2d_37">
    <path d="M 451.3725 200.057536 
L 463.9275 200.057536 
" clip-path="url(#pff96d8ea60)" style="fill: none; stroke: #000000; stroke-linecap: square"/>
   </g>
   <g id="line2d_38">
    <g clip-path="url(#pff96d8ea60)">
     <use xlink:href="#m5029e9f692" x="457.65" y="194.426019" style="fill-opacity: 0; stroke: #000000"/>
     <use xlink:href="#m5029e9f692" x="457.65" y="198.946036" style="fill-opacity: 0; stroke: #000000"/>
     <use xlink:href="#m5029e9f692" x="457.65" y="117.094934" style="fill-opacity: 0; stroke: #000000"/>
     <use xlink:href="#m5029e9f692" x="457.65" y="195.211743" style="fill-opacity: 0; stroke: #000000"/>
     <use xlink:href="#m5029e9f692" x="457.65" y="104.738568" style="fill-opacity: 0; stroke: #000000"/>
    </g>
   </g>
   <g id="patch_8">
    <path d="M 528.795 324.222948 
L 553.905 324.222948 
L 553.905 291.984464 
L 528.795 291.984464 
L 528.795 324.222948 
z
" clip-path="url(#pff96d8ea60)" style="fill: #add8e6; stroke: #000000; stroke-linejoin: miter"/>
   </g>
   <g id="line2d_39">
    <path d="M 541.35 324.222948 
L 541.35 351.04371 
" clip-path="url(#pff96d8ea60)" style="fill: none; stroke: #000000; stroke-linecap: square"/>
   </g>
   <g id="line2d_40">
    <path d="M 541.35 291.984464 
L 541.35 243.744926 
" clip-path="url(#pff96d8ea60)" style="fill: none; stroke: #000000; stroke-linecap: square"/>
   </g>
   <g id="line2d_41">
    <path d="M 535.0725 351.04371 
L 547.6275 351.04371 
" clip-path="url(#pff96d8ea60)" style="fill: none; stroke: #000000; stroke-linecap: square"/>
   </g>
   <g id="line2d_42">
    <path d="M 535.0725 243.744926 
L 547.6275 243.744926 
" clip-path="url(#pff96d8ea60)" style="fill: none; stroke: #000000; stroke-linecap: square"/>
   </g>
   <g id="line2d_43"/>
   <g id="line2d_44">
    <path d="M 110.295 296.230161 
L 135.405 296.230161 
" clip-path="url(#pff96d8ea60)" style="fill: none; stroke: #000000"/>
   </g>
   <g id="line2d_45">
    <path d="M 193.995 300.017809 
L 219.105 300.017809 
" clip-path="url(#pff96d8ea60)" style="fill: none; stroke: #000000"/>
   </g>
   <g id="line2d_46">
    <path d="M 277.695 291.152879 
L 302.805 291.152879 
" clip-path="url(#pff96d8ea60)" style="fill: none; stroke: #000000"/>
   </g>
   <g id="line2d_47">
    <path d="M 361.395 303.946865 
L 386.505 303.946865 
" clip-path="url(#pff96d8ea60)" style="fill: none; stroke: #000000"/>
   </g>
   <g id="line2d_48">
    <path d="M 445.095 293.269709 
L 470.205 293.269709 
" clip-path="url(#pff96d8ea60)" style="fill: none; stroke: #000000"/>
   </g>
   <g id="line2d_49">
    <path d="M 528.795 310.350325 
L 553.905 310.350325 
" clip-path="url(#pff96d8ea60)" style="fill: none; stroke: #000000"/>
   </g>
   <g id="patch_9">
    <path d="M 81 384.48 
L 81 51.84 
" style="fill: none; stroke: #000000; stroke-width: 0.8; stroke-linejoin: miter; stroke-linecap: square"/>
   </g>
   <g id="patch_10">
    <path d="M 583.2 384.48 
L 583.2 51.84 
" style="fill: none; stroke: #000000; stroke-width: 0.8; stroke-linejoin: miter; stroke-linecap: square"/>
   </g>
   <g id="patch_11">
    <path d="M 81 384.48 
L 583.2 384.48 
" style="fill: none; stroke: #000000; stroke-width: 0.8; stroke-linejoin: miter; stroke-linecap: square"/>
   </g>
   <g id="patch_12">
    <path d="M 81 51.84 
L 583.2 51.84 
" style="fill: none; stroke: #000000; stroke-width: 0.8; stroke-linejoin: miter; stroke-linecap: square"/>
   </g>
   <g id="text_16">
    <!-- Distance Distribution by Visualization -->
    <g transform="translate(219.887813 31.84) scale(0.12 -0.12)">
     <defs>
      <path id="DejaVuSans-44" d="M 1259 4147 
L 1259 519 
L 2022 519 
Q 2988 519 3436 956 
Q 3884 1394 3884 2338 
Q 3884 3275 3436 3711 
Q 2988 4147 2022 4147 
L 1259 4147 
z
M 628 4666 
L 1925 4666 
Q 3281 4666 3915 4102 
Q 4550 3538 4550 2338 
Q 4550 1131 3912 565 
Q 3275 0 1925 0 
L 628 0 
L 628 4666 
z
" transform="scale(0.015625)"/>
      <path id="DejaVuSans-63" d="M 3122 3366 
L 3122 2828 
Q 2878 2963 2633 3030 
Q 2388 3097 2138 3097 
Q 1578 3097 1268 2742 
Q 959 2388 959 1747 
Q 959 1106 1268 751 
Q 1578 397 2138 397 
Q 2388 397 2633 464 
Q 2878 531 3122 666 
L 3122 134 
Q 2881 22 2623 -34 
Q 2366 -91 2075 -91 
Q 1284 -91 818 406 
Q 353 903 353 1747 
Q 353 2603 823 3093 
Q 1294 3584 2113 3584 
Q 2378 3584 2631 3529 
Q 2884 3475 3122 3366 
z
" transform="scale(0.015625)"/>
      <path id="DejaVuSans-62" d="M 3116 1747 
Q 3116 2381 2855 2742 
Q 2594 3103 2138 3103 
Q 1681 3103 1420 2742 
Q 1159 2381 1159 1747 
Q 1159 1113 1420 752 
Q 1681 391 2138 391 
Q 2594 391 2855 752 
Q 3116 1113 3116 1747 
z
M 1159 2969 
Q 1341 3281 1617 3432 
Q 1894 3584 2278 3584 
Q 2916 3584 3314 3078 
Q 3713 2572 3713 1747 
Q 3713 922 3314 415 
Q 2916 -91 2278 -91 
Q 1894 -91 1617 61 
Q 1341 213 1159 525 
L 1159 0 
L 581 0 
L 581 4863 
L 1159 4863 
L 1159 2969 
z
" transform="scale(0.015625)"/>
      <path id="DejaVuSans-79" d="M 2059 -325 
Q 1816 -950 1584 -1140 
Q 1353 -1331 966 -1331 
L 506 -1331 
L 506 -850 
L 844 -850 
Q 1081 -850 1212 -737 
Q 1344 -625 1503 -206 
L 1606 56 
L 191 3500 
L 800 3500 
L 1894 763 
L 2988 3500 
L 3597 3500 
L 2059 -325 
z
" transform="scale(0.015625)"/>
     </defs>
     <use xlink:href="#DejaVuSans-44"/>
     <use xlink:href="#DejaVuSans-69" transform="translate(77.001953 0)"/>
     <use xlink:href="#DejaVuSans-73" transform="translate(104.785156 0)"/>
     <use xlink:href="#DejaVuSans-74" transform="translate(156.884766 0)"/>
     <use xlink:href="#DejaVuSans-61" transform="translate(196.09375 0)"/>
     <use xlink:href="#DejaVuSans-6e" transform="translate(257.373047 0)"/>
     <use xlink:href="#DejaVuSans-63" transform="translate(320.751953 0)"/>
     <use xlink:href="#DejaVuSans-65" transform="translate(375.732422 0)"/>
     <use xlink:href="#DejaVuSans-20" transform="translate(437.255859 0)"/>
     <use xlink:href="#DejaVuSans-44" transform="translate(469.042969 0)"/>
     <use xlink:href="#DejaVuSans-69" transform="translate(546.044922 0)"/>
     <use xlink:href="#DejaVuSans-73" transform="translate(573.828125 0)"/>
     <use xlink:href="#DejaVuSans-74" transform="translate(625.927734 0)"/>
     <use xlink:href="#DejaVuSans-72" transform="translate(665.136719 0)"/>
     <use xlink:href="#DejaVuSans-69" transform="translate(706.25 0)"/>
     <use xlink:href="#DejaVuSans-62" transform="translate(734.033203 0)"/>
     <use xlink:href="#DejaVuSans-75" transform="translate(797.509766 0)"/>
     <use xlink:href="#DejaVuSans-74" transform="translate(860.888672 0)"/>
     <use xlink:href="#DejaVuSans-69" transform="translate(900.097656 0)"/>
     <use xlink:href="#DejaVuSans-6f" transform="translate(927.880859 0)"/>
     <use xlink:href="#DejaVuSans-6e" transform="translate(989.0625 0)"/>
     <use xlink:href="#DejaVuSans-20" transform="translate(1052.441406 0)"/>
     <use xlink:href="#DejaVuSans-62" transform="translate(1084.228516 0)"/>
     <use xlink:href="#DejaVuSans-79" transform="translate(1147.705078 0)"/>
     <use xlink:href="#DejaVuSans-20" transform="translate(1206.884766 0)"/>
     <use xlink:href="#DejaVuSans-56" transform="translate(1238.671875 0)"/>
     <use xlink:href="#DejaVuSans-69" transform="translate(1304.830078 0)"/>
     <use xlink:href="#DejaVuSans-73" transform="translate(1332.613281 0)"/>
     <use xlink:href="#DejaVuSans-75" transform="translate(1384.712891 0)"/>
     <use xlink:href="#DejaVuSans-61" transform="translate(1448.091797 0)"/>
     <use xlink:href="#DejaVuSans-6c" transform="translate(1509.371094 0)"/>
     <use xlink:href="#DejaVuSans-69" transform="translate(1537.154297 0)"/>
     <use xlink:href="#DejaVuSans-7a" transform="translate(1564.9375 0)"/>
     <use xlink:href="#DejaVuSans-61" transform="translate(1617.427734 0)"/>
     <use xlink:href="#DejaVuSans-74" transform="translate(1678.707031 0)"/>
     <use xlink:href="#DejaVuSans-69" transform="translate(1717.916016 0)"/>
     <use xlink:href="#DejaVuSans-6f" transform="translate(1745.699219 0)"/>
     <use xlink:href="#DejaVuSans-6e" transform="translate(1806.880859 0)"/>
    </g>
   </g>
  </g>
 </g>
 <defs>
  <clipPath id="pff96d8ea60">
   <rect x="81" y="51.84" width="502.2" height="332.64"/>
  </clipPath>
 </defs>
</svg>
