<?xml version="1.0" encoding="utf-8" standalone="no"?>
<!DOCTYPE svg PUBLIC "-//W3C//DTD SVG 1.1//EN"
  "http://www.w3.org/Graphics/SVG/1.1/DTD/svg11.dtd">
<svg xmlns:xlink="http://www.w3.org/1999/xlink" width="648pt" height="432pt" viewBox="0 0 648 432" xmlns="http://www.w3.org/2000/svg" version="1.1">
 <metadata>
  <rdf:RDF xmlns:dc="http://purl.org/dc/elements/1.1/" xmlns:cc="http://creativecommons.org/ns#" xmlns:rdf="http://www.w3.org/1999/02/22-rdf-syntax-ns#">
   <cc:Work>
    <dc:type rdf:resource="http://purl.org/dc/dcmitype/StillImage"/>
    <dc:date>2026-03-19T20:19:03.227289</dc:date>
    <dc:format>image/svg+xml</dc:format>
    <dc:creator>
     <cc:Agent>
      <dc:title>Matplotlib v3.10.6, https://matplotlib.org/</dc:title>
     </cc:Agent>
    </dc:creator>
   </cc:Work>
  </rdf:RDF>
 </metadata>
 <defs>
  <style type="text/css">*{stroke-linejoin: round; stroke-linecap: butt}</style>
 </defs>
 <g id="figure_1">
  <g id="patch_1">
   <path d="M 0 432 
L 648 432 
L 648 0 
L 0 0 
z
" style="fill: #ffffff"/>
  </g>
  <g id="axes_1">
   <g id="patch_2">
    <path d="M 81 384.48 
L 583.2 384.48 
L 583.2 51.84 
L 81 51.84 
z
" style="fill: #ffffff"/>
   </g>
   <g id="FillBetweenPolyCollection_1">
    <path d="M 136.855219 347.53604 
L 108.844781 347.53604 
L 107.118968 345.293538 
L 105.329879 343.051035 
L 103.502024 340.808533 
L 101.663539 338.566031 
L 99.84546 336.323529 
L 98.080764 334.081027 
L 96.403183 331.838525 
L 94.845884 329.596022 
L 93.440066 327.35352 
L 92.213571 325.111018 
L 91.18961 322.868516 
L 90.385699 320.626014 
L 89.812871 318.383512 
L 89.475252 316.141009 
L 89.37 313.898507 
L 89.487639 311.656005 
L 89.812738 309.413503 
L 90.324884 307.171001 
L 90.999875 304.928498 
L 91.811036 302.685996 
L 92.73056 300.443494 
L 93.730796 298.200992 
L 94.785395 295.95849 
L 95.870264 293.715988 
L 96.964286 291.473485 
L 98.049778 289.230983 
L 99.112715 286.988481 
L 100.142708 284.745979 
L 101.132783 282.503477 
L 102.078997 280.260974 
L 102.97994 278.018472 
L 103.836159 275.77597 
L 104.649566 273.533468 
L 105.42286 271.290966 
L 106.159022 269.048464 
L 106.860895 266.805961 
L 107.530887 264.563459 
L 108.170803 262.320957 
L 108.781808 260.078455 
L 109.364509 257.835953 
L 109.91912 255.593451 
L 110.445703 253.350948 
L 110.944414 251.108446 
L 111.415748 248.865944 
L 111.860724 246.623442 
L 112.280998 244.38094 
L 112.678895 242.138437 
L 113.057336 239.895935 
L 113.419701 237.653433 
L 113.769622 235.410931 
L 114.110745 233.168429 
L 114.446496 230.925927 
L 114.779857 228.683424 
L 115.113201 226.440922 
L 115.448175 224.19842 
L 115.785657 221.955918 
L 116.12577 219.713416 
L 116.467956 217.470913 
L 116.81109 215.228411 
L 117.153612 212.985909 
L 117.493681 210.743407 
L 117.829315 208.500905 
L 118.158518 206.258403 
L 118.479383 204.0159 
L 118.790169 201.773398 
L 119.089343 199.530896 
L 119.375601 197.288394 
L 119.647858 195.045892 
L 119.905228 192.80339 
L 120.146976 190.560887 
L 120.37248 188.318385 
L 120.581182 186.075883 
L 120.772555 183.833381 
L 120.946075 181.590879 
L 121.101219 179.348376 
L 121.237478 177.105874 
L 121.354398 174.863372 
L 121.451629 172.62087 
L 121.528998 170.378368 
L 121.58658 168.135866 
L 121.624779 165.893363 
L 121.644388 163.650861 
L 121.646635 161.408359 
L 121.633211 159.165857 
L 121.606258 156.923355 
L 121.568332 154.680852 
L 121.52234 152.43835 
L 121.47144 150.195848 
L 121.418928 147.953346 
L 121.368111 145.710844 
L 121.322169 143.468342 
L 121.284031 141.225839 
L 121.256247 138.983337 
L 121.240897 136.740835 
L 121.239507 134.498333 
L 121.253004 132.255831 
L 121.281695 130.013328 
L 121.325279 127.770826 
L 121.382887 125.528324 
L 124.317113 125.528324 
L 124.317113 125.528324 
L 124.374721 127.770826 
L 124.418305 130.013328 
L 124.446996 132.255831 
L 124.460493 134.498333 
L 124.459103 136.740835 
L 124.443753 138.983337 
L 124.415969 141.225839 
L 124.377831 143.468342 
L 124.331889 145.710844 
L 124.281072 147.953346 
L 124.22856 150.195848 
L 124.17766 152.43835 
L 124.131668 154.680852 
L 124.093742 156.923355 
L 124.066789 159.165857 
L 124.053365 161.408359 
L 124.055612 163.650861 
L 124.075221 165.893363 
L 124.11342 168.135866 
L 124.171002 170.378368 
L 124.248371 172.62087 
L 124.345602 174.863372 
L 124.462522 177.105874 
L 124.598781 179.348376 
L 124.753925 181.590879 
L 124.927445 183.833381 
L 125.118818 186.075883 
L 125.32752 188.318385 
L 125.553024 190.560887 
L 125.794772 192.80339 
L 126.052142 195.045892 
L 126.324399 197.288394 
L 126.610657 199.530896 
L 126.909831 201.773398 
L 127.220617 204.0159 
L 127.541482 206.258403 
L 127.870685 208.500905 
L 128.206319 210.743407 
L 128.546388 212.985909 
L 128.88891 215.228411 
L 129.232044 217.470913 
L 129.57423 219.713416 
L 129.914343 221.955918 
L 130.251825 224.19842 
L 130.586799 226.440922 
L 130.920143 228.683424 
L 131.253504 230.925927 
L 131.589255 233.168429 
L 131.930378 235.410931 
L 132.280299 237.653433 
L 132.642664 239.895935 
L 133.021105 242.138437 
L 133.419002 244.38094 
L 133.839276 246.623442 
L 134.284252 248.865944 
L 134.755586 251.108446 
L 135.254297 253.350948 
L 135.78088 255.593451 
L 136.335491 257.835953 
L 136.918192 260.078455 
L 137.529197 262.320957 
L 138.169113 264.563459 
L 138.839105 266.805961 
L 139.540978 269.048464 
L 140.27714 271.290966 
L 141.050434 273.533468 
L 141.863841 275.77597 
L 142.72006 278.018472 
L 143.621003 280.260974 
L 144.567217 282.503477 
L 145.557292 284.745979 
L 146.587285 286.988481 
L 147.650222 289.230983 
L 148.735714 291.473485 
L 149.829736 293.715988 
L 150.914605 295.95849 
L 151.969204 298.200992 
L 152.96944 300.443494 
L 153.888964 302.685996 
L 154.700125 304.928498 
L 155.375116 307.171001 
L 155.887262 309.413503 
L 156.212361 311.656005 
L 156.33 313.898507 
L 156.224748 316.141009 
L 155.887129 318.383512 
L 155.314301 320.626014 
L 154.51039 322.868516 
L 153.486429 325.111018 
L 152.259934 327.35352 
L 150.854116 329.596022 
L 149.296817 331.838525 
L 147.619236 334.081027 
L 145.85454 336.323529 
L 144.036461 338.566031 
L 142.197976 340.808533 
L 140.370121 343.051035 
L 138.581032 345.293538 
L 136.855219 347.53604 
z
" clip-path="url(#pb05433f690)" style="fill: #1f77b4; fill-opacity: 0.3"/>
   </g>
   <g id="FillBetweenPolyCollection_2">
    <path d="M 216.659455 352.765724 
L 196.440545 352.765724 
L 195.538833 351.236252 
L 194.606539 349.706779 
L 193.646502 348.177306 
L 192.661592 346.647833 
L 191.654702 345.11836 
L 190.628758 343.588888 
L 189.586765 342.059415 
L 188.53187 340.529942 
L 187.467449 339.000469 
L 186.397203 337.470997 
L 185.325265 335.941524 
L 184.256295 334.412051 
L 183.195561 332.882578 
L 182.14899 331.353105 
L 181.123182 329.823633 
L 180.125372 328.29416 
L 179.163349 326.764687 
L 178.245308 325.235214 
L 177.379655 323.705741 
L 176.574772 322.176269 
L 175.838735 320.646796 
L 175.179015 319.117323 
L 174.602175 317.58785 
L 174.113578 316.058378 
L 173.717127 314.528905 
L 173.415059 312.999432 
L 173.207795 311.469959 
L 173.09388 309.940486 
L 173.07 308.411014 
L 173.131092 306.881541 
L 173.270538 305.352068 
L 173.480435 303.822595 
L 173.751933 302.293123 
L 174.075612 300.76365 
L 174.441897 299.234177 
L 174.84146 297.704704 
L 175.265613 296.175231 
L 175.706656 294.645759 
L 176.158163 293.116286 
L 176.615188 291.586813 
L 177.074387 290.05734 
L 177.534049 288.527868 
L 177.994022 286.998395 
L 178.455565 285.468922 
L 178.921113 283.939449 
L 179.393991 282.409976 
L 179.878076 280.880504 
L 180.377446 279.351031 
L 180.896022 277.821558 
L 181.437242 276.292085 
L 182.003761 274.762613 
L 182.59722 273.23314 
L 183.218078 271.703667 
L 183.865515 270.174194 
L 184.537413 268.644721 
L 185.230417 267.115249 
L 185.940053 265.585776 
L 186.660911 264.056303 
L 187.386859 262.52683 
L 188.111297 260.997358 
L 188.827413 259.467885 
L 189.528441 257.938412 
L 190.2079 256.408939 
L 190.859807 254.879466 
L 191.47885 253.349994 
L 192.060531 251.820521 
L 192.601251 250.291048 
L 193.098366 248.761575 
L 193.550199 247.232103 
L 193.956019 245.70263 
L 194.315992 244.173157 
L 194.631115 242.643684 
L 194.903134 241.114211 
L 195.134456 239.584739 
L 195.328058 238.055266 
L 195.487396 236.525793 
L 195.616327 234.99632 
L 195.719024 233.466848 
L 195.79991 231.937375 
L 195.863588 230.407902 
L 195.914778 228.878429 
L 195.958261 227.348956 
L 195.998814 225.819484 
L 196.041154 224.290011 
L 196.089869 222.760538 
L 196.149358 221.231065 
L 196.223756 219.701592 
L 196.316863 218.17212 
L 196.432073 216.642647 
L 196.572299 215.113174 
L 196.739904 213.583701 
L 196.936644 212.054229 
L 197.163608 210.524756 
L 197.42119 208.995283 
L 197.709056 207.46581 
L 198.02615 205.936337 
L 198.370704 204.406865 
L 198.740285 202.877392 
L 199.131846 201.347919 
L 213.968154 201.347919 
L 213.968154 201.347919 
L 214.359715 202.877392 
L 214.729296 204.406865 
L 215.07385 205.936337 
L 215.390944 207.46581 
L 215.67881 208.995283 
L 215.936392 210.524756 
L 216.163356 212.054229 
L 216.360096 213.583701 
L 216.527701 215.113174 
L 216.667927 216.642647 
L 216.783137 218.17212 
L 216.876244 219.701592 
L 216.950642 221.231065 
L 217.010131 222.760538 
L 217.058846 224.290011 
L 217.101186 225.819484 
L 217.141739 227.348956 
L 217.185222 228.878429 
L 217.236412 230.407902 
L 217.30009 231.937375 
L 217.380976 233.466848 
L 217.483673 234.99632 
L 217.612604 236.525793 
L 217.771942 238.055266 
L 217.965544 239.584739 
L 218.196866 241.114211 
L 218.468885 242.643684 
L 218.784008 244.173157 
L 219.143981 245.70263 
L 219.549801 247.232103 
L 220.001634 248.761575 
L 220.498749 250.291048 
L 221.039469 251.820521 
L 221.62115 253.349994 
L 222.240193 254.879466 
L 222.8921 256.408939 
L 223.571559 257.938412 
L 224.272587 259.467885 
L 224.988703 260.997358 
L 225.713141 262.52683 
L 226.439089 264.056303 
L 227.159947 265.585776 
L 227.869583 267.115249 
L 228.562587 268.644721 
L 229.234485 270.174194 
L 229.881922 271.703667 
L 230.50278 273.23314 
L 231.096239 274.762613 
L 231.662758 276.292085 
L 232.203978 277.821558 
L 232.722554 279.351031 
L 233.221924 280.880504 
L 233.706009 282.409976 
L 234.178887 283.939449 
L 234.644435 285.468922 
L 235.105978 286.998395 
L 235.565951 288.527868 
L 236.025613 290.05734 
L 236.484812 291.586813 
L 236.941837 293.116286 
L 237.393344 294.645759 
L 237.834387 296.175231 
L 238.25854 297.704704 
L 238.658103 299.234177 
L 239.024388 300.76365 
L 239.348067 302.293123 
L 239.619565 303.822595 
L 239.829462 305.352068 
L 239.968908 306.881541 
L 240.03 308.411014 
L 240.00612 309.940486 
L 239.892205 311.469959 
L 239.684941 312.999432 
L 239.382873 314.528905 
L 238.986422 316.058378 
L 238.497825 317.58785 
L 237.920985 319.117323 
L 237.261265 320.646796 
L 236.525228 322.176269 
L 235.720345 323.705741 
L 234.854692 325.235214 
L 233.936651 326.764687 
L 232.974628 328.29416 
L 231.976818 329.823633 
L 230.95101 331.353105 
L 229.904439 332.882578 
L 228.843705 334.412051 
L 227.774735 335.941524 
L 226.702797 337.470997 
L 225.632551 339.000469 
L 224.56813 340.529942 
L 223.513235 342.059415 
L 222.471242 343.588888 
L 221.445298 345.11836 
L 220.438408 346.647833 
L 219.453498 348.177306 
L 218.493461 349.706779 
L 217.561167 351.236252 
L 216.659455 352.765724 
z
" clip-path="url(#pb05433f690)" style="fill: #1f77b4; fill-opacity: 0.3"/>
   </g>
   <g id="FillBetweenPolyCollection_3">
    <path d="M 298.104812 372.751265 
L 282.395188 372.751265 
L 281.359635 369.664096 
L 280.236978 366.576926 
L 279.027484 363.489757 
L 277.733421 360.402587 
L 276.359486 357.315418 
L 274.913177 354.228248 
L 273.40507 351.141079 
L 271.848959 348.05391 
L 270.261814 344.96674 
L 268.663544 341.879571 
L 267.076544 338.792401 
L 265.525043 335.705232 
L 264.034274 332.618062 
L 262.629516 329.530893 
L 261.33506 326.443723 
L 260.173175 323.356554 
L 259.163141 320.269384 
L 258.320421 317.182215 
L 257.656029 314.095045 
L 257.176143 311.007876 
L 256.881989 307.920707 
L 256.77 304.833537 
L 256.832235 301.746368 
L 257.057025 298.659198 
L 257.429788 295.572029 
L 257.933944 292.484859 
L 258.551877 289.39769 
L 259.265841 286.31052 
L 260.058777 283.223351 
L 260.91496 280.136181 
L 261.820462 277.049012 
L 262.763395 273.961843 
L 263.733958 270.874673 
L 264.724286 267.787504 
L 265.728166 264.700334 
L 266.740652 261.613165 
L 267.757636 258.525995 
L 268.775437 255.438826 
L 269.790444 252.351656 
L 270.79885 249.264487 
L 271.796503 246.177317 
L 272.778864 243.090148 
L 273.741082 240.002978 
L 274.678135 236.915809 
L 275.585047 233.82864 
L 276.457111 230.74147 
L 277.290114 227.654301 
L 278.080529 224.567131 
L 278.825659 221.479962 
L 279.523725 218.392792 
L 280.173895 215.305623 
L 280.77626 212.218453 
L 281.33177 209.131284 
L 281.842136 206.044114 
L 282.309713 202.956945 
L 282.737376 199.869776 
L 283.128382 196.782606 
L 283.486247 193.695437 
L 283.814615 190.608267 
L 284.117134 187.521098 
L 284.397342 184.433928 
L 284.658552 181.346759 
L 284.903759 178.259589 
L 285.135552 175.17242 
L 285.356048 172.08525 
L 285.566859 168.998081 
L 285.769078 165.910911 
L 285.963297 162.823742 
L 286.149661 159.736573 
L 286.32794 156.649403 
L 286.497621 153.562234 
L 286.658018 150.475064 
L 286.80837 147.387895 
L 286.947944 144.300725 
L 287.076117 141.213556 
L 287.192434 138.126386 
L 287.296649 135.039217 
L 287.38874 131.952047 
L 287.468913 128.864878 
L 287.537578 125.777709 
L 287.595339 122.690539 
L 287.642965 119.60337 
L 287.681378 116.5162 
L 287.711647 113.429031 
L 287.734983 110.341861 
L 287.752747 107.254692 
L 287.766459 104.167522 
L 287.777795 101.080353 
L 287.788582 97.993183 
L 287.800769 94.906014 
L 287.816384 91.818844 
L 287.837465 88.731675 
L 287.865975 85.644506 
L 287.903703 82.557336 
L 287.952161 79.470167 
L 288.012485 76.382997 
L 288.085342 73.295828 
L 288.170878 70.208658 
L 288.268679 67.121489 
L 292.231321 67.121489 
L 292.231321 67.121489 
L 292.329122 70.208658 
L 292.414658 73.295828 
L 292.487515 76.382997 
L 292.547839 79.470167 
L 292.596297 82.557336 
L 292.634025 85.644506 
L 292.662535 88.731675 
L 292.683616 91.818844 
L 292.699231 94.906014 
L 292.711418 97.993183 
L 292.722205 101.080353 
L 292.733541 104.167522 
L 292.747253 107.254692 
L 292.765017 110.341861 
L 292.788353 113.429031 
L 292.818622 116.5162 
L 292.857035 119.60337 
L 292.904661 122.690539 
L 292.962422 125.777709 
L 293.031087 128.864878 
L 293.11126 131.952047 
L 293.203351 135.039217 
L 293.307566 138.126386 
L 293.423883 141.213556 
L 293.552056 144.300725 
L 293.69163 147.387895 
L 293.841982 150.475064 
L 294.002379 153.562234 
L 294.17206 156.649403 
L 294.350339 159.736573 
L 294.536703 162.823742 
L 294.730922 165.910911 
L 294.933141 168.998081 
L 295.143952 172.08525 
L 295.364448 175.17242 
L 295.596241 178.259589 
L 295.841448 181.346759 
L 296.102658 184.433928 
L 296.382866 187.521098 
L 296.685385 190.608267 
L 297.013753 193.695437 
L 297.371618 196.782606 
L 297.762624 199.869776 
L 298.190287 202.956945 
L 298.657864 206.044114 
L 299.16823 209.131284 
L 299.72374 212.218453 
L 300.326105 215.305623 
L 300.976275 218.392792 
L 301.674341 221.479962 
L 302.419471 224.567131 
L 303.209886 227.654301 
L 304.042889 230.74147 
L 304.914953 233.82864 
L 305.821865 236.915809 
L 306.758918 240.002978 
L 307.721136 243.090148 
L 308.703497 246.177317 
L 309.70115 249.264487 
L 310.709556 252.351656 
L 311.724563 255.438826 
L 312.742364 258.525995 
L 313.759348 261.613165 
L 314.771834 264.700334 
L 315.775714 267.787504 
L 316.766042 270.874673 
L 317.736605 273.961843 
L 318.679538 277.049012 
L 319.58504 280.136181 
L 320.441223 283.223351 
L 321.234159 286.31052 
L 321.948123 289.39769 
L 322.566056 292.484859 
L 323.070212 295.572029 
L 323.442975 298.659198 
L 323.667765 301.746368 
L 323.73 304.833537 
L 323.618011 307.920707 
L 323.323857 311.007876 
L 322.843971 314.095045 
L 322.179579 317.182215 
L 321.336859 320.269384 
L 320.326825 323.356554 
L 319.16494 326.443723 
L 317.870484 329.530893 
L 316.465726 332.618062 
L 314.974957 335.705232 
L 313.423456 338.792401 
L 311.836456 341.879571 
L 310.238186 344.96674 
L 308.651041 348.05391 
L 307.09493 351.141079 
L 305.586823 354.228248 
L 304.140514 357.315418 
L 302.766579 360.402587 
L 301.472516 363.489757 
L 300.263022 366.576926 
L 299.140365 369.664096 
L 298.104812 372.751265 
z
" clip-path="url(#pb05433f690)" style="fill: #1f77b4; fill-opacity: 0.3"/>
   </g>
   <g id="FillBetweenPolyCollection_4">
    <path d="M 381.65479 358.187766 
L 366.24521 358.187766 
L 365.108867 356.534663 
L 363.878011 354.881559 
L 362.557972 353.228456 
L 361.156814 351.575353 
L 359.685437 349.922249 
L 358.157547 348.269146 
L 356.589477 346.616042 
L 354.999854 344.962939 
L 353.409085 343.309836 
L 351.838705 341.656732 
L 350.310592 340.003629 
L 348.846107 338.350525 
L 347.465208 336.697422 
L 346.185614 335.044319 
L 345.022083 333.391215 
L 343.985873 331.738112 
L 343.084437 330.085008 
L 342.321377 328.431905 
L 341.696677 326.778802 
L 341.207187 325.125698 
L 340.847303 323.472595 
L 340.609794 321.819491 
L 340.486666 320.166388 
L 340.47 318.513285 
L 340.552658 316.860181 
L 340.728808 315.207078 
L 340.994212 313.553974 
L 341.346265 311.900871 
L 341.783793 310.247768 
L 342.306656 308.594664 
L 342.915212 306.941561 
L 343.609701 305.288457 
L 344.389645 303.635354 
L 345.253309 301.982251 
L 346.197288 300.329147 
L 347.216256 298.676044 
L 348.302885 297.02294 
L 349.447937 295.369837 
L 350.640499 293.716734 
L 351.868336 292.06363 
L 353.118316 290.410527 
L 354.376862 288.757423 
L 355.630407 287.10432 
L 356.865796 285.451217 
L 358.070641 283.798113 
L 359.233598 282.14501 
L 360.344564 280.491906 
L 361.394812 278.838803 
L 362.377055 277.1857 
L 363.285473 275.532596 
L 364.115702 273.879493 
L 364.864811 272.226389 
L 365.531263 270.573286 
L 366.114892 268.920183 
L 366.616866 267.267079 
L 367.03967 265.613976 
L 367.38707 263.960872 
L 367.664077 262.307769 
L 367.87688 260.654666 
L 368.032748 259.001562 
L 368.139896 257.348459 
L 368.207295 255.695355 
L 368.244436 254.042252 
L 368.261053 252.389149 
L 368.266803 250.736045 
L 368.270934 249.082942 
L 368.281941 247.429838 
L 368.307256 245.776735 
L 368.352966 244.123632 
L 368.423605 242.470528 
L 368.522023 240.817425 
L 368.649342 239.164321 
L 368.805014 237.511218 
L 368.986967 235.858115 
L 369.191833 234.205011 
L 369.415235 232.551908 
L 369.652116 230.898804 
L 369.897078 229.245701 
L 370.144711 227.592598 
L 370.389889 225.939494 
L 370.628011 224.286391 
L 370.855177 222.633287 
L 371.068306 220.980184 
L 371.265177 219.327081 
L 371.444425 217.673977 
L 371.605487 216.020874 
L 371.748518 214.36777 
L 371.874294 212.714667 
L 371.984101 211.061564 
L 372.079631 209.40846 
L 372.162885 207.755357 
L 372.236068 206.102253 
L 372.301506 204.44915 
L 372.361553 202.796047 
L 372.418498 201.142943 
L 372.47448 199.48984 
L 372.531394 197.836736 
L 372.590816 196.183633 
L 372.653932 194.53053 
L 375.246068 194.53053 
L 375.246068 194.53053 
L 375.309184 196.183633 
L 375.368606 197.836736 
L 375.42552 199.48984 
L 375.481502 201.142943 
L 375.538447 202.796047 
L 375.598494 204.44915 
L 375.663932 206.102253 
L 375.737115 207.755357 
L 375.820369 209.40846 
L 375.915899 211.061564 
L 376.025706 212.714667 
L 376.151482 214.36777 
L 376.294513 216.020874 
L 376.455575 217.673977 
L 376.634823 219.327081 
L 376.831694 220.980184 
L 377.044823 222.633287 
L 377.271989 224.286391 
L 377.510111 225.939494 
L 377.755289 227.592598 
L 378.002922 229.245701 
L 378.247884 230.898804 
L 378.484765 232.551908 
L 378.708167 234.205011 
L 378.913033 235.858115 
L 379.094986 237.511218 
L 379.250658 239.164321 
L 379.377977 240.817425 
L 379.476395 242.470528 
L 379.547034 244.123632 
L 379.592744 245.776735 
L 379.618059 247.429838 
L 379.629066 249.082942 
L 379.633197 250.736045 
L 379.638947 252.389149 
L 379.655564 254.042252 
L 379.692705 255.695355 
L 379.760104 257.348459 
L 379.867252 259.001562 
L 380.02312 260.654666 
L 380.235923 262.307769 
L 380.51293 263.960872 
L 380.86033 265.613976 
L 381.283134 267.267079 
L 381.785108 268.920183 
L 382.368737 270.573286 
L 383.035189 272.226389 
L 383.784298 273.879493 
L 384.614527 275.532596 
L 385.522945 277.1857 
L 386.505188 278.838803 
L 387.555436 280.491906 
L 388.666402 282.14501 
L 389.829359 283.798113 
L 391.034204 285.451217 
L 392.269593 287.10432 
L 393.523138 288.757423 
L 394.781684 290.410527 
L 396.031664 292.06363 
L 397.259501 293.716734 
L 398.452063 295.369837 
L 399.597115 297.02294 
L 400.683744 298.676044 
L 401.702712 300.329147 
L 402.646691 301.982251 
L 403.510355 303.635354 
L 404.290299 305.288457 
L 404.984788 306.941561 
L 405.593344 308.594664 
L 406.116207 310.247768 
L 406.553735 311.900871 
L 406.905788 313.553974 
L 407.171192 315.207078 
L 407.347342 316.860181 
L 407.43 318.513285 
L 407.413334 320.166388 
L 407.290206 321.819491 
L 407.052697 323.472595 
L 406.692813 325.125698 
L 406.203323 326.778802 
L 405.578623 328.431905 
L 404.815563 330.085008 
L 403.914127 331.738112 
L 402.877917 333.391215 
L 401.714386 335.044319 
L 400.434792 336.697422 
L 399.053893 338.350525 
L 397.589408 340.003629 
L 396.061295 341.656732 
L 394.490915 343.309836 
L 392.900146 344.962939 
L 391.310523 346.616042 
L 389.742453 348.269146 
L 388.214563 349.922249 
L 386.743186 351.575353 
L 385.342028 353.228456 
L 384.021989 354.881559 
L 382.791133 356.534663 
L 381.65479 358.187766 
z
" clip-path="url(#pb05433f690)" style="fill: #1f77b4; fill-opacity: 0.3"/>
   </g>
   <g id="FillBetweenPolyCollection_5">
    <path d="M 466.759967 368.660915 
L 448.540033 368.660915 
L 447.348941 366.118175 
L 446.087677 363.575434 
L 444.758205 361.032694 
L 443.363543 358.489954 
L 441.908774 355.947213 
L 440.402115 353.404473 
L 438.855823 350.861733 
L 437.286739 348.318992 
L 435.716263 345.776252 
L 434.169655 343.233512 
L 432.67464 340.690772 
L 431.259429 338.148031 
L 429.950384 335.605291 
L 428.769632 333.062551 
L 427.733007 330.51981 
L 426.848637 327.97707 
L 426.116469 325.43433 
L 425.528823 322.891589 
L 425.071978 320.348849 
L 424.728544 317.806109 
L 424.480317 315.263369 
L 424.31116 312.720628 
L 424.209491 310.177888 
L 424.17 307.635148 
L 424.194354 305.092407 
L 424.290803 302.549667 
L 424.472783 300.006927 
L 424.756775 297.464186 
L 425.159746 294.921446 
L 425.696589 292.378706 
L 426.377907 289.835966 
L 427.208436 287.293225 
L 428.186256 284.750485 
L 429.302827 282.207745 
L 430.543736 279.665004 
L 431.889976 277.122264 
L 433.319502 274.579524 
L 434.808822 272.036783 
L 436.334412 269.494043 
L 437.873818 266.951303 
L 439.406372 264.408563 
L 440.913545 261.865822 
L 442.378998 259.323082 
L 443.788436 256.780342 
L 445.129389 254.237601 
L 446.391005 251.694861 
L 447.563936 249.152121 
L 448.640358 246.60938 
L 449.614106 244.06664 
L 450.480929 241.5239 
L 451.238788 238.981159 
L 451.888146 236.438419 
L 452.432201 233.895679 
L 452.876987 231.352939 
L 453.231314 228.810198 
L 453.506509 226.267458 
L 453.715961 223.724718 
L 453.874483 221.181977 
L 453.997524 218.639237 
L 454.100305 216.096497 
L 454.19693 213.553756 
L 454.299584 211.011016 
L 454.41786 208.468276 
L 454.558316 205.925536 
L 454.724271 203.382795 
L 454.915892 200.840055 
L 455.13052 198.297315 
L 455.363222 195.754574 
L 455.607477 193.211834 
L 455.855941 190.669094 
L 456.10118 188.126353 
L 456.336317 185.583613 
L 456.555536 183.040873 
L 456.754392 180.498133 
L 456.929945 177.955392 
L 457.080716 175.412652 
L 457.206502 172.869912 
L 457.308103 170.327171 
L 457.386999 167.784431 
L 457.445023 165.241691 
L 457.484082 162.69895 
L 457.505929 160.15621 
L 457.512029 157.61347 
L 457.503503 155.07073 
L 457.481168 152.527989 
L 457.445641 149.985249 
L 457.3975 147.442509 
L 457.337485 144.899768 
L 457.266692 142.357028 
L 457.18675 139.814288 
L 457.099937 137.271547 
L 457.009222 134.728807 
L 456.918209 132.186067 
L 456.830975 129.643327 
L 456.751823 127.100586 
L 456.684963 124.557846 
L 456.634162 122.015106 
L 456.602402 119.472365 
L 456.591599 116.929625 
L 458.708401 116.929625 
L 458.708401 116.929625 
L 458.697598 119.472365 
L 458.665838 122.015106 
L 458.615037 124.557846 
L 458.548177 127.100586 
L 458.469025 129.643327 
L 458.381791 132.186067 
L 458.290778 134.728807 
L 458.200063 137.271547 
L 458.11325 139.814288 
L 458.033308 142.357028 
L 457.962515 144.899768 
L 457.9025 147.442509 
L 457.854359 149.985249 
L 457.818832 152.527989 
L 457.796497 155.07073 
L 457.787971 157.61347 
L 457.794071 160.15621 
L 457.815918 162.69895 
L 457.854977 165.241691 
L 457.913001 167.784431 
L 457.991897 170.327171 
L 458.093498 172.869912 
L 458.219284 175.412652 
L 458.370055 177.955392 
L 458.545608 180.498133 
L 458.744464 183.040873 
L 458.963683 185.583613 
L 459.19882 188.126353 
L 459.444059 190.669094 
L 459.692523 193.211834 
L 459.936778 195.754574 
L 460.16948 198.297315 
L 460.384108 200.840055 
L 460.575729 203.382795 
L 460.741684 205.925536 
L 460.88214 208.468276 
L 461.000416 211.011016 
L 461.10307 213.553756 
L 461.199695 216.096497 
L 461.302476 218.639237 
L 461.425517 221.181977 
L 461.584039 223.724718 
L 461.793491 226.267458 
L 462.068686 228.810198 
L 462.423013 231.352939 
L 462.867799 233.895679 
L 463.411854 236.438419 
L 464.061212 238.981159 
L 464.819071 241.5239 
L 465.685894 244.06664 
L 466.659642 246.60938 
L 467.736064 249.152121 
L 468.908995 251.694861 
L 470.170611 254.237601 
L 471.511564 256.780342 
L 472.921002 259.323082 
L 474.386455 261.865822 
L 475.893628 264.408563 
L 477.426182 266.951303 
L 478.965588 269.494043 
L 480.491178 272.036783 
L 481.980498 274.579524 
L 483.410024 277.122264 
L 484.756264 279.665004 
L 485.997173 282.207745 
L 487.113744 284.750485 
L 488.091564 287.293225 
L 488.922093 289.835966 
L 489.603411 292.378706 
L 490.140254 294.921446 
L 490.543225 297.464186 
L 490.827217 300.006927 
L 491.009197 302.549667 
L 491.105646 305.092407 
L 491.13 307.635148 
L 491.090509 310.177888 
L 490.98884 312.720628 
L 490.819683 315.263369 
L 490.571456 317.806109 
L 490.228022 320.348849 
L 489.771177 322.891589 
L 489.183531 325.43433 
L 488.451363 327.97707 
L 487.566993 330.51981 
L 486.530368 333.062551 
L 485.349616 335.605291 
L 484.040571 338.148031 
L 482.62536 340.690772 
L 481.130345 343.233512 
L 479.583737 345.776252 
L 478.013261 348.318992 
L 476.444177 350.861733 
L 474.897885 353.404473 
L 473.391226 355.947213 
L 471.936457 358.489954 
L 470.541795 361.032694 
L 469.212323 363.575434 
L 467.951059 366.118175 
L 466.759967 368.660915 
z
" clip-path="url(#pb05433f690)" style="fill: #1f77b4; fill-opacity: 0.3"/>
   </g>
   <g id="FillBetweenPolyCollection_6">
    <path d="M 548.618828 351.880028 
L 534.081172 351.880028 
L 533.368695 350.908789 
L 532.622914 349.937551 
L 531.844904 348.966313 
L 531.035843 347.995075 
L 530.197033 347.023836 
L 529.329917 346.052598 
L 528.436101 345.08136 
L 527.517375 344.110122 
L 526.575732 343.138884 
L 525.613386 342.167645 
L 524.632793 341.196407 
L 523.636667 340.225169 
L 522.628003 339.253931 
L 521.610109 338.282692 
L 520.586635 337.311454 
L 519.561619 336.340216 
L 518.53953 335.368978 
L 517.525317 334.397739 
L 516.524446 333.426501 
L 515.542934 332.455263 
L 514.587354 331.484025 
L 513.664813 330.512786 
L 512.782895 329.541548 
L 511.949558 328.57031 
L 511.172979 327.599072 
L 510.461359 326.627833 
L 509.822679 325.656595 
L 509.264424 324.685357 
L 508.793291 323.714119 
L 508.414882 322.74288 
L 508.133425 321.771642 
L 507.951531 320.800404 
L 507.87 319.829166 
L 507.887713 318.857927 
L 508.001607 317.886689 
L 508.206748 316.915451 
L 508.496498 315.944213 
L 508.862774 314.972974 
L 509.296377 314.001736 
L 509.787381 313.030498 
L 510.325545 312.05926 
L 510.900727 311.088022 
L 511.503283 310.116783 
L 512.124402 309.145545 
L 512.756383 308.174307 
L 513.392824 307.203069 
L 514.028727 306.23183 
L 514.660506 305.260592 
L 515.285922 304.289354 
L 515.903952 303.318116 
L 516.514598 302.346877 
L 517.118681 301.375639 
L 517.717604 300.404401 
L 518.31314 299.433163 
L 518.907227 298.461924 
L 519.501797 297.490686 
L 520.098642 296.519448 
L 520.699313 295.54821 
L 521.305053 294.576971 
L 521.916761 293.605733 
L 522.53497 292.634495 
L 523.159843 291.663257 
L 523.791171 290.692018 
L 524.428377 289.72078 
L 525.070514 288.749542 
L 525.716265 287.778304 
L 526.363939 286.807065 
L 527.011477 285.835827 
L 527.656458 284.864589 
L 528.296132 283.893351 
L 528.927453 282.922112 
L 529.547149 281.950874 
L 530.151796 280.979636 
L 530.737923 280.008398 
L 531.302124 279.03716 
L 531.841182 278.065921 
L 532.352195 277.094683 
L 532.832695 276.123445 
L 533.280763 275.152207 
L 533.695114 274.180968 
L 534.075171 273.20973 
L 534.421103 272.238492 
L 534.733837 271.267254 
L 535.015044 270.296015 
L 535.267085 269.324777 
L 535.492943 268.353539 
L 535.696115 267.382301 
L 535.880497 266.411062 
L 536.050245 265.439824 
L 536.209625 264.468586 
L 536.362859 263.497348 
L 536.513971 262.526109 
L 536.666642 261.554871 
L 536.824077 260.583633 
L 536.98889 259.612395 
L 537.163023 258.641156 
L 537.347681 257.669918 
L 537.543319 256.69868 
L 537.749645 255.727442 
L 544.950355 255.727442 
L 544.950355 255.727442 
L 545.156681 256.69868 
L 545.352319 257.669918 
L 545.536977 258.641156 
L 545.71111 259.612395 
L 545.875923 260.583633 
L 546.033358 261.554871 
L 546.186029 262.526109 
L 546.337141 263.497348 
L 546.490375 264.468586 
L 546.649755 265.439824 
L 546.819503 266.411062 
L 547.003885 267.382301 
L 547.207057 268.353539 
L 547.432915 269.324777 
L 547.684956 270.296015 
L 547.966163 271.267254 
L 548.278897 272.238492 
L 548.624829 273.20973 
L 549.004886 274.180968 
L 549.419237 275.152207 
L 549.867305 276.123445 
L 550.347805 277.094683 
L 550.858818 278.065921 
L 551.397876 279.03716 
L 551.962077 280.008398 
L 552.548204 280.979636 
L 553.152851 281.950874 
L 553.772547 282.922112 
L 554.403868 283.893351 
L 555.043542 284.864589 
L 555.688523 285.835827 
L 556.336061 286.807065 
L 556.983735 287.778304 
L 557.629486 288.749542 
L 558.271623 289.72078 
L 558.908829 290.692018 
L 559.540157 291.663257 
L 560.16503 292.634495 
L 560.783239 293.605733 
L 561.394947 294.576971 
L 562.000687 295.54821 
L 562.601358 296.519448 
L 563.198203 297.490686 
L 563.792773 298.461924 
L 564.38686 299.433163 
L 564.982396 300.404401 
L 565.581319 301.375639 
L 566.185402 302.346877 
L 566.796048 303.318116 
L 567.414078 304.289354 
L 568.039494 305.260592 
L 568.671273 306.23183 
L 569.307176 307.203069 
L 569.943617 308.174307 
L 570.575598 309.145545 
L 571.196717 310.116783 
L 571.799273 311.088022 
L 572.374455 312.05926 
L 572.912619 313.030498 
L 573.403623 314.001736 
L 573.837226 314.972974 
L 574.203502 315.944213 
L 574.493252 316.915451 
L 574.698393 317.886689 
L 574.812287 318.857927 
L 574.83 319.829166 
L 574.748469 320.800404 
L 574.566575 321.771642 
L 574.285118 322.74288 
L 573.906709 323.714119 
L 573.435576 324.685357 
L 572.877321 325.656595 
L 572.238641 326.627833 
L 571.527021 327.599072 
L 570.750442 328.57031 
L 569.917105 329.541548 
L 569.035187 330.512786 
L 568.112646 331.484025 
L 567.157066 332.455263 
L 566.175554 333.426501 
L 565.174683 334.397739 
L 564.16047 335.368978 
L 563.138381 336.340216 
L 562.113365 337.311454 
L 561.089891 338.282692 
L 560.071997 339.253931 
L 559.063333 340.225169 
L 558.067207 341.196407 
L 557.086614 342.167645 
L 556.124268 343.138884 
L 555.182625 344.110122 
L 554.263899 345.08136 
L 553.370083 346.052598 
L 552.502967 347.023836 
L 551.664157 347.995075 
L 550.855096 348.966313 
L 550.077086 349.937551 
L 549.331305 350.908789 
L 548.618828 351.880028 
z
" clip-path="url(#pb05433f690)" style="fill: #1f77b4; fill-opacity: 0.3"/>
   </g>
   <g id="matplotlib.axis_1">
    <g id="xtick_1">
     <g id="line2d_1">
      <defs>
       <path id="m49da1a539e" d="M 0 0 
L 0 3.5 
" style="stroke: #000000; stroke-width: 0.8"/>
      </defs>
      <g>
       <use xlink:href="#m49da1a539e" x="122.85" y="384.48" style="stroke: #000000; stroke-width: 0.8"/>
      </g>
     </g>
     <g id="text_1">
      <!-- Arrow -->
      <g transform="translate(111.26625 397.55875) scale(0.08 -0.08)">
       <defs>
        <path id="DejaVuSans-41" d="M 2188 4044 
L 1331 1722 
L 3047 1722 
L 2188 4044 
z
M 1831 4666 
L 2547 4666 
L 4325 0 
L 3669 0 
L 3244 1197 
L 1141 1197 
L 716 0 
L 50 0 
L 1831 4666 
z
" transform="scale(0.015625)"/>
        <path id="DejaVuSans-72" d="M 2631 2963 
Q 2534 3019 2420 3045 
Q 2306 3072 2169 3072 
Q 1681 3072 1420 2755 
Q 1159 2438 1159 1844 
L 1159 0 
L 581 0 
L 581 3500 
L 1159 3500 
L 1159 2956 
Q 1341 3275 1631 3429 
Q 1922 3584 2338 3584 
Q 2397 3584 2469 3576 
Q 2541 3569 2628 3553 
L 2631 2963 
z
" transform="scale(0.015625)"/>
        <path id="DejaVuSans-6f" d="M 1959 3097 
Q 1497 3097 1228 2736 
Q 959 2375 959 1747 
Q 959 1119 1226 758 
Q 1494 397 1959 397 
Q 2419 397 2687 759 
Q 2956 1122 2956 1747 
Q 2956 2369 2687 2733 
Q 2419 3097 1959 3097 
z
M 1959 3584 
Q 2709 3584 3137 3096 
Q 3566 2609 3566 1747 
Q 3566 888 3137 398 
Q 2709 -91 1959 -91 
Q 1206 -91 779 398 
Q 353 888 353 1747 
Q 353 2609 779 3096 
Q 1206 3584 1959 3584 
z
" transform="scale(0.015625)"/>
        <path id="DejaVuSans-77" d="M 269 3500 
L 844 3500 
L 1563 769 
L 2278 3500 
L 2956 3500 
L 3675 769 
L 4391 3500 
L 4966 3500 
L 4050 0 
L 3372 0 
L 2619 2869 
L 1863 0 
L 1184 0 
L 269 3500 
z
" transform="scale(0.015625)"/>
       </defs>
       <use xlink:href="#DejaVuSans-41"/>
       <use xlink:href="#DejaVuSans-72" transform="translate(68.408203 0)"/>
       <use xlink:href="#DejaVuSans-72" transform="translate(107.771484 0)"/>
       <use xlink:href="#DejaVuSans-6f" transform="translate(146.634766 0)"/>
       <use xlink:href="#DejaVuSans-77" transform="translate(207.816406 0)"/>
      </g>
     </g>
    </g>
    <g id="xtick_2">
     <g id="line2d_2">
      <g>
       <use xlink:href="#m49da1a539e" x="206.55" y="384.48" style="stroke: #000000; stroke-width: 0.8"/>
      </g>
     </g>
     <g id="text_2">
      <!-- Radar -->
      <g transform="translate(194.774375 397.55875) scale(0.08 -0.08)">
       <defs>
        <path id="DejaVuSans-52" d="M 2841 2188 
Q 3044 2119 3236 1894 
Q 3428 1669 3622 1275 
L 4263 0 
L 3584 0 
L 2988 1197 
Q 2756 1666 2539 1819 
Q 2322 1972 1947 1972 
L 1259 1972 
L 1259 0 
L 628 0 
L 628 4666 
L 2053 4666 
Q 2853 4666 3247 4331 
Q 3641 3997 3641 3322 
Q 3641 2881 3436 2590 
Q 3231 2300 2841 2188 
z
M 1259 4147 
L 1259 2491 
L 2053 2491 
Q 2509 2491 2742 2702 
Q 2975 2913 2975 3322 
Q 2975 3731 2742 3939 
Q 2509 4147 2053 4147 
L 1259 4147 
z
" transform="scale(0.015625)"/>
        <path id="DejaVuSans-61" d="M 2194 1759 
Q 1497 1759 1228 1600 
Q 959 1441 959 1056 
Q 959 750 1161 570 
Q 1363 391 1709 391 
Q 2188 391 2477 730 
Q 2766 1069 2766 1631 
L 2766 1759 
L 2194 1759 
z
M 3341 1997 
L 3341 0 
L 2766 0 
L 2766 531 
Q 2569 213 2275 61 
Q 1981 -91 1556 -91 
Q 1019 -91 701 211 
Q 384 513 384 1019 
Q 384 1609 779 1909 
Q 1175 2209 1959 2209 
L 2766 2209 
L 2766 2266 
Q 2766 2663 2505 2880 
Q 2244 3097 1772 3097 
Q 1472 3097 1187 3025 
Q 903 2953 641 2809 
L 641 3341 
Q 956 3463 1253 3523 
Q 1550 3584 1831 3584 
Q 2591 3584 2966 3190 
Q 3341 2797 3341 1997 
z
" transform="scale(0.015625)"/>
        <path id="DejaVuSans-64" d="M 2906 2969 
L 2906 4863 
L 3481 4863 
L 3481 0 
L 2906 0 
L 2906 525 
Q 2725 213 2448 61 
Q 2172 -91 1784 -91 
Q 1150 -91 751 415 
Q 353 922 353 1747 
Q 353 2572 751 3078 
Q 1150 3584 1784 3584 
Q 2172 3584 2448 3432 
Q 2725 3281 2906 2969 
z
M 947 1747 
Q 947 1113 1208 752 
Q 1469 391 1925 391 
Q 2381 391 2643 752 
Q 2906 1113 2906 1747 
Q 2906 2381 2643 2742 
Q 2381 3103 1925 3103 
Q 1469 3103 1208 2742 
Q 947 2381 947 1747 
z
" transform="scale(0.015625)"/>
       </defs>
       <use xlink:href="#DejaVuSans-52"/>
       <use xlink:href="#DejaVuSans-61" transform="translate(67.232422 0)"/>
       <use xlink:href="#DejaVuSans-64" transform="translate(128.511719 0)"/>
       <use xlink:href="#DejaVuSans-61" transform="translate(191.988281 0)"/>
       <use xlink:href="#DejaVuSans-72" transform="translate(253.267578 0)"/>
      </g>
     </g>
    </g>
    <g id="xtick_3">
     <g id="line2d_3">
      <g>
       <use xlink:href="#m49da1a539e" x="290.25" y="384.48" style="stroke: #000000; stroke-width: 0.8"/>
      </g>
     </g>
     <g id="text_3">
      <!-- Lights -->
      <g transform="translate(278.18375 397.55875) scale(0.08 -0.08)">
       <defs>
        <path id="DejaVuSans-4c" d="M 628 4666 
L 1259 4666 
L 1259 531 
L 3531 531 
L 3531 0 
L 628 0 
L 628 4666 
z
" transform="scale(0.015625)"/>
        <path id="DejaVuSans-69" d="M 603 3500 
L 1178 3500 
L 1178 0 
L 603 0 
L 603 3500 
z
M 603 4863 
L 1178 4863 
L 1178 4134 
L 603 4134 
L 603 4863 
z
" transform="scale(0.015625)"/>
        <path id="DejaVuSans-67" d="M 2906 1791 
Q 2906 2416 2648 2759 
Q 2391 3103 1925 3103 
Q 1463 3103 1205 2759 
Q 947 2416 947 1791 
Q 947 1169 1205 825 
Q 1463 481 1925 481 
Q 2391 481 2648 825 
Q 2906 1169 2906 1791 
z
M 3481 434 
Q 3481 -459 3084 -895 
Q 2688 -1331 1869 -1331 
Q 1566 -1331 1297 -1286 
Q 1028 -1241 775 -1147 
L 775 -588 
Q 1028 -725 1275 -790 
Q 1522 -856 1778 -856 
Q 2344 -856 2625 -561 
Q 2906 -266 2906 331 
L 2906 616 
Q 2728 306 2450 153 
Q 2172 0 1784 0 
Q 1141 0 747 490 
Q 353 981 353 1791 
Q 353 2603 747 3093 
Q 1141 3584 1784 3584 
Q 2172 3584 2450 3431 
Q 2728 3278 2906 2969 
L 2906 3500 
L 3481 3500 
L 3481 434 
z
" transform="scale(0.015625)"/>
        <path id="DejaVuSans-68" d="M 3513 2113 
L 3513 0 
L 2938 0 
L 2938 2094 
Q 2938 2591 2744 2837 
Q 2550 3084 2163 3084 
Q 1697 3084 1428 2787 
Q 1159 2491 1159 1978 
L 1159 0 
L 581 0 
L 581 4863 
L 1159 4863 
L 1159 2956 
Q 1366 3272 1645 3428 
Q 1925 3584 2291 3584 
Q 2894 3584 3203 3211 
Q 3513 2838 3513 2113 
z
" transform="scale(0.015625)"/>
        <path id="DejaVuSans-74" d="M 1172 4494 
L 1172 3500 
L 2356 3500 
L 2356 3053 
L 1172 3053 
L 1172 1153 
Q 1172 725 1289 603 
Q 1406 481 1766 481 
L 2356 481 
L 2356 0 
L 1766 0 
Q 1100 0 847 248 
Q 594 497 594 1153 
L 594 3053 
L 172 3053 
L 172 3500 
L 594 3500 
L 594 4494 
L 1172 4494 
z
" transform="scale(0.015625)"/>
        <path id="DejaVuSans-73" d="M 2834 3397 
L 2834 2853 
Q 2591 2978 2328 3040 
Q 2066 3103 1784 3103 
Q 1356 3103 1142 2972 
Q 928 2841 928 2578 
Q 928 2378 1081 2264 
Q 1234 2150 1697 2047 
L 1894 2003 
Q 2506 1872 2764 1633 
Q 3022 1394 3022 966 
Q 3022 478 2636 193 
Q 2250 -91 1575 -91 
Q 1294 -91 989 -36 
Q 684 19 347 128 
L 347 722 
Q 666 556 975 473 
Q 1284 391 1588 391 
Q 1994 391 2212 530 
Q 2431 669 2431 922 
Q 2431 1156 2273 1281 
Q 2116 1406 1581 1522 
L 1381 1569 
Q 847 1681 609 1914 
Q 372 2147 372 2553 
Q 372 3047 722 3315 
Q 1072 3584 1716 3584 
Q 2034 3584 2315 3537 
Q 2597 3491 2834 3397 
z
" transform="scale(0.015625)"/>
       </defs>
       <use xlink:href="#DejaVuSans-4c"/>
       <use xlink:href="#DejaVuSans-69" transform="translate(55.712891 0)"/>
       <use xlink:href="#DejaVuSans-67" transform="translate(83.496094 0)"/>
       <use xlink:href="#DejaVuSans-68" transform="translate(146.972656 0)"/>
       <use xlink:href="#DejaVuSans-74" transform="translate(210.351562 0)"/>
       <use xlink:href="#DejaVuSans-73" transform="translate(249.560547 0)"/>
      </g>
     </g>
    </g>
    <g id="xtick_4">
     <g id="line2d_4">
      <g>
       <use xlink:href="#m49da1a539e" x="373.95" y="384.48" style="stroke: #000000; stroke-width: 0.8"/>
      </g>
     </g>
     <g id="text_4">
      <!-- Arrow &amp; Radar -->
      <g transform="translate(344.92875 397.55875) scale(0.08 -0.08)">
       <defs>
        <path id="DejaVuSans-20" transform="scale(0.015625)"/>
        <path id="DejaVuSans-26" d="M 1556 2509 
Q 1272 2256 1139 2004 
Q 1006 1753 1006 1478 
Q 1006 1022 1337 719 
Q 1669 416 2169 416 
Q 2466 416 2725 514 
Q 2984 613 3213 813 
L 1556 2509 
z
M 1997 2859 
L 3584 1234 
Q 3769 1513 3872 1830 
Q 3975 2147 3994 2503 
L 4575 2503 
Q 4538 2091 4375 1687 
Q 4213 1284 3922 891 
L 4794 0 
L 4006 0 
L 3559 459 
Q 3234 181 2878 45 
Q 2522 -91 2113 -91 
Q 1359 -91 881 339 
Q 403 769 403 1441 
Q 403 1841 612 2192 
Q 822 2544 1241 2853 
Q 1091 3050 1012 3245 
Q 934 3441 934 3628 
Q 934 4134 1281 4442 
Q 1628 4750 2203 4750 
Q 2463 4750 2720 4694 
Q 2978 4638 3244 4525 
L 3244 3956 
Q 2972 4103 2725 4179 
Q 2478 4256 2266 4256 
Q 1938 4256 1733 4082 
Q 1528 3909 1528 3634 
Q 1528 3475 1620 3314 
Q 1713 3153 1997 2859 
z
" transform="scale(0.015625)"/>
       </defs>
       <use xlink:href="#DejaVuSans-41"/>
       <use xlink:href="#DejaVuSans-72" transform="translate(68.408203 0)"/>
       <use xlink:href="#DejaVuSans-72" transform="translate(107.771484 0)"/>
       <use xlink:href="#DejaVuSans-6f" transform="translate(146.634766 0)"/>
       <use xlink:href="#DejaVuSans-77" transform="translate(207.816406 0)"/>
       <use xlink:href="#DejaVuSans-20" transform="translate(289.603516 0)"/>
       <use xlink:href="#DejaVuSans-26" transform="translate(321.390625 0)"/>
       <use xlink:href="#DejaVuSans-20" transform="translate(399.369141 0)"/>
       <use xlink:href="#DejaVuSans-52" transform="translate(431.15625 0)"/>
       <use xlink:href="#DejaVuSans-61" transform="translate(498.388672 0)"/>
       <use xlink:href="#DejaVuSans-64" transform="translate(559.667969 0)"/>
       <use xlink:href="#DejaVuSans-61" transform="translate(623.144531 0)"/>
       <use xlink:href="#DejaVuSans-72" transform="translate(684.423828 0)"/>
      </g>
     </g>
    </g>
    <g id="xtick_5">
     <g id="line2d_5">
      <g>
       <use xlink:href="#m49da1a539e" x="457.65" y="384.48" style="stroke: #000000; stroke-width: 0.8"/>
      </g>
     </g>
     <g id="text_5">
      <!-- Arrow &amp; Lights -->
      <g transform="translate(428.338125 397.55875) scale(0.08 -0.08)">
       <use xlink:href="#DejaVuSans-41"/>
       <use xlink:href="#DejaVuSans-72" transform="translate(68.408203 0)"/>
       <use xlink:href="#DejaVuSans-72" transform="translate(107.771484 0)"/>
       <use xlink:href="#DejaVuSans-6f" transform="translate(146.634766 0)"/>
       <use xlink:href="#DejaVuSans-77" transform="translate(207.816406 0)"/>
       <use xlink:href="#DejaVuSans-20" transform="translate(289.603516 0)"/>
       <use xlink:href="#DejaVuSans-26" transform="translate(321.390625 0)"/>
       <use xlink:href="#DejaVuSans-20" transform="translate(399.369141 0)"/>
       <use xlink:href="#DejaVuSans-4c" transform="translate(431.15625 0)"/>
       <use xlink:href="#DejaVuSans-69" transform="translate(486.869141 0)"/>
       <use xlink:href="#DejaVuSans-67" transform="translate(514.652344 0)"/>
       <use xlink:href="#DejaVuSans-68" transform="translate(578.128906 0)"/>
       <use xlink:href="#DejaVuSans-74" transform="translate(641.507812 0)"/>
       <use xlink:href="#DejaVuSans-73" transform="translate(680.716797 0)"/>
      </g>
     </g>
    </g>
    <g id="xtick_6">
     <g id="line2d_6">
      <g>
       <use xlink:href="#m49da1a539e" x="541.35" y="384.48" style="stroke: #000000; stroke-width: 0.8"/>
      </g>
     </g>
     <g id="text_6">
      <!-- Lights &amp; Radar -->
      <g transform="translate(511.84625 397.55875) scale(0.08 -0.08)">
       <use xlink:href="#DejaVuSans-4c"/>
       <use xlink:href="#DejaVuSans-69" transform="translate(55.712891 0)"/>
       <use xlink:href="#DejaVuSans-67" transform="translate(83.496094 0)"/>
       <use xlink:href="#DejaVuSans-68" transform="translate(146.972656 0)"/>
       <use xlink:href="#DejaVuSans-74" transform="translate(210.351562 0)"/>
       <use xlink:href="#DejaVuSans-73" transform="translate(249.560547 0)"/>
       <use xlink:href="#DejaVuSans-20" transform="translate(301.660156 0)"/>
       <use xlink:href="#DejaVuSans-26" transform="translate(333.447266 0)"/>
       <use xlink:href="#DejaVuSans-20" transform="translate(411.425781 0)"/>
       <use xlink:href="#DejaVuSans-52" transform="translate(443.212891 0)"/>
       <use xlink:href="#DejaVuSans-61" transform="translate(510.445312 0)"/>
       <use xlink:href="#DejaVuSans-64" transform="translate(571.724609 0)"/>
       <use xlink:href="#DejaVuSans-61" transform="translate(635.201172 0)"/>
       <use xlink:href="#DejaVuSans-72" transform="translate(696.480469 0)"/>
      </g>
     </g>
    </g>
    <g id="text_7">
     <!-- Visualization -->
     <g transform="translate(300.521875 416.820938) scale(0.1 -0.1)">
      <defs>
       <path id="DejaVuSans-56" d="M 1831 0 
L 50 4666 
L 709 4666 
L 2188 738 
L 3669 4666 
L 4325 4666 
L 2547 0 
L 1831 0 
z
" transform="scale(0.015625)"/>
       <path id="DejaVuSans-75" d="M 544 1381 
L 544 3500 
L 1119 3500 
L 1119 1403 
Q 1119 906 1312 657 
Q 1506 409 1894 409 
Q 2359 409 2629 706 
Q 2900 1003 2900 1516 
L 2900 3500 
L 3475 3500 
L 3475 0 
L 2900 0 
L 2900 538 
Q 2691 219 2414 64 
Q 2138 -91 1772 -91 
Q 1169 -91 856 284 
Q 544 659 544 1381 
z
M 1991 3584 
L 1991 3584 
z
" transform="scale(0.015625)"/>
       <path id="DejaVuSans-6c" d="M 603 4863 
L 1178 4863 
L 1178 0 
L 603 0 
L 603 4863 
z
" transform="scale(0.015625)"/>
       <path id="DejaVuSans-7a" d="M 353 3500 
L 3084 3500 
L 3084 2975 
L 922 459 
L 3084 459 
L 3084 0 
L 275 0 
L 275 525 
L 2438 3041 
L 353 3041 
L 353 3500 
z
" transform="scale(0.015625)"/>
       <path id="DejaVuSans-6e" d="M 3513 2113 
L 3513 0 
L 2938 0 
L 2938 2094 
Q 2938 2591 2744 2837 
Q 2550 3084 2163 3084 
Q 1697 3084 1428 2787 
Q 1159 2491 1159 1978 
L 1159 0 
L 581 0 
L 581 3500 
L 1159 3500 
L 1159 2956 
Q 1366 3272 1645 3428 
Q 1925 3584 2291 3584 
Q 2894 3584 3203 3211 
Q 3513 2838 3513 2113 
z
" transform="scale(0.015625)"/>
      </defs>
      <use xlink:href="#DejaVuSans-56"/>
      <use xlink:href="#DejaVuSans-69" transform="translate(66.158203 0)"/>
      <use xlink:href="#DejaVuSans-73" transform="translate(93.941406 0)"/>
      <use xlink:href="#DejaVuSans-75" transform="translate(146.041016 0)"/>
      <use xlink:href="#DejaVuSans-61" transform="translate(209.419922 0)"/>
      <use xlink:href="#DejaVuSans-6c" transform="translate(270.699219 0)"/>
      <use xlink:href="#DejaVuSans-69" transform="translate(298.482422 0)"/>
      <use xlink:href="#DejaVuSans-7a" transform="translate(326.265625 0)"/>
      <use xlink:href="#DejaVuSans-61" transform="translate(378.755859 0)"/>
      <use xlink:href="#DejaVuSans-74" transform="translate(440.035156 0)"/>
      <use xlink:href="#DejaVuSans-69" transform="translate(479.244141 0)"/>
      <use xlink:href="#DejaVuSans-6f" transform="translate(507.027344 0)"/>
      <use xlink:href="#DejaVuSans-6e" transform="translate(568.208984 0)"/>
     </g>
    </g>
   </g>
   <g id="matplotlib.axis_2">
    <g id="ytick_1">
     <g id="line2d_7">
      <defs>
       <path id="me3ac8f1686" d="M 0 0 
L -3.5 0 
" style="stroke: #000000; stroke-width: 0.8"/>
      </defs>
      <g>
       <use xlink:href="#me3ac8f1686" x="81" y="384.48" style="stroke: #000000; stroke-width: 0.8"/>
      </g>
     </g>
     <g id="text_8">
      <!-- 0 -->
      <g transform="translate(67.6375 388.279219) scale(0.1 -0.1)">
       <defs>
        <path id="DejaVuSans-30" d="M 2034 4250 
Q 1547 4250 1301 3770 
Q 1056 3291 1056 2328 
Q 1056 1369 1301 889 
Q 1547 409 2034 409 
Q 2525 409 2770 889 
Q 3016 1369 3016 2328 
Q 3016 3291 2770 3770 
Q 2525 4250 2034 4250 
z
M 2034 4750 
Q 2819 4750 3233 4129 
Q 3647 3509 3647 2328 
Q 3647 1150 3233 529 
Q 2819 -91 2034 -91 
Q 1250 -91 836 529 
Q 422 1150 422 2328 
Q 422 3509 836 4129 
Q 1250 4750 2034 4750 
z
" transform="scale(0.015625)"/>
       </defs>
       <use xlink:href="#DejaVuSans-30"/>
      </g>
     </g>
    </g>
    <g id="ytick_2">
     <g id="line2d_8">
      <g>
       <use xlink:href="#me3ac8f1686" x="81" y="335.389179" style="stroke: #000000; stroke-width: 0.8"/>
      </g>
     </g>
     <g id="text_9">
      <!-- 10 -->
      <g transform="translate(61.275 339.188398) scale(0.1 -0.1)">
       <defs>
        <path id="DejaVuSans-31" d="M 794 531 
L 1825 531 
L 1825 4091 
L 703 3866 
L 703 4441 
L 1819 4666 
L 2450 4666 
L 2450 531 
L 3481 531 
L 3481 0 
L 794 0 
L 794 531 
z
" transform="scale(0.015625)"/>
       </defs>
       <use xlink:href="#DejaVuSans-31"/>
       <use xlink:href="#DejaVuSans-30" transform="translate(63.623047 0)"/>
      </g>
     </g>
    </g>
    <g id="ytick_3">
     <g id="line2d_9">
      <g>
       <use xlink:href="#me3ac8f1686" x="81" y="286.298358" style="stroke: #000000; stroke-width: 0.8"/>
      </g>
     </g>
     <g id="text_10">
      <!-- 20 -->
      <g transform="translate(61.275 290.097577) scale(0.1 -0.1)">
       <defs>
        <path id="DejaVuSans-32" d="M 1228 531 
L 3431 531 
L 3431 0 
L 469 0 
L 469 531 
Q 828 903 1448 1529 
Q 2069 2156 2228 2338 
Q 2531 2678 2651 2914 
Q 2772 3150 2772 3378 
Q 2772 3750 2511 3984 
Q 2250 4219 1831 4219 
Q 1534 4219 1204 4116 
Q 875 4013 500 3803 
L 500 4441 
Q 881 4594 1212 4672 
Q 1544 4750 1819 4750 
Q 2544 4750 2975 4387 
Q 3406 4025 3406 3419 
Q 3406 3131 3298 2873 
Q 3191 2616 2906 2266 
Q 2828 2175 2409 1742 
Q 1991 1309 1228 531 
z
" transform="scale(0.015625)"/>
       </defs>
       <use xlink:href="#DejaVuSans-32"/>
       <use xlink:href="#DejaVuSans-30" transform="translate(63.623047 0)"/>
      </g>
     </g>
    </g>
    <g id="ytick_4">
     <g id="line2d_10">
      <g>
       <use xlink:href="#me3ac8f1686" x="81" y="237.207537" style="stroke: #000000; stroke-width: 0.8"/>
      </g>
     </g>
     <g id="text_11">
      <!-- 30 -->
      <g transform="translate(61.275 241.006755) scale(0.1 -0.1)">
       <defs>
        <path id="DejaVuSans-33" d="M 2597 2516 
Q 3050 2419 3304 2112 
Q 3559 1806 3559 1356 
Q 3559 666 3084 287 
Q 2609 -91 1734 -91 
Q 1441 -91 1130 -33 
Q 819 25 488 141 
L 488 750 
Q 750 597 1062 519 
Q 1375 441 1716 441 
Q 2309 441 2620 675 
Q 2931 909 2931 1356 
Q 2931 1769 2642 2001 
Q 2353 2234 1838 2234 
L 1294 2234 
L 1294 2753 
L 1863 2753 
Q 2328 2753 2575 2939 
Q 2822 3125 2822 3475 
Q 2822 3834 2567 4026 
Q 2313 4219 1838 4219 
Q 1578 4219 1281 4162 
Q 984 4106 628 3988 
L 628 4550 
Q 988 4650 1302 4700 
Q 1616 4750 1894 4750 
Q 2613 4750 3031 4423 
Q 3450 4097 3450 3541 
Q 3450 3153 3228 2886 
Q 3006 2619 2597 2516 
z
" transform="scale(0.015625)"/>
       </defs>
       <use xlink:href="#DejaVuSans-33"/>
       <use xlink:href="#DejaVuSans-30" transform="translate(63.623047 0)"/>
      </g>
     </g>
    </g>
    <g id="ytick_5">
     <g id="line2d_11">
      <g>
       <use xlink:href="#me3ac8f1686" x="81" y="188.116716" style="stroke: #000000; stroke-width: 0.8"/>
      </g>
     </g>
     <g id="text_12">
      <!-- 40 -->
      <g transform="translate(61.275 191.915934) scale(0.1 -0.1)">
       <defs>
        <path id="DejaVuSans-34" d="M 2419 4116 
L 825 1625 
L 2419 1625 
L 2419 4116 
z
M 2253 4666 
L 3047 4666 
L 3047 1625 
L 3713 1625 
L 3713 1100 
L 3047 1100 
L 3047 0 
L 2419 0 
L 2419 1100 
L 313 1100 
L 313 1709 
L 2253 4666 
z
" transform="scale(0.015625)"/>
       </defs>
       <use xlink:href="#DejaVuSans-34"/>
       <use xlink:href="#DejaVuSans-30" transform="translate(63.623047 0)"/>
      </g>
     </g>
    </g>
    <g id="ytick_6">
     <g id="line2d_12">
      <g>
       <use xlink:href="#me3ac8f1686" x="81" y="139.025894" style="stroke: #000000; stroke-width: 0.8"/>
      </g>
     </g>
     <g id="text_13">
      <!-- 50 -->
      <g transform="translate(61.275 142.825113) scale(0.1 -0.1)">
       <defs>
        <path id="DejaVuSans-35" d="M 691 4666 
L 3169 4666 
L 3169 4134 
L 1269 4134 
L 1269 2991 
Q 1406 3038 1543 3061 
Q 1681 3084 1819 3084 
Q 2600 3084 3056 2656 
Q 3513 2228 3513 1497 
Q 3513 744 3044 326 
Q 2575 -91 1722 -91 
Q 1428 -91 1123 -41 
Q 819 9 494 109 
L 494 744 
Q 775 591 1075 516 
Q 1375 441 1709 441 
Q 2250 441 2565 725 
Q 2881 1009 2881 1497 
Q 2881 1984 2565 2268 
Q 2250 2553 1709 2553 
Q 1456 2553 1204 2497 
Q 953 2441 691 2322 
L 691 4666 
z
" transform="scale(0.015625)"/>
       </defs>
       <use xlink:href="#DejaVuSans-35"/>
       <use xlink:href="#DejaVuSans-30" transform="translate(63.623047 0)"/>
      </g>
     </g>
    </g>
    <g id="ytick_7">
     <g id="line2d_13">
      <g>
       <use xlink:href="#me3ac8f1686" x="81" y="89.935073" style="stroke: #000000; stroke-width: 0.8"/>
      </g>
     </g>
     <g id="text_14">
      <!-- 60 -->
      <g transform="translate(61.275 93.734292) scale(0.1 -0.1)">
       <defs>
        <path id="DejaVuSans-36" d="M 2113 2584 
Q 1688 2584 1439 2293 
Q 1191 2003 1191 1497 
Q 1191 994 1439 701 
Q 1688 409 2113 409 
Q 2538 409 2786 701 
Q 3034 994 3034 1497 
Q 3034 2003 2786 2293 
Q 2538 2584 2113 2584 
z
M 3366 4563 
L 3366 3988 
Q 3128 4100 2886 4159 
Q 2644 4219 2406 4219 
Q 1781 4219 1451 3797 
Q 1122 3375 1075 2522 
Q 1259 2794 1537 2939 
Q 1816 3084 2150 3084 
Q 2853 3084 3261 2657 
Q 3669 2231 3669 1497 
Q 3669 778 3244 343 
Q 2819 -91 2113 -91 
Q 1303 -91 875 529 
Q 447 1150 447 2328 
Q 447 3434 972 4092 
Q 1497 4750 2381 4750 
Q 2619 4750 2861 4703 
Q 3103 4656 3366 4563 
z
" transform="scale(0.015625)"/>
       </defs>
       <use xlink:href="#DejaVuSans-36"/>
       <use xlink:href="#DejaVuSans-30" transform="translate(63.623047 0)"/>
      </g>
     </g>
    </g>
    <g id="text_15">
     <!-- Response Time -->
     <g transform="translate(49.195312 255.996719) rotate(-90) scale(0.1 -0.1)">
      <defs>
       <path id="DejaVuSans-65" d="M 3597 1894 
L 3597 1613 
L 953 1613 
Q 991 1019 1311 708 
Q 1631 397 2203 397 
Q 2534 397 2845 478 
Q 3156 559 3463 722 
L 3463 178 
Q 3153 47 2828 -22 
Q 2503 -91 2169 -91 
Q 1331 -91 842 396 
Q 353 884 353 1716 
Q 353 2575 817 3079 
Q 1281 3584 2069 3584 
Q 2775 3584 3186 3129 
Q 3597 2675 3597 1894 
z
M 3022 2063 
Q 3016 2534 2758 2815 
Q 2500 3097 2075 3097 
Q 1594 3097 1305 2825 
Q 1016 2553 972 2059 
L 3022 2063 
z
" transform="scale(0.015625)"/>
       <path id="DejaVuSans-70" d="M 1159 525 
L 1159 -1331 
L 581 -1331 
L 581 3500 
L 1159 3500 
L 1159 2969 
Q 1341 3281 1617 3432 
Q 1894 3584 2278 3584 
Q 2916 3584 3314 3078 
Q 3713 2572 3713 1747 
Q 3713 922 3314 415 
Q 2916 -91 2278 -91 
Q 1894 -91 1617 61 
Q 1341 213 1159 525 
z
M 3116 1747 
Q 3116 2381 2855 2742 
Q 2594 3103 2138 3103 
Q 1681 3103 1420 2742 
Q 1159 2381 1159 1747 
Q 1159 1113 1420 752 
Q 1681 391 2138 391 
Q 2594 391 2855 752 
Q 3116 1113 3116 1747 
z
" transform="scale(0.015625)"/>
       <path id="DejaVuSans-54" d="M -19 4666 
L 3928 4666 
L 3928 4134 
L 2272 4134 
L 2272 0 
L 1638 0 
L 1638 4134 
L -19 4134 
L -19 4666 
z
" transform="scale(0.015625)"/>
       <path id="DejaVuSans-6d" d="M 3328 2828 
Q 3544 3216 3844 3400 
Q 4144 3584 4550 3584 
Q 5097 3584 5394 3201 
Q 5691 2819 5691 2113 
L 5691 0 
L 5113 0 
L 5113 2094 
Q 5113 2597 4934 2840 
Q 4756 3084 4391 3084 
Q 3944 3084 3684 2787 
Q 3425 2491 3425 1978 
L 3425 0 
L 2847 0 
L 2847 2094 
Q 2847 2600 2669 2842 
Q 2491 3084 2119 3084 
Q 1678 3084 1418 2786 
Q 1159 2488 1159 1978 
L 1159 0 
L 581 0 
L 581 3500 
L 1159 3500 
L 1159 2956 
Q 1356 3278 1631 3431 
Q 1906 3584 2284 3584 
Q 2666 3584 2933 3390 
Q 3200 3197 3328 2828 
z
" transform="scale(0.015625)"/>
      </defs>
      <use xlink:href="#DejaVuSans-52"/>
      <use xlink:href="#DejaVuSans-65" transform="translate(64.982422 0)"/>
      <use xlink:href="#DejaVuSans-73" transform="translate(126.505859 0)"/>
      <use xlink:href="#DejaVuSans-70" transform="translate(178.605469 0)"/>
      <use xlink:href="#DejaVuSans-6f" transform="translate(242.082031 0)"/>
      <use xlink:href="#DejaVuSans-6e" transform="translate(303.263672 0)"/>
      <use xlink:href="#DejaVuSans-73" transform="translate(366.642578 0)"/>
      <use xlink:href="#DejaVuSans-65" transform="translate(418.742188 0)"/>
      <use xlink:href="#DejaVuSans-20" transform="translate(480.265625 0)"/>
      <use xlink:href="#DejaVuSans-54" transform="translate(512.052734 0)"/>
      <use xlink:href="#DejaVuSans-69" transform="translate(570.011719 0)"/>
      <use xlink:href="#DejaVuSans-6d" transform="translate(597.794922 0)"/>
      <use xlink:href="#DejaVuSans-65" transform="translate(695.207031 0)"/>
     </g>
    </g>
   </g>
   <g id="LineCollection_1">
    <path d="M 106.11 125.528324 
L 139.59 125.528324 
" clip-path="url(#pb05433f690)" style="fill: none; stroke: #1f77b4; stroke-width: 1.5"/>
    <path d="M 189.81 201.347919 
L 223.29 201.347919 
" clip-path="url(#pb05433f690)" style="fill: none; stroke: #1f77b4; stroke-width: 1.5"/>
    <path d="M 273.51 67.121489 
L 306.99 67.121489 
" clip-path="url(#pb05433f690)" style="fill: none; stroke: #1f77b4; stroke-width: 1.5"/>
    <path d="M 357.21 194.53053 
L 390.69 194.53053 
" clip-path="url(#pb05433f690)" style="fill: none; stroke: #1f77b4; stroke-width: 1.5"/>
    <path d="M 440.91 116.929625 
L 474.39 116.929625 
" clip-path="url(#pb05433f690)" style="fill: none; stroke: #1f77b4; stroke-width: 1.5"/>
    <path d="M 524.61 255.727442 
L 558.09 255.727442 
" clip-path="url(#pb05433f690)" style="fill: none; stroke: #1f77b4; stroke-width: 1.5"/>
   </g>
   <g id="LineCollection_2">
    <path d="M 106.11 347.53604 
L 139.59 347.53604 
" clip-path="url(#pb05433f690)" style="fill: none; stroke: #1f77b4; stroke-width: 1.5"/>
    <path d="M 189.81 352.765724 
L 223.29 352.765724 
" clip-path="url(#pb05433f690)" style="fill: none; stroke: #1f77b4; stroke-width: 1.5"/>
    <path d="M 273.51 372.751265 
L 306.99 372.751265 
" clip-path="url(#pb05433f690)" style="fill: none; stroke: #1f77b4; stroke-width: 1.5"/>
    <path d="M 357.21 358.187766 
L 390.69 358.187766 
" clip-path="url(#pb05433f690)" style="fill: none; stroke: #1f77b4; stroke-width: 1.5"/>
    <path d="M 440.91 368.660915 
L 474.39 368.660915 
" clip-path="url(#pb05433f690)" style="fill: none; stroke: #1f77b4; stroke-width: 1.5"/>
    <path d="M 524.61 351.880028 
L 558.09 351.880028 
" clip-path="url(#pb05433f690)" style="fill: none; stroke: #1f77b4; stroke-width: 1.5"/>
   </g>
   <g id="LineCollection_3">
    <path d="M 122.85 347.53604 
L 122.85 125.528324 
" clip-path="url(#pb05433f690)" style="fill: none; stroke: #1f77b4; stroke-width: 1.5"/>
    <path d="M 206.55 352.765724 
L 206.55 201.347919 
" clip-path="url(#pb05433f690)" style="fill: none; stroke: #1f77b4; stroke-width: 1.5"/>
    <path d="M 290.25 372.751265 
L 290.25 67.121489 
" clip-path="url(#pb05433f690)" style="fill: none; stroke: #1f77b4; stroke-width: 1.5"/>
    <path d="M 373.95 358.187766 
L 373.95 194.53053 
" clip-path="url(#pb05433f690)" style="fill: none; stroke: #1f77b4; stroke-width: 1.5"/>
    <path d="M 457.65 368.660915 
L 457.65 116.929625 
" clip-path="url(#pb05433f690)" style="fill: none; stroke: #1f77b4; stroke-width: 1.5"/>
    <path d="M 541.35 351.880028 
L 541.35 255.727442 
" clip-path="url(#pb05433f690)" style="fill: none; stroke: #1f77b4; stroke-width: 1.5"/>
   </g>
   <g id="patch_3">
    <path d="M 110.295 320.966062 
L 135.405 320.966062 
L 135.405 264.776169 
L 110.295 264.776169 
L 110.295 320.966062 
z
" clip-path="url(#pb05433f690)" style="fill: #add8e6; stroke: #000000; stroke-linejoin: miter"/>
   </g>
   <g id="line2d_14">
    <path d="M 122.85 320.966062 
L 122.85 347.53604 
" clip-path="url(#pb05433f690)" style="fill: none; stroke: #000000; stroke-linecap: square"/>
   </g>
   <g id="line2d_15">
    <path d="M 122.85 264.776169 
L 122.85 185.249419 
" clip-path="url(#pb05433f690)" style="fill: none; stroke: #000000; stroke-linecap: square"/>
   </g>
   <g id="line2d_16">
    <path d="M 116.5725 347.53604 
L 129.1275 347.53604 
" clip-path="url(#pb05433f690)" style="fill: none; stroke: #000000; stroke-linecap: square"/>
   </g>
   <g id="line2d_17">
    <path d="M 116.5725 185.249419 
L 129.1275 185.249419 
" clip-path="url(#pb05433f690)" style="fill: none; stroke: #000000; stroke-linecap: square"/>
   </g>
   <g id="line2d_18">
    <defs>
     <path id="mde7cca4d0f" d="M 0 2 
C 0.530406 2 1.03916 1.789267 1.414214 1.414214 
C 1.789267 1.03916 2 0.530406 2 0 
C 2 -0.530406 1.789267 -1.03916 1.414214 -1.414214 
C 1.03916 -1.789267 0.530406 -2 0 -2 
C -0.530406 -2 -1.03916 -1.789267 -1.414214 -1.414214 
C -1.789267 -1.03916 -2 -0.530406 -2 0 
C -2 0.530406 -1.789267 1.03916 -1.414214 1.414214 
C -1.03916 1.789267 -0.530406 2 0 2 
z
" style="stroke: #000000"/>
    </defs>
    <g clip-path="url(#pb05433f690)">
     <use xlink:href="#mde7cca4d0f" x="122.85" y="142.778544" style="fill-opacity: 0; stroke: #000000"/>
     <use xlink:href="#mde7cca4d0f" x="122.85" y="125.528324" style="fill-opacity: 0; stroke: #000000"/>
    </g>
   </g>
   <g id="patch_4">
    <path d="M 193.995 315.636076 
L 219.105 315.636076 
L 219.105 269.250502 
L 193.995 269.250502 
L 193.995 315.636076 
z
" clip-path="url(#pb05433f690)" style="fill: #add8e6; stroke: #000000; stroke-linejoin: miter"/>
   </g>
   <g id="line2d_19">
    <path d="M 206.55 315.636076 
L 206.55 352.765724 
" clip-path="url(#pb05433f690)" style="fill: none; stroke: #000000; stroke-linecap: square"/>
   </g>
   <g id="line2d_20">
    <path d="M 206.55 269.250502 
L 206.55 201.347919 
" clip-path="url(#pb05433f690)" style="fill: none; stroke: #000000; stroke-linecap: square"/>
   </g>
   <g id="line2d_21">
    <path d="M 200.2725 352.765724 
L 212.8275 352.765724 
" clip-path="url(#pb05433f690)" style="fill: none; stroke: #000000; stroke-linecap: square"/>
   </g>
   <g id="line2d_22">
    <path d="M 200.2725 201.347919 
L 212.8275 201.347919 
" clip-path="url(#pb05433f690)" style="fill: none; stroke: #000000; stroke-linecap: square"/>
   </g>
   <g id="line2d_23"/>
   <g id="patch_5">
    <path d="M 277.695 317.862663 
L 302.805 317.862663 
L 302.805 254.614 
L 277.695 254.614 
L 277.695 317.862663 
z
" clip-path="url(#pb05433f690)" style="fill: #add8e6; stroke: #000000; stroke-linejoin: miter"/>
   </g>
   <g id="line2d_24">
    <path d="M 290.25 317.862663 
L 290.25 372.751265 
" clip-path="url(#pb05433f690)" style="fill: none; stroke: #000000; stroke-linecap: square"/>
   </g>
   <g id="line2d_25">
    <path d="M 290.25 254.614 
L 290.25 161.434087 
" clip-path="url(#pb05433f690)" style="fill: none; stroke: #000000; stroke-linecap: square"/>
   </g>
   <g id="line2d_26">
    <path d="M 283.9725 372.751265 
L 296.5275 372.751265 
" clip-path="url(#pb05433f690)" style="fill: none; stroke: #000000; stroke-linecap: square"/>
   </g>
   <g id="line2d_27">
    <path d="M 283.9725 161.434087 
L 296.5275 161.434087 
" clip-path="url(#pb05433f690)" style="fill: none; stroke: #000000; stroke-linecap: square"/>
   </g>
   <g id="line2d_28">
    <g clip-path="url(#pb05433f690)">
     <use xlink:href="#mde7cca4d0f" x="290.25" y="80.596625" style="fill-opacity: 0; stroke: #000000"/>
     <use xlink:href="#mde7cca4d0f" x="290.25" y="110.815167" style="fill-opacity: 0; stroke: #000000"/>
     <use xlink:href="#mde7cca4d0f" x="290.25" y="133.83346" style="fill-opacity: 0; stroke: #000000"/>
     <use xlink:href="#mde7cca4d0f" x="290.25" y="67.121489" style="fill-opacity: 0; stroke: #000000"/>
    </g>
   </g>
   <g id="patch_6">
    <path d="M 361.395 328.850134 
L 386.505 328.850134 
L 386.505 295.682375 
L 361.395 295.682375 
L 361.395 328.850134 
z
" clip-path="url(#pb05433f690)" style="fill: #add8e6; stroke: #000000; stroke-linejoin: miter"/>
   </g>
   <g id="line2d_29">
    <path d="M 373.95 328.850134 
L 373.95 358.187766 
" clip-path="url(#pb05433f690)" style="fill: none; stroke: #000000; stroke-linecap: square"/>
   </g>
   <g id="line2d_30">
    <path d="M 373.95 295.682375 
L 373.95 246.749467 
" clip-path="url(#pb05433f690)" style="fill: none; stroke: #000000; stroke-linecap: square"/>
   </g>
   <g id="line2d_31">
    <path d="M 367.6725 358.187766 
L 380.2275 358.187766 
" clip-path="url(#pb05433f690)" style="fill: none; stroke: #000000; stroke-linecap: square"/>
   </g>
   <g id="line2d_32">
    <path d="M 367.6725 246.749467 
L 380.2275 246.749467 
" clip-path="url(#pb05433f690)" style="fill: none; stroke: #000000; stroke-linecap: square"/>
   </g>
   <g id="line2d_33">
    <g clip-path="url(#pb05433f690)">
     <use xlink:href="#mde7cca4d0f" x="373.95" y="236.694881" style="fill-opacity: 0; stroke: #000000"/>
     <use xlink:href="#mde7cca4d0f" x="373.95" y="233.940395" style="fill-opacity: 0; stroke: #000000"/>
     <use xlink:href="#mde7cca4d0f" x="373.95" y="241.513194" style="fill-opacity: 0; stroke: #000000"/>
     <use xlink:href="#mde7cca4d0f" x="373.95" y="194.53053" style="fill-opacity: 0; stroke: #000000"/>
     <use xlink:href="#mde7cca4d0f" x="373.95" y="215.959802" style="fill-opacity: 0; stroke: #000000"/>
    </g>
   </g>
   <g id="patch_7">
    <path d="M 445.095 328.164875 
L 470.205 328.164875 
L 470.205 281.412962 
L 445.095 281.412962 
L 445.095 328.164875 
z
" clip-path="url(#pb05433f690)" style="fill: #add8e6; stroke: #000000; stroke-linejoin: miter"/>
   </g>
   <g id="line2d_34">
    <path d="M 457.65 328.164875 
L 457.65 368.660915 
" clip-path="url(#pb05433f690)" style="fill: none; stroke: #000000; stroke-linecap: square"/>
   </g>
   <g id="line2d_35">
    <path d="M 457.65 281.412962 
L 457.65 220.161191 
" clip-path="url(#pb05433f690)" style="fill: none; stroke: #000000; stroke-linecap: square"/>
   </g>
   <g id="line2d_36">
    <path d="M 451.3725 368.660915 
L 463.9275 368.660915 
" clip-path="url(#pb05433f690)" style="fill: none; stroke: #000000; stroke-linecap: square"/>
   </g>
   <g id="line2d_37">
    <path d="M 451.3725 220.161191 
L 463.9275 220.161191 
" clip-path="url(#pb05433f690)" style="fill: none; stroke: #000000; stroke-linecap: square"/>
   </g>
   <g id="line2d_38">
    <g clip-path="url(#pb05433f690)">
     <use xlink:href="#mde7cca4d0f" x="457.65" y="207.031556" style="fill-opacity: 0; stroke: #000000"/>
     <use xlink:href="#mde7cca4d0f" x="457.65" y="203.460003" style="fill-opacity: 0; stroke: #000000"/>
     <use xlink:href="#mde7cca4d0f" x="457.65" y="116.929625" style="fill-opacity: 0; stroke: #000000"/>
    </g>
   </g>
   <g id="patch_8">
    <path d="M 528.795 327.515453 
L 553.905 327.515453 
L 553.905 297.614811 
L 528.795 297.614811 
L 528.795 327.515453 
z
" clip-path="url(#pb05433f690)" style="fill: #add8e6; stroke: #000000; stroke-linejoin: miter"/>
   </g>
   <g id="line2d_39">
    <path d="M 541.35 327.515453 
L 541.35 351.880028 
" clip-path="url(#pb05433f690)" style="fill: none; stroke: #000000; stroke-linecap: square"/>
   </g>
   <g id="line2d_40">
    <path d="M 541.35 297.614811 
L 541.35 255.727442 
" clip-path="url(#pb05433f690)" style="fill: none; stroke: #000000; stroke-linecap: square"/>
   </g>
   <g id="line2d_41">
    <path d="M 535.0725 351.880028 
L 547.6275 351.880028 
" clip-path="url(#pb05433f690)" style="fill: none; stroke: #000000; stroke-linecap: square"/>
   </g>
   <g id="line2d_42">
    <path d="M 535.0725 255.727442 
L 547.6275 255.727442 
" clip-path="url(#pb05433f690)" style="fill: none; stroke: #000000; stroke-linecap: square"/>
   </g>
   <g id="line2d_43"/>
   <g id="line2d_44">
    <path d="M 110.295 305.876244 
L 135.405 305.876244 
" clip-path="url(#pb05433f690)" style="fill: none; stroke: #000000"/>
   </g>
   <g id="line2d_45">
    <path d="M 193.995 296.015567 
L 219.105 296.015567 
" clip-path="url(#pb05433f690)" style="fill: none; stroke: #000000"/>
   </g>
   <g id="line2d_46">
    <path d="M 277.695 294.266927 
L 302.805 294.266927 
" clip-path="url(#pb05433f690)" style="fill: none; stroke: #000000"/>
   </g>
   <g id="line2d_47">
    <path d="M 361.395 310.503692 
L 386.505 310.503692 
" clip-path="url(#pb05433f690)" style="fill: none; stroke: #000000"/>
   </g>
   <g id="line2d_48">
    <path d="M 445.095 304.361939 
L 470.205 304.361939 
" clip-path="url(#pb05433f690)" style="fill: none; stroke: #000000"/>
   </g>
   <g id="line2d_49">
    <path d="M 528.795 316.810537 
L 553.905 316.810537 
" clip-path="url(#pb05433f690)" style="fill: none; stroke: #000000"/>
   </g>
   <g id="patch_9">
    <path d="M 81 384.48 
L 81 51.84 
" style="fill: none; stroke: #000000; stroke-width: 0.8; stroke-linejoin: miter; stroke-linecap: square"/>
   </g>
   <g id="patch_10">
    <path d="M 583.2 384.48 
L 583.2 51.84 
" style="fill: none; stroke: #000000; stroke-width: 0.8; stroke-linejoin: miter; stroke-linecap: square"/>
   </g>
   <g id="patch_11">
    <path d="M 81 384.48 
L 583.2 384.48 
" style="fill: none; stroke: #000000; stroke-width: 0.8; stroke-linejoin: miter; stroke-linecap: square"/>
   </g>
   <g id="patch_12">
    <path d="M 81 51.84 
L 583.2 51.84 
" style="fill: none; stroke: #000000; stroke-width: 0.8; stroke-linejoin: miter; stroke-linecap: square"/>
   </g>
   <g id="text_16">
    <!-- Distance Distribution by Visualization -->
    <g transform="translate(219.887813 31.84) scale(0.12 -0.12)">
     <defs>
      <path id="DejaVuSans-44" d="M 1259 4147 
L 1259 519 
L 2022 519 
Q 2988 519 3436 956 
Q 3884 1394 3884 2338 
Q 3884 3275 3436 3711 
Q 2988 4147 2022 4147 
L 1259 4147 
z
M 628 4666 
L 1925 4666 
Q 3281 4666 3915 4102 
Q 4550 3538 4550 2338 
Q 4550 1131 3912 565 
Q 3275 0 1925 0 
L 628 0 
L 628 4666 
z
" transform="scale(0.015625)"/>
      <path id="DejaVuSans-63" d="M 3122 3366 
L 3122 2828 
Q 2878 2963 2633 3030 
Q 2388 3097 2138 3097 
Q 1578 3097 1268 2742 
Q 959 2388 959 1747 
Q 959 1106 1268 751 
Q 1578 397 2138 397 
Q 2388 397 2633 464 
Q 2878 531 3122 666 
L 3122 134 
Q 2881 22 2623 -34 
Q 2366 -91 2075 -91 
Q 1284 -91 818 406 
Q 353 903 353 1747 
Q 353 2603 823 3093 
Q 1294 3584 2113 3584 
Q 2378 3584 2631 3529 
Q 2884 3475 3122 3366 
z
" transform="scale(0.015625)"/>
      <path id="DejaVuSans-62" d="M 3116 1747 
Q 3116 2381 2855 2742 
Q 2594 3103 2138 3103 
Q 1681 3103 1420 2742 
Q 1159 2381 1159 1747 
Q 1159 1113 1420 752 
Q 1681 391 2138 391 
Q 2594 391 2855 752 
Q 3116 1113 3116 1747 
z
M 1159 2969 
Q 1341 3281 1617 3432 
Q 1894 3584 2278 3584 
Q 2916 3584 3314 3078 
Q 3713 2572 3713 1747 
Q 3713 922 3314 415 
Q 2916 -91 2278 -91 
Q 1894 -91 1617 61 
Q 1341 213 1159 525 
L 1159 0 
L 581 0 
L 581 4863 
L 1159 4863 
L 1159 2969 
z
" transform="scale(0.015625)"/>
      <path id="DejaVuSans-79" d="M 2059 -325 
Q 1816 -950 1584 -1140 
Q 1353 -1331 966 -1331 
L 506 -1331 
L 506 -850 
L 844 -850 
Q 1081 -850 1212 -737 
Q 1344 -625 1503 -206 
L 1606 56 
L 191 3500 
L 800 3500 
L 1894 763 
L 2988 3500 
L 3597 3500 
L 2059 -325 
z
" transform="scale(0.015625)"/>
     </defs>
     <use xlink:href="#DejaVuSans-44"/>
     <use xlink:href="#DejaVuSans-69" transform="translate(77.001953 0)"/>
     <use xlink:href="#DejaVuSans-73" transform="translate(104.785156 0)"/>
     <use xlink:href="#DejaVuSans-74" transform="translate(156.884766 0)"/>
     <use xlink:href="#DejaVuSans-61" transform="translate(196.09375 0)"/>
     <use xlink:href="#DejaVuSans-6e" transform="translate(257.373047 0)"/>
     <use xlink:href="#DejaVuSans-63" transform="translate(320.751953 0)"/>
     <use xlink:href="#DejaVuSans-65" transform="translate(375.732422 0)"/>
     <use xlink:href="#DejaVuSans-20" transform="translate(437.255859 0)"/>
     <use xlink:href="#DejaVuSans-44" transform="translate(469.042969 0)"/>
     <use xlink:href="#DejaVuSans-69" transform="translate(546.044922 0)"/>
     <use xlink:href="#DejaVuSans-73" transform="translate(573.828125 0)"/>
     <use xlink:href="#DejaVuSans-74" transform="translate(625.927734 0)"/>
     <use xlink:href="#DejaVuSans-72" transform="translate(665.136719 0)"/>
     <use xlink:href="#DejaVuSans-69" transform="translate(706.25 0)"/>
     <use xlink:href="#DejaVuSans-62" transform="translate(734.033203 0)"/>
     <use xlink:href="#DejaVuSans-75" transform="translate(797.509766 0)"/>
     <use xlink:href="#DejaVuSans-74" transform="translate(860.888672 0)"/>
     <use xlink:href="#DejaVuSans-69" transform="translate(900.097656 0)"/>
     <use xlink:href="#DejaVuSans-6f" transform="translate(927.880859 0)"/>
     <use xlink:href="#DejaVuSans-6e" transform="translate(989.0625 0)"/>
     <use xlink:href="#DejaVuSans-20" transform="translate(1052.441406 0)"/>
     <use xlink:href="#DejaVuSans-62" transform="translate(1084.228516 0)"/>
     <use xlink:href="#DejaVuSans-79" transform="translate(1147.705078 0)"/>
     <use xlink:href="#DejaVuSans-20" transform="translate(1206.884766 0)"/>
     <use xlink:href="#DejaVuSans-56" transform="translate(1238.671875 0)"/>
     <use xlink:href="#DejaVuSans-69" transform="translate(1304.830078 0)"/>
     <use xlink:href="#DejaVuSans-73" transform="translate(1332.613281 0)"/>
     <use xlink:href="#DejaVuSans-75" transform="translate(1384.712891 0)"/>
     <use xlink:href="#DejaVuSans-61" transform="translate(1448.091797 0)"/>
     <use xlink:href="#DejaVuSans-6c" transform="translate(1509.371094 0)"/>
     <use xlink:href="#DejaVuSans-69" transform="translate(1537.154297 0)"/>
     <use xlink:href="#DejaVuSans-7a" transform="translate(1564.9375 0)"/>
     <use xlink:href="#DejaVuSans-61" transform="translate(1617.427734 0)"/>
     <use xlink:href="#DejaVuSans-74" transform="translate(1678.707031 0)"/>
     <use xlink:href="#DejaVuSans-69" transform="translate(1717.916016 0)"/>
     <use xlink:href="#DejaVuSans-6f" transform="translate(1745.699219 0)"/>
     <use xlink:href="#DejaVuSans-6e" transform="translate(1806.880859 0)"/>
    </g>
   </g>
  </g>
 </g>
 <defs>
  <clipPath id="pb05433f690">
   <rect x="81" y="51.84" width="502.2" height="332.64"/>
  </clipPath>
 </defs>
</svg>
