<?xml version="1.0" encoding="utf-8" standalone="no"?>
<!DOCTYPE svg PUBLIC "-//W3C//DTD SVG 1.1//EN"
  "http://www.w3.org/Graphics/SVG/1.1/DTD/svg11.dtd">
<svg xmlns:xlink="http://www.w3.org/1999/xlink" width="648pt" height="432pt" viewBox="0 0 648 432" xmlns="http://www.w3.org/2000/svg" version="1.1">
 <metadata>
  <rdf:RDF xmlns:dc="http://purl.org/dc/elements/1.1/" xmlns:cc="http://creativecommons.org/ns#" xmlns:rdf="http://www.w3.org/1999/02/22-rdf-syntax-ns#">
   <cc:Work>
    <dc:type rdf:resource="http://purl.org/dc/dcmitype/StillImage"/>
    <dc:date>2026-03-02T20:55:47.874997</dc:date>
    <dc:format>image/svg+xml</dc:format>
    <dc:creator>
     <cc:Agent>
      <dc:title>Matplotlib v3.10.6, https://matplotlib.org/</dc:title>
     </cc:Agent>
    </dc:creator>
   </cc:Work>
  </rdf:RDF>
 </metadata>
 <defs>
  <style type="text/css">*{stroke-linejoin: round; stroke-linecap: butt}</style>
 </defs>
 <g id="figure_1">
  <g id="patch_1">
   <path d="M 0 432 
L 648 432 
L 648 0 
L 0 0 
z
" style="fill: #ffffff"/>
  </g>
  <g id="axes_1">
   <g id="patch_2">
    <path d="M 81 384.48 
L 583.2 384.48 
L 583.2 51.84 
L 81 51.84 
z
" style="fill: #ffffff"/>
   </g>
   <g id="FillBetweenPolyCollection_1">
    <path d="M 136.371208 347.544049 
L 109.328792 347.544049 
L 107.527974 345.302033 
L 105.65544 343.060017 
L 103.739365 340.818001 
L 101.812098 338.575985 
L 99.909198 336.333969 
L 98.068161 334.091953 
L 96.326893 331.849937 
L 94.722012 329.607921 
L 93.287078 327.365905 
L 92.050904 325.123888 
L 91.036056 322.881872 
L 90.257687 320.639856 
L 89.722811 318.39784 
L 89.430064 316.155824 
L 89.37 313.913808 
L 89.525871 311.671792 
L 89.874836 309.429776 
L 90.389478 307.18776 
L 91.039509 304.945744 
L 91.793513 302.703728 
L 92.620614 300.461712 
L 93.491952 298.219696 
L 94.381894 295.97768 
L 95.268937 293.735664 
L 96.136281 291.493648 
L 96.972081 289.251632 
L 97.769402 287.009616 
L 98.525905 284.7676 
L 99.2433 282.525584 
L 99.926606 280.283568 
L 100.58326 278.041552 
L 101.222124 275.799536 
L 101.852458 273.55752 
L 102.482919 271.315504 
L 103.120661 269.073488 
L 103.770628 266.831472 
L 104.435086 264.589456 
L 105.113456 262.34744 
L 105.802462 260.105424 
L 106.49657 257.863407 
L 107.188678 255.621391 
L 107.870951 253.379375 
L 108.535715 251.137359 
L 109.17629 248.895343 
L 109.787654 246.653327 
L 110.366875 244.411311 
L 110.913263 242.169295 
L 111.42824 239.927279 
L 111.914982 237.685263 
L 112.377876 235.443247 
L 112.821915 233.201231 
L 113.252083 230.959215 
L 113.67284 228.717199 
L 114.087746 226.475183 
L 114.499253 224.233167 
L 114.908672 221.991151 
L 115.316282 219.749135 
L 115.72154 217.507119 
L 116.123338 215.265103 
L 116.520265 213.023087 
L 116.910831 210.781071 
L 117.29363 208.539055 
L 117.667427 206.297039 
L 118.031189 204.055023 
L 118.384056 201.813007 
L 118.72528 199.570991 
L 119.054159 197.328975 
L 119.369963 195.086959 
L 119.671885 192.844943 
L 119.959008 190.602926 
L 120.230295 188.36091 
L 120.484602 186.118894 
L 120.720704 183.876878 
L 120.937343 181.634862 
L 121.133277 179.392846 
L 121.307351 177.15083 
L 121.458566 174.908814 
L 121.58616 172.666798 
L 121.689689 170.424782 
L 121.769111 168.182766 
L 121.824847 165.94075 
L 121.857847 163.698734 
L 121.869614 161.456718 
L 121.862209 159.214702 
L 121.838223 156.972686 
L 121.800711 154.73067 
L 121.753099 152.488654 
L 121.699063 150.246638 
L 121.642389 148.004622 
L 121.586821 145.762606 
L 121.535915 143.52059 
L 121.492893 141.278574 
L 121.460521 139.036558 
L 121.441008 136.794542 
L 121.435931 134.552526 
L 121.446198 132.31051 
L 121.472031 130.068494 
L 121.512994 127.826478 
L 121.568043 125.584461 
L 124.131957 125.584461 
L 124.131957 125.584461 
L 124.187006 127.826478 
L 124.227969 130.068494 
L 124.253802 132.31051 
L 124.264069 134.552526 
L 124.258992 136.794542 
L 124.239479 139.036558 
L 124.207107 141.278574 
L 124.164085 143.52059 
L 124.113179 145.762606 
L 124.057611 148.004622 
L 124.000937 150.246638 
L 123.946901 152.488654 
L 123.899289 154.73067 
L 123.861777 156.972686 
L 123.837791 159.214702 
L 123.830386 161.456718 
L 123.842153 163.698734 
L 123.875153 165.94075 
L 123.930889 168.182766 
L 124.010311 170.424782 
L 124.11384 172.666798 
L 124.241434 174.908814 
L 124.392649 177.15083 
L 124.566723 179.392846 
L 124.762657 181.634862 
L 124.979296 183.876878 
L 125.215398 186.118894 
L 125.469705 188.36091 
L 125.740992 190.602926 
L 126.028115 192.844943 
L 126.330037 195.086959 
L 126.645841 197.328975 
L 126.97472 199.570991 
L 127.315944 201.813007 
L 127.668811 204.055023 
L 128.032573 206.297039 
L 128.40637 208.539055 
L 128.789169 210.781071 
L 129.179735 213.023087 
L 129.576662 215.265103 
L 129.97846 217.507119 
L 130.383718 219.749135 
L 130.791328 221.991151 
L 131.200747 224.233167 
L 131.612254 226.475183 
L 132.02716 228.717199 
L 132.447917 230.959215 
L 132.878085 233.201231 
L 133.322124 235.443247 
L 133.785018 237.685263 
L 134.27176 239.927279 
L 134.786737 242.169295 
L 135.333125 244.411311 
L 135.912346 246.653327 
L 136.52371 248.895343 
L 137.164285 251.137359 
L 137.829049 253.379375 
L 138.511322 255.621391 
L 139.20343 257.863407 
L 139.897538 260.105424 
L 140.586544 262.34744 
L 141.264914 264.589456 
L 141.929372 266.831472 
L 142.579339 269.073488 
L 143.217081 271.315504 
L 143.847542 273.55752 
L 144.477876 275.799536 
L 145.11674 278.041552 
L 145.773394 280.283568 
L 146.4567 282.525584 
L 147.174095 284.7676 
L 147.930598 287.009616 
L 148.727919 289.251632 
L 149.563719 291.493648 
L 150.431063 293.735664 
L 151.318106 295.97768 
L 152.208048 298.219696 
L 153.079386 300.461712 
L 153.906487 302.703728 
L 154.660491 304.945744 
L 155.310522 307.18776 
L 155.825164 309.429776 
L 156.174129 311.671792 
L 156.33 313.913808 
L 156.269936 316.155824 
L 155.977189 318.39784 
L 155.442313 320.639856 
L 154.663944 322.881872 
L 153.649096 325.123888 
L 152.412922 327.365905 
L 150.977988 329.607921 
L 149.373107 331.849937 
L 147.631839 334.091953 
L 145.790802 336.333969 
L 143.887902 338.575985 
L 141.960635 340.818001 
L 140.04456 343.060017 
L 138.172026 345.302033 
L 136.371208 347.544049 
z
" clip-path="url(#p57dc760e4b)" style="fill: #1f77b4; fill-opacity: 0.3"/>
   </g>
   <g id="FillBetweenPolyCollection_2">
    <path d="M 216.560162 353.265679 
L 196.539838 353.265679 
L 195.607262 351.731557 
L 194.636934 350.197435 
L 193.631174 348.663313 
L 192.592495 347.129191 
L 191.523654 345.59507 
L 190.427728 344.060948 
L 189.308207 342.526826 
L 188.169113 340.992704 
L 187.015111 339.458582 
L 185.851632 337.924461 
L 184.68497 336.390339 
L 183.522348 334.856217 
L 182.371951 333.322095 
L 181.242893 331.787973 
L 180.14513 330.253852 
L 179.089302 328.71973 
L 178.086507 327.185608 
L 177.148018 325.651486 
L 176.284934 324.117364 
L 175.50781 322.583243 
L 174.826247 321.049121 
L 174.248503 319.514999 
L 173.78112 317.980877 
L 173.428597 316.446755 
L 173.193147 314.912633 
L 173.07453 313.378512 
L 173.07 311.84439 
L 173.17436 310.310268 
L 173.380131 308.776146 
L 173.67783 307.242024 
L 174.056337 305.707903 
L 174.50335 304.173781 
L 175.005884 302.639659 
L 175.550795 301.105537 
L 176.125315 299.571415 
L 176.717538 298.037294 
L 177.316869 296.503172 
L 177.914376 294.96905 
L 178.503061 293.434928 
L 179.07801 291.900806 
L 179.63644 290.366685 
L 180.177621 288.832563 
L 180.702705 287.298441 
L 181.21446 285.764319 
L 181.716923 284.230197 
L 182.215012 282.696076 
L 182.714104 281.161954 
L 183.219606 279.627832 
L 183.736551 278.09371 
L 184.26923 276.559588 
L 184.820881 275.025467 
L 185.393455 273.491345 
L 185.98746 271.957223 
L 186.601889 270.423101 
L 187.234241 268.888979 
L 187.880614 267.354857 
L 188.535871 265.820736 
L 189.193872 264.286614 
L 189.847738 262.752492 
L 190.490151 261.21837 
L 191.113669 259.684248 
L 191.711025 258.150127 
L 192.27542 256.616005 
L 192.800782 255.081883 
L 193.28198 253.547761 
L 193.715004 252.013639 
L 194.097078 250.479518 
L 194.426737 248.945396 
L 194.703847 247.411274 
L 194.929572 245.877152 
L 195.106309 244.34303 
L 195.237576 242.808909 
L 195.32788 241.274787 
L 195.382551 239.740665 
L 195.407569 238.206543 
L 195.409375 236.672421 
L 195.394688 235.1383 
L 195.370315 233.604178 
L 195.342981 232.070056 
L 195.31917 230.535934 
L 195.304978 229.001812 
L 195.306 227.467691 
L 195.327225 225.933569 
L 195.372968 224.399447 
L 195.446816 222.865325 
L 195.551599 221.331203 
L 195.689386 219.797081 
L 195.861486 218.26296 
L 196.068476 216.728838 
L 196.310232 215.194716 
L 196.585968 213.660594 
L 196.894288 212.126472 
L 197.233232 210.592351 
L 197.600334 209.058229 
L 197.992673 207.524107 
L 198.406936 205.989985 
L 198.839479 204.455863 
L 199.286389 202.921742 
L 199.743563 201.38762 
L 213.356437 201.38762 
L 213.356437 201.38762 
L 213.813611 202.921742 
L 214.260521 204.455863 
L 214.693064 205.989985 
L 215.107327 207.524107 
L 215.499666 209.058229 
L 215.866768 210.592351 
L 216.205712 212.126472 
L 216.514032 213.660594 
L 216.789768 215.194716 
L 217.031524 216.728838 
L 217.238514 218.26296 
L 217.410614 219.797081 
L 217.548401 221.331203 
L 217.653184 222.865325 
L 217.727032 224.399447 
L 217.772775 225.933569 
L 217.794 227.467691 
L 217.795022 229.001812 
L 217.78083 230.535934 
L 217.757019 232.070056 
L 217.729685 233.604178 
L 217.705312 235.1383 
L 217.690625 236.672421 
L 217.692431 238.206543 
L 217.717449 239.740665 
L 217.77212 241.274787 
L 217.862424 242.808909 
L 217.993691 244.34303 
L 218.170428 245.877152 
L 218.396153 247.411274 
L 218.673263 248.945396 
L 219.002922 250.479518 
L 219.384996 252.013639 
L 219.81802 253.547761 
L 220.299218 255.081883 
L 220.82458 256.616005 
L 221.388975 258.150127 
L 221.986331 259.684248 
L 222.609849 261.21837 
L 223.252262 262.752492 
L 223.906128 264.286614 
L 224.564129 265.820736 
L 225.219386 267.354857 
L 225.865759 268.888979 
L 226.498111 270.423101 
L 227.11254 271.957223 
L 227.706545 273.491345 
L 228.279119 275.025467 
L 228.83077 276.559588 
L 229.363449 278.09371 
L 229.880394 279.627832 
L 230.385896 281.161954 
L 230.884988 282.696076 
L 231.383077 284.230197 
L 231.88554 285.764319 
L 232.397295 287.298441 
L 232.922379 288.832563 
L 233.46356 290.366685 
L 234.02199 291.900806 
L 234.596939 293.434928 
L 235.185624 294.96905 
L 235.783131 296.503172 
L 236.382462 298.037294 
L 236.974685 299.571415 
L 237.549205 301.105537 
L 238.094116 302.639659 
L 238.59665 304.173781 
L 239.043663 305.707903 
L 239.42217 307.242024 
L 239.719869 308.776146 
L 239.92564 310.310268 
L 240.03 311.84439 
L 240.02547 313.378512 
L 239.906853 314.912633 
L 239.671403 316.446755 
L 239.31888 317.980877 
L 238.851497 319.514999 
L 238.273753 321.049121 
L 237.59219 322.583243 
L 236.815066 324.117364 
L 235.951982 325.651486 
L 235.013493 327.185608 
L 234.010698 328.71973 
L 232.95487 330.253852 
L 231.857107 331.787973 
L 230.728049 333.322095 
L 229.577652 334.856217 
L 228.41503 336.390339 
L 227.248368 337.924461 
L 226.084889 339.458582 
L 224.930887 340.992704 
L 223.791793 342.526826 
L 222.672272 344.060948 
L 221.576346 345.59507 
L 220.507505 347.129191 
L 219.468826 348.663313 
L 218.463066 350.197435 
L 217.492738 351.731557 
L 216.560162 353.265679 
z
" clip-path="url(#p57dc760e4b)" style="fill: #1f77b4; fill-opacity: 0.3"/>
   </g>
   <g id="FillBetweenPolyCollection_3">
    <path d="M 297.518057 372.753808 
L 282.981943 372.753808 
L 282.025435 369.667308 
L 280.989043 366.580807 
L 279.869807 363.494307 
L 278.665755 360.407807 
L 277.376583 357.321307 
L 276.004398 354.234807 
L 274.554454 351.148306 
L 273.035779 348.061806 
L 271.461621 344.975306 
L 269.849606 341.888806 
L 268.221569 338.802306 
L 266.603007 335.715805 
L 265.022179 332.629305 
L 263.50888 329.542805 
L 262.093 326.456305 
L 260.802955 323.369805 
L 259.664151 320.283304 
L 258.697597 317.196804 
L 257.918808 314.110304 
L 257.337096 311.023804 
L 256.955301 307.937304 
L 256.77 304.850803 
L 256.772144 301.764303 
L 256.948065 298.677803 
L 257.280733 295.591303 
L 257.751144 292.504803 
L 258.33969 289.418302 
L 259.027381 286.331802 
L 259.796827 283.245302 
L 260.632885 280.158802 
L 261.522957 277.072302 
L 262.456945 273.985801 
L 263.426913 270.899301 
L 264.426545 267.812801 
L 265.450488 264.726301 
L 266.493701 261.639801 
L 267.550902 258.5533 
L 268.616173 255.4668 
L 269.682788 252.3803 
L 270.743265 249.2938 
L 271.789612 246.2073 
L 272.813724 243.120799 
L 273.807859 240.034299 
L 274.765116 236.947799 
L 275.679846 233.861299 
L 276.547936 230.774799 
L 277.366937 227.688298 
L 278.136024 224.601798 
L 278.855806 221.515298 
L 279.528022 218.428798 
L 280.155165 215.342298 
L 280.740108 212.255797 
L 281.285752 209.169297 
L 281.794765 206.082797 
L 282.269416 202.996297 
L 282.711522 199.909797 
L 283.122497 196.823296 
L 283.503469 193.736796 
L 283.855453 190.650296 
L 284.179529 187.563796 
L 284.476999 184.477296 
L 284.749496 181.390795 
L 284.999036 178.304295 
L 285.227994 175.217795 
L 285.439024 172.131295 
L 285.634934 169.044795 
L 285.818527 165.958294 
L 285.992438 162.871794 
L 286.158989 159.785294 
L 286.320071 156.698794 
L 286.477065 153.612294 
L 286.630814 150.525793 
L 286.781637 147.439293 
L 286.929377 144.352793 
L 287.073483 141.266293 
L 287.213104 138.179793 
L 287.347194 135.093292 
L 287.474605 132.006792 
L 287.594191 128.920292 
L 287.704877 125.833792 
L 287.805739 122.747292 
L 287.896059 119.660791 
L 287.97538 116.574291 
L 288.043555 113.487791 
L 288.100781 110.401291 
L 288.147645 107.314791 
L 288.185133 104.22829 
L 288.21465 101.14179 
L 288.237993 98.05529 
L 288.257314 94.96879 
L 288.275042 91.88229 
L 288.293776 88.795789 
L 288.316154 85.709289 
L 288.344696 82.622789 
L 288.381645 79.536289 
L 288.428817 76.449789 
L 288.487465 73.363288 
L 288.558184 70.276788 
L 288.640868 67.190288 
L 291.859132 67.190288 
L 291.859132 67.190288 
L 291.941816 70.276788 
L 292.012535 73.363288 
L 292.071183 76.449789 
L 292.118355 79.536289 
L 292.155304 82.622789 
L 292.183846 85.709289 
L 292.206224 88.795789 
L 292.224958 91.88229 
L 292.242686 94.96879 
L 292.262007 98.05529 
L 292.28535 101.14179 
L 292.314867 104.22829 
L 292.352355 107.314791 
L 292.399219 110.401291 
L 292.456445 113.487791 
L 292.52462 116.574291 
L 292.603941 119.660791 
L 292.694261 122.747292 
L 292.795123 125.833792 
L 292.905809 128.920292 
L 293.025395 132.006792 
L 293.152806 135.093292 
L 293.286896 138.179793 
L 293.426517 141.266293 
L 293.570623 144.352793 
L 293.718363 147.439293 
L 293.869186 150.525793 
L 294.022935 153.612294 
L 294.179929 156.698794 
L 294.341011 159.785294 
L 294.507562 162.871794 
L 294.681473 165.958294 
L 294.865066 169.044795 
L 295.060976 172.131295 
L 295.272006 175.217795 
L 295.500964 178.304295 
L 295.750504 181.390795 
L 296.023001 184.477296 
L 296.320471 187.563796 
L 296.644547 190.650296 
L 296.996531 193.736796 
L 297.377503 196.823296 
L 297.788478 199.909797 
L 298.230584 202.996297 
L 298.705235 206.082797 
L 299.214248 209.169297 
L 299.759892 212.255797 
L 300.344835 215.342298 
L 300.971978 218.428798 
L 301.644194 221.515298 
L 302.363976 224.601798 
L 303.133063 227.688298 
L 303.952064 230.774799 
L 304.820154 233.861299 
L 305.734884 236.947799 
L 306.692141 240.034299 
L 307.686276 243.120799 
L 308.710388 246.2073 
L 309.756735 249.2938 
L 310.817212 252.3803 
L 311.883827 255.4668 
L 312.949098 258.5533 
L 314.006299 261.639801 
L 315.049512 264.726301 
L 316.073455 267.812801 
L 317.073087 270.899301 
L 318.043055 273.985801 
L 318.977043 277.072302 
L 319.867115 280.158802 
L 320.703173 283.245302 
L 321.472619 286.331802 
L 322.16031 289.418302 
L 322.748856 292.504803 
L 323.219267 295.591303 
L 323.551935 298.677803 
L 323.727856 301.764303 
L 323.73 304.850803 
L 323.544699 307.937304 
L 323.162904 311.023804 
L 322.581192 314.110304 
L 321.802403 317.196804 
L 320.835849 320.283304 
L 319.697045 323.369805 
L 318.407 326.456305 
L 316.99112 329.542805 
L 315.477821 332.629305 
L 313.896993 335.715805 
L 312.278431 338.802306 
L 310.650394 341.888806 
L 309.038379 344.975306 
L 307.464221 348.061806 
L 305.945546 351.148306 
L 304.495602 354.234807 
L 303.123417 357.321307 
L 301.834245 360.407807 
L 300.630193 363.494307 
L 299.510957 366.580807 
L 298.474565 369.667308 
L 297.518057 372.753808 
z
" clip-path="url(#p57dc760e4b)" style="fill: #1f77b4; fill-opacity: 0.3"/>
   </g>
   <g id="FillBetweenPolyCollection_4">
    <path d="M 380.181116 358.193466 
L 367.718884 358.193466 
L 366.676648 356.540721 
L 365.523528 354.887976 
L 364.260719 353.235231 
L 362.892648 351.582486 
L 361.427411 349.929741 
L 359.877055 348.276996 
L 358.257674 346.624251 
L 356.589241 344.971506 
L 354.895151 343.318761 
L 353.201462 341.666016 
L 351.535842 340.013271 
L 349.926289 338.360526 
L 348.399692 336.707781 
L 346.980365 335.055036 
L 345.688679 333.402291 
L 344.539937 331.749546 
L 343.543603 330.096801 
L 342.703004 328.444056 
L 342.015533 326.79131 
L 341.473359 325.138565 
L 341.064587 323.48582 
L 340.77474 321.833075 
L 340.588426 320.18033 
L 340.490991 318.527585 
L 340.47 316.87484 
L 340.516378 315.222095 
L 340.625096 313.56935 
L 340.795352 311.916605 
L 341.030237 310.26386 
L 341.335961 308.611115 
L 341.720739 306.95837 
L 342.19349 305.305625 
L 342.7625 303.65288 
L 343.434198 302.000135 
L 344.212174 300.34739 
L 345.096521 298.694645 
L 346.083533 297.0419 
L 347.165766 295.389155 
L 348.332405 293.73641 
L 349.569867 292.083665 
L 350.862556 290.43092 
L 352.193659 288.778175 
L 353.545924 287.12543 
L 354.902337 285.472685 
L 356.246661 283.81994 
L 357.563823 282.167195 
L 358.840144 280.51445 
L 360.063448 278.861705 
L 361.223061 277.20896 
L 362.309766 275.556215 
L 363.315732 273.90347 
L 364.23445 272.250725 
L 365.060719 270.597979 
L 365.790671 268.945234 
L 366.421859 267.292489 
L 366.953386 265.639744 
L 367.386065 263.986999 
L 367.722582 262.334254 
L 367.967637 260.681509 
L 368.128028 259.028764 
L 368.212652 257.376019 
L 368.232396 255.723274 
L 368.199901 254.070529 
L 368.129198 252.417784 
L 368.035211 250.765039 
L 367.93316 249.112294 
L 367.837887 247.459549 
L 367.763152 245.806804 
L 367.720959 244.154059 
L 367.720954 242.501314 
L 367.769961 240.848569 
L 367.87169 239.195824 
L 368.026657 237.543079 
L 368.232312 235.890334 
L 368.483378 234.237589 
L 368.772362 232.584844 
L 369.090193 230.932099 
L 369.426924 229.279354 
L 369.772437 227.626609 
L 370.117085 225.973864 
L 370.45223 224.321119 
L 370.770632 222.668374 
L 371.06668 221.015629 
L 371.336471 219.362884 
L 371.57775 217.710139 
L 371.789753 216.057394 
L 371.972981 214.404648 
L 372.128948 212.751903 
L 372.259932 211.099158 
L 372.368746 209.446413 
L 372.458549 207.793668 
L 372.532688 206.140923 
L 372.594569 204.488178 
L 372.64755 202.835433 
L 372.694838 201.182688 
L 372.739395 199.529943 
L 372.783836 197.877198 
L 372.830338 196.224453 
L 372.880563 194.571708 
L 375.019437 194.571708 
L 375.019437 194.571708 
L 375.069662 196.224453 
L 375.116164 197.877198 
L 375.160605 199.529943 
L 375.205162 201.182688 
L 375.25245 202.835433 
L 375.305431 204.488178 
L 375.367312 206.140923 
L 375.441451 207.793668 
L 375.531254 209.446413 
L 375.640068 211.099158 
L 375.771052 212.751903 
L 375.927019 214.404648 
L 376.110247 216.057394 
L 376.32225 217.710139 
L 376.563529 219.362884 
L 376.83332 221.015629 
L 377.129368 222.668374 
L 377.44777 224.321119 
L 377.782915 225.973864 
L 378.127563 227.626609 
L 378.473076 229.279354 
L 378.809807 230.932099 
L 379.127638 232.584844 
L 379.416622 234.237589 
L 379.667688 235.890334 
L 379.873343 237.543079 
L 380.02831 239.195824 
L 380.130039 240.848569 
L 380.179046 242.501314 
L 380.179041 244.154059 
L 380.136848 245.806804 
L 380.062113 247.459549 
L 379.96684 249.112294 
L 379.864789 250.765039 
L 379.770802 252.417784 
L 379.700099 254.070529 
L 379.667604 255.723274 
L 379.687348 257.376019 
L 379.771972 259.028764 
L 379.932363 260.681509 
L 380.177418 262.334254 
L 380.513935 263.986999 
L 380.946614 265.639744 
L 381.478141 267.292489 
L 382.109329 268.945234 
L 382.839281 270.597979 
L 383.66555 272.250725 
L 384.584268 273.90347 
L 385.590234 275.556215 
L 386.676939 277.20896 
L 387.836552 278.861705 
L 389.059856 280.51445 
L 390.336177 282.167195 
L 391.653339 283.81994 
L 392.997663 285.472685 
L 394.354076 287.12543 
L 395.706341 288.778175 
L 397.037444 290.43092 
L 398.330133 292.083665 
L 399.567595 293.73641 
L 400.734234 295.389155 
L 401.816467 297.0419 
L 402.803479 298.694645 
L 403.687826 300.34739 
L 404.465802 302.000135 
L 405.1375 303.65288 
L 405.70651 305.305625 
L 406.179261 306.95837 
L 406.564039 308.611115 
L 406.869763 310.26386 
L 407.104648 311.916605 
L 407.274904 313.56935 
L 407.383622 315.222095 
L 407.43 316.87484 
L 407.409009 318.527585 
L 407.311574 320.18033 
L 407.12526 321.833075 
L 406.835413 323.48582 
L 406.426641 325.138565 
L 405.884467 326.79131 
L 405.196996 328.444056 
L 404.356397 330.096801 
L 403.360063 331.749546 
L 402.211321 333.402291 
L 400.919635 335.055036 
L 399.500308 336.707781 
L 397.973711 338.360526 
L 396.364158 340.013271 
L 394.698538 341.666016 
L 393.004849 343.318761 
L 391.310759 344.971506 
L 389.642326 346.624251 
L 388.022945 348.276996 
L 386.472589 349.929741 
L 385.007352 351.582486 
L 383.639281 353.235231 
L 382.376472 354.887976 
L 381.223352 356.540721 
L 380.181116 358.193466 
z
" clip-path="url(#p57dc760e4b)" style="fill: #1f77b4; fill-opacity: 0.3"/>
   </g>
   <g id="FillBetweenPolyCollection_5">
    <path d="M 466.370087 368.664344 
L 448.929913 368.664344 
L 447.80361 366.122155 
L 446.608079 363.579966 
L 445.346333 361.037777 
L 444.022631 358.495588 
L 442.643027 355.953399 
L 441.215897 353.41121 
L 439.752348 350.869021 
L 438.266399 348.326832 
L 436.77483 345.784643 
L 435.296679 343.242454 
L 433.85238 340.700265 
L 432.462627 338.158075 
L 431.147099 335.615886 
L 429.923222 333.073697 
L 428.805136 330.531508 
L 427.803055 327.989319 
L 426.9231 325.44713 
L 426.167672 322.904941 
L 425.536275 320.362752 
L 425.026684 317.820563 
L 424.636243 315.278374 
L 424.363078 312.736185 
L 424.20701 310.193996 
L 424.17 307.651807 
L 424.256059 305.109618 
L 424.470612 302.567428 
L 424.819434 300.025239 
L 425.30733 297.48305 
L 425.936768 294.940861 
L 426.706694 292.398672 
L 427.611707 289.856483 
L 428.641726 287.314294 
L 429.782185 284.772105 
L 431.014719 282.229916 
L 432.318231 279.687727 
L 433.670185 277.145538 
L 435.047944 274.603349 
L 436.429989 272.06116 
L 437.796882 269.518971 
L 439.131899 266.976782 
L 440.421301 264.434592 
L 441.654275 261.892403 
L 442.822626 259.350214 
L 443.920303 256.808025 
L 444.942887 254.265836 
L 445.887116 251.723647 
L 446.750555 249.181458 
L 447.531421 246.639269 
L 448.228614 244.09708 
L 448.841896 241.554891 
L 449.372206 239.012702 
L 449.822023 236.470513 
L 450.195703 233.928324 
L 450.499733 231.386135 
L 450.742818 228.843945 
L 450.935769 226.301756 
L 451.091168 223.759567 
L 451.222818 221.217378 
L 451.34501 218.675189 
L 451.47168 216.133 
L 451.615525 213.590811 
L 451.787163 211.048622 
L 451.994446 208.506433 
L 452.241968 205.964244 
L 452.530844 203.422055 
L 452.85878 200.879866 
L 453.220404 198.337677 
L 453.607839 195.795488 
L 454.011444 193.253299 
L 454.420635 190.711109 
L 454.824709 188.16892 
L 455.213589 185.626731 
L 455.578423 183.084542 
L 455.911997 180.542353 
L 456.208959 178.000164 
L 456.465841 175.457975 
L 456.680941 172.915786 
L 456.854073 170.373597 
L 456.986274 167.831408 
L 457.079483 165.289219 
L 457.136261 162.74703 
L 457.159565 160.204841 
L 457.1526 157.662652 
L 457.118741 155.120462 
L 457.06153 152.578273 
L 456.984706 150.036084 
L 456.892257 147.493895 
L 456.788462 144.951706 
L 456.677896 142.409517 
L 456.565383 139.867328 
L 456.455891 137.325139 
L 456.354363 134.78295 
L 456.265503 132.240761 
L 456.193538 129.698572 
L 456.141971 127.156383 
L 456.113366 124.614194 
L 456.109183 122.072005 
L 456.129686 119.529816 
L 456.173939 116.987626 
L 459.126061 116.987626 
L 459.126061 116.987626 
L 459.170314 119.529816 
L 459.190817 122.072005 
L 459.186634 124.614194 
L 459.158029 127.156383 
L 459.106462 129.698572 
L 459.034497 132.240761 
L 458.945637 134.78295 
L 458.844109 137.325139 
L 458.734617 139.867328 
L 458.622104 142.409517 
L 458.511538 144.951706 
L 458.407743 147.493895 
L 458.315294 150.036084 
L 458.23847 152.578273 
L 458.181259 155.120462 
L 458.1474 157.662652 
L 458.140435 160.204841 
L 458.163739 162.74703 
L 458.220517 165.289219 
L 458.313726 167.831408 
L 458.445927 170.373597 
L 458.619059 172.915786 
L 458.834159 175.457975 
L 459.091041 178.000164 
L 459.388003 180.542353 
L 459.721577 183.084542 
L 460.086411 185.626731 
L 460.475291 188.16892 
L 460.879365 190.711109 
L 461.288556 193.253299 
L 461.692161 195.795488 
L 462.079596 198.337677 
L 462.44122 200.879866 
L 462.769156 203.422055 
L 463.058032 205.964244 
L 463.305554 208.506433 
L 463.512837 211.048622 
L 463.684475 213.590811 
L 463.82832 216.133 
L 463.95499 218.675189 
L 464.077182 221.217378 
L 464.208832 223.759567 
L 464.364231 226.301756 
L 464.557182 228.843945 
L 464.800267 231.386135 
L 465.104297 233.928324 
L 465.477977 236.470513 
L 465.927794 239.012702 
L 466.458104 241.554891 
L 467.071386 244.09708 
L 467.768579 246.639269 
L 468.549445 249.181458 
L 469.412884 251.723647 
L 470.357113 254.265836 
L 471.379697 256.808025 
L 472.477374 259.350214 
L 473.645725 261.892403 
L 474.878699 264.434592 
L 476.168101 266.976782 
L 477.503118 269.518971 
L 478.870011 272.06116 
L 480.252056 274.603349 
L 481.629815 277.145538 
L 482.981769 279.687727 
L 484.285281 282.229916 
L 485.517815 284.772105 
L 486.658274 287.314294 
L 487.688293 289.856483 
L 488.593306 292.398672 
L 489.363232 294.940861 
L 489.99267 297.48305 
L 490.480566 300.025239 
L 490.829388 302.567428 
L 491.043941 305.109618 
L 491.13 307.651807 
L 491.09299 310.193996 
L 490.936922 312.736185 
L 490.663757 315.278374 
L 490.273316 317.820563 
L 489.763725 320.362752 
L 489.132328 322.904941 
L 488.3769 325.44713 
L 487.496945 327.989319 
L 486.494864 330.531508 
L 485.376778 333.073697 
L 484.152901 335.615886 
L 482.837373 338.158075 
L 481.44762 340.700265 
L 480.003321 343.242454 
L 478.52517 345.784643 
L 477.033601 348.326832 
L 475.547652 350.869021 
L 474.084103 353.41121 
L 472.656973 355.953399 
L 471.277369 358.495588 
L 469.953667 361.037777 
L 468.691921 363.579966 
L 467.49639 366.122155 
L 466.370087 368.664344 
z
" clip-path="url(#p57dc760e4b)" style="fill: #1f77b4; fill-opacity: 0.3"/>
   </g>
   <g id="FillBetweenPolyCollection_6">
    <path d="M 542.714815 374.196049 
L 539.985185 374.196049 
L 539.853589 372.931033 
L 539.700016 371.666018 
L 539.51742 370.401002 
L 539.298116 369.135987 
L 539.034152 367.870971 
L 538.717746 366.605956 
L 538.341757 365.34094 
L 537.900143 364.075925 
L 537.388372 362.810909 
L 536.803745 361.545894 
L 536.1456 360.280878 
L 535.415377 359.015863 
L 534.616535 357.750847 
L 533.754324 356.485832 
L 532.835439 355.220816 
L 531.867581 353.955801 
L 530.858975 352.690785 
L 529.817873 351.42577 
L 528.752108 350.160754 
L 527.668717 348.895739 
L 526.573684 347.630723 
L 525.471801 346.365708 
L 524.366676 345.100692 
L 523.260865 343.835677 
L 522.156126 342.570661 
L 521.053765 341.305646 
L 519.955042 340.04063 
L 518.861612 338.775615 
L 517.77595 337.5106 
L 516.701736 336.245584 
L 515.64416 334.980569 
L 514.610117 333.715553 
L 513.608257 332.450538 
L 512.648892 331.185522 
L 511.743719 329.920507 
L 510.905398 328.655491 
L 510.146968 327.390476 
L 509.481155 326.12546 
L 508.919608 324.860445 
L 508.472123 323.595429 
L 508.145923 322.330414 
L 507.945059 321.065398 
L 507.87 319.800383 
L 507.917461 318.535367 
L 508.080495 317.270352 
L 508.348872 316.005336 
L 508.709694 314.740321 
L 509.148226 313.475305 
L 509.648848 312.21029 
L 510.196052 310.945274 
L 510.775384 309.680259 
L 511.374249 308.415243 
L 511.9825 307.150228 
L 512.592783 305.885212 
L 513.200605 304.620197 
L 513.804158 303.355181 
L 514.403936 302.090166 
L 515.002213 300.82515 
L 515.602457 299.560135 
L 516.208744 298.29512 
L 516.825255 297.030104 
L 517.455865 295.765089 
L 518.103877 294.500073 
L 518.77187 293.235058 
L 519.461652 291.970042 
L 520.174277 290.705027 
L 520.910087 289.440011 
L 521.668742 288.174996 
L 522.449219 286.90998 
L 523.249765 285.644965 
L 524.067816 284.379949 
L 524.899897 283.114934 
L 525.741542 281.849918 
L 526.587253 280.584903 
L 527.430538 279.319887 
L 528.264043 278.054872 
L 529.07979 276.789856 
L 529.869497 275.524841 
L 530.624984 274.259825 
L 531.338614 272.99481 
L 532.003736 271.729794 
L 532.6151 270.464779 
L 533.169192 269.199763 
L 533.664473 267.934748 
L 534.101493 266.669732 
L 534.482877 265.404717 
L 534.813179 264.139701 
L 535.098623 262.874686 
L 535.346737 261.609671 
L 535.565929 260.344655 
L 535.76501 259.07964 
L 535.952708 257.814624 
L 536.137207 256.549609 
L 536.32573 255.284593 
L 536.524197 254.019578 
L 536.736976 252.754562 
L 536.966734 251.489547 
L 537.214403 250.224531 
L 537.479254 248.959516 
L 545.220746 248.959516 
L 545.220746 248.959516 
L 545.485597 250.224531 
L 545.733266 251.489547 
L 545.963024 252.754562 
L 546.175803 254.019578 
L 546.37427 255.284593 
L 546.562793 256.549609 
L 546.747292 257.814624 
L 546.93499 259.07964 
L 547.134071 260.344655 
L 547.353263 261.609671 
L 547.601377 262.874686 
L 547.886821 264.139701 
L 548.217123 265.404717 
L 548.598507 266.669732 
L 549.035527 267.934748 
L 549.530808 269.199763 
L 550.0849 270.464779 
L 550.696264 271.729794 
L 551.361386 272.99481 
L 552.075016 274.259825 
L 552.830503 275.524841 
L 553.62021 276.789856 
L 554.435957 278.054872 
L 555.269462 279.319887 
L 556.112747 280.584903 
L 556.958458 281.849918 
L 557.800103 283.114934 
L 558.632184 284.379949 
L 559.450235 285.644965 
L 560.250781 286.90998 
L 561.031258 288.174996 
L 561.789913 289.440011 
L 562.525723 290.705027 
L 563.238348 291.970042 
L 563.92813 293.235058 
L 564.596123 294.500073 
L 565.244135 295.765089 
L 565.874745 297.030104 
L 566.491256 298.29512 
L 567.097543 299.560135 
L 567.697787 300.82515 
L 568.296064 302.090166 
L 568.895842 303.355181 
L 569.499395 304.620197 
L 570.107217 305.885212 
L 570.7175 307.150228 
L 571.325751 308.415243 
L 571.924616 309.680259 
L 572.503948 310.945274 
L 573.051152 312.21029 
L 573.551774 313.475305 
L 573.990306 314.740321 
L 574.351128 316.005336 
L 574.619505 317.270352 
L 574.782539 318.535367 
L 574.83 319.800383 
L 574.754941 321.065398 
L 574.554077 322.330414 
L 574.227877 323.595429 
L 573.780392 324.860445 
L 573.218845 326.12546 
L 572.553032 327.390476 
L 571.794602 328.655491 
L 570.956281 329.920507 
L 570.051108 331.185522 
L 569.091743 332.450538 
L 568.089883 333.715553 
L 567.05584 334.980569 
L 565.998264 336.245584 
L 564.92405 337.5106 
L 563.838388 338.775615 
L 562.744958 340.04063 
L 561.646235 341.305646 
L 560.543874 342.570661 
L 559.439135 343.835677 
L 558.333324 345.100692 
L 557.228199 346.365708 
L 556.126316 347.630723 
L 555.031283 348.895739 
L 553.947892 350.160754 
L 552.882127 351.42577 
L 551.841025 352.690785 
L 550.832419 353.955801 
L 549.864561 355.220816 
L 548.945676 356.485832 
L 548.083465 357.750847 
L 547.284623 359.015863 
L 546.5544 360.280878 
L 545.896255 361.545894 
L 545.311628 362.810909 
L 544.799857 364.075925 
L 544.358243 365.34094 
L 543.982254 366.605956 
L 543.665848 367.870971 
L 543.401884 369.135987 
L 543.18258 370.401002 
L 542.999984 371.666018 
L 542.846411 372.931033 
L 542.714815 374.196049 
z
" clip-path="url(#p57dc760e4b)" style="fill: #1f77b4; fill-opacity: 0.3"/>
   </g>
   <g id="matplotlib.axis_1">
    <g id="xtick_1">
     <g id="line2d_1">
      <defs>
       <path id="m7638fa6db6" d="M 0 0 
L 0 3.5 
" style="stroke: #000000; stroke-width: 0.8"/>
      </defs>
      <g>
       <use xlink:href="#m7638fa6db6" x="122.85" y="384.48" style="stroke: #000000; stroke-width: 0.8"/>
      </g>
     </g>
     <g id="text_1">
      <!-- Arrow -->
      <g transform="translate(111.26625 397.55875) scale(0.08 -0.08)">
       <defs>
        <path id="DejaVuSans-41" d="M 2188 4044 
L 1331 1722 
L 3047 1722 
L 2188 4044 
z
M 1831 4666 
L 2547 4666 
L 4325 0 
L 3669 0 
L 3244 1197 
L 1141 1197 
L 716 0 
L 50 0 
L 1831 4666 
z
" transform="scale(0.015625)"/>
        <path id="DejaVuSans-72" d="M 2631 2963 
Q 2534 3019 2420 3045 
Q 2306 3072 2169 3072 
Q 1681 3072 1420 2755 
Q 1159 2438 1159 1844 
L 1159 0 
L 581 0 
L 581 3500 
L 1159 3500 
L 1159 2956 
Q 1341 3275 1631 3429 
Q 1922 3584 2338 3584 
Q 2397 3584 2469 3576 
Q 2541 3569 2628 3553 
L 2631 2963 
z
" transform="scale(0.015625)"/>
        <path id="DejaVuSans-6f" d="M 1959 3097 
Q 1497 3097 1228 2736 
Q 959 2375 959 1747 
Q 959 1119 1226 758 
Q 1494 397 1959 397 
Q 2419 397 2687 759 
Q 2956 1122 2956 1747 
Q 2956 2369 2687 2733 
Q 2419 3097 1959 3097 
z
M 1959 3584 
Q 2709 3584 3137 3096 
Q 3566 2609 3566 1747 
Q 3566 888 3137 398 
Q 2709 -91 1959 -91 
Q 1206 -91 779 398 
Q 353 888 353 1747 
Q 353 2609 779 3096 
Q 1206 3584 1959 3584 
z
" transform="scale(0.015625)"/>
        <path id="DejaVuSans-77" d="M 269 3500 
L 844 3500 
L 1563 769 
L 2278 3500 
L 2956 3500 
L 3675 769 
L 4391 3500 
L 4966 3500 
L 4050 0 
L 3372 0 
L 2619 2869 
L 1863 0 
L 1184 0 
L 269 3500 
z
" transform="scale(0.015625)"/>
       </defs>
       <use xlink:href="#DejaVuSans-41"/>
       <use xlink:href="#DejaVuSans-72" transform="translate(68.408203 0)"/>
       <use xlink:href="#DejaVuSans-72" transform="translate(107.771484 0)"/>
       <use xlink:href="#DejaVuSans-6f" transform="translate(146.634766 0)"/>
       <use xlink:href="#DejaVuSans-77" transform="translate(207.816406 0)"/>
      </g>
     </g>
    </g>
    <g id="xtick_2">
     <g id="line2d_2">
      <g>
       <use xlink:href="#m7638fa6db6" x="206.55" y="384.48" style="stroke: #000000; stroke-width: 0.8"/>
      </g>
     </g>
     <g id="text_2">
      <!-- Radar -->
      <g transform="translate(194.774375 397.55875) scale(0.08 -0.08)">
       <defs>
        <path id="DejaVuSans-52" d="M 2841 2188 
Q 3044 2119 3236 1894 
Q 3428 1669 3622 1275 
L 4263 0 
L 3584 0 
L 2988 1197 
Q 2756 1666 2539 1819 
Q 2322 1972 1947 1972 
L 1259 1972 
L 1259 0 
L 628 0 
L 628 4666 
L 2053 4666 
Q 2853 4666 3247 4331 
Q 3641 3997 3641 3322 
Q 3641 2881 3436 2590 
Q 3231 2300 2841 2188 
z
M 1259 4147 
L 1259 2491 
L 2053 2491 
Q 2509 2491 2742 2702 
Q 2975 2913 2975 3322 
Q 2975 3731 2742 3939 
Q 2509 4147 2053 4147 
L 1259 4147 
z
" transform="scale(0.015625)"/>
        <path id="DejaVuSans-61" d="M 2194 1759 
Q 1497 1759 1228 1600 
Q 959 1441 959 1056 
Q 959 750 1161 570 
Q 1363 391 1709 391 
Q 2188 391 2477 730 
Q 2766 1069 2766 1631 
L 2766 1759 
L 2194 1759 
z
M 3341 1997 
L 3341 0 
L 2766 0 
L 2766 531 
Q 2569 213 2275 61 
Q 1981 -91 1556 -91 
Q 1019 -91 701 211 
Q 384 513 384 1019 
Q 384 1609 779 1909 
Q 1175 2209 1959 2209 
L 2766 2209 
L 2766 2266 
Q 2766 2663 2505 2880 
Q 2244 3097 1772 3097 
Q 1472 3097 1187 3025 
Q 903 2953 641 2809 
L 641 3341 
Q 956 3463 1253 3523 
Q 1550 3584 1831 3584 
Q 2591 3584 2966 3190 
Q 3341 2797 3341 1997 
z
" transform="scale(0.015625)"/>
        <path id="DejaVuSans-64" d="M 2906 2969 
L 2906 4863 
L 3481 4863 
L 3481 0 
L 2906 0 
L 2906 525 
Q 2725 213 2448 61 
Q 2172 -91 1784 -91 
Q 1150 -91 751 415 
Q 353 922 353 1747 
Q 353 2572 751 3078 
Q 1150 3584 1784 3584 
Q 2172 3584 2448 3432 
Q 2725 3281 2906 2969 
z
M 947 1747 
Q 947 1113 1208 752 
Q 1469 391 1925 391 
Q 2381 391 2643 752 
Q 2906 1113 2906 1747 
Q 2906 2381 2643 2742 
Q 2381 3103 1925 3103 
Q 1469 3103 1208 2742 
Q 947 2381 947 1747 
z
" transform="scale(0.015625)"/>
       </defs>
       <use xlink:href="#DejaVuSans-52"/>
       <use xlink:href="#DejaVuSans-61" transform="translate(67.232422 0)"/>
       <use xlink:href="#DejaVuSans-64" transform="translate(128.511719 0)"/>
       <use xlink:href="#DejaVuSans-61" transform="translate(191.988281 0)"/>
       <use xlink:href="#DejaVuSans-72" transform="translate(253.267578 0)"/>
      </g>
     </g>
    </g>
    <g id="xtick_3">
     <g id="line2d_3">
      <g>
       <use xlink:href="#m7638fa6db6" x="290.25" y="384.48" style="stroke: #000000; stroke-width: 0.8"/>
      </g>
     </g>
     <g id="text_3">
      <!-- Lights -->
      <g transform="translate(278.18375 397.55875) scale(0.08 -0.08)">
       <defs>
        <path id="DejaVuSans-4c" d="M 628 4666 
L 1259 4666 
L 1259 531 
L 3531 531 
L 3531 0 
L 628 0 
L 628 4666 
z
" transform="scale(0.015625)"/>
        <path id="DejaVuSans-69" d="M 603 3500 
L 1178 3500 
L 1178 0 
L 603 0 
L 603 3500 
z
M 603 4863 
L 1178 4863 
L 1178 4134 
L 603 4134 
L 603 4863 
z
" transform="scale(0.015625)"/>
        <path id="DejaVuSans-67" d="M 2906 1791 
Q 2906 2416 2648 2759 
Q 2391 3103 1925 3103 
Q 1463 3103 1205 2759 
Q 947 2416 947 1791 
Q 947 1169 1205 825 
Q 1463 481 1925 481 
Q 2391 481 2648 825 
Q 2906 1169 2906 1791 
z
M 3481 434 
Q 3481 -459 3084 -895 
Q 2688 -1331 1869 -1331 
Q 1566 -1331 1297 -1286 
Q 1028 -1241 775 -1147 
L 775 -588 
Q 1028 -725 1275 -790 
Q 1522 -856 1778 -856 
Q 2344 -856 2625 -561 
Q 2906 -266 2906 331 
L 2906 616 
Q 2728 306 2450 153 
Q 2172 0 1784 0 
Q 1141 0 747 490 
Q 353 981 353 1791 
Q 353 2603 747 3093 
Q 1141 3584 1784 3584 
Q 2172 3584 2450 3431 
Q 2728 3278 2906 2969 
L 2906 3500 
L 3481 3500 
L 3481 434 
z
" transform="scale(0.015625)"/>
        <path id="DejaVuSans-68" d="M 3513 2113 
L 3513 0 
L 2938 0 
L 2938 2094 
Q 2938 2591 2744 2837 
Q 2550 3084 2163 3084 
Q 1697 3084 1428 2787 
Q 1159 2491 1159 1978 
L 1159 0 
L 581 0 
L 581 4863 
L 1159 4863 
L 1159 2956 
Q 1366 3272 1645 3428 
Q 1925 3584 2291 3584 
Q 2894 3584 3203 3211 
Q 3513 2838 3513 2113 
z
" transform="scale(0.015625)"/>
        <path id="DejaVuSans-74" d="M 1172 4494 
L 1172 3500 
L 2356 3500 
L 2356 3053 
L 1172 3053 
L 1172 1153 
Q 1172 725 1289 603 
Q 1406 481 1766 481 
L 2356 481 
L 2356 0 
L 1766 0 
Q 1100 0 847 248 
Q 594 497 594 1153 
L 594 3053 
L 172 3053 
L 172 3500 
L 594 3500 
L 594 4494 
L 1172 4494 
z
" transform="scale(0.015625)"/>
        <path id="DejaVuSans-73" d="M 2834 3397 
L 2834 2853 
Q 2591 2978 2328 3040 
Q 2066 3103 1784 3103 
Q 1356 3103 1142 2972 
Q 928 2841 928 2578 
Q 928 2378 1081 2264 
Q 1234 2150 1697 2047 
L 1894 2003 
Q 2506 1872 2764 1633 
Q 3022 1394 3022 966 
Q 3022 478 2636 193 
Q 2250 -91 1575 -91 
Q 1294 -91 989 -36 
Q 684 19 347 128 
L 347 722 
Q 666 556 975 473 
Q 1284 391 1588 391 
Q 1994 391 2212 530 
Q 2431 669 2431 922 
Q 2431 1156 2273 1281 
Q 2116 1406 1581 1522 
L 1381 1569 
Q 847 1681 609 1914 
Q 372 2147 372 2553 
Q 372 3047 722 3315 
Q 1072 3584 1716 3584 
Q 2034 3584 2315 3537 
Q 2597 3491 2834 3397 
z
" transform="scale(0.015625)"/>
       </defs>
       <use xlink:href="#DejaVuSans-4c"/>
       <use xlink:href="#DejaVuSans-69" transform="translate(55.712891 0)"/>
       <use xlink:href="#DejaVuSans-67" transform="translate(83.496094 0)"/>
       <use xlink:href="#DejaVuSans-68" transform="translate(146.972656 0)"/>
       <use xlink:href="#DejaVuSans-74" transform="translate(210.351562 0)"/>
       <use xlink:href="#DejaVuSans-73" transform="translate(249.560547 0)"/>
      </g>
     </g>
    </g>
    <g id="xtick_4">
     <g id="line2d_4">
      <g>
       <use xlink:href="#m7638fa6db6" x="373.95" y="384.48" style="stroke: #000000; stroke-width: 0.8"/>
      </g>
     </g>
     <g id="text_4">
      <!-- Arrow &amp; Radar -->
      <g transform="translate(344.92875 397.55875) scale(0.08 -0.08)">
       <defs>
        <path id="DejaVuSans-20" transform="scale(0.015625)"/>
        <path id="DejaVuSans-26" d="M 1556 2509 
Q 1272 2256 1139 2004 
Q 1006 1753 1006 1478 
Q 1006 1022 1337 719 
Q 1669 416 2169 416 
Q 2466 416 2725 514 
Q 2984 613 3213 813 
L 1556 2509 
z
M 1997 2859 
L 3584 1234 
Q 3769 1513 3872 1830 
Q 3975 2147 3994 2503 
L 4575 2503 
Q 4538 2091 4375 1687 
Q 4213 1284 3922 891 
L 4794 0 
L 4006 0 
L 3559 459 
Q 3234 181 2878 45 
Q 2522 -91 2113 -91 
Q 1359 -91 881 339 
Q 403 769 403 1441 
Q 403 1841 612 2192 
Q 822 2544 1241 2853 
Q 1091 3050 1012 3245 
Q 934 3441 934 3628 
Q 934 4134 1281 4442 
Q 1628 4750 2203 4750 
Q 2463 4750 2720 4694 
Q 2978 4638 3244 4525 
L 3244 3956 
Q 2972 4103 2725 4179 
Q 2478 4256 2266 4256 
Q 1938 4256 1733 4082 
Q 1528 3909 1528 3634 
Q 1528 3475 1620 3314 
Q 1713 3153 1997 2859 
z
" transform="scale(0.015625)"/>
       </defs>
       <use xlink:href="#DejaVuSans-41"/>
       <use xlink:href="#DejaVuSans-72" transform="translate(68.408203 0)"/>
       <use xlink:href="#DejaVuSans-72" transform="translate(107.771484 0)"/>
       <use xlink:href="#DejaVuSans-6f" transform="translate(146.634766 0)"/>
       <use xlink:href="#DejaVuSans-77" transform="translate(207.816406 0)"/>
       <use xlink:href="#DejaVuSans-20" transform="translate(289.603516 0)"/>
       <use xlink:href="#DejaVuSans-26" transform="translate(321.390625 0)"/>
       <use xlink:href="#DejaVuSans-20" transform="translate(399.369141 0)"/>
       <use xlink:href="#DejaVuSans-52" transform="translate(431.15625 0)"/>
       <use xlink:href="#DejaVuSans-61" transform="translate(498.388672 0)"/>
       <use xlink:href="#DejaVuSans-64" transform="translate(559.667969 0)"/>
       <use xlink:href="#DejaVuSans-61" transform="translate(623.144531 0)"/>
       <use xlink:href="#DejaVuSans-72" transform="translate(684.423828 0)"/>
      </g>
     </g>
    </g>
    <g id="xtick_5">
     <g id="line2d_5">
      <g>
       <use xlink:href="#m7638fa6db6" x="457.65" y="384.48" style="stroke: #000000; stroke-width: 0.8"/>
      </g>
     </g>
     <g id="text_5">
      <!-- Arrow &amp; Lights -->
      <g transform="translate(428.338125 397.55875) scale(0.08 -0.08)">
       <use xlink:href="#DejaVuSans-41"/>
       <use xlink:href="#DejaVuSans-72" transform="translate(68.408203 0)"/>
       <use xlink:href="#DejaVuSans-72" transform="translate(107.771484 0)"/>
       <use xlink:href="#DejaVuSans-6f" transform="translate(146.634766 0)"/>
       <use xlink:href="#DejaVuSans-77" transform="translate(207.816406 0)"/>
       <use xlink:href="#DejaVuSans-20" transform="translate(289.603516 0)"/>
       <use xlink:href="#DejaVuSans-26" transform="translate(321.390625 0)"/>
       <use xlink:href="#DejaVuSans-20" transform="translate(399.369141 0)"/>
       <use xlink:href="#DejaVuSans-4c" transform="translate(431.15625 0)"/>
       <use xlink:href="#DejaVuSans-69" transform="translate(486.869141 0)"/>
       <use xlink:href="#DejaVuSans-67" transform="translate(514.652344 0)"/>
       <use xlink:href="#DejaVuSans-68" transform="translate(578.128906 0)"/>
       <use xlink:href="#DejaVuSans-74" transform="translate(641.507812 0)"/>
       <use xlink:href="#DejaVuSans-73" transform="translate(680.716797 0)"/>
      </g>
     </g>
    </g>
    <g id="xtick_6">
     <g id="line2d_6">
      <g>
       <use xlink:href="#m7638fa6db6" x="541.35" y="384.48" style="stroke: #000000; stroke-width: 0.8"/>
      </g>
     </g>
     <g id="text_6">
      <!-- Lights &amp; Radar -->
      <g transform="translate(511.84625 397.55875) scale(0.08 -0.08)">
       <use xlink:href="#DejaVuSans-4c"/>
       <use xlink:href="#DejaVuSans-69" transform="translate(55.712891 0)"/>
       <use xlink:href="#DejaVuSans-67" transform="translate(83.496094 0)"/>
       <use xlink:href="#DejaVuSans-68" transform="translate(146.972656 0)"/>
       <use xlink:href="#DejaVuSans-74" transform="translate(210.351562 0)"/>
       <use xlink:href="#DejaVuSans-73" transform="translate(249.560547 0)"/>
       <use xlink:href="#DejaVuSans-20" transform="translate(301.660156 0)"/>
       <use xlink:href="#DejaVuSans-26" transform="translate(333.447266 0)"/>
       <use xlink:href="#DejaVuSans-20" transform="translate(411.425781 0)"/>
       <use xlink:href="#DejaVuSans-52" transform="translate(443.212891 0)"/>
       <use xlink:href="#DejaVuSans-61" transform="translate(510.445312 0)"/>
       <use xlink:href="#DejaVuSans-64" transform="translate(571.724609 0)"/>
       <use xlink:href="#DejaVuSans-61" transform="translate(635.201172 0)"/>
       <use xlink:href="#DejaVuSans-72" transform="translate(696.480469 0)"/>
      </g>
     </g>
    </g>
    <g id="text_7">
     <!-- Visualization -->
     <g transform="translate(300.521875 416.820938) scale(0.1 -0.1)">
      <defs>
       <path id="DejaVuSans-56" d="M 1831 0 
L 50 4666 
L 709 4666 
L 2188 738 
L 3669 4666 
L 4325 4666 
L 2547 0 
L 1831 0 
z
" transform="scale(0.015625)"/>
       <path id="DejaVuSans-75" d="M 544 1381 
L 544 3500 
L 1119 3500 
L 1119 1403 
Q 1119 906 1312 657 
Q 1506 409 1894 409 
Q 2359 409 2629 706 
Q 2900 1003 2900 1516 
L 2900 3500 
L 3475 3500 
L 3475 0 
L 2900 0 
L 2900 538 
Q 2691 219 2414 64 
Q 2138 -91 1772 -91 
Q 1169 -91 856 284 
Q 544 659 544 1381 
z
M 1991 3584 
L 1991 3584 
z
" transform="scale(0.015625)"/>
       <path id="DejaVuSans-6c" d="M 603 4863 
L 1178 4863 
L 1178 0 
L 603 0 
L 603 4863 
z
" transform="scale(0.015625)"/>
       <path id="DejaVuSans-7a" d="M 353 3500 
L 3084 3500 
L 3084 2975 
L 922 459 
L 3084 459 
L 3084 0 
L 275 0 
L 275 525 
L 2438 3041 
L 353 3041 
L 353 3500 
z
" transform="scale(0.015625)"/>
       <path id="DejaVuSans-6e" d="M 3513 2113 
L 3513 0 
L 2938 0 
L 2938 2094 
Q 2938 2591 2744 2837 
Q 2550 3084 2163 3084 
Q 1697 3084 1428 2787 
Q 1159 2491 1159 1978 
L 1159 0 
L 581 0 
L 581 3500 
L 1159 3500 
L 1159 2956 
Q 1366 3272 1645 3428 
Q 1925 3584 2291 3584 
Q 2894 3584 3203 3211 
Q 3513 2838 3513 2113 
z
" transform="scale(0.015625)"/>
      </defs>
      <use xlink:href="#DejaVuSans-56"/>
      <use xlink:href="#DejaVuSans-69" transform="translate(66.158203 0)"/>
      <use xlink:href="#DejaVuSans-73" transform="translate(93.941406 0)"/>
      <use xlink:href="#DejaVuSans-75" transform="translate(146.041016 0)"/>
      <use xlink:href="#DejaVuSans-61" transform="translate(209.419922 0)"/>
      <use xlink:href="#DejaVuSans-6c" transform="translate(270.699219 0)"/>
      <use xlink:href="#DejaVuSans-69" transform="translate(298.482422 0)"/>
      <use xlink:href="#DejaVuSans-7a" transform="translate(326.265625 0)"/>
      <use xlink:href="#DejaVuSans-61" transform="translate(378.755859 0)"/>
      <use xlink:href="#DejaVuSans-74" transform="translate(440.035156 0)"/>
      <use xlink:href="#DejaVuSans-69" transform="translate(479.244141 0)"/>
      <use xlink:href="#DejaVuSans-6f" transform="translate(507.027344 0)"/>
      <use xlink:href="#DejaVuSans-6e" transform="translate(568.208984 0)"/>
     </g>
    </g>
   </g>
   <g id="matplotlib.axis_2">
    <g id="ytick_1">
     <g id="line2d_7">
      <defs>
       <path id="mbd95b9f23a" d="M 0 0 
L -3.5 0 
" style="stroke: #000000; stroke-width: 0.8"/>
      </defs>
      <g>
       <use xlink:href="#mbd95b9f23a" x="81" y="384.48" style="stroke: #000000; stroke-width: 0.8"/>
      </g>
     </g>
     <g id="text_8">
      <!-- 0 -->
      <g transform="translate(67.6375 388.279219) scale(0.1 -0.1)">
       <defs>
        <path id="DejaVuSans-30" d="M 2034 4250 
Q 1547 4250 1301 3770 
Q 1056 3291 1056 2328 
Q 1056 1369 1301 889 
Q 1547 409 2034 409 
Q 2525 409 2770 889 
Q 3016 1369 3016 2328 
Q 3016 3291 2770 3770 
Q 2525 4250 2034 4250 
z
M 2034 4750 
Q 2819 4750 3233 4129 
Q 3647 3509 3647 2328 
Q 3647 1150 3233 529 
Q 2819 -91 2034 -91 
Q 1250 -91 836 529 
Q 422 1150 422 2328 
Q 422 3509 836 4129 
Q 1250 4750 2034 4750 
z
" transform="scale(0.015625)"/>
       </defs>
       <use xlink:href="#DejaVuSans-30"/>
      </g>
     </g>
    </g>
    <g id="ytick_2">
     <g id="line2d_8">
      <g>
       <use xlink:href="#mbd95b9f23a" x="81" y="335.399821" style="stroke: #000000; stroke-width: 0.8"/>
      </g>
     </g>
     <g id="text_9">
      <!-- 10 -->
      <g transform="translate(61.275 339.19904) scale(0.1 -0.1)">
       <defs>
        <path id="DejaVuSans-31" d="M 794 531 
L 1825 531 
L 1825 4091 
L 703 3866 
L 703 4441 
L 1819 4666 
L 2450 4666 
L 2450 531 
L 3481 531 
L 3481 0 
L 794 0 
L 794 531 
z
" transform="scale(0.015625)"/>
       </defs>
       <use xlink:href="#DejaVuSans-31"/>
       <use xlink:href="#DejaVuSans-30" transform="translate(63.623047 0)"/>
      </g>
     </g>
    </g>
    <g id="ytick_3">
     <g id="line2d_9">
      <g>
       <use xlink:href="#mbd95b9f23a" x="81" y="286.319642" style="stroke: #000000; stroke-width: 0.8"/>
      </g>
     </g>
     <g id="text_10">
      <!-- 20 -->
      <g transform="translate(61.275 290.118861) scale(0.1 -0.1)">
       <defs>
        <path id="DejaVuSans-32" d="M 1228 531 
L 3431 531 
L 3431 0 
L 469 0 
L 469 531 
Q 828 903 1448 1529 
Q 2069 2156 2228 2338 
Q 2531 2678 2651 2914 
Q 2772 3150 2772 3378 
Q 2772 3750 2511 3984 
Q 2250 4219 1831 4219 
Q 1534 4219 1204 4116 
Q 875 4013 500 3803 
L 500 4441 
Q 881 4594 1212 4672 
Q 1544 4750 1819 4750 
Q 2544 4750 2975 4387 
Q 3406 4025 3406 3419 
Q 3406 3131 3298 2873 
Q 3191 2616 2906 2266 
Q 2828 2175 2409 1742 
Q 1991 1309 1228 531 
z
" transform="scale(0.015625)"/>
       </defs>
       <use xlink:href="#DejaVuSans-32"/>
       <use xlink:href="#DejaVuSans-30" transform="translate(63.623047 0)"/>
      </g>
     </g>
    </g>
    <g id="ytick_4">
     <g id="line2d_10">
      <g>
       <use xlink:href="#mbd95b9f23a" x="81" y="237.239463" style="stroke: #000000; stroke-width: 0.8"/>
      </g>
     </g>
     <g id="text_11">
      <!-- 30 -->
      <g transform="translate(61.275 241.038682) scale(0.1 -0.1)">
       <defs>
        <path id="DejaVuSans-33" d="M 2597 2516 
Q 3050 2419 3304 2112 
Q 3559 1806 3559 1356 
Q 3559 666 3084 287 
Q 2609 -91 1734 -91 
Q 1441 -91 1130 -33 
Q 819 25 488 141 
L 488 750 
Q 750 597 1062 519 
Q 1375 441 1716 441 
Q 2309 441 2620 675 
Q 2931 909 2931 1356 
Q 2931 1769 2642 2001 
Q 2353 2234 1838 2234 
L 1294 2234 
L 1294 2753 
L 1863 2753 
Q 2328 2753 2575 2939 
Q 2822 3125 2822 3475 
Q 2822 3834 2567 4026 
Q 2313 4219 1838 4219 
Q 1578 4219 1281 4162 
Q 984 4106 628 3988 
L 628 4550 
Q 988 4650 1302 4700 
Q 1616 4750 1894 4750 
Q 2613 4750 3031 4423 
Q 3450 4097 3450 3541 
Q 3450 3153 3228 2886 
Q 3006 2619 2597 2516 
z
" transform="scale(0.015625)"/>
       </defs>
       <use xlink:href="#DejaVuSans-33"/>
       <use xlink:href="#DejaVuSans-30" transform="translate(63.623047 0)"/>
      </g>
     </g>
    </g>
    <g id="ytick_5">
     <g id="line2d_11">
      <g>
       <use xlink:href="#mbd95b9f23a" x="81" y="188.159285" style="stroke: #000000; stroke-width: 0.8"/>
      </g>
     </g>
     <g id="text_12">
      <!-- 40 -->
      <g transform="translate(61.275 191.958503) scale(0.1 -0.1)">
       <defs>
        <path id="DejaVuSans-34" d="M 2419 4116 
L 825 1625 
L 2419 1625 
L 2419 4116 
z
M 2253 4666 
L 3047 4666 
L 3047 1625 
L 3713 1625 
L 3713 1100 
L 3047 1100 
L 3047 0 
L 2419 0 
L 2419 1100 
L 313 1100 
L 313 1709 
L 2253 4666 
z
" transform="scale(0.015625)"/>
       </defs>
       <use xlink:href="#DejaVuSans-34"/>
       <use xlink:href="#DejaVuSans-30" transform="translate(63.623047 0)"/>
      </g>
     </g>
    </g>
    <g id="ytick_6">
     <g id="line2d_12">
      <g>
       <use xlink:href="#mbd95b9f23a" x="81" y="139.079106" style="stroke: #000000; stroke-width: 0.8"/>
      </g>
     </g>
     <g id="text_13">
      <!-- 50 -->
      <g transform="translate(61.275 142.878325) scale(0.1 -0.1)">
       <defs>
        <path id="DejaVuSans-35" d="M 691 4666 
L 3169 4666 
L 3169 4134 
L 1269 4134 
L 1269 2991 
Q 1406 3038 1543 3061 
Q 1681 3084 1819 3084 
Q 2600 3084 3056 2656 
Q 3513 2228 3513 1497 
Q 3513 744 3044 326 
Q 2575 -91 1722 -91 
Q 1428 -91 1123 -41 
Q 819 9 494 109 
L 494 744 
Q 775 591 1075 516 
Q 1375 441 1709 441 
Q 2250 441 2565 725 
Q 2881 1009 2881 1497 
Q 2881 1984 2565 2268 
Q 2250 2553 1709 2553 
Q 1456 2553 1204 2497 
Q 953 2441 691 2322 
L 691 4666 
z
" transform="scale(0.015625)"/>
       </defs>
       <use xlink:href="#DejaVuSans-35"/>
       <use xlink:href="#DejaVuSans-30" transform="translate(63.623047 0)"/>
      </g>
     </g>
    </g>
    <g id="ytick_7">
     <g id="line2d_13">
      <g>
       <use xlink:href="#mbd95b9f23a" x="81" y="89.998927" style="stroke: #000000; stroke-width: 0.8"/>
      </g>
     </g>
     <g id="text_14">
      <!-- 60 -->
      <g transform="translate(61.275 93.798146) scale(0.1 -0.1)">
       <defs>
        <path id="DejaVuSans-36" d="M 2113 2584 
Q 1688 2584 1439 2293 
Q 1191 2003 1191 1497 
Q 1191 994 1439 701 
Q 1688 409 2113 409 
Q 2538 409 2786 701 
Q 3034 994 3034 1497 
Q 3034 2003 2786 2293 
Q 2538 2584 2113 2584 
z
M 3366 4563 
L 3366 3988 
Q 3128 4100 2886 4159 
Q 2644 4219 2406 4219 
Q 1781 4219 1451 3797 
Q 1122 3375 1075 2522 
Q 1259 2794 1537 2939 
Q 1816 3084 2150 3084 
Q 2853 3084 3261 2657 
Q 3669 2231 3669 1497 
Q 3669 778 3244 343 
Q 2819 -91 2113 -91 
Q 1303 -91 875 529 
Q 447 1150 447 2328 
Q 447 3434 972 4092 
Q 1497 4750 2381 4750 
Q 2619 4750 2861 4703 
Q 3103 4656 3366 4563 
z
" transform="scale(0.015625)"/>
       </defs>
       <use xlink:href="#DejaVuSans-36"/>
       <use xlink:href="#DejaVuSans-30" transform="translate(63.623047 0)"/>
      </g>
     </g>
    </g>
    <g id="text_15">
     <!-- Response Time -->
     <g transform="translate(49.195312 255.996719) rotate(-90) scale(0.1 -0.1)">
      <defs>
       <path id="DejaVuSans-65" d="M 3597 1894 
L 3597 1613 
L 953 1613 
Q 991 1019 1311 708 
Q 1631 397 2203 397 
Q 2534 397 2845 478 
Q 3156 559 3463 722 
L 3463 178 
Q 3153 47 2828 -22 
Q 2503 -91 2169 -91 
Q 1331 -91 842 396 
Q 353 884 353 1716 
Q 353 2575 817 3079 
Q 1281 3584 2069 3584 
Q 2775 3584 3186 3129 
Q 3597 2675 3597 1894 
z
M 3022 2063 
Q 3016 2534 2758 2815 
Q 2500 3097 2075 3097 
Q 1594 3097 1305 2825 
Q 1016 2553 972 2059 
L 3022 2063 
z
" transform="scale(0.015625)"/>
       <path id="DejaVuSans-70" d="M 1159 525 
L 1159 -1331 
L 581 -1331 
L 581 3500 
L 1159 3500 
L 1159 2969 
Q 1341 3281 1617 3432 
Q 1894 3584 2278 3584 
Q 2916 3584 3314 3078 
Q 3713 2572 3713 1747 
Q 3713 922 3314 415 
Q 2916 -91 2278 -91 
Q 1894 -91 1617 61 
Q 1341 213 1159 525 
z
M 3116 1747 
Q 3116 2381 2855 2742 
Q 2594 3103 2138 3103 
Q 1681 3103 1420 2742 
Q 1159 2381 1159 1747 
Q 1159 1113 1420 752 
Q 1681 391 2138 391 
Q 2594 391 2855 752 
Q 3116 1113 3116 1747 
z
" transform="scale(0.015625)"/>
       <path id="DejaVuSans-54" d="M -19 4666 
L 3928 4666 
L 3928 4134 
L 2272 4134 
L 2272 0 
L 1638 0 
L 1638 4134 
L -19 4134 
L -19 4666 
z
" transform="scale(0.015625)"/>
       <path id="DejaVuSans-6d" d="M 3328 2828 
Q 3544 3216 3844 3400 
Q 4144 3584 4550 3584 
Q 5097 3584 5394 3201 
Q 5691 2819 5691 2113 
L 5691 0 
L 5113 0 
L 5113 2094 
Q 5113 2597 4934 2840 
Q 4756 3084 4391 3084 
Q 3944 3084 3684 2787 
Q 3425 2491 3425 1978 
L 3425 0 
L 2847 0 
L 2847 2094 
Q 2847 2600 2669 2842 
Q 2491 3084 2119 3084 
Q 1678 3084 1418 2786 
Q 1159 2488 1159 1978 
L 1159 0 
L 581 0 
L 581 3500 
L 1159 3500 
L 1159 2956 
Q 1356 3278 1631 3431 
Q 1906 3584 2284 3584 
Q 2666 3584 2933 3390 
Q 3200 3197 3328 2828 
z
" transform="scale(0.015625)"/>
      </defs>
      <use xlink:href="#DejaVuSans-52"/>
      <use xlink:href="#DejaVuSans-65" transform="translate(64.982422 0)"/>
      <use xlink:href="#DejaVuSans-73" transform="translate(126.505859 0)"/>
      <use xlink:href="#DejaVuSans-70" transform="translate(178.605469 0)"/>
      <use xlink:href="#DejaVuSans-6f" transform="translate(242.082031 0)"/>
      <use xlink:href="#DejaVuSans-6e" transform="translate(303.263672 0)"/>
      <use xlink:href="#DejaVuSans-73" transform="translate(366.642578 0)"/>
      <use xlink:href="#DejaVuSans-65" transform="translate(418.742188 0)"/>
      <use xlink:href="#DejaVuSans-20" transform="translate(480.265625 0)"/>
      <use xlink:href="#DejaVuSans-54" transform="translate(512.052734 0)"/>
      <use xlink:href="#DejaVuSans-69" transform="translate(570.011719 0)"/>
      <use xlink:href="#DejaVuSans-6d" transform="translate(597.794922 0)"/>
      <use xlink:href="#DejaVuSans-65" transform="translate(695.207031 0)"/>
     </g>
    </g>
   </g>
   <g id="LineCollection_1">
    <path d="M 106.11 125.584461 
L 139.59 125.584461 
" clip-path="url(#p57dc760e4b)" style="fill: none; stroke: #1f77b4; stroke-width: 1.5"/>
    <path d="M 189.81 201.38762 
L 223.29 201.38762 
" clip-path="url(#p57dc760e4b)" style="fill: none; stroke: #1f77b4; stroke-width: 1.5"/>
    <path d="M 273.51 67.190288 
L 306.99 67.190288 
" clip-path="url(#p57dc760e4b)" style="fill: none; stroke: #1f77b4; stroke-width: 1.5"/>
    <path d="M 357.21 194.571708 
L 390.69 194.571708 
" clip-path="url(#p57dc760e4b)" style="fill: none; stroke: #1f77b4; stroke-width: 1.5"/>
    <path d="M 440.91 116.987626 
L 474.39 116.987626 
" clip-path="url(#p57dc760e4b)" style="fill: none; stroke: #1f77b4; stroke-width: 1.5"/>
    <path d="M 524.61 248.959516 
L 558.09 248.959516 
" clip-path="url(#p57dc760e4b)" style="fill: none; stroke: #1f77b4; stroke-width: 1.5"/>
   </g>
   <g id="LineCollection_2">
    <path d="M 106.11 347.544049 
L 139.59 347.544049 
" clip-path="url(#p57dc760e4b)" style="fill: none; stroke: #1f77b4; stroke-width: 1.5"/>
    <path d="M 189.81 353.265679 
L 223.29 353.265679 
" clip-path="url(#p57dc760e4b)" style="fill: none; stroke: #1f77b4; stroke-width: 1.5"/>
    <path d="M 273.51 372.753808 
L 306.99 372.753808 
" clip-path="url(#p57dc760e4b)" style="fill: none; stroke: #1f77b4; stroke-width: 1.5"/>
    <path d="M 357.21 358.193466 
L 390.69 358.193466 
" clip-path="url(#p57dc760e4b)" style="fill: none; stroke: #1f77b4; stroke-width: 1.5"/>
    <path d="M 440.91 368.664344 
L 474.39 368.664344 
" clip-path="url(#p57dc760e4b)" style="fill: none; stroke: #1f77b4; stroke-width: 1.5"/>
    <path d="M 524.61 374.196049 
L 558.09 374.196049 
" clip-path="url(#p57dc760e4b)" style="fill: none; stroke: #1f77b4; stroke-width: 1.5"/>
   </g>
   <g id="LineCollection_3">
    <path d="M 122.85 347.544049 
L 122.85 125.584461 
" clip-path="url(#p57dc760e4b)" style="fill: none; stroke: #1f77b4; stroke-width: 1.5"/>
    <path d="M 206.55 353.265679 
L 206.55 201.38762 
" clip-path="url(#p57dc760e4b)" style="fill: none; stroke: #1f77b4; stroke-width: 1.5"/>
    <path d="M 290.25 372.753808 
L 290.25 67.190288 
" clip-path="url(#p57dc760e4b)" style="fill: none; stroke: #1f77b4; stroke-width: 1.5"/>
    <path d="M 373.95 358.193466 
L 373.95 194.571708 
" clip-path="url(#p57dc760e4b)" style="fill: none; stroke: #1f77b4; stroke-width: 1.5"/>
    <path d="M 457.65 368.664344 
L 457.65 116.987626 
" clip-path="url(#p57dc760e4b)" style="fill: none; stroke: #1f77b4; stroke-width: 1.5"/>
    <path d="M 541.35 374.196049 
L 541.35 248.959516 
" clip-path="url(#p57dc760e4b)" style="fill: none; stroke: #1f77b4; stroke-width: 1.5"/>
   </g>
   <g id="patch_3">
    <path d="M 110.295 320.404146 
L 135.405 320.404146 
L 135.405 264.430606 
L 110.295 264.430606 
L 110.295 320.404146 
z
" clip-path="url(#p57dc760e4b)" style="fill: #add8e6; stroke: #000000; stroke-linejoin: miter"/>
   </g>
   <g id="line2d_14">
    <path d="M 122.85 320.404146 
L 122.85 347.544049 
" clip-path="url(#p57dc760e4b)" style="fill: none; stroke: #000000; stroke-linecap: square"/>
   </g>
   <g id="line2d_15">
    <path d="M 122.85 264.430606 
L 122.85 185.29261 
" clip-path="url(#p57dc760e4b)" style="fill: none; stroke: #000000; stroke-linecap: square"/>
   </g>
   <g id="line2d_16">
    <path d="M 116.5725 347.544049 
L 129.1275 347.544049 
" clip-path="url(#p57dc760e4b)" style="fill: none; stroke: #000000; stroke-linecap: square"/>
   </g>
   <g id="line2d_17">
    <path d="M 116.5725 185.29261 
L 129.1275 185.29261 
" clip-path="url(#p57dc760e4b)" style="fill: none; stroke: #000000; stroke-linecap: square"/>
   </g>
   <g id="line2d_18">
    <defs>
     <path id="m922d8ef269" d="M 0 2 
C 0.530406 2 1.03916 1.789267 1.414214 1.414214 
C 1.789267 1.03916 2 0.530406 2 0 
C 2 -0.530406 1.789267 -1.03916 1.414214 -1.414214 
C 1.03916 -1.789267 0.530406 -2 0 -2 
C -0.530406 -2 -1.03916 -1.789267 -1.414214 -1.414214 
C -1.789267 -1.03916 -2 -0.530406 -2 0 
C -2 0.530406 -1.789267 1.03916 -1.414214 1.414214 
C -1.03916 1.789267 -0.530406 2 0 2 
z
" style="stroke: #000000"/>
    </defs>
    <g clip-path="url(#p57dc760e4b)">
     <use xlink:href="#m922d8ef269" x="122.85" y="142.830942" style="fill-opacity: 0; stroke: #000000"/>
     <use xlink:href="#m922d8ef269" x="122.85" y="125.584461" style="fill-opacity: 0; stroke: #000000"/>
    </g>
   </g>
   <g id="patch_4">
    <path d="M 193.995 318.237145 
L 219.105 318.237145 
L 219.105 269.275483 
L 193.995 269.275483 
L 193.995 318.237145 
z
" clip-path="url(#p57dc760e4b)" style="fill: #add8e6; stroke: #000000; stroke-linejoin: miter"/>
   </g>
   <g id="line2d_19">
    <path d="M 206.55 318.237145 
L 206.55 353.265679 
" clip-path="url(#p57dc760e4b)" style="fill: none; stroke: #000000; stroke-linecap: square"/>
   </g>
   <g id="line2d_20">
    <path d="M 206.55 269.275483 
L 206.55 201.38762 
" clip-path="url(#p57dc760e4b)" style="fill: none; stroke: #000000; stroke-linecap: square"/>
   </g>
   <g id="line2d_21">
    <path d="M 200.2725 353.265679 
L 212.8275 353.265679 
" clip-path="url(#p57dc760e4b)" style="fill: none; stroke: #000000; stroke-linecap: square"/>
   </g>
   <g id="line2d_22">
    <path d="M 200.2725 201.38762 
L 212.8275 201.38762 
" clip-path="url(#p57dc760e4b)" style="fill: none; stroke: #000000; stroke-linecap: square"/>
   </g>
   <g id="line2d_23"/>
   <g id="patch_5">
    <path d="M 277.695 316.634518 
L 302.805 316.634518 
L 302.805 255.408246 
L 277.695 255.408246 
L 277.695 316.634518 
z
" clip-path="url(#p57dc760e4b)" style="fill: #add8e6; stroke: #000000; stroke-linejoin: miter"/>
   </g>
   <g id="line2d_24">
    <path d="M 290.25 316.634518 
L 290.25 372.753808 
" clip-path="url(#p57dc760e4b)" style="fill: none; stroke: #000000; stroke-linecap: square"/>
   </g>
   <g id="line2d_25">
    <path d="M 290.25 255.408246 
L 290.25 171.458134 
" clip-path="url(#p57dc760e4b)" style="fill: none; stroke: #000000; stroke-linecap: square"/>
   </g>
   <g id="line2d_26">
    <path d="M 283.9725 372.753808 
L 296.5275 372.753808 
" clip-path="url(#p57dc760e4b)" style="fill: none; stroke: #000000; stroke-linecap: square"/>
   </g>
   <g id="line2d_27">
    <path d="M 283.9725 171.458134 
L 296.5275 171.458134 
" clip-path="url(#p57dc760e4b)" style="fill: none; stroke: #000000; stroke-linecap: square"/>
   </g>
   <g id="line2d_28">
    <g clip-path="url(#p57dc760e4b)">
     <use xlink:href="#m922d8ef269" x="290.25" y="80.662503" style="fill-opacity: 0; stroke: #000000"/>
     <use xlink:href="#m922d8ef269" x="290.25" y="110.874494" style="fill-opacity: 0; stroke: #000000"/>
     <use xlink:href="#m922d8ef269" x="290.25" y="161.482441" style="fill-opacity: 0; stroke: #000000"/>
     <use xlink:href="#m922d8ef269" x="290.25" y="150.408529" style="fill-opacity: 0; stroke: #000000"/>
     <use xlink:href="#m922d8ef269" x="290.25" y="133.887797" style="fill-opacity: 0; stroke: #000000"/>
     <use xlink:href="#m922d8ef269" x="290.25" y="67.190288" style="fill-opacity: 0; stroke: #000000"/>
    </g>
   </g>
   <g id="patch_6">
    <path d="M 361.395 328.276238 
L 386.505 328.276238 
L 386.505 293.087259 
L 361.395 293.087259 
L 361.395 328.276238 
z
" clip-path="url(#p57dc760e4b)" style="fill: #add8e6; stroke: #000000; stroke-linejoin: miter"/>
   </g>
   <g id="line2d_29">
    <path d="M 373.95 328.276238 
L 373.95 358.193466 
" clip-path="url(#p57dc760e4b)" style="fill: none; stroke: #000000; stroke-linecap: square"/>
   </g>
   <g id="line2d_30">
    <path d="M 373.95 293.087259 
L 373.95 240.864182 
" clip-path="url(#p57dc760e4b)" style="fill: none; stroke: #000000; stroke-linecap: square"/>
   </g>
   <g id="line2d_31">
    <path d="M 367.6725 358.193466 
L 380.2275 358.193466 
" clip-path="url(#p57dc760e4b)" style="fill: none; stroke: #000000; stroke-linecap: square"/>
   </g>
   <g id="line2d_32">
    <path d="M 367.6725 240.864182 
L 380.2275 240.864182 
" clip-path="url(#p57dc760e4b)" style="fill: none; stroke: #000000; stroke-linecap: square"/>
   </g>
   <g id="line2d_33">
    <g clip-path="url(#p57dc760e4b)">
     <use xlink:href="#m922d8ef269" x="373.95" y="236.726919" style="fill-opacity: 0; stroke: #000000"/>
     <use xlink:href="#m922d8ef269" x="373.95" y="237.349109" style="fill-opacity: 0; stroke: #000000"/>
     <use xlink:href="#m922d8ef269" x="373.95" y="233.97303" style="fill-opacity: 0; stroke: #000000"/>
     <use xlink:href="#m922d8ef269" x="373.95" y="194.571708" style="fill-opacity: 0; stroke: #000000"/>
     <use xlink:href="#m922d8ef269" x="373.95" y="215.996335" style="fill-opacity: 0; stroke: #000000"/>
    </g>
   </g>
   <g id="patch_7">
    <path d="M 445.095 328.088727 
L 470.205 328.088727 
L 470.205 279.732358 
L 445.095 279.732358 
L 445.095 328.088727 
z
" clip-path="url(#p57dc760e4b)" style="fill: #add8e6; stroke: #000000; stroke-linejoin: miter"/>
   </g>
   <g id="line2d_34">
    <path d="M 457.65 328.088727 
L 457.65 368.664344 
" clip-path="url(#p57dc760e4b)" style="fill: none; stroke: #000000; stroke-linecap: square"/>
   </g>
   <g id="line2d_35">
    <path d="M 457.65 279.732358 
L 457.65 208.132856 
" clip-path="url(#p57dc760e4b)" style="fill: none; stroke: #000000; stroke-linecap: square"/>
   </g>
   <g id="line2d_36">
    <path d="M 451.3725 368.664344 
L 463.9275 368.664344 
" clip-path="url(#p57dc760e4b)" style="fill: none; stroke: #000000; stroke-linecap: square"/>
   </g>
   <g id="line2d_37">
    <path d="M 451.3725 208.132856 
L 463.9275 208.132856 
" clip-path="url(#p57dc760e4b)" style="fill: none; stroke: #000000; stroke-linecap: square"/>
   </g>
   <g id="line2d_38">
    <g clip-path="url(#p57dc760e4b)">
     <use xlink:href="#m922d8ef269" x="457.65" y="202.747926" style="fill-opacity: 0; stroke: #000000"/>
     <use xlink:href="#m922d8ef269" x="457.65" y="207.070025" style="fill-opacity: 0; stroke: #000000"/>
     <use xlink:href="#m922d8ef269" x="457.65" y="128.802943" style="fill-opacity: 0; stroke: #000000"/>
     <use xlink:href="#m922d8ef269" x="457.65" y="203.499245" style="fill-opacity: 0; stroke: #000000"/>
     <use xlink:href="#m922d8ef269" x="457.65" y="116.987626" style="fill-opacity: 0; stroke: #000000"/>
    </g>
   </g>
   <g id="patch_8">
    <path d="M 528.795 328.90909 
L 553.905 328.90909 
L 553.905 296.12039 
L 528.795 296.12039 
L 528.795 328.90909 
z
" clip-path="url(#p57dc760e4b)" style="fill: #add8e6; stroke: #000000; stroke-linejoin: miter"/>
   </g>
   <g id="line2d_39">
    <path d="M 541.35 328.90909 
L 541.35 374.196049 
" clip-path="url(#p57dc760e4b)" style="fill: none; stroke: #000000; stroke-linecap: square"/>
   </g>
   <g id="line2d_40">
    <path d="M 541.35 296.12039 
L 541.35 248.959516 
" clip-path="url(#p57dc760e4b)" style="fill: none; stroke: #000000; stroke-linecap: square"/>
   </g>
   <g id="line2d_41">
    <path d="M 535.0725 374.196049 
L 547.6275 374.196049 
" clip-path="url(#p57dc760e4b)" style="fill: none; stroke: #000000; stroke-linecap: square"/>
   </g>
   <g id="line2d_42">
    <path d="M 535.0725 248.959516 
L 547.6275 248.959516 
" clip-path="url(#p57dc760e4b)" style="fill: none; stroke: #000000; stroke-linecap: square"/>
   </g>
   <g id="line2d_43"/>
   <g id="line2d_44">
    <path d="M 110.295 297.168399 
L 135.405 297.168399 
" clip-path="url(#p57dc760e4b)" style="fill: none; stroke: #000000"/>
   </g>
   <g id="line2d_45">
    <path d="M 193.995 301.142543 
L 219.105 301.142543 
" clip-path="url(#p57dc760e4b)" style="fill: none; stroke: #000000"/>
   </g>
   <g id="line2d_46">
    <path d="M 277.695 292.492088 
L 302.805 292.492088 
" clip-path="url(#p57dc760e4b)" style="fill: none; stroke: #000000"/>
   </g>
   <g id="line2d_47">
    <path d="M 361.395 308.412324 
L 386.505 308.412324 
" clip-path="url(#p57dc760e4b)" style="fill: none; stroke: #000000"/>
   </g>
   <g id="line2d_48">
    <path d="M 445.095 302.542703 
L 470.205 302.542703 
" clip-path="url(#p57dc760e4b)" style="fill: none; stroke: #000000"/>
   </g>
   <g id="line2d_49">
    <path d="M 528.795 316.040046 
L 553.905 316.040046 
" clip-path="url(#p57dc760e4b)" style="fill: none; stroke: #000000"/>
   </g>
   <g id="patch_9">
    <path d="M 81 384.48 
L 81 51.84 
" style="fill: none; stroke: #000000; stroke-width: 0.8; stroke-linejoin: miter; stroke-linecap: square"/>
   </g>
   <g id="patch_10">
    <path d="M 583.2 384.48 
L 583.2 51.84 
" style="fill: none; stroke: #000000; stroke-width: 0.8; stroke-linejoin: miter; stroke-linecap: square"/>
   </g>
   <g id="patch_11">
    <path d="M 81 384.48 
L 583.2 384.48 
" style="fill: none; stroke: #000000; stroke-width: 0.8; stroke-linejoin: miter; stroke-linecap: square"/>
   </g>
   <g id="patch_12">
    <path d="M 81 51.84 
L 583.2 51.84 
" style="fill: none; stroke: #000000; stroke-width: 0.8; stroke-linejoin: miter; stroke-linecap: square"/>
   </g>
   <g id="text_16">
    <!-- Distance Distribution by Visualization -->
    <g transform="translate(219.887813 31.84) scale(0.12 -0.12)">
     <defs>
      <path id="DejaVuSans-44" d="M 1259 4147 
L 1259 519 
L 2022 519 
Q 2988 519 3436 956 
Q 3884 1394 3884 2338 
Q 3884 3275 3436 3711 
Q 2988 4147 2022 4147 
L 1259 4147 
z
M 628 4666 
L 1925 4666 
Q 3281 4666 3915 4102 
Q 4550 3538 4550 2338 
Q 4550 1131 3912 565 
Q 3275 0 1925 0 
L 628 0 
L 628 4666 
z
" transform="scale(0.015625)"/>
      <path id="DejaVuSans-63" d="M 3122 3366 
L 3122 2828 
Q 2878 2963 2633 3030 
Q 2388 3097 2138 3097 
Q 1578 3097 1268 2742 
Q 959 2388 959 1747 
Q 959 1106 1268 751 
Q 1578 397 2138 397 
Q 2388 397 2633 464 
Q 2878 531 3122 666 
L 3122 134 
Q 2881 22 2623 -34 
Q 2366 -91 2075 -91 
Q 1284 -91 818 406 
Q 353 903 353 1747 
Q 353 2603 823 3093 
Q 1294 3584 2113 3584 
Q 2378 3584 2631 3529 
Q 2884 3475 3122 3366 
z
" transform="scale(0.015625)"/>
      <path id="DejaVuSans-62" d="M 3116 1747 
Q 3116 2381 2855 2742 
Q 2594 3103 2138 3103 
Q 1681 3103 1420 2742 
Q 1159 2381 1159 1747 
Q 1159 1113 1420 752 
Q 1681 391 2138 391 
Q 2594 391 2855 752 
Q 3116 1113 3116 1747 
z
M 1159 2969 
Q 1341 3281 1617 3432 
Q 1894 3584 2278 3584 
Q 2916 3584 3314 3078 
Q 3713 2572 3713 1747 
Q 3713 922 3314 415 
Q 2916 -91 2278 -91 
Q 1894 -91 1617 61 
Q 1341 213 1159 525 
L 1159 0 
L 581 0 
L 581 4863 
L 1159 4863 
L 1159 2969 
z
" transform="scale(0.015625)"/>
      <path id="DejaVuSans-79" d="M 2059 -325 
Q 1816 -950 1584 -1140 
Q 1353 -1331 966 -1331 
L 506 -1331 
L 506 -850 
L 844 -850 
Q 1081 -850 1212 -737 
Q 1344 -625 1503 -206 
L 1606 56 
L 191 3500 
L 800 3500 
L 1894 763 
L 2988 3500 
L 3597 3500 
L 2059 -325 
z
" transform="scale(0.015625)"/>
     </defs>
     <use xlink:href="#DejaVuSans-44"/>
     <use xlink:href="#DejaVuSans-69" transform="translate(77.001953 0)"/>
     <use xlink:href="#DejaVuSans-73" transform="translate(104.785156 0)"/>
     <use xlink:href="#DejaVuSans-74" transform="translate(156.884766 0)"/>
     <use xlink:href="#DejaVuSans-61" transform="translate(196.09375 0)"/>
     <use xlink:href="#DejaVuSans-6e" transform="translate(257.373047 0)"/>
     <use xlink:href="#DejaVuSans-63" transform="translate(320.751953 0)"/>
     <use xlink:href="#DejaVuSans-65" transform="translate(375.732422 0)"/>
     <use xlink:href="#DejaVuSans-20" transform="translate(437.255859 0)"/>
     <use xlink:href="#DejaVuSans-44" transform="translate(469.042969 0)"/>
     <use xlink:href="#DejaVuSans-69" transform="translate(546.044922 0)"/>
     <use xlink:href="#DejaVuSans-73" transform="translate(573.828125 0)"/>
     <use xlink:href="#DejaVuSans-74" transform="translate(625.927734 0)"/>
     <use xlink:href="#DejaVuSans-72" transform="translate(665.136719 0)"/>
     <use xlink:href="#DejaVuSans-69" transform="translate(706.25 0)"/>
     <use xlink:href="#DejaVuSans-62" transform="translate(734.033203 0)"/>
     <use xlink:href="#DejaVuSans-75" transform="translate(797.509766 0)"/>
     <use xlink:href="#DejaVuSans-74" transform="translate(860.888672 0)"/>
     <use xlink:href="#DejaVuSans-69" transform="translate(900.097656 0)"/>
     <use xlink:href="#DejaVuSans-6f" transform="translate(927.880859 0)"/>
     <use xlink:href="#DejaVuSans-6e" transform="translate(989.0625 0)"/>
     <use xlink:href="#DejaVuSans-20" transform="translate(1052.441406 0)"/>
     <use xlink:href="#DejaVuSans-62" transform="translate(1084.228516 0)"/>
     <use xlink:href="#DejaVuSans-79" transform="translate(1147.705078 0)"/>
     <use xlink:href="#DejaVuSans-20" transform="translate(1206.884766 0)"/>
     <use xlink:href="#DejaVuSans-56" transform="translate(1238.671875 0)"/>
     <use xlink:href="#DejaVuSans-69" transform="translate(1304.830078 0)"/>
     <use xlink:href="#DejaVuSans-73" transform="translate(1332.613281 0)"/>
     <use xlink:href="#DejaVuSans-75" transform="translate(1384.712891 0)"/>
     <use xlink:href="#DejaVuSans-61" transform="translate(1448.091797 0)"/>
     <use xlink:href="#DejaVuSans-6c" transform="translate(1509.371094 0)"/>
     <use xlink:href="#DejaVuSans-69" transform="translate(1537.154297 0)"/>
     <use xlink:href="#DejaVuSans-7a" transform="translate(1564.9375 0)"/>
     <use xlink:href="#DejaVuSans-61" transform="translate(1617.427734 0)"/>
     <use xlink:href="#DejaVuSans-74" transform="translate(1678.707031 0)"/>
     <use xlink:href="#DejaVuSans-69" transform="translate(1717.916016 0)"/>
     <use xlink:href="#DejaVuSans-6f" transform="translate(1745.699219 0)"/>
     <use xlink:href="#DejaVuSans-6e" transform="translate(1806.880859 0)"/>
    </g>
   </g>
  </g>
 </g>
 <defs>
  <clipPath id="p57dc760e4b">
   <rect x="81" y="51.84" width="502.2" height="332.64"/>
  </clipPath>
 </defs>
</svg>
