<?xml version="1.0" encoding="utf-8" standalone="no"?>
<!DOCTYPE svg PUBLIC "-//W3C//DTD SVG 1.1//EN"
  "http://www.w3.org/Graphics/SVG/1.1/DTD/svg11.dtd">
<svg xmlns:xlink="http://www.w3.org/1999/xlink" width="648pt" height="432pt" viewBox="0 0 648 432" xmlns="http://www.w3.org/2000/svg" version="1.1">
 <metadata>
  <rdf:RDF xmlns:dc="http://purl.org/dc/elements/1.1/" xmlns:cc="http://creativecommons.org/ns#" xmlns:rdf="http://www.w3.org/1999/02/22-rdf-syntax-ns#">
   <cc:Work>
    <dc:type rdf:resource="http://purl.org/dc/dcmitype/StillImage"/>
    <dc:date>2026-03-16T13:31:52.708974</dc:date>
    <dc:format>image/svg+xml</dc:format>
    <dc:creator>
     <cc:Agent>
      <dc:title>Matplotlib v3.10.6, https://matplotlib.org/</dc:title>
     </cc:Agent>
    </dc:creator>
   </cc:Work>
  </rdf:RDF>
 </metadata>
 <defs>
  <style type="text/css">*{stroke-linejoin: round; stroke-linecap: butt}</style>
 </defs>
 <g id="figure_1">
  <g id="patch_1">
   <path d="M 0 432 
L 648 432 
L 648 0 
L 0 0 
z
" style="fill: #ffffff"/>
  </g>
  <g id="axes_1">
   <g id="patch_2">
    <path d="M 81 384.48 
L 583.2 384.48 
L 583.2 51.84 
L 81 51.84 
z
" style="fill: #ffffff"/>
   </g>
   <g id="FillBetweenPolyCollection_1">
    <path d="M 137.350423 334.08 
L 108.349577 334.08 
L 107.693595 331.534545 
L 107.028378 328.989091 
L 106.354992 326.443636 
L 105.674586 323.898182 
L 104.988382 321.352727 
L 104.297686 318.807273 
L 103.603878 316.261818 
L 102.90841 313.716364 
L 102.212803 311.170909 
L 101.518642 308.625455 
L 100.827566 306.08 
L 100.141261 303.534545 
L 99.461451 300.989091 
L 98.78989 298.443636 
L 98.128349 295.898182 
L 97.478606 293.352727 
L 96.842437 290.807273 
L 96.221605 288.261818 
L 95.61785 285.716364 
L 95.032882 283.170909 
L 94.468371 280.625455 
L 93.925943 278.08 
L 93.407173 275.534545 
L 92.913581 272.989091 
L 92.446634 270.443636 
L 92.007741 267.898182 
L 91.598253 265.352727 
L 91.219468 262.807273 
L 90.872629 260.261818 
L 90.558928 257.716364 
L 90.279512 255.170909 
L 90.035477 252.625455 
L 89.827877 250.08 
L 89.65772 247.534545 
L 89.525969 244.989091 
L 89.433536 242.443636 
L 89.38128 239.898182 
L 89.37 237.352727 
L 89.400422 234.807273 
L 89.47319 232.261818 
L 89.588851 229.716364 
L 89.747841 227.170909 
L 89.950464 224.625455 
L 90.196876 222.08 
L 90.487063 219.534545 
L 90.820825 216.989091 
L 91.197752 214.443636 
L 91.617209 211.898182 
L 92.078316 209.352727 
L 92.579939 206.807273 
L 93.120672 204.261818 
L 93.698834 201.716364 
L 94.312464 199.170909 
L 94.959321 196.625455 
L 95.63689 194.08 
L 96.342391 191.534545 
L 97.072798 188.989091 
L 97.824857 186.443636 
L 98.595112 183.898182 
L 99.379935 181.352727 
L 100.17556 178.807273 
L 100.978121 176.261818 
L 101.783692 173.716364 
L 102.588331 171.170909 
L 103.388123 168.625455 
L 104.179226 166.08 
L 104.957912 163.534545 
L 105.720619 160.989091 
L 106.463982 158.443636 
L 107.184881 155.898182 
L 107.880471 153.352727 
L 108.548218 150.807273 
L 109.185923 148.261818 
L 109.791743 145.716364 
L 110.364212 143.170909 
L 110.90225 140.625455 
L 111.405165 138.08 
L 111.872657 135.534545 
L 112.304808 132.989091 
L 112.702073 130.443636 
L 113.065259 127.898182 
L 113.395507 125.352727 
L 113.694264 122.807273 
L 113.963251 120.261818 
L 114.204431 117.716364 
L 114.419973 115.170909 
L 114.612214 112.625455 
L 114.78362 110.08 
L 114.936743 107.534545 
L 115.074188 104.989091 
L 115.198565 102.443636 
L 115.312459 99.898182 
L 115.418392 97.352727 
L 115.518789 94.807273 
L 115.615946 92.261818 
L 115.712008 89.716364 
L 115.808942 87.170909 
L 115.908519 84.625455 
L 116.012299 82.08 
L 129.687701 82.08 
L 129.687701 82.08 
L 129.791481 84.625455 
L 129.891058 87.170909 
L 129.987992 89.716364 
L 130.084054 92.261818 
L 130.181211 94.807273 
L 130.281608 97.352727 
L 130.387541 99.898182 
L 130.501435 102.443636 
L 130.625812 104.989091 
L 130.763257 107.534545 
L 130.91638 110.08 
L 131.087786 112.625455 
L 131.280027 115.170909 
L 131.495569 117.716364 
L 131.736749 120.261818 
L 132.005736 122.807273 
L 132.304493 125.352727 
L 132.634741 127.898182 
L 132.997927 130.443636 
L 133.395192 132.989091 
L 133.827343 135.534545 
L 134.294835 138.08 
L 134.79775 140.625455 
L 135.335788 143.170909 
L 135.908257 145.716364 
L 136.514077 148.261818 
L 137.151782 150.807273 
L 137.819529 153.352727 
L 138.515119 155.898182 
L 139.236018 158.443636 
L 139.979381 160.989091 
L 140.742088 163.534545 
L 141.520774 166.08 
L 142.311877 168.625455 
L 143.111669 171.170909 
L 143.916308 173.716364 
L 144.721879 176.261818 
L 145.52444 178.807273 
L 146.320065 181.352727 
L 147.104888 183.898182 
L 147.875143 186.443636 
L 148.627202 188.989091 
L 149.357609 191.534545 
L 150.06311 194.08 
L 150.740679 196.625455 
L 151.387536 199.170909 
L 152.001166 201.716364 
L 152.579328 204.261818 
L 153.120061 206.807273 
L 153.621684 209.352727 
L 154.082791 211.898182 
L 154.502248 214.443636 
L 154.879175 216.989091 
L 155.212937 219.534545 
L 155.503124 222.08 
L 155.749536 224.625455 
L 155.952159 227.170909 
L 156.111149 229.716364 
L 156.22681 232.261818 
L 156.299578 234.807273 
L 156.33 237.352727 
L 156.31872 239.898182 
L 156.266464 242.443636 
L 156.174031 244.989091 
L 156.04228 247.534545 
L 155.872123 250.08 
L 155.664523 252.625455 
L 155.420488 255.170909 
L 155.141072 257.716364 
L 154.827371 260.261818 
L 154.480532 262.807273 
L 154.101747 265.352727 
L 153.692259 267.898182 
L 153.253366 270.443636 
L 152.786419 272.989091 
L 152.292827 275.534545 
L 151.774057 278.08 
L 151.231629 280.625455 
L 150.667118 283.170909 
L 150.08215 285.716364 
L 149.478395 288.261818 
L 148.857563 290.807273 
L 148.221394 293.352727 
L 147.571651 295.898182 
L 146.91011 298.443636 
L 146.238549 300.989091 
L 145.558739 303.534545 
L 144.872434 306.08 
L 144.181358 308.625455 
L 143.487197 311.170909 
L 142.79159 313.716364 
L 142.096122 316.261818 
L 141.402314 318.807273 
L 140.711618 321.352727 
L 140.025414 323.898182 
L 139.345008 326.443636 
L 138.671622 328.989091 
L 138.006405 331.534545 
L 137.350423 334.08 
z
" clip-path="url(#p19a3cd17e1)" style="fill: #1f77b4; fill-opacity: 0.3"/>
   </g>
   <g id="FillBetweenPolyCollection_2">
    <path d="M 235.505403 334.08 
L 177.594597 334.08 
L 177.098722 332.043636 
L 176.629919 330.007273 
L 176.189049 327.970909 
L 175.776834 325.934545 
L 175.393848 323.898182 
L 175.040518 321.861818 
L 174.717121 319.825455 
L 174.423785 317.789091 
L 174.160487 315.752727 
L 173.927059 313.716364 
L 173.72319 311.68 
L 173.548429 309.643636 
L 173.402194 307.607273 
L 173.283774 305.570909 
L 173.192337 303.534545 
L 173.126941 301.498182 
L 173.086542 299.461818 
L 173.07 297.425455 
L 173.076093 295.389091 
L 173.103524 293.352727 
L 173.150936 291.316364 
L 173.216919 289.28 
L 173.300022 287.243636 
L 173.398768 285.207273 
L 173.511658 283.170909 
L 173.63719 281.134545 
L 173.773865 279.098182 
L 173.920199 277.061818 
L 174.074733 275.025455 
L 174.236044 272.989091 
L 174.402752 270.952727 
L 174.573534 268.916364 
L 174.747124 266.88 
L 174.922328 264.843636 
L 175.098029 262.807273 
L 175.273188 260.770909 
L 175.446858 258.734545 
L 175.618181 256.698182 
L 175.786395 254.661818 
L 175.950838 252.625455 
L 176.110947 250.589091 
L 176.266261 248.552727 
L 176.416421 246.516364 
L 176.561169 244.48 
L 176.70035 242.443636 
L 176.833903 240.407273 
L 176.961867 238.370909 
L 177.084371 236.334545 
L 177.201633 234.298182 
L 177.313954 232.261818 
L 177.421716 230.225455 
L 177.525373 228.189091 
L 177.625445 226.152727 
L 177.722515 224.116364 
L 177.817219 222.08 
L 177.910243 220.043636 
L 178.00231 218.007273 
L 178.094181 215.970909 
L 178.186641 213.934545 
L 178.280497 211.898182 
L 178.376566 209.861818 
L 178.475674 207.825455 
L 178.578645 205.789091 
L 178.686298 203.752727 
L 178.799438 201.716364 
L 178.918852 199.68 
L 179.045305 197.643636 
L 179.17953 195.607273 
L 179.32223 193.570909 
L 179.474069 191.534545 
L 179.63567 189.498182 
L 179.807612 187.461818 
L 179.990424 185.425455 
L 180.184588 183.389091 
L 180.390531 181.352727 
L 180.608627 179.316364 
L 180.839192 177.28 
L 181.082489 175.243636 
L 181.338718 173.207273 
L 181.608024 171.170909 
L 181.890494 169.134545 
L 182.186153 167.098182 
L 182.494971 165.061818 
L 182.816858 163.025455 
L 183.151668 160.989091 
L 183.4992 158.952727 
L 183.859196 156.916364 
L 184.231346 154.88 
L 184.615288 152.843636 
L 185.010609 150.807273 
L 185.416848 148.770909 
L 185.833498 146.734545 
L 186.260007 144.698182 
L 186.695784 142.661818 
L 187.140197 140.625455 
L 187.592577 138.589091 
L 188.052222 136.552727 
L 188.518401 134.516364 
L 188.990355 132.48 
L 224.109645 132.48 
L 224.109645 132.48 
L 224.581599 134.516364 
L 225.047778 136.552727 
L 225.507423 138.589091 
L 225.959803 140.625455 
L 226.404216 142.661818 
L 226.839993 144.698182 
L 227.266502 146.734545 
L 227.683152 148.770909 
L 228.089391 150.807273 
L 228.484712 152.843636 
L 228.868654 154.88 
L 229.240804 156.916364 
L 229.6008 158.952727 
L 229.948332 160.989091 
L 230.283142 163.025455 
L 230.605029 165.061818 
L 230.913847 167.098182 
L 231.209506 169.134545 
L 231.491976 171.170909 
L 231.761282 173.207273 
L 232.017511 175.243636 
L 232.260808 177.28 
L 232.491373 179.316364 
L 232.709469 181.352727 
L 232.915412 183.389091 
L 233.109576 185.425455 
L 233.292388 187.461818 
L 233.46433 189.498182 
L 233.625931 191.534545 
L 233.77777 193.570909 
L 233.92047 195.607273 
L 234.054695 197.643636 
L 234.181148 199.68 
L 234.300562 201.716364 
L 234.413702 203.752727 
L 234.521355 205.789091 
L 234.624326 207.825455 
L 234.723434 209.861818 
L 234.819503 211.898182 
L 234.913359 213.934545 
L 235.005819 215.970909 
L 235.09769 218.007273 
L 235.189757 220.043636 
L 235.282781 222.08 
L 235.377485 224.116364 
L 235.474555 226.152727 
L 235.574627 228.189091 
L 235.678284 230.225455 
L 235.786046 232.261818 
L 235.898367 234.298182 
L 236.015629 236.334545 
L 236.138133 238.370909 
L 236.266097 240.407273 
L 236.39965 242.443636 
L 236.538831 244.48 
L 236.683579 246.516364 
L 236.833739 248.552727 
L 236.989053 250.589091 
L 237.149162 252.625455 
L 237.313605 254.661818 
L 237.481819 256.698182 
L 237.653142 258.734545 
L 237.826812 260.770909 
L 238.001971 262.807273 
L 238.177672 264.843636 
L 238.352876 266.88 
L 238.526466 268.916364 
L 238.697248 270.952727 
L 238.863956 272.989091 
L 239.025267 275.025455 
L 239.179801 277.061818 
L 239.326135 279.098182 
L 239.46281 281.134545 
L 239.588342 283.170909 
L 239.701232 285.207273 
L 239.799978 287.243636 
L 239.883081 289.28 
L 239.949064 291.316364 
L 239.996476 293.352727 
L 240.023907 295.389091 
L 240.03 297.425455 
L 240.013458 299.461818 
L 239.973059 301.498182 
L 239.907663 303.534545 
L 239.816226 305.570909 
L 239.697806 307.607273 
L 239.551571 309.643636 
L 239.37681 311.68 
L 239.172941 313.716364 
L 238.939513 315.752727 
L 238.676215 317.789091 
L 238.382879 319.825455 
L 238.059482 321.861818 
L 237.706152 323.898182 
L 237.323166 325.934545 
L 236.910951 327.970909 
L 236.470081 330.007273 
L 236.001278 332.043636 
L 235.505403 334.08 
z
" clip-path="url(#p19a3cd17e1)" style="fill: #1f77b4; fill-opacity: 0.3"/>
   </g>
   <g id="FillBetweenPolyCollection_3">
    <path d="M 307.961891 334.08 
L 272.538109 334.08 
L 272.137049 332.552727 
L 271.745154 331.025455 
L 271.36292 329.498182 
L 270.990785 327.970909 
L 270.629129 326.443636 
L 270.278268 324.916364 
L 269.93846 323.389091 
L 269.609901 321.861818 
L 269.292722 320.334545 
L 268.986996 318.807273 
L 268.692735 317.28 
L 268.409894 315.752727 
L 268.138368 314.225455 
L 267.877999 312.698182 
L 267.628576 311.170909 
L 267.389838 309.643636 
L 267.161477 308.116364 
L 266.943139 306.589091 
L 266.734432 305.061818 
L 266.534921 303.534545 
L 266.344141 302.007273 
L 266.161592 300.48 
L 265.986746 298.952727 
L 265.81905 297.425455 
L 265.657929 295.898182 
L 265.502791 294.370909 
L 265.353026 292.843636 
L 265.208013 291.316364 
L 265.067122 289.789091 
L 264.929716 288.261818 
L 264.795157 286.734545 
L 264.662806 285.207273 
L 264.532027 283.68 
L 264.402193 282.152727 
L 264.272684 280.625455 
L 264.142895 279.098182 
L 264.012237 277.570909 
L 263.88014 276.043636 
L 263.746059 274.516364 
L 263.609473 272.989091 
L 263.469893 271.461818 
L 263.326865 269.934545 
L 263.17997 268.407273 
L 263.028833 266.88 
L 262.873123 265.352727 
L 262.712557 263.825455 
L 262.546906 262.298182 
L 262.375998 260.770909 
L 262.19972 259.243636 
L 262.018023 257.716364 
L 261.830924 256.189091 
L 261.638511 254.661818 
L 261.440943 253.134545 
L 261.238455 251.607273 
L 261.03136 250.08 
L 260.820048 248.552727 
L 260.604989 247.025455 
L 260.386736 245.498182 
L 260.16592 243.970909 
L 259.943253 242.443636 
L 259.719526 240.916364 
L 259.495609 239.389091 
L 259.272443 237.861818 
L 259.051045 236.334545 
L 258.832496 234.807273 
L 258.617944 233.28 
L 258.408593 231.752727 
L 258.205698 230.225455 
L 258.010562 228.698182 
L 257.824526 227.170909 
L 257.648959 225.643636 
L 257.485256 224.116364 
L 257.334824 222.589091 
L 257.199073 221.061818 
L 257.079409 219.534545 
L 256.977224 218.007273 
L 256.893883 216.48 
L 256.830718 214.952727 
L 256.789013 213.425455 
L 256.77 211.898182 
L 256.774843 210.370909 
L 256.804632 208.843636 
L 256.860375 207.316364 
L 256.942983 205.789091 
L 257.053269 204.261818 
L 257.191937 202.734545 
L 257.359574 201.207273 
L 257.556644 199.68 
L 257.783486 198.152727 
L 258.040305 196.625455 
L 258.327172 195.098182 
L 258.64402 193.570909 
L 258.99064 192.043636 
L 259.366687 190.516364 
L 259.771674 188.989091 
L 260.204978 187.461818 
L 260.665841 185.934545 
L 261.153374 184.407273 
L 261.666562 182.88 
L 318.833438 182.88 
L 318.833438 182.88 
L 319.346626 184.407273 
L 319.834159 185.934545 
L 320.295022 187.461818 
L 320.728326 188.989091 
L 321.133313 190.516364 
L 321.50936 192.043636 
L 321.85598 193.570909 
L 322.172828 195.098182 
L 322.459695 196.625455 
L 322.716514 198.152727 
L 322.943356 199.68 
L 323.140426 201.207273 
L 323.308063 202.734545 
L 323.446731 204.261818 
L 323.557017 205.789091 
L 323.639625 207.316364 
L 323.695368 208.843636 
L 323.725157 210.370909 
L 323.73 211.898182 
L 323.710987 213.425455 
L 323.669282 214.952727 
L 323.606117 216.48 
L 323.522776 218.007273 
L 323.420591 219.534545 
L 323.300927 221.061818 
L 323.165176 222.589091 
L 323.014744 224.116364 
L 322.851041 225.643636 
L 322.675474 227.170909 
L 322.489438 228.698182 
L 322.294302 230.225455 
L 322.091407 231.752727 
L 321.882056 233.28 
L 321.667504 234.807273 
L 321.448955 236.334545 
L 321.227557 237.861818 
L 321.004391 239.389091 
L 320.780474 240.916364 
L 320.556747 242.443636 
L 320.33408 243.970909 
L 320.113264 245.498182 
L 319.895011 247.025455 
L 319.679952 248.552727 
L 319.46864 250.08 
L 319.261545 251.607273 
L 319.059057 253.134545 
L 318.861489 254.661818 
L 318.669076 256.189091 
L 318.481977 257.716364 
L 318.30028 259.243636 
L 318.124002 260.770909 
L 317.953094 262.298182 
L 317.787443 263.825455 
L 317.626877 265.352727 
L 317.471167 266.88 
L 317.32003 268.407273 
L 317.173135 269.934545 
L 317.030107 271.461818 
L 316.890527 272.989091 
L 316.753941 274.516364 
L 316.61986 276.043636 
L 316.487763 277.570909 
L 316.357105 279.098182 
L 316.227316 280.625455 
L 316.097807 282.152727 
L 315.967973 283.68 
L 315.837194 285.207273 
L 315.704843 286.734545 
L 315.570284 288.261818 
L 315.432878 289.789091 
L 315.291987 291.316364 
L 315.146974 292.843636 
L 314.997209 294.370909 
L 314.842071 295.898182 
L 314.68095 297.425455 
L 314.513254 298.952727 
L 314.338408 300.48 
L 314.155859 302.007273 
L 313.965079 303.534545 
L 313.765568 305.061818 
L 313.556861 306.589091 
L 313.338523 308.116364 
L 313.110162 309.643636 
L 312.871424 311.170909 
L 312.622001 312.698182 
L 312.361632 314.225455 
L 312.090106 315.752727 
L 311.807265 317.28 
L 311.513004 318.807273 
L 311.207278 320.334545 
L 310.890099 321.861818 
L 310.56154 323.389091 
L 310.221732 324.916364 
L 309.870871 326.443636 
L 309.509215 327.970909 
L 309.13708 329.498182 
L 308.754846 331.025455 
L 308.362951 332.552727 
L 307.961891 334.08 
z
" clip-path="url(#p19a3cd17e1)" style="fill: #1f77b4; fill-opacity: 0.3"/>
   </g>
   <g id="FillBetweenPolyCollection_4">
    <path d="M 399.279889 300.48 
L 348.620111 300.48 
L 347.97308 298.104242 
L 347.343646 295.728485 
L 346.733538 293.352727 
L 346.144423 290.97697 
L 345.577899 288.601212 
L 345.035486 286.225455 
L 344.518618 283.849697 
L 344.028636 281.473939 
L 343.566781 279.098182 
L 343.134186 276.722424 
L 342.731874 274.346667 
L 342.36075 271.970909 
L 342.021599 269.595152 
L 341.71508 267.219394 
L 341.441726 264.843636 
L 341.201941 262.467879 
L 340.995999 260.092121 
L 340.824042 257.716364 
L 340.686084 255.340606 
L 340.582008 252.964848 
L 340.511568 250.589091 
L 340.474396 248.213333 
L 340.47 245.837576 
L 340.497768 243.461818 
L 340.556975 241.086061 
L 340.646786 238.710303 
L 340.766261 236.334545 
L 340.914361 233.958788 
L 341.089955 231.58303 
L 341.291825 229.207273 
L 341.518673 226.831515 
L 341.769131 224.455758 
L 342.041763 222.08 
L 342.33508 219.704242 
L 342.647541 217.328485 
L 342.977564 214.952727 
L 343.323535 212.57697 
L 343.683813 210.201212 
L 344.056744 207.825455 
L 344.440661 205.449697 
L 344.8339 203.073939 
L 345.234802 200.698182 
L 345.641726 198.322424 
L 346.053052 195.946667 
L 346.467192 193.570909 
L 346.882596 191.195152 
L 347.297759 188.819394 
L 347.711229 186.443636 
L 348.121612 184.067879 
L 348.527578 181.692121 
L 348.927871 179.316364 
L 349.321309 176.940606 
L 349.706791 174.564848 
L 350.083305 172.189091 
L 350.449927 169.813333 
L 350.805829 167.437576 
L 351.150281 165.061818 
L 351.482654 162.686061 
L 351.80242 160.310303 
L 352.109158 157.934545 
L 352.402555 155.558788 
L 352.682403 153.18303 
L 352.948601 150.807273 
L 353.201157 148.431515 
L 353.440183 146.055758 
L 353.665897 143.68 
L 353.878619 141.304242 
L 354.078767 138.928485 
L 354.266855 136.552727 
L 354.443491 134.17697 
L 354.609365 131.801212 
L 354.765253 129.425455 
L 354.912003 127.049697 
L 355.050534 124.673939 
L 355.181825 122.298182 
L 355.30691 119.922424 
L 355.426867 117.546667 
L 355.542813 115.170909 
L 355.655893 112.795152 
L 355.767271 110.419394 
L 355.87812 108.043636 
L 355.989613 105.667879 
L 356.102915 103.292121 
L 356.21917 100.916364 
L 356.339495 98.540606 
L 356.464966 96.164848 
L 356.596615 93.789091 
L 356.735415 91.413333 
L 356.882278 89.037576 
L 357.038041 86.661818 
L 357.203464 84.286061 
L 357.37922 81.910303 
L 357.565893 79.534545 
L 357.76397 77.158788 
L 357.973838 74.78303 
L 358.195783 72.407273 
L 358.429986 70.031515 
L 358.676521 67.655758 
L 358.935359 65.28 
L 388.964641 65.28 
L 388.964641 65.28 
L 389.223479 67.655758 
L 389.470014 70.031515 
L 389.704217 72.407273 
L 389.926162 74.78303 
L 390.13603 77.158788 
L 390.334107 79.534545 
L 390.52078 81.910303 
L 390.696536 84.286061 
L 390.861959 86.661818 
L 391.017722 89.037576 
L 391.164585 91.413333 
L 391.303385 93.789091 
L 391.435034 96.164848 
L 391.560505 98.540606 
L 391.68083 100.916364 
L 391.797085 103.292121 
L 391.910387 105.667879 
L 392.02188 108.043636 
L 392.132729 110.419394 
L 392.244107 112.795152 
L 392.357187 115.170909 
L 392.473133 117.546667 
L 392.59309 119.922424 
L 392.718175 122.298182 
L 392.849466 124.673939 
L 392.987997 127.049697 
L 393.134747 129.425455 
L 393.290635 131.801212 
L 393.456509 134.17697 
L 393.633145 136.552727 
L 393.821233 138.928485 
L 394.021381 141.304242 
L 394.234103 143.68 
L 394.459817 146.055758 
L 394.698843 148.431515 
L 394.951399 150.807273 
L 395.217597 153.18303 
L 395.497445 155.558788 
L 395.790842 157.934545 
L 396.09758 160.310303 
L 396.417346 162.686061 
L 396.749719 165.061818 
L 397.094171 167.437576 
L 397.450073 169.813333 
L 397.816695 172.189091 
L 398.193209 174.564848 
L 398.578691 176.940606 
L 398.972129 179.316364 
L 399.372422 181.692121 
L 399.778388 184.067879 
L 400.188771 186.443636 
L 400.602241 188.819394 
L 401.017404 191.195152 
L 401.432808 193.570909 
L 401.846948 195.946667 
L 402.258274 198.322424 
L 402.665198 200.698182 
L 403.0661 203.073939 
L 403.459339 205.449697 
L 403.843256 207.825455 
L 404.216187 210.201212 
L 404.576465 212.57697 
L 404.922436 214.952727 
L 405.252459 217.328485 
L 405.56492 219.704242 
L 405.858237 222.08 
L 406.130869 224.455758 
L 406.381327 226.831515 
L 406.608175 229.207273 
L 406.810045 231.58303 
L 406.985639 233.958788 
L 407.133739 236.334545 
L 407.253214 238.710303 
L 407.343025 241.086061 
L 407.402232 243.461818 
L 407.43 245.837576 
L 407.425604 248.213333 
L 407.388432 250.589091 
L 407.317992 252.964848 
L 407.213916 255.340606 
L 407.075958 257.716364 
L 406.904001 260.092121 
L 406.698059 262.467879 
L 406.458274 264.843636 
L 406.18492 267.219394 
L 405.878401 269.595152 
L 405.53925 271.970909 
L 405.168126 274.346667 
L 404.765814 276.722424 
L 404.333219 279.098182 
L 403.871364 281.473939 
L 403.381382 283.849697 
L 402.864514 286.225455 
L 402.322101 288.601212 
L 401.755577 290.97697 
L 401.166462 293.352727 
L 400.556354 295.728485 
L 399.92692 298.104242 
L 399.279889 300.48 
z
" clip-path="url(#p19a3cd17e1)" style="fill: #1f77b4; fill-opacity: 0.3"/>
   </g>
   <g id="FillBetweenPolyCollection_5">
    <path d="M 472.403971 300.48 
L 442.896029 300.48 
L 442.731927 298.78303 
L 442.578709 297.086061 
L 442.435828 295.389091 
L 442.302635 293.692121 
L 442.178386 291.995152 
L 442.062243 290.298182 
L 441.953286 288.601212 
L 441.850516 286.904242 
L 441.752863 285.207273 
L 441.659197 283.510303 
L 441.568335 281.813333 
L 441.479053 280.116364 
L 441.390093 278.419394 
L 441.300177 276.722424 
L 441.208017 275.025455 
L 441.112323 273.328485 
L 441.011818 271.631515 
L 440.905246 269.934545 
L 440.791384 268.237576 
L 440.669054 266.540606 
L 440.537129 264.843636 
L 440.394545 263.146667 
L 440.240312 261.449697 
L 440.073518 259.752727 
L 439.893343 258.055758 
L 439.699058 256.358788 
L 439.49004 254.661818 
L 439.265771 252.964848 
L 439.025846 251.267879 
L 438.769976 249.570909 
L 438.497991 247.873939 
L 438.209843 246.17697 
L 437.905605 244.48 
L 437.585474 242.78303 
L 437.249766 241.086061 
L 436.898923 239.389091 
L 436.5335 237.692121 
L 436.154172 235.995152 
L 435.761722 234.298182 
L 435.357043 232.601212 
L 434.941129 230.904242 
L 434.51507 229.207273 
L 434.080047 227.510303 
L 433.637322 225.813333 
L 433.188235 224.116364 
L 432.734192 222.419394 
L 432.276662 220.722424 
L 431.817161 219.025455 
L 431.357253 217.328485 
L 430.898531 215.631515 
L 430.442617 213.934545 
L 429.991147 212.237576 
L 429.545767 210.540606 
L 429.108119 208.843636 
L 428.679836 207.146667 
L 428.262532 205.449697 
L 427.857796 203.752727 
L 427.467179 202.055758 
L 427.092193 200.358788 
L 426.734298 198.661818 
L 426.394898 196.964848 
L 426.075336 195.267879 
L 425.776886 193.570909 
L 425.500746 191.873939 
L 425.248039 190.17697 
L 425.019804 188.48 
L 424.816992 186.78303 
L 424.640468 185.086061 
L 424.491004 183.389091 
L 424.369278 181.692121 
L 424.275875 179.995152 
L 424.211281 178.298182 
L 424.175891 176.601212 
L 424.17 174.904242 
L 424.193812 173.207273 
L 424.247434 171.510303 
L 424.330884 169.813333 
L 424.444087 168.116364 
L 424.586882 166.419394 
L 424.759022 164.722424 
L 424.960176 163.025455 
L 425.189935 161.328485 
L 425.447812 159.631515 
L 425.733246 157.934545 
L 426.045609 156.237576 
L 426.384202 154.540606 
L 426.748266 152.843636 
L 427.13698 151.146667 
L 427.549469 149.449697 
L 427.984805 147.752727 
L 428.442009 146.055758 
L 428.920058 144.358788 
L 429.417887 142.661818 
L 429.934394 140.964848 
L 430.468438 139.267879 
L 431.01885 137.570909 
L 431.584432 135.873939 
L 432.163962 134.17697 
L 432.756196 132.48 
L 482.543804 132.48 
L 482.543804 132.48 
L 483.136038 134.17697 
L 483.715568 135.873939 
L 484.28115 137.570909 
L 484.831562 139.267879 
L 485.365606 140.964848 
L 485.882113 142.661818 
L 486.379942 144.358788 
L 486.857991 146.055758 
L 487.315195 147.752727 
L 487.750531 149.449697 
L 488.16302 151.146667 
L 488.551734 152.843636 
L 488.915798 154.540606 
L 489.254391 156.237576 
L 489.566754 157.934545 
L 489.852188 159.631515 
L 490.110065 161.328485 
L 490.339824 163.025455 
L 490.540978 164.722424 
L 490.713118 166.419394 
L 490.855913 168.116364 
L 490.969116 169.813333 
L 491.052566 171.510303 
L 491.106188 173.207273 
L 491.13 174.904242 
L 491.124109 176.601212 
L 491.088719 178.298182 
L 491.024125 179.995152 
L 490.930722 181.692121 
L 490.808996 183.389091 
L 490.659532 185.086061 
L 490.483008 186.78303 
L 490.280196 188.48 
L 490.051961 190.17697 
L 489.799254 191.873939 
L 489.523114 193.570909 
L 489.224664 195.267879 
L 488.905102 196.964848 
L 488.565702 198.661818 
L 488.207807 200.358788 
L 487.832821 202.055758 
L 487.442204 203.752727 
L 487.037468 205.449697 
L 486.620164 207.146667 
L 486.191881 208.843636 
L 485.754233 210.540606 
L 485.308853 212.237576 
L 484.857383 213.934545 
L 484.401469 215.631515 
L 483.942747 217.328485 
L 483.482839 219.025455 
L 483.023338 220.722424 
L 482.565808 222.419394 
L 482.111765 224.116364 
L 481.662678 225.813333 
L 481.219953 227.510303 
L 480.78493 229.207273 
L 480.358871 230.904242 
L 479.942957 232.601212 
L 479.538278 234.298182 
L 479.145828 235.995152 
L 478.7665 237.692121 
L 478.401077 239.389091 
L 478.050234 241.086061 
L 477.714526 242.78303 
L 477.394395 244.48 
L 477.090157 246.17697 
L 476.802009 247.873939 
L 476.530024 249.570909 
L 476.274154 251.267879 
L 476.034229 252.964848 
L 475.80996 254.661818 
L 475.600942 256.358788 
L 475.406657 258.055758 
L 475.226482 259.752727 
L 475.059688 261.449697 
L 474.905455 263.146667 
L 474.762871 264.843636 
L 474.630946 266.540606 
L 474.508616 268.237576 
L 474.394754 269.934545 
L 474.288182 271.631515 
L 474.187677 273.328485 
L 474.091983 275.025455 
L 473.999823 276.722424 
L 473.909907 278.419394 
L 473.820947 280.116364 
L 473.731665 281.813333 
L 473.640803 283.510303 
L 473.547137 285.207273 
L 473.449484 286.904242 
L 473.346714 288.601212 
L 473.237757 290.298182 
L 473.121614 291.995152 
L 472.997365 293.692121 
L 472.864172 295.389091 
L 472.721291 297.086061 
L 472.568073 298.78303 
L 472.403971 300.48 
z
" clip-path="url(#p19a3cd17e1)" style="fill: #1f77b4; fill-opacity: 0.3"/>
   </g>
   <g id="FillBetweenPolyCollection_6">
    <path d="M 563.804577 317.28 
L 518.895423 317.28 
L 518.27441 315.413333 
L 517.665551 313.546667 
L 517.069973 311.68 
L 516.488723 309.813333 
L 515.922762 307.946667 
L 515.372961 306.08 
L 514.840108 304.213333 
L 514.324898 302.346667 
L 513.827944 300.48 
L 513.349772 298.613333 
L 512.890828 296.746667 
L 512.451481 294.88 
L 512.03203 293.013333 
L 511.632704 291.146667 
L 511.253676 289.28 
L 510.89506 287.413333 
L 510.556924 285.546667 
L 510.239293 283.68 
L 509.942154 281.813333 
L 509.665465 279.946667 
L 509.409156 278.08 
L 509.173136 276.213333 
L 508.957296 274.346667 
L 508.76151 272.48 
L 508.585642 270.613333 
L 508.42954 268.746667 
L 508.293044 266.88 
L 508.175979 265.013333 
L 508.07816 263.146667 
L 507.999384 261.28 
L 507.939432 259.413333 
L 507.898065 257.546667 
L 507.875018 255.68 
L 507.87 253.813333 
L 507.88269 251.946667 
L 507.912731 250.08 
L 507.959728 248.213333 
L 508.023248 246.346667 
L 508.102811 244.48 
L 508.197896 242.613333 
L 508.307936 240.746667 
L 508.432316 238.88 
L 508.570381 237.013333 
L 508.72143 235.146667 
L 508.884723 233.28 
L 509.059488 231.413333 
L 509.24492 229.546667 
L 509.44019 227.68 
L 509.644453 225.813333 
L 509.856854 223.946667 
L 510.076537 222.08 
L 510.302653 220.213333 
L 510.534371 218.346667 
L 510.770886 216.48 
L 511.011427 214.613333 
L 511.255268 212.746667 
L 511.501737 210.88 
L 511.750223 209.013333 
L 512.000185 207.146667 
L 512.251154 205.28 
L 512.502745 203.413333 
L 512.754659 201.546667 
L 513.006684 199.68 
L 513.2587 197.813333 
L 513.510676 195.946667 
L 513.762676 194.08 
L 514.014848 192.213333 
L 514.267428 190.346667 
L 514.520732 188.48 
L 514.77515 186.613333 
L 515.03114 184.746667 
L 515.289221 182.88 
L 515.549961 181.013333 
L 515.81397 179.146667 
L 516.08189 177.28 
L 516.354384 175.413333 
L 516.632124 173.546667 
L 516.915783 171.68 
L 517.20602 169.813333 
L 517.503475 167.946667 
L 517.808755 166.08 
L 518.122426 164.213333 
L 518.445001 162.346667 
L 518.776938 160.48 
L 519.118627 158.613333 
L 519.470385 156.746667 
L 519.832452 154.88 
L 520.204985 153.013333 
L 520.588056 151.146667 
L 520.981647 149.28 
L 521.385652 147.413333 
L 521.799875 145.546667 
L 522.22403 143.68 
L 522.657746 141.813333 
L 523.100566 139.946667 
L 523.551952 138.08 
L 524.01129 136.213333 
L 524.477895 134.346667 
L 524.951015 132.48 
L 557.748985 132.48 
L 557.748985 132.48 
L 558.222105 134.346667 
L 558.68871 136.213333 
L 559.148048 138.08 
L 559.599434 139.946667 
L 560.042254 141.813333 
L 560.47597 143.68 
L 560.900125 145.546667 
L 561.314348 147.413333 
L 561.718353 149.28 
L 562.111944 151.146667 
L 562.495015 153.013333 
L 562.867548 154.88 
L 563.229615 156.746667 
L 563.581373 158.613333 
L 563.923062 160.48 
L 564.254999 162.346667 
L 564.577574 164.213333 
L 564.891245 166.08 
L 565.196525 167.946667 
L 565.49398 169.813333 
L 565.784217 171.68 
L 566.067876 173.546667 
L 566.345616 175.413333 
L 566.61811 177.28 
L 566.88603 179.146667 
L 567.150039 181.013333 
L 567.410779 182.88 
L 567.66886 184.746667 
L 567.92485 186.613333 
L 568.179268 188.48 
L 568.432572 190.346667 
L 568.685152 192.213333 
L 568.937324 194.08 
L 569.189324 195.946667 
L 569.4413 197.813333 
L 569.693316 199.68 
L 569.945341 201.546667 
L 570.197255 203.413333 
L 570.448846 205.28 
L 570.699815 207.146667 
L 570.949777 209.013333 
L 571.198263 210.88 
L 571.444732 212.746667 
L 571.688573 214.613333 
L 571.929114 216.48 
L 572.165629 218.346667 
L 572.397347 220.213333 
L 572.623463 222.08 
L 572.843146 223.946667 
L 573.055547 225.813333 
L 573.25981 227.68 
L 573.45508 229.546667 
L 573.640512 231.413333 
L 573.815277 233.28 
L 573.97857 235.146667 
L 574.129619 237.013333 
L 574.267684 238.88 
L 574.392064 240.746667 
L 574.502104 242.613333 
L 574.597189 244.48 
L 574.676752 246.346667 
L 574.740272 248.213333 
L 574.787269 250.08 
L 574.81731 251.946667 
L 574.83 253.813333 
L 574.824982 255.68 
L 574.801935 257.546667 
L 574.760568 259.413333 
L 574.700616 261.28 
L 574.62184 263.146667 
L 574.524021 265.013333 
L 574.406956 266.88 
L 574.27046 268.746667 
L 574.114358 270.613333 
L 573.93849 272.48 
L 573.742704 274.346667 
L 573.526864 276.213333 
L 573.290844 278.08 
L 573.034535 279.946667 
L 572.757846 281.813333 
L 572.460707 283.68 
L 572.143076 285.546667 
L 571.80494 287.413333 
L 571.446324 289.28 
L 571.067296 291.146667 
L 570.66797 293.013333 
L 570.248519 294.88 
L 569.809172 296.746667 
L 569.350228 298.613333 
L 568.872056 300.48 
L 568.375102 302.346667 
L 567.859892 304.213333 
L 567.327039 306.08 
L 566.777238 307.946667 
L 566.211277 309.813333 
L 565.630027 311.68 
L 565.034449 313.546667 
L 564.42559 315.413333 
L 563.804577 317.28 
z
" clip-path="url(#p19a3cd17e1)" style="fill: #1f77b4; fill-opacity: 0.3"/>
   </g>
   <g id="matplotlib.axis_1">
    <g id="xtick_1">
     <g id="line2d_1">
      <defs>
       <path id="m2e3dde7f5a" d="M 0 0 
L 0 3.5 
" style="stroke: #000000; stroke-width: 0.8"/>
      </defs>
      <g>
       <use xlink:href="#m2e3dde7f5a" x="122.85" y="384.48" style="stroke: #000000; stroke-width: 0.8"/>
      </g>
     </g>
     <g id="text_1">
      <!-- Arrow -->
      <g transform="translate(111.26625 397.55875) scale(0.08 -0.08)">
       <defs>
        <path id="DejaVuSans-41" d="M 2188 4044 
L 1331 1722 
L 3047 1722 
L 2188 4044 
z
M 1831 4666 
L 2547 4666 
L 4325 0 
L 3669 0 
L 3244 1197 
L 1141 1197 
L 716 0 
L 50 0 
L 1831 4666 
z
" transform="scale(0.015625)"/>
        <path id="DejaVuSans-72" d="M 2631 2963 
Q 2534 3019 2420 3045 
Q 2306 3072 2169 3072 
Q 1681 3072 1420 2755 
Q 1159 2438 1159 1844 
L 1159 0 
L 581 0 
L 581 3500 
L 1159 3500 
L 1159 2956 
Q 1341 3275 1631 3429 
Q 1922 3584 2338 3584 
Q 2397 3584 2469 3576 
Q 2541 3569 2628 3553 
L 2631 2963 
z
" transform="scale(0.015625)"/>
        <path id="DejaVuSans-6f" d="M 1959 3097 
Q 1497 3097 1228 2736 
Q 959 2375 959 1747 
Q 959 1119 1226 758 
Q 1494 397 1959 397 
Q 2419 397 2687 759 
Q 2956 1122 2956 1747 
Q 2956 2369 2687 2733 
Q 2419 3097 1959 3097 
z
M 1959 3584 
Q 2709 3584 3137 3096 
Q 3566 2609 3566 1747 
Q 3566 888 3137 398 
Q 2709 -91 1959 -91 
Q 1206 -91 779 398 
Q 353 888 353 1747 
Q 353 2609 779 3096 
Q 1206 3584 1959 3584 
z
" transform="scale(0.015625)"/>
        <path id="DejaVuSans-77" d="M 269 3500 
L 844 3500 
L 1563 769 
L 2278 3500 
L 2956 3500 
L 3675 769 
L 4391 3500 
L 4966 3500 
L 4050 0 
L 3372 0 
L 2619 2869 
L 1863 0 
L 1184 0 
L 269 3500 
z
" transform="scale(0.015625)"/>
       </defs>
       <use xlink:href="#DejaVuSans-41"/>
       <use xlink:href="#DejaVuSans-72" transform="translate(68.408203 0)"/>
       <use xlink:href="#DejaVuSans-72" transform="translate(107.771484 0)"/>
       <use xlink:href="#DejaVuSans-6f" transform="translate(146.634766 0)"/>
       <use xlink:href="#DejaVuSans-77" transform="translate(207.816406 0)"/>
      </g>
     </g>
    </g>
    <g id="xtick_2">
     <g id="line2d_2">
      <g>
       <use xlink:href="#m2e3dde7f5a" x="206.55" y="384.48" style="stroke: #000000; stroke-width: 0.8"/>
      </g>
     </g>
     <g id="text_2">
      <!-- Radar -->
      <g transform="translate(194.774375 397.55875) scale(0.08 -0.08)">
       <defs>
        <path id="DejaVuSans-52" d="M 2841 2188 
Q 3044 2119 3236 1894 
Q 3428 1669 3622 1275 
L 4263 0 
L 3584 0 
L 2988 1197 
Q 2756 1666 2539 1819 
Q 2322 1972 1947 1972 
L 1259 1972 
L 1259 0 
L 628 0 
L 628 4666 
L 2053 4666 
Q 2853 4666 3247 4331 
Q 3641 3997 3641 3322 
Q 3641 2881 3436 2590 
Q 3231 2300 2841 2188 
z
M 1259 4147 
L 1259 2491 
L 2053 2491 
Q 2509 2491 2742 2702 
Q 2975 2913 2975 3322 
Q 2975 3731 2742 3939 
Q 2509 4147 2053 4147 
L 1259 4147 
z
" transform="scale(0.015625)"/>
        <path id="DejaVuSans-61" d="M 2194 1759 
Q 1497 1759 1228 1600 
Q 959 1441 959 1056 
Q 959 750 1161 570 
Q 1363 391 1709 391 
Q 2188 391 2477 730 
Q 2766 1069 2766 1631 
L 2766 1759 
L 2194 1759 
z
M 3341 1997 
L 3341 0 
L 2766 0 
L 2766 531 
Q 2569 213 2275 61 
Q 1981 -91 1556 -91 
Q 1019 -91 701 211 
Q 384 513 384 1019 
Q 384 1609 779 1909 
Q 1175 2209 1959 2209 
L 2766 2209 
L 2766 2266 
Q 2766 2663 2505 2880 
Q 2244 3097 1772 3097 
Q 1472 3097 1187 3025 
Q 903 2953 641 2809 
L 641 3341 
Q 956 3463 1253 3523 
Q 1550 3584 1831 3584 
Q 2591 3584 2966 3190 
Q 3341 2797 3341 1997 
z
" transform="scale(0.015625)"/>
        <path id="DejaVuSans-64" d="M 2906 2969 
L 2906 4863 
L 3481 4863 
L 3481 0 
L 2906 0 
L 2906 525 
Q 2725 213 2448 61 
Q 2172 -91 1784 -91 
Q 1150 -91 751 415 
Q 353 922 353 1747 
Q 353 2572 751 3078 
Q 1150 3584 1784 3584 
Q 2172 3584 2448 3432 
Q 2725 3281 2906 2969 
z
M 947 1747 
Q 947 1113 1208 752 
Q 1469 391 1925 391 
Q 2381 391 2643 752 
Q 2906 1113 2906 1747 
Q 2906 2381 2643 2742 
Q 2381 3103 1925 3103 
Q 1469 3103 1208 2742 
Q 947 2381 947 1747 
z
" transform="scale(0.015625)"/>
       </defs>
       <use xlink:href="#DejaVuSans-52"/>
       <use xlink:href="#DejaVuSans-61" transform="translate(67.232422 0)"/>
       <use xlink:href="#DejaVuSans-64" transform="translate(128.511719 0)"/>
       <use xlink:href="#DejaVuSans-61" transform="translate(191.988281 0)"/>
       <use xlink:href="#DejaVuSans-72" transform="translate(253.267578 0)"/>
      </g>
     </g>
    </g>
    <g id="xtick_3">
     <g id="line2d_3">
      <g>
       <use xlink:href="#m2e3dde7f5a" x="290.25" y="384.48" style="stroke: #000000; stroke-width: 0.8"/>
      </g>
     </g>
     <g id="text_3">
      <!-- Lights -->
      <g transform="translate(278.18375 397.55875) scale(0.08 -0.08)">
       <defs>
        <path id="DejaVuSans-4c" d="M 628 4666 
L 1259 4666 
L 1259 531 
L 3531 531 
L 3531 0 
L 628 0 
L 628 4666 
z
" transform="scale(0.015625)"/>
        <path id="DejaVuSans-69" d="M 603 3500 
L 1178 3500 
L 1178 0 
L 603 0 
L 603 3500 
z
M 603 4863 
L 1178 4863 
L 1178 4134 
L 603 4134 
L 603 4863 
z
" transform="scale(0.015625)"/>
        <path id="DejaVuSans-67" d="M 2906 1791 
Q 2906 2416 2648 2759 
Q 2391 3103 1925 3103 
Q 1463 3103 1205 2759 
Q 947 2416 947 1791 
Q 947 1169 1205 825 
Q 1463 481 1925 481 
Q 2391 481 2648 825 
Q 2906 1169 2906 1791 
z
M 3481 434 
Q 3481 -459 3084 -895 
Q 2688 -1331 1869 -1331 
Q 1566 -1331 1297 -1286 
Q 1028 -1241 775 -1147 
L 775 -588 
Q 1028 -725 1275 -790 
Q 1522 -856 1778 -856 
Q 2344 -856 2625 -561 
Q 2906 -266 2906 331 
L 2906 616 
Q 2728 306 2450 153 
Q 2172 0 1784 0 
Q 1141 0 747 490 
Q 353 981 353 1791 
Q 353 2603 747 3093 
Q 1141 3584 1784 3584 
Q 2172 3584 2450 3431 
Q 2728 3278 2906 2969 
L 2906 3500 
L 3481 3500 
L 3481 434 
z
" transform="scale(0.015625)"/>
        <path id="DejaVuSans-68" d="M 3513 2113 
L 3513 0 
L 2938 0 
L 2938 2094 
Q 2938 2591 2744 2837 
Q 2550 3084 2163 3084 
Q 1697 3084 1428 2787 
Q 1159 2491 1159 1978 
L 1159 0 
L 581 0 
L 581 4863 
L 1159 4863 
L 1159 2956 
Q 1366 3272 1645 3428 
Q 1925 3584 2291 3584 
Q 2894 3584 3203 3211 
Q 3513 2838 3513 2113 
z
" transform="scale(0.015625)"/>
        <path id="DejaVuSans-74" d="M 1172 4494 
L 1172 3500 
L 2356 3500 
L 2356 3053 
L 1172 3053 
L 1172 1153 
Q 1172 725 1289 603 
Q 1406 481 1766 481 
L 2356 481 
L 2356 0 
L 1766 0 
Q 1100 0 847 248 
Q 594 497 594 1153 
L 594 3053 
L 172 3053 
L 172 3500 
L 594 3500 
L 594 4494 
L 1172 4494 
z
" transform="scale(0.015625)"/>
        <path id="DejaVuSans-73" d="M 2834 3397 
L 2834 2853 
Q 2591 2978 2328 3040 
Q 2066 3103 1784 3103 
Q 1356 3103 1142 2972 
Q 928 2841 928 2578 
Q 928 2378 1081 2264 
Q 1234 2150 1697 2047 
L 1894 2003 
Q 2506 1872 2764 1633 
Q 3022 1394 3022 966 
Q 3022 478 2636 193 
Q 2250 -91 1575 -91 
Q 1294 -91 989 -36 
Q 684 19 347 128 
L 347 722 
Q 666 556 975 473 
Q 1284 391 1588 391 
Q 1994 391 2212 530 
Q 2431 669 2431 922 
Q 2431 1156 2273 1281 
Q 2116 1406 1581 1522 
L 1381 1569 
Q 847 1681 609 1914 
Q 372 2147 372 2553 
Q 372 3047 722 3315 
Q 1072 3584 1716 3584 
Q 2034 3584 2315 3537 
Q 2597 3491 2834 3397 
z
" transform="scale(0.015625)"/>
       </defs>
       <use xlink:href="#DejaVuSans-4c"/>
       <use xlink:href="#DejaVuSans-69" transform="translate(55.712891 0)"/>
       <use xlink:href="#DejaVuSans-67" transform="translate(83.496094 0)"/>
       <use xlink:href="#DejaVuSans-68" transform="translate(146.972656 0)"/>
       <use xlink:href="#DejaVuSans-74" transform="translate(210.351562 0)"/>
       <use xlink:href="#DejaVuSans-73" transform="translate(249.560547 0)"/>
      </g>
     </g>
    </g>
    <g id="xtick_4">
     <g id="line2d_4">
      <g>
       <use xlink:href="#m2e3dde7f5a" x="373.95" y="384.48" style="stroke: #000000; stroke-width: 0.8"/>
      </g>
     </g>
     <g id="text_4">
      <!-- Arrow and Radar -->
      <g transform="translate(340.5225 397.55875) scale(0.08 -0.08)">
       <defs>
        <path id="DejaVuSans-20" transform="scale(0.015625)"/>
        <path id="DejaVuSans-6e" d="M 3513 2113 
L 3513 0 
L 2938 0 
L 2938 2094 
Q 2938 2591 2744 2837 
Q 2550 3084 2163 3084 
Q 1697 3084 1428 2787 
Q 1159 2491 1159 1978 
L 1159 0 
L 581 0 
L 581 3500 
L 1159 3500 
L 1159 2956 
Q 1366 3272 1645 3428 
Q 1925 3584 2291 3584 
Q 2894 3584 3203 3211 
Q 3513 2838 3513 2113 
z
" transform="scale(0.015625)"/>
       </defs>
       <use xlink:href="#DejaVuSans-41"/>
       <use xlink:href="#DejaVuSans-72" transform="translate(68.408203 0)"/>
       <use xlink:href="#DejaVuSans-72" transform="translate(107.771484 0)"/>
       <use xlink:href="#DejaVuSans-6f" transform="translate(146.634766 0)"/>
       <use xlink:href="#DejaVuSans-77" transform="translate(207.816406 0)"/>
       <use xlink:href="#DejaVuSans-20" transform="translate(289.603516 0)"/>
       <use xlink:href="#DejaVuSans-61" transform="translate(321.390625 0)"/>
       <use xlink:href="#DejaVuSans-6e" transform="translate(382.669922 0)"/>
       <use xlink:href="#DejaVuSans-64" transform="translate(446.048828 0)"/>
       <use xlink:href="#DejaVuSans-20" transform="translate(509.525391 0)"/>
       <use xlink:href="#DejaVuSans-52" transform="translate(541.3125 0)"/>
       <use xlink:href="#DejaVuSans-61" transform="translate(608.544922 0)"/>
       <use xlink:href="#DejaVuSans-64" transform="translate(669.824219 0)"/>
       <use xlink:href="#DejaVuSans-61" transform="translate(733.300781 0)"/>
       <use xlink:href="#DejaVuSans-72" transform="translate(794.580078 0)"/>
      </g>
     </g>
    </g>
    <g id="xtick_5">
     <g id="line2d_5">
      <g>
       <use xlink:href="#m2e3dde7f5a" x="457.65" y="384.48" style="stroke: #000000; stroke-width: 0.8"/>
      </g>
     </g>
     <g id="text_5">
      <!-- Arrow and Lights -->
      <g transform="translate(423.931875 397.55875) scale(0.08 -0.08)">
       <use xlink:href="#DejaVuSans-41"/>
       <use xlink:href="#DejaVuSans-72" transform="translate(68.408203 0)"/>
       <use xlink:href="#DejaVuSans-72" transform="translate(107.771484 0)"/>
       <use xlink:href="#DejaVuSans-6f" transform="translate(146.634766 0)"/>
       <use xlink:href="#DejaVuSans-77" transform="translate(207.816406 0)"/>
       <use xlink:href="#DejaVuSans-20" transform="translate(289.603516 0)"/>
       <use xlink:href="#DejaVuSans-61" transform="translate(321.390625 0)"/>
       <use xlink:href="#DejaVuSans-6e" transform="translate(382.669922 0)"/>
       <use xlink:href="#DejaVuSans-64" transform="translate(446.048828 0)"/>
       <use xlink:href="#DejaVuSans-20" transform="translate(509.525391 0)"/>
       <use xlink:href="#DejaVuSans-4c" transform="translate(541.3125 0)"/>
       <use xlink:href="#DejaVuSans-69" transform="translate(597.025391 0)"/>
       <use xlink:href="#DejaVuSans-67" transform="translate(624.808594 0)"/>
       <use xlink:href="#DejaVuSans-68" transform="translate(688.285156 0)"/>
       <use xlink:href="#DejaVuSans-74" transform="translate(751.664062 0)"/>
       <use xlink:href="#DejaVuSans-73" transform="translate(790.873047 0)"/>
      </g>
     </g>
    </g>
    <g id="xtick_6">
     <g id="line2d_6">
      <g>
       <use xlink:href="#m2e3dde7f5a" x="541.35" y="384.48" style="stroke: #000000; stroke-width: 0.8"/>
      </g>
     </g>
     <g id="text_6">
      <!-- Lights and Radar -->
      <g transform="translate(507.44 397.55875) scale(0.08 -0.08)">
       <use xlink:href="#DejaVuSans-4c"/>
       <use xlink:href="#DejaVuSans-69" transform="translate(55.712891 0)"/>
       <use xlink:href="#DejaVuSans-67" transform="translate(83.496094 0)"/>
       <use xlink:href="#DejaVuSans-68" transform="translate(146.972656 0)"/>
       <use xlink:href="#DejaVuSans-74" transform="translate(210.351562 0)"/>
       <use xlink:href="#DejaVuSans-73" transform="translate(249.560547 0)"/>
       <use xlink:href="#DejaVuSans-20" transform="translate(301.660156 0)"/>
       <use xlink:href="#DejaVuSans-61" transform="translate(333.447266 0)"/>
       <use xlink:href="#DejaVuSans-6e" transform="translate(394.726562 0)"/>
       <use xlink:href="#DejaVuSans-64" transform="translate(458.105469 0)"/>
       <use xlink:href="#DejaVuSans-20" transform="translate(521.582031 0)"/>
       <use xlink:href="#DejaVuSans-52" transform="translate(553.369141 0)"/>
       <use xlink:href="#DejaVuSans-61" transform="translate(620.601562 0)"/>
       <use xlink:href="#DejaVuSans-64" transform="translate(681.880859 0)"/>
       <use xlink:href="#DejaVuSans-61" transform="translate(745.357422 0)"/>
       <use xlink:href="#DejaVuSans-72" transform="translate(806.636719 0)"/>
      </g>
     </g>
    </g>
    <g id="text_7">
     <!-- Visualization -->
     <g transform="translate(300.521875 416.820938) scale(0.1 -0.1)">
      <defs>
       <path id="DejaVuSans-56" d="M 1831 0 
L 50 4666 
L 709 4666 
L 2188 738 
L 3669 4666 
L 4325 4666 
L 2547 0 
L 1831 0 
z
" transform="scale(0.015625)"/>
       <path id="DejaVuSans-75" d="M 544 1381 
L 544 3500 
L 1119 3500 
L 1119 1403 
Q 1119 906 1312 657 
Q 1506 409 1894 409 
Q 2359 409 2629 706 
Q 2900 1003 2900 1516 
L 2900 3500 
L 3475 3500 
L 3475 0 
L 2900 0 
L 2900 538 
Q 2691 219 2414 64 
Q 2138 -91 1772 -91 
Q 1169 -91 856 284 
Q 544 659 544 1381 
z
M 1991 3584 
L 1991 3584 
z
" transform="scale(0.015625)"/>
       <path id="DejaVuSans-6c" d="M 603 4863 
L 1178 4863 
L 1178 0 
L 603 0 
L 603 4863 
z
" transform="scale(0.015625)"/>
       <path id="DejaVuSans-7a" d="M 353 3500 
L 3084 3500 
L 3084 2975 
L 922 459 
L 3084 459 
L 3084 0 
L 275 0 
L 275 525 
L 2438 3041 
L 353 3041 
L 353 3500 
z
" transform="scale(0.015625)"/>
      </defs>
      <use xlink:href="#DejaVuSans-56"/>
      <use xlink:href="#DejaVuSans-69" transform="translate(66.158203 0)"/>
      <use xlink:href="#DejaVuSans-73" transform="translate(93.941406 0)"/>
      <use xlink:href="#DejaVuSans-75" transform="translate(146.041016 0)"/>
      <use xlink:href="#DejaVuSans-61" transform="translate(209.419922 0)"/>
      <use xlink:href="#DejaVuSans-6c" transform="translate(270.699219 0)"/>
      <use xlink:href="#DejaVuSans-69" transform="translate(298.482422 0)"/>
      <use xlink:href="#DejaVuSans-7a" transform="translate(326.265625 0)"/>
      <use xlink:href="#DejaVuSans-61" transform="translate(378.755859 0)"/>
      <use xlink:href="#DejaVuSans-74" transform="translate(440.035156 0)"/>
      <use xlink:href="#DejaVuSans-69" transform="translate(479.244141 0)"/>
      <use xlink:href="#DejaVuSans-6f" transform="translate(507.027344 0)"/>
      <use xlink:href="#DejaVuSans-6e" transform="translate(568.208984 0)"/>
     </g>
    </g>
   </g>
   <g id="matplotlib.axis_2">
    <g id="ytick_1">
     <g id="line2d_7">
      <defs>
       <path id="mc8b0cb7bd0" d="M 0 0 
L -3.5 0 
" style="stroke: #000000; stroke-width: 0.8"/>
      </defs>
      <g>
       <use xlink:href="#mc8b0cb7bd0" x="81" y="384.48" style="stroke: #000000; stroke-width: 0.8"/>
      </g>
     </g>
     <g id="text_8">
      <!-- 0 -->
      <g transform="translate(67.6375 388.279219) scale(0.1 -0.1)">
       <defs>
        <path id="DejaVuSans-30" d="M 2034 4250 
Q 1547 4250 1301 3770 
Q 1056 3291 1056 2328 
Q 1056 1369 1301 889 
Q 1547 409 2034 409 
Q 2525 409 2770 889 
Q 3016 1369 3016 2328 
Q 3016 3291 2770 3770 
Q 2525 4250 2034 4250 
z
M 2034 4750 
Q 2819 4750 3233 4129 
Q 3647 3509 3647 2328 
Q 3647 1150 3233 529 
Q 2819 -91 2034 -91 
Q 1250 -91 836 529 
Q 422 1150 422 2328 
Q 422 3509 836 4129 
Q 1250 4750 2034 4750 
z
" transform="scale(0.015625)"/>
       </defs>
       <use xlink:href="#DejaVuSans-30"/>
      </g>
     </g>
    </g>
    <g id="ytick_2">
     <g id="line2d_8">
      <g>
       <use xlink:href="#mc8b0cb7bd0" x="81" y="334.08" style="stroke: #000000; stroke-width: 0.8"/>
      </g>
     </g>
     <g id="text_9">
      <!-- 1 -->
      <g transform="translate(67.6375 337.879219) scale(0.1 -0.1)">
       <defs>
        <path id="DejaVuSans-31" d="M 794 531 
L 1825 531 
L 1825 4091 
L 703 3866 
L 703 4441 
L 1819 4666 
L 2450 4666 
L 2450 531 
L 3481 531 
L 3481 0 
L 794 0 
L 794 531 
z
" transform="scale(0.015625)"/>
       </defs>
       <use xlink:href="#DejaVuSans-31"/>
      </g>
     </g>
    </g>
    <g id="ytick_3">
     <g id="line2d_9">
      <g>
       <use xlink:href="#mc8b0cb7bd0" x="81" y="283.68" style="stroke: #000000; stroke-width: 0.8"/>
      </g>
     </g>
     <g id="text_10">
      <!-- 2 -->
      <g transform="translate(67.6375 287.479219) scale(0.1 -0.1)">
       <defs>
        <path id="DejaVuSans-32" d="M 1228 531 
L 3431 531 
L 3431 0 
L 469 0 
L 469 531 
Q 828 903 1448 1529 
Q 2069 2156 2228 2338 
Q 2531 2678 2651 2914 
Q 2772 3150 2772 3378 
Q 2772 3750 2511 3984 
Q 2250 4219 1831 4219 
Q 1534 4219 1204 4116 
Q 875 4013 500 3803 
L 500 4441 
Q 881 4594 1212 4672 
Q 1544 4750 1819 4750 
Q 2544 4750 2975 4387 
Q 3406 4025 3406 3419 
Q 3406 3131 3298 2873 
Q 3191 2616 2906 2266 
Q 2828 2175 2409 1742 
Q 1991 1309 1228 531 
z
" transform="scale(0.015625)"/>
       </defs>
       <use xlink:href="#DejaVuSans-32"/>
      </g>
     </g>
    </g>
    <g id="ytick_4">
     <g id="line2d_10">
      <g>
       <use xlink:href="#mc8b0cb7bd0" x="81" y="233.28" style="stroke: #000000; stroke-width: 0.8"/>
      </g>
     </g>
     <g id="text_11">
      <!-- 3 -->
      <g transform="translate(67.6375 237.079219) scale(0.1 -0.1)">
       <defs>
        <path id="DejaVuSans-33" d="M 2597 2516 
Q 3050 2419 3304 2112 
Q 3559 1806 3559 1356 
Q 3559 666 3084 287 
Q 2609 -91 1734 -91 
Q 1441 -91 1130 -33 
Q 819 25 488 141 
L 488 750 
Q 750 597 1062 519 
Q 1375 441 1716 441 
Q 2309 441 2620 675 
Q 2931 909 2931 1356 
Q 2931 1769 2642 2001 
Q 2353 2234 1838 2234 
L 1294 2234 
L 1294 2753 
L 1863 2753 
Q 2328 2753 2575 2939 
Q 2822 3125 2822 3475 
Q 2822 3834 2567 4026 
Q 2313 4219 1838 4219 
Q 1578 4219 1281 4162 
Q 984 4106 628 3988 
L 628 4550 
Q 988 4650 1302 4700 
Q 1616 4750 1894 4750 
Q 2613 4750 3031 4423 
Q 3450 4097 3450 3541 
Q 3450 3153 3228 2886 
Q 3006 2619 2597 2516 
z
" transform="scale(0.015625)"/>
       </defs>
       <use xlink:href="#DejaVuSans-33"/>
      </g>
     </g>
    </g>
    <g id="ytick_5">
     <g id="line2d_11">
      <g>
       <use xlink:href="#mc8b0cb7bd0" x="81" y="182.88" style="stroke: #000000; stroke-width: 0.8"/>
      </g>
     </g>
     <g id="text_12">
      <!-- 4 -->
      <g transform="translate(67.6375 186.679219) scale(0.1 -0.1)">
       <defs>
        <path id="DejaVuSans-34" d="M 2419 4116 
L 825 1625 
L 2419 1625 
L 2419 4116 
z
M 2253 4666 
L 3047 4666 
L 3047 1625 
L 3713 1625 
L 3713 1100 
L 3047 1100 
L 3047 0 
L 2419 0 
L 2419 1100 
L 313 1100 
L 313 1709 
L 2253 4666 
z
" transform="scale(0.015625)"/>
       </defs>
       <use xlink:href="#DejaVuSans-34"/>
      </g>
     </g>
    </g>
    <g id="ytick_6">
     <g id="line2d_12">
      <g>
       <use xlink:href="#mc8b0cb7bd0" x="81" y="132.48" style="stroke: #000000; stroke-width: 0.8"/>
      </g>
     </g>
     <g id="text_13">
      <!-- 5 -->
      <g transform="translate(67.6375 136.279219) scale(0.1 -0.1)">
       <defs>
        <path id="DejaVuSans-35" d="M 691 4666 
L 3169 4666 
L 3169 4134 
L 1269 4134 
L 1269 2991 
Q 1406 3038 1543 3061 
Q 1681 3084 1819 3084 
Q 2600 3084 3056 2656 
Q 3513 2228 3513 1497 
Q 3513 744 3044 326 
Q 2575 -91 1722 -91 
Q 1428 -91 1123 -41 
Q 819 9 494 109 
L 494 744 
Q 775 591 1075 516 
Q 1375 441 1709 441 
Q 2250 441 2565 725 
Q 2881 1009 2881 1497 
Q 2881 1984 2565 2268 
Q 2250 2553 1709 2553 
Q 1456 2553 1204 2497 
Q 953 2441 691 2322 
L 691 4666 
z
" transform="scale(0.015625)"/>
       </defs>
       <use xlink:href="#DejaVuSans-35"/>
      </g>
     </g>
    </g>
    <g id="ytick_7">
     <g id="line2d_13">
      <g>
       <use xlink:href="#mc8b0cb7bd0" x="81" y="82.08" style="stroke: #000000; stroke-width: 0.8"/>
      </g>
     </g>
     <g id="text_14">
      <!-- 6 -->
      <g transform="translate(67.6375 85.879219) scale(0.1 -0.1)">
       <defs>
        <path id="DejaVuSans-36" d="M 2113 2584 
Q 1688 2584 1439 2293 
Q 1191 2003 1191 1497 
Q 1191 994 1439 701 
Q 1688 409 2113 409 
Q 2538 409 2786 701 
Q 3034 994 3034 1497 
Q 3034 2003 2786 2293 
Q 2538 2584 2113 2584 
z
M 3366 4563 
L 3366 3988 
Q 3128 4100 2886 4159 
Q 2644 4219 2406 4219 
Q 1781 4219 1451 3797 
Q 1122 3375 1075 2522 
Q 1259 2794 1537 2939 
Q 1816 3084 2150 3084 
Q 2853 3084 3261 2657 
Q 3669 2231 3669 1497 
Q 3669 778 3244 343 
Q 2819 -91 2113 -91 
Q 1303 -91 875 529 
Q 447 1150 447 2328 
Q 447 3434 972 4092 
Q 1497 4750 2381 4750 
Q 2619 4750 2861 4703 
Q 3103 4656 3366 4563 
z
" transform="scale(0.015625)"/>
       </defs>
       <use xlink:href="#DejaVuSans-36"/>
      </g>
     </g>
    </g>
    <g id="text_15">
     <!-- Visual Load -->
     <g transform="translate(55.557812 246.668594) rotate(-90) scale(0.1 -0.1)">
      <use xlink:href="#DejaVuSans-56"/>
      <use xlink:href="#DejaVuSans-69" transform="translate(66.158203 0)"/>
      <use xlink:href="#DejaVuSans-73" transform="translate(93.941406 0)"/>
      <use xlink:href="#DejaVuSans-75" transform="translate(146.041016 0)"/>
      <use xlink:href="#DejaVuSans-61" transform="translate(209.419922 0)"/>
      <use xlink:href="#DejaVuSans-6c" transform="translate(270.699219 0)"/>
      <use xlink:href="#DejaVuSans-20" transform="translate(298.482422 0)"/>
      <use xlink:href="#DejaVuSans-4c" transform="translate(330.269531 0)"/>
      <use xlink:href="#DejaVuSans-6f" transform="translate(384.232422 0)"/>
      <use xlink:href="#DejaVuSans-61" transform="translate(445.414062 0)"/>
      <use xlink:href="#DejaVuSans-64" transform="translate(506.693359 0)"/>
     </g>
    </g>
   </g>
   <g id="LineCollection_1">
    <path d="M 106.11 82.08 
L 139.59 82.08 
" clip-path="url(#p19a3cd17e1)" style="fill: none; stroke: #1f77b4; stroke-width: 1.5"/>
    <path d="M 189.81 132.48 
L 223.29 132.48 
" clip-path="url(#p19a3cd17e1)" style="fill: none; stroke: #1f77b4; stroke-width: 1.5"/>
    <path d="M 273.51 182.88 
L 306.99 182.88 
" clip-path="url(#p19a3cd17e1)" style="fill: none; stroke: #1f77b4; stroke-width: 1.5"/>
    <path d="M 357.21 65.28 
L 390.69 65.28 
" clip-path="url(#p19a3cd17e1)" style="fill: none; stroke: #1f77b4; stroke-width: 1.5"/>
    <path d="M 440.91 132.48 
L 474.39 132.48 
" clip-path="url(#p19a3cd17e1)" style="fill: none; stroke: #1f77b4; stroke-width: 1.5"/>
    <path d="M 524.61 132.48 
L 558.09 132.48 
" clip-path="url(#p19a3cd17e1)" style="fill: none; stroke: #1f77b4; stroke-width: 1.5"/>
   </g>
   <g id="LineCollection_2">
    <path d="M 106.11 334.08 
L 139.59 334.08 
" clip-path="url(#p19a3cd17e1)" style="fill: none; stroke: #1f77b4; stroke-width: 1.5"/>
    <path d="M 189.81 334.08 
L 223.29 334.08 
" clip-path="url(#p19a3cd17e1)" style="fill: none; stroke: #1f77b4; stroke-width: 1.5"/>
    <path d="M 273.51 334.08 
L 306.99 334.08 
" clip-path="url(#p19a3cd17e1)" style="fill: none; stroke: #1f77b4; stroke-width: 1.5"/>
    <path d="M 357.21 300.48 
L 390.69 300.48 
" clip-path="url(#p19a3cd17e1)" style="fill: none; stroke: #1f77b4; stroke-width: 1.5"/>
    <path d="M 440.91 300.48 
L 474.39 300.48 
" clip-path="url(#p19a3cd17e1)" style="fill: none; stroke: #1f77b4; stroke-width: 1.5"/>
    <path d="M 524.61 317.28 
L 558.09 317.28 
" clip-path="url(#p19a3cd17e1)" style="fill: none; stroke: #1f77b4; stroke-width: 1.5"/>
   </g>
   <g id="LineCollection_3">
    <path d="M 122.85 334.08 
L 122.85 82.08 
" clip-path="url(#p19a3cd17e1)" style="fill: none; stroke: #1f77b4; stroke-width: 1.5"/>
    <path d="M 206.55 334.08 
L 206.55 132.48 
" clip-path="url(#p19a3cd17e1)" style="fill: none; stroke: #1f77b4; stroke-width: 1.5"/>
    <path d="M 290.25 334.08 
L 290.25 182.88 
" clip-path="url(#p19a3cd17e1)" style="fill: none; stroke: #1f77b4; stroke-width: 1.5"/>
    <path d="M 373.95 300.48 
L 373.95 65.28 
" clip-path="url(#p19a3cd17e1)" style="fill: none; stroke: #1f77b4; stroke-width: 1.5"/>
    <path d="M 457.65 300.48 
L 457.65 132.48 
" clip-path="url(#p19a3cd17e1)" style="fill: none; stroke: #1f77b4; stroke-width: 1.5"/>
    <path d="M 541.35 317.28 
L 541.35 132.48 
" clip-path="url(#p19a3cd17e1)" style="fill: none; stroke: #1f77b4; stroke-width: 1.5"/>
   </g>
   <g id="patch_3">
    <path d="M 110.295 266.88 
L 135.405 266.88 
L 135.405 199.68 
L 110.295 199.68 
L 110.295 266.88 
z
" clip-path="url(#p19a3cd17e1)" style="fill: #add8e6; stroke: #000000; stroke-linejoin: miter"/>
   </g>
   <g id="line2d_14">
    <path d="M 122.85 266.88 
L 122.85 334.08 
" clip-path="url(#p19a3cd17e1)" style="fill: none; stroke: #000000; stroke-linecap: square"/>
   </g>
   <g id="line2d_15">
    <path d="M 122.85 199.68 
L 122.85 199.68 
" clip-path="url(#p19a3cd17e1)" style="fill: none; stroke: #000000; stroke-linecap: square"/>
   </g>
   <g id="line2d_16">
    <path d="M 116.5725 334.08 
L 129.1275 334.08 
" clip-path="url(#p19a3cd17e1)" style="fill: none; stroke: #000000; stroke-linecap: square"/>
   </g>
   <g id="line2d_17">
    <path d="M 116.5725 199.68 
L 129.1275 199.68 
" clip-path="url(#p19a3cd17e1)" style="fill: none; stroke: #000000; stroke-linecap: square"/>
   </g>
   <g id="line2d_18">
    <defs>
     <path id="ma9219cca00" d="M 0 2 
C 0.530406 2 1.03916 1.789267 1.414214 1.414214 
C 1.789267 1.03916 2 0.530406 2 0 
C 2 -0.530406 1.789267 -1.03916 1.414214 -1.414214 
C 1.03916 -1.789267 0.530406 -2 0 -2 
C -0.530406 -2 -1.03916 -1.789267 -1.414214 -1.414214 
C -1.789267 -1.03916 -2 -0.530406 -2 0 
C -2 0.530406 -1.789267 1.03916 -1.414214 1.414214 
C -1.03916 1.789267 -0.530406 2 0 2 
z
" style="stroke: #000000"/>
    </defs>
    <g clip-path="url(#p19a3cd17e1)">
     <use xlink:href="#ma9219cca00" x="122.85" y="82.08" style="fill-opacity: 0; stroke: #000000"/>
    </g>
   </g>
   <g id="patch_4">
    <path d="M 193.995 317.28 
L 219.105 317.28 
L 219.105 199.68 
L 193.995 199.68 
L 193.995 317.28 
z
" clip-path="url(#p19a3cd17e1)" style="fill: #add8e6; stroke: #000000; stroke-linejoin: miter"/>
   </g>
   <g id="line2d_19">
    <path d="M 206.55 317.28 
L 206.55 334.08 
" clip-path="url(#p19a3cd17e1)" style="fill: none; stroke: #000000; stroke-linecap: square"/>
   </g>
   <g id="line2d_20">
    <path d="M 206.55 199.68 
L 206.55 132.48 
" clip-path="url(#p19a3cd17e1)" style="fill: none; stroke: #000000; stroke-linecap: square"/>
   </g>
   <g id="line2d_21">
    <path d="M 200.2725 334.08 
L 212.8275 334.08 
" clip-path="url(#p19a3cd17e1)" style="fill: none; stroke: #000000; stroke-linecap: square"/>
   </g>
   <g id="line2d_22">
    <path d="M 200.2725 132.48 
L 212.8275 132.48 
" clip-path="url(#p19a3cd17e1)" style="fill: none; stroke: #000000; stroke-linecap: square"/>
   </g>
   <g id="line2d_23"/>
   <g id="patch_5">
    <path d="M 277.695 283.68 
L 302.805 283.68 
L 302.805 199.68 
L 277.695 199.68 
L 277.695 283.68 
z
" clip-path="url(#p19a3cd17e1)" style="fill: #add8e6; stroke: #000000; stroke-linejoin: miter"/>
   </g>
   <g id="line2d_24">
    <path d="M 290.25 283.68 
L 290.25 334.08 
" clip-path="url(#p19a3cd17e1)" style="fill: none; stroke: #000000; stroke-linecap: square"/>
   </g>
   <g id="line2d_25">
    <path d="M 290.25 199.68 
L 290.25 182.88 
" clip-path="url(#p19a3cd17e1)" style="fill: none; stroke: #000000; stroke-linecap: square"/>
   </g>
   <g id="line2d_26">
    <path d="M 283.9725 334.08 
L 296.5275 334.08 
" clip-path="url(#p19a3cd17e1)" style="fill: none; stroke: #000000; stroke-linecap: square"/>
   </g>
   <g id="line2d_27">
    <path d="M 283.9725 182.88 
L 296.5275 182.88 
" clip-path="url(#p19a3cd17e1)" style="fill: none; stroke: #000000; stroke-linecap: square"/>
   </g>
   <g id="line2d_28"/>
   <g id="patch_6">
    <path d="M 361.395 266.88 
L 386.505 266.88 
L 386.505 149.28 
L 361.395 149.28 
L 361.395 266.88 
z
" clip-path="url(#p19a3cd17e1)" style="fill: #add8e6; stroke: #000000; stroke-linejoin: miter"/>
   </g>
   <g id="line2d_29">
    <path d="M 373.95 266.88 
L 373.95 300.48 
" clip-path="url(#p19a3cd17e1)" style="fill: none; stroke: #000000; stroke-linecap: square"/>
   </g>
   <g id="line2d_30">
    <path d="M 373.95 149.28 
L 373.95 65.28 
" clip-path="url(#p19a3cd17e1)" style="fill: none; stroke: #000000; stroke-linecap: square"/>
   </g>
   <g id="line2d_31">
    <path d="M 367.6725 300.48 
L 380.2275 300.48 
" clip-path="url(#p19a3cd17e1)" style="fill: none; stroke: #000000; stroke-linecap: square"/>
   </g>
   <g id="line2d_32">
    <path d="M 367.6725 65.28 
L 380.2275 65.28 
" clip-path="url(#p19a3cd17e1)" style="fill: none; stroke: #000000; stroke-linecap: square"/>
   </g>
   <g id="line2d_33"/>
   <g id="patch_7">
    <path d="M 445.095 233.28 
L 470.205 233.28 
L 470.205 166.08 
L 445.095 166.08 
L 445.095 233.28 
z
" clip-path="url(#p19a3cd17e1)" style="fill: #add8e6; stroke: #000000; stroke-linejoin: miter"/>
   </g>
   <g id="line2d_34">
    <path d="M 457.65 233.28 
L 457.65 300.48 
" clip-path="url(#p19a3cd17e1)" style="fill: none; stroke: #000000; stroke-linecap: square"/>
   </g>
   <g id="line2d_35">
    <path d="M 457.65 166.08 
L 457.65 132.48 
" clip-path="url(#p19a3cd17e1)" style="fill: none; stroke: #000000; stroke-linecap: square"/>
   </g>
   <g id="line2d_36">
    <path d="M 451.3725 300.48 
L 463.9275 300.48 
" clip-path="url(#p19a3cd17e1)" style="fill: none; stroke: #000000; stroke-linecap: square"/>
   </g>
   <g id="line2d_37">
    <path d="M 451.3725 132.48 
L 463.9275 132.48 
" clip-path="url(#p19a3cd17e1)" style="fill: none; stroke: #000000; stroke-linecap: square"/>
   </g>
   <g id="line2d_38"/>
   <g id="patch_8">
    <path d="M 528.795 283.68 
L 553.905 283.68 
L 553.905 182.88 
L 528.795 182.88 
L 528.795 283.68 
z
" clip-path="url(#p19a3cd17e1)" style="fill: #add8e6; stroke: #000000; stroke-linejoin: miter"/>
   </g>
   <g id="line2d_39">
    <path d="M 541.35 283.68 
L 541.35 317.28 
" clip-path="url(#p19a3cd17e1)" style="fill: none; stroke: #000000; stroke-linecap: square"/>
   </g>
   <g id="line2d_40">
    <path d="M 541.35 182.88 
L 541.35 132.48 
" clip-path="url(#p19a3cd17e1)" style="fill: none; stroke: #000000; stroke-linecap: square"/>
   </g>
   <g id="line2d_41">
    <path d="M 535.0725 317.28 
L 547.6275 317.28 
" clip-path="url(#p19a3cd17e1)" style="fill: none; stroke: #000000; stroke-linecap: square"/>
   </g>
   <g id="line2d_42">
    <path d="M 535.0725 132.48 
L 547.6275 132.48 
" clip-path="url(#p19a3cd17e1)" style="fill: none; stroke: #000000; stroke-linecap: square"/>
   </g>
   <g id="line2d_43"/>
   <g id="line2d_44">
    <path d="M 110.295 233.28 
L 135.405 233.28 
" clip-path="url(#p19a3cd17e1)" style="fill: none; stroke: #000000"/>
   </g>
   <g id="line2d_45">
    <path d="M 193.995 266.88 
L 219.105 266.88 
" clip-path="url(#p19a3cd17e1)" style="fill: none; stroke: #000000"/>
   </g>
   <g id="line2d_46">
    <path d="M 277.695 233.28 
L 302.805 233.28 
" clip-path="url(#p19a3cd17e1)" style="fill: none; stroke: #000000"/>
   </g>
   <g id="line2d_47">
    <path d="M 361.395 233.28 
L 386.505 233.28 
" clip-path="url(#p19a3cd17e1)" style="fill: none; stroke: #000000"/>
   </g>
   <g id="line2d_48">
    <path d="M 445.095 182.88 
L 470.205 182.88 
" clip-path="url(#p19a3cd17e1)" style="fill: none; stroke: #000000"/>
   </g>
   <g id="line2d_49">
    <path d="M 528.795 233.28 
L 553.905 233.28 
" clip-path="url(#p19a3cd17e1)" style="fill: none; stroke: #000000"/>
   </g>
   <g id="patch_9">
    <path d="M 81 384.48 
L 81 51.84 
" style="fill: none; stroke: #000000; stroke-width: 0.8; stroke-linejoin: miter; stroke-linecap: square"/>
   </g>
   <g id="patch_10">
    <path d="M 583.2 384.48 
L 583.2 51.84 
" style="fill: none; stroke: #000000; stroke-width: 0.8; stroke-linejoin: miter; stroke-linecap: square"/>
   </g>
   <g id="patch_11">
    <path d="M 81 384.48 
L 583.2 384.48 
" style="fill: none; stroke: #000000; stroke-width: 0.8; stroke-linejoin: miter; stroke-linecap: square"/>
   </g>
   <g id="patch_12">
    <path d="M 81 51.84 
L 583.2 51.84 
" style="fill: none; stroke: #000000; stroke-width: 0.8; stroke-linejoin: miter; stroke-linecap: square"/>
   </g>
   <g id="text_16">
    <!-- Visual Load by Visualisation -->
    <g transform="translate(248.845313 31.84) scale(0.12 -0.12)">
     <defs>
      <path id="DejaVuSans-62" d="M 3116 1747 
Q 3116 2381 2855 2742 
Q 2594 3103 2138 3103 
Q 1681 3103 1420 2742 
Q 1159 2381 1159 1747 
Q 1159 1113 1420 752 
Q 1681 391 2138 391 
Q 2594 391 2855 752 
Q 3116 1113 3116 1747 
z
M 1159 2969 
Q 1341 3281 1617 3432 
Q 1894 3584 2278 3584 
Q 2916 3584 3314 3078 
Q 3713 2572 3713 1747 
Q 3713 922 3314 415 
Q 2916 -91 2278 -91 
Q 1894 -91 1617 61 
Q 1341 213 1159 525 
L 1159 0 
L 581 0 
L 581 4863 
L 1159 4863 
L 1159 2969 
z
" transform="scale(0.015625)"/>
      <path id="DejaVuSans-79" d="M 2059 -325 
Q 1816 -950 1584 -1140 
Q 1353 -1331 966 -1331 
L 506 -1331 
L 506 -850 
L 844 -850 
Q 1081 -850 1212 -737 
Q 1344 -625 1503 -206 
L 1606 56 
L 191 3500 
L 800 3500 
L 1894 763 
L 2988 3500 
L 3597 3500 
L 2059 -325 
z
" transform="scale(0.015625)"/>
     </defs>
     <use xlink:href="#DejaVuSans-56"/>
     <use xlink:href="#DejaVuSans-69" transform="translate(66.158203 0)"/>
     <use xlink:href="#DejaVuSans-73" transform="translate(93.941406 0)"/>
     <use xlink:href="#DejaVuSans-75" transform="translate(146.041016 0)"/>
     <use xlink:href="#DejaVuSans-61" transform="translate(209.419922 0)"/>
     <use xlink:href="#DejaVuSans-6c" transform="translate(270.699219 0)"/>
     <use xlink:href="#DejaVuSans-20" transform="translate(298.482422 0)"/>
     <use xlink:href="#DejaVuSans-4c" transform="translate(330.269531 0)"/>
     <use xlink:href="#DejaVuSans-6f" transform="translate(384.232422 0)"/>
     <use xlink:href="#DejaVuSans-61" transform="translate(445.414062 0)"/>
     <use xlink:href="#DejaVuSans-64" transform="translate(506.693359 0)"/>
     <use xlink:href="#DejaVuSans-20" transform="translate(570.169922 0)"/>
     <use xlink:href="#DejaVuSans-62" transform="translate(601.957031 0)"/>
     <use xlink:href="#DejaVuSans-79" transform="translate(665.433594 0)"/>
     <use xlink:href="#DejaVuSans-20" transform="translate(724.613281 0)"/>
     <use xlink:href="#DejaVuSans-56" transform="translate(756.400391 0)"/>
     <use xlink:href="#DejaVuSans-69" transform="translate(822.558594 0)"/>
     <use xlink:href="#DejaVuSans-73" transform="translate(850.341797 0)"/>
     <use xlink:href="#DejaVuSans-75" transform="translate(902.441406 0)"/>
     <use xlink:href="#DejaVuSans-61" transform="translate(965.820312 0)"/>
     <use xlink:href="#DejaVuSans-6c" transform="translate(1027.099609 0)"/>
     <use xlink:href="#DejaVuSans-69" transform="translate(1054.882812 0)"/>
     <use xlink:href="#DejaVuSans-73" transform="translate(1082.666016 0)"/>
     <use xlink:href="#DejaVuSans-61" transform="translate(1134.765625 0)"/>
     <use xlink:href="#DejaVuSans-74" transform="translate(1196.044922 0)"/>
     <use xlink:href="#DejaVuSans-69" transform="translate(1235.253906 0)"/>
     <use xlink:href="#DejaVuSans-6f" transform="translate(1263.037109 0)"/>
     <use xlink:href="#DejaVuSans-6e" transform="translate(1324.21875 0)"/>
    </g>
   </g>
  </g>
 </g>
 <defs>
  <clipPath id="p19a3cd17e1">
   <rect x="81" y="51.84" width="502.2" height="332.64"/>
  </clipPath>
 </defs>
</svg>
